<svg viewBox="0 0 298.2887 164.9136" width="5000px" height="2764.3287658563395px" xmlns="http://www.w3.org/2000/svg" xmlns:xlink="http://www.w3.org/1999/xlink" preserveAspectRatio="none"><defs></defs><style>.aD6z1nYkhcolor {fill:#1EDD14;fill-opacity:1;}.aLgOaV3zRcolors-0 {fill:#1EDD14;fill-opacity:1;}.aLgOaV3zRcolors-1 {fill:#555555;fill-opacity:1;}.aLgOaV3zRcolors-2 {fill:#AAAAAA;fill-opacity:1;}</style><g opacity="1" transform="rotate(0 0 132.9163)">
<svg width="298.2887" height="31.9973" x="0" y="132.9163" version="1.1" preserveAspectRatio="none" viewBox="1.56 -29.68 281.16 30.16">
  <g transform="matrix(1 0 0 1 0 0)" class="aD6z1nYkhcolor"><path d="M16.72 0.48Q12.44 0.48 8.98-1.38Q5.52-3.24 3.54-6.54Q1.56-9.84 1.56-14L1.56-14Q1.56-18.16 3.54-21.46Q5.52-24.76 8.98-26.62Q12.44-28.48 16.76-28.48L16.76-28.48Q20.40-28.48 23.34-27.20Q26.28-25.92 28.28-23.52L28.28-23.52L24.12-19.68Q21.28-22.96 17.08-22.96L17.08-22.96Q14.48-22.96 12.44-21.82Q10.40-20.68 9.26-18.64Q8.12-16.60 8.12-14L8.12-14Q8.12-11.40 9.26-9.36Q10.40-7.32 12.44-6.18Q14.48-5.04 17.08-5.04L17.08-5.04Q21.28-5.04 24.12-8.36L24.12-8.36L28.28-4.52Q26.28-2.08 23.32-0.80Q20.36 0.48 16.72 0.48L16.72 0.48Z M41.68 0.32Q38.28 0.32 35.58-1.10Q32.88-2.52 31.36-5.04Q29.84-7.56 29.84-10.76L29.84-10.76Q29.84-13.96 31.36-16.48Q32.88-19 35.58-20.42Q38.28-21.84 41.68-21.84L41.68-21.84Q45.08-21.84 47.76-20.42Q50.44-19 51.96-16.48Q53.48-13.96 53.48-10.76L53.48-10.76Q53.48-7.56 51.96-5.04Q50.44-2.52 47.76-1.10Q45.08 0.32 41.68 0.32L41.68 0.32ZM41.68-4.80Q44.08-4.80 45.62-6.42Q47.16-8.04 47.16-10.76L47.16-10.76Q47.16-13.48 45.62-15.10Q44.08-16.72 41.68-16.72L41.68-16.72Q39.28-16.72 37.72-15.10Q36.16-13.48 36.16-10.76L36.16-10.76Q36.16-8.04 37.72-6.42Q39.28-4.80 41.68-4.80L41.68-4.80Z M64.88 0.32Q62.20 0.32 59.64-0.34Q57.08-1 55.56-2L55.56-2L57.64-6.48Q59.08-5.56 61.12-4.98Q63.16-4.40 65.12-4.40L65.12-4.40Q69.08-4.40 69.08-6.36L69.08-6.36Q69.08-7.28 68-7.68Q66.92-8.08 64.68-8.36L64.68-8.36Q62.04-8.76 60.32-9.28Q58.60-9.80 57.34-11.12Q56.08-12.44 56.08-14.88L56.08-14.88Q56.08-16.92 57.26-18.50Q58.44-20.08 60.70-20.96Q62.96-21.84 66.04-21.84L66.04-21.84Q68.32-21.84 70.58-21.34Q72.84-20.84 74.32-19.96L74.32-19.96L72.24-15.52Q69.40-17.12 66.04-17.12L66.04-17.12Q64.04-17.12 63.04-16.56Q62.04-16 62.04-15.12L62.04-15.12Q62.04-14.12 63.12-13.72Q64.20-13.32 66.56-12.96L66.56-12.96Q69.20-12.52 70.88-12.02Q72.56-11.52 73.80-10.20Q75.04-8.88 75.04-6.52L75.04-6.52Q75.04-4.52 73.84-2.96Q72.64-1.40 70.34-0.54Q68.04 0.32 64.88 0.32L64.88 0.32Z M91.08-5.44L92.76-1.04Q91.84-0.36 90.50-0.02Q89.16 0.32 87.68 0.32L87.68 0.32Q83.84 0.32 81.74-1.64Q79.64-3.60 79.64-7.40L79.64-7.40L79.64-16.24L76.32-16.24L76.32-21.04L79.64-21.04L79.64-26.28L85.88-26.28L85.88-21.04L91.24-21.04L91.24-16.24L85.88-16.24L85.88-7.48Q85.88-6.12 86.58-5.38Q87.28-4.64 88.56-4.64L88.56-4.64Q90.04-4.64 91.08-5.44L91.08-5.44Z M116.68-10.68Q116.68-10.56 116.56-9L116.56-9L100.28-9Q100.72-7 102.36-5.84Q104-4.68 106.44-4.68L106.44-4.68Q108.12-4.68 109.42-5.18Q110.72-5.68 111.84-6.76L111.84-6.76L115.16-3.16Q112.12 0.32 106.28 0.32L106.28 0.32Q102.64 0.32 99.84-1.10Q97.04-2.52 95.52-5.04Q94-7.56 94-10.76L94-10.76Q94-13.92 95.50-16.46Q97-19 99.62-20.42Q102.24-21.84 105.48-21.84L105.48-21.84Q108.64-21.84 111.20-20.48Q113.76-19.12 115.22-16.58Q116.68-14.04 116.68-10.68L116.68-10.68ZM105.52-17.12Q103.40-17.12 101.96-15.92Q100.52-14.72 100.20-12.64L100.20-12.64L110.80-12.64Q110.48-14.68 109.04-15.90Q107.60-17.12 105.52-17.12L105.52-17.12Z M120.84 0L120.84-29.68L127.08-29.68L127.08 0L120.84 0Z M132.88 0L132.88-29.68L139.12-29.68L139.12 0L132.88 0Z M155.16 0.32Q151.76 0.32 149.06-1.10Q146.36-2.52 144.84-5.04Q143.32-7.56 143.32-10.76L143.32-10.76Q143.32-13.96 144.84-16.48Q146.36-19 149.06-20.42Q151.76-21.84 155.16-21.84L155.16-21.84Q158.56-21.84 161.24-20.42Q163.92-19 165.44-16.48Q166.96-13.96 166.96-10.76L166.96-10.76Q166.96-7.56 165.44-5.04Q163.92-2.52 161.24-1.10Q158.56 0.32 155.16 0.32L155.16 0.32ZM155.16-4.80Q157.56-4.80 159.10-6.42Q160.64-8.04 160.64-10.76L160.64-10.76Q160.64-13.48 159.10-15.10Q157.56-16.72 155.16-16.72L155.16-16.72Q152.76-16.72 151.20-15.10Q149.64-13.48 149.64-10.76L149.64-10.76Q149.64-8.04 151.20-6.42Q152.76-4.80 155.16-4.80L155.16-4.80Z M192.20-10.68Q192.20-10.56 192.08-9L192.08-9L175.80-9Q176.24-7 177.88-5.84Q179.52-4.68 181.96-4.68L181.96-4.68Q183.64-4.68 184.94-5.18Q186.24-5.68 187.36-6.76L187.36-6.76L190.68-3.16Q187.64 0.32 181.80 0.32L181.80 0.32Q178.16 0.32 175.36-1.10Q172.56-2.52 171.04-5.04Q169.52-7.56 169.52-10.76L169.52-10.76Q169.52-13.92 171.02-16.46Q172.52-19 175.14-20.42Q177.76-21.84 181.00-21.84L181.00-21.84Q184.16-21.84 186.72-20.48Q189.28-19.12 190.74-16.58Q192.20-14.04 192.20-10.68L192.20-10.68ZM181.04-17.12Q178.92-17.12 177.48-15.92Q176.04-14.72 175.72-12.64L175.72-12.64L186.32-12.64Q186.00-14.68 184.56-15.90Q183.12-17.12 181.04-17.12L181.04-17.12Z M203.60 0.32Q200.92 0.32 198.36-0.34Q195.80-1 194.28-2L194.28-2L196.36-6.48Q197.80-5.56 199.84-4.98Q201.88-4.40 203.84-4.40L203.84-4.40Q207.80-4.40 207.80-6.36L207.80-6.36Q207.80-7.28 206.72-7.68Q205.64-8.08 203.40-8.36L203.40-8.36Q200.76-8.76 199.04-9.28Q197.32-9.80 196.06-11.12Q194.80-12.44 194.80-14.88L194.80-14.88Q194.80-16.92 195.98-18.50Q197.16-20.08 199.42-20.96Q201.68-21.84 204.76-21.84L204.76-21.84Q207.04-21.84 209.30-21.34Q211.56-20.84 213.04-19.96L213.04-19.96L210.96-15.52Q208.12-17.12 204.76-17.12L204.76-17.12Q202.76-17.12 201.76-16.56Q200.76-16 200.76-15.12L200.76-15.12Q200.76-14.12 201.84-13.72Q202.92-13.32 205.28-12.96L205.28-12.96Q207.92-12.52 209.60-12.02Q211.28-11.52 212.52-10.20Q213.76-8.88 213.76-6.52L213.76-6.52Q213.76-4.52 212.56-2.96Q211.36-1.40 209.06-0.54Q206.76 0.32 203.60 0.32L203.60 0.32Z M235.80-5.20L251.04-5.20L251.04 0L229.36 0L229.36-28L250.52-28L250.52-22.80L235.80-22.80L235.80-16.72L248.80-16.72L248.80-11.68L235.80-11.68L235.80-5.20Z M276.28-28L282.72-28L270.60 0L264.20 0L252.12-28L259.12-28L267.64-8L276.28-28Z"></path></g>
</svg>
</g><g opacity="1" transform="rotate(0 99.8071 0)">
<svg width="123.6572" height="112.1879" x="99.8071" y="0" version="1.1" preserveAspectRatio="none" viewBox="0 0 93.8 85.1">
  <g transform="matrix(1 0 0 1 0 0)" class="aLgOaV3zRcolors-0"><title>043</title><path d="M52.1,7.4a2.22,2.22,0,0,0-2.2,2.2v5.5c-15.2.4-23.7,3.3-24.1,3.4a2.73,2.73,0,0,0-1.2.9c-1.2,1.4-6.4,7.9-11.9,20.4H10a6.91,6.91,0,0,0-6.9,6.9v.4A6.91,6.91,0,0,0,10,54h.3V80a8.07,8.07,0,0,0,8.1,8.1h6.2A8.22,8.22,0,0,0,32.8,80h17V90.3a2.2,2.2,0,0,0,4.4,0V9.7A2.22,2.22,0,0,0,52.1,7.4ZM49.8,75.6H21.5a2.25,2.25,0,0,0-.1,4.5h7a3.67,3.67,0,0,1-3.7,3.6H18.5a3.67,3.67,0,0,1-3.7-3.6v-28a2.43,2.43,0,0,0-2.4-2.4H10a2.48,2.48,0,0,1-2.5-2.5v-.4A2.48,2.48,0,0,1,10,44.3h4.4c1.7,0,2.3-1.4,3.1-3.1,0,0,9-17.2,10.2-18.6,2.1-.6,9.8-2.6,22.1-3Z" transform="translate(-3.1 -7.4)"></path><path d="M69.9,51.27a6.74,6.74,0,1,0,13.48,0V46.9H69.9Z" transform="translate(-3.1 -7.4)"></path><path d="M76.7,29.8A20.2,20.2,0,1,0,96.9,50,20.21,20.21,0,0,0,76.7,29.8ZM87.1,51a10.63,10.63,0,0,1-8.76,10.55,11.45,11.45,0,0,1-2.71.06A10.38,10.38,0,0,1,66.3,51.27v-5a3,3,0,0,1,3-3h2.25v-4.8c0-.39.82-.71,1.82-.71s1.81.32,1.81.71v4.8h3.63v-4.8c0-.39.82-.71,1.82-.71s1.81.32,1.81.71v4.8h1.71a3,3,0,0,1,3,3Z" transform="translate(-3.1 -7.4)"></path></g>
</svg>
</g></svg>