<svg xmlns="http://www.w3.org/2000/svg" viewBox="0 0 602.8 101.7" style="enable-background:new 0 0 602.8 101.7" xml:space="preserve"><path d="m208.4 43.9.3 3.2c.1 1.3.2 2.6.2 3.7 0 21.8-17.7 39.5-39.5 39.5s-39.5-17.7-39.5-39.5c0-1.2.1-2.4.2-3.7l.3-3.2-11 16 .1.3c4.5 24 25.5 41.4 49.9 41.4 15.3 0 29.9-7 39.5-18.9v14.1h11.3V61.2l-11.8-17.3zM283.2 49.5l.5.2c.8.3 1.5.6 2.2.8.7.3 1.5.6 2.3.9l.5.2c8.8 3.2 26.1 9.1 28 18.6l8.2-9.5c-6.6-10.6-22.3-16-32.4-19.7l-.4-.1-2.4-.9c-.9-.3-1.9-.7-2.8-1-8.6-3.1-20.3-7.4-20.3-13.4 0-7.6 9.7-14.1 21.1-14.1 11.5 0 21.1 6.5 21.1 14.1v.9h11.3v-.9c0-14-14.5-25.4-32.4-25.4s-32.4 11.4-32.4 25.4c.2 13.9 16.2 19.7 27.9 23.9zM480.7 50.4h95.1c0-13.5-5.8-26.6-15.3-35.9C550.9 5.2 538.3.1 525 .1c-24.5 0-45.7 17.3-50 42l5.7 8.3zm6.5-10.9c5-16.6 20.4-28.2 37.8-28.2s32.8 11.5 37.8 28.2h-75.6zM450.4 51.1h-87.9l-6 8.8c3.9 23.5 25.5 41.8 50 41.8 13.9 0 27.4-5.8 37-16l.6-.6-8.2-7.8-.6.6c-7.5 8-17.8 12.4-28.7 12.4-17.4 0-32.7-11.5-37.8-28h89.4l-7.8-11.2z"/><path d="M560.5 68.3c-7.1 14.1-20.7 21.9-35.3 22-12.4.1-23.6-5.5-32.6-13.8-8.6-8-14.9-18-21.5-27.6-6.3-9.2-12.2-18.6-19.7-26.9-7.8-8.6-17.1-15.8-28.2-19.4-12.2-4-25.8-3.4-37.6 1.6-21.6 9-34.1 30.3-46.6 48.8-6.3 9.3-12.8 18.7-21.5 26-9.5 8-21.3 12.4-33.8 11.2-25.6-2.4-39.8-26.6-52.8-45.8-12.3-18.3-26.3-37.5-49-42.9-12.5-3-25.8-1.4-37.2 4.4-10.1 5.2-18.4 13.3-25.4 22.1-7 8.9-13 18.5-19.4 27.9-6.4 9.4-13.4 18.8-22.6 25.5-10.1 7.3-22.8 10.7-35.2 8-11.7-2.6-21.8-10.6-27-21.5-2.6-5.5-3.9-11.5-3.9-17.5H95l5.8-8.4c-.2-1.5-.9-4.1-1.3-5.4-.7-2.5-1.7-5-2.8-7.4-2.2-4.6-5.1-8.8-8.5-12.5C73.6.2 49.9-4.3 30 4.5 11.6 12.7.1 31 0 50.9-.1 68.9 10 86 25.5 95c15.8 9.1 35.7 8.8 51.6.1 14.3-7.8 24.3-21 33.2-34.3 5-7.4 9.9-15 15.2-22.2 5.1-6.9 10.9-13.5 17.9-18.6 7.5-5.4 16.4-8.6 25.6-8.6 9.3 0 18.2 3 25.8 8.4 7.1 5 12.9 11.6 18 18.5 5.5 7.3 10.4 15.1 15.5 22.7 9 13.3 19.1 26.6 33.5 34.3 16.6 8.9 37.1 8.6 53.4-.8 14-8.1 23.8-21.3 32.7-34.5 5.1-7.5 10-15.2 15.4-22.4 5.2-6.9 11.1-13.5 18.4-18.4 7.7-5.2 16.6-8 25.9-7.7 9.2.3 17.8 3.6 25.2 9 7 5.2 12.7 11.9 17.9 18.9 5.2 7 9.9 14.4 14.8 21.6 9 13.3 19.1 26.6 33.5 34.3 17.2 9.2 38.7 8.6 54.8-2.5 7.3-5.1 13-11.9 17-19.9-1.9-1-9.2-4.1-10.3-4.6zM19.2 27.2c6.7-8.9 17-14.8 28.2-15.7 11.7-1 23.4 3.3 31.6 11.7 4.5 4.6 7.8 10.2 9.7 16.3H13.1c1.2-4.4 3.3-8.6 6.1-12.3zM590.3 25c-6.9 0-12.5-5.6-12.5-12.5S583.4 0 590.3 0s12.5 5.6 12.5 12.5S597.2 25 590.3 25zm0-23.1c-5.9 0-10.6 4.8-10.6 10.6s4.8 10.6 10.6 10.6c5.9 0 10.6-4.8 10.6-10.6s-4.7-10.6-10.6-10.6z"/><path d="M588.3 13.9v5.3h-2.2V5.9h3.7c1.7 0 3 .3 3.8 1s1.2 1.6 1.2 2.9c0 1.6-.9 2.8-2.6 3.5l3.7 5.9h-2.5l-3.2-5.3h-1.9zm0-1.8h1.5c1 0 1.7-.2 2.2-.6.5-.4.7-.9.7-1.7 0-.7-.2-1.3-.7-1.6-.5-.3-1.2-.5-2.2-.5h-1.4v4.4z"/></svg>