<?xml version="1.0" encoding="UTF-8"?>
<!-- Generator: Adobe Illustrator 21.0.2, SVG Export Plug-In . SVG Version: 6.00 Build 0)  -->
<svg xmlns="http://www.w3.org/2000/svg" xmlns:xlink="http://www.w3.org/1999/xlink" id="Layer_1" x="0px" y="0px" viewBox="0 0 180.5 49.6" width="180" height="49" style="enable-background:new 0 0 180.5 49.6;" xml:space="preserve">
<g>
	<path style="fill:#6E7473;" d="M95,25.6c-1.6,1-3.7,1.5-6.3,1.5H81c0-0.6,0.5-1.2,1.1-1.2h6.5c3.6,0,7.9-1,7.9-5.8   c0-3.7-2.7-5.6-7.9-5.6h-8.8c-0.1,0-0.2,0.1-0.2,0.2v21.7c0,0.6-0.5,1.1-1.2,1.1v-23c0-0.6,0.5-1.1,1.2-1.1h9   c7.5,0,9.1,3.7,9.1,6.7C97.7,22.6,96.8,24.5,95,25.6C95,25.7,95,25.6,95,25.6z M112.7,37.7c-6.8,0-12.3-5.6-12.3-12.4   S105.9,13,112.7,13c6.8,0,12.3,5.5,12.3,12.4C125,32.2,119.5,37.7,112.7,37.7L112.7,37.7z M112.7,14.2c-6.1,0-11.1,5-11.1,11.2   s5,11.2,11.1,11.2c6.2,0,11.1-5,11.1-11.2C123.8,19.2,118.8,14.2,112.7,14.2L112.7,14.2z M130.3,37.6c-0.6,0-1.1-0.5-1.1-1.1V13.4   c0.6,0,1.2,0.5,1.2,1.1L130.3,37.6C130.4,37.6,130.3,37.6,130.3,37.6z M155.6,37.5c-0.3,0-0.6-0.1-0.8-0.4l-17.3-22.3v21.6   c0,0.7-0.5,1.1-1.2,1.2V14.5c0-0.6,0.5-1.2,1.1-1.2c0.3,0,0.5,0.1,0.7,0.4l17.4,22.5V14.5c0-0.6,0.5-1.1,1.2-1.1v23.1   C156.6,37,156.1,37.5,155.6,37.5L155.6,37.5z M179.3,14.7h-8.4v22.8c-0.7,0-1.2-0.5-1.2-1.1V14.7h-8.5c-0.6,0-1.2-0.5-1.2-1.2h20.4   C180.5,14.2,180,14.7,179.3,14.7L179.3,14.7z M67.4,24.8V3.5c-0.8-1.2-1.6-2.4-2.5-3.5v24.8c0,5.3-4.3,9.6-9.6,9.6   c-5.1,0-9.3-4.1-9.5-9.1v-0.4c0-6.6-5.4-12-12-12s-12,5.4-12,12v0.4c-0.2,5.1-4.4,9.1-9.5,9.1c-5.3,0-9.6-4.3-9.6-9.6H0.2   c0,6.6,5.4,12,12,12s12-5.4,12-12v-0.4c0.2-5.1,4.4-9.1,9.5-9.1s9.3,4.1,9.5,9.1v0.4c0,6.6,5.4,12,12,12   C62,36.8,67.4,31.4,67.4,24.8L67.4,24.8z"></path>
	<path style="fill:#171717;" d="M45.8,25.4L45.8,25.4c-0.1,1.7-0.5,3.3-1.3,4.8c0.1,0.2,0.2,0.5,0.4,0.7v-0.1c1-1.4,1-3.8,0.9-4.9   C45.9,25.7,45.8,25.5,45.8,25.4L45.8,25.4z M21.7,25.4c0,0.2,0,0.3,0,0.5c-0.1,1-0.1,3.5,0.9,4.9v0.1c0.1-0.2,0.2-0.4,0.4-0.7   C22.3,28.6,21.8,27,21.7,25.4L21.7,25.4L21.7,25.4L21.7,25.4z"></path>
	<path style="fill:#8CC63F;" d="M64.9,17.5c-2.3-3-5.8-4.7-9.6-4.7c-6.6,0-12,5.4-12,12v0.4c-0.2,5.1-4.4,9.1-9.5,9.1   s-9.3-4.1-9.5-9.1v-0.4c0-6.6-5.4-12-12-12s-12,5.4-12,12v21.3c0.8,1.2,1.6,2.4,2.5,3.5V24.8c0-5.3,4.3-9.6,9.6-9.6   c5.1,0,9.3,4.1,9.5,9.1v0.4c0,6.6,5.4,12,12,12s12-5.4,12-12v-0.4c0.2-5.1,4.4-9.1,9.5-9.1c5.3,0,9.5,4.3,9.6,9.5L64.9,17.5"></path>
</g>
</svg>
