<?xml version="1.0" encoding="UTF-8"?>
<svg width="300px" height="62px" viewBox="0 0 300 62" version="1.1" xmlns="http://www.w3.org/2000/svg" xmlns:xlink="http://www.w3.org/1999/xlink">
    <!-- Generator: Sketch 55.2 (78181) - https://sketchapp.com -->
    <title>wallbox_logo</title>
    <desc>Created with Sketch.</desc>
    <g id="Page-1" stroke="none" stroke-width="1" fill="none" fill-rule="evenodd">
        <g id="Desktop-HD-Copy-2" transform="translate(-570.000000, -365.000000)" fill="#FFFFFF" fill-rule="nonzero">
            <g id="wallbox_logo" transform="translate(570.000000, 365.000000)">
                <path d="M169.060376,56.7602294 C169.060376,57.791587 169.060376,58.8110899 169.060376,59.8305927 C169.060376,60.6959847 169.048381,60.7078394 168.208717,60.7078394 C164.298281,60.7078394 160.387845,60.7078394 156.477409,60.7078394 C155.673731,60.7078394 155.661735,60.68413 155.64974,59.8898662 C155.64974,59.7476099 155.64974,59.6053537 155.64974,59.4630975 C155.64974,40.056979 155.64974,20.6508604 155.64974,1.25659656 C155.64974,-0.0118546845 155.541783,0.0948374761 156.813275,0.0948374761 C160.519792,0.0948374761 164.226309,0.0948374761 167.932827,0.0948374761 C168.136745,0.0948374761 168.340664,0.106692161 168.544582,0.0948374761 C168.904438,0.0829827916 169.096361,0.213384321 169.072371,0.592734226 C169.060376,0.817973231 169.072371,1.05506692 169.072371,1.28030593 C169.072371,9.31778203 169.072371,17.3671128 169.072371,25.4045889 C169.072371,25.7720841 169.072371,26.151434 169.072371,26.5426386 C169.420232,26.5070746 169.636146,26.2818356 169.852059,26.0921606 C170.859656,25.1437859 171.987205,24.3732314 173.210716,23.7330784 C173.798481,23.4248566 174.422231,23.223327 175.045982,22.9862333 C175.945622,22.6424474 176.905238,22.3460803 177.840864,22.1919694 C179.40024,21.943021 180.995602,21.8481836 182.590964,22.0141491 C184.126349,22.16826 185.589764,22.5594646 187.029188,23.0217973 C188.240704,23.4130019 189.404238,23.9583174 190.519792,24.6458891 C192.17513,25.6772467 193.614554,26.9101338 194.910036,28.332696 C195.953619,29.4826004 196.745302,30.7984704 197.489004,32.1499044 C198.268693,33.5606119 198.70052,35.0780115 199.168333,36.6072658 C199.972011,39.2627151 199.960016,41.9537285 199.744102,44.6565966 C199.672131,45.5575526 199.384246,46.482218 199.156337,47.383174 C198.856457,48.5449331 198.532587,49.6948375 197.992803,50.7617591 C197.153139,52.4332696 196.241503,54.0692161 194.970012,55.5036329 C193.878449,56.7365201 192.642943,57.791587 191.347461,58.7755258 C190.759696,59.2260038 190.09996,59.593499 189.416234,59.9017208 C187.72491,60.6722753 186.021591,61.3835564 184.138345,61.6680688 C182.722911,61.8814532 181.319472,61.9525813 179.904038,61.9288719 C177.0012,61.8814532 174.37425,60.9804971 171.963215,59.3801147 C171.159536,58.8466539 170.571771,58.1116635 169.912035,57.4359465 C169.672131,57.1751434 169.516194,56.8432122 169.060376,56.7602294 Z M168.70052,41.9655832 C168.70052,42.3330784 168.676529,42.6531549 168.70052,42.9613767 C168.940424,45.4390057 169.996002,47.4898662 172.119152,48.8887189 C173.606557,49.8726577 175.297881,50.2638623 177.073171,50.4061185 C178.056777,50.4891013 178.956417,50.2045889 179.868053,50.0030593 C181.079568,49.7304015 182.255098,49.2325048 183.154738,48.3671128 C184.402239,47.1697897 185.34986,45.7946463 185.673731,44.0164436 C186.165534,41.3847036 185.853659,38.9782027 184.234306,36.785086 C183.142743,35.3032505 181.703319,34.307457 179.904038,33.8806883 C177.804878,33.3827916 175.753699,33.4183556 173.690524,34.1889101 C172.227109,34.7342256 171.063575,35.623327 170.211915,36.8562141 C169.168333,38.4091778 168.520592,40.1043977 168.70052,41.9655832 Z" id="Shape"></path>
                <path d="M54.3862455,36.0619503 C54.3862455,39.7843212 54.3502599,43.5066922 54.3982407,47.2290631 C54.4222311,48.9717017 54.1583367,50.6550669 53.5585766,52.267304 C53.1147541,53.4646272 52.4430228,54.5671128 51.6273491,55.5866157 C50.1759296,57.4003824 48.4006397,58.8110899 46.2894842,59.8305927 C43.2906837,61.2887189 40.1239504,61.8340344 36.8132747,61.549522 C34.9660136,61.3954111 33.3226709,60.6367113 31.7033187,59.818738 C30.2279088,59.0718929 29.0043982,57.981262 27.7808876,56.9024857 C27.3010796,56.475717 27.3010796,56.4520076 26.8092763,56.8787763 C26.0655738,57.5070746 25.3818473,58.206501 24.5901639,58.7755258 C23.9064374,59.2734226 23.1267493,59.6883365 22.3710516,60.0676864 C21.3994402,60.5537285 20.4278289,61.0279159 19.3602559,61.2768642 C18.8564574,61.3954111 18.3406637,61.5021033 17.8248701,61.549522 C16.1215514,61.7036329 14.3942423,61.6562141 12.7269092,61.3361377 C10.5437825,60.9212237 8.48060776,60.0795411 6.60935626,58.9059273 C4.89404238,57.8390057 3.45461815,56.4164436 2.32706917,54.7567878 C1.55937625,53.6305927 1.10355858,52.3265774 0.647740904,51.0344168 C0.119952019,49.5407266 0.0959616154,48.023327 0.0959616154,46.482218 C0.0959616154,38.8952199 0.0959616154,31.3082218 0.0959616154,23.7212237 C0.0959616154,23.5196941 0.0959616154,23.3181644 0.0959616154,23.1166348 C0.119952019,22.4646272 0.119952019,22.4527725 0.791683327,22.4527725 C4.55817673,22.4527725 8.32467013,22.4527725 12.0911635,22.4527725 C12.8108756,22.4527725 12.8108756,22.4646272 12.8108756,23.3537285 C12.8108756,29.8263862 12.8108756,36.2871893 12.8108756,42.759847 C12.8108756,43.7082218 12.7628948,44.6565966 12.8348661,45.5931166 C12.9188325,46.8852772 13.3626549,48.023327 14.4782087,48.8294455 C15.1139544,49.2917782 15.8936425,49.4221797 16.6013595,49.4577438 C17.6569372,49.5051625 18.7365054,49.3154876 19.6001599,48.5686424 C20.3438625,47.9166348 20.7037185,47.0749522 20.8356657,46.1028681 C20.9556178,45.1900574 20.9556178,44.2772467 20.9556178,43.3644359 C20.9556178,36.749522 20.9556178,30.1464627 20.9556178,23.5315488 C20.9556178,22.3105163 20.9556178,22.4527725 22.0351859,22.4527725 C25.5737705,22.4527725 29.1003599,22.4527725 32.6389444,22.4527725 C32.8428629,22.4527725 33.0467813,22.4527725 33.2506997,22.4527725 C33.5745702,22.4527725 33.7305078,22.6424474 33.7544982,22.9269598 C33.7784886,23.1877629 33.7784886,23.4367113 33.7784886,23.6975143 C33.7784886,30.6562141 33.7784886,37.6030593 33.7784886,44.5617591 C33.7784886,45.1070746 33.7544982,45.6523901 33.8144742,46.1858509 C33.9944022,47.6913958 34.810076,48.9361377 36.5253898,49.2917782 C37.604958,49.5170172 38.5765694,49.3866157 39.5721711,49.0783939 C40.1239504,48.9124283 40.5317873,48.5804971 40.8316673,48.1063098 C41.4314274,47.193499 41.6713315,46.1977055 41.6713315,45.1070746 C41.6593363,40.4126195 41.6593363,35.7181644 41.6593363,31.0237094 C41.6593363,28.4512428 41.6593363,25.8669216 41.6593363,23.2944551 C41.6593363,22.4409178 41.6713315,22.4290631 42.5229908,22.4290631 C46.2055178,22.4290631 49.8760496,22.4290631 53.5585766,22.4290631 C54.3622551,22.4290631 54.3742503,22.4409178 54.3742503,23.2351816 C54.3862455,27.5384321 54.3862455,31.8061185 54.3862455,36.0619503 L54.3862455,36.0619503 Z" id="Path"></path>
                <path d="M90.5397841,26.6374761 C90.5397841,25.7246654 90.5397841,24.9185468 90.5397841,24.124283 C90.5397841,23.258891 90.5397841,23.258891 91.4634146,23.258891 C93.0587765,23.258891 94.6421431,23.258891 96.237505,23.258891 C98.5285886,23.258891 100.807677,23.258891 103.09876,23.258891 C104.130348,23.258891 104.046381,23.2470363 104.046381,24.1835564 C104.046381,32.0550669 104.046381,39.9147228 104.046381,47.7862333 C104.046381,51.6745698 104.046381,55.5629063 104.046381,59.4630975 C104.046381,59.6290631 104.046381,59.8068834 104.046381,59.9728489 C104.022391,60.7552581 103.97441,60.8145315 103.206717,60.8145315 C101.851259,60.8263862 100.483806,60.8145315 99.1283487,60.8145315 C96.6093563,60.8145315 94.0903639,60.8145315 91.5713715,60.8145315 C90.6357457,60.8145315 90.5397841,60.7078394 90.5397841,59.7713193 C90.5397841,58.8110899 90.5397841,57.8508604 90.5397841,56.8313576 C90.0359856,57.0565966 89.8320672,57.4596558 89.5681727,57.7560229 C88.5245902,58.9296367 87.2411036,59.7713193 85.8496601,60.4826004 C84.7221112,61.0516252 83.5105958,61.3479924 82.27509,61.6325048 C80.5717713,62.0237094 78.8684526,61.9881453 77.1891244,61.8577438 C75.2459016,61.7036329 73.3266693,61.2887189 71.5513794,60.4114723 C70.7596961,60.0202677 69.920032,59.6764818 69.1763295,59.1904398 C67.0651739,57.8271511 65.229908,56.1912046 63.7784886,54.1047801 C63.0107957,52.9904398 62.315074,51.8642447 61.7872851,50.6313576 C61.2235106,49.3036329 60.6717313,47.9759082 60.3838465,46.5414914 C60.0239904,44.7632887 59.880048,42.985086 59.9160336,41.183174 C59.9520192,39.1441683 60.2638944,37.1525813 60.9356257,35.2202677 C61.4994002,33.6080306 62.1111555,31.9957935 63.0947621,30.5969407 C63.9944022,29.3166348 64.9180328,28.0600382 66.1055578,26.9931166 C67.5809676,25.6535373 69.1763295,24.5154876 70.987605,23.673805 C72.235106,23.0929254 73.5665734,22.7491396 74.910036,22.4053537 C76.3494602,22.0378585 77.8008796,21.8956023 79.2642943,21.9311663 C81.8552579,22.0022945 84.3022791,22.6543021 86.6413435,23.7804971 C88.0687725,24.4799235 89.2323071,25.5112811 90.5397841,26.6374761 Z M82.3590564,50.4179732 C83.6305478,50.4772467 84.7940824,50.0623327 85.9696122,49.6948375 C87.6729308,49.1732314 88.8964414,48.023327 89.820072,46.5889101 C90.4438225,45.6286807 90.7437025,44.5380497 90.8996401,43.3881453 C91.307477,40.3652008 90.5877649,37.7571702 88.3086765,35.6114723 C87.4690124,34.8172084 86.4854058,34.2600382 85.4058377,33.9755258 C83.1867253,33.406501 80.9796082,33.3946463 78.772491,34.2244742 C77.4410236,34.7223709 76.3494602,35.5284895 75.5817673,36.6072658 C74.1663335,38.5988528 73.3866453,40.8275335 73.8664534,43.3644359 C74.022391,44.1824092 74.2862855,44.9529637 74.5861655,45.7235182 C75.029988,46.8615679 75.7616953,47.8099426 76.7333067,48.5567878 C78.3886445,49.8133843 80.3318673,50.240153 82.3590564,50.4179732 Z" id="Shape"></path>
                <path d="M226.301479,61.9051625 C224.322271,62.0711281 222.379048,61.6917782 220.447821,61.3479924 C218.804478,61.0516252 217.257097,60.4351816 215.709716,59.8305927 C213.790484,59.0718929 212.07517,57.9931166 210.479808,56.7365201 C209.460216,55.9185468 208.52459,54.9938815 207.696921,53.9506692 C206.953219,53.0141491 206.317473,52.006501 205.729708,50.9632887 C205.021991,49.6829828 204.578169,48.2959847 204.230308,46.8852772 C203.834466,45.2730402 203.522591,43.6489484 203.534251,41.9892925 C203.546581,40.6022945 203.762495,39.2271511 204.07437,37.8638623 C204.290284,36.9154876 204.542183,35.9908222 204.830068,35.0661568 C205.153938,34.0347992 205.585766,33.0508604 206.197521,32.1499044 C206.72531,31.3674952 207.133147,30.5139579 207.792883,29.8145315 C208.692523,28.8543021 209.580168,27.9059273 210.62375,27.0760994 C212.435026,25.6298279 214.438225,24.5391969 216.585366,23.6975143 C217.628948,23.2944551 218.708517,22.998088 219.80008,22.7372849 C220.663735,22.5357553 221.57537,22.5476099 222.391044,22.1564054 C222.463015,22.1208413 222.558976,22.1208413 222.642943,22.1208413 C223.686525,22.0497132 224.718113,21.9904398 225.761695,21.9193117 C227.273091,21.8244742 228.796481,21.8956023 230.259896,22.1564054 C232.754898,22.618738 235.285886,23.0810707 237.60096,24.2191205 C238.860456,24.8474187 240.131947,25.4638623 241.283487,26.2699809 C242.147141,26.8745698 242.9988,27.5502868 243.730508,28.2971319 C245.145942,29.7552581 246.381447,31.3437859 247.293083,33.1931166 C248.04878,34.7105163 248.516593,36.2871893 248.876449,37.9349904 C249.392243,40.2585086 249.392243,42.6057361 249.092363,44.9173996 C248.768493,47.3713193 247.988804,49.7304015 246.669332,51.8760994 C245.37385,53.998088 243.730508,55.8118547 241.727309,57.2699809 C240.083966,58.467304 238.308677,59.4512428 236.377449,60.1625239 C235.141943,60.6248566 233.894442,61.099044 232.610956,61.324283 C230.907637,61.6206501 229.204318,61.9762906 227.453019,61.9051625 C227.057177,61.8933078 226.673331,61.9051625 226.301479,61.9051625 Z M217.868852,42.3567878 C217.820872,42.9613767 217.988804,43.8267686 218.216713,44.6921606 C218.648541,46.292543 219.584166,47.5965583 220.843663,48.5923518 C222.307077,49.7659656 224.106357,50.2164436 225.953619,50.3824092 C226.769292,50.4535373 227.584966,50.3942639 228.42463,50.1334608 C229.012395,49.9556405 229.636146,49.789675 230.235906,49.6118547 C231.07557,49.3510516 231.819272,48.8887189 232.431028,48.2959847 C233.642543,47.0986616 234.530188,45.6998088 234.866054,43.9808795 C235.285886,41.9300191 235.117953,39.9739962 234.194322,38.0772467 C233.078768,35.8130019 231.291483,34.3548757 228.808477,33.8095602 C227.429028,33.5013384 226.013595,33.4776291 224.598161,33.7147228 C223.290684,33.9399618 222.103159,34.3904398 221.071571,35.1965583 C218.804478,36.9391969 217.844862,39.2864245 217.868852,42.3567878 Z" id="Shape"></path>
                <path d="M249.044382,23.3300191 C249.320272,23.2114723 249.608157,23.258891 249.896042,23.258891 C254.958017,23.258891 260.031987,23.2707457 265.093962,23.2470363 C265.693723,23.2470363 266.12555,23.4011472 266.521391,23.8516252 C267.984806,25.5349904 269.496202,27.1709369 270.923631,28.8898662 C271.379448,29.4470363 271.895242,29.9449331 272.37505,30.4783939 C272.626949,30.7629063 272.854858,30.7273423 273.106757,30.4665392 C273.57457,29.9567878 274.042383,29.458891 274.498201,28.9491396 C275.673731,27.6688337 276.729308,26.2699809 277.976809,25.0370937 C278.384646,24.6340344 278.732507,24.1717017 279.056377,23.6975143 C279.296281,23.3418738 279.596162,23.2114723 280.003998,23.2351816 C280.147941,23.2470363 280.291883,23.2351816 280.435826,23.2351816 C285.497801,23.2351816 290.571771,23.2351816 295.633747,23.2351816 C295.945622,23.2351816 296.257497,23.2351816 296.593363,23.2351816 C296.593363,23.8753346 296.101559,24.1717017 295.801679,24.4680688 C294.722111,25.5349904 293.810476,26.7560229 292.706917,27.7992352 C292.191124,28.2852772 291.771291,28.8780115 291.291483,29.4114723 C289.720112,31.1422562 288.12475,32.8730402 286.541383,34.6038241 C284.934026,36.3583174 283.338665,38.100956 281.731307,39.8554493 C281.347461,40.2703633 281.359456,40.4718929 281.731307,40.8749522 C283.122751,42.3567878 284.502199,43.8386233 285.881647,45.3204589 C287.80088,47.3713193 289.732107,49.3984704 291.639344,51.4611855 C293.258697,53.2038241 294.806078,55.0057361 296.473411,56.6891013 C297.481008,57.7086042 298.344662,58.8585086 299.42423,59.8068834 C299.532187,59.9017208 299.628149,60.008413 299.72411,60.1151052 C299.856058,60.2455067 299.928029,60.3996176 299.868053,60.5774379 C299.796082,60.7908222 299.616154,60.7789675 299.436226,60.7789675 C299.232307,60.7789675 299.028389,60.7789675 298.82447,60.7789675 C293.906437,60.7789675 288.976409,60.7434034 284.058377,60.8026769 C282.990804,60.8145315 282.259096,60.4707457 281.59936,59.7120459 C281.155538,59.1904398 280.747701,58.6214149 280.279888,58.1353728 C279.488205,57.3055449 278.768493,56.4164436 278.012795,55.5629063 C276.633347,53.9862333 275.241903,52.4332696 273.85046,50.8803059 C273.490604,50.4772467 273.190724,49.825239 272.734906,49.7778203 C272.219112,49.7304015 272.003199,50.465392 271.655338,50.8565966 C269.880048,52.8363289 268.116753,54.8160612 266.353459,56.8195029 C265.405838,57.8864245 264.470212,58.9770554 263.546581,60.0676864 C263.114754,60.5774379 262.634946,60.8263862 261.915234,60.8145315 C256.793283,60.7789675 251.659336,60.8026769 246.537385,60.7908222 C246.237505,60.7908222 245.817673,60.9449331 245.64974,60.6367113 C245.445822,60.2573614 245.865654,60.0202677 246.081567,59.7950287 C247.652939,58.0879541 249.248301,56.4045889 250.831667,54.709369 C252.115154,53.3342256 253.422631,51.9709369 254.682127,50.5720841 C255.881647,49.2325048 257.141144,47.9403442 258.376649,46.6363289 C259.552179,45.391587 260.679728,44.0875717 261.843263,42.8309751 C262.502999,42.1196941 263.198721,41.4439771 263.846461,40.7089866 C264.086365,40.4363289 264.110356,40.3059273 263.858457,40.0095602 C262.59896,38.5632887 261.291483,37.1644359 260.031987,35.7300191 C258.856457,34.4022945 257.668932,33.0864245 256.505398,31.7586998 C254.970012,29.9923518 253.410636,28.2497132 251.827269,26.5189293 C250.963615,25.5705545 250.207917,24.5154876 249.22431,23.6619503 C249.152339,23.6145315 249.020392,23.4959847 249.044382,23.3300191 Z" id="Path"></path>
                <path d="M125.061975,30.4902486 C125.061975,40.282218 125.061975,50.0623327 125.061975,59.8543021 C125.061975,60.9804971 125.157937,60.873805 124.042383,60.873805 C120.191923,60.873805 116.341463,60.873805 112.491004,60.873805 C112.323071,60.873805 112.143143,60.8619503 111.97521,60.873805 C111.639344,60.8856597 111.495402,60.7315488 111.519392,60.4114723 C111.531387,60.2099426 111.519392,60.008413 111.519392,59.8068834 C111.519392,40.2585086 111.519392,20.7219885 111.519392,1.17361377 C111.519392,-0.0118546845 111.411435,0.106692161 112.586965,0.106692161 C116.413435,0.106692161 120.227909,0.106692161 124.054378,0.106692161 C124.258297,0.106692161 124.462215,0.118546845 124.666134,0.106692161 C124.954018,0.0948374761 125.085966,0.23709369 125.085966,0.521606119 C125.085966,0.746845124 125.085966,0.983938815 125.085966,1.20917782 C125.061975,10.9774379 125.061975,20.7338432 125.061975,30.4902486 Z" id="Path"></path>
                <path d="M133.746501,30.3954111 C133.746501,20.7575526 133.746501,11.1078394 133.746501,1.46998088 C133.746501,1.26845124 133.746501,1.06692161 133.746501,0.865391969 C133.758497,0.13040153 133.758497,0.118546845 134.52619,0.118546845 C138.460616,0.118546845 142.407037,0.118546845 146.341463,0.118546845 C147.409036,0.118546845 147.313075,0.0592734226 147.313075,1.10248566 C147.313075,18.185086 147.313075,35.2676864 147.313075,52.3502868 C147.313075,54.9227533 147.313075,57.4952199 147.313075,60.0795411 C147.313075,60.8619503 147.30108,60.8744004 146.497401,60.8744004 C142.526989,60.8744004 138.568573,60.8744004 134.598161,60.8744004 C134.454218,60.8744004 134.310276,60.8619503 134.166333,60.8744004 C133.866453,60.8856597 133.758497,60.7196941 133.758497,60.4470363 C133.758497,60.2217973 133.758497,59.9847036 133.758497,59.7594646 C133.746501,49.9674952 133.746501,40.1873805 133.746501,30.3954111 Z" id="Path"></path>
            </g>
        </g>
    </g>
</svg>