<svg id="Layer_1" data-name="Layer 1" xmlns="http://www.w3.org/2000/svg" viewBox="0 0 90 100"><defs><style>.cls-1{fill:#fff;stroke:#74af27;stroke-miterlimit:10;}.cls-2{fill:#74af27;}</style></defs><title>EV-Bespoke-BespokeManufacturing</title><circle class="cls-1" cx="45" cy="37.74" r="28.35"/><path class="cls-2" d="M54.57,47.24a2.18,2.18,0,0,0,0,3.17,2.19,2.19,0,0,0,3.17,0,2.24,2.24,0,0,0-3.17-3.17ZM57,49.68a1.12,1.12,0,1,1-1.59-1.59,1.15,1.15,0,0,1,.79-.34,1.13,1.13,0,0,1,.79.34A1.1,1.1,0,0,1,57,49.68Z"/><path class="cls-2" d="M61.58,47.92,51.4,37.74l4-4h0l2.37-2.38h0l3.45-3.45a2.48,2.48,0,0,0,0-3.51L58.36,21.5a2.45,2.45,0,0,0-3.51,0L51.39,25,49,27.33l-4,4L34.94,21.27a1.76,1.76,0,0,0-2.38,0l-4,4a1.65,1.65,0,0,0,0,2.37l1.19,1.19h0L33,32.07h0l3.17,3.17h0l2.49,2.49-9.08,9.08a.58.58,0,0,0-.32.43L28,54a.66.66,0,0,0,.18.51.48.48,0,0,0,.39.17h.12l6.52-1.2.15,0a.44.44,0,0,0,.39-.17L45,44.13l.73.74h0l1.59,1.58h0l7.86,7.86a1.31,1.31,0,0,0,1,.4,1.12,1.12,0,0,0,.91-.4l4.53-4.53A1.33,1.33,0,0,0,61.58,47.92ZM35.39,52.1l-2-2L52.22,31.37l2,1.95ZM55.64,22.29a1.4,1.4,0,0,1,1.92,0l2.89,2.88a1.4,1.4,0,0,1,0,1.92L57.4,30.16l-4.81-4.81ZM51.8,26.14l2.4,2.41L56.61,31,55,32.54l-4.82-4.82ZM38.93,36.46l1.21-1.21a.56.56,0,0,0-.79-.79l-1.21,1.21-.82-.82,2-2a.56.56,0,0,0,0-.79.54.54,0,0,0-.79,0l-2,2-.79-.79,1.18-1.18a.54.54,0,0,0,0-.79.53.53,0,0,0-.78,0L35,32.48l-.79-.78,2-2a.54.54,0,0,0,0-.79.56.56,0,0,0-.79,0l-2,2-.85-.85,1.19-1.19a.56.56,0,0,0-.79-.79l-1.21,1.17-.79-.79,2-2a.56.56,0,0,0,0-.79.54.54,0,0,0-.79,0l-2,2-.79-.79a.54.54,0,0,1,0-.79l4-4a.54.54,0,0,1,.4-.17.62.62,0,0,1,.4.17L44.23,32.15,39.42,37Zm10.49-7.89,2,2L32.59,49.3l-2-1.94ZM30.18,48.48,32,50.34a.52.52,0,0,0,.12.18l2.05,2-4.88.84ZM60.79,49l-4.53,4.53a.24.24,0,0,1-.28,0l-5.85-5.85,2-2a.54.54,0,0,0,0-.79.53.53,0,0,0-.78,0l-2,2-.83-.83,1.19-1.19a.54.54,0,0,0,0-.79.56.56,0,0,0-.79,0l-1.18,1.19-.79-.79,2-2a.56.56,0,0,0,0-.79.54.54,0,0,0-.79,0l-2,2-.34-.34,4.81-4.8L60.8,48.72A.24.24,0,0,1,60.79,49Z"/><path class="cls-2" d="M27.54,70.68h2.68a2.33,2.33,0,0,1,1.65.56,1.42,1.42,0,0,1,.41,1v0a1.53,1.53,0,0,1-1,1.46,1.58,1.58,0,0,1,1.35,1.52v0c0,1.08-.91,1.72-2.29,1.72h-2.8Zm4,1.67c0-.62-.5-1-1.4-1H28.24v2.17h1.87c.85,0,1.45-.38,1.45-1.12Zm-1.33,1.77h-2v2.23h2.12c.95,0,1.55-.43,1.55-1.13v0C31.91,74.52,31.33,74.12,30.23,74.12Z"/><path class="cls-2" d="M33.36,74.67v0a2.3,2.3,0,0,1,2.24-2.42,2.22,2.22,0,0,1,2.17,2.46,1.77,1.77,0,0,1,0,.23H34.07a1.63,1.63,0,0,0,1.63,1.57,1.92,1.92,0,0,0,1.47-.66l.43.39a2.38,2.38,0,0,1-1.91.87A2.32,2.32,0,0,1,33.36,74.67Zm3.7-.27a1.53,1.53,0,0,0-1.48-1.58,1.6,1.6,0,0,0-1.51,1.58Z"/><path class="cls-2" d="M38.32,76.39l.35-.49a2.81,2.81,0,0,0,1.62.59c.55,0,1-.29,1-.74v0c0-.46-.55-.64-1.16-.81s-1.54-.46-1.54-1.32v0a1.4,1.4,0,0,1,1.58-1.33,3.24,3.24,0,0,1,1.68.51l-.32.53a2.63,2.63,0,0,0-1.38-.45c-.55,0-.9.28-.9.67v0c0,.44.58.61,1.2.8s1.5.5,1.5,1.33v0a1.47,1.47,0,0,1-1.66,1.4A3.22,3.22,0,0,1,38.32,76.39Z"/><path class="cls-2" d="M42.92,72.33h.69v.94a2.1,2.1,0,0,1,1.79-1,2.28,2.28,0,0,1,2.22,2.41v0a2.28,2.28,0,0,1-2.22,2.42,2.1,2.1,0,0,1-1.79-1v2.34h-.69Zm4,2.34v0a1.68,1.68,0,0,0-1.64-1.8,1.74,1.74,0,0,0-1.68,1.79v0a1.73,1.73,0,0,0,1.68,1.8A1.64,1.64,0,0,0,46.91,74.67Z"/><path class="cls-2" d="M48.34,74.68v0a2.41,2.41,0,0,1,2.43-2.43,2.39,2.39,0,0,1,2.42,2.41v0a2.41,2.41,0,0,1-2.44,2.43A2.38,2.38,0,0,1,48.34,74.68Zm4.14,0v0a1.76,1.76,0,0,0-1.73-1.82,1.72,1.72,0,0,0-1.7,1.8v0a1.75,1.75,0,0,0,1.72,1.81A1.72,1.72,0,0,0,52.48,74.68Z"/><path class="cls-2" d="M54.17,70.41h.69V75l2.52-2.62h.86l-2,2,2,2.66h-.82l-1.67-2.17-1,1V77h-.69Z"/><path class="cls-2" d="M58.51,74.67v0a2.3,2.3,0,0,1,2.23-2.42,2.22,2.22,0,0,1,2.17,2.46,1.77,1.77,0,0,1,0,.23H59.21a1.63,1.63,0,0,0,1.64,1.57,1.92,1.92,0,0,0,1.47-.66l.43.39a2.42,2.42,0,0,1-1.92.87A2.31,2.31,0,0,1,58.51,74.67Zm3.7-.27a1.53,1.53,0,0,0-1.49-1.58,1.6,1.6,0,0,0-1.51,1.58Z"/><path class="cls-2" d="M15.34,81.68h.72l2.3,3.44,2.29-3.44h.72V88h-.71V82.88l-2.29,3.38h0L16,82.89V88h-.69Z"/><path class="cls-2" d="M22.42,86.63h0c0-1,.81-1.51,2-1.51a5.26,5.26,0,0,1,1.44.2v-.16c0-.84-.52-1.27-1.39-1.27a3.33,3.33,0,0,0-1.41.34l-.21-.56a3.76,3.76,0,0,1,1.69-.39,2,2,0,0,1,1.5.51,1.83,1.83,0,0,1,.48,1.36V88h-.66v-.71a2,2,0,0,1-1.69.8A1.56,1.56,0,0,1,22.42,86.63Zm3.42-.35v-.45a4.78,4.78,0,0,0-1.36-.2c-.88,0-1.36.38-1.36,1v0c0,.58.54.93,1.17.93A1.41,1.41,0,0,0,25.84,86.28Z"/><path class="cls-2" d="M27.71,83.33h.69v.81A1.77,1.77,0,0,1,30,83.23a1.71,1.71,0,0,1,1.79,1.87V88h-.7V85.27a1.24,1.24,0,0,0-1.28-1.41,1.37,1.37,0,0,0-1.4,1.46V88h-.69Z"/><path class="cls-2" d="M32.91,86.22V83.33h.69v2.72a1.25,1.25,0,0,0,1.29,1.41A1.37,1.37,0,0,0,36.28,86V83.33H37V88h-.69v-.81a1.76,1.76,0,0,1-1.59.9A1.7,1.7,0,0,1,32.91,86.22Z"/><path class="cls-2" d="M38.52,83.94h-.64v-.6h.64v-.4a1.64,1.64,0,0,1,.4-1.2,1.35,1.35,0,0,1,1-.36,2,2,0,0,1,.77.12v.6A2.5,2.5,0,0,0,40,82c-.54,0-.81.32-.81,1v.38h1.48v.59H39.21v4h-.69Z"/><path class="cls-2" d="M40.8,86.63h0c0-1,.81-1.51,2-1.51a5.12,5.12,0,0,1,1.43.2v-.16c0-.84-.51-1.27-1.38-1.27a3.38,3.38,0,0,0-1.42.34l-.2-.56a3.73,3.73,0,0,1,1.69-.39,2,2,0,0,1,1.5.51,1.83,1.83,0,0,1,.48,1.36V88h-.67v-.71a2,2,0,0,1-1.68.8A1.56,1.56,0,0,1,40.8,86.63Zm3.43-.35v-.45a4.8,4.8,0,0,0-1.37-.2c-.87,0-1.36.38-1.36,1v0c0,.58.54.93,1.17.93A1.41,1.41,0,0,0,44.23,86.28Z"/><path class="cls-2" d="M45.81,85.68v0a2.42,2.42,0,0,1,4.24-1.6l-.45.49a1.89,1.89,0,0,0-1.42-.71,1.72,1.72,0,0,0-1.66,1.8v0a1.73,1.73,0,0,0,1.71,1.81,1.91,1.91,0,0,0,1.42-.69l.44.41a2.4,2.4,0,0,1-4.28-1.51Z"/><path class="cls-2" d="M51.21,86.75V83.94h-.65v-.61h.65v-1.4h.69v1.4h1.48v.61H51.9v2.72a.69.69,0,0,0,.78.78,1.46,1.46,0,0,0,.68-.17v.6a1.86,1.86,0,0,1-.84.2A1.18,1.18,0,0,1,51.21,86.75Z"/><path class="cls-2" d="M54.26,86.22V83.33H55v2.72a1.25,1.25,0,0,0,1.29,1.41A1.37,1.37,0,0,0,57.63,86V83.33h.69V88h-.69v-.81a1.76,1.76,0,0,1-1.59.9A1.69,1.69,0,0,1,54.26,86.22Z"/><path class="cls-2" d="M59.6,83.33h.7v1.22a2,2,0,0,1,1.9-1.3V84h-.06a1.87,1.87,0,0,0-1.84,2.13V88h-.7Z"/><path class="cls-2" d="M63,81.55h.79v.76H63Zm0,1.78h.69V88H63Z"/><path class="cls-2" d="M65.07,83.33h.7v.81a1.76,1.76,0,0,1,1.59-.91,1.7,1.7,0,0,1,1.78,1.87V88h-.69V85.27a1.24,1.24,0,0,0-1.29-1.41,1.37,1.37,0,0,0-1.39,1.46V88h-.7Z"/><path class="cls-2" d="M70.29,88.8l.32-.54a3,3,0,0,0,1.79.59,1.53,1.53,0,0,0,1.69-1.66v-.55a2.2,2.2,0,0,1-1.82,1,2.15,2.15,0,0,1-2.19-2.18v0a2.2,2.2,0,0,1,4-1.26v-.84h.7v3.85a2.21,2.21,0,0,1-.6,1.64,2.4,2.4,0,0,1-1.77.62A3.7,3.7,0,0,1,70.29,88.8Zm3.82-3.36v0a1.64,1.64,0,0,0-1.71-1.58,1.54,1.54,0,0,0-1.61,1.57v0A1.57,1.57,0,0,0,72.4,87,1.64,1.64,0,0,0,74.11,85.44Z"/></svg>