<svg id="Layer_1" data-name="Layer 1" xmlns="http://www.w3.org/2000/svg" xmlns:xlink="http://www.w3.org/1999/xlink" viewBox="0 0 90 100"><defs><style>.cls-1{fill:none;}.cls-2,.cls-5{fill:#fff;}.cls-2{stroke:#74af27;stroke-miterlimit:10;}.cls-3{fill:#74af27;}.cls-4{clip-path:url(#clip-path);}.cls-6{fill:#d7b7d8;}.cls-7{fill:#b46ca9;}.cls-8{fill:#b4add5;}.cls-9{fill:#7061a7;}.cls-10{fill:#b4c7e8;}.cls-11{fill:#5993ce;}.cls-12{fill:#b4dff8;}.cls-13{fill:#39bdef;}.cls-14{fill:#b7dedd;}.cls-15{fill:#49b9b6;}.cls-16{fill:#b8dabd;}.cls-17{fill:#58b578;}.cls-18{fill:#deeabf;}.cls-19{fill:#bdd475;}.cls-20{fill:#fef7c1;}.cls-21{fill:#fef071;}.cls-22{fill:#fddcb4;}.cls-23{fill:#f8b765;}.cls-24{fill:#f29104;}.cls-25{fill:#e20e17;}.cls-26{fill:#feeb17;}.cls-27{fill:#ee7353;}.cls-28{fill:#e40851;}.cls-29{fill:#ee7584;}.cls-30{fill:#f7bea7;}.cls-31{fill:#f7c0c3;}.cls-32{fill:#e40d7e;}.cls-33{fill:#009640;}.cls-34{fill:#ec78ac;}.cls-35{fill:#f5c1da;}.cls-36{fill:#941c80;}.cls-37{fill:#029992;}.cls-38{fill:#189cd9;}.cls-39{fill:#302d7d;}.cls-40{fill:#076ab3;}</style><clipPath id="clip-path"><circle class="cls-1" cx="45" cy="37.74" r="28.35"/></clipPath></defs><title>EV-Bespoke-BrandingOptions</title><circle class="cls-2" cx="45" cy="37.74" r="28.35"/><path class="cls-3" d="M26.57,70.68h2.68a2.33,2.33,0,0,1,1.65.56,1.41,1.41,0,0,1,.4,1v0a1.52,1.52,0,0,1-1,1.46c.75.22,1.36.65,1.36,1.52v0c0,1.08-.91,1.72-2.29,1.72h-2.8Zm4,1.67c0-.62-.49-1-1.39-1H27.27v2.17h1.86c.86,0,1.45-.38,1.45-1.12Zm-1.32,1.77h-2v2.23h2.12c.95,0,1.54-.43,1.54-1.13v0C30.93,74.52,30.36,74.12,29.26,74.12Z"/><path class="cls-3" d="M32.68,72.33h.69v1.22a2,2,0,0,1,1.9-1.3V73h-.05a1.88,1.88,0,0,0-1.85,2.13V77h-.69Z"/><path class="cls-3" d="M35.48,75.63h0c0-1,.81-1.51,2-1.51a5.18,5.18,0,0,1,1.43.2v-.16c0-.84-.51-1.27-1.39-1.27a3.33,3.33,0,0,0-1.41.34l-.21-.56a3.79,3.79,0,0,1,1.69-.39,2.06,2.06,0,0,1,1.51.51,1.88,1.88,0,0,1,.48,1.36V77H38.9v-.71a2,2,0,0,1-1.68.8A1.56,1.56,0,0,1,35.48,75.63Zm3.43-.35v-.45a4.8,4.8,0,0,0-1.37-.2c-.87,0-1.36.38-1.36,1v0c0,.58.54.93,1.17.93A1.41,1.41,0,0,0,38.91,75.28Z"/><path class="cls-3" d="M40.77,72.33h.69v.81a1.79,1.79,0,0,1,1.6-.91,1.7,1.7,0,0,1,1.78,1.87V77h-.69V74.27a1.24,1.24,0,0,0-1.29-1.41,1.38,1.38,0,0,0-1.4,1.46V77h-.69Z"/><path class="cls-3" d="M45.77,74.67v0A2.29,2.29,0,0,1,48,72.23a2.11,2.11,0,0,1,1.78,1V70.41h.69V77h-.69v-.94a2.09,2.09,0,0,1-1.78,1A2.27,2.27,0,0,1,45.77,74.67Zm4,0v0a1.73,1.73,0,0,0-1.69-1.79,1.64,1.64,0,0,0-1.63,1.79v0a1.68,1.68,0,0,0,1.63,1.8A1.74,1.74,0,0,0,49.81,74.66Z"/><path class="cls-3" d="M51.77,70.55h.79v.76h-.79Zm0,1.78h.7V77h-.7Z"/><path class="cls-3" d="M53.85,72.33h.69v.81a1.77,1.77,0,0,1,1.59-.91,1.71,1.71,0,0,1,1.79,1.87V77h-.7V74.27a1.24,1.24,0,0,0-1.28-1.41,1.37,1.37,0,0,0-1.4,1.46V77h-.69Z"/><path class="cls-3" d="M59.07,77.8l.31-.54a3,3,0,0,0,1.79.59,1.54,1.54,0,0,0,1.7-1.66v-.55a2.23,2.23,0,0,1-1.83,1,2.15,2.15,0,0,1-2.19-2.18v0a2.2,2.2,0,0,1,4-1.26v-.84h.69v3.85A2.24,2.24,0,0,1,63,77.82a2.44,2.44,0,0,1-1.78.62A3.65,3.65,0,0,1,59.07,77.8Zm3.81-3.36v0a1.63,1.63,0,0,0-1.71-1.58,1.54,1.54,0,0,0-1.61,1.57v0A1.57,1.57,0,0,0,61.17,76,1.63,1.63,0,0,0,62.88,74.44Z"/><path class="cls-3" d="M28.69,84.85v0a3.22,3.22,0,1,1,6.43,0h0a3.2,3.2,0,0,1-3.23,3.26A3.16,3.16,0,0,1,28.69,84.85Zm5.69,0v0a2.51,2.51,0,0,0-2.49-2.6,2.47,2.47,0,0,0-2.46,2.59h0a2.48,2.48,0,1,0,5,0Z"/><path class="cls-3" d="M36.23,83.33h.69v.94a2.1,2.1,0,0,1,1.79-1,2.28,2.28,0,0,1,2.22,2.41v0a2.28,2.28,0,0,1-2.22,2.42,2.09,2.09,0,0,1-1.79-1v2.34h-.69Zm4,2.34v0a1.68,1.68,0,0,0-1.64-1.8,1.74,1.74,0,0,0-1.68,1.79v0a1.73,1.73,0,0,0,1.68,1.8A1.64,1.64,0,0,0,40.22,85.67Z"/><path class="cls-3" d="M42.18,86.75V83.94h-.65v-.61h.65v-1.4h.69v1.4h1.48v.61H42.87v2.72a.7.7,0,0,0,.79.78,1.42,1.42,0,0,0,.67-.17v.6a1.8,1.8,0,0,1-.84.2A1.19,1.19,0,0,1,42.18,86.75Z"/><path class="cls-3" d="M45.32,81.55h.79v.76h-.79Zm0,1.78h.7V88h-.7Z"/><path class="cls-3" d="M47.11,85.68v0a2.41,2.41,0,0,1,2.43-2.43A2.39,2.39,0,0,1,52,85.64v0a2.41,2.41,0,0,1-2.44,2.43A2.38,2.38,0,0,1,47.11,85.68Zm4.14,0v0a1.76,1.76,0,0,0-1.73-1.82,1.72,1.72,0,0,0-1.7,1.8v0a1.75,1.75,0,0,0,1.72,1.81A1.72,1.72,0,0,0,51.25,85.68Z"/><path class="cls-3" d="M52.94,83.33h.7v.81a1.76,1.76,0,0,1,1.59-.91A1.7,1.7,0,0,1,57,85.1V88h-.69V85.27A1.24,1.24,0,0,0,55,83.86a1.37,1.37,0,0,0-1.39,1.46V88h-.7Z"/><path class="cls-3" d="M57.83,87.39l.35-.49a2.75,2.75,0,0,0,1.61.59c.56,0,1-.29,1-.74v0c0-.46-.54-.64-1.16-.81s-1.54-.46-1.54-1.32v0a1.41,1.41,0,0,1,1.59-1.33,3.18,3.18,0,0,1,1.67.51l-.31.53a2.63,2.63,0,0,0-1.38-.45c-.55,0-.9.28-.9.67v0c0,.44.58.61,1.2.8s1.49.5,1.49,1.33v0a1.47,1.47,0,0,1-1.65,1.4A3.22,3.22,0,0,1,57.83,87.39Z"/><g class="cls-4"><path class="cls-5" d="M43.37,32l1.46,5.45-4-4A6,6,0,0,1,43.37,32Z"/><path class="cls-6" d="M41.86,26.36l1.47,5.47a6.09,6.09,0,0,0-2.61,1.5l-4-4A12,12,0,0,1,41.86,26.36Z"/><path class="cls-7" d="M40.35,20.73l1.47,5.47a11.87,11.87,0,0,0-5.22,3l-4-4A17.64,17.64,0,0,1,40.35,20.73Z"/><path class="cls-5" d="M44.71,37.57l-5.45-1.46a6,6,0,0,1,1.46-2.53Z"/><path class="cls-8" d="M36.6,29.46l4,4a6.13,6.13,0,0,0-1.51,2.6L33.63,34.6A11.81,11.81,0,0,1,36.6,29.46Z"/><path class="cls-9" d="M32.48,25.34l4,4a11.87,11.87,0,0,0-3,5.22L28,33.09A17.68,17.68,0,0,1,32.48,25.34Z"/><path class="cls-5" d="M44.66,37.74,39.21,39.2A5.9,5.9,0,0,1,39,37.74a5.78,5.78,0,0,1,.18-1.46Z"/><path class="cls-10" d="M33.58,34.77,39,36.23a6.3,6.3,0,0,0-.18,1.51,6.16,6.16,0,0,0,.18,1.5l-5.46,1.47a11.8,11.8,0,0,1,0-5.94Z"/><path class="cls-11" d="M28,33.26l5.46,1.46a12.07,12.07,0,0,0-.38,3,11.94,11.94,0,0,0,.38,3L28,42.22a17.59,17.59,0,0,1,0-9Z"/><path class="cls-5" d="M44.71,37.91l-4,4a6,6,0,0,1-1.46-2.53Z"/><path class="cls-12" d="M40.6,42l-4,4a11.86,11.86,0,0,1-3-5.14l5.46-1.47A6.11,6.11,0,0,0,40.6,42Z"/><path class="cls-13" d="M36.48,46.14l-4,4A17.72,17.72,0,0,1,28,42.38l5.47-1.46A11.92,11.92,0,0,0,36.48,46.14Z"/><path class="cls-5" d="M44.83,38l-1.46,5.45A6,6,0,0,1,40.84,42Z"/><path class="cls-14" d="M43.33,43.65l-1.47,5.46a11.86,11.86,0,0,1-5.14-3l4-4A6.11,6.11,0,0,0,43.33,43.65Z"/><path class="cls-15" d="M41.82,49.28l-1.47,5.47a17.84,17.84,0,0,1-7.75-4.49l4-4A12,12,0,0,0,41.82,49.28Z"/><path class="cls-5" d="M45,38.07l1.46,5.46a6,6,0,0,1-2.92,0Z"/><path class="cls-16" d="M46.51,43.7,48,49.16a11.8,11.8,0,0,1-5.94,0l1.46-5.46a6.42,6.42,0,0,0,3,0Z"/><path class="cls-17" d="M48,49.33l1.47,5.46a17.59,17.59,0,0,1-9,0L42,49.33a12.11,12.11,0,0,0,6,0Z"/><path class="cls-5" d="M45.17,38l4,4a6,6,0,0,1-2.53,1.46Z"/><path class="cls-18" d="M49.28,42.14l4,4a11.86,11.86,0,0,1-5.14,3l-1.47-5.46A6.11,6.11,0,0,0,49.28,42.14Z"/><path class="cls-19" d="M53.4,46.26l4,4a17.84,17.84,0,0,1-7.75,4.49l-1.47-5.47A12,12,0,0,0,53.4,46.26Z"/><path class="cls-5" d="M45.29,37.91l5.45,1.46a6,6,0,0,1-1.46,2.53Z"/><path class="cls-20" d="M50.91,39.41l5.46,1.47a11.86,11.86,0,0,1-3,5.14l-4-4A6.11,6.11,0,0,0,50.91,39.41Z"/><path class="cls-21" d="M56.54,40.92,62,42.38a17.72,17.72,0,0,1-4.49,7.76l-4-4A11.92,11.92,0,0,0,56.54,40.92Z"/><path class="cls-5" d="M50.79,36.28A5.78,5.78,0,0,1,51,37.74a5.9,5.9,0,0,1-.18,1.46l-5.45-1.46Z"/><path class="cls-22" d="M56.42,34.77a11.8,11.8,0,0,1,0,5.94L51,39.24a6.16,6.16,0,0,0,.18-1.5A6.3,6.3,0,0,0,51,36.23Z"/><path class="cls-23" d="M62.05,33.26a17.59,17.59,0,0,1,0,9l-5.46-1.47a11.94,11.94,0,0,0,.38-3,12.07,12.07,0,0,0-.38-3Z"/><path class="cls-24" d="M67.68,31.75a23.39,23.39,0,0,1,0,12l-5.46-1.47a17.94,17.94,0,0,0,0-9Z"/><path class="cls-25" d="M67.64,31.58l-5.47,1.47a17.78,17.78,0,0,0-4.53-7.83l4-4A23.45,23.45,0,0,1,67.64,31.58Z"/><path class="cls-26" d="M62.17,42.43l5.47,1.46a23.48,23.48,0,0,1-6,10.37l-4-4A17.78,17.78,0,0,0,62.17,42.43Z"/><path class="cls-27" d="M62,33.09l-5.47,1.47a11.87,11.87,0,0,0-3-5.22l4-4A17.68,17.68,0,0,1,62,33.09Z"/><path class="cls-28" d="M61.52,21.1l-4,4a17.8,17.8,0,0,0-7.83-4.54l1.47-5.46A23.5,23.5,0,0,1,61.52,21.1Z"/><path class="cls-3" d="M57.52,50.38l4,4a23.48,23.48,0,0,1-10.36,6l-1.47-5.46A17.78,17.78,0,0,0,57.52,50.38Z"/><path class="cls-29" d="M57.4,25.22l-4,4a11.87,11.87,0,0,0-5.22-3l1.47-5.47A17.64,17.64,0,0,1,57.4,25.22Z"/><path class="cls-30" d="M56.37,34.6l-5.46,1.46a6.13,6.13,0,0,0-1.51-2.6l4-4A11.81,11.81,0,0,1,56.37,34.6Z"/><path class="cls-31" d="M53.28,29.34l-4,4a6.09,6.09,0,0,0-2.61-1.5l1.47-5.47A12,12,0,0,1,53.28,29.34Z"/><path class="cls-32" d="M51,15.06l-1.47,5.46a17.9,17.9,0,0,0-9,0L39,15.06a23.39,23.39,0,0,1,12,0Z"/><path class="cls-33" d="M49.52,55,51,60.42a23.39,23.39,0,0,1-12,0L40.48,55a17.9,17.9,0,0,0,9,0Z"/><path class="cls-5" d="M50.74,36.11l-5.45,1.46,4-4A6,6,0,0,1,50.74,36.11Z"/><path class="cls-34" d="M49.48,20.69,48,26.15a11.81,11.81,0,0,0-6,0l-1.47-5.46a17.59,17.59,0,0,1,9,0Z"/><path class="cls-5" d="M49.16,33.46l-4,4L46.63,32A6,6,0,0,1,49.16,33.46Z"/><path class="cls-35" d="M48,26.32l-1.46,5.46a6.1,6.1,0,0,0-3,0L42,26.32a11.8,11.8,0,0,1,5.94,0Z"/><path class="cls-5" d="M46.46,32,45,37.4,43.54,32a6,6,0,0,1,2.92,0Z"/><path class="cls-36" d="M38.84,15.1l1.47,5.46a17.8,17.8,0,0,0-7.83,4.54l-4-4A23.5,23.5,0,0,1,38.84,15.1Z"/><path class="cls-37" d="M40.31,54.91l-1.47,5.46a23.48,23.48,0,0,1-10.36-6l4-4A17.78,17.78,0,0,0,40.31,54.91Z"/><path class="cls-38" d="M32.36,50.26l-4,4a23.48,23.48,0,0,1-6-10.37l5.47-1.46A17.78,17.78,0,0,0,32.36,50.26Z"/><path class="cls-39" d="M28.36,21.22l4,4a17.78,17.78,0,0,0-4.53,7.83l-5.47-1.47A23.45,23.45,0,0,1,28.36,21.22Z"/><path class="cls-40" d="M22.32,31.75l5.46,1.46a17.94,17.94,0,0,0,0,9l-5.46,1.47a23.39,23.39,0,0,1,0-12Z"/></g></svg>