<svg id="Layer_1" data-name="Layer 1" xmlns="http://www.w3.org/2000/svg" xmlns:xlink="http://www.w3.org/1999/xlink" viewBox="0 0 90 100"><defs><style>.cls-1{fill:none;}.cls-2,.cls-8{fill:#fff;stroke-miterlimit:10;}.cls-2{stroke:#74af27;}.cls-3,.cls-9{fill:#74af27;}.cls-4{clip-path:url(#clip-path);}.cls-5{fill:#4b7a9e;}.cls-10,.cls-11,.cls-12,.cls-5,.cls-6,.cls-7,.cls-8,.cls-9{fill-rule:evenodd;}.cls-6{fill:#5d5d62;}.cls-7{fill:#1e1e1c;}.cls-8{stroke:#b2b2b2;stroke-width:0.59px;}.cls-10{fill:#e0441e;}.cls-11{fill:#4c2a19;}.cls-12{fill:#d3d3d9;}</style><clipPath id="clip-path"><circle class="cls-1" cx="45" cy="37.74" r="28.35"/></clipPath></defs><title>EV-Bespoke-ColourOptionsAvailable-WallPod</title><circle class="cls-2" cx="45.01" cy="37.74" r="28.35"/><path class="cls-3" d="M13.42,73.85v0a3.17,3.17,0,0,1,3.18-3.25,3.25,3.25,0,0,1,2.46,1l-.49.52a2.71,2.71,0,0,0-2-.87,2.48,2.48,0,0,0-2.44,2.59h0a2.5,2.5,0,0,0,2.44,2.61,2.77,2.77,0,0,0,2-.91l.47.46a3.31,3.31,0,0,1-2.52,1.1A3.14,3.14,0,0,1,13.42,73.85Z"/><path class="cls-3" d="M19.57,74.68v0A2.41,2.41,0,0,1,22,72.23a2.39,2.39,0,0,1,2.42,2.41v0A2.41,2.41,0,0,1,22,77.09,2.38,2.38,0,0,1,19.57,74.68Zm4.14,0v0A1.76,1.76,0,0,0,22,72.84a1.72,1.72,0,0,0-1.7,1.8v0A1.75,1.75,0,0,0,22,76.47,1.72,1.72,0,0,0,23.71,74.68Z"/><path class="cls-3" d="M25.47,70.41h.69V77h-.69Z"/><path class="cls-3" d="M27.21,74.68v0a2.41,2.41,0,0,1,2.43-2.43,2.39,2.39,0,0,1,2.42,2.41v0a2.41,2.41,0,0,1-2.43,2.43A2.38,2.38,0,0,1,27.21,74.68Zm4.14,0v0a1.76,1.76,0,0,0-1.72-1.82,1.72,1.72,0,0,0-1.71,1.8v0a1.75,1.75,0,0,0,1.72,1.81A1.72,1.72,0,0,0,31.35,74.68Z"/><path class="cls-3" d="M33,75.22V72.33h.7v2.72A1.24,1.24,0,0,0,35,76.46,1.38,1.38,0,0,0,36.35,75V72.33H37V77h-.68v-.81a1.78,1.78,0,0,1-1.6.9A1.7,1.7,0,0,1,33,75.22Z"/><path class="cls-3" d="M38.32,72.33H39v1.22a2,2,0,0,1,1.9-1.3V73h0A1.88,1.88,0,0,0,39,75.13V77h-.69Z"/><path class="cls-3" d="M44,73.85v0a3.22,3.22,0,1,1,6.43,0h0a3.22,3.22,0,1,1-6.43,0Zm5.69,0v0a2.48,2.48,0,1,0-4.95,0h0a2.48,2.48,0,1,0,4.95,0Z"/><path class="cls-3" d="M51.5,72.33h.7v.94a2.07,2.07,0,0,1,1.78-1,2.28,2.28,0,0,1,2.22,2.41v0A2.28,2.28,0,0,1,54,77.08a2.07,2.07,0,0,1-1.78-1v2.34h-.7Zm4,2.34v0a1.68,1.68,0,0,0-1.64-1.8,1.74,1.74,0,0,0-1.68,1.79v0a1.73,1.73,0,0,0,1.68,1.8A1.64,1.64,0,0,0,55.49,74.67Z"/><path class="cls-3" d="M57.45,75.75V72.94H56.8v-.61h.65v-1.4h.7v1.4h1.47v.61H58.15v2.72a.69.69,0,0,0,.78.78,1.42,1.42,0,0,0,.67-.17v.6a1.79,1.79,0,0,1-.83.2A1.19,1.19,0,0,1,57.45,75.75Z"/><path class="cls-3" d="M60.59,70.55h.79v.76h-.79Zm0,1.78h.69V77h-.69Z"/><path class="cls-3" d="M62.38,74.68v0a2.43,2.43,0,0,1,4.86,0v0a2.42,2.42,0,0,1-2.44,2.43A2.38,2.38,0,0,1,62.38,74.68Zm4.14,0v0a1.76,1.76,0,0,0-1.72-1.82,1.72,1.72,0,0,0-1.71,1.8v0a1.75,1.75,0,0,0,1.72,1.81A1.72,1.72,0,0,0,66.52,74.68Z"/><path class="cls-3" d="M68.22,72.33h.69v.81a1.76,1.76,0,0,1,1.59-.91,1.7,1.7,0,0,1,1.78,1.87V77h-.69V74.27a1.24,1.24,0,0,0-1.29-1.41,1.37,1.37,0,0,0-1.39,1.46V77h-.69Z"/><path class="cls-3" d="M73.1,76.39l.35-.49a2.8,2.8,0,0,0,1.61.59c.56,0,1-.29,1-.74v0c0-.46-.55-.64-1.16-.81s-1.54-.46-1.54-1.32v0a1.4,1.4,0,0,1,1.58-1.33,3.24,3.24,0,0,1,1.68.51l-.32.53a2.63,2.63,0,0,0-1.38-.45c-.55,0-.9.28-.9.67v0c0,.44.58.61,1.2.8s1.5.5,1.5,1.33v0A1.47,1.47,0,0,1,75,77.08,3.22,3.22,0,0,1,73.1,76.39Z"/><path class="cls-3" d="M29.09,81.64h.67L32.63,88h-.77l-.74-1.67H27.69L27,88h-.73Zm1.75,4-1.43-3.2L28,85.67Z"/><path class="cls-3" d="M32.45,83.33h.77l1.57,3.86,1.57-3.86h.75l-2,4.69h-.61Z"/><path class="cls-3" d="M37.35,86.63h0c0-1,.81-1.51,2-1.51a5.18,5.18,0,0,1,1.43.2v-.16c0-.84-.51-1.27-1.39-1.27a3.37,3.37,0,0,0-1.41.34l-.21-.56a3.8,3.8,0,0,1,1.7-.39,2,2,0,0,1,1.5.51,1.88,1.88,0,0,1,.48,1.36V88h-.67v-.71a2,2,0,0,1-1.68.8A1.56,1.56,0,0,1,37.35,86.63Zm3.43-.35v-.45a4.8,4.8,0,0,0-1.37-.2c-.87,0-1.36.38-1.36,1v0c0,.58.54.93,1.17.93A1.41,1.41,0,0,0,40.78,86.28Z"/><path class="cls-3" d="M42.66,81.55h.79v.76h-.79Zm.05,1.78h.69V88h-.69Z"/><path class="cls-3" d="M44.8,81.41h.69V88H44.8Z"/><path class="cls-3" d="M46.48,86.63h0c0-1,.81-1.51,2-1.51a5.26,5.26,0,0,1,1.44.2v-.16c0-.84-.52-1.27-1.39-1.27a3.33,3.33,0,0,0-1.41.34l-.21-.56a3.76,3.76,0,0,1,1.69-.39,2,2,0,0,1,1.5.51,1.83,1.83,0,0,1,.48,1.36V88h-.66v-.71a2,2,0,0,1-1.69.8A1.57,1.57,0,0,1,46.48,86.63Zm3.43-.35v-.45a4.78,4.78,0,0,0-1.36-.2c-.88,0-1.36.38-1.36,1v0c0,.58.54.93,1.17.93A1.41,1.41,0,0,0,49.91,86.28Z"/><path class="cls-3" d="M52.47,87.09V88h-.69V81.41h.69v2.86a2.1,2.1,0,0,1,1.78-1,2.28,2.28,0,0,1,2.23,2.41v0a2.28,2.28,0,0,1-2.23,2.42A2.08,2.08,0,0,1,52.47,87.09Zm3.29-1.42v0a1.68,1.68,0,0,0-1.63-1.8,1.74,1.74,0,0,0-1.69,1.79v0a1.73,1.73,0,0,0,1.69,1.8A1.63,1.63,0,0,0,55.76,85.67Z"/><path class="cls-3" d="M57.55,81.41h.69V88h-.69Z"/><path class="cls-3" d="M59.29,85.67v0a2.3,2.3,0,0,1,2.23-2.42,2.22,2.22,0,0,1,2.17,2.46,1.77,1.77,0,0,1,0,.23H60a1.63,1.63,0,0,0,1.64,1.57,1.92,1.92,0,0,0,1.47-.66l.43.39a2.4,2.4,0,0,1-1.92.87A2.31,2.31,0,0,1,59.29,85.67ZM63,85.4a1.53,1.53,0,0,0-1.48-1.58A1.61,1.61,0,0,0,60,85.4Z"/><g class="cls-4"><path class="cls-5" d="M34.91,38c0,.75,0,1.51,0,2.27s-.06,1.56-.12,2.35c0,.36,0,.72,0,1.08,0,.84-.11,1.66-.21,2.49s-.23,1.54-.37,2.3a2,2,0,0,1-.95,1.36,5.32,5.32,0,0,1-1.87.67c-.57.11-1.13.2-1.71.26a9,9,0,0,1-2.07,0,16.61,16.61,0,0,1-2.34-.42,3.65,3.65,0,0,1-1.66-.9,1.69,1.69,0,0,1-.42-.79c-.22-1.1-.38-2.2-.49-3.32-.06-.64-.11-1.29-.13-1.94-.05-1-.1-2-.14-3-.07-1.52,0-3,0-4.55,0-.67.05-1.33.08-2s.07-1.61.14-2.42a29.75,29.75,0,0,1,.59-4.19,1.8,1.8,0,0,1,.9-1.12,5.48,5.48,0,0,1,1.66-.63,14.67,14.67,0,0,1,2-.31c.29,0,.59,0,.88,0a11.22,11.22,0,0,1,2.59.26A6.54,6.54,0,0,1,33,26a2.37,2.37,0,0,1,1,.85,1.44,1.44,0,0,1,.15.36c.19.83.31,1.67.42,2.52.1.69.15,1.38.21,2.07,0,.34,0,.68.05,1s0,.91.07,1.36C34.93,35.48,34.92,36.75,34.91,38Z"/><path class="cls-6" d="M32.25,44v2.85A1.36,1.36,0,0,1,31.69,48a3.5,3.5,0,0,1-1.8.74,7.67,7.67,0,0,1-1.66.07A5.51,5.51,0,0,1,27,48.63a3.32,3.32,0,0,1-1.56-.82,1.43,1.43,0,0,1-.39-1c0-1.87,0-3.75,0-5.62a1.55,1.55,0,0,1,.79-1.36,4,4,0,0,1,1.38-.54,10.79,10.79,0,0,1,2.05-.08,4.32,4.32,0,0,1,1.6.29,2.39,2.39,0,0,1,1.23.91,1.19,1.19,0,0,1,.19.63v3Zm-5.89-2.53c-.05.06,0,.13,0,.19v4.57a.66.66,0,0,0,.27.57,2.11,2.11,0,0,0,.27.18,3,3,0,0,0,1.14.28,8.81,8.81,0,0,0,1.54,0,2.89,2.89,0,0,0,1-.33.72.72,0,0,0,.39-.67c0-.95,0-1.89,0-2.84V41.58a.4.4,0,0,0-.05-.24,1.28,1.28,0,0,0-.42-.38,2.64,2.64,0,0,0-.81-.26,6.44,6.44,0,0,0-1.86,0,2.62,2.62,0,0,0-1.05.32A.69.69,0,0,0,26.36,41.47Z"/><path class="cls-6" d="M32.25,32.06v2.86A1.36,1.36,0,0,1,31.69,36a3.5,3.5,0,0,1-1.8.74,8.36,8.36,0,0,1-1.66.08A5.52,5.52,0,0,1,27,36.69a3.23,3.23,0,0,1-1.56-.82,1.41,1.41,0,0,1-.39-1c0-1.88,0-3.75,0-5.63a1.54,1.54,0,0,1,.79-1.35,3.83,3.83,0,0,1,1.38-.54,10.79,10.79,0,0,1,2.05-.09,4.32,4.32,0,0,1,1.6.29,2.4,2.4,0,0,1,1.23.92,1.13,1.13,0,0,1,.19.62v3Zm-5.89-2.53c-.05.06,0,.13,0,.19v4.57a.69.69,0,0,0,.27.58l.27.17a3,3,0,0,0,1.14.28,8.81,8.81,0,0,0,1.54,0,2.71,2.71,0,0,0,1-.33.72.72,0,0,0,.39-.67c0-.94,0-1.89,0-2.83V29.65a.37.37,0,0,0-.05-.24,1.21,1.21,0,0,0-.42-.39,3,3,0,0,0-.81-.26,6.82,6.82,0,0,0-1.86,0,2.62,2.62,0,0,0-1.05.32A.71.71,0,0,0,26.36,29.53Z"/><path class="cls-7" d="M67.54,38c0,.75,0,1.51,0,2.27s-.06,1.56-.12,2.35c0,.36,0,.72,0,1.08,0,.84-.11,1.66-.21,2.49s-.23,1.54-.37,2.3a2,2,0,0,1-1,1.36,5.32,5.32,0,0,1-1.87.67c-.57.11-1.13.2-1.71.26a9,9,0,0,1-2.07,0,16.61,16.61,0,0,1-2.34-.42,3.65,3.65,0,0,1-1.66-.9,1.69,1.69,0,0,1-.42-.79c-.22-1.1-.38-2.2-.49-3.32-.06-.64-.11-1.29-.13-1.94,0-1-.1-2-.14-3-.07-1.52,0-3,0-4.55,0-.67,0-1.33.08-2s.07-1.61.14-2.42a29.75,29.75,0,0,1,.59-4.19,1.8,1.8,0,0,1,.9-1.12,5.48,5.48,0,0,1,1.66-.63,14.67,14.67,0,0,1,2-.31c.29,0,.59,0,.88,0a11.22,11.22,0,0,1,2.59.26,6.54,6.54,0,0,1,1.79.56,2.37,2.37,0,0,1,1,.85,1.44,1.44,0,0,1,.15.36c.19.83.31,1.67.42,2.52.1.69.15,1.38.21,2.07,0,.34,0,.68.05,1s0,.91.07,1.36C67.56,35.48,67.55,36.75,67.54,38Z"/><path class="cls-5" d="M64.88,44v2.85A1.36,1.36,0,0,1,64.32,48a3.5,3.5,0,0,1-1.8.74,7.67,7.67,0,0,1-1.66.07,5.51,5.51,0,0,1-1.27-.15A3.32,3.32,0,0,1,58,47.81a1.43,1.43,0,0,1-.39-1c0-1.87,0-3.75,0-5.62a1.55,1.55,0,0,1,.79-1.36,4,4,0,0,1,1.38-.54,10.79,10.79,0,0,1,2-.08,4.32,4.32,0,0,1,1.6.29,2.39,2.39,0,0,1,1.23.91,1.19,1.19,0,0,1,.19.63v3ZM59,41.47c-.05.06,0,.13,0,.19v4.57a.66.66,0,0,0,.27.57,2.11,2.11,0,0,0,.27.18,3,3,0,0,0,1.14.28,8.81,8.81,0,0,0,1.54,0,2.89,2.89,0,0,0,1-.33.72.72,0,0,0,.39-.67c0-.95,0-1.89,0-2.84V41.58a.4.4,0,0,0-.05-.24,1.28,1.28,0,0,0-.42-.38,2.64,2.64,0,0,0-.81-.26,6.44,6.44,0,0,0-1.86,0A2.62,2.62,0,0,0,59.4,41,.69.69,0,0,0,59,41.47Z"/><path class="cls-5" d="M64.88,32.06v2.86A1.36,1.36,0,0,1,64.32,36a3.5,3.5,0,0,1-1.8.74,8.36,8.36,0,0,1-1.66.08,5.52,5.52,0,0,1-1.27-.16A3.23,3.23,0,0,1,58,35.87a1.41,1.41,0,0,1-.39-1c0-1.88,0-3.75,0-5.63a1.54,1.54,0,0,1,.79-1.35,3.83,3.83,0,0,1,1.38-.54,10.79,10.79,0,0,1,2-.09,4.32,4.32,0,0,1,1.6.29,2.4,2.4,0,0,1,1.23.92,1.13,1.13,0,0,1,.19.62v3ZM59,29.53c-.05.06,0,.13,0,.19v4.57a.69.69,0,0,0,.27.58l.27.17a3,3,0,0,0,1.14.28,8.81,8.81,0,0,0,1.54,0,2.71,2.71,0,0,0,1-.33.72.72,0,0,0,.39-.67c0-.94,0-1.89,0-2.83V29.65a.37.37,0,0,0-.05-.24,1.21,1.21,0,0,0-.42-.39,3,3,0,0,0-.81-.26,6.82,6.82,0,0,0-1.86,0,2.62,2.62,0,0,0-1.05.32A.71.71,0,0,0,59,29.53Z"/><path class="cls-8" d="M43.91,38c0,.84,0,1.68,0,2.52s-.06,1.74-.12,2.61c0,.4-.05.81-.06,1.21,0,.92-.13,1.84-.24,2.76s-.25,1.7-.41,2.56A2.17,2.17,0,0,1,42,51.19a6.19,6.19,0,0,1-2.07.74c-.63.13-1.26.22-1.9.29a10.5,10.5,0,0,1-2.31,0,17.72,17.72,0,0,1-2.6-.47,4,4,0,0,1-1.83-1,1.72,1.72,0,0,1-.47-.88,35.11,35.11,0,0,1-.55-3.68q-.11-1.08-.15-2.16c-.05-1.1-.11-2.2-.15-3.3-.07-1.68,0-3.37,0-5.06,0-.74.05-1.48.09-2.21,0-.9.08-1.8.15-2.69a34.62,34.62,0,0,1,.66-4.66,2,2,0,0,1,1-1.24,5.92,5.92,0,0,1,1.86-.71,18,18,0,0,1,2.18-.35c.33,0,.66,0,1,0a12.08,12.08,0,0,1,2.88.28,7.15,7.15,0,0,1,2,.63,2.64,2.64,0,0,1,1.1.94A1.52,1.52,0,0,1,43,26c.21.92.35,1.86.47,2.8.11.77.16,1.54.24,2.3,0,.38,0,.76,0,1.14s0,1,.07,1.5C43.92,35.19,43.92,36.6,43.91,38Z"/><path class="cls-9" d="M41,44.66v3.17a1.54,1.54,0,0,1-.63,1.25,4.07,4.07,0,0,1-2,.82,9.45,9.45,0,0,1-1.84.08,6.13,6.13,0,0,1-1.42-.17,3.65,3.65,0,0,1-1.73-.92,1.57,1.57,0,0,1-.44-1.1c0-2.08,0-4.17,0-6.25A1.75,1.75,0,0,1,33.78,40a4.41,4.41,0,0,1,1.53-.6,12.43,12.43,0,0,1,2.28-.09,4.69,4.69,0,0,1,1.78.33,2.57,2.57,0,0,1,1.37,1,1.3,1.3,0,0,1,.21.69v3.29Zm-6.54-2.81c-.07.06,0,.14,0,.21v5.08a.75.75,0,0,0,.3.64A2.49,2.49,0,0,0,35,48a3.29,3.29,0,0,0,1.27.31,9.77,9.77,0,0,0,1.71,0,3.06,3.06,0,0,0,1.14-.37.77.77,0,0,0,.43-.74c0-1,0-2.1,0-3.15,0-.07,0-.15,0-.22V42a.5.5,0,0,0,0-.27,1.36,1.36,0,0,0-.47-.42,2.89,2.89,0,0,0-.9-.3A7.48,7.48,0,0,0,36,41a3,3,0,0,0-1.17.36A.73.73,0,0,0,34.41,41.85Z"/><path class="cls-9" d="M41,31.4v3.17a1.53,1.53,0,0,1-.63,1.24,3.89,3.89,0,0,1-2,.82,9.46,9.46,0,0,1-1.84.09,6.73,6.73,0,0,1-1.42-.18,3.63,3.63,0,0,1-1.73-.91,1.57,1.57,0,0,1-.44-1.1c0-2.09,0-4.17,0-6.26a1.74,1.74,0,0,1,.88-1.5,4.22,4.22,0,0,1,1.53-.6,13.39,13.39,0,0,1,2.28-.1,4.69,4.69,0,0,1,1.78.33,2.63,2.63,0,0,1,1.37,1,1.36,1.36,0,0,1,.21.7V31.4Zm-6.54-2.81c-.07.06,0,.14,0,.21v5.08a.76.76,0,0,0,.3.64l.3.19a3.29,3.29,0,0,0,1.27.31A9.77,9.77,0,0,0,38,35a3.25,3.25,0,0,0,1.14-.37.77.77,0,0,0,.43-.74c0-1.05,0-2.1,0-3.15,0-.08,0-.15,0-.22V28.72a.47.47,0,0,0,0-.27A1.39,1.39,0,0,0,39,28a2.87,2.87,0,0,0-.9-.29,7.11,7.11,0,0,0-2.06,0,2.84,2.84,0,0,0-1.17.35C34.65,28.18,34.44,28.32,34.41,28.59Z"/><path class="cls-10" d="M60.36,38c0,.84,0,1.68,0,2.52s-.06,1.74-.13,2.61c0,.4,0,.81,0,1.21,0,.92-.13,1.84-.25,2.76s-.25,1.7-.4,2.56a2.17,2.17,0,0,1-1.06,1.51,6.16,6.16,0,0,1-2.08.74c-.62.13-1.26.22-1.89.29a10.5,10.5,0,0,1-2.31,0,17.49,17.49,0,0,1-2.6-.47,4.05,4.05,0,0,1-1.84-1,1.78,1.78,0,0,1-.46-.88,35.11,35.11,0,0,1-.55-3.68q-.1-1.08-.15-2.16c0-1.1-.11-2.2-.16-3.3-.06-1.68,0-3.37,0-5.06,0-.74.06-1.48.09-2.21,0-.9.09-1.8.16-2.69a36.28,36.28,0,0,1,.65-4.66,2,2,0,0,1,1-1.24,6,6,0,0,1,1.85-.71,17.83,17.83,0,0,1,2.19-.35c.32,0,.65,0,1,0a12.13,12.13,0,0,1,2.88.28,7.26,7.26,0,0,1,2,.63,2.56,2.56,0,0,1,1.09.94,1.27,1.27,0,0,1,.17.4c.21.92.35,1.86.47,2.8.1.77.16,1.54.23,2.3,0,.38,0,.76,0,1.14s.05,1,.08,1.5C60.37,35.19,60.36,36.6,60.36,38Z"/><path class="cls-11" d="M57.4,44.66c0,1.06,0,2.12,0,3.17a1.57,1.57,0,0,1-.63,1.25,4.07,4.07,0,0,1-2,.82,9.56,9.56,0,0,1-1.85.08,6.11,6.11,0,0,1-1.41-.17,3.6,3.6,0,0,1-1.73-.92,1.52,1.52,0,0,1-.44-1.1c0-2.08,0-4.17,0-6.25A1.76,1.76,0,0,1,50.22,40a4.46,4.46,0,0,1,1.54-.6A12.43,12.43,0,0,1,54,39.34a4.69,4.69,0,0,1,1.78.33,2.65,2.65,0,0,1,1.37,1,1.3,1.3,0,0,1,.21.69v3.29Zm-6.55-2.81c-.06.06,0,.14,0,.21,0,.55,0,1.1,0,1.65v3.43a.75.75,0,0,0,.3.64,1.89,1.89,0,0,0,.3.19,3.29,3.29,0,0,0,1.26.31,9.75,9.75,0,0,0,1.71,0,3.11,3.11,0,0,0,1.15-.37.77.77,0,0,0,.43-.74c0-1,0-2.1,0-3.15,0-.07,0-.15,0-.22V42a.43.43,0,0,0-.06-.27,1.24,1.24,0,0,0-.46-.42,2.89,2.89,0,0,0-.9-.3,7.48,7.48,0,0,0-2.06,0,3,3,0,0,0-1.17.36A.77.77,0,0,0,50.85,41.85Z"/><path class="cls-11" d="M57.4,31.4c0,1.05,0,2.11,0,3.17a1.55,1.55,0,0,1-.63,1.24,3.89,3.89,0,0,1-2,.82,9.56,9.56,0,0,1-1.85.09,6.72,6.72,0,0,1-1.41-.18,3.58,3.58,0,0,1-1.73-.91,1.52,1.52,0,0,1-.44-1.1c0-2.09,0-4.17,0-6.26a1.75,1.75,0,0,1,.87-1.5,4.27,4.27,0,0,1,1.54-.6,13.39,13.39,0,0,1,2.28-.1,4.69,4.69,0,0,1,1.78.33,2.71,2.71,0,0,1,1.37,1,1.36,1.36,0,0,1,.21.7V31.4Zm-6.55-2.81c-.06.06,0,.14,0,.21,0,.55,0,1.1,0,1.65v3.43a.76.76,0,0,0,.3.64l.3.19a3.29,3.29,0,0,0,1.26.31,9.75,9.75,0,0,0,1.71,0,3.3,3.3,0,0,0,1.15-.37.77.77,0,0,0,.43-.74c0-1.05,0-2.1,0-3.15,0-.08,0-.15,0-.22V28.72a.4.4,0,0,0-.06-.27,1.27,1.27,0,0,0-.46-.43,2.87,2.87,0,0,0-.9-.29,7.11,7.11,0,0,0-2.06,0,2.84,2.84,0,0,0-1.17.35A.8.8,0,0,0,50.85,28.59Z"/><path class="cls-12" d="M53,38c0,.93,0,1.85,0,2.78s-.07,1.91-.14,2.87c0,.44,0,.89-.06,1.33,0,1-.14,2-.27,3s-.27,1.88-.44,2.82a2.36,2.36,0,0,1-1.17,1.66,6.44,6.44,0,0,1-2.28.82c-.69.14-1.39.24-2.09.32a10.8,10.8,0,0,1-2.54,0,18.3,18.3,0,0,1-2.85-.51,4.31,4.31,0,0,1-2-1.1,1.88,1.88,0,0,1-.52-1,39.54,39.54,0,0,1-.6-4c-.08-.79-.13-1.58-.17-2.37-.05-1.21-.12-2.42-.17-3.63-.07-1.85,0-3.71,0-5.57,0-.81.06-1.62.1-2.43,0-1,.09-2,.17-3a38.46,38.46,0,0,1,.72-5.12,2.22,2.22,0,0,1,1.1-1.37,6.39,6.39,0,0,1,2-.78,19.33,19.33,0,0,1,2.4-.38c.36,0,.72,0,1.08,0a13.94,13.94,0,0,1,3.16.31,8,8,0,0,1,2.19.7,2.81,2.81,0,0,1,1.2,1,1.27,1.27,0,0,1,.18.43c.23,1,.38,2.05.52,3.08.11.85.17,1.69.25,2.54,0,.41,0,.83.06,1.24s0,1.11.08,1.66C53,34.91,53,36.46,53,38Z"/><path class="cls-6" d="M49.74,45.32c0,1.17,0,2.33,0,3.49a1.72,1.72,0,0,1-.7,1.37,4.21,4.21,0,0,1-2.19.9,9.84,9.84,0,0,1-2,.09A6.7,6.7,0,0,1,43.28,51a4.12,4.12,0,0,1-1.91-1,1.72,1.72,0,0,1-.48-1.22c0-2.29,0-4.58,0-6.87a1.92,1.92,0,0,1,1-1.66,4.92,4.92,0,0,1,1.69-.66,13.15,13.15,0,0,1,2.51-.1,5.24,5.24,0,0,1,2,.36,2.83,2.83,0,0,1,1.5,1.11,1.42,1.42,0,0,1,.23.77v3.61Zm-7.19-3.08c-.07.06,0,.15,0,.22,0,.61,0,1.22,0,1.82v3.78a.78.78,0,0,0,.33.69,1.31,1.31,0,0,0,.33.21,3.57,3.57,0,0,0,1.39.35,10.72,10.72,0,0,0,1.88,0,3.45,3.45,0,0,0,1.26-.4.87.87,0,0,0,.47-.82c0-1.15,0-2.31,0-3.46,0-.08,0-.16,0-.24v-2a.48.48,0,0,0-.06-.29,1.44,1.44,0,0,0-.51-.47,3.19,3.19,0,0,0-1-.32,8.22,8.22,0,0,0-2.27,0,3.28,3.28,0,0,0-1.29.39A.83.83,0,0,0,42.55,42.24Z"/><path class="cls-6" d="M49.74,30.73c0,1.17,0,2.33,0,3.49a1.72,1.72,0,0,1-.7,1.37,4.21,4.21,0,0,1-2.19.9,9.84,9.84,0,0,1-2,.09,6.21,6.21,0,0,1-1.55-.19,4,4,0,0,1-1.91-1,1.72,1.72,0,0,1-.48-1.21c0-2.3,0-4.59,0-6.88a1.92,1.92,0,0,1,1-1.66A4.92,4.92,0,0,1,43.54,25a13.15,13.15,0,0,1,2.51-.1,5.24,5.24,0,0,1,2,.36,2.83,2.83,0,0,1,1.5,1.11,1.42,1.42,0,0,1,.23.77v3.61Zm-7.19-3.08c-.07.06,0,.15,0,.23,0,.6,0,1.21,0,1.82v3.76a.78.78,0,0,0,.33.7,1.67,1.67,0,0,0,.33.21,3.57,3.57,0,0,0,1.39.35,10.72,10.72,0,0,0,1.88,0,3.45,3.45,0,0,0,1.26-.4.87.87,0,0,0,.47-.82c0-1.15,0-2.31,0-3.46,0-.08,0-.16,0-.24v-2a.49.49,0,0,0-.06-.3,1.44,1.44,0,0,0-.51-.47,3.48,3.48,0,0,0-1-.32,8.22,8.22,0,0,0-2.27,0,3.28,3.28,0,0,0-1.29.39A.83.83,0,0,0,42.55,27.65Z"/></g></svg>