<svg id="Layer_1" data-name="Layer 1" xmlns="http://www.w3.org/2000/svg" xmlns:xlink="http://www.w3.org/1999/xlink" viewBox="0 0 90 100"><defs><style>.cls-1,.cls-5{fill:none;}.cls-2{fill:#fff;stroke-miterlimit:10;}.cls-2,.cls-5{stroke:#74af27;}.cls-3{fill:#74af27;}.cls-4{clip-path:url(#clip-path);}.cls-5{stroke-linecap:round;stroke-linejoin:round;}</style><clipPath id="clip-path"><circle class="cls-1" cx="45" cy="37.74" r="28.35"/></clipPath></defs><title>EV-Connectors_Leads-43kW</title><circle class="cls-2" cx="45" cy="37.74" r="28.35"/><polygon class="cls-3" points="47.25 39.98 42.37 46.6 45.13 46.6 43.24 51.63 48.19 44.97 45.41 44.97 47.25 39.98"/><g class="cls-4"><rect class="cls-5" x="30.48" y="29.31" width="29.12" height="6.82" rx="3.41"/><path class="cls-5" d="M46.74,19.76a1.9,1.9,0,1,0-3.8,0v9.47h3.8Z"/><rect class="cls-5" x="36.05" y="21.68" width="3.8" height="7.55"/><rect class="cls-5" x="49.82" y="21.68" width="3.8" height="7.55"/><path class="cls-5" d="M33.5,37.74H56.71v10s1.18,5.37-11.58,6.16c0,0-11.63,0-11.63-6.43Z"/><path class="cls-3" d="M41.34,55a33.11,33.11,0,0,0,7.87,0v4.33H41.34Z"/><rect class="cls-3" x="43.87" y="59.22" width="2.82" height="9.71"/></g><path class="cls-3" d="M36,75.49H32.65L32.47,75,36,70.64h.63V74.9h1v.59h-1V77H36Zm0-.59V71.65L33.33,74.9Z"/><path class="cls-3" d="M38.3,76l.53-.46a2.26,2.26,0,0,0,1.83.94A1.27,1.27,0,0,0,42,75.22v0c0-.78-.73-1.21-1.76-1.21h-.41l-.14-.43,2-2.24H38.64v-.64h4v.53l-2,2.19c1.1.09,2.08.62,2.08,1.78h0a2,2,0,0,1-2.11,1.9A2.89,2.89,0,0,1,38.3,76Z"/><path class="cls-3" d="M43.88,70.41h.69V75l2.51-2.62h.86l-1.95,2L48,77h-.83l-1.67-2.17-.94,1V77h-.69Z"/><path class="cls-3" d="M48.36,70.68h.77l1.8,5.25,1.73-5.26h.59L55,75.93l1.81-5.25h.74L55.27,77h-.6l-1.73-5.11L51.2,77h-.59Z"/></svg>