<svg id="Layer_1" data-name="Layer 1" xmlns="http://www.w3.org/2000/svg" viewBox="0 0 90 100"><defs><style>.cls-1{fill:#fff;}.cls-1,.cls-2,.cls-4{stroke:#74af27;stroke-miterlimit:10;}.cls-2,.cls-4{fill:none;}.cls-3{fill:#74af27;}.cls-4{stroke-width:0.5px;}</style></defs><title>EV-Connectors_Leads-Type1Connector</title><circle class="cls-1" cx="45" cy="37.74" r="28.35"/><circle class="cls-2" cx="44.94" cy="37.93" r="15.1"/><path class="cls-3" d="M43.44,53v2.6h3.12V53A11.39,11.39,0,0,1,43.44,53Z"/><circle class="cls-2" cx="39.04" cy="32.82" r="3.44"/><circle class="cls-2" cx="51.04" cy="32.82" r="3.44"/><circle class="cls-4" cx="36.89" cy="42.3" r="2.5"/><circle class="cls-4" cx="53.21" cy="42.3" r="2.5"/><circle class="cls-2" cx="44.94" cy="46.29" r="3.44"/><path class="cls-3" d="M34.44,71.34H32.32v-.66h5v.66H35.16V77h-.72Z"/><path class="cls-3" d="M40.92,72.33h.73L39.7,77.14c-.4,1-.85,1.31-1.55,1.31a2.19,2.19,0,0,1-1-.23l.24-.55a1.41,1.41,0,0,0,.73.17c.41,0,.67-.21.95-.87L37,72.33h.77l1.69,3.88Z"/><path class="cls-3" d="M42.48,72.33h.69v.94a2.1,2.1,0,0,1,1.79-1,2.27,2.27,0,0,1,2.22,2.42h0A2.28,2.28,0,0,1,45,77.08a2.09,2.09,0,0,1-1.79-1v2.34h-.69Zm4,2.34v0a1.68,1.68,0,0,0-1.64-1.8,1.74,1.74,0,0,0-1.68,1.8h0a1.73,1.73,0,0,0,1.68,1.8A1.64,1.64,0,0,0,46.47,74.67Z"/><path class="cls-3" d="M47.9,74.67v0a2.29,2.29,0,0,1,2.23-2.42,2.22,2.22,0,0,1,2.17,2.46,1.77,1.77,0,0,1,0,.23H48.6a1.63,1.63,0,0,0,1.64,1.57,1.92,1.92,0,0,0,1.47-.66l.43.39a2.42,2.42,0,0,1-1.92.87A2.31,2.31,0,0,1,47.9,74.67Zm3.7-.27a1.53,1.53,0,0,0-1.49-1.58A1.6,1.6,0,0,0,48.6,74.4Z"/><path class="cls-3" d="M56.51,71.38l-1.19.37-.17-.58,1.54-.53h.52V77h-.7Z"/><path class="cls-3" d="M23.25,84.85v0a3.17,3.17,0,0,1,3.19-3.25,3.27,3.27,0,0,1,2.46,1l-.49.52a2.71,2.71,0,0,0-2-.87A2.47,2.47,0,0,0,24,84.82h0a2.49,2.49,0,0,0,2.44,2.61,2.75,2.75,0,0,0,2-.91l.47.46a3.27,3.27,0,0,1-2.52,1.1A3.14,3.14,0,0,1,23.25,84.85Z"/><path class="cls-3" d="M29.41,85.68v0a2.43,2.43,0,1,1,4.85,0h0a2.41,2.41,0,0,1-2.44,2.43A2.38,2.38,0,0,1,29.41,85.68Zm4.14,0v0a1.76,1.76,0,0,0-1.73-1.82,1.72,1.72,0,0,0-1.7,1.81h0a1.75,1.75,0,0,0,1.72,1.81A1.72,1.72,0,0,0,33.55,85.68Z"/><path class="cls-3" d="M35.24,83.33h.69v.81a1.79,1.79,0,0,1,1.6-.91,1.7,1.7,0,0,1,1.78,1.87V88h-.69V85.27a1.24,1.24,0,0,0-1.29-1.41,1.38,1.38,0,0,0-1.4,1.46V88h-.69Z"/><path class="cls-3" d="M40.51,83.33h.7v.81a1.76,1.76,0,0,1,1.59-.91,1.7,1.7,0,0,1,1.78,1.87V88h-.69V85.27a1.24,1.24,0,0,0-1.29-1.41,1.37,1.37,0,0,0-1.39,1.46V88h-.7Z"/><path class="cls-3" d="M45.5,85.67v0a2.3,2.3,0,0,1,2.23-2.42,2.22,2.22,0,0,1,2.17,2.46,1.77,1.77,0,0,1,0,.23H46.2a1.63,1.63,0,0,0,1.64,1.57,1.92,1.92,0,0,0,1.47-.66l.43.39a2.42,2.42,0,0,1-1.92.87A2.31,2.31,0,0,1,45.5,85.67Zm3.7-.27a1.53,1.53,0,0,0-1.49-1.58A1.6,1.6,0,0,0,46.2,85.4Z"/><path class="cls-3" d="M50.56,85.68v0a2.42,2.42,0,0,1,4.25-1.6l-.46.49a1.89,1.89,0,0,0-1.42-.71,1.72,1.72,0,0,0-1.66,1.81h0A1.74,1.74,0,0,0,53,87.47a1.91,1.91,0,0,0,1.42-.69l.44.41a2.35,2.35,0,0,1-1.9.9A2.38,2.38,0,0,1,50.56,85.68Z"/><path class="cls-3" d="M56,86.75V83.94h-.65v-.61H56v-1.4h.69v1.4h1.48v.61H56.65v2.72a.69.69,0,0,0,.78.78,1.43,1.43,0,0,0,.68-.17v.6a1.8,1.8,0,0,1-.84.2A1.19,1.19,0,0,1,56,86.75Z"/><path class="cls-3" d="M58.66,85.68v0a2.43,2.43,0,1,1,4.85,0h0a2.42,2.42,0,0,1-2.44,2.43A2.37,2.37,0,0,1,58.66,85.68Zm4.14,0v0a1.76,1.76,0,0,0-1.73-1.82,1.72,1.72,0,0,0-1.7,1.81h0a1.75,1.75,0,0,0,1.72,1.81A1.72,1.72,0,0,0,62.8,85.68Z"/><path class="cls-3" d="M64.49,83.33h.69v1.22a2,2,0,0,1,1.9-1.3V84h0a1.88,1.88,0,0,0-1.85,2.13V88h-.69Z"/></svg>