<svg id="Layer_1" data-name="Layer 1" xmlns="http://www.w3.org/2000/svg" viewBox="0 0 90 100"><defs><style>.cls-1{fill:#74af27;}.cls-2{fill:#fff;stroke:#74af27;stroke-miterlimit:10;}</style></defs><title>EV-Certifications_Awards-SMarkCertified</title><path class="cls-1" d="M31,76.07l.44-.53a3,3,0,0,0,2.16.9c.85,0,1.4-.45,1.4-1.07v0c0-.59-.31-.92-1.63-1.2s-2.12-.78-2.12-1.82v0a1.86,1.86,0,0,1,2.07-1.72,3.32,3.32,0,0,1,2.22.78l-.42.55a2.75,2.75,0,0,0-1.82-.69c-.82,0-1.34.45-1.34,1v0c0,.59.33.93,1.71,1.22s2,.82,2,1.79h0c0,1.08-.9,1.79-2.15,1.79A3.69,3.69,0,0,1,31,76.07Z"/><path class="cls-1" d="M39.36,70.68h.72l2.3,3.44,2.29-3.44h.72V77h-.71V71.88l-2.29,3.38h0l-2.3-3.37V77h-.69Z"/><path class="cls-1" d="M46.44,75.63h0c0-1,.81-1.51,2-1.51a5.26,5.26,0,0,1,1.44.2v-.16c0-.84-.52-1.27-1.39-1.27a3.33,3.33,0,0,0-1.41.34l-.21-.56a3.76,3.76,0,0,1,1.69-.39,2.07,2.07,0,0,1,1.51.51,1.87,1.87,0,0,1,.47,1.36V77h-.66v-.71a2,2,0,0,1-1.69.8A1.56,1.56,0,0,1,46.44,75.63Zm3.43-.35v-.45a4.91,4.91,0,0,0-1.37-.2c-.88,0-1.36.38-1.36,1v0c0,.58.54.93,1.17.93A1.42,1.42,0,0,0,49.87,75.28Z"/><path class="cls-1" d="M51.73,72.33h.69v1.22a2,2,0,0,1,1.9-1.3V73h0a1.88,1.88,0,0,0-1.85,2.13V77h-.69Z"/><path class="cls-1" d="M55.1,70.41h.7V75l2.51-2.62h.86l-2,2,2,2.66h-.82l-1.67-2.17-.94,1V77h-.7Z"/><path class="cls-1" d="M27.3,84.85v0a3.17,3.17,0,0,1,3.19-3.25,3.27,3.27,0,0,1,2.46,1l-.49.52a2.71,2.71,0,0,0-2-.87A2.47,2.47,0,0,0,28,84.82h0a2.49,2.49,0,0,0,2.44,2.61,2.75,2.75,0,0,0,2-.91L33,87a3.27,3.27,0,0,1-2.52,1.1A3.14,3.14,0,0,1,27.3,84.85Z"/><path class="cls-1" d="M33.46,85.67v0a2.29,2.29,0,0,1,2.23-2.42,2.22,2.22,0,0,1,2.17,2.46,1.77,1.77,0,0,1,0,.23H34.16a1.63,1.63,0,0,0,1.64,1.57,1.92,1.92,0,0,0,1.47-.66l.43.39a2.42,2.42,0,0,1-1.92.87A2.31,2.31,0,0,1,33.46,85.67Zm3.7-.27a1.53,1.53,0,0,0-1.49-1.58,1.6,1.6,0,0,0-1.51,1.58Z"/><path class="cls-1" d="M38.8,83.33h.7v1.22a2,2,0,0,1,1.9-1.3V84h-.06a1.88,1.88,0,0,0-1.84,2.13V88h-.7Z"/><path class="cls-1" d="M42.42,86.75V83.94h-.65v-.61h.65v-1.4h.7v1.4h1.47v.61H43.12v2.72a.69.69,0,0,0,.78.78,1.42,1.42,0,0,0,.67-.17v.6a1.79,1.79,0,0,1-.83.2A1.19,1.19,0,0,1,42.42,86.75Z"/><path class="cls-1" d="M45.56,81.55h.8v.76h-.8Zm0,1.78h.69V88h-.69Z"/><path class="cls-1" d="M47.9,83.94h-.64v-.6h.64v-.4a1.64,1.64,0,0,1,.41-1.2,1.33,1.33,0,0,1,1-.36,1.9,1.9,0,0,1,.76.12v.6A2.37,2.37,0,0,0,49.4,82c-.54,0-.81.32-.81,1v.38h1.47v.59H48.6v4h-.7ZM51,81.55h.8v.76H51ZM51,83.33h.68V88H51Z"/><path class="cls-1" d="M52.76,85.67v0A2.3,2.3,0,0,1,55,83.23a2.22,2.22,0,0,1,2.17,2.46,1.77,1.77,0,0,1,0,.23H53.47a1.62,1.62,0,0,0,1.63,1.57,1.92,1.92,0,0,0,1.47-.66l.43.39a2.38,2.38,0,0,1-1.91.87A2.32,2.32,0,0,1,52.76,85.67Zm3.7-.27A1.53,1.53,0,0,0,55,83.82a1.6,1.6,0,0,0-1.51,1.58Z"/><path class="cls-1" d="M57.84,85.67v0a2.28,2.28,0,0,1,2.22-2.42,2.11,2.11,0,0,1,1.79,1V81.41h.69V88h-.69v-.94a2.09,2.09,0,0,1-1.79,1A2.27,2.27,0,0,1,57.84,85.67Zm4,0v0a1.73,1.73,0,0,0-1.68-1.79,1.65,1.65,0,0,0-1.64,1.79v0a1.68,1.68,0,0,0,1.64,1.8A1.74,1.74,0,0,0,61.87,85.66Z"/><circle class="cls-2" cx="45" cy="37.93" r="28.35"/><path class="cls-1" d="M41.89,26.88a3.59,3.59,0,0,0-3,2.55,3.09,3.09,0,0,0,.72,3.48l10.77,9.36a2,2,0,0,1,.51,2.37,2.55,2.55,0,0,1-2,1.75H39.43c-.46,0-.5-.76-.5-.76H36.82a2.73,2.73,0,0,0,2.37,2.84c.74,0,5.08,0,9.66,0a4.84,4.84,0,0,0,4.33-4.75,4,4,0,0,0-1.4-3L41,31.33a.74.74,0,0,1-.23-.6,2,2,0,0,1,.11-.6c.24-.68.75-1.14,1.08-1.16H48.9c.41,0,.41.48.41.74h2.11a3.29,3.29,0,0,0-.81-2.22,1.93,1.93,0,0,0-1.45-.58l-7.27,0"/><path class="cls-1" d="M45,22.47A15.59,15.59,0,1,0,60.59,38.06,15.59,15.59,0,0,0,45,22.47m0,29.1A13.51,13.51,0,1,1,58.5,38.06,13.5,13.5,0,0,1,45,51.57"/></svg>