<svg id="Layer_1" data-name="Layer 1" xmlns="http://www.w3.org/2000/svg" viewBox="0 0 90 100"><defs><style>.cls-1{fill:#fff;stroke-miterlimit:10;}.cls-1,.cls-3{stroke:#74af27;}.cls-2{fill:#74af27;}.cls-3{fill:none;stroke-linejoin:round;stroke-width:0.97px;}</style></defs><title>EV-Connectors_Leads-SchukoPlug</title><circle class="cls-1" cx="45" cy="37.74" r="28.35"/><path class="cls-2" d="M29.8,76.07l.45-.52a3,3,0,0,0,2.16.89c.84,0,1.4-.45,1.4-1.07v0c0-.59-.31-.92-1.64-1.2s-2.11-.78-2.11-1.82v0a1.86,1.86,0,0,1,2.07-1.72,3.26,3.26,0,0,1,2.21.78l-.41.55a2.77,2.77,0,0,0-1.82-.69c-.82,0-1.34.45-1.34,1v0c0,.59.32.93,1.71,1.22s2.05.82,2.05,1.79h0c0,1.08-.9,1.79-2.15,1.79A3.73,3.73,0,0,1,29.8,76.07Z"/><path class="cls-2" d="M35.3,74.68v0a2.42,2.42,0,0,1,4.25-1.6l-.46.49a1.87,1.87,0,0,0-1.41-.71A1.73,1.73,0,0,0,36,74.65h0a1.74,1.74,0,0,0,1.71,1.81,1.91,1.91,0,0,0,1.43-.69l.44.41a2.41,2.41,0,0,1-4.29-1.51Z"/><path class="cls-2" d="M40.46,70.41h.69v2.73a1.79,1.79,0,0,1,1.6-.91,1.7,1.7,0,0,1,1.78,1.87V77h-.69V74.27a1.24,1.24,0,0,0-1.29-1.41,1.38,1.38,0,0,0-1.4,1.46V77h-.69Z"/><path class="cls-2" d="M45.66,75.22V72.33h.69v2.72a1.24,1.24,0,0,0,1.29,1.4A1.37,1.37,0,0,0,49,75V72.33h.68V77H49v-.81a1.78,1.78,0,0,1-1.6.9A1.7,1.7,0,0,1,45.66,75.22Z"/><path class="cls-2" d="M51,70.41h.69V75l2.51-2.62h.87l-2,2,2,2.66h-.83l-1.66-2.17-.95,1V77H51Z"/><path class="cls-2" d="M55.35,74.68v0a2.43,2.43,0,0,1,4.85,0h0a2.42,2.42,0,0,1-2.44,2.43A2.37,2.37,0,0,1,55.35,74.68Zm4.14,0v0a1.76,1.76,0,0,0-1.73-1.82,1.72,1.72,0,0,0-1.7,1.81h0a1.74,1.74,0,0,0,1.72,1.81A1.72,1.72,0,0,0,59.49,74.68Z"/><path class="cls-2" d="M36.35,81.68h2.36c1.42,0,2.35.76,2.35,2v0c0,1.36-1.13,2.06-2.47,2.06H37.06V88h-.71Zm2.27,3.43c1,0,1.72-.55,1.72-1.38v0c0-.9-.67-1.37-1.69-1.37H37.06v2.77Z"/><path class="cls-2" d="M42,81.41h.69V88H42Z"/><path class="cls-2" d="M44,86.22V83.33h.69v2.72A1.24,1.24,0,0,0,46,87.45,1.37,1.37,0,0,0,47.37,86V83.33h.69V88h-.69v-.81a1.76,1.76,0,0,1-1.59.9A1.69,1.69,0,0,1,44,86.22Z"/><path class="cls-2" d="M49.29,88.8l.31-.54a3,3,0,0,0,1.8.59,1.53,1.53,0,0,0,1.69-1.66v-.55a2.22,2.22,0,0,1-1.83,1,2.15,2.15,0,0,1-2.19-2.18v0a2.2,2.2,0,0,1,4-1.26v-.84h.69v3.85a2.22,2.22,0,0,1-.59,1.64,2.44,2.44,0,0,1-1.78.62A3.65,3.65,0,0,1,49.29,88.8Zm3.82-3.36v0a1.64,1.64,0,0,0-1.71-1.58,1.55,1.55,0,0,0-1.62,1.57v0A1.57,1.57,0,0,0,51.4,87,1.64,1.64,0,0,0,53.11,85.44Z"/><path class="cls-3" d="M58.58,37.74a12,12,0,0,1-.08,1.48H56.75v5.33a13.58,13.58,0,0,1-23.5,0V39.22H31.5a12,12,0,0,1-.08-1.48,14.36,14.36,0,0,1,.08-1.48h1.75V30.93a13.58,13.58,0,0,1,23.5,0v5.33H58.5A14.36,14.36,0,0,1,58.58,37.74Z"/><circle class="cls-3" cx="37.9" cy="37.74" r="1.82"/><circle class="cls-3" cx="52.1" cy="37.74" r="1.82"/><path class="cls-3" d="M47.23,47.19v3.94a12.58,12.58,0,0,1-2.23.19,13.11,13.11,0,0,1-2.36-.21V47.19Z"/><polygon class="cls-3" points="48.44 28.05 48.44 33.35 46.52 33.35 46.52 35.68 43.49 35.68 43.49 33.35 41.56 33.35 41.56 28.05 42.71 28.05 42.71 25.71 47.3 25.71 47.3 28.05 48.44 28.05"/></svg>