<svg id="Layer_1" data-name="Layer 1" xmlns="http://www.w3.org/2000/svg" viewBox="0 0 90 100"><defs><style>.cls-1{fill:#fff;}.cls-1,.cls-3,.cls-4{stroke:#74af27;stroke-miterlimit:10;}.cls-2{fill:#74af27;}.cls-3,.cls-4{fill:none;}.cls-3{stroke-width:0.64px;}.cls-4{stroke-width:0.68px;}</style></defs><title>EV-Connectivity-SecureCommunications</title><circle class="cls-1" cx="45" cy="37.74" r="28.35"/><path class="cls-2" d="M30.88,76.07l.44-.53a3,3,0,0,0,2.16.9c.85,0,1.41-.45,1.41-1.07v0c0-.59-.32-.92-1.64-1.2s-2.12-.78-2.12-1.82v0a1.86,1.86,0,0,1,2.07-1.72,3.32,3.32,0,0,1,2.22.78l-.42.55a2.75,2.75,0,0,0-1.82-.69c-.82,0-1.34.45-1.34,1v0c0,.59.33.93,1.71,1.22s2.06.82,2.06,1.79h0c0,1.08-.9,1.79-2.16,1.79A3.71,3.71,0,0,1,30.88,76.07Z"/><path class="cls-2" d="M36.38,74.67v0a2.29,2.29,0,0,1,2.23-2.42,2.22,2.22,0,0,1,2.17,2.46,1.77,1.77,0,0,1,0,.23H37.08a1.63,1.63,0,0,0,1.64,1.57,1.92,1.92,0,0,0,1.47-.66l.43.39a2.42,2.42,0,0,1-1.92.87A2.31,2.31,0,0,1,36.38,74.67Zm3.7-.27a1.53,1.53,0,0,0-1.49-1.58,1.6,1.6,0,0,0-1.51,1.58Z"/><path class="cls-2" d="M41.44,74.68v0a2.4,2.4,0,0,1,2.38-2.43,2.43,2.43,0,0,1,1.87.83l-.46.49a1.89,1.89,0,0,0-1.42-.71,1.72,1.72,0,0,0-1.66,1.8v0a1.74,1.74,0,0,0,1.71,1.81,1.91,1.91,0,0,0,1.42-.69l.44.41a2.4,2.4,0,0,1-4.28-1.51Z"/><path class="cls-2" d="M46.52,75.22V72.33h.69v2.72a1.25,1.25,0,0,0,1.29,1.41A1.38,1.38,0,0,0,49.9,75V72.33h.68V77H49.9v-.81a1.79,1.79,0,0,1-1.6.9A1.7,1.7,0,0,1,46.52,75.22Z"/><path class="cls-2" d="M51.87,72.33h.69v1.22a2,2,0,0,1,1.9-1.3V73h-.05a1.88,1.88,0,0,0-1.85,2.13V77h-.69Z"/><path class="cls-2" d="M54.76,74.67v0A2.29,2.29,0,0,1,57,72.23a2.22,2.22,0,0,1,2.17,2.46,1.77,1.77,0,0,1,0,.23H55.46a1.63,1.63,0,0,0,1.64,1.57,1.89,1.89,0,0,0,1.46-.66l.44.39a2.42,2.42,0,0,1-1.92.87A2.31,2.31,0,0,1,54.76,74.67Zm3.7-.27A1.54,1.54,0,0,0,57,72.82a1.6,1.6,0,0,0-1.51,1.58Z"/><path class="cls-2" d="M9.82,84.85v0A3.17,3.17,0,0,1,13,81.58a3.27,3.27,0,0,1,2.46,1L15,83.1a2.71,2.71,0,0,0-2-.87,2.48,2.48,0,0,0-2.44,2.59h0A2.5,2.5,0,0,0,13,87.44a2.77,2.77,0,0,0,2-.91l.46.46A3.27,3.27,0,0,1,13,88.09,3.15,3.15,0,0,1,9.82,84.85Z"/><path class="cls-2" d="M16,85.68v0a2.41,2.41,0,0,1,2.43-2.43,2.39,2.39,0,0,1,2.42,2.41v0a2.41,2.41,0,0,1-2.44,2.43A2.38,2.38,0,0,1,16,85.68Zm4.14,0v0a1.76,1.76,0,0,0-1.73-1.82,1.72,1.72,0,0,0-1.7,1.8v0a1.75,1.75,0,0,0,1.72,1.81A1.72,1.72,0,0,0,20.12,85.68Z"/><path class="cls-2" d="M21.81,83.33h.7v.79a1.7,1.7,0,0,1,1.5-.89,1.57,1.57,0,0,1,1.49.93,1.87,1.87,0,0,1,1.64-.93,1.68,1.68,0,0,1,1.73,1.88V88h-.69V85.27c0-.9-.45-1.41-1.21-1.41a1.3,1.3,0,0,0-1.28,1.44V88H25V85.25c0-.87-.46-1.39-1.2-1.39a1.34,1.34,0,0,0-1.29,1.47V88h-.7Z"/><path class="cls-2" d="M30.1,83.33h.69v.79a1.71,1.71,0,0,1,1.51-.89,1.58,1.58,0,0,1,1.49.93,1.87,1.87,0,0,1,1.64-.93,1.68,1.68,0,0,1,1.73,1.88V88h-.69V85.27c0-.9-.45-1.41-1.21-1.41A1.3,1.3,0,0,0,34,85.3V88h-.69V85.25c0-.87-.46-1.39-1.2-1.39a1.35,1.35,0,0,0-1.3,1.47V88H30.1Z"/><path class="cls-2" d="M38.32,86.22V83.33H39v2.72a1.25,1.25,0,0,0,1.29,1.41A1.37,1.37,0,0,0,41.69,86V83.33h.69V88h-.69v-.81a1.76,1.76,0,0,1-1.59.9A1.7,1.7,0,0,1,38.32,86.22Z"/><path class="cls-2" d="M43.66,83.33h.7v.81A1.76,1.76,0,0,1,46,83.23a1.7,1.7,0,0,1,1.78,1.87V88H47V85.27a1.24,1.24,0,0,0-1.29-1.41,1.37,1.37,0,0,0-1.39,1.46V88h-.7Z"/><path class="cls-2" d="M49,81.55h.79v.76H49Zm0,1.78h.69V88H49Z"/><path class="cls-2" d="M50.75,85.68v0a2.4,2.4,0,0,1,2.38-2.43,2.43,2.43,0,0,1,1.87.83l-.46.49a1.89,1.89,0,0,0-1.42-.71,1.72,1.72,0,0,0-1.66,1.8v0a1.74,1.74,0,0,0,1.71,1.81,1.91,1.91,0,0,0,1.42-.69l.44.41a2.4,2.4,0,0,1-4.28-1.51Z"/><path class="cls-2" d="M55.55,86.63h0c0-1,.81-1.51,2-1.51a5.12,5.12,0,0,1,1.43.2v-.16c0-.84-.51-1.27-1.38-1.27a3.41,3.41,0,0,0-1.42.34l-.2-.56a3.73,3.73,0,0,1,1.69-.39,2,2,0,0,1,1.5.51,1.83,1.83,0,0,1,.48,1.36V88H59v-.71a2,2,0,0,1-1.68.8A1.57,1.57,0,0,1,55.55,86.63ZM59,86.28v-.45a4.8,4.8,0,0,0-1.37-.2c-.87,0-1.35.38-1.35,1v0c0,.58.54.93,1.17.93A1.41,1.41,0,0,0,59,86.28Z"/><path class="cls-2" d="M61,86.75V83.94H60.4v-.61H61v-1.4h.7v1.4h1.47v.61H61.74v2.72a.69.69,0,0,0,.78.78,1.42,1.42,0,0,0,.67-.17v.6a1.79,1.79,0,0,1-.83.2A1.19,1.19,0,0,1,61,86.75Z"/><path class="cls-2" d="M64.18,81.55H65v.76h-.8Zm0,1.78h.69V88h-.69Z"/><path class="cls-2" d="M66,85.68v0a2.43,2.43,0,0,1,4.86,0v0a2.42,2.42,0,0,1-2.44,2.43A2.38,2.38,0,0,1,66,85.68Zm4.15,0v0a1.76,1.76,0,0,0-1.73-1.82,1.72,1.72,0,0,0-1.7,1.8v0a1.74,1.74,0,0,0,1.72,1.81A1.72,1.72,0,0,0,70.12,85.68Z"/><path class="cls-2" d="M71.81,83.33h.69v.81a1.77,1.77,0,0,1,1.59-.91,1.71,1.71,0,0,1,1.79,1.87V88h-.7V85.27a1.24,1.24,0,0,0-1.28-1.41,1.37,1.37,0,0,0-1.4,1.46V88h-.69Z"/><path class="cls-2" d="M76.69,87.39,77,86.9a2.81,2.81,0,0,0,1.62.59c.55,0,1-.29,1-.74v0c0-.46-.55-.64-1.16-.81s-1.54-.46-1.54-1.32v0a1.4,1.4,0,0,1,1.58-1.33,3.24,3.24,0,0,1,1.68.51l-.32.53a2.59,2.59,0,0,0-1.37-.45c-.55,0-.91.28-.91.67v0c0,.44.58.61,1.2.8s1.5.5,1.5,1.33v0a1.47,1.47,0,0,1-1.66,1.4A3.25,3.25,0,0,1,76.69,87.39Z"/><path class="cls-3" d="M44.84,37.07c2.06,0,3.57,1.88,3.58,5h2.5c0-4.51-2.73-7.45-6.08-7.45s-6.09,2.94-6.09,7.45h2.6C41.36,39,42.77,37.07,44.84,37.07Z"/><path class="cls-4" d="M53.21,44.9a2.85,2.85,0,0,0-2.84-2.85H39.63a2.85,2.85,0,0,0-2.84,2.85V54a2.84,2.84,0,0,0,2.84,2.84H50.37A2.84,2.84,0,0,0,53.21,54Zm-7,5.6v3.06a1.24,1.24,0,0,1-2.48,0V50.5a2.77,2.77,0,0,1-1.4-2.28,2.55,2.55,0,0,1,2.55-2.55,2.63,2.63,0,0,1,2.64,2.55A2.94,2.94,0,0,1,46.19,50.5Z"/><path class="cls-2" d="M33.61,26.46a1.28,1.28,0,0,1-.8-.28,1.3,1.3,0,0,1-.21-1.82,16.63,16.63,0,0,1,3.49-2.91,16.76,16.76,0,0,1,8-2.77c4.62-.28,9.06,1.63,13.19,5.7a1.29,1.29,0,1,1-1.81,1.85c-3.56-3.51-7.31-5.18-11.14-5a14.27,14.27,0,0,0-6.78,2.31A15,15,0,0,0,34.63,26,1.29,1.29,0,0,1,33.61,26.46Zm4,2.82a10.68,10.68,0,0,1,6.95-3.48c2.66-.1,5.34,1.13,8,3.66a1.29,1.29,0,0,0,1.8-1.86c-3.15-3-6.47-4.52-9.87-4.38a13.17,13.17,0,0,0-8.78,4.35,1.31,1.31,0,0,0,.11,1.83,1.3,1.3,0,0,0,1.83-.12Zm3.06,3.32a5.85,5.85,0,0,1,3.78-2.15c1.71-.18,3.41.64,5.06,2.43a1.29,1.29,0,0,0,1.9-1.76c-2.78-3-5.46-3.43-7.22-3.25a8.34,8.34,0,0,0-5.74,3.39A1.3,1.3,0,0,0,38.84,33a1.23,1.23,0,0,0,.66.19A1.31,1.31,0,0,0,40.62,32.6Z"/></svg>