<svg id="Layer_1" data-name="Layer 1" xmlns="http://www.w3.org/2000/svg" viewBox="0 0 90 100"><defs><style>.cls-1{fill:#fff;stroke-miterlimit:10;}.cls-1,.cls-2{stroke:#74af27;}.cls-2{fill:none;stroke-linecap:round;stroke-linejoin:round;stroke-width:0.75px;}.cls-3{fill:#706f6f;}.cls-4{fill:#74af27;}</style></defs><title>EV-Connectors_Leads-CableCarryBagsAvailable</title><circle class="cls-1" cx="45" cy="37.74" r="28.35"/><path class="cls-2" d="M40.29,23.11a16.31,16.31,0,0,0,2.48,32.38l4.9.07"/><path class="cls-2" d="M39.39,24.79a16.32,16.32,0,1,0,11.36-1.41"/><path class="cls-2" d="M50,29.33c-.43-3.16-2.4-5.53-4.68-5.45s-4.06,2.61-4.25,5.79"/><path class="cls-2" d="M52.71,29.23c-.53-5.32-3.77-9.39-7.54-9.24s-6.69,4.45-6.81,9.79"/><path class="cls-2" d="M43.49,20.34a5.18,5.18,0,0,0-2.23-.42c-2.44.1-4.53,1.93-5.73,4.67"/><path class="cls-3" d="M38.68,41.16,36.76,39h2.31c.16,0,.25-.13.25-.39s-.09-.4-.25-.4H36.29v2.95H35.4V37.32h3.72a1,1,0,0,1,.81.4,1.54,1.54,0,0,1,0,1.77,1,1,0,0,1-.81.41h-.34l1.12,1.26H38.68"/><path class="cls-3" d="M44.87,40.82a1.28,1.28,0,0,1-.89.34H41.73a1.3,1.3,0,0,1-.89-.34,1.16,1.16,0,0,1-.36-.88V38.53a1.13,1.13,0,0,1,.36-.86,1.24,1.24,0,0,1,.89-.35H44a1.22,1.22,0,0,1,.89.35,1.11,1.11,0,0,1,.37.86v1.41a1.13,1.13,0,0,1-.37.88m-.52-2.29c0-.21-.12-.32-.36-.32H41.73c-.24,0-.36.11-.36.32v1.41q0,.33.36.33H44q.36,0,.36-.33Z"/><polygon class="cls-3" points="45.61 41.16 45.61 37.32 46.51 37.32 46.51 40.27 49.45 40.27 49.45 41.16 45.61 41.16"/><polygon class="cls-3" points="50.72 38.21 50.72 38.79 53.71 38.79 53.71 39.68 50.72 39.68 50.72 40.27 53.91 40.27 53.91 41.16 49.83 41.16 49.83 37.32 53.92 37.32 53.92 38.21 50.72 38.21"/><path class="cls-3" d="M55.55,41.16a1.28,1.28,0,0,1-.89-.34,1.16,1.16,0,0,1-.36-.88V38.53a1.13,1.13,0,0,1,.36-.86,1.22,1.22,0,0,1,.89-.35h3v.89h-3c-.24,0-.36.11-.36.32v1.41q0,.33.36.33h3v.89h-3"/><path class="cls-4" d="M53.43,42h1l-.08.27h-.71l-.07.27h.62l-.07.27h-.62l-.08.28h.72l-.07.26h-1Z"/><path class="cls-4" d="M54.51,42h.32l.1.95.59-.95h.34L55,43.39h-.26Z"/><path class="cls-4" d="M20.62,73.85v0a3.17,3.17,0,0,1,3.19-3.25,3.25,3.25,0,0,1,2.45,1l-.48.52a2.73,2.73,0,0,0-2-.87,2.47,2.47,0,0,0-2.44,2.59h0a2.49,2.49,0,0,0,2.44,2.61,2.75,2.75,0,0,0,2-.91l.47.46a3.31,3.31,0,0,1-2.52,1.1A3.14,3.14,0,0,1,20.62,73.85Z"/><path class="cls-4" d="M26.8,75.64v0c0-1,.81-1.51,2-1.51a4.78,4.78,0,0,1,1.43.2v-.16c0-.84-.51-1.27-1.38-1.27a3.27,3.27,0,0,0-1.42.34l-.2-.56a3.73,3.73,0,0,1,1.69-.39,2,2,0,0,1,1.5.51,1.83,1.83,0,0,1,.48,1.36V77h-.67v-.71a2,2,0,0,1-1.68.8A1.57,1.57,0,0,1,26.8,75.64Zm3.43-.36v-.45a4.8,4.8,0,0,0-1.37-.2c-.87,0-1.36.38-1.36,1v0c0,.58.54.93,1.18.93A1.41,1.41,0,0,0,30.23,75.28Z"/><path class="cls-4" d="M32.79,76.09V77h-.7V70.41h.7v2.86a2.08,2.08,0,0,1,1.78-1,2.27,2.27,0,0,1,2.22,2.42h0a2.27,2.27,0,0,1-2.22,2.42A2.08,2.08,0,0,1,32.79,76.09Zm3.29-1.42v0a1.68,1.68,0,0,0-1.64-1.8,1.74,1.74,0,0,0-1.68,1.8h0a1.73,1.73,0,0,0,1.68,1.8A1.64,1.64,0,0,0,36.08,74.67Z"/><path class="cls-4" d="M37.86,70.41h.7V77h-.7Z"/><path class="cls-4" d="M39.61,74.67v0a2.29,2.29,0,0,1,2.23-2.42A2.22,2.22,0,0,1,44,74.69a1.77,1.77,0,0,1,0,.23H40.31A1.63,1.63,0,0,0,42,76.49a1.92,1.92,0,0,0,1.47-.66l.43.39a2.42,2.42,0,0,1-1.92.87A2.31,2.31,0,0,1,39.61,74.67Zm3.7-.27a1.53,1.53,0,0,0-1.49-1.58,1.6,1.6,0,0,0-1.51,1.58Z"/><path class="cls-4" d="M47.22,73.85v0a3.17,3.17,0,0,1,3.19-3.25,3.27,3.27,0,0,1,2.46,1l-.49.52a2.71,2.71,0,0,0-2-.87A2.48,2.48,0,0,0,48,73.82h0a2.49,2.49,0,0,0,2.44,2.61,2.77,2.77,0,0,0,2-.91l.46.46a3.27,3.27,0,0,1-2.52,1.1A3.14,3.14,0,0,1,47.22,73.85Z"/><path class="cls-4" d="M53.41,75.64v0c0-1,.81-1.51,2-1.51a4.88,4.88,0,0,1,1.43.2v-.16c0-.84-.52-1.27-1.39-1.27a3.19,3.19,0,0,0-1.41.34l-.21-.56a3.76,3.76,0,0,1,1.69-.39,2.07,2.07,0,0,1,1.51.51,1.87,1.87,0,0,1,.47,1.36V77h-.66v-.71a2,2,0,0,1-1.69.8A1.56,1.56,0,0,1,53.41,75.64Zm3.43-.36v-.45a4.85,4.85,0,0,0-1.37-.2c-.88,0-1.36.38-1.36,1v0c0,.58.54.93,1.17.93A1.42,1.42,0,0,0,56.84,75.28Z"/><path class="cls-4" d="M58.7,72.33h.69v1.22a2,2,0,0,1,1.9-1.3V73h0a1.88,1.88,0,0,0-1.85,2.13V77H58.7Z"/><path class="cls-4" d="M62.07,72.33h.7v1.22a2,2,0,0,1,1.9-1.3V73h-.06a1.87,1.87,0,0,0-1.84,2.13V77h-.7Z"/><path class="cls-4" d="M68.93,72.33h.74l-2,4.81c-.4,1-.85,1.31-1.55,1.31a2.13,2.13,0,0,1-1-.23l.23-.55a1.43,1.43,0,0,0,.73.17c.41,0,.68-.21,1-.87L65,72.33h.77l1.69,3.88Z"/><path class="cls-4" d="M15,81.68h2.68a2.33,2.33,0,0,1,1.65.56,1.41,1.41,0,0,1,.4,1v0a1.53,1.53,0,0,1-1,1.46,1.58,1.58,0,0,1,1.35,1.52v0c0,1.08-.91,1.72-2.29,1.72H15Zm4,1.67c0-.62-.49-1-1.39-1H15.7v2.17h1.86c.86,0,1.45-.38,1.45-1.12Zm-1.32,1.77h-2v2.23h2.12c.95,0,1.55-.43,1.55-1.13v0C19.37,85.52,18.79,85.12,17.69,85.12Z"/><path class="cls-4" d="M20.76,86.64v0c0-1,.81-1.51,2-1.51a4.83,4.83,0,0,1,1.43.2v-.16c0-.84-.51-1.27-1.39-1.27a3.19,3.19,0,0,0-1.41.34l-.21-.56a3.8,3.8,0,0,1,1.7-.39,2,2,0,0,1,1.5.51,1.88,1.88,0,0,1,.48,1.36V88h-.67v-.71a2,2,0,0,1-1.68.8A1.56,1.56,0,0,1,20.76,86.64Zm3.43-.36v-.45a4.8,4.8,0,0,0-1.37-.2c-.87,0-1.36.38-1.36,1v0c0,.58.54.93,1.17.93A1.41,1.41,0,0,0,24.19,86.28Z"/><path class="cls-4" d="M26,88.8l.31-.54a3,3,0,0,0,1.79.59,1.54,1.54,0,0,0,1.7-1.66v-.55a2.23,2.23,0,0,1-1.83,1,2.15,2.15,0,0,1-2.19-2.18v0a2.2,2.2,0,0,1,4-1.26v-.84h.69v3.85a2.26,2.26,0,0,1-.59,1.64,2.44,2.44,0,0,1-1.78.62A3.65,3.65,0,0,1,26,88.8Zm3.81-3.36v0a1.63,1.63,0,0,0-1.71-1.58,1.54,1.54,0,0,0-1.61,1.57v0A1.57,1.57,0,0,0,28.1,87,1.64,1.64,0,0,0,29.81,85.44Z"/><path class="cls-4" d="M31.37,87.39l.35-.49a2.75,2.75,0,0,0,1.61.59c.56,0,1-.29,1-.74v0c0-.46-.55-.64-1.17-.81s-1.53-.46-1.53-1.32v0a1.4,1.4,0,0,1,1.58-1.33,3.18,3.18,0,0,1,1.67.51l-.31.53a2.63,2.63,0,0,0-1.38-.45c-.55,0-.9.28-.9.67v0c0,.44.58.61,1.2.8s1.49.5,1.49,1.33v0a1.47,1.47,0,0,1-1.65,1.4A3.22,3.22,0,0,1,31.37,87.39Z"/><path class="cls-4" d="M40.85,81.64h.66L44.39,88h-.77l-.74-1.67H39.45L38.71,88H38Zm1.75,4-1.43-3.2-1.44,3.2Z"/><path class="cls-4" d="M44.21,83.33H45l1.56,3.86,1.58-3.86h.75l-2,4.69h-.61Z"/><path class="cls-4" d="M49.11,86.64v0c0-1,.81-1.51,2-1.51a4.83,4.83,0,0,1,1.43.2v-.16c0-.84-.51-1.27-1.39-1.27a3.19,3.19,0,0,0-1.41.34l-.21-.56a3.79,3.79,0,0,1,1.69-.39,2.06,2.06,0,0,1,1.51.51,1.88,1.88,0,0,1,.48,1.36V88h-.67v-.71a2,2,0,0,1-1.68.8A1.56,1.56,0,0,1,49.11,86.64Zm3.43-.36v-.45a4.8,4.8,0,0,0-1.37-.2c-.87,0-1.36.38-1.36,1v0c0,.58.54.93,1.17.93A1.41,1.41,0,0,0,52.54,86.28Z"/><path class="cls-4" d="M54.42,81.55h.79v.76h-.79Zm0,1.78h.7V88h-.7Z"/><path class="cls-4" d="M56.56,81.41h.69V88h-.69Z"/><path class="cls-4" d="M58.24,86.64v0c0-1,.81-1.51,2-1.51a4.78,4.78,0,0,1,1.43.2v-.16c0-.84-.51-1.27-1.38-1.27a3.27,3.27,0,0,0-1.42.34l-.2-.56a3.73,3.73,0,0,1,1.69-.39,2,2,0,0,1,1.5.51,1.83,1.83,0,0,1,.48,1.36V88h-.67v-.71a2,2,0,0,1-1.68.8A1.57,1.57,0,0,1,58.24,86.64Zm3.43-.36v-.45a4.8,4.8,0,0,0-1.37-.2c-.87,0-1.35.38-1.35,1v0c0,.58.53.93,1.17.93A1.41,1.41,0,0,0,61.67,86.28Z"/><path class="cls-4" d="M64.23,87.09V88h-.69V81.41h.69v2.86a2.08,2.08,0,0,1,1.78-1,2.27,2.27,0,0,1,2.22,2.42h0A2.27,2.27,0,0,1,66,88.08,2.08,2.08,0,0,1,64.23,87.09Zm3.29-1.42v0a1.68,1.68,0,0,0-1.64-1.8,1.74,1.74,0,0,0-1.68,1.8h0a1.73,1.73,0,0,0,1.68,1.8A1.63,1.63,0,0,0,67.52,85.67Z"/><path class="cls-4" d="M69.3,81.41H70V88h-.7Z"/><path class="cls-4" d="M71.05,85.67v0a2.3,2.3,0,0,1,2.23-2.42,2.22,2.22,0,0,1,2.17,2.46,1.77,1.77,0,0,1,0,.23H71.75a1.63,1.63,0,0,0,1.64,1.57,1.92,1.92,0,0,0,1.47-.66l.43.39a2.42,2.42,0,0,1-1.92.87A2.31,2.31,0,0,1,71.05,85.67Zm3.7-.27a1.53,1.53,0,0,0-1.49-1.58,1.6,1.6,0,0,0-1.51,1.58Z"/></svg>