<svg id="Layer_1" data-name="Layer 1" xmlns="http://www.w3.org/2000/svg" xmlns:xlink="http://www.w3.org/1999/xlink" viewBox="0 0 90 100"><defs><style>.cls-1{fill:none;}.cls-2{fill:#fff;stroke:#74af27;stroke-miterlimit:10;}.cls-3{fill:#74af27;}.cls-4{clip-path:url(#clip-path);}</style><clipPath id="clip-path"><circle class="cls-1" cx="45" cy="37.82" r="28.35"/></clipPath></defs><title>EV-Certifications_Awards-ConformsToGB16917.1</title><circle class="cls-2" cx="45" cy="37.74" r="28.35"/><path class="cls-3" d="M19.14,73.85v0a3.17,3.17,0,0,1,3.19-3.25,3.27,3.27,0,0,1,2.46,1l-.49.52a2.71,2.71,0,0,0-2-.87,2.48,2.48,0,0,0-2.44,2.59h0a2.5,2.5,0,0,0,2.44,2.61,2.77,2.77,0,0,0,2-.91l.46.46a3.27,3.27,0,0,1-2.52,1.1A3.14,3.14,0,0,1,19.14,73.85Z"/><path class="cls-3" d="M25.3,74.68v0a2.41,2.41,0,0,1,2.43-2.43,2.39,2.39,0,0,1,2.42,2.41v0a2.41,2.41,0,0,1-2.44,2.43A2.38,2.38,0,0,1,25.3,74.68Zm4.14,0v0a1.76,1.76,0,0,0-1.73-1.82,1.72,1.72,0,0,0-1.7,1.8v0a1.75,1.75,0,0,0,1.72,1.81A1.72,1.72,0,0,0,29.44,74.68Z"/><path class="cls-3" d="M31.13,72.33h.69v.81a1.79,1.79,0,0,1,1.6-.91A1.7,1.7,0,0,1,35.2,74.1V77h-.69V74.27a1.24,1.24,0,0,0-1.29-1.41,1.38,1.38,0,0,0-1.4,1.46V77h-.69Z"/><path class="cls-3" d="M36.67,72.94H36v-.6h.64v-.4a1.64,1.64,0,0,1,.4-1.2,1.36,1.36,0,0,1,1-.36,2,2,0,0,1,.77.12v.6a2.44,2.44,0,0,0-.68-.12c-.54,0-.81.32-.81,1v.38h1.48v.59H37.36v4h-.69Z"/><path class="cls-3" d="M39.06,74.68v0a2.41,2.41,0,0,1,2.43-2.43,2.39,2.39,0,0,1,2.42,2.41v0a2.41,2.41,0,0,1-2.44,2.43A2.38,2.38,0,0,1,39.06,74.68Zm4.14,0v0a1.76,1.76,0,0,0-1.73-1.82,1.72,1.72,0,0,0-1.7,1.8v0a1.75,1.75,0,0,0,1.72,1.81A1.72,1.72,0,0,0,43.2,74.68Z"/><path class="cls-3" d="M44.89,72.33h.7v1.22a2,2,0,0,1,1.9-1.3V73h-.06a1.87,1.87,0,0,0-1.84,2.13V77h-.7Z"/><path class="cls-3" d="M48.27,72.33H49v.79a1.71,1.71,0,0,1,1.5-.89,1.59,1.59,0,0,1,1.5.93,1.86,1.86,0,0,1,1.64-.93,1.68,1.68,0,0,1,1.73,1.88V77h-.7V74.27c0-.9-.45-1.41-1.2-1.41a1.29,1.29,0,0,0-1.28,1.44V77h-.7V74.25c0-.87-.45-1.39-1.19-1.39A1.35,1.35,0,0,0,49,74.33V77h-.69Z"/><path class="cls-3" d="M56.17,76.39l.35-.49a2.75,2.75,0,0,0,1.61.59c.56,0,1-.29,1-.74v0c0-.46-.55-.64-1.17-.81s-1.54-.46-1.54-1.32v0A1.41,1.41,0,0,1,58,72.25a3.18,3.18,0,0,1,1.67.51l-.31.53A2.63,2.63,0,0,0,58,72.84c-.55,0-.9.28-.9.67v0c0,.44.58.61,1.2.8s1.49.5,1.49,1.33v0a1.47,1.47,0,0,1-1.65,1.4A3.22,3.22,0,0,1,56.17,76.39Z"/><path class="cls-3" d="M63.44,75.75V72.94h-.65v-.61h.65v-1.4h.69v1.4h1.48v.61H64.13v2.72a.7.7,0,0,0,.79.78,1.42,1.42,0,0,0,.67-.17v.6a1.79,1.79,0,0,1-.83.2A1.19,1.19,0,0,1,63.44,75.75Z"/><path class="cls-3" d="M66.14,74.68v0a2.41,2.41,0,0,1,2.43-2.43A2.39,2.39,0,0,1,71,74.64v0a2.41,2.41,0,0,1-2.44,2.43A2.38,2.38,0,0,1,66.14,74.68Zm4.14,0v0a1.76,1.76,0,0,0-1.73-1.82,1.72,1.72,0,0,0-1.7,1.8v0a1.75,1.75,0,0,0,1.72,1.81A1.72,1.72,0,0,0,70.28,74.68Z"/><path class="cls-3" d="M26.2,84.85v0a3.15,3.15,0,0,1,3.15-3.25,3.35,3.35,0,0,1,2.36.83l-.46.54a2.71,2.71,0,0,0-1.92-.72,2.47,2.47,0,0,0-2.4,2.59h0a2.44,2.44,0,0,0,2.5,2.63,2.94,2.94,0,0,0,1.82-.64V85.26H29.33v-.64h2.6v2.51a3.84,3.84,0,0,1-2.53,1A3.09,3.09,0,0,1,26.2,84.85Z"/><path class="cls-3" d="M33.26,81.68h2.68a2.33,2.33,0,0,1,1.65.56,1.42,1.42,0,0,1,.41,1v0a1.53,1.53,0,0,1-1,1.46,1.58,1.58,0,0,1,1.35,1.52v0c0,1.08-.91,1.72-2.29,1.72h-2.8Zm4,1.67c0-.62-.5-1-1.4-1H34v2.17h1.87c.85,0,1.45-.38,1.45-1.12ZM36,85.12H34v2.23h2.12c1,0,1.55-.43,1.55-1.13v0C37.63,85.52,37.05,85.12,36,85.12Z"/><path class="cls-3" d="M40.21,82.38,39,82.75l-.17-.58,1.54-.53h.52V88h-.7Z"/><path class="cls-3" d="M42.89,87.46A3.13,3.13,0,0,1,42.1,85v0c0-1.92,1-3.42,2.62-3.42a2.79,2.79,0,0,1,1.86.72l-.41.55a2.2,2.2,0,0,0-1.49-.63c-1.21,0-1.85,1.28-1.85,2.7V85a2,2,0,0,1,1.8-1A2,2,0,0,1,46.81,86v0a2.13,2.13,0,0,1-2.26,2.09A2.31,2.31,0,0,1,42.89,87.46ZM46.08,86h0a1.4,1.4,0,0,0-1.54-1.36A1.48,1.48,0,0,0,43,86v0a1.47,1.47,0,0,0,1.6,1.41A1.43,1.43,0,0,0,46.08,86Z"/><path class="cls-3" d="M51.56,84.82v-.13a2,2,0,0,1-1.78,1,2,2,0,0,1-2.2-2v0a2.14,2.14,0,0,1,2.27-2.14,2.22,2.22,0,0,1,1.65.64,3.19,3.19,0,0,1,.79,2.44v0c0,2-1.06,3.41-2.62,3.41a2.93,2.93,0,0,1-2-.77l.42-.55a2.28,2.28,0,0,0,1.55.68C50.9,87.45,51.56,86.18,51.56,84.82Zm-.14-1.16v0a1.48,1.48,0,0,0-1.6-1.43,1.44,1.44,0,0,0-1.51,1.47v0a1.41,1.41,0,0,0,1.55,1.38A1.47,1.47,0,0,0,51.42,83.66Z"/><path class="cls-3" d="M54.18,82.38,53,82.75l-.17-.58,1.54-.53h.52V88h-.7Z"/><path class="cls-3" d="M59.59,82.33H56.13v-.65H60.4v.53L57.54,88h-.79Z"/><path class="cls-3" d="M60.4,87h.83V88H60.4Z"/><path class="cls-3" d="M62.81,82.38l-1.19.37-.17-.58L63,81.64h.52V88h-.7Z"/><g class="cls-4"><path class="cls-3" d="M38.45,39.57a7.6,7.6,0,0,1-2.84-.51,6.39,6.39,0,0,1-2.2-1.43A6.3,6.3,0,0,1,32,35.47a7.22,7.22,0,0,1-.51-2.74v0A6.8,6.8,0,0,1,32,30a6.92,6.92,0,0,1,1.45-2.19,6.76,6.76,0,0,1,2.21-1.48,7.08,7.08,0,0,1,2.79-.54,10.13,10.13,0,0,1,1.63.12,7.61,7.61,0,0,1,1.35.35,6.12,6.12,0,0,1,1.18.57,9.71,9.71,0,0,1,1.07.78l-1.85,2.22a7.92,7.92,0,0,0-.76-.57,4.55,4.55,0,0,0-.79-.41,3.93,3.93,0,0,0-.88-.27,5.6,5.6,0,0,0-1-.09,3.46,3.46,0,0,0-1.5.33,4.08,4.08,0,0,0-1.21.89,4.26,4.26,0,0,0-.82,1.32,4.3,4.3,0,0,0-.29,1.61v0a4.6,4.6,0,0,0,.29,1.68,4.11,4.11,0,0,0,.84,1.34,3.79,3.79,0,0,0,1.27.89,4.07,4.07,0,0,0,1.62.31,4.66,4.66,0,0,0,2.76-.8V34.21H38.35V31.69h5.78v5.77A9.77,9.77,0,0,1,41.69,39,8,8,0,0,1,38.45,39.57Z"/><path class="cls-3" d="M46.94,26h6.17a4.73,4.73,0,0,1,3.47,1.18,3.1,3.1,0,0,1,.91,2.26v0a3.07,3.07,0,0,1-.52,1.8,3.26,3.26,0,0,1-.55.62,4.36,4.36,0,0,1-.67.45,4.48,4.48,0,0,1,1.82,1.19,3,3,0,0,1,.66,2.08v0a3.48,3.48,0,0,1-.35,1.59,3.07,3.07,0,0,1-1,1.14,4.7,4.7,0,0,1-1.57.69,8.66,8.66,0,0,1-2,.23H46.94Zm5.55,5.38A3.06,3.06,0,0,0,54,31.09,1.15,1.15,0,0,0,54.6,30v0a1.18,1.18,0,0,0-.49-1,2.49,2.49,0,0,0-1.43-.35H49.79v2.81Zm.78,5.36a2.85,2.85,0,0,0,1.52-.35,1.2,1.2,0,0,0,.55-1.09v0a1.27,1.27,0,0,0-.51-1.06,2.78,2.78,0,0,0-1.66-.39H49.79v2.93Z"/><path class="cls-3" d="M29.65,43.54l-1.26.35-.26-1,1.88-.6h.86v7.06H29.65Z"/><path class="cls-3" d="M35.2,49.46a3.19,3.19,0,0,1-1.13-.18,2.54,2.54,0,0,1-.82-.54,3.09,3.09,0,0,1-.36-.45,2.51,2.51,0,0,1-.26-.57,3.46,3.46,0,0,1-.17-.72,6.7,6.7,0,0,1-.06-1h0a5.5,5.5,0,0,1,.19-1.5,3.55,3.55,0,0,1,.56-1.21,2.82,2.82,0,0,1,.94-.81,2.75,2.75,0,0,1,1.31-.3,3.07,3.07,0,0,1,1.18.21,3.68,3.68,0,0,1,1,.57l-.66,1a3.24,3.24,0,0,0-.72-.45,1.84,1.84,0,0,0-.8-.16,1.47,1.47,0,0,0-.7.16,1.52,1.52,0,0,0-.51.47,2.45,2.45,0,0,0-.33.71,3.46,3.46,0,0,0-.14.89l.3-.27a1.82,1.82,0,0,1,.36-.22,2.16,2.16,0,0,1,.45-.15,2,2,0,0,1,.56-.06,2.91,2.91,0,0,1,.95.14,2.27,2.27,0,0,1,.78.43,2,2,0,0,1,.53.69,2.35,2.35,0,0,1,.19.94v0a2.31,2.31,0,0,1-.2.95,2.36,2.36,0,0,1-.55.76,2.64,2.64,0,0,1-.83.49A2.84,2.84,0,0,1,35.2,49.46Zm0-1.05a1.78,1.78,0,0,0,.59-.1,1.14,1.14,0,0,0,.72-.68,1.15,1.15,0,0,0,.1-.5h0a1.12,1.12,0,0,0-.39-.88,1.53,1.53,0,0,0-1-.35,1.55,1.55,0,0,0-.59.11,1.43,1.43,0,0,0-.45.26,1.08,1.08,0,0,0-.28.39,1.12,1.12,0,0,0-.1.48h0a1.15,1.15,0,0,0,.1.5,1.18,1.18,0,0,0,.29.4,1.24,1.24,0,0,0,.46.27A1.89,1.89,0,0,0,35.17,48.41Z"/><path class="cls-3" d="M41.38,49.46a3,3,0,0,1-1.26-.23,3.8,3.8,0,0,1-1-.6l.67-.93a3.24,3.24,0,0,0,.77.5,2.23,2.23,0,0,0,.83.16,1.53,1.53,0,0,0,.69-.16,1.43,1.43,0,0,0,.52-.46A2.13,2.13,0,0,0,43,47a4,4,0,0,0,.14-.89,2.1,2.1,0,0,1-.67.54,2.07,2.07,0,0,1-1,.2,3.26,3.26,0,0,1-1-.15,2.29,2.29,0,0,1-.78-.44,2.19,2.19,0,0,1-.5-.7,2.29,2.29,0,0,1-.18-.92v0a2.34,2.34,0,0,1,.19-1,2.17,2.17,0,0,1,.53-.77,2.41,2.41,0,0,1,.83-.51,3.19,3.19,0,0,1,2.17,0,2.51,2.51,0,0,1,.83.55,2.84,2.84,0,0,1,.62,1,5,5,0,0,1,.23,1.65v0a5.41,5.41,0,0,1-.21,1.54,3.5,3.5,0,0,1-.59,1.21,2.73,2.73,0,0,1-.94.78A2.91,2.91,0,0,1,41.38,49.46Zm.25-3.6a1.89,1.89,0,0,0,.6-.1,1.28,1.28,0,0,0,.45-.28,1.08,1.08,0,0,0,.28-.4,1.12,1.12,0,0,0,.1-.48v0a1.18,1.18,0,0,0-.4-.92,1.48,1.48,0,0,0-1.07-.37,1.72,1.72,0,0,0-.58.09,1.13,1.13,0,0,0-.44.29,1.3,1.3,0,0,0-.28.41,1.44,1.44,0,0,0-.09.51v0a1.2,1.2,0,0,0,.38.9A1.53,1.53,0,0,0,41.63,45.86Z"/><path class="cls-3" d="M46.73,43.54l-1.26.35-.26-1,1.88-.6H48v7.06H46.73Z"/><path class="cls-3" d="M53.11,43.43H49.59V42.35h4.92v.93l-3.16,6.07H50Z"/><path class="cls-3" d="M55.68,48H57v1.38H55.68Z"/><path class="cls-3" d="M59.47,43.54l-1.26.35-.26-1,1.88-.6h.86v7.06H59.47Z"/></g></svg>