<svg id="Layer_1" data-name="Layer 1" xmlns="http://www.w3.org/2000/svg" viewBox="0 0 90 100"><defs><style>.cls-1{fill:#fff;stroke:#74af27;stroke-miterlimit:10;}.cls-2,.cls-3{fill:#74af27;}.cls-3{fill-rule:evenodd;}</style></defs><title>EV-Certifications_Awards-CECertified</title><circle class="cls-1" cx="45" cy="37.74" r="28.35"/><path class="cls-2" d="M39.41,73.85v0a3.17,3.17,0,0,1,3.19-3.25,3.27,3.27,0,0,1,2.46,1l-.49.52a2.73,2.73,0,0,0-2-.87,2.47,2.47,0,0,0-2.44,2.59h0a2.49,2.49,0,0,0,2.44,2.61,2.75,2.75,0,0,0,2-.91l.47.46a3.31,3.31,0,0,1-2.52,1.1A3.14,3.14,0,0,1,39.41,73.85Z"/><path class="cls-2" d="M46.06,70.68h4.56v.65H46.77v2.15h3.44v.65H46.77v2.21h3.89V77h-4.6Z"/><path class="cls-2" d="M27.3,84.85v0a3.17,3.17,0,0,1,3.19-3.25,3.27,3.27,0,0,1,2.46,1l-.49.52a2.71,2.71,0,0,0-2-.87A2.47,2.47,0,0,0,28,84.82h0a2.49,2.49,0,0,0,2.44,2.61,2.75,2.75,0,0,0,2-.91L33,87a3.27,3.27,0,0,1-2.52,1.1A3.14,3.14,0,0,1,27.3,84.85Z"/><path class="cls-2" d="M33.46,85.67v0a2.29,2.29,0,0,1,2.23-2.42,2.22,2.22,0,0,1,2.17,2.46,1.77,1.77,0,0,1,0,.23H34.16a1.63,1.63,0,0,0,1.64,1.57,1.92,1.92,0,0,0,1.47-.66l.43.39a2.42,2.42,0,0,1-1.92.87A2.31,2.31,0,0,1,33.46,85.67Zm3.7-.27a1.53,1.53,0,0,0-1.49-1.58,1.6,1.6,0,0,0-1.51,1.58Z"/><path class="cls-2" d="M38.8,83.33h.7v1.22a2,2,0,0,1,1.9-1.3V84h-.06a1.88,1.88,0,0,0-1.84,2.13V88h-.7Z"/><path class="cls-2" d="M42.42,86.75V83.94h-.65v-.61h.65v-1.4h.7v1.4h1.47v.61H43.12v2.72a.69.69,0,0,0,.78.78,1.42,1.42,0,0,0,.67-.17v.6a1.79,1.79,0,0,1-.83.2A1.19,1.19,0,0,1,42.42,86.75Z"/><path class="cls-2" d="M45.56,81.55h.8v.76h-.8Zm0,1.78h.69V88h-.69Z"/><path class="cls-2" d="M47.9,83.94h-.64v-.6h.64v-.4a1.64,1.64,0,0,1,.41-1.2,1.33,1.33,0,0,1,1-.36,1.9,1.9,0,0,1,.76.12v.6A2.37,2.37,0,0,0,49.4,82c-.54,0-.81.32-.81,1v.38h1.47v.59H48.6v4h-.7ZM51,81.55h.8v.76H51ZM51,83.33h.68V88H51Z"/><path class="cls-2" d="M52.76,85.67v0A2.3,2.3,0,0,1,55,83.23a2.22,2.22,0,0,1,2.17,2.46,1.77,1.77,0,0,1,0,.23H53.47a1.62,1.62,0,0,0,1.63,1.57,1.92,1.92,0,0,0,1.47-.66l.43.39a2.38,2.38,0,0,1-1.91.87A2.32,2.32,0,0,1,52.76,85.67Zm3.7-.27A1.53,1.53,0,0,0,55,83.82a1.6,1.6,0,0,0-1.51,1.58Z"/><path class="cls-2" d="M57.84,85.67v0a2.28,2.28,0,0,1,2.22-2.42,2.11,2.11,0,0,1,1.79,1V81.41h.69V88h-.69v-.94a2.09,2.09,0,0,1-1.79,1A2.27,2.27,0,0,1,57.84,85.67Zm4,0v0a1.73,1.73,0,0,0-1.68-1.79,1.65,1.65,0,0,0-1.64,1.79v0a1.68,1.68,0,0,0,1.64,1.8A1.74,1.74,0,0,0,61.87,85.66Z"/><path class="cls-3" d="M41.14,46.09V49.6a11.46,11.46,0,0,1-1.17.06,11.87,11.87,0,1,1,0-23.73,11.46,11.46,0,0,1,1.17.06v3.52A7.68,7.68,0,0,0,40,29.42a8.38,8.38,0,1,0,0,16.75,9.2,9.2,0,0,0,1.17-.08Z"/><path class="cls-3" d="M49.18,36H56v3.62H49.18a8.4,8.4,0,0,0,8.18,6.56,9.08,9.08,0,0,0,1.17-.08V49.6a11.46,11.46,0,0,1-1.17.06,11.87,11.87,0,1,1,0-23.73,11.46,11.46,0,0,1,1.17.06v3.52a7.68,7.68,0,0,0-1.17-.09A8.39,8.39,0,0,0,49.18,36Z"/></svg>