<svg id="Layer_1" data-name="Layer 1" xmlns="http://www.w3.org/2000/svg" xmlns:xlink="http://www.w3.org/1999/xlink" viewBox="0 0 90 100"><defs><style>.cls-1,.cls-5{fill:none;}.cls-2{fill:#fff;stroke-miterlimit:10;}.cls-2,.cls-5{stroke:#74af27;}.cls-3{fill:#74af27;}.cls-4{clip-path:url(#clip-path);}.cls-5{stroke-linecap:round;stroke-linejoin:round;}</style><clipPath id="clip-path"><circle class="cls-1" cx="45" cy="37.74" r="28.35"/></clipPath></defs><title>EV-Connectors_Leads-7.2kW-MaxPower</title><circle class="cls-2" cx="45" cy="37.74" r="28.35"/><polygon class="cls-3" points="47.25 39.98 42.37 46.6 45.13 46.6 43.24 51.63 48.19 44.97 45.41 44.97 47.25 39.98"/><g class="cls-4"><rect class="cls-5" x="30.48" y="29.31" width="29.12" height="6.82" rx="3.41"/><path class="cls-5" d="M46.74,19.76a1.9,1.9,0,1,0-3.8,0v9.47h3.8Z"/><rect class="cls-5" x="36.05" y="21.68" width="3.8" height="7.55"/><rect class="cls-5" x="49.82" y="21.68" width="3.8" height="7.55"/><path class="cls-5" d="M33.5,37.74H56.71v10s1.18,5.37-11.58,6.16c0,0-11.63,0-11.63-6.43Z"/><path class="cls-3" d="M41.34,55a33.11,33.11,0,0,0,7.87,0v4.33H41.34Z"/><rect class="cls-3" x="43.87" y="59.22" width="2.82" height="9.71"/></g><path class="cls-3" d="M36.05,71.33H32.58v-.65h4.28v.54L34,77H33.2Z"/><path class="cls-3" d="M36.86,76h.82V77h-.82Z"/><path class="cls-3" d="M38.53,76.44l2.29-2c1-.86,1.31-1.35,1.31-2a1.21,1.21,0,0,0-1.27-1.21,2,2,0,0,0-1.69,1.08l-.52-.37a2.49,2.49,0,0,1,2.27-1.35,1.82,1.82,0,0,1,1.95,1.79h0c0,.92-.49,1.49-1.59,2.45l-1.69,1.5h3.34V77h-4.4Z"/><path class="cls-3" d="M44,70.41h.7V75l2.51-2.62h.86l-2,2,2,2.66H47.3l-1.67-2.17-.94,1V77H44Z"/><path class="cls-3" d="M48.47,70.68h.78l1.8,5.25,1.73-5.26h.58l1.73,5.26,1.8-5.25h.75L55.39,77h-.6l-1.73-5.11L51.32,77h-.6Z"/><path class="cls-3" d="M10.53,81.68h.72l2.29,3.44,2.3-3.44h.72V88h-.71V82.88l-2.3,3.38h0l-2.3-3.37V88h-.69Z"/><path class="cls-3" d="M17.6,86.64v0c0-1,.81-1.51,2-1.51a4.83,4.83,0,0,1,1.43.2v-.16c0-.84-.51-1.27-1.39-1.27a3.22,3.22,0,0,0-1.41.34L18,83.66a3.8,3.8,0,0,1,1.7-.39,2,2,0,0,1,1.5.51,1.83,1.83,0,0,1,.48,1.36V88H21v-.71a2,2,0,0,1-1.68.8A1.56,1.56,0,0,1,17.6,86.64ZM21,86.28v-.45a4.8,4.8,0,0,0-1.37-.2c-.87,0-1.36.38-1.36,1v0c0,.58.54.93,1.17.93A1.41,1.41,0,0,0,21,86.28Z"/><path class="cls-3" d="M24.7,85.15l1.39-1.82h.77L25.1,85.61,26.93,88h-.8l-1.44-1.92L23.24,88h-.77l1.82-2.37-1.75-2.29h.79Z"/><path class="cls-3" d="M27.81,81.55h.79v.76h-.79Zm0,1.78h.69V88h-.69Z"/><path class="cls-3" d="M29.88,83.33h.7v.78a1.71,1.71,0,0,1,1.5-.88,1.6,1.6,0,0,1,1.5.93,1.85,1.85,0,0,1,1.63-.93,1.67,1.67,0,0,1,1.73,1.87V88h-.69V85.27c0-.9-.45-1.41-1.21-1.41a1.3,1.3,0,0,0-1.28,1.44V88h-.69V85.25c0-.87-.46-1.39-1.2-1.39a1.35,1.35,0,0,0-1.29,1.47V88h-.7Z"/><path class="cls-3" d="M38.1,86.22V83.33h.69v2.72a1.24,1.24,0,0,0,1.29,1.4A1.37,1.37,0,0,0,41.48,86V83.33h.68V88h-.68v-.81a1.78,1.78,0,0,1-1.6.9A1.7,1.7,0,0,1,38.1,86.22Z"/><path class="cls-3" d="M43.45,83.33h.69v.78a1.72,1.72,0,0,1,1.5-.88,1.59,1.59,0,0,1,1.5.93,1.86,1.86,0,0,1,1.64-.93,1.67,1.67,0,0,1,1.73,1.87V88h-.7V85.27c0-.9-.45-1.41-1.2-1.41a1.29,1.29,0,0,0-1.28,1.44V88h-.7V85.25c0-.87-.45-1.39-1.19-1.39a1.35,1.35,0,0,0-1.3,1.47V88h-.69Z"/><path class="cls-3" d="M54.28,81.68h2.36c1.42,0,2.36.76,2.36,2v0c0,1.36-1.13,2.06-2.47,2.06H55V88h-.71Zm2.27,3.43c1.05,0,1.73-.55,1.73-1.38v0c0-.9-.67-1.37-1.69-1.37H55v2.77Z"/><path class="cls-3" d="M59.58,85.68v0a2.43,2.43,0,0,1,4.85,0h0A2.42,2.42,0,0,1,62,88.09,2.37,2.37,0,0,1,59.58,85.68Zm4.14,0v0A1.76,1.76,0,0,0,62,83.84a1.72,1.72,0,0,0-1.7,1.81h0A1.75,1.75,0,0,0,62,87.47,1.72,1.72,0,0,0,63.72,85.68Z"/><path class="cls-3" d="M64.79,83.33h.73l1.23,3.74L68,83.31h.58l1.26,3.76,1.22-3.74h.72L70.14,88h-.6l-1.25-3.67L67,88h-.61Z"/><path class="cls-3" d="M72.15,85.67v0a2.29,2.29,0,0,1,2.23-2.42,2.22,2.22,0,0,1,2.17,2.46,1.77,1.77,0,0,1,0,.23H72.85a1.63,1.63,0,0,0,1.64,1.57A1.92,1.92,0,0,0,76,86.83l.43.39a2.42,2.42,0,0,1-1.92.87A2.31,2.31,0,0,1,72.15,85.67Zm3.7-.27a1.53,1.53,0,0,0-1.49-1.58,1.6,1.6,0,0,0-1.51,1.58Z"/><path class="cls-3" d="M77.5,83.33h.69v1.22a2,2,0,0,1,1.9-1.3V84H80a1.88,1.88,0,0,0-1.84,2.13V88H77.5Z"/></svg>