<svg id="Layer_1" data-name="Layer 1" xmlns="http://www.w3.org/2000/svg" viewBox="0 0 90 100"><defs><style>.cls-1{fill:#fff;}.cls-1,.cls-2,.cls-3,.cls-4{stroke:#74af27;stroke-miterlimit:10;}.cls-2,.cls-3,.cls-4{fill:none;}.cls-3{stroke-width:0.5px;}.cls-4{stroke-width:0.55px;}.cls-5{fill:#74af27;}</style></defs><title>EV-Connectors_Leads-CCSConnector</title><circle class="cls-1" cx="45" cy="37.84" r="28.24"/><path class="cls-2" d="M54.77,19a14.67,14.67,0,0,1,5,11.37A14.93,14.93,0,1,1,35.14,19Z"/><circle class="cls-2" cx="37.44" cy="30.23" r="2.86"/><circle class="cls-2" cx="45" cy="30.23" r="2.86"/><circle class="cls-2" cx="52.56" cy="30.23" r="2.86"/><circle class="cls-2" cx="41.46" cy="36.89" r="2.86"/><circle class="cls-2" cx="49.02" cy="36.89" r="2.86"/><circle class="cls-3" cx="41.25" cy="25.09" r="2.02"/><circle class="cls-3" cx="49.02" cy="25.07" r="2.02"/><rect class="cls-2" x="29.95" y="45.39" width="29.86" height="10.9" rx="5.45"/><circle class="cls-4" cx="38.87" cy="50.85" r="2.22"/><circle class="cls-4" cx="51.4" cy="50.84" r="2.22"/><path class="cls-5" d="M22.89,73.9v0a3.18,3.18,0,0,1,3.19-3.26,3.31,3.31,0,0,1,2.46,1l-.49.53a2.71,2.71,0,0,0-2-.87,2.47,2.47,0,0,0-2.44,2.58v0a2.48,2.48,0,0,0,2.44,2.6,2.74,2.74,0,0,0,2-.9l.47.45a3.26,3.26,0,0,1-2.52,1.11A3.14,3.14,0,0,1,22.89,73.9Z"/><path class="cls-5" d="M29.08,73.9v0a3.18,3.18,0,0,1,3.19-3.26,3.31,3.31,0,0,1,2.46,1l-.49.53a2.71,2.71,0,0,0-2-.87,2.48,2.48,0,0,0-2.44,2.58v0a2.49,2.49,0,0,0,2.44,2.6,2.76,2.76,0,0,0,2-.9l.47.45a3.28,3.28,0,0,1-2.53,1.11A3.15,3.15,0,0,1,29.08,73.9Z"/><path class="cls-5" d="M35.32,76.12l.44-.53a3,3,0,0,0,2.16.89c.85,0,1.41-.45,1.41-1.07h0c0-.59-.32-.92-1.64-1.2s-2.12-.79-2.12-1.82v0a1.86,1.86,0,0,1,2.07-1.72,3.27,3.27,0,0,1,2.22.78l-.42.55a2.74,2.74,0,0,0-1.81-.69c-.82,0-1.35.45-1.35,1v0c0,.59.33.92,1.71,1.22s2.06.82,2.06,1.78v0c0,1.08-.9,1.78-2.15,1.78A3.72,3.72,0,0,1,35.32,76.12Z"/><path class="cls-5" d="M43.65,70.73h2.71a2.53,2.53,0,0,1,1.8.63,1.77,1.77,0,0,1,.48,1.24v0a1.84,1.84,0,0,1-1.71,1.84L48.87,77H48l-1.82-2.44h-1.8V77h-.72ZM46.3,74c1,0,1.62-.49,1.62-1.3v0c0-.77-.59-1.24-1.61-1.24H44.37V74Z"/><path class="cls-5" d="M49.42,75.68h0c0-1,.81-1.51,2-1.51a4.78,4.78,0,0,1,1.43.2V74.2c0-.84-.51-1.27-1.38-1.27a3.27,3.27,0,0,0-1.42.34l-.2-.57a3.86,3.86,0,0,1,1.69-.38,2,2,0,0,1,1.5.51,1.8,1.8,0,0,1,.48,1.36V77h-.67v-.7a2,2,0,0,1-1.68.8A1.57,1.57,0,0,1,49.42,75.68Zm3.43-.36v-.45a4.84,4.84,0,0,0-1.37-.19c-.87,0-1.35.37-1.35,1v0c0,.58.54.92,1.17.92A1.4,1.4,0,0,0,52.85,75.32Z"/><path class="cls-5" d="M54.72,72.38h.69v.94a2.1,2.1,0,0,1,1.78-1,2.26,2.26,0,0,1,2.22,2.41v0a2.27,2.27,0,0,1-2.22,2.42,2.11,2.11,0,0,1-1.78-1v2.33h-.69Zm4,2.34v0a1.67,1.67,0,0,0-1.64-1.8,1.74,1.74,0,0,0-1.68,1.79v0a1.73,1.73,0,0,0,1.68,1.8A1.63,1.63,0,0,0,58.7,74.72Z"/><path class="cls-5" d="M60.44,70.6h.79v.76h-.79Zm0,1.78h.7V77h-.7Z"/><path class="cls-5" d="M62.25,74.72v0a2.28,2.28,0,0,1,2.22-2.42,2.09,2.09,0,0,1,1.78,1V70.46H67V77h-.7V76.1a2.06,2.06,0,0,1-1.78,1A2.26,2.26,0,0,1,62.25,74.72Zm4,0v0A1.73,1.73,0,0,0,64.6,72.9,1.65,1.65,0,0,0,63,74.69v0a1.68,1.68,0,0,0,1.64,1.8A1.74,1.74,0,0,0,66.28,74.71Z"/><path class="cls-5" d="M15.75,81.73h2.18a3.14,3.14,0,0,1,3.35,3.13v0A3.15,3.15,0,0,1,17.93,88H15.75Zm.71.66v5h1.47a2.44,2.44,0,0,0,2.61-2.48v0a2.45,2.45,0,0,0-2.61-2.49Z"/><path class="cls-5" d="M22.23,84.9v0a3.18,3.18,0,0,1,3.19-3.26,3.31,3.31,0,0,1,2.46,1l-.49.53a2.71,2.71,0,0,0-2-.87A2.48,2.48,0,0,0,23,84.86v0a2.49,2.49,0,0,0,2.44,2.6,2.76,2.76,0,0,0,2-.9l.47.45a3.28,3.28,0,0,1-2.52,1.11A3.15,3.15,0,0,1,22.23,84.9Z"/><path class="cls-5" d="M31,84.9v0a3.17,3.17,0,0,1,3.18-3.26,3.29,3.29,0,0,1,2.46,1l-.49.53a2.71,2.71,0,0,0-2-.87,2.48,2.48,0,0,0-2.44,2.58v0a2.49,2.49,0,0,0,2.44,2.6,2.75,2.75,0,0,0,2-.9l.47.45a3.28,3.28,0,0,1-2.52,1.11A3.14,3.14,0,0,1,31,84.9Z"/><path class="cls-5" d="M37.19,85.73v0a2.41,2.41,0,0,1,2.43-2.43A2.39,2.39,0,0,1,42,85.69v0a2.42,2.42,0,0,1-2.44,2.43A2.39,2.39,0,0,1,37.19,85.73Zm4.14,0v0a1.76,1.76,0,0,0-1.73-1.82,1.72,1.72,0,0,0-1.7,1.8v0a1.75,1.75,0,0,0,1.72,1.81A1.72,1.72,0,0,0,41.33,85.73Z"/><path class="cls-5" d="M43,83.38h.7v.81a1.76,1.76,0,0,1,1.59-.91,1.7,1.7,0,0,1,1.78,1.86V88H46.4V85.31a1.24,1.24,0,0,0-1.29-1.4,1.37,1.37,0,0,0-1.39,1.46V88H43Z"/><path class="cls-5" d="M48.3,83.38H49v.81a1.77,1.77,0,0,1,1.59-.91,1.7,1.7,0,0,1,1.79,1.86V88h-.7V85.31a1.23,1.23,0,0,0-1.28-1.4A1.38,1.38,0,0,0,49,85.37V88H48.3Z"/><path class="cls-5" d="M53.28,85.72v0a2.3,2.3,0,0,1,2.24-2.42,2.22,2.22,0,0,1,2.17,2.46,1.55,1.55,0,0,1,0,.22H54a1.63,1.63,0,0,0,1.64,1.58,1.92,1.92,0,0,0,1.46-.66l.43.39a2.38,2.38,0,0,1-1.91.87A2.32,2.32,0,0,1,53.28,85.72Zm3.7-.27a1.52,1.52,0,0,0-1.48-1.58A1.6,1.6,0,0,0,54,85.45Z"/><path class="cls-5" d="M58.34,85.73v0a2.42,2.42,0,0,1,4.25-1.6l-.46.48a1.9,1.9,0,0,0-1.41-.7,1.72,1.72,0,0,0-1.67,1.8v0a1.74,1.74,0,0,0,1.71,1.81,2,2,0,0,0,1.43-.69l.44.41a2.41,2.41,0,0,1-4.29-1.51Z"/><path class="cls-5" d="M63.74,86.8V84h-.65v-.61h.65V82h.7v1.4h1.47V84H64.44v2.72a.68.68,0,0,0,.78.77,1.4,1.4,0,0,0,.67-.16v.6a1.78,1.78,0,0,1-.83.19A1.18,1.18,0,0,1,63.74,86.8Z"/><path class="cls-5" d="M66.44,85.73v0a2.41,2.41,0,0,1,2.43-2.43,2.39,2.39,0,0,1,2.42,2.41v0a2.42,2.42,0,0,1-2.44,2.43A2.39,2.39,0,0,1,66.44,85.73Zm4.14,0v0a1.76,1.76,0,0,0-1.73-1.82,1.72,1.72,0,0,0-1.7,1.8v0a1.75,1.75,0,0,0,1.72,1.81A1.72,1.72,0,0,0,70.58,85.73Z"/><path class="cls-5" d="M72.27,83.38H73v1.21a2,2,0,0,1,1.9-1.29v.75h-.06A1.87,1.87,0,0,0,73,86.18V88h-.7Z"/></svg>