<svg id="Layer_1" data-name="Layer 1" xmlns="http://www.w3.org/2000/svg" viewBox="0 0 90 100"><defs><style>.cls-1{fill:#fff;stroke-miterlimit:10;}.cls-1,.cls-3,.cls-5,.cls-6,.cls-7{stroke:#74af27;}.cls-2{fill:#74af27;}.cls-3,.cls-4,.cls-5,.cls-6,.cls-7{fill:none;stroke-linecap:round;stroke-linejoin:round;}.cls-3,.cls-4{stroke-width:0.58px;}.cls-4{stroke:#fff;}.cls-5{stroke-width:0.75px;}.cls-6{stroke-width:0.86px;}.cls-7{stroke-width:0.6px;}</style></defs><title>EV-Connectors_Leads-Portable-Mode2-ChargingCables-CEE</title><circle class="cls-1" cx="45" cy="37.74" r="28.35"/><path class="cls-2" d="M11,70.68h2.36c1.42,0,2.36.76,2.36,2v0c0,1.36-1.14,2.06-2.48,2.06H11.66V77H11Zm2.27,3.43c1,0,1.73-.55,1.73-1.38v0c0-.9-.68-1.37-1.7-1.37H11.66v2.77Z"/><path class="cls-2" d="M16.24,74.68v0a2.43,2.43,0,0,1,4.85,0h0a2.41,2.41,0,0,1-2.44,2.43A2.38,2.38,0,0,1,16.24,74.68Zm4.14,0v0a1.76,1.76,0,0,0-1.73-1.82A1.72,1.72,0,0,0,17,74.65h0a1.75,1.75,0,0,0,1.72,1.81A1.72,1.72,0,0,0,20.38,74.68Z"/><path class="cls-2" d="M22.07,72.33h.7v1.22a2,2,0,0,1,1.9-1.3V73h-.06a1.88,1.88,0,0,0-1.84,2.13V77h-.7Z"/><path class="cls-2" d="M25.69,75.75V72.94H25v-.61h.65v-1.4h.69v1.4h1.48v.61H26.38v2.72a.7.7,0,0,0,.79.78,1.42,1.42,0,0,0,.67-.17v.6a1.79,1.79,0,0,1-.83.2A1.19,1.19,0,0,1,25.69,75.75Z"/><path class="cls-2" d="M28.46,75.64v0c0-1,.81-1.51,2-1.51a4.78,4.78,0,0,1,1.43.2v-.16c0-.84-.51-1.27-1.38-1.27a3.27,3.27,0,0,0-1.42.34l-.2-.56a3.73,3.73,0,0,1,1.69-.39,2,2,0,0,1,1.5.51,1.83,1.83,0,0,1,.48,1.36V77h-.67v-.71a2,2,0,0,1-1.68.8A1.57,1.57,0,0,1,28.46,75.64Zm3.43-.36v-.45a4.8,4.8,0,0,0-1.37-.2c-.87,0-1.35.38-1.35,1v0c0,.58.54.93,1.17.93A1.41,1.41,0,0,0,31.89,75.28Z"/><path class="cls-2" d="M34.45,76.09V77h-.69V70.41h.69v2.86a2.1,2.1,0,0,1,1.78-1,2.27,2.27,0,0,1,2.22,2.42h0a2.27,2.27,0,0,1-2.22,2.42A2.08,2.08,0,0,1,34.45,76.09Zm3.29-1.42v0a1.68,1.68,0,0,0-1.64-1.8,1.74,1.74,0,0,0-1.68,1.8h0a1.73,1.73,0,0,0,1.68,1.8A1.63,1.63,0,0,0,37.74,74.67Z"/><path class="cls-2" d="M39.52,70.41h.7V77h-.7Z"/><path class="cls-2" d="M41.27,74.67v0a2.3,2.3,0,0,1,2.23-2.42,2.22,2.22,0,0,1,2.17,2.46,1.77,1.77,0,0,1,0,.23H42a1.63,1.63,0,0,0,1.64,1.57,1.92,1.92,0,0,0,1.47-.66l.43.39a2.42,2.42,0,0,1-1.92.87A2.31,2.31,0,0,1,41.27,74.67ZM45,74.4a1.53,1.53,0,0,0-1.49-1.58A1.6,1.6,0,0,0,42,74.4Z"/><path class="cls-2" d="M49.16,70.68h.72l2.3,3.44,2.29-3.44h.72V77h-.71V71.88l-2.29,3.38h0l-2.29-3.37V77h-.7Z"/><path class="cls-2" d="M56.3,74.68v0a2.43,2.43,0,0,1,4.85,0h0a2.41,2.41,0,0,1-2.44,2.43A2.38,2.38,0,0,1,56.3,74.68Zm4.14,0v0a1.76,1.76,0,0,0-1.73-1.82A1.72,1.72,0,0,0,57,74.65h0a1.75,1.75,0,0,0,1.72,1.81A1.72,1.72,0,0,0,60.44,74.68Z"/><path class="cls-2" d="M61.86,74.67v0a2.29,2.29,0,0,1,2.23-2.42,2.11,2.11,0,0,1,1.78,1V70.41h.69V77h-.69v-.94a2.09,2.09,0,0,1-1.78,1A2.27,2.27,0,0,1,61.86,74.67Zm4,0h0a1.73,1.73,0,0,0-1.68-1.8,1.65,1.65,0,0,0-1.64,1.8h0a1.68,1.68,0,0,0,1.64,1.8A1.73,1.73,0,0,0,65.89,74.66Z"/><path class="cls-2" d="M67.55,74.67v0a2.3,2.3,0,0,1,2.23-2.42A2.22,2.22,0,0,1,72,74.69a1.77,1.77,0,0,1,0,.23H68.25a1.63,1.63,0,0,0,1.64,1.57,1.92,1.92,0,0,0,1.47-.66l.43.39a2.42,2.42,0,0,1-1.92.87A2.31,2.31,0,0,1,67.55,74.67Zm3.7-.27a1.53,1.53,0,0,0-1.49-1.58,1.6,1.6,0,0,0-1.51,1.58Z"/><path class="cls-2" d="M75,76.44l2.29-2c1-.86,1.31-1.35,1.31-2a1.2,1.2,0,0,0-1.26-1.21,2,2,0,0,0-1.7,1.08l-.52-.37a2.5,2.5,0,0,1,2.27-1.35,1.82,1.82,0,0,1,1.95,1.79h0c0,.92-.48,1.49-1.59,2.45l-1.68,1.5h3.34V77H75Z"/><path class="cls-2" d="M10.79,84.85v0A3.17,3.17,0,0,1,14,81.58a3.27,3.27,0,0,1,2.46,1L16,83.1a2.71,2.71,0,0,0-2-.87,2.47,2.47,0,0,0-2.44,2.59h0A2.49,2.49,0,0,0,14,87.44a2.75,2.75,0,0,0,2-.91l.47.46A3.27,3.27,0,0,1,14,88.09,3.14,3.14,0,0,1,10.79,84.85Z"/><path class="cls-2" d="M17.33,81.41H18v2.73a1.77,1.77,0,0,1,1.59-.91A1.71,1.71,0,0,1,21.4,85.1V88h-.7V85.27a1.24,1.24,0,0,0-1.29-1.41A1.37,1.37,0,0,0,18,85.32V88h-.69Z"/><path class="cls-2" d="M22.25,86.64v0c0-1,.81-1.51,2-1.51a4.83,4.83,0,0,1,1.43.2v-.16c0-.84-.51-1.27-1.39-1.27a3.19,3.19,0,0,0-1.41.34l-.21-.56a3.8,3.8,0,0,1,1.7-.39,2,2,0,0,1,1.5.51,1.88,1.88,0,0,1,.48,1.36V88h-.67v-.71a2,2,0,0,1-1.68.8A1.56,1.56,0,0,1,22.25,86.64Zm3.43-.36v-.45a4.8,4.8,0,0,0-1.37-.2c-.87,0-1.36.38-1.36,1v0c0,.58.54.93,1.17.93A1.41,1.41,0,0,0,25.68,86.28Z"/><path class="cls-2" d="M27.54,83.33h.69v1.22a2,2,0,0,1,1.9-1.3V84h-.05a1.88,1.88,0,0,0-1.85,2.13V88h-.69Z"/><path class="cls-2" d="M30.67,88.8l.32-.54a3,3,0,0,0,1.79.59,1.53,1.53,0,0,0,1.69-1.66v-.55a2.2,2.2,0,0,1-1.83,1,2.15,2.15,0,0,1-2.18-2.18v0a2.2,2.2,0,0,1,4-1.26v-.84h.7v3.85a2.22,2.22,0,0,1-.6,1.64,2.4,2.4,0,0,1-1.77.62A3.66,3.66,0,0,1,30.67,88.8Zm3.82-3.36v0a1.64,1.64,0,0,0-1.71-1.58,1.54,1.54,0,0,0-1.61,1.57v0A1.57,1.57,0,0,0,32.78,87,1.64,1.64,0,0,0,34.49,85.44Z"/><path class="cls-2" d="M36.45,81.55h.79v.76h-.79Zm0,1.78h.69V88H36.5Z"/><path class="cls-2" d="M38.53,83.33h.69v.81a1.79,1.79,0,0,1,1.6-.91A1.7,1.7,0,0,1,42.6,85.1V88h-.69V85.27a1.24,1.24,0,0,0-1.29-1.41,1.38,1.38,0,0,0-1.4,1.46V88h-.69Z"/><path class="cls-2" d="M43.75,88.8l.31-.54a3.05,3.05,0,0,0,1.8.59,1.53,1.53,0,0,0,1.69-1.66v-.55a2.22,2.22,0,0,1-1.83,1,2.15,2.15,0,0,1-2.19-2.18v0a2.2,2.2,0,0,1,4-1.26v-.84h.69v3.85a2.22,2.22,0,0,1-.59,1.64,2.44,2.44,0,0,1-1.77.62A3.66,3.66,0,0,1,43.75,88.8Zm3.82-3.36v0a1.64,1.64,0,0,0-1.71-1.58,1.55,1.55,0,0,0-1.62,1.57v0A1.57,1.57,0,0,0,45.86,87,1.64,1.64,0,0,0,47.57,85.44Z"/><path class="cls-2" d="M51.78,84.85v0A3.17,3.17,0,0,1,55,81.58a3.25,3.25,0,0,1,2.46,1l-.48.52a2.74,2.74,0,0,0-2-.87,2.47,2.47,0,0,0-2.44,2.59h0A2.49,2.49,0,0,0,55,87.44a2.75,2.75,0,0,0,2-.91l.47.46a3.31,3.31,0,0,1-2.52,1.1A3.14,3.14,0,0,1,51.78,84.85Z"/><path class="cls-2" d="M58,86.64v0c0-1,.81-1.51,2-1.51a4.83,4.83,0,0,1,1.43.2v-.16c0-.84-.51-1.27-1.39-1.27a3.22,3.22,0,0,0-1.41.34l-.21-.56a3.8,3.8,0,0,1,1.7-.39,2,2,0,0,1,1.5.51,1.83,1.83,0,0,1,.48,1.36V88h-.67v-.71a2,2,0,0,1-1.68.8A1.56,1.56,0,0,1,58,86.64Zm3.43-.36v-.45a4.8,4.8,0,0,0-1.37-.2c-.87,0-1.36.38-1.36,1v0c0,.58.54.93,1.17.93A1.41,1.41,0,0,0,61.39,86.28Z"/><path class="cls-2" d="M64,87.09V88h-.7V81.41H64v2.86a2.07,2.07,0,0,1,1.78-1A2.27,2.27,0,0,1,68,85.65h0a2.28,2.28,0,0,1-2.22,2.42A2.07,2.07,0,0,1,64,87.09Zm3.29-1.42v0a1.68,1.68,0,0,0-1.64-1.8,1.74,1.74,0,0,0-1.68,1.8h0a1.73,1.73,0,0,0,1.68,1.8A1.64,1.64,0,0,0,67.24,85.67Z"/><path class="cls-2" d="M69,81.41h.69V88H69Z"/><path class="cls-2" d="M70.77,85.67v0A2.29,2.29,0,0,1,73,83.23a2.22,2.22,0,0,1,2.17,2.46,1.77,1.77,0,0,1,0,.23H71.47a1.63,1.63,0,0,0,1.64,1.57,1.92,1.92,0,0,0,1.47-.66l.43.39a2.42,2.42,0,0,1-1.92.87A2.31,2.31,0,0,1,70.77,85.67Zm3.7-.27A1.53,1.53,0,0,0,73,83.82a1.6,1.6,0,0,0-1.51,1.58Z"/><path class="cls-2" d="M75.73,87.39l.35-.49a2.75,2.75,0,0,0,1.61.59c.56,0,1-.29,1-.74v0c0-.46-.55-.64-1.16-.81S76,85.46,76,84.6v0a1.41,1.41,0,0,1,1.59-1.33,3.24,3.24,0,0,1,1.67.51l-.31.53a2.65,2.65,0,0,0-1.38-.45c-.55,0-.9.28-.9.67v0c0,.44.57.61,1.19.8s1.5.5,1.5,1.33v0a1.47,1.47,0,0,1-1.66,1.4A3.22,3.22,0,0,1,75.73,87.39Z"/><path class="cls-3" d="M54,26.41l-1.27-1.75a.85.85,0,0,0-.1-.65,1.4,1.4,0,0,0-.51-.32s-3.43-5-12.57-5.5a17.72,17.72,0,0,0-.89,6.25l2.37.31a2.78,2.78,0,0,0,1.86-.82s1.89-1.3,5.56,1.52a3,3,0,0,1,.91,1.34s0,.57.78.46l1.71,1.1a.85.85,0,0,0,.93.06,3.61,3.61,0,0,0,1.11-1S54.35,26.86,54,26.41Z"/><path class="cls-2" d="M37.89,24.23A17.46,17.46,0,0,1,38.78,18l-.23-.05-.2.39-2.88-.38s-.41-.22-.6.45a11.38,11.38,0,0,0-.6,4.58.76.76,0,0,0,.48.41l2.82.38a4.36,4.36,0,0,1,.06.44Z"/><path class="cls-2" d="M52.15,23.69c.13-.3.51.32.51.32a.85.85,0,0,1,.1.65L54,26.41c.32.45-.11,1-.11,1a3.61,3.61,0,0,1-1.11,1,.85.85,0,0,1-.93-.06l-1.71-1.1c-.76.11-.78-.46-.78-.46A6.61,6.61,0,0,0,52.15,23.69Z"/><path class="cls-4" d="M50.74,27a6.44,6.44,0,0,0,1.69-1.84"/><path class="cls-4" d="M50.88,28.26s.33,0,1-.66"/><path class="cls-4" d="M53.43,26.82a2.14,2.14,0,0,0,.43-1.5"/><path class="cls-2" d="M40.24,17.25s-1.3,1-.19,1.61c1.94,1,4.33.06,8.44,2.41,0,0,2.3.76.69-1.06C49.18,20.21,47.37,18.07,40.24,17.25Z"/><path class="cls-5" d="M53.31,28v4.09a1.61,1.61,0,0,1-1.81,1.72H33.57a3.1,3.1,0,0,0-2.93,3.42s0,3,2.66,3h5.36"/><rect class="cls-5" x="38.66" y="37.38" width="14.78" height="5.11" rx="0.72"/><circle class="cls-2" cx="40.17" cy="38.85" r="0.24"/><circle class="cls-2" cx="41.12" cy="38.85" r="0.24"/><path class="cls-6" d="M53.65,40.1h2.8s3.11.32,2.9,4.23A2.54,2.54,0,0,1,56.61,47H46.4s-2.17-.21-2.17,2.54"/><path class="cls-5" d="M48.32,53.82A4,4,0,0,1,45,57.72a.69.69,0,0,1-.67.5.71.71,0,0,1-.67-.5,4,4,0,1,1,4.63-3.9Z"/><circle class="cls-7" cx="44.36" cy="55.37" r="0.57"/><circle class="cls-7" cx="43.06" cy="52.96" r="0.51"/><circle class="cls-7" cx="45.67" cy="52.96" r="0.51"/></svg>