<svg id="Layer_1" data-name="Layer 1" xmlns="http://www.w3.org/2000/svg" xmlns:xlink="http://www.w3.org/1999/xlink" viewBox="0 0 90 100"><defs><style>.cls-1,.cls-5{fill:none;}.cls-2{fill:#fff;stroke-miterlimit:10;}.cls-2,.cls-5{stroke:#74af27;}.cls-3{fill:#74af27;}.cls-4{clip-path:url(#clip-path);}.cls-5{stroke-linecap:round;stroke-linejoin:round;}</style><clipPath id="clip-path"><circle class="cls-1" cx="45" cy="37.74" r="28.35"/></clipPath></defs><title>EV-Connectors_Leads-3.6kW-7.2kW</title><circle class="cls-2" cx="45" cy="37.74" r="28.35"/><polygon class="cls-3" points="47.25 39.98 42.37 46.6 45.13 46.6 43.24 51.63 48.19 44.97 45.41 44.97 47.25 39.98"/><g class="cls-4"><rect class="cls-5" x="30.48" y="29.31" width="29.12" height="6.82" rx="3.41"/><path class="cls-5" d="M46.74,19.76a1.9,1.9,0,1,0-3.8,0v9.47h3.8Z"/><rect class="cls-5" x="36.05" y="21.68" width="3.8" height="7.55"/><rect class="cls-5" x="49.82" y="21.68" width="3.8" height="7.55"/><path class="cls-5" d="M33.5,37.74H56.71v10s1.18,5.37-11.58,6.16c0,0-11.63,0-11.63-6.43Z"/><path class="cls-3" d="M41.34,55a33.11,33.11,0,0,0,7.87,0v4.33H41.34Z"/><rect class="cls-3" x="43.87" y="59.22" width="2.82" height="9.71"/></g><path class="cls-3" d="M14.2,76l.52-.46a2.27,2.27,0,0,0,1.84.94,1.27,1.27,0,0,0,1.37-1.23v0c0-.78-.72-1.21-1.76-1.21h-.41l-.14-.43,2-2.24H14.53v-.64h4v.53l-2,2.19c1.1.09,2.08.62,2.08,1.78h0a2,2,0,0,1-2.1,1.9A2.86,2.86,0,0,1,14.2,76Z"/><path class="cls-3" d="M19.69,76h.83V77h-.83Z"/><path class="cls-3" d="M22.27,76.45A3.09,3.09,0,0,1,21.48,74v0c0-1.92,1-3.42,2.62-3.42A2.77,2.77,0,0,1,26,71.3l-.41.55a2.2,2.2,0,0,0-1.49-.63c-1.21,0-1.85,1.28-1.85,2.7V74A2,2,0,0,1,24,73,2,2,0,0,1,26.19,75v0a2.13,2.13,0,0,1-2.26,2.09A2.28,2.28,0,0,1,22.27,76.45ZM25.46,75h0a1.4,1.4,0,0,0-1.54-1.36A1.48,1.48,0,0,0,22.34,75v0a1.47,1.47,0,0,0,1.6,1.41A1.43,1.43,0,0,0,25.46,75Z"/><path class="cls-3" d="M27.26,70.41H28V75l2.51-2.62h.87l-2,2,2,2.66h-.83L28.9,74.82l-.95,1V77h-.69Z"/><path class="cls-3" d="M31.74,70.68h.77l1.8,5.25L36,70.67h.59l1.73,5.26,1.8-5.25h.74L38.65,77h-.6l-1.73-5.11L34.58,77H34Z"/><path class="cls-3" d="M47.45,69.8h.63l-4.17,8.34h-.64Z"/><path class="cls-3" d="M54.27,71.33H50.8v-.65h4.28v.54L52.21,77h-.79Z"/><path class="cls-3" d="M55.08,76h.82V77h-.82Z"/><path class="cls-3" d="M56.75,76.44l2.29-2c1-.86,1.31-1.35,1.31-2a1.2,1.2,0,0,0-1.27-1.21,2,2,0,0,0-1.69,1.08l-.52-.37a2.48,2.48,0,0,1,2.26-1.35,1.82,1.82,0,0,1,2,1.79h0c0,.92-.49,1.49-1.6,2.45l-1.68,1.5h3.34V77h-4.4Z"/><path class="cls-3" d="M62.21,70.41h.7V75l2.51-2.62h.86l-2,2,2,2.66h-.82l-1.67-2.17-.94,1V77h-.7Z"/><path class="cls-3" d="M66.69,70.68h.78l1.8,5.25L71,70.67h.58l1.73,5.26,1.8-5.25h.75L73.61,77H73l-1.72-5.11L69.54,77H69Z"/></svg>