<svg id="Layer_1" data-name="Layer 1" xmlns="http://www.w3.org/2000/svg" xmlns:xlink="http://www.w3.org/1999/xlink" viewBox="0 0 90 100"><defs><style>.cls-1{fill:none;}.cls-2,.cls-5{fill:#fff;stroke:#74af27;}.cls-2{stroke-miterlimit:10;}.cls-3{fill:#74af27;}.cls-4{clip-path:url(#clip-path);}.cls-5{stroke-linecap:round;stroke-linejoin:round;}</style><clipPath id="clip-path"><circle class="cls-1" cx="45" cy="37.74" r="27.95"/></clipPath></defs><title>EV-Certifications_Awards-OLEVGrantFundable</title><circle class="cls-2" cx="45" cy="37.74" r="28.35"/><path class="cls-3" d="M33.72,73.85v0a3.16,3.16,0,0,1,3.16-3.25,3.33,3.33,0,0,1,2.35.83l-.46.54a2.71,2.71,0,0,0-1.92-.72,2.46,2.46,0,0,0-2.39,2.59h0A2.44,2.44,0,0,0,37,76.46a3,3,0,0,0,1.82-.63V74.26H36.85v-.64h2.6v2.51a3.8,3.8,0,0,1-2.53,1A3.09,3.09,0,0,1,33.72,73.85Z"/><path class="cls-3" d="M40.67,72.33h.69v1.22a2,2,0,0,1,1.9-1.3V73h0a1.88,1.88,0,0,0-1.85,2.13V77h-.69Z"/><path class="cls-3" d="M43.47,75.64v0c0-1,.81-1.51,2-1.51a5.24,5.24,0,0,1,1.43.2v-.16c0-.84-.52-1.27-1.39-1.27a3.33,3.33,0,0,0-1.41.34l-.21-.56a3.76,3.76,0,0,1,1.69-.39,2.07,2.07,0,0,1,1.51.51,1.87,1.87,0,0,1,.47,1.36V77h-.66v-.71a2,2,0,0,1-1.69.8A1.56,1.56,0,0,1,43.47,75.64Zm3.43-.36v-.45a4.91,4.91,0,0,0-1.37-.2c-.88,0-1.36.38-1.36,1v0c0,.58.54.93,1.17.93A1.42,1.42,0,0,0,46.9,75.28Z"/><path class="cls-3" d="M48.76,72.33h.69v.81A1.77,1.77,0,0,1,51,72.23a1.71,1.71,0,0,1,1.79,1.87V77h-.7V74.27a1.24,1.24,0,0,0-1.28-1.41,1.37,1.37,0,0,0-1.4,1.46V77h-.69Z"/><path class="cls-3" d="M54.27,75.75V72.94h-.64v-.61h.64v-1.4H55v1.4h1.47v.61H55v2.72a.69.69,0,0,0,.78.78,1.46,1.46,0,0,0,.68-.17v.6a1.74,1.74,0,0,1-.84.2A1.19,1.19,0,0,1,54.27,75.75Z"/><path class="cls-3" d="M25.91,81.68h4.53v.66H26.62v2.25H30v.65H26.62V88h-.71Z"/><path class="cls-3" d="M31.36,86.22V83.33h.69v2.72a1.24,1.24,0,0,0,1.29,1.41A1.37,1.37,0,0,0,34.73,86V83.33h.69V88h-.69v-.81a1.76,1.76,0,0,1-1.59.9A1.69,1.69,0,0,1,31.36,86.22Z"/><path class="cls-3" d="M36.7,83.33h.7v.81A1.76,1.76,0,0,1,39,83.23a1.7,1.7,0,0,1,1.78,1.87V88h-.69V85.27a1.24,1.24,0,0,0-1.29-1.41,1.37,1.37,0,0,0-1.39,1.46V88h-.7Z"/><path class="cls-3" d="M41.71,85.67v0a2.28,2.28,0,0,1,2.22-2.42,2.11,2.11,0,0,1,1.78,1V81.41h.7V88h-.7v-.94a2.08,2.08,0,0,1-1.78,1A2.26,2.26,0,0,1,41.71,85.67Zm4,0h0a1.73,1.73,0,0,0-1.68-1.8,1.65,1.65,0,0,0-1.64,1.8h0a1.68,1.68,0,0,0,1.64,1.8A1.74,1.74,0,0,0,45.74,85.66Z"/><path class="cls-3" d="M47.33,86.64v0c0-1,.81-1.51,2-1.51a5.12,5.12,0,0,1,1.43.2v-.16c0-.84-.51-1.27-1.38-1.27a3.38,3.38,0,0,0-1.42.34l-.2-.56a3.73,3.73,0,0,1,1.69-.39,2,2,0,0,1,1.5.51,1.83,1.83,0,0,1,.48,1.36V88h-.67v-.71a2,2,0,0,1-1.68.8A1.57,1.57,0,0,1,47.33,86.64Zm3.43-.36v-.45a4.8,4.8,0,0,0-1.37-.2c-.87,0-1.36.38-1.36,1v0c0,.58.54.93,1.17.93A1.41,1.41,0,0,0,50.76,86.28Z"/><path class="cls-3" d="M53.32,87.09V88h-.7V81.41h.7v2.86a2.08,2.08,0,0,1,1.78-1,2.28,2.28,0,0,1,2.22,2.42h0a2.28,2.28,0,0,1-2.22,2.42A2.07,2.07,0,0,1,53.32,87.09Zm3.29-1.42v0A1.68,1.68,0,0,0,55,83.85a1.74,1.74,0,0,0-1.68,1.8h0A1.73,1.73,0,0,0,55,87.46,1.64,1.64,0,0,0,56.61,85.67Z"/><path class="cls-3" d="M58.39,81.41h.7V88h-.7Z"/><path class="cls-3" d="M60.14,85.67v0a2.29,2.29,0,0,1,2.23-2.42,2.22,2.22,0,0,1,2.17,2.46,1.77,1.77,0,0,1,0,.23H60.84a1.63,1.63,0,0,0,1.64,1.57A1.92,1.92,0,0,0,64,86.83l.43.39a2.42,2.42,0,0,1-1.92.87A2.31,2.31,0,0,1,60.14,85.67Zm3.7-.27a1.53,1.53,0,0,0-1.49-1.58,1.6,1.6,0,0,0-1.51,1.58Z"/><g class="cls-4"><path class="cls-3" d="M29.63,27.06v0A4.16,4.16,0,0,1,38,27v0a4.16,4.16,0,0,1-8.32,0Zm6.86,0v0a2.73,2.73,0,0,0-2.71-2.83A2.69,2.69,0,0,0,31.1,27v0a2.71,2.71,0,0,0,2.7,2.82A2.68,2.68,0,0,0,36.49,27.06Z"/><path class="cls-3" d="M39.36,23.06h1.39v6.68h4.19V31H39.36Z"/><path class="cls-3" d="M46.11,23.06H52v1.25H47.5v2.07h4v1.25h-4v2.13h4.56V31h-6Z"/><path class="cls-3" d="M52.75,23.06H54.3l2.4,6.11,2.38-6.11h1.51l-3.29,8H56.06Z"/><path class="cls-5" d="M38.78,47.41l12.49,1.46c3.44.28,3.15-3.6,3.15-3.6a3.54,3.54,0,0,0-2.34-1.92l-1.53-.58A19.62,19.62,0,0,0,45.87,42c-1.68-.48-4.09-1.13-4.09-1.13l-5.86-2.67c-5.13-2.58-10.13,3.63-10.13,3.63-3.12,3.31-8.68,6.34-8.68,6.34l5.07,9.65c3.71-4.1,9.75-2.72,9.75-2.72l8.81,1a18.33,18.33,0,0,0,13.73-3.25L64.66,41.49s2.82-3.33-.3-4.83a2.59,2.59,0,0,0-2,.33s-1.48-2.56-3.94-1.31a10.46,10.46,0,0,0-1.36,1l-6.48,6.1"/><line class="cls-5" x1="54.47" y1="44.85" x2="62.33" y2="36.99"/></g></svg>