<svg id="Layer_1" data-name="Layer 1" xmlns="http://www.w3.org/2000/svg" xmlns:xlink="http://www.w3.org/1999/xlink" viewBox="0 0 90 100"><defs><style>.cls-1,.cls-5{fill:none;}.cls-2{fill:#fff;stroke-miterlimit:10;}.cls-2,.cls-5{stroke:#74af27;}.cls-3{fill:#74af27;}.cls-4{clip-path:url(#clip-path);}.cls-5{stroke-linecap:round;stroke-linejoin:round;}</style><clipPath id="clip-path"><circle class="cls-1" cx="45" cy="37.74" r="28.35"/></clipPath></defs><title>EV-Connectors_Leads-3.6kW</title><circle class="cls-2" cx="45" cy="37.74" r="28.35"/><path class="cls-3" d="M31.68,76l.52-.46a2.26,2.26,0,0,0,1.83.94,1.27,1.27,0,0,0,1.38-1.23v0c0-.78-.73-1.21-1.76-1.21h-.41l-.14-.43,2-2.24H32v-.64h4v.53l-2,2.19c1.1.09,2.08.62,2.08,1.78h0a2,2,0,0,1-2.1,1.9A2.86,2.86,0,0,1,31.68,76Z"/><path class="cls-3" d="M37.17,76H38V77h-.82Z"/><path class="cls-3" d="M39.75,76.45A3.09,3.09,0,0,1,39,74v0c0-1.92,1-3.42,2.62-3.42a2.79,2.79,0,0,1,1.86.72l-.41.55a2.2,2.2,0,0,0-1.49-.63c-1.21,0-1.85,1.28-1.85,2.7V74a2,2,0,0,1,1.8-1A2,2,0,0,1,43.67,75v0a2.13,2.13,0,0,1-2.26,2.09A2.28,2.28,0,0,1,39.75,76.45ZM42.94,75h0a1.4,1.4,0,0,0-1.54-1.36A1.48,1.48,0,0,0,39.82,75v0a1.47,1.47,0,0,0,1.59,1.41A1.43,1.43,0,0,0,42.94,75Z"/><path class="cls-3" d="M44.73,70.41h.7V75l2.51-2.62h.86l-1.95,2,2,2.66H48l-1.67-2.17-.94,1V77h-.7Z"/><path class="cls-3" d="M49.22,70.68H50l1.8,5.25,1.73-5.26h.58l1.73,5.26,1.8-5.25h.75L56.13,77h-.6L53.8,71.92,52.06,77h-.59Z"/><polygon class="cls-3" points="47.25 39.98 42.37 46.6 45.13 46.6 43.24 51.63 48.19 44.97 45.41 44.97 47.25 39.98"/><g class="cls-4"><rect class="cls-5" x="30.48" y="29.31" width="29.12" height="6.82" rx="3.41"/><path class="cls-5" d="M46.74,19.76a1.9,1.9,0,1,0-3.8,0v9.47h3.8Z"/><rect class="cls-5" x="36.05" y="21.68" width="3.8" height="7.55"/><rect class="cls-5" x="49.82" y="21.68" width="3.8" height="7.55"/><path class="cls-5" d="M33.5,37.74H56.71v10s1.18,5.37-11.58,6.16c0,0-11.63,0-11.63-6.43Z"/><path class="cls-3" d="M41.34,55a33.11,33.11,0,0,0,7.87,0v4.33H41.34Z"/><rect class="cls-3" x="43.87" y="59.22" width="2.82" height="9.71"/></g></svg>