<svg id="Layer_1" data-name="Layer 1" xmlns="http://www.w3.org/2000/svg" viewBox="0 0 90 100"><defs><style>.cls-1,.cls-3{fill:#fff;stroke:#74af27;}.cls-1{stroke-miterlimit:10;}.cls-2{fill:#74af27;}.cls-3{stroke-linecap:round;stroke-linejoin:round;stroke-width:0.44px;}</style></defs><title>EV-Certifications_Awards-HEA-ProductOfTheYearAward2017-StreetCharge</title><circle class="cls-1" cx="45" cy="37.74" r="28.35"/><path class="cls-2" d="M4.86,70.68H7.21c1.43,0,2.36.76,2.36,2v0c0,1.36-1.13,2.06-2.47,2.06H5.57V77H4.86Zm2.27,3.43c1,0,1.72-.55,1.72-1.38v0c0-.9-.67-1.37-1.69-1.37H5.57v2.77Z"/><path class="cls-2" d="M10.48,72.33h.69v1.22a2,2,0,0,1,1.9-1.3V73H13a1.88,1.88,0,0,0-1.85,2.13V77h-.69Z"/><path class="cls-2" d="M13.37,74.68v0a2.41,2.41,0,0,1,2.43-2.43,2.39,2.39,0,0,1,2.42,2.41v0a2.41,2.41,0,0,1-2.44,2.43A2.38,2.38,0,0,1,13.37,74.68Zm4.14,0v0a1.76,1.76,0,0,0-1.73-1.82,1.72,1.72,0,0,0-1.7,1.8v0a1.75,1.75,0,0,0,1.72,1.81A1.72,1.72,0,0,0,17.51,74.68Z"/><path class="cls-2" d="M18.93,74.67v0a2.29,2.29,0,0,1,2.23-2.42,2.11,2.11,0,0,1,1.78,1V70.41h.69V77h-.69v-.94a2.09,2.09,0,0,1-1.78,1A2.27,2.27,0,0,1,18.93,74.67Zm4,0v0a1.73,1.73,0,0,0-1.69-1.79,1.65,1.65,0,0,0-1.64,1.79v0a1.68,1.68,0,0,0,1.64,1.8A1.74,1.74,0,0,0,23,74.66Z"/><path class="cls-2" d="M24.84,75.22V72.33h.69v2.72a1.25,1.25,0,0,0,1.29,1.41A1.37,1.37,0,0,0,28.21,75V72.33h.69V77h-.69v-.81a1.76,1.76,0,0,1-1.59.9A1.69,1.69,0,0,1,24.84,75.22Z"/><path class="cls-2" d="M29.89,74.68v0a2.42,2.42,0,0,1,4.25-1.6l-.46.49a1.85,1.85,0,0,0-1.41-.71,1.72,1.72,0,0,0-1.66,1.8v0a1.73,1.73,0,0,0,1.71,1.81,1.91,1.91,0,0,0,1.42-.69l.44.41a2.41,2.41,0,0,1-4.29-1.51Z"/><path class="cls-2" d="M35.29,75.75V72.94h-.64v-.61h.64v-1.4H36v1.4h1.47v.61H36v2.72a.69.69,0,0,0,.78.78,1.46,1.46,0,0,0,.68-.17v.6a1.86,1.86,0,0,1-.84.2A1.19,1.19,0,0,1,35.29,75.75Z"/><path class="cls-2" d="M40.56,74.68v0a2.43,2.43,0,0,1,4.85,0v0A2.41,2.41,0,0,1,43,77.09,2.38,2.38,0,0,1,40.56,74.68Zm4.14,0v0A1.76,1.76,0,0,0,43,72.84a1.72,1.72,0,0,0-1.7,1.8v0A1.75,1.75,0,0,0,43,76.47,1.72,1.72,0,0,0,44.7,74.68Z"/><path class="cls-2" d="M46.65,72.94H46v-.6h.64v-.4a1.64,1.64,0,0,1,.41-1.2,1.33,1.33,0,0,1,1-.36,1.9,1.9,0,0,1,.76.12v.6a2.37,2.37,0,0,0-.67-.12c-.54,0-.81.32-.81,1v.38h1.47v.59H47.35v4h-.7Z"/><path class="cls-2" d="M52.1,75.75V72.94h-.65v-.61h.65v-1.4h.69v1.4h1.48v.61H52.79v2.72a.69.69,0,0,0,.78.78,1.46,1.46,0,0,0,.68-.17v.6a1.86,1.86,0,0,1-.84.2A1.18,1.18,0,0,1,52.1,75.75Z"/><path class="cls-2" d="M55.22,70.41h.69v2.73a1.79,1.79,0,0,1,1.6-.91,1.7,1.7,0,0,1,1.78,1.87V77H58.6V74.27a1.24,1.24,0,0,0-1.29-1.41,1.38,1.38,0,0,0-1.4,1.46V77h-.69Z"/><path class="cls-2" d="M60.21,74.67v0a2.29,2.29,0,0,1,2.23-2.42,2.22,2.22,0,0,1,2.17,2.46,1.77,1.77,0,0,1,0,.23H60.91a1.63,1.63,0,0,0,1.64,1.57A1.9,1.9,0,0,0,64,75.83l.44.39a2.42,2.42,0,0,1-1.92.87A2.31,2.31,0,0,1,60.21,74.67Zm3.7-.27a1.54,1.54,0,0,0-1.49-1.58,1.6,1.6,0,0,0-1.51,1.58Z"/><path class="cls-2" d="M70.07,74.49l-2.62-3.81h.86l2.13,3.15,2.14-3.15h.83l-2.62,3.8V77h-.72Z"/><path class="cls-2" d="M72.88,74.67v0a2.29,2.29,0,0,1,2.23-2.42,2.22,2.22,0,0,1,2.17,2.46,1.77,1.77,0,0,1,0,.23H73.58a1.63,1.63,0,0,0,1.64,1.57,1.92,1.92,0,0,0,1.47-.66l.43.39a2.42,2.42,0,0,1-1.92.87A2.31,2.31,0,0,1,72.88,74.67Zm3.7-.27a1.54,1.54,0,0,0-1.49-1.58,1.6,1.6,0,0,0-1.51,1.58Z"/><path class="cls-2" d="M77.87,75.63h0c0-1,.81-1.51,2-1.51a5.12,5.12,0,0,1,1.43.2v-.16c0-.84-.51-1.27-1.38-1.27a3.41,3.41,0,0,0-1.42.34l-.2-.56A3.73,3.73,0,0,1,80,72.27a2,2,0,0,1,1.5.51A1.83,1.83,0,0,1,82,74.14V77h-.67v-.71a2,2,0,0,1-1.68.8A1.57,1.57,0,0,1,77.87,75.63Zm3.43-.35v-.45a4.8,4.8,0,0,0-1.37-.2c-.87,0-1.36.38-1.36,1v0c0,.58.54.93,1.17.93A1.41,1.41,0,0,0,81.3,75.28Z"/><path class="cls-2" d="M83.16,72.33h.7v1.22a2,2,0,0,1,1.9-1.3V73H85.7a1.88,1.88,0,0,0-1.84,2.13V77h-.7Z"/><path class="cls-2" d="M23.46,81.64h.67L27,88h-.77l-.74-1.67H22.06L21.32,88h-.73Zm1.75,4-1.43-3.2-1.44,3.2Z"/><path class="cls-2" d="M27,83.33h.74L29,87.07l1.25-3.76h.57l1.26,3.76,1.23-3.74H34L32.38,88h-.6l-1.25-3.67L29.26,88h-.61Z"/><path class="cls-2" d="M34.37,86.63h0c0-1,.81-1.51,2-1.51a5.24,5.24,0,0,1,1.43.2v-.16c0-.84-.51-1.27-1.39-1.27a3.33,3.33,0,0,0-1.41.34l-.21-.56a3.76,3.76,0,0,1,1.69-.39,2.07,2.07,0,0,1,1.51.51,1.87,1.87,0,0,1,.47,1.36V88h-.66v-.71a2,2,0,0,1-1.69.8A1.56,1.56,0,0,1,34.37,86.63Zm3.43-.35v-.45a4.8,4.8,0,0,0-1.37-.2c-.88,0-1.36.38-1.36,1v0c0,.58.54.93,1.17.93A1.42,1.42,0,0,0,37.8,86.28Z"/><path class="cls-2" d="M39.66,83.33h.69v1.22a2,2,0,0,1,1.9-1.3V84h0a1.88,1.88,0,0,0-1.85,2.13V88h-.69Z"/><path class="cls-2" d="M42.58,85.67v0a2.28,2.28,0,0,1,2.22-2.42,2.11,2.11,0,0,1,1.78,1V81.41h.69V88h-.69v-.94a2.09,2.09,0,0,1-1.78,1A2.26,2.26,0,0,1,42.58,85.67Zm4,0v0a1.73,1.73,0,0,0-1.69-1.79,1.64,1.64,0,0,0-1.63,1.79v0a1.68,1.68,0,0,0,1.63,1.8A1.74,1.74,0,0,0,46.61,85.66Z"/><path class="cls-2" d="M50.64,87.44l2.29-2c1-.86,1.31-1.35,1.31-2A1.21,1.21,0,0,0,53,82.23a2,2,0,0,0-1.69,1.08l-.52-.37A2.48,2.48,0,0,1,53,81.59a1.82,1.82,0,0,1,2,1.79h0c0,.92-.49,1.49-1.6,2.45l-1.68,1.5H55V88h-4.4Z"/><path class="cls-2" d="M55.89,84.85v0c0-1.76,1-3.25,2.67-3.25s2.65,1.47,2.65,3.24h0c0,1.77-1.05,3.26-2.67,3.26S55.89,86.62,55.89,84.85Zm4.58,0v0c0-1.37-.76-2.61-1.93-2.61s-1.92,1.21-1.92,2.6h0c0,1.38.76,2.62,1.94,2.62S60.47,86.23,60.47,84.85Z"/><path class="cls-2" d="M63.06,82.38l-1.19.37-.17-.58,1.54-.53h.52V88h-.7Z"/><path class="cls-2" d="M68.48,82.33H65v-.65h4.28v.53L66.42,88h-.79Z"/><path class="cls-2" d="M23.78,41.07V26h3.14v5.93h6.14V26h3.13V41.07H33.06V34.49H26.92v6.58Z"/><path class="cls-2" d="M39.43,41.07V26h11.5v2.55H42.56V31.9h7.79v2.54H42.56v4.1h8.67v2.53Z"/><path class="cls-2" d="M67.88,41.07H64.47l-1.36-3.42h-6.2l-1.28,3.42H52.31l6-15.06h3.32Zm-5.77-6L60,29.52l-2.09,5.59Z"/><path class="cls-2" d="M23.73,44.21V42.09H24V43h1.14v-.87h.29v2.12h-.29v-1H24v1Z"/><path class="cls-2" d="M26,42.39v-.3h.27v.3Zm0,1.82V42.67h.27v1.54Z"/><path class="cls-2" d="M26.76,44.33l.26,0a.22.22,0,0,0,.09.17.43.43,0,0,0,.27.07.5.5,0,0,0,.29-.07.31.31,0,0,0,.13-.2.92.92,0,0,0,0-.33.55.55,0,0,1-.43.2.62.62,0,0,1-.51-.23.87.87,0,0,1-.18-.55.9.9,0,0,1,.09-.4.61.61,0,0,1,.23-.29.66.66,0,0,1,.37-.1.55.55,0,0,1,.46.22v-.19h.25V44a1.22,1.22,0,0,1-.08.51.49.49,0,0,1-.24.23.82.82,0,0,1-.4.09.75.75,0,0,1-.45-.12A.41.41,0,0,1,26.76,44.33Zm.22-.92a.66.66,0,0,0,.12.44.38.38,0,0,0,.31.14.37.37,0,0,0,.31-.14.63.63,0,0,0,.13-.43.62.62,0,0,0-.13-.42.4.4,0,0,0-.31-.15.43.43,0,0,0-.31.14A.66.66,0,0,0,27,43.41Z"/><path class="cls-2" d="M28.62,44.21V42.09h.27v.76a.59.59,0,0,1,.47-.21.62.62,0,0,1,.31.07.39.39,0,0,1,.18.18.77.77,0,0,1,.06.34v1h-.27v-1a.39.39,0,0,0-.09-.28.32.32,0,0,0-.24-.09.46.46,0,0,0-.23.06.38.38,0,0,0-.15.16.78.78,0,0,0,0,.29v.84Z"/><path class="cls-2" d="M30.73,44.21l-.49-1.54h.28l.25.89.09.33s0-.12.09-.32l.25-.9h.27l.24.89.08.3.09-.3.27-.89h.26l-.49,1.54h-.28l-.25-.92L31.33,43,31,44.21Z"/><path class="cls-2" d="M33.78,44a1,1,0,0,1-.28.17.94.94,0,0,1-.3.05.62.62,0,0,1-.4-.12.42.42,0,0,1-.14-.32.46.46,0,0,1,.05-.2.51.51,0,0,1,.14-.15.61.61,0,0,1,.2-.09l.23,0a1.85,1.85,0,0,0,.48-.09v-.06a.29.29,0,0,0-.07-.23.46.46,0,0,0-.31-.09.52.52,0,0,0-.28.07.39.39,0,0,0-.13.23l-.26,0a.49.49,0,0,1,.12-.26.5.5,0,0,1,.23-.16,1.36,1.36,0,0,1,.36,0,1,1,0,0,1,.33,0,.44.44,0,0,1,.19.12A.49.49,0,0,1,34,43a1.36,1.36,0,0,1,0,.24v.34a3.51,3.51,0,0,0,0,.46.44.44,0,0,0,.07.19h-.28A.6.6,0,0,1,33.78,44Zm0-.58a2.08,2.08,0,0,1-.44.1.8.8,0,0,0-.23.05.16.16,0,0,0-.1.08.19.19,0,0,0,0,.12A.21.21,0,0,0,33,44a.33.33,0,0,0,.24.07.5.5,0,0,0,.27-.07.39.39,0,0,0,.18-.18.59.59,0,0,0,0-.26Z"/><path class="cls-2" d="M34.55,44.8l0-.25a.4.4,0,0,0,.15,0,.26.26,0,0,0,.14,0,.24.24,0,0,0,.09-.08,1.28,1.28,0,0,0,.08-.2l0-.06-.59-1.54h.28l.33.89a3,3,0,0,1,.12.36,2,2,0,0,1,.11-.35l.33-.9h.27l-.6,1.56a1.85,1.85,0,0,1-.15.35.52.52,0,0,1-.16.19.4.4,0,0,1-.22.06Z"/><path class="cls-2" d="M37.21,44.21V42.09h1.58v.25H37.5V43h1.21v.25H37.5V44h1.34v.25Z"/><path class="cls-2" d="M39.32,44.21V42.09h.27v2.12Z"/><path class="cls-2" d="M41.2,43.71l.28,0a.61.61,0,0,1-.24.36.73.73,0,0,1-.45.13.71.71,0,0,1-.55-.21.76.76,0,0,1-.21-.58.83.83,0,0,1,.21-.6.69.69,0,0,1,.53-.21.7.7,0,0,1,.52.21.83.83,0,0,1,.2.59v.07H40.31a.57.57,0,0,0,.15.38.42.42,0,0,0,.33.14A.44.44,0,0,0,41,44,.48.48,0,0,0,41.2,43.71Zm-.88-.42h.89a.66.66,0,0,0-.1-.29.43.43,0,0,0-.34-.15.45.45,0,0,0-.31.12A.5.5,0,0,0,40.32,43.29Z"/><path class="cls-2" d="M43,43.64l.26,0a.66.66,0,0,1-.22.41.67.67,0,0,1-.44.15.72.72,0,0,1-.52-.2.84.84,0,0,1-.2-.59,1,1,0,0,1,.09-.44.55.55,0,0,1,.26-.28.78.78,0,0,1,.37-.09.68.68,0,0,1,.42.12.6.6,0,0,1,.21.36l-.26,0a.36.36,0,0,0-.36-.31.45.45,0,0,0-.33.14.9.9,0,0,0,0,.9.42.42,0,0,0,.32.14.35.35,0,0,0,.26-.1A.44.44,0,0,0,43,43.64Z"/><path class="cls-2" d="M44.16,44l0,.23-.2,0a.49.49,0,0,1-.23,0,.25.25,0,0,1-.11-.12.92.92,0,0,1,0-.3v-.88h-.2v-.21h.2v-.38l.26-.15v.53h.27v.21h-.27v.89a.44.44,0,0,0,0,.15l0,0h.21Z"/><path class="cls-2" d="M44.54,44.21V42.67h.24v.24a.61.61,0,0,1,.17-.22.34.34,0,0,1,.17,0,.6.6,0,0,1,.28.08l-.09.24a.53.53,0,0,0-.2-.05A.24.24,0,0,0,45,43a.3.3,0,0,0-.1.14,1,1,0,0,0,0,.3v.81Z"/><path class="cls-2" d="M45.68,42.39v-.3H46v.3Zm0,1.82V42.67H46v1.54Z"/><path class="cls-2" d="M47.5,43.64l.27,0a.66.66,0,0,1-.22.41.67.67,0,0,1-.44.15.7.7,0,0,1-.52-.2.84.84,0,0,1-.2-.59,1,1,0,0,1,.09-.44.57.57,0,0,1,.25-.28.82.82,0,0,1,.38-.09.7.7,0,0,1,.42.12.6.6,0,0,1,.21.36l-.26,0a.4.4,0,0,0-.13-.23.36.36,0,0,0-.23-.08.45.45,0,0,0-.33.14.9.9,0,0,0,0,.9.42.42,0,0,0,.32.14.35.35,0,0,0,.26-.1A.44.44,0,0,0,47.5,43.64Z"/><path class="cls-2" d="M49.15,44a1,1,0,0,1-.29.17.94.94,0,0,1-.3.05.62.62,0,0,1-.4-.12A.42.42,0,0,1,48,43.8a.36.36,0,0,1,.06-.2.38.38,0,0,1,.13-.15.72.72,0,0,1,.2-.09l.24,0a1.85,1.85,0,0,0,.47-.09v-.06a.29.29,0,0,0-.08-.23.46.46,0,0,0-.31-.09.55.55,0,0,0-.28.07.45.45,0,0,0-.13.23l-.26,0a.49.49,0,0,1,.12-.26.5.5,0,0,1,.23-.16,1.36,1.36,0,0,1,.36,0,1,1,0,0,1,.33,0,.39.39,0,0,1,.19.12.37.37,0,0,1,.08.18,1.36,1.36,0,0,1,0,.24v.34a3.51,3.51,0,0,0,0,.46.62.62,0,0,0,.07.19H49.2A.41.41,0,0,1,49.15,44Zm0-.58a2,2,0,0,1-.43.1.89.89,0,0,0-.24.05.2.2,0,0,0-.1.08.19.19,0,0,0,0,.12.23.23,0,0,0,.08.18.33.33,0,0,0,.24.07A.5.5,0,0,0,48.9,44a.39.39,0,0,0,.18-.18.59.59,0,0,0,0-.26Z"/><path class="cls-2" d="M49.92,44.21V42.09h.27v2.12Z"/><path class="cls-2" d="M51.32,44.21l.83-2.12h.31l.9,2.12H53l-.26-.64h-.91l-.24.64Zm.63-.87h.73l-.22-.59c-.07-.18-.12-.32-.16-.44a2.12,2.12,0,0,1-.12.41Z"/><path class="cls-2" d="M53.57,43.75l.26,0A.41.41,0,0,0,54,44a.44.44,0,0,0,.28.08.48.48,0,0,0,.27-.07.23.23,0,0,0,.09-.18.15.15,0,0,0-.08-.14,1,1,0,0,0-.27-.08,2.22,2.22,0,0,1-.41-.13.37.37,0,0,1-.23-.35.41.41,0,0,1,0-.19.29.29,0,0,1,.13-.14.38.38,0,0,1,.17-.08.85.85,0,0,1,.23,0,1.09,1.09,0,0,1,.33,0,.46.46,0,0,1,.21.14.67.67,0,0,1,.09.24l-.26,0a.28.28,0,0,0-.11-.18.33.33,0,0,0-.24-.07.43.43,0,0,0-.26.06.19.19,0,0,0-.08.14.16.16,0,0,0,0,.09.26.26,0,0,0,.1.07l.24.07.4.12a.37.37,0,0,1,.17.13.35.35,0,0,1,.07.23.46.46,0,0,1-.08.24.47.47,0,0,1-.23.18.81.81,0,0,1-.33.06.8.8,0,0,1-.47-.12A.56.56,0,0,1,53.57,43.75Z"/><path class="cls-2" d="M55.21,43.75l.26,0a.41.41,0,0,0,.13.24.47.47,0,0,0,.28.08.52.52,0,0,0,.28-.07.23.23,0,0,0,.09-.18.17.17,0,0,0-.08-.14,1.27,1.27,0,0,0-.28-.08,2.51,2.51,0,0,1-.41-.13.37.37,0,0,1-.23-.35.41.41,0,0,1,0-.19.35.35,0,0,1,.13-.14.38.38,0,0,1,.17-.08.85.85,0,0,1,.23,0,1,1,0,0,1,.33,0,.46.46,0,0,1,.21.14.67.67,0,0,1,.09.24l-.26,0a.27.27,0,0,0-.1-.18.37.37,0,0,0-.25-.07.43.43,0,0,0-.26.06.19.19,0,0,0-.08.14.16.16,0,0,0,0,.09.3.3,0,0,0,.11.07l.23.07.4.12a.4.4,0,0,1,.18.13.41.41,0,0,1,.06.23.46.46,0,0,1-.08.24.44.44,0,0,1-.22.18.9.9,0,0,1-.34.06.8.8,0,0,1-.47-.12A.61.61,0,0,1,55.21,43.75Z"/><path class="cls-2" d="M56.86,43.44a.79.79,0,0,1,.24-.63.78.78,0,0,1,.5-.17.71.71,0,0,1,.53.21.74.74,0,0,1,.21.57,1,1,0,0,1-.09.46.59.59,0,0,1-.27.27.82.82,0,0,1-.38.09.77.77,0,0,1-.54-.2A.85.85,0,0,1,56.86,43.44Zm.27,0a.63.63,0,0,0,.14.44.4.4,0,0,0,.33.15.43.43,0,0,0,.33-.15.65.65,0,0,0,.13-.45.61.61,0,0,0-.13-.43.43.43,0,0,0-.33-.15.4.4,0,0,0-.33.15A.63.63,0,0,0,57.13,43.44Z"/><path class="cls-2" d="M59.8,43.64l.27,0a.67.67,0,0,1-.23.41.63.63,0,0,1-.43.15.7.7,0,0,1-.52-.2.8.8,0,0,1-.2-.59,1.15,1.15,0,0,1,.08-.44.64.64,0,0,1,.26-.28.82.82,0,0,1,.38-.09.7.7,0,0,1,.42.12.6.6,0,0,1,.21.36l-.26,0a.4.4,0,0,0-.13-.23.36.36,0,0,0-.23-.08.45.45,0,0,0-.33.14.84.84,0,0,0,0,.9.4.4,0,0,0,.32.14.35.35,0,0,0,.26-.1A.44.44,0,0,0,59.8,43.64Z"/><path class="cls-2" d="M60.42,42.39v-.3h.26v.3Zm0,1.82V42.67h.26v1.54Z"/><path class="cls-2" d="M62.24,44a.88.88,0,0,1-.29.17.93.93,0,0,1-.29.05.6.6,0,0,1-.4-.12.42.42,0,0,1-.14-.32.46.46,0,0,1,.05-.2.41.41,0,0,1,.14-.15.66.66,0,0,1,.19-.09l.24,0a1.85,1.85,0,0,0,.48-.09v-.06a.29.29,0,0,0-.08-.23.43.43,0,0,0-.3-.09.5.5,0,0,0-.28.07.39.39,0,0,0-.13.23l-.26,0a.57.57,0,0,1,.11-.26.6.6,0,0,1,.24-.16,1.25,1.25,0,0,1,.36,0,1.06,1.06,0,0,1,.33,0,.41.41,0,0,1,.18.12.51.51,0,0,1,.09.18s0,.12,0,.24v.34a3.51,3.51,0,0,0,0,.46.6.6,0,0,0,.06.19h-.28A1.05,1.05,0,0,1,62.24,44Zm0-.58a2.08,2.08,0,0,1-.44.1.72.72,0,0,0-.23.05.23.23,0,0,0-.11.08.28.28,0,0,0,0,.12.21.21,0,0,0,.09.18.32.32,0,0,0,.23.07A.51.51,0,0,0,62,44a.33.33,0,0,0,.17-.18.57.57,0,0,0,0-.26Z"/><path class="cls-2" d="M63.61,44l0,.23-.21,0a.45.45,0,0,1-.22,0,.28.28,0,0,1-.12-.12.92.92,0,0,1,0-.3v-.88h-.19v-.21h.19v-.38l.27-.15v.53h.27v.21h-.27v.89a.53.53,0,0,0,0,.15l0,0h.21Z"/><path class="cls-2" d="M64,42.39v-.3h.27v.3Zm0,1.82V42.67h.27v1.54Z"/><path class="cls-2" d="M64.68,43.44a.8.8,0,0,1,.25-.63.76.76,0,0,1,.5-.17.72.72,0,0,1,.53.21.74.74,0,0,1,.21.57,1,1,0,0,1-.1.46.62.62,0,0,1-.26.27.85.85,0,0,1-.38.09.75.75,0,0,1-.54-.2A.81.81,0,0,1,64.68,43.44Zm.28,0a.63.63,0,0,0,.13.44.43.43,0,0,0,.34.15.43.43,0,0,0,.33-.15.65.65,0,0,0,.13-.45.67.67,0,0,0-.13-.43.43.43,0,0,0-.33-.15.43.43,0,0,0-.34.15A.63.63,0,0,0,65,43.44Z"/><path class="cls-2" d="M66.6,44.21V42.67h.24v.22a.57.57,0,0,1,.5-.25.55.55,0,0,1,.26,0,.42.42,0,0,1,.18.13.56.56,0,0,1,.09.19,1.56,1.56,0,0,1,0,.25v1h-.27v-.94a.67.67,0,0,0,0-.23.2.2,0,0,0-.11-.13.35.35,0,0,0-.18,0A.44.44,0,0,0,67,43a.52.52,0,0,0-.12.4v.84Z"/><path class="cls-2" d="M61.88,58.24l-1.11,2.08-.28.53-.15.29-.61,1.12-.24.45-2.1,3.93c-.11.2-.28.2-.38,0l-.81-1.56a.76.76,0,0,0-.6-.37l-1.87,0c-.23,0-.32-.17-.2-.36l2.17-3.56.16-.25h0l.76-1.24.12-.21,1.69-2.75,2.39,1.33Z"/><path class="cls-2" d="M67.66,64.93l-1.88,0a.81.81,0,0,0-.62.35l-.85,1.53c-.11.2-.29.19-.39,0l-2-4-.23-.47-.5-1-.16-.32-.3-.62-1-2.12,1.09-.56,2.43-1.25L65,59.46l.12.22.56,1,.16.28h0l2,3.62C68,64.77,67.88,64.93,67.66,64.93Z"/><path class="cls-3" d="M68.21,56.4a2.07,2.07,0,0,0,0,.79,5.19,5.19,0,0,1,0,1.1.92.92,0,0,1-.13.36c-.36.6-1.42.65-1.93,1.14a3,3,0,0,0-.51.88,2,2,0,0,1-.7,1c-.61.34-1.56-.14-2.24,0a3.09,3.09,0,0,0-1,.58,1.69,1.69,0,0,1-1,.44,1.66,1.66,0,0,1-1-.47,3.06,3.06,0,0,0-1-.62c-.68-.2-1.65.25-2.24-.11a2,2,0,0,1-.66-1,2.91,2.91,0,0,0-.48-.91c-.49-.5-1.55-.6-1.89-1.21a1,1,0,0,1-.1-.29,4.17,4.17,0,0,1,.08-1.25,2.1,2.1,0,0,0,0-.71c-.14-.56-.78-1.08-1-1.66a1,1,0,0,1-.06-.33c0-.72.91-1.3,1.1-2l0-.15a4.6,4.6,0,0,0-.05-1.1,1.61,1.61,0,0,1,.13-1c.36-.61,1.42-.66,1.93-1.15s.59-1.55,1.21-1.89,1.55.15,2.24,0,1.28-1,2-1,1.3.91,2,1.1,1.64-.26,2.24.1.66,1.43,1.14,1.93,1.55.6,1.89,1.22a1.48,1.48,0,0,1,.1.92,4.48,4.48,0,0,0-.08,1.25s0,0,0,.07c.17.67,1,1.28,1,2a1.07,1.07,0,0,1-.06.3C69.05,55.33,68.37,55.84,68.21,56.4Z"/><path class="cls-2" d="M66.76,54.4a.08.08,0,0,0,0,0h0v-.1c-.13-.41-.59-.77-.68-1.17s.21-1.14,0-1.56-1-.5-1.32-.85-.38-1.1-.8-1.35-1.09.06-1.57-.07-.86-.76-1.37-.77-.92.6-1.39.72-1.14-.22-1.57,0-.49,1-.84,1.32-1.1.37-1.35.79a.62.62,0,0,0-.09.26h0v.06h0v.19c0,.07,0,.14,0,.22v.07a1.64,1.64,0,0,1,0,.22h0a.71.71,0,0,1,0,.14v0a1.34,1.34,0,0,1,0,.35v0s0,0,0,0,0,0,0,0l0,0,0,0,0,.07c-.12.18-.28.36-.41.54l0,.05A1.35,1.35,0,0,0,55,54l0,0v0h0v0a0,0,0,0,1,0,0h0a0,0,0,0,1,0,0v.1c0,.5.6.93.71,1.39a.09.09,0,0,1,0,.05h0a.06.06,0,0,1,0,0v.05a.09.09,0,0,1,0,0V56h0a.28.28,0,0,0,0,.09h0s0,.05,0,.08,0,.06,0,.08v0c0,.1,0,.19,0,.29s0,0,0,.05,0,.08,0,.12a.81.81,0,0,0,0,.22h0a.7.7,0,0,0,.08.29.44.44,0,0,0,.08.11,1,1,0,0,0,.22.18l.07,0,.11.06.1,0,.19.09.14.06.14.07a1.11,1.11,0,0,1,.27.2c.34.35.38,1.09.8,1.35s1.09-.07,1.57.07a1.29,1.29,0,0,1,.39.22l.05,0,.06,0,.12.1.09.06a1.37,1.37,0,0,0,.21.15.94.94,0,0,0,.44.16c.51,0,.93-.6,1.4-.72a1.67,1.67,0,0,1,.59,0l.11,0h.08a1.5,1.5,0,0,0,.7,0l.09,0,0,0,.07-.06c.33-.29.41-.93.73-1.24a4,4,0,0,1,1-.47l0,0a1,1,0,0,0,.24-.17.76.76,0,0,0,.11-.14l0,0s0,0,0,0a1,1,0,0,0,0-.39v-.21a.11.11,0,0,0,0-.05v-.23c0-.07,0-.14,0-.21v-.15s0,0,0-.08v0h0v-.06s0,0,0,0a1.07,1.07,0,0,1,.2-.38l.06-.09,0,0,.09-.12.07-.08.15-.21s0-.09.07-.13l0-.09a.62.62,0,0,0,0-.23Zm-1.23.06A4.67,4.67,0,1,1,61,49.71,4.67,4.67,0,0,1,65.53,54.46Z"/><path class="cls-2" d="M63.05,53.6l-.89-.14a.85.85,0,0,1-.59-.44l-.39-.81c-.1-.21-.27-.21-.37,0l-.41.8a.86.86,0,0,1-.6.43l-.89.12c-.23,0-.28.19-.12.35l.64.64a.9.9,0,0,1,.22.7l-.16.89c0,.22.09.32.3.22l.8-.41a.87.87,0,0,1,.74,0l.79.43c.2.11.34,0,.3-.22l-.14-.88a.92.92,0,0,1,.23-.71l.65-.62C63.33,53.79,63.28,53.63,63.05,53.6Z"/></svg>