<svg id="Layer_1" data-name="Layer 1" xmlns="http://www.w3.org/2000/svg" viewBox="0 0 90 100"><defs><style>.cls-1{fill:#fff;stroke-miterlimit:10;}.cls-1,.cls-2{stroke:#74af27;}.cls-2{fill:none;stroke-linejoin:round;stroke-width:0.97px;}.cls-3{fill:#74af27;}</style></defs><title>EV-Connectors_Leads-CEEPlug</title><circle class="cls-1" cx="45" cy="37.74" r="28.35"/><path class="cls-2" d="M58.11,37A13.13,13.13,0,0,1,47.22,49.93a2.31,2.31,0,0,1-4.44,0A13.11,13.11,0,1,1,58.11,37Z"/><circle class="cls-2" cx="45" cy="37" r="10.68"/><circle class="cls-2" cx="45" cy="42.15" r="1.89"/><circle class="cls-2" cx="40.67" cy="34.14" r="1.7"/><circle class="cls-2" cx="49.33" cy="34.14" r="1.7"/><path class="cls-3" d="M36.53,73.85v0a3.17,3.17,0,0,1,3.19-3.25,3.27,3.27,0,0,1,2.46,1l-.49.52a2.73,2.73,0,0,0-2-.87,2.47,2.47,0,0,0-2.44,2.59h0a2.49,2.49,0,0,0,2.44,2.61,2.75,2.75,0,0,0,2-.91l.47.46a3.31,3.31,0,0,1-2.52,1.1A3.14,3.14,0,0,1,36.53,73.85Z"/><path class="cls-3" d="M43.18,70.68h4.56v.65H43.89v2.15h3.44v.65H43.89v2.21h3.89V77h-4.6Z"/><path class="cls-3" d="M48.94,70.68H53.5v.65H49.65v2.15h3.44v.65H49.65v2.21h3.89V77h-4.6Z"/><path class="cls-3" d="M36.35,81.68h2.36c1.42,0,2.35.76,2.35,2v0c0,1.36-1.13,2.06-2.47,2.06H37.06V88h-.71Zm2.27,3.43c1,0,1.72-.55,1.72-1.38v0c0-.9-.67-1.37-1.69-1.37H37.06v2.77Z"/><path class="cls-3" d="M42,81.41h.69V88H42Z"/><path class="cls-3" d="M44,86.22V83.33h.69v2.72A1.24,1.24,0,0,0,46,87.45,1.37,1.37,0,0,0,47.37,86V83.33h.69V88h-.69v-.81a1.76,1.76,0,0,1-1.59.9A1.69,1.69,0,0,1,44,86.22Z"/><path class="cls-3" d="M49.29,88.8l.31-.54a3,3,0,0,0,1.8.59,1.53,1.53,0,0,0,1.69-1.66v-.55a2.22,2.22,0,0,1-1.83,1,2.15,2.15,0,0,1-2.19-2.18v0a2.2,2.2,0,0,1,4-1.26v-.84h.69v3.85a2.22,2.22,0,0,1-.59,1.64,2.44,2.44,0,0,1-1.78.62A3.65,3.65,0,0,1,49.29,88.8Zm3.82-3.36v0a1.64,1.64,0,0,0-1.71-1.58,1.55,1.55,0,0,0-1.62,1.57v0A1.57,1.57,0,0,0,51.4,87,1.64,1.64,0,0,0,53.11,85.44Z"/></svg>