<svg id="Layer_1" data-name="Layer 1" xmlns="http://www.w3.org/2000/svg" viewBox="0 0 90 100"><defs><style>.cls-1{fill:#fff;stroke:#74af27;stroke-miterlimit:10;}.cls-2{fill:#74af27;}</style></defs><title>EV-Certifications_Awards-CBCertified</title><circle class="cls-1" cx="45" cy="37.74" r="28.35"/><path class="cls-2" d="M39.18,73.85v0a3.17,3.17,0,0,1,3.18-3.25,3.25,3.25,0,0,1,2.46,1l-.48.52a2.75,2.75,0,0,0-2-.87,2.47,2.47,0,0,0-2.43,2.59h0a2.49,2.49,0,0,0,2.43,2.61,2.76,2.76,0,0,0,2-.91l.47.46a3.31,3.31,0,0,1-2.52,1.1A3.14,3.14,0,0,1,39.18,73.85Z"/><path class="cls-2" d="M45.83,70.68h2.68a2.33,2.33,0,0,1,1.65.56,1.41,1.41,0,0,1,.4,1v0a1.52,1.52,0,0,1-1,1.46c.75.22,1.36.65,1.36,1.52v0c0,1.08-.91,1.72-2.29,1.72h-2.8Zm4,1.67c0-.62-.49-1-1.39-1H46.53v2.17h1.86c.86,0,1.45-.38,1.45-1.12Zm-1.32,1.77h-2v2.23h2.12c1,0,1.54-.43,1.54-1.13v0C50.19,74.52,49.62,74.12,48.52,74.12Z"/><path class="cls-2" d="M27.3,84.85v0a3.17,3.17,0,0,1,3.19-3.25,3.27,3.27,0,0,1,2.46,1l-.49.52a2.71,2.71,0,0,0-2-.87A2.47,2.47,0,0,0,28,84.82h0a2.49,2.49,0,0,0,2.44,2.61,2.75,2.75,0,0,0,2-.91L33,87a3.27,3.27,0,0,1-2.52,1.1A3.14,3.14,0,0,1,27.3,84.85Z"/><path class="cls-2" d="M33.46,85.67v0a2.29,2.29,0,0,1,2.23-2.42,2.22,2.22,0,0,1,2.17,2.46,1.77,1.77,0,0,1,0,.23H34.16a1.63,1.63,0,0,0,1.64,1.57,1.92,1.92,0,0,0,1.47-.66l.43.39a2.42,2.42,0,0,1-1.92.87A2.31,2.31,0,0,1,33.46,85.67Zm3.7-.27a1.53,1.53,0,0,0-1.49-1.58,1.6,1.6,0,0,0-1.51,1.58Z"/><path class="cls-2" d="M38.8,83.33h.7v1.22a2,2,0,0,1,1.9-1.3V84h-.06a1.88,1.88,0,0,0-1.84,2.13V88h-.7Z"/><path class="cls-2" d="M42.42,86.75V83.94h-.65v-.61h.65v-1.4h.7v1.4h1.47v.61H43.12v2.72a.69.69,0,0,0,.78.78,1.42,1.42,0,0,0,.67-.17v.6a1.79,1.79,0,0,1-.83.2A1.19,1.19,0,0,1,42.42,86.75Z"/><path class="cls-2" d="M45.56,81.55h.8v.76h-.8Zm0,1.78h.69V88h-.69Z"/><path class="cls-2" d="M47.9,83.94h-.64v-.6h.64v-.4a1.64,1.64,0,0,1,.41-1.2,1.33,1.33,0,0,1,1-.36,1.9,1.9,0,0,1,.76.12v.6A2.37,2.37,0,0,0,49.4,82c-.54,0-.81.32-.81,1v.38h1.47v.59H48.6v4h-.7ZM51,81.55h.8v.76H51ZM51,83.33h.68V88H51Z"/><path class="cls-2" d="M52.76,85.67v0A2.3,2.3,0,0,1,55,83.23a2.22,2.22,0,0,1,2.17,2.46,1.77,1.77,0,0,1,0,.23H53.47a1.62,1.62,0,0,0,1.63,1.57,1.92,1.92,0,0,0,1.47-.66l.43.39a2.38,2.38,0,0,1-1.91.87A2.32,2.32,0,0,1,52.76,85.67Zm3.7-.27A1.53,1.53,0,0,0,55,83.82a1.6,1.6,0,0,0-1.51,1.58Z"/><path class="cls-2" d="M57.84,85.67v0a2.28,2.28,0,0,1,2.22-2.42,2.11,2.11,0,0,1,1.79,1V81.41h.69V88h-.69v-.94a2.09,2.09,0,0,1-1.79,1A2.27,2.27,0,0,1,57.84,85.67Zm4,0v0a1.73,1.73,0,0,0-1.68-1.79,1.65,1.65,0,0,0-1.64,1.79v0a1.68,1.68,0,0,0,1.64,1.8A1.74,1.74,0,0,0,61.87,85.66Z"/><path class="cls-2" d="M48.36,28.63h7a8.43,8.43,0,0,1,2.82.42,4.39,4.39,0,0,1,2.16,6.69A8.56,8.56,0,0,1,59,37a2.7,2.7,0,0,1-.32.19l.49.19A4.39,4.39,0,0,1,62,42,4.64,4.64,0,0,1,59,46.22a7,7,0,0,1-2.29.52c-2.78.08-5.55.06-8.33.08h0Zm2.38,16,.09,0H54c.92,0,1.83,0,2.74-.07A2.89,2.89,0,0,0,59.22,43a3.37,3.37,0,0,0,.29-1.71,2.68,2.68,0,0,0-1.95-2.54,8.17,8.17,0,0,0-2-.3c-1.54,0-3.08,0-4.63,0h-.22Zm0-8.38h.33c1.19,0,2.38,0,3.58,0a14.23,14.23,0,0,0,1.84-.13,2.54,2.54,0,0,0,1.87-1.07,2.67,2.67,0,0,0-1.92-4.16c-1.87-.13-3.76-.09-5.64-.13l-.06,0Z"/><path class="cls-2" d="M43.72,33.64l-2.32.55c-.16-.38-.3-.75-.47-1.1a4.4,4.4,0,0,0-4.21-2.68,5.46,5.46,0,0,0-5.88,4.48,11.18,11.18,0,0,0,.39,6.84A5.11,5.11,0,0,0,36,45.05a5,5,0,0,0,4.4-1.76,6.26,6.26,0,0,0,1.23-2.62l.07-.21L44,41a.55.55,0,0,1,0,.13,7.58,7.58,0,0,1-3.91,5.2,8.41,8.41,0,0,1-4.45.74,8.56,8.56,0,0,1-2.95-.67A7,7,0,0,1,29,42.54a12,12,0,0,1-.19-9.25,7.59,7.59,0,0,1,6.27-4.84,8.3,8.3,0,0,1,4.72.5A6.88,6.88,0,0,1,43.72,33.64Z"/></svg>