<svg id="Layer_1" data-name="Layer 1" xmlns="http://www.w3.org/2000/svg" viewBox="0 0 90 100"><defs><style>.cls-1{fill:#fff;stroke-miterlimit:10;}.cls-1,.cls-3{stroke:#74af27;}.cls-2{fill:#74af27;}.cls-3{fill:none;stroke-linecap:round;stroke-linejoin:round;}</style></defs><title>EV-Connectivity-GPRSConnectivity</title><circle class="cls-1" cx="45" cy="37.74" r="28.35"/><path class="cls-2" d="M33.35,73.85v0a3.16,3.16,0,0,1,3.16-3.25,3.33,3.33,0,0,1,2.35.83L38.4,72a2.71,2.71,0,0,0-1.92-.72,2.46,2.46,0,0,0-2.39,2.59h0a2.44,2.44,0,0,0,2.49,2.63,2.92,2.92,0,0,0,1.82-.64V74.26H36.48v-.64h2.6v2.51a3.8,3.8,0,0,1-2.53,1A3.09,3.09,0,0,1,33.35,73.85Z"/><path class="cls-2" d="M40.42,70.68h2.35c1.43,0,2.36.76,2.36,2v0c0,1.36-1.13,2.06-2.47,2.06H41.13V77h-.71Zm2.26,3.43c1,0,1.73-.55,1.73-1.38v0c0-.9-.67-1.37-1.69-1.37H41.13v2.77Z"/><path class="cls-2" d="M46.16,70.68h2.71a2.52,2.52,0,0,1,1.79.63,1.79,1.79,0,0,1,.49,1.25h0a1.85,1.85,0,0,1-1.72,1.84L51.37,77H50.5l-1.83-2.45h-1.8V77h-.71ZM48.8,73.9c1,0,1.62-.49,1.62-1.3v0c0-.77-.59-1.24-1.61-1.24H46.87V73.9Z"/><path class="cls-2" d="M52,76.07l.44-.53a3,3,0,0,0,2.16.9c.85,0,1.41-.45,1.41-1.07v0c0-.59-.32-.92-1.64-1.2s-2.12-.78-2.12-1.82v0a1.86,1.86,0,0,1,2.07-1.72,3.32,3.32,0,0,1,2.22.78l-.42.55a2.75,2.75,0,0,0-1.82-.69c-.81,0-1.34.45-1.34,1v0c0,.59.33.93,1.71,1.22s2.06.82,2.06,1.79h0c0,1.08-.9,1.79-2.16,1.79A3.72,3.72,0,0,1,52,76.07Z"/><path class="cls-2" d="M18.83,84.85v0A3.17,3.17,0,0,1,22,81.58a3.27,3.27,0,0,1,2.46,1L24,83.1a2.71,2.71,0,0,0-2-.87,2.48,2.48,0,0,0-2.44,2.59h0A2.49,2.49,0,0,0,22,87.44a2.77,2.77,0,0,0,2-.91l.46.46A3.27,3.27,0,0,1,22,88.09,3.14,3.14,0,0,1,18.83,84.85Z"/><path class="cls-2" d="M25,85.68v0a2.41,2.41,0,0,1,2.43-2.43,2.39,2.39,0,0,1,2.42,2.41v0a2.41,2.41,0,0,1-2.44,2.43A2.38,2.38,0,0,1,25,85.68Zm4.14,0v0a1.76,1.76,0,0,0-1.73-1.82,1.72,1.72,0,0,0-1.7,1.8v0a1.75,1.75,0,0,0,1.72,1.81A1.72,1.72,0,0,0,29.13,85.68Z"/><path class="cls-2" d="M30.82,83.33h.69v.81a1.79,1.79,0,0,1,1.6-.91,1.7,1.7,0,0,1,1.78,1.87V88H34.2V85.27a1.24,1.24,0,0,0-1.29-1.41,1.38,1.38,0,0,0-1.4,1.46V88h-.69Z"/><path class="cls-2" d="M36.1,83.33h.69v.81a1.76,1.76,0,0,1,1.59-.91,1.7,1.7,0,0,1,1.78,1.87V88h-.69V85.27a1.24,1.24,0,0,0-1.29-1.41,1.37,1.37,0,0,0-1.39,1.46V88H36.1Z"/><path class="cls-2" d="M41.08,85.67v0a2.3,2.3,0,0,1,2.23-2.42,2.22,2.22,0,0,1,2.17,2.46,1.77,1.77,0,0,1,0,.23H41.78a1.63,1.63,0,0,0,1.64,1.57,1.92,1.92,0,0,0,1.47-.66l.43.39a2.4,2.4,0,0,1-1.92.87A2.32,2.32,0,0,1,41.08,85.67Zm3.7-.27a1.53,1.53,0,0,0-1.48-1.58,1.61,1.61,0,0,0-1.52,1.58Z"/><path class="cls-2" d="M46.14,85.68v0a2.42,2.42,0,0,1,4.25-1.6l-.46.49a1.87,1.87,0,0,0-1.41-.71,1.72,1.72,0,0,0-1.67,1.8v0a1.74,1.74,0,0,0,1.71,1.81A1.91,1.91,0,0,0,50,86.78l.44.41a2.35,2.35,0,0,1-1.9.9A2.39,2.39,0,0,1,46.14,85.68Z"/><path class="cls-2" d="M51.54,86.75V83.94h-.65v-.61h.65v-1.4h.69v1.4h1.48v.61H52.23v2.72a.7.7,0,0,0,.79.78,1.42,1.42,0,0,0,.67-.17v.6a1.8,1.8,0,0,1-.84.2A1.19,1.19,0,0,1,51.54,86.75Z"/><path class="cls-2" d="M54.68,81.55h.79v.76h-.79Zm0,1.78h.69V88h-.69Z"/><path class="cls-2" d="M56.3,83.33h.76l1.57,3.86,1.58-3.86H61l-2,4.69h-.61Z"/><path class="cls-2" d="M61.79,81.55h.79v.76h-.79Zm0,1.78h.7V88h-.7Z"/><path class="cls-2" d="M64.11,86.75V83.94h-.65v-.61h.65v-1.4h.69v1.4h1.48v.61H64.8v2.72a.7.7,0,0,0,.79.78,1.42,1.42,0,0,0,.67-.17v.6a1.79,1.79,0,0,1-.83.2A1.19,1.19,0,0,1,64.11,86.75Z"/><path class="cls-2" d="M70.72,83.33h.74l-2,4.81c-.39,1-.84,1.31-1.55,1.31a2.19,2.19,0,0,1-1-.23l.24-.55a1.41,1.41,0,0,0,.73.17c.41,0,.67-.21.95-.87l-2.11-4.64h.76l1.69,3.88Z"/><circle class="cls-2" cx="44.97" cy="28.79" r="2.81"/><polygon class="cls-3" points="44.97 31.17 34.68 56.91 51.66 47.55 44.97 31.17"/><polyline class="cls-3" points="41.59 39.62 51.66 47.55 55.06 56.91 38.5 47.35 48.32 39.37"/><path class="cls-3" d="M41,32.88a5.79,5.79,0,0,1-.32-7.83"/><path class="cls-3" d="M49.13,24.68a5.78,5.78,0,0,1,0,8.2"/><path class="cls-3" d="M38.18,35.69a9.55,9.55,0,0,1-.13-13.58"/><path class="cls-3" d="M51.6,22.07a9.56,9.56,0,0,1,.06,13.46"/><path class="cls-3" d="M35.71,38.17a13.13,13.13,0,0,1-.09-18.49"/><path class="cls-3" d="M54.29,19.59a13.15,13.15,0,0,1,.11,18.48"/></svg>