<svg id="Layer_1" data-name="Layer 1" xmlns="http://www.w3.org/2000/svg" xmlns:xlink="http://www.w3.org/1999/xlink" viewBox="0 0 90 100"><defs><style>.cls-1,.cls-5,.cls-6{fill:none;}.cls-2{fill:#74af27;}.cls-3{fill:#fff;}.cls-4{clip-path:url(#clip-path);}.cls-5,.cls-6{stroke:#74af27;stroke-miterlimit:10;}.cls-5{stroke-width:0.7px;}</style><clipPath id="clip-path"><circle class="cls-1" cx="44.94" cy="37.74" r="28.35"/></clipPath></defs><title>EV-Certifications_Awards-EMCCertified</title><path class="cls-2" d="M35.92,70.68h4.56v.65H36.63v2.15h3.44v.65H36.63v2.21h3.89V77h-4.6Z"/><path class="cls-2" d="M41.68,70.68h.72l2.3,3.44L47,70.68h.72V77H47V71.88l-2.29,3.38h0l-2.29-3.37V77h-.7Z"/><path class="cls-2" d="M48.94,73.85v0a3.17,3.17,0,0,1,3.19-3.25,3.27,3.27,0,0,1,2.46,1l-.49.52a2.71,2.71,0,0,0-2-.87,2.48,2.48,0,0,0-2.44,2.59h0a2.5,2.5,0,0,0,2.44,2.61,2.77,2.77,0,0,0,2-.91l.47.46a3.31,3.31,0,0,1-2.53,1.1A3.15,3.15,0,0,1,48.94,73.85Z"/><path class="cls-2" d="M27.3,84.85v0a3.17,3.17,0,0,1,3.19-3.25,3.27,3.27,0,0,1,2.46,1l-.49.52a2.71,2.71,0,0,0-2-.87A2.48,2.48,0,0,0,28,84.82h0a2.49,2.49,0,0,0,2.44,2.61,2.77,2.77,0,0,0,2-.91L33,87a3.27,3.27,0,0,1-2.52,1.1A3.14,3.14,0,0,1,27.3,84.85Z"/><path class="cls-2" d="M33.46,85.67v0a2.3,2.3,0,0,1,2.23-2.42,2.22,2.22,0,0,1,2.17,2.46,1.77,1.77,0,0,1,0,.23H34.16a1.63,1.63,0,0,0,1.64,1.57,1.92,1.92,0,0,0,1.47-.66l.43.39a2.4,2.4,0,0,1-1.92.87A2.31,2.31,0,0,1,33.46,85.67Zm3.7-.27a1.53,1.53,0,0,0-1.49-1.58,1.6,1.6,0,0,0-1.51,1.58Z"/><path class="cls-2" d="M38.81,83.33h.69v1.22a2,2,0,0,1,1.9-1.3V84h-.06a1.88,1.88,0,0,0-1.84,2.13V88h-.69Z"/><path class="cls-2" d="M42.42,86.75V83.94h-.64v-.61h.64v-1.4h.7v1.4h1.47v.61H43.12v2.72a.69.69,0,0,0,.78.78,1.6,1.6,0,0,0,.68-.16v.59a1.74,1.74,0,0,1-.84.2A1.19,1.19,0,0,1,42.42,86.75Z"/><path class="cls-2" d="M45.56,81.55h.8v.76h-.8Zm0,1.78h.69V88h-.69Z"/><path class="cls-2" d="M47.9,83.94h-.63v-.6h.63v-.4a1.64,1.64,0,0,1,.41-1.2,1.35,1.35,0,0,1,1-.36,1.9,1.9,0,0,1,.76.12v.6A2.37,2.37,0,0,0,49.4,82q-.81,0-.81,1v.38h1.48v.59H48.6v4h-.7ZM51,81.55h.79v.76H51ZM51,83.33h.68V88H51Z"/><path class="cls-2" d="M52.76,85.67v0A2.3,2.3,0,0,1,55,83.23a2.22,2.22,0,0,1,2.17,2.46,1.77,1.77,0,0,1,0,.23H53.47a1.63,1.63,0,0,0,1.64,1.57,1.92,1.92,0,0,0,1.46-.66l.43.39a2.38,2.38,0,0,1-1.91.87A2.32,2.32,0,0,1,52.76,85.67Zm3.7-.27A1.53,1.53,0,0,0,55,83.82a1.6,1.6,0,0,0-1.51,1.58Z"/><path class="cls-2" d="M57.84,85.67v0a2.28,2.28,0,0,1,2.22-2.42,2.11,2.11,0,0,1,1.79,1V81.41h.69V88h-.69v-.94a2.09,2.09,0,0,1-1.79,1A2.27,2.27,0,0,1,57.84,85.67Zm4,0h0a1.73,1.73,0,0,0-1.68-1.8,1.65,1.65,0,0,0-1.64,1.8h0a1.68,1.68,0,0,0,1.64,1.8A1.73,1.73,0,0,0,61.87,85.66Z"/><circle class="cls-3" cx="45" cy="37.74" r="28.35"/><g class="cls-4"><circle class="cls-5" cx="45.29" cy="36.35" r="2.17"/><path class="cls-5" d="M46.67,41.09l3,14.26H40.38l3-14.26A2.76,2.76,0,0,0,46.67,41.09Z"/><path class="cls-5" d="M42.12,39.71h0a4.7,4.7,0,0,1-1.49-3.45A4.75,4.75,0,0,1,42,32.91l-2.38-2.18A8.22,8.22,0,0,0,39.85,42h0Z"/><path class="cls-5" d="M50.35,41.82a8.23,8.23,0,0,0,.13-11l-2.27,2.31A4.75,4.75,0,0,1,48,39.63l.36.33Z"/><path class="cls-5" d="M37.84,44.08a11.31,11.31,0,0,1-.33-15.28l-2.37-2.17a14.76,14.76,0,0,0,.44,19.76h0Z"/><path class="cls-5" d="M54.84,45.92a14.76,14.76,0,0,0-.09-19.42l-2.26,2.3a11.3,11.3,0,0,1,0,15l.36.32Z"/><path class="cls-5" d="M33.56,48.44A17.85,17.85,0,0,1,33,24.7l-2.37-2.17a21.3,21.3,0,0,0,.64,28.22l0,0Z"/><path class="cls-5" d="M59.32,50A21.23,21.23,0,0,0,59,22.15l-2.25,2.3A17.83,17.83,0,0,1,57,47.85l.35.32Z"/></g><circle class="cls-6" cx="45" cy="37.74" r="28.35"/></svg>