<svg id="Layer_1" data-name="Layer 1" xmlns="http://www.w3.org/2000/svg" xmlns:xlink="http://www.w3.org/1999/xlink" viewBox="0 0 90 100"><defs><style>.cls-1,.cls-3,.cls-5,.cls-6,.cls-7{fill:none;}.cls-2{fill:#fff;}.cls-2,.cls-3,.cls-6,.cls-7{stroke:#74af27;}.cls-2,.cls-6,.cls-7{stroke-miterlimit:10;}.cls-3,.cls-5{stroke-linecap:round;stroke-linejoin:round;stroke-width:0.77px;}.cls-4{fill:#74af27;}.cls-5{stroke:#fff;}.cls-6{stroke-width:0.61px;}.cls-7{stroke-width:0.31px;}.cls-8{clip-path:url(#clip-path);}</style><clipPath id="clip-path"><circle class="cls-1" cx="44.92" cy="37.7" r="28.35"/></clipPath></defs><title>EV-Connectors_Leads-Type1-5mTetheredLead</title><circle class="cls-2" cx="45" cy="37.78" r="28.35"/><path class="cls-3" d="M68,32.76l-1.69-2.33a1.11,1.11,0,0,0-.13-.85,1.71,1.71,0,0,0-.68-.43S61,22.47,48.84,21.85a23.47,23.47,0,0,0-1.18,8.3l3.15.4a3.67,3.67,0,0,0,2.46-1.08s2.51-1.73,7.39,2a4,4,0,0,1,1.21,1.78s0,.76,1,.61l2.27,1.46a1.1,1.1,0,0,0,1.23.08,4.58,4.58,0,0,0,1.47-1.34S68.45,33.35,68,32.76Z"/><path class="cls-4" d="M46.59,29.87a23.36,23.36,0,0,1,1.19-8.3l-.31-.07-.26.52-3.83-.51s-.54-.29-.8.6a15.23,15.23,0,0,0-.79,6.08,1,1,0,0,0,.63.55l3.75.5a4,4,0,0,1,.08.58Z"/><path class="cls-4" d="M65.53,29.15c.17-.4.68.43.68.43a1.11,1.11,0,0,1,.13.85L68,32.76c.42.59-.15,1.31-.15,1.31a4.58,4.58,0,0,1-1.47,1.34,1.1,1.1,0,0,1-1.23-.08l-2.27-1.46c-1,.15-1-.61-1-.61A8.72,8.72,0,0,0,65.53,29.15Z"/><path class="cls-5" d="M63.66,33.5a8.56,8.56,0,0,0,2.25-2.44"/><path class="cls-5" d="M63.84,35.21s.44,0,1.35-.87"/><path class="cls-5" d="M67.24,33.3a2.89,2.89,0,0,0,.57-2"/><path class="cls-4" d="M49.72,20.6s-1.73,1.34-.25,2.13c2.57,1.37,5.75.08,11.21,3.21,0,0,3,1,.92-1.42C61.6,24.52,59.18,21.69,49.72,20.6Z"/><circle class="cls-6" cx="31.5" cy="39.21" r="9.27"/><path class="cls-4" d="M30.58,48.44V50h1.91v-1.6A6.74,6.74,0,0,1,30.58,48.44Z"/><circle class="cls-6" cx="27.88" cy="36.07" r="2.11"/><circle class="cls-6" cx="35.24" cy="36.07" r="2.11"/><circle class="cls-7" cx="26.56" cy="41.89" r="1.54"/><circle class="cls-7" cx="36.58" cy="41.89" r="1.54"/><circle class="cls-6" cx="31.5" cy="44.34" r="2.11"/><g class="cls-8"><path class="cls-3" d="M67,35.31v6.22a1.67,1.67,0,0,1-1.88,1.78H46.56c-2.15,0-2.15,1.74-2.15,1.74,0,1.72,2.34,1.63,2.34,1.63H59.51c2.21,0,2.17,1.69,2.17,1.69,0,1.68-2.08,1.59-2.08,1.59h-13a2,2,0,0,0-2.23,1.85c0,1.94,2.42,1.71,2.42,1.71h7.43a2.86,2.86,0,0,1,3.15,3.33V65.1"/></g><path class="cls-4" d="M33.22,71.38H31.1v-.65h5v.65H33.94V77h-.72Z"/><path class="cls-4" d="M39.7,72.37h.74l-1.95,4.81c-.4,1-.85,1.31-1.55,1.31a2.13,2.13,0,0,1-1-.23l.23-.55a1.43,1.43,0,0,0,.73.17c.41,0,.67-.21,1-.87l-2.11-4.64h.76l1.7,3.88Z"/><path class="cls-4" d="M41.27,72.37H42v.94a2.1,2.1,0,0,1,1.78-1A2.27,2.27,0,0,1,46,74.69h0a2.28,2.28,0,0,1-2.22,2.43,2.11,2.11,0,0,1-1.78-1v2.33h-.69Zm4,2.34h0a1.68,1.68,0,0,0-1.63-1.81,1.74,1.74,0,0,0-1.69,1.8h0a1.73,1.73,0,0,0,1.69,1.8A1.63,1.63,0,0,0,45.25,74.71Z"/><path class="cls-4" d="M46.68,74.71h0a2.3,2.3,0,0,1,2.24-2.43,2.22,2.22,0,0,1,2.17,2.46,1.69,1.69,0,0,1,0,.23H47.39A1.62,1.62,0,0,0,49,76.53a1.92,1.92,0,0,0,1.47-.66l.43.39a2.38,2.38,0,0,1-1.91.87A2.32,2.32,0,0,1,46.68,74.71Zm3.7-.27a1.53,1.53,0,0,0-1.48-1.58,1.6,1.6,0,0,0-1.51,1.58Z"/><path class="cls-4" d="M55.3,71.42l-1.19.37-.17-.58,1.54-.53H56V77h-.7Z"/><path class="cls-4" d="M7.13,87.14l.47-.52a2.65,2.65,0,0,0,1.79.87,1.42,1.42,0,0,0,1.52-1.4v0a1.39,1.39,0,0,0-1.56-1.32A2.73,2.73,0,0,0,8,85.11l-.47-.32.18-3.06h3.62v.65h-3l-.14,2a2.88,2.88,0,0,1,1.25-.28,2,2,0,0,1,2.17,1.93h0a2.06,2.06,0,0,1-2.25,2.07A3.24,3.24,0,0,1,7.13,87.14Z"/><path class="cls-4" d="M12.67,83.37h.69v.79a1.71,1.71,0,0,1,1.5-.89,1.59,1.59,0,0,1,1.5.93A1.86,1.86,0,0,1,18,83.27a1.68,1.68,0,0,1,1.73,1.88V88H19V85.31c0-.9-.45-1.41-1.2-1.41a1.3,1.3,0,0,0-1.28,1.44V88h-.7V85.29c0-.87-.45-1.39-1.19-1.39a1.36,1.36,0,0,0-1.3,1.47V88h-.69Z"/><path class="cls-4" d="M25.17,82.38H23.05v-.65H28v.65H25.89V88h-.72Z"/><path class="cls-4" d="M27.52,85.71h0a2.29,2.29,0,0,1,2.23-2.43,2.22,2.22,0,0,1,2.17,2.46,1.69,1.69,0,0,1,0,.23H28.22a1.63,1.63,0,0,0,1.64,1.57,1.92,1.92,0,0,0,1.47-.66l.43.39a2.42,2.42,0,0,1-1.92.87A2.31,2.31,0,0,1,27.52,85.71Zm3.7-.27a1.53,1.53,0,0,0-1.49-1.58,1.6,1.6,0,0,0-1.51,1.58Z"/><path class="cls-4" d="M33.11,86.79V84h-.65v-.61h.65V82h.69v1.4h1.48V84H33.8V86.7a.69.69,0,0,0,.78.78,1.57,1.57,0,0,0,.68-.16v.59a1.74,1.74,0,0,1-.84.2A1.18,1.18,0,0,1,33.11,86.79Z"/><path class="cls-4" d="M36.23,81.46h.69v2.72a1.78,1.78,0,0,1,1.6-.91,1.7,1.7,0,0,1,1.78,1.87V88h-.69V85.31a1.24,1.24,0,0,0-1.29-1.41,1.38,1.38,0,0,0-1.4,1.46V88h-.69Z"/><path class="cls-4" d="M41.21,85.71h0a2.3,2.3,0,0,1,2.24-2.43,2.22,2.22,0,0,1,2.17,2.46,1.69,1.69,0,0,1,0,.23H41.92a1.63,1.63,0,0,0,1.64,1.57A1.92,1.92,0,0,0,45,86.87l.44.39a2.42,2.42,0,0,1-1.92.87A2.32,2.32,0,0,1,41.21,85.71Zm3.71-.27a1.54,1.54,0,0,0-1.49-1.58,1.6,1.6,0,0,0-1.51,1.58Z"/><path class="cls-4" d="M46.56,83.37h.69v1.22a2,2,0,0,1,1.9-1.3V84h0a1.88,1.88,0,0,0-1.85,2.13V88h-.69Z"/><path class="cls-4" d="M49.45,85.71h0a2.3,2.3,0,0,1,2.23-2.43,2.22,2.22,0,0,1,2.17,2.46,1.69,1.69,0,0,1,0,.23H50.15a1.63,1.63,0,0,0,1.64,1.57,1.92,1.92,0,0,0,1.47-.66l.43.39a2.4,2.4,0,0,1-1.92.87A2.31,2.31,0,0,1,49.45,85.71Zm3.7-.27a1.53,1.53,0,0,0-1.48-1.58,1.6,1.6,0,0,0-1.52,1.58Z"/><path class="cls-4" d="M54.53,85.71h0a2.28,2.28,0,0,1,2.22-2.43,2.11,2.11,0,0,1,1.78,1v-2.8h.7V88h-.7v-.94a2.08,2.08,0,0,1-1.78,1A2.27,2.27,0,0,1,54.53,85.71Zm4,0h0a1.73,1.73,0,0,0-1.68-1.8,1.65,1.65,0,0,0-1.64,1.8h0a1.68,1.68,0,0,0,1.64,1.8A1.73,1.73,0,0,0,58.56,85.7Z"/><path class="cls-4" d="M63.05,81.73h.71v5.64h3.55V88H63.05Z"/><path class="cls-4" d="M67.86,85.71h0a2.29,2.29,0,0,1,2.23-2.43,2.22,2.22,0,0,1,2.17,2.46,1.69,1.69,0,0,1,0,.23H68.56a1.63,1.63,0,0,0,1.64,1.57,1.9,1.9,0,0,0,1.46-.66l.44.39a2.42,2.42,0,0,1-1.92.87A2.31,2.31,0,0,1,67.86,85.71Zm3.7-.27a1.54,1.54,0,0,0-1.49-1.58,1.6,1.6,0,0,0-1.51,1.58Z"/><path class="cls-4" d="M72.85,86.68v0c0-1,.81-1.51,2-1.51a5.18,5.18,0,0,1,1.43.2v-.16c0-.84-.51-1.27-1.39-1.27a3.37,3.37,0,0,0-1.41.34l-.21-.56a3.8,3.8,0,0,1,1.7-.39,2,2,0,0,1,1.5.51,1.83,1.83,0,0,1,.48,1.36V88h-.67v-.71a2,2,0,0,1-1.68.81A1.57,1.57,0,0,1,72.85,86.68Zm3.43-.36v-.45a4.8,4.8,0,0,0-1.37-.2c-.87,0-1.36.38-1.36,1v0c0,.58.54.93,1.17.93A1.41,1.41,0,0,0,76.28,86.32Z"/><path class="cls-4" d="M77.87,85.71h0a2.29,2.29,0,0,1,2.23-2.43,2.11,2.11,0,0,1,1.78,1v-2.8h.69V88h-.69v-.94a2.1,2.1,0,0,1-1.78,1A2.28,2.28,0,0,1,77.87,85.71Zm4,0h0a1.73,1.73,0,0,0-1.69-1.8,1.65,1.65,0,0,0-1.64,1.8h0a1.68,1.68,0,0,0,1.64,1.8A1.73,1.73,0,0,0,81.91,85.7Z"/></svg>