<svg id="Layer_1" data-name="Layer 1" xmlns="http://www.w3.org/2000/svg" viewBox="0 0 90 100"><defs><style>.cls-1{fill:#fff;}.cls-1,.cls-2{stroke:#74af27;stroke-miterlimit:10;}.cls-2{fill:none;}.cls-3{fill:#74af27;}</style></defs><title>EV-Connectors_Leads-63A-230V-IP44Inlet</title><circle class="cls-1" cx="45" cy="37.74" r="28.35"/><circle class="cls-2" cx="45" cy="37.55" r="15.1"/><path class="cls-3" d="M43.49,52.6v1.89a1.36,1.36,0,0,0,1.36,1.36h.41a1.35,1.35,0,0,0,1.35-1.36v-1.9A10.93,10.93,0,0,1,43.49,52.6Z"/><circle class="cls-3" cx="38.9" cy="33.99" r="1.76"/><circle class="cls-3" cx="51.29" cy="33.99" r="1.76"/><circle class="cls-3" cx="45" cy="43.77" r="2.75"/><path class="cls-3" d="M24.71,76.45A3.09,3.09,0,0,1,23.92,74v0c0-1.92,1-3.42,2.62-3.42a2.79,2.79,0,0,1,1.86.72l-.41.55a2.2,2.2,0,0,0-1.49-.63c-1.21,0-1.85,1.28-1.85,2.7V74a2,2,0,0,1,1.8-1A2,2,0,0,1,28.63,75v0a2.13,2.13,0,0,1-2.26,2.09A2.28,2.28,0,0,1,24.71,76.45ZM27.9,75h0a1.4,1.4,0,0,0-1.54-1.36A1.48,1.48,0,0,0,24.78,75v0a1.47,1.47,0,0,0,1.6,1.41A1.43,1.43,0,0,0,27.9,75Z"/><path class="cls-3" d="M29.28,76l.52-.46a2.29,2.29,0,0,0,1.84.94A1.27,1.27,0,0,0,33,75.22v0c0-.78-.73-1.21-1.77-1.21h-.4l-.15-.43,2-2.24H29.62v-.64h4v.53l-2,2.19c1.1.09,2.08.62,2.08,1.78h0a2,2,0,0,1-2.11,1.9A2.87,2.87,0,0,1,29.28,76Z"/><path class="cls-3" d="M37.3,70.64H38L40.84,77h-.77l-.73-1.67H35.91L35.16,77h-.73Zm1.76,4-1.43-3.2-1.44,3.2Z"/><path class="cls-3" d="M43.78,76.44l2.29-2c1-.86,1.31-1.35,1.31-2a1.2,1.2,0,0,0-1.27-1.21,2,2,0,0,0-1.69,1.08l-.52-.37a2.49,2.49,0,0,1,2.27-1.35,1.82,1.82,0,0,1,1.95,1.79h0c0,.92-.49,1.49-1.59,2.45l-1.69,1.5h3.34V77h-4.4Z"/><path class="cls-3" d="M48.92,76l.52-.46a2.27,2.27,0,0,0,1.84.94,1.27,1.27,0,0,0,1.38-1.23v0c0-.78-.73-1.21-1.77-1.21h-.4l-.15-.43,2-2.24H49.25v-.64h4v.53l-2,2.19c1.09.09,2.08.62,2.08,1.78h0a2,2,0,0,1-2.11,1.9A2.87,2.87,0,0,1,48.92,76Z"/><path class="cls-3" d="M54.27,73.85v0c0-1.76,1.06-3.25,2.68-3.25s2.65,1.47,2.65,3.24h0c0,1.77-1.05,3.26-2.67,3.26S54.27,75.62,54.27,73.85Zm4.59,0v0c0-1.37-.76-2.61-1.93-2.61S55,72.43,55,73.82h0c0,1.38.76,2.62,1.94,2.62S58.86,75.23,58.86,73.85Z"/><path class="cls-3" d="M60.23,70.68H61l2.24,5.43,2.25-5.43h.76L63.57,77h-.63Z"/><path class="cls-3" d="M25.72,81.68h.71V88h-.71Z"/><path class="cls-3" d="M28,81.68h2.36c1.43,0,2.36.76,2.36,2v0c0,1.36-1.13,2.06-2.47,2.06H28.71V88H28Zm2.27,3.43c1.05,0,1.73-.55,1.73-1.38v0c0-.9-.67-1.37-1.69-1.37h-1.6v2.77Z"/><path class="cls-3" d="M36.74,86.49H33.42L33.24,86l3.57-4.33h.63V85.9h1v.59h-1V88h-.7Zm0-.59V82.65L34.1,85.9Z"/><path class="cls-3" d="M42.51,86.49H39.19L39,86l3.57-4.33h.63V85.9h1v.59h-1V88h-.7Zm0-.59V82.65L39.87,85.9Z"/><path class="cls-3" d="M47.78,81.68h.71V88h-.71Z"/><path class="cls-3" d="M50,83.33h.69v.81a1.77,1.77,0,0,1,1.59-.91A1.7,1.7,0,0,1,54,85.1V88h-.69V85.27A1.24,1.24,0,0,0,52,83.86a1.37,1.37,0,0,0-1.39,1.46V88H50Z"/><path class="cls-3" d="M55.28,81.41H56V88h-.7Z"/><path class="cls-3" d="M57,85.67v0a2.29,2.29,0,0,1,2.23-2.42,2.22,2.22,0,0,1,2.17,2.46,1.77,1.77,0,0,1,0,.23H57.73a1.63,1.63,0,0,0,1.64,1.57,1.92,1.92,0,0,0,1.47-.66l.43.39a2.42,2.42,0,0,1-1.92.87A2.31,2.31,0,0,1,57,85.67Zm3.7-.27a1.53,1.53,0,0,0-1.49-1.58,1.6,1.6,0,0,0-1.51,1.58Z"/><path class="cls-3" d="M62.62,86.75V83.94H62v-.61h.65v-1.4h.69v1.4h1.48v.61H63.31v2.72a.69.69,0,0,0,.78.78,1.43,1.43,0,0,0,.68-.17v.6a1.83,1.83,0,0,1-.84.2A1.18,1.18,0,0,1,62.62,86.75Z"/></svg>