<svg id="Layer_1" data-name="Layer 1" xmlns="http://www.w3.org/2000/svg" xmlns:xlink="http://www.w3.org/1999/xlink" viewBox="0 0 90 100"><defs><style>.cls-1,.cls-5{fill:none;}.cls-2{fill:#fff;stroke-miterlimit:10;}.cls-2,.cls-5{stroke:#74af27;}.cls-3{fill:#74af27;}.cls-4{clip-path:url(#clip-path);}.cls-5{stroke-linecap:round;stroke-linejoin:round;}</style><clipPath id="clip-path"><circle class="cls-1" cx="45" cy="37.74" r="28.35"/></clipPath></defs><title>EV-Connectors_Leads-UpTo2kW</title><circle class="cls-2" cx="45" cy="37.74" r="28.35"/><polygon class="cls-3" points="47.25 39.98 42.37 46.6 45.13 46.6 43.24 51.63 48.19 44.97 45.41 44.97 47.25 39.98"/><g class="cls-4"><rect class="cls-5" x="30.48" y="29.31" width="29.12" height="6.82" rx="3.41"/><path class="cls-5" d="M46.74,19.76a1.9,1.9,0,1,0-3.8,0v9.47h3.8Z"/><rect class="cls-5" x="36.05" y="21.68" width="3.8" height="7.55"/><rect class="cls-5" x="49.82" y="21.68" width="3.8" height="7.55"/><path class="cls-5" d="M33.5,37.74H56.71v10s1.18,5.37-11.58,6.16c0,0-11.63,0-11.63-6.43Z"/><path class="cls-3" d="M41.34,55a33.11,33.11,0,0,0,7.87,0v4.33H41.34Z"/><rect class="cls-3" x="43.87" y="59.22" width="2.82" height="9.71"/></g><path class="cls-3" d="M22.28,74.35V70.68H23V74.3a1.86,1.86,0,0,0,1.93,2.13c1.16,0,1.9-.7,1.9-2.08V70.68h.71v3.61a2.48,2.48,0,0,1-2.63,2.79A2.46,2.46,0,0,1,22.28,74.35Z"/><path class="cls-3" d="M28.82,72.33h.7v.94a2.07,2.07,0,0,1,1.78-1,2.27,2.27,0,0,1,2.22,2.42h0a2.28,2.28,0,0,1-2.22,2.42,2.07,2.07,0,0,1-1.78-1v2.34h-.7Zm4,2.34v0a1.68,1.68,0,0,0-1.64-1.8,1.74,1.74,0,0,0-1.68,1.8h0a1.73,1.73,0,0,0,1.68,1.8A1.64,1.64,0,0,0,32.81,74.67Z"/><path class="cls-3" d="M38.74,71.34H36.63v-.66h4.95v.66H39.46V77h-.72Z"/><path class="cls-3" d="M41.09,74.68v0a2.43,2.43,0,1,1,4.85,0h0a2.41,2.41,0,0,1-2.44,2.43A2.38,2.38,0,0,1,41.09,74.68Zm4.14,0v0a1.76,1.76,0,0,0-1.73-1.82,1.72,1.72,0,0,0-1.7,1.81h0a1.75,1.75,0,0,0,1.72,1.81A1.72,1.72,0,0,0,45.23,74.68Z"/><path class="cls-3" d="M49,76.44l2.29-2c1-.86,1.31-1.35,1.31-2a1.2,1.2,0,0,0-1.27-1.21,2,2,0,0,0-1.69,1.08l-.52-.37a2.49,2.49,0,0,1,2.27-1.35,1.82,1.82,0,0,1,2,1.79h0c0,.92-.49,1.49-1.6,2.45l-1.68,1.5h3.34V77H49Z"/><path class="cls-3" d="M54.47,70.41h.7V75l2.51-2.62h.86l-1.95,2,2,2.66h-.82l-1.67-2.17-.94,1V77h-.7Z"/><path class="cls-3" d="M59,70.68h.78l1.8,5.25,1.73-5.26h.58l1.73,5.26,1.8-5.25h.75L65.87,77h-.6l-1.73-5.11L61.8,77h-.59Z"/></svg>