<svg id="Layer_1" data-name="Layer 1" xmlns="http://www.w3.org/2000/svg" xmlns:xlink="http://www.w3.org/1999/xlink" viewBox="0 0 90 100"><defs><style>.cls-1,.cls-5{fill:none;}.cls-2{fill:#fff;stroke-miterlimit:10;}.cls-2,.cls-5{stroke:#74af27;}.cls-3{fill:#74af27;}.cls-4{clip-path:url(#clip-path);}.cls-5{stroke-linecap:round;stroke-linejoin:round;}</style><clipPath id="clip-path"><circle class="cls-1" cx="45" cy="37.74" r="28.35"/></clipPath></defs><title>EV-Connectors_Leads-150kW</title><circle class="cls-2" cx="45" cy="37.74" r="28.35"/><polygon class="cls-3" points="47.25 39.98 42.37 46.6 45.13 46.6 43.24 51.63 48.19 44.97 45.41 44.97 47.25 39.98"/><g class="cls-4"><rect class="cls-5" x="30.48" y="29.31" width="29.12" height="6.82" rx="3.41"/><path class="cls-5" d="M46.74,19.76a1.9,1.9,0,1,0-3.8,0v9.47h3.8Z"/><rect class="cls-5" x="36.05" y="21.68" width="3.8" height="7.55"/><rect class="cls-5" x="49.82" y="21.68" width="3.8" height="7.55"/><path class="cls-5" d="M33.5,37.74H56.71v10s1.18,5.37-11.58,6.16c0,0-11.63,0-11.63-6.43Z"/><path class="cls-3" d="M41.34,55a33.11,33.11,0,0,0,7.87,0v4.33H41.34Z"/><rect class="cls-3" x="43.87" y="59.22" width="2.82" height="9.71"/></g><path class="cls-3" d="M32,71.38l-1.19.37-.17-.58,1.54-.53h.52V77H32Z"/><path class="cls-3" d="M33.84,76.09l.47-.51a2.65,2.65,0,0,0,1.79.87,1.43,1.43,0,0,0,1.53-1.4v0a1.4,1.4,0,0,0-1.57-1.32,2.66,2.66,0,0,0-1.32.36l-.48-.32.18-3.07h3.63v.66h-3l-.14,2a2.88,2.88,0,0,1,1.25-.28A2,2,0,0,1,38.35,75h0a2.07,2.07,0,0,1-2.25,2.07A3.23,3.23,0,0,1,33.84,76.09Z"/><path class="cls-3" d="M39.16,73.85v0c0-1.76,1.06-3.25,2.68-3.25s2.64,1.47,2.64,3.24h0c0,1.77-1,3.26-2.66,3.26S39.16,75.62,39.16,73.85Zm4.59,0v0c0-1.37-.76-2.61-1.93-2.61s-1.92,1.21-1.92,2.6h0c0,1.38.76,2.62,1.94,2.62S43.75,75.23,43.75,73.85Z"/><path class="cls-3" d="M45.54,70.41h.7V75l2.51-2.62h.86l-2,2,2,2.66h-.83l-1.67-2.17-.94,1V77h-.7Z"/><path class="cls-3" d="M50,70.68h.77l1.8,5.25,1.73-5.26h.58l1.73,5.26,1.8-5.25h.75L56.94,77h-.6l-1.73-5.11L52.87,77h-.59Z"/></svg>