<svg id="Layer_1" data-name="Layer 1" xmlns="http://www.w3.org/2000/svg" xmlns:xlink="http://www.w3.org/1999/xlink" viewBox="0 0 90 100"><defs><style>.cls-1,.cls-5{fill:none;}.cls-2{fill:#fff;stroke-miterlimit:10;}.cls-2,.cls-5{stroke:#74af27;}.cls-3{fill:#74af27;}.cls-4{clip-path:url(#clip-path);}.cls-5{stroke-linecap:round;stroke-linejoin:round;}</style><clipPath id="clip-path"><circle class="cls-1" cx="45" cy="37.74" r="28.35"/></clipPath></defs><title>EV-Connectors_Leads-22kW</title><circle class="cls-2" cx="45" cy="37.74" r="28.35"/><polygon class="cls-3" points="47.25 39.98 42.37 46.6 45.13 46.6 43.24 51.63 48.19 44.97 45.41 44.97 47.25 39.98"/><g class="cls-4"><rect class="cls-5" x="30.48" y="29.31" width="29.12" height="6.82" rx="3.41"/><path class="cls-5" d="M46.74,19.76a1.9,1.9,0,1,0-3.8,0v9.47h3.8Z"/><rect class="cls-5" x="36.05" y="21.68" width="3.8" height="7.55"/><rect class="cls-5" x="49.82" y="21.68" width="3.8" height="7.55"/><path class="cls-5" d="M33.5,37.74H56.71v10s1.18,5.37-11.58,6.16c0,0-11.63,0-11.63-6.43Z"/><path class="cls-3" d="M41.34,55a33.11,33.11,0,0,0,7.87,0v4.33H41.34Z"/><rect class="cls-3" x="43.87" y="59.22" width="2.82" height="9.71"/></g><path class="cls-3" d="M32.9,76.44l2.29-2c1-.86,1.32-1.35,1.32-2a1.21,1.21,0,0,0-1.27-1.21,2,2,0,0,0-1.7,1.08L33,71.94a2.5,2.5,0,0,1,2.27-1.35,1.82,1.82,0,0,1,2,1.79h0c0,.92-.48,1.49-1.59,2.45L34,76.34h3.34V77H32.9Z"/><path class="cls-3" d="M38,76.44l2.28-2c1-.86,1.32-1.35,1.32-2a1.21,1.21,0,0,0-1.27-1.21,2,2,0,0,0-1.7,1.08l-.52-.37a2.5,2.5,0,0,1,2.27-1.35,1.81,1.81,0,0,1,2,1.79h0c0,.92-.48,1.49-1.59,2.45l-1.68,1.5h3.34V77H38Z"/><path class="cls-3" d="M43.49,70.41h.69V75l2.51-2.62h.87l-2,2,2,2.66h-.83l-1.66-2.17-1,1V77h-.69Z"/><path class="cls-3" d="M48,70.68h.77l1.81,5.25,1.72-5.26h.59l1.73,5.26,1.8-5.25h.75L54.88,77h-.6l-1.73-5.11L50.82,77h-.6Z"/></svg>