<svg id="Layer_1" data-name="Layer 1" xmlns="http://www.w3.org/2000/svg" viewBox="0 0 90 100"><defs><style>.cls-1{fill:#fff;}.cls-1,.cls-2,.cls-3{stroke:#74af27;stroke-miterlimit:10;}.cls-2,.cls-3{fill:none;}.cls-3{stroke-width:0.55px;}.cls-4{fill:#6da540;}.cls-5{fill:#74af27;}</style></defs><title>EV-Connectors_Leads-CHAdeMOConnector</title><circle class="cls-1" cx="44.78" cy="37.84" r="28.24"/><path class="cls-2" d="M44.65,19.32A18.32,18.32,0,1,0,63,37.64,18.32,18.32,0,0,0,44.65,19.32ZM31.09,37.64a4.78,4.78,0,1,1,4.78,4.78A4.78,4.78,0,0,1,31.09,37.64Zm22.33,4.78a4.78,4.78,0,1,1,4.78-4.78A4.78,4.78,0,0,1,53.42,42.42Z"/><circle class="cls-3" cx="44.65" cy="28.21" r="5.76"/><polyline class="cls-4" points="47.42 50.45 44.65 47.67 41.89 50.45 41.27 49.83 44.04 47.06 41.27 44.3 41.89 43.68 44.65 46.45 47.42 43.68 48.03 44.3 45.26 47.06 48.03 49.83 47.42 50.45"/><polyline class="cls-4" points="47.42 24.83 44.65 27.61 41.89 24.83 41.27 25.45 44.04 28.22 41.27 31 41.89 31.61 44.65 28.84 47.42 31.61 48.03 31 45.26 28.22 48.03 25.45 47.42 24.83"/><circle class="cls-3" cx="44.65" cy="47.05" r="5.76"/><path class="cls-5" d="M9.3,73.9v0a3.17,3.17,0,0,1,3.18-3.26,3.29,3.29,0,0,1,2.46,1l-.48.53a2.74,2.74,0,0,0-2-.87A2.47,2.47,0,0,0,10,73.86v0a2.48,2.48,0,0,0,2.44,2.6,2.74,2.74,0,0,0,2-.9L15,76a3.28,3.28,0,0,1-2.52,1.11A3.14,3.14,0,0,1,9.3,73.9Z"/><path class="cls-5" d="M16,70.73h.71v2.8H20.3v-2.8H21V77H20.3V74.2H16.66V77H16Z"/><path class="cls-5" d="M24.85,70.69h.67L28.39,77h-.77l-.74-1.66H23.45L22.71,77H22Zm1.76,4-1.44-3.2-1.44,3.2Z"/><path class="cls-5" d="M28.75,74.72v0A2.28,2.28,0,0,1,31,72.28a2.11,2.11,0,0,1,1.78,1V70.46h.7V77h-.7V76.1a2.06,2.06,0,0,1-1.78,1A2.26,2.26,0,0,1,28.75,74.72Zm4,0v0A1.73,1.73,0,0,0,31.1,72.9a1.65,1.65,0,0,0-1.64,1.79v0a1.68,1.68,0,0,0,1.64,1.8A1.74,1.74,0,0,0,32.78,74.71Z"/><path class="cls-5" d="M34.43,74.72v0a2.3,2.3,0,0,1,2.24-2.42,2.22,2.22,0,0,1,2.17,2.46,1.55,1.55,0,0,1,0,.22H35.14a1.63,1.63,0,0,0,1.64,1.58,1.92,1.92,0,0,0,1.46-.66l.43.39a2.38,2.38,0,0,1-1.91.87A2.32,2.32,0,0,1,34.43,74.72Zm3.7-.27a1.52,1.52,0,0,0-1.48-1.58,1.6,1.6,0,0,0-1.51,1.58Z"/><path class="cls-5" d="M39.9,70.73h.72l2.29,3.44,2.3-3.44h.72V77h-.71v-5.1l-2.3,3.38h0l-2.3-3.37V77H39.9Z"/><path class="cls-5" d="M47.16,73.9v0a3.22,3.22,0,1,1,6.43,0v0a3.22,3.22,0,1,1-6.43,0Zm5.69,0v0a2.5,2.5,0,0,0-2.48-2.6,2.47,2.47,0,0,0-2.47,2.58v0a2.5,2.5,0,0,0,2.48,2.6A2.48,2.48,0,0,0,52.85,73.9Z"/><path class="cls-5" d="M57.25,70.73H60a2.52,2.52,0,0,1,1.79.63,1.74,1.74,0,0,1,.49,1.24v0a1.84,1.84,0,0,1-1.71,1.84L62.46,77h-.87l-1.83-2.44H58V77h-.71ZM59.9,74c.94,0,1.62-.49,1.62-1.3v0c0-.77-.6-1.24-1.61-1.24H58V74Z"/><path class="cls-5" d="M63,75.68h0c0-1,.81-1.51,2-1.51a4.83,4.83,0,0,1,1.43.2V74.2c0-.84-.51-1.27-1.39-1.27a3.19,3.19,0,0,0-1.41.34l-.21-.57a3.94,3.94,0,0,1,1.7-.38,2,2,0,0,1,1.5.51,1.84,1.84,0,0,1,.48,1.36V77h-.67v-.7a2,2,0,0,1-1.68.8A1.56,1.56,0,0,1,63,75.68Zm3.43-.36v-.45a4.84,4.84,0,0,0-1.37-.19c-.87,0-1.36.37-1.36,1v0c0,.58.54.92,1.17.92A1.41,1.41,0,0,0,66.45,75.32Z"/><path class="cls-5" d="M68.31,72.38H69v.94a2.1,2.1,0,0,1,1.79-1A2.27,2.27,0,0,1,73,74.69v0a2.28,2.28,0,0,1-2.22,2.42,2.11,2.11,0,0,1-1.79-1v2.33h-.69Zm4,2.34v0a1.68,1.68,0,0,0-1.64-1.8A1.74,1.74,0,0,0,69,74.69v0a1.73,1.73,0,0,0,1.68,1.8A1.64,1.64,0,0,0,72.3,74.72Z"/><path class="cls-5" d="M74,70.6h.8v.76H74Zm0,1.78h.69V77h-.69Z"/><path class="cls-5" d="M75.84,74.72v0a2.29,2.29,0,0,1,2.23-2.42,2.11,2.11,0,0,1,1.78,1V70.46h.69V77h-.69V76.1a2.09,2.09,0,0,1-1.78,1A2.27,2.27,0,0,1,75.84,74.72Zm4,0v0a1.73,1.73,0,0,0-1.69-1.79,1.65,1.65,0,0,0-1.64,1.79v0a1.68,1.68,0,0,0,1.64,1.8A1.74,1.74,0,0,0,79.88,74.71Z"/><path class="cls-5" d="M15.75,81.73h2.18a3.14,3.14,0,0,1,3.35,3.13v0A3.15,3.15,0,0,1,17.93,88H15.75Zm.71.66v5h1.47a2.44,2.44,0,0,0,2.61-2.48v0a2.45,2.45,0,0,0-2.61-2.49Z"/><path class="cls-5" d="M22.24,84.9v0a3.17,3.17,0,0,1,3.18-3.26,3.29,3.29,0,0,1,2.46,1l-.49.53a2.71,2.71,0,0,0-2-.87A2.48,2.48,0,0,0,23,84.86v0a2.49,2.49,0,0,0,2.44,2.6,2.76,2.76,0,0,0,2-.9l.47.45a3.28,3.28,0,0,1-2.52,1.11A3.14,3.14,0,0,1,22.24,84.9Z"/><path class="cls-5" d="M31,84.9v0a3.17,3.17,0,0,1,3.18-3.26,3.29,3.29,0,0,1,2.46,1l-.48.53a2.75,2.75,0,0,0-2-.87,2.47,2.47,0,0,0-2.43,2.58v0a2.48,2.48,0,0,0,2.43,2.6,2.75,2.75,0,0,0,2-.9l.47.45a3.28,3.28,0,0,1-2.52,1.11A3.14,3.14,0,0,1,31,84.9Z"/><path class="cls-5" d="M37.19,85.73v0a2.41,2.41,0,0,1,2.43-2.43A2.39,2.39,0,0,1,42,85.69v0a2.42,2.42,0,0,1-2.44,2.43A2.39,2.39,0,0,1,37.19,85.73Zm4.14,0v0a1.76,1.76,0,0,0-1.73-1.82,1.72,1.72,0,0,0-1.7,1.8v0a1.75,1.75,0,0,0,1.72,1.81A1.72,1.72,0,0,0,41.33,85.73Z"/><path class="cls-5" d="M43,83.38h.7v.81a1.76,1.76,0,0,1,1.59-.91,1.7,1.7,0,0,1,1.78,1.86V88H46.4V85.31a1.24,1.24,0,0,0-1.29-1.4,1.37,1.37,0,0,0-1.39,1.46V88H43Z"/><path class="cls-5" d="M48.3,83.38H49v.81a1.77,1.77,0,0,1,1.59-.91,1.7,1.7,0,0,1,1.79,1.86V88h-.7V85.31a1.23,1.23,0,0,0-1.28-1.4A1.37,1.37,0,0,0,49,85.37V88H48.3Z"/><path class="cls-5" d="M53.28,85.72v0a2.3,2.3,0,0,1,2.24-2.42,2.22,2.22,0,0,1,2.17,2.46,1.55,1.55,0,0,1,0,.22H54a1.62,1.62,0,0,0,1.64,1.58,1.92,1.92,0,0,0,1.46-.66l.43.39a2.38,2.38,0,0,1-1.91.87A2.32,2.32,0,0,1,53.28,85.72Zm3.7-.27a1.52,1.52,0,0,0-1.48-1.58A1.6,1.6,0,0,0,54,85.45Z"/><path class="cls-5" d="M58.34,85.73v0a2.42,2.42,0,0,1,4.25-1.6l-.46.48a1.9,1.9,0,0,0-1.41-.7,1.72,1.72,0,0,0-1.67,1.8v0a1.74,1.74,0,0,0,1.71,1.81,2,2,0,0,0,1.43-.69l.44.41a2.41,2.41,0,0,1-4.29-1.51Z"/><path class="cls-5" d="M63.74,86.8V84h-.65v-.61h.65V82h.7v1.4h1.47V84H64.44v2.72a.68.68,0,0,0,.78.77,1.4,1.4,0,0,0,.67-.16v.6a1.78,1.78,0,0,1-.83.19A1.18,1.18,0,0,1,63.74,86.8Z"/><path class="cls-5" d="M66.44,85.73v0a2.41,2.41,0,0,1,2.43-2.43,2.39,2.39,0,0,1,2.42,2.41v0a2.42,2.42,0,0,1-2.44,2.43A2.39,2.39,0,0,1,66.44,85.73Zm4.14,0v0a1.76,1.76,0,0,0-1.73-1.82,1.72,1.72,0,0,0-1.7,1.8v0a1.75,1.75,0,0,0,1.72,1.81A1.72,1.72,0,0,0,70.58,85.73Z"/><path class="cls-5" d="M72.27,83.38H73v1.21a2,2,0,0,1,1.9-1.29v.75h-.06c-1,0-1.84.72-1.84,2.13V88h-.7Z"/></svg>