<svg id="Layer_1" data-name="Layer 1" xmlns="http://www.w3.org/2000/svg" xmlns:xlink="http://www.w3.org/1999/xlink" viewBox="0 0 90 100"><defs><style>.cls-1,.cls-7{fill:none;}.cls-2,.cls-6{fill:#74af27;}.cls-3,.cls-5{fill:#fff;}.cls-4{clip-path:url(#clip-path);}.cls-5,.cls-6{fill-rule:evenodd;}.cls-7{stroke:#74af27;stroke-miterlimit:10;}</style><clipPath id="clip-path"><circle class="cls-1" cx="44.97" cy="37.74" r="28.35"/></clipPath></defs><title>EV-Certifications_Awards-ConformsToIEC61009</title><path class="cls-2" d="M18.58,73.85v0a3.17,3.17,0,0,1,3.18-3.25,3.25,3.25,0,0,1,2.46,1l-.48.52a2.73,2.73,0,0,0-2-.87,2.47,2.47,0,0,0-2.44,2.59h0a2.49,2.49,0,0,0,2.44,2.61,2.75,2.75,0,0,0,2-.91l.47.46a3.31,3.31,0,0,1-2.52,1.1A3.14,3.14,0,0,1,18.58,73.85Z"/><path class="cls-2" d="M24.73,74.68v0a2.43,2.43,0,0,1,4.86,0v0a2.42,2.42,0,0,1-2.44,2.43A2.38,2.38,0,0,1,24.73,74.68Zm4.14,0v0a1.76,1.76,0,0,0-1.72-1.82,1.72,1.72,0,0,0-1.71,1.8v0a1.75,1.75,0,0,0,1.72,1.81A1.72,1.72,0,0,0,28.87,74.68Z"/><path class="cls-2" d="M30.57,72.33h.69v.81a1.76,1.76,0,0,1,1.59-.91,1.7,1.7,0,0,1,1.78,1.87V77h-.69V74.27a1.24,1.24,0,0,0-1.29-1.41,1.37,1.37,0,0,0-1.39,1.46V77h-.69Z"/><path class="cls-2" d="M36.1,72.94h-.64v-.6h.64v-.41a1.59,1.59,0,0,1,.41-1.19,1.33,1.33,0,0,1,1-.36,2.1,2.1,0,0,1,.76.11v.61A2.37,2.37,0,0,0,37.6,71c-.54,0-.81.32-.81,1v.38h1.47v.59H36.79v4H36.1Z"/><path class="cls-2" d="M38.49,74.68v0a2.43,2.43,0,0,1,4.86,0v0a2.42,2.42,0,0,1-2.44,2.43A2.38,2.38,0,0,1,38.49,74.68Zm4.15,0v0a1.76,1.76,0,0,0-1.73-1.82,1.72,1.72,0,0,0-1.7,1.8v0a1.74,1.74,0,0,0,1.72,1.81A1.72,1.72,0,0,0,42.64,74.68Z"/><path class="cls-2" d="M44.33,72.33H45v1.22a2,2,0,0,1,1.9-1.3V73h-.05A1.88,1.88,0,0,0,45,75.13V77h-.69Z"/><path class="cls-2" d="M47.7,72.33h.69v.78a1.72,1.72,0,0,1,1.51-.88,1.58,1.58,0,0,1,1.49.93A1.87,1.87,0,0,1,53,72.23a1.67,1.67,0,0,1,1.73,1.87V77h-.69V74.27c0-.9-.45-1.41-1.21-1.41a1.3,1.3,0,0,0-1.28,1.44V77h-.69V74.25c0-.87-.46-1.39-1.2-1.39a1.35,1.35,0,0,0-1.3,1.47V77H47.7Z"/><path class="cls-2" d="M55.6,76.39,56,75.9a2.81,2.81,0,0,0,1.62.59c.55,0,1-.29,1-.74v0c0-.46-.55-.64-1.16-.81s-1.54-.46-1.54-1.32v0a1.4,1.4,0,0,1,1.58-1.33,3.24,3.24,0,0,1,1.68.51l-.32.53a2.64,2.64,0,0,0-1.38-.46c-.54,0-.9.29-.9.68v0c0,.44.58.61,1.2.8s1.5.49,1.5,1.33v0a1.47,1.47,0,0,1-1.66,1.4A3.25,3.25,0,0,1,55.6,76.39Z"/><path class="cls-2" d="M64.41,71.34H62.3v-.66h5v.66H65.13V77h-.72Z"/><path class="cls-2" d="M66.76,74.68v0a2.43,2.43,0,0,1,4.86,0v0a2.42,2.42,0,0,1-2.44,2.43A2.38,2.38,0,0,1,66.76,74.68Zm4.14,0v0a1.76,1.76,0,0,0-1.72-1.82,1.72,1.72,0,0,0-1.71,1.8v0a1.75,1.75,0,0,0,1.72,1.81A1.72,1.72,0,0,0,70.9,74.68Z"/><path class="cls-2" d="M25.49,81.68h.71V88h-.71Z"/><path class="cls-2" d="M27.77,81.68h4.56v.65H28.49v2.15h3.44v.65H28.49v2.21h3.89V88H27.77Z"/><path class="cls-2" d="M33.26,84.85v0a3.17,3.17,0,0,1,3.18-3.25,3.25,3.25,0,0,1,2.46,1l-.49.52a2.71,2.71,0,0,0-2-.87A2.48,2.48,0,0,0,34,84.82h0a2.5,2.5,0,0,0,2.44,2.61,2.76,2.76,0,0,0,2-.91l.47.46a3.31,3.31,0,0,1-2.52,1.1A3.14,3.14,0,0,1,33.26,84.85Z"/><path class="cls-2" d="M40.36,87.45A3.06,3.06,0,0,1,39.57,85h0c0-1.92,1-3.42,2.62-3.42a2.79,2.79,0,0,1,1.86.72l-.42.54a2.19,2.19,0,0,0-1.48-.62c-1.22,0-1.86,1.28-1.86,2.7V85a2.09,2.09,0,0,1,1.81-1A2,2,0,0,1,44.27,86v0A2.13,2.13,0,0,1,42,88.09,2.25,2.25,0,0,1,40.36,87.45ZM43.54,86v0A1.4,1.4,0,0,0,42,84.65,1.48,1.48,0,0,0,40.43,86v0A1.47,1.47,0,0,0,42,87.46,1.42,1.42,0,0,0,43.54,86Z"/><path class="cls-2" d="M46,82.38l-1.19.37-.17-.58,1.54-.53h.52V88H46Z"/><path class="cls-2" d="M47.93,84.85v0c0-1.76,1-3.25,2.67-3.25s2.65,1.47,2.65,3.24h0c0,1.77-1,3.26-2.67,3.26S47.93,86.62,47.93,84.85Zm4.58,0v0c0-1.37-.76-2.61-1.93-2.61s-1.92,1.21-1.92,2.6h0c0,1.38.76,2.62,1.94,2.62S52.51,86.23,52.51,84.85Z"/><path class="cls-2" d="M54.09,84.85v0c0-1.76,1-3.25,2.67-3.25s2.65,1.47,2.65,3.24h0c0,1.77-1,3.26-2.66,3.26S54.09,86.62,54.09,84.85Zm4.58,0v0c0-1.37-.75-2.61-1.92-2.61s-1.92,1.21-1.92,2.6h0c0,1.38.76,2.62,1.93,2.62S58.67,86.23,58.67,84.85Z"/><path class="cls-2" d="M64.24,84.82v-.13a2,2,0,0,1-1.78,1,2,2,0,0,1-2.19-2v0a2.14,2.14,0,0,1,2.26-2.14,2.24,2.24,0,0,1,1.66.64A3.19,3.19,0,0,1,65,84.66v0c0,2-1.06,3.41-2.62,3.41a2.91,2.91,0,0,1-1.94-.77l.41-.55a2.3,2.3,0,0,0,1.55.68C63.59,87.45,64.24,86.18,64.24,84.82Zm-.13-1.16v0a1.48,1.48,0,0,0-1.6-1.43A1.45,1.45,0,0,0,61,83.68v0a1.41,1.41,0,0,0,1.55,1.38A1.48,1.48,0,0,0,64.11,83.66Z"/><circle class="cls-3" cx="45.03" cy="37.74" r="28.35"/><g class="cls-4"><polygon class="cls-5" points="29.15 21.86 60.9 21.86 60.9 53.61 29.15 53.61 29.15 21.86 29.15 21.86"/><polygon class="cls-6" points="59.5 23.27 30.55 23.27 30.55 52.2 59.5 52.2 59.5 23.27 59.5 23.27"/><polygon class="cls-5" points="33.72 41.42 36.12 41.42 36.12 29.59 33.72 29.59 33.72 41.42 33.72 41.42"/><path class="cls-5" d="M46.51,29.31H40.67a1.58,1.58,0,0,0-1.4,1.53v8.67A2,2,0,0,0,41,41.41h5.62v-1h-4c-.7,0-1-.34-1-.77V36.4c0-.34-.14-.89.28-.89h3.5v-.9H42c-.46,0-.37-.32-.37-.6V31.29c0-.31,0-.84.58-.84h4.33V29.31Z"/><path class="cls-5" d="M56.82,31.29a5,5,0,0,0-4.23-2.22c-2.41,0-5.54,2.25-5.54,6.41a5.85,5.85,0,0,0,5.7,6.19,5,5,0,0,0,4.47-3.05l-.57-.52s-1.5,2.69-3.75,2.69c-1.38,0-3.59-1.37-3.59-5.31,0-4.38,1.87-5.49,3.59-5.49a4.31,4.31,0,0,1,3.33,1.91l.59-.61Z"/><path class="cls-5" d="M53.71,44.81h-20V44.3H54.3s0,0-.31.21a1.73,1.73,0,0,0-.28.3Z"/><polygon class="cls-5" points="33.72 46.22 53.52 46.22 53.52 45.65 33.72 45.65 33.72 46.22 33.72 46.22"/><path class="cls-5" d="M54.29,47.63H33.72v-.5h20l.21.23c.23.26.37.27.37.27Z"/><path class="cls-5" d="M55.66,47.7A1.75,1.75,0,1,0,54.15,46a1.64,1.64,0,0,0,1.51,1.73Z"/><path class="cls-6" d="M55.63,48.36A2.4,2.4,0,1,0,53.44,46a2.3,2.3,0,0,0,2.19,2.39Z"/><path class="cls-5" d="M55.67,47.7A1.74,1.74,0,1,0,54.15,46a1.64,1.64,0,0,0,1.52,1.73Z"/></g><circle class="cls-7" cx="45.03" cy="37.74" r="28.35"/></svg>