<svg id="Layer_1" data-name="Layer 1" xmlns="http://www.w3.org/2000/svg" viewBox="0 0 90 100"><defs><style>.cls-1,.cls-3{fill:#fff;stroke:#74af27;}.cls-1{stroke-miterlimit:10;}.cls-2{fill:#74af27;}.cls-3{stroke-linecap:round;stroke-linejoin:round;stroke-width:0.8px;}</style></defs><title>EV-Certifications_Awards-AwardWinningProduct</title><circle class="cls-1" cx="45" cy="37.74" r="28.35"/><path class="cls-2" d="M15.46,70.64h.67L19,77h-.76l-.74-1.67H14.07L13.32,77h-.73Zm1.76,4-1.43-3.2-1.44,3.2Z"/><path class="cls-2" d="M19,72.33h.73L21,76.07l1.25-3.76h.58l1.26,3.76,1.22-3.74H26L24.38,77h-.6l-1.25-3.67L21.27,77h-.61Z"/><path class="cls-2" d="M26.37,75.63h0c0-1,.81-1.51,2-1.51a5.18,5.18,0,0,1,1.43.2v-.16c0-.84-.51-1.27-1.39-1.27a3.37,3.37,0,0,0-1.41.34l-.2-.56a3.73,3.73,0,0,1,1.69-.39,2,2,0,0,1,1.5.51,1.88,1.88,0,0,1,.48,1.36V77h-.67v-.71a2,2,0,0,1-1.68.8A1.56,1.56,0,0,1,26.37,75.63Zm3.43-.35v-.45a4.8,4.8,0,0,0-1.37-.2c-.87,0-1.36.38-1.36,1v0c0,.58.54.93,1.17.93A1.41,1.41,0,0,0,29.8,75.28Z"/><path class="cls-2" d="M31.66,72.33h.7v1.22a2,2,0,0,1,1.9-1.3V73H34.2a1.87,1.87,0,0,0-1.84,2.13V77h-.7Z"/><path class="cls-2" d="M34.58,74.67v0a2.28,2.28,0,0,1,2.22-2.42,2.09,2.09,0,0,1,1.78,1V70.41h.7V77h-.7v-.94a2.06,2.06,0,0,1-1.78,1A2.27,2.27,0,0,1,34.58,74.67Zm4,0v0a1.73,1.73,0,0,0-1.68-1.79,1.65,1.65,0,0,0-1.64,1.79v0a1.68,1.68,0,0,0,1.64,1.8A1.74,1.74,0,0,0,38.61,74.66Z"/><path class="cls-2" d="M42.62,70.68h.77l1.8,5.25,1.73-5.26h.58l1.73,5.26L51,70.68h.75L49.53,77h-.6L47.2,71.92,45.46,77h-.59Z"/><path class="cls-2" d="M52.56,70.55h.79v.76h-.79Zm0,1.78h.69V77h-.69Z"/><path class="cls-2" d="M54.64,72.33h.69v.81a1.79,1.79,0,0,1,1.6-.91,1.7,1.7,0,0,1,1.78,1.87V77H58V74.27a1.24,1.24,0,0,0-1.29-1.41,1.38,1.38,0,0,0-1.4,1.46V77h-.69Z"/><path class="cls-2" d="M59.91,72.33h.7v.81a1.76,1.76,0,0,1,1.59-.91A1.7,1.7,0,0,1,64,74.1V77h-.69V74.27A1.24,1.24,0,0,0,62,72.86a1.37,1.37,0,0,0-1.39,1.46V77h-.7Z"/><path class="cls-2" d="M65.21,70.55H66v.76h-.79Zm0,1.78h.69V77h-.69Z"/><path class="cls-2" d="M67.28,72.33H68v.81a1.76,1.76,0,0,1,1.59-.91,1.7,1.7,0,0,1,1.78,1.87V77h-.69V74.27a1.24,1.24,0,0,0-1.29-1.41A1.37,1.37,0,0,0,68,74.32V77h-.7Z"/><path class="cls-2" d="M72.5,77.8l.32-.54a3,3,0,0,0,1.79.59,1.53,1.53,0,0,0,1.69-1.66v-.55a2.2,2.2,0,0,1-1.83,1,2.15,2.15,0,0,1-2.18-2.18v0a2.2,2.2,0,0,1,4-1.26v-.84H77v3.85a2.21,2.21,0,0,1-.6,1.64,2.4,2.4,0,0,1-1.77.62A3.68,3.68,0,0,1,72.5,77.8Zm3.82-3.36v0a1.64,1.64,0,0,0-1.71-1.58A1.54,1.54,0,0,0,73,74.41v0A1.57,1.57,0,0,0,74.61,76,1.64,1.64,0,0,0,76.32,74.44Z"/><path class="cls-2" d="M28.92,81.68h2.36c1.42,0,2.35.76,2.35,2v0c0,1.36-1.13,2.06-2.47,2.06H29.63V88h-.71Zm2.27,3.43c1,0,1.72-.55,1.72-1.38v0c0-.9-.67-1.37-1.69-1.37H29.63v2.77Z"/><path class="cls-2" d="M34.54,83.33h.7v1.22a2,2,0,0,1,1.89-1.3V84h-.05a1.87,1.87,0,0,0-1.84,2.13V88h-.7Z"/><path class="cls-2" d="M37.43,85.68v0a2.41,2.41,0,0,1,2.43-2.43,2.39,2.39,0,0,1,2.42,2.41v0a2.41,2.41,0,0,1-2.44,2.43A2.38,2.38,0,0,1,37.43,85.68Zm4.14,0v0a1.76,1.76,0,0,0-1.73-1.82,1.72,1.72,0,0,0-1.7,1.8v0a1.75,1.75,0,0,0,1.72,1.81A1.72,1.72,0,0,0,41.57,85.68Z"/><path class="cls-2" d="M43,85.67v0a2.29,2.29,0,0,1,2.23-2.42,2.11,2.11,0,0,1,1.78,1V81.41h.69V88H47v-.94a2.09,2.09,0,0,1-1.78,1A2.27,2.27,0,0,1,43,85.67Zm4,0v0a1.73,1.73,0,0,0-1.69-1.79,1.64,1.64,0,0,0-1.63,1.79v0a1.68,1.68,0,0,0,1.63,1.8A1.74,1.74,0,0,0,47,85.66Z"/><path class="cls-2" d="M48.9,86.22V83.33h.69v2.72a1.25,1.25,0,0,0,1.29,1.41A1.37,1.37,0,0,0,52.27,86V83.33H53V88h-.69v-.81a1.76,1.76,0,0,1-1.59.9A1.69,1.69,0,0,1,48.9,86.22Z"/><path class="cls-2" d="M54,85.68v0a2.4,2.4,0,0,1,2.38-2.43,2.43,2.43,0,0,1,1.87.83l-.46.49a1.89,1.89,0,0,0-1.42-.71,1.72,1.72,0,0,0-1.66,1.8v0a1.73,1.73,0,0,0,1.71,1.81,1.91,1.91,0,0,0,1.42-.69l.44.41A2.4,2.4,0,0,1,54,85.68Z"/><path class="cls-2" d="M59.36,86.75V83.94h-.65v-.61h.65v-1.4h.69v1.4h1.48v.61H60.05v2.72a.69.69,0,0,0,.78.78,1.46,1.46,0,0,0,.68-.17v.6a1.86,1.86,0,0,1-.84.2A1.18,1.18,0,0,1,59.36,86.75Z"/><path class="cls-2" d="M46.62,41.8l-2,3.82-.52,1-.28.52-1.11,2.07-.44.82-3.85,7.21c-.2.36-.52.36-.71,0L36.2,54.35a1.36,1.36,0,0,0-1.1-.68l-3.44-.06c-.42,0-.58-.31-.36-.66l4-6.52.28-.47h0L37,43.69l.23-.38,3.1-5.06,4.37,2.46Z"/><path class="cls-2" d="M57.2,54.06,53.76,54a1.4,1.4,0,0,0-1.13.64l-1.57,2.8c-.2.36-.52.36-.7,0l-3.6-7.33-.42-.87-.93-1.89-.28-.57-.55-1.14-1.91-3.89,2-1,4.46-2.3L52.3,44l.22.4,1,1.82.3.52h0l3.75,6.65C57.79,53.78,57.62,54.07,57.2,54.06Z"/><path class="cls-3" d="M58.22,38.43a4,4,0,0,0-.06,1.44,8.22,8.22,0,0,1,.09,2,1.87,1.87,0,0,1-.23.65c-.66,1.11-2.61,1.21-3.54,2.1a4.94,4.94,0,0,0-.93,1.61,3.74,3.74,0,0,1-1.29,1.86c-1.12.61-2.85-.27-4.12,0a5.94,5.94,0,0,0-1.8,1.06,3.21,3.21,0,0,1-1.86.82,3.21,3.21,0,0,1-1.81-.86A5.62,5.62,0,0,0,40.89,48c-1.25-.36-3,.46-4.11-.2A3.64,3.64,0,0,1,35.57,46a4.84,4.84,0,0,0-.89-1.67c-.89-.92-2.83-1.09-3.46-2.22a1.61,1.61,0,0,1-.18-.52,8.34,8.34,0,0,1,.15-2.3,3.53,3.53,0,0,0,0-1.3c-.26-1-1.43-2-1.78-3a1.65,1.65,0,0,1-.1-.62c0-1.32,1.66-2.38,2-3.59q0-.12.06-.27a9.22,9.22,0,0,0-.09-2,3,3,0,0,1,.22-1.83c.67-1.11,2.62-1.21,3.54-2.1s1.1-2.84,2.23-3.46,2.85.26,4.11-.05S43.71,19.07,45,19.1s2.38,1.66,3.59,2,3-.46,4.11.19,1.21,2.62,2.1,3.54,2.84,1.1,3.47,2.23a2.83,2.83,0,0,1,.18,1.68,8.41,8.41,0,0,0-.16,2.31l0,.12c.3,1.23,1.9,2.34,1.88,3.66a1.72,1.72,0,0,1-.1.55C59.76,36.47,58.52,37.4,58.22,38.43Z"/><path class="cls-2" d="M55.56,34.76s0,0,0-.07v0s0,0,0-.06a.06.06,0,0,0,0,0,.24.24,0,0,0,0-.08c-.24-.74-1.07-1.41-1.25-2.13-.22-.89.4-2.1,0-2.88s-1.8-.91-2.42-1.55-.7-2-1.47-2.48-2,.12-2.87-.13S45.87,23.92,45,23.9s-1.7,1.1-2.56,1.32-2.09-.4-2.87,0-.91,1.8-1.55,2.42-2,.7-2.48,1.47a1.45,1.45,0,0,0-.16.47h0v.12h0a.41.41,0,0,0,0,.11v.25c0,.13,0,.26,0,.39v.13c0,.14,0,.28,0,.41h0a2.28,2.28,0,0,0,0,.26v.09a1.94,1.94,0,0,1-.07.64.25.25,0,0,1,0,.07.14.14,0,0,1,0,.06l0,.07,0,.07,0,.06a.47.47,0,0,1-.07.12,11.33,11.33,0,0,1-.75,1,.56.56,0,0,1,0,.08,2.09,2.09,0,0,0-.27.48.16.16,0,0,0,0,.07v.07a.43.43,0,0,0,0,.05.06.06,0,0,0,0,0,0,0,0,0,0,0,0,.13.13,0,0,0,0,.06.25.25,0,0,0,0,.08.34.34,0,0,0,0,.1c0,.92,1.1,1.7,1.31,2.55a.29.29,0,0,1,0,.09h0s0,.06,0,.09a.28.28,0,0,0,0,.09v.33h0s0,.1,0,.15h0s0,.1,0,.15a.77.77,0,0,1,0,.15v0c0,.18-.06.36-.08.53a.28.28,0,0,1,0,.09c0,.08,0,.16,0,.23a2.67,2.67,0,0,0,0,.4h0a1.35,1.35,0,0,0,.15.53,1,1,0,0,0,.15.2,1.6,1.6,0,0,0,.4.33l.13.08.2.1.17.08.36.16L37,41l.25.13a2.06,2.06,0,0,1,.5.36c.62.65.69,2,1.47,2.47s2-.11,2.87.14a2.3,2.3,0,0,1,.73.4l.08.06.11.09.23.18.15.12a4.56,4.56,0,0,0,.39.27,1.6,1.6,0,0,0,.82.29c.92,0,1.7-1.11,2.55-1.32a2.86,2.86,0,0,1,1.09,0l.2,0,.14,0a2.88,2.88,0,0,0,1.28,0l.17-.07.07-.05.13-.1c.61-.54.77-1.71,1.35-2.27a7.08,7.08,0,0,1,1.74-.87l.08,0a1.79,1.79,0,0,0,.44-.3,1,1,0,0,0,.21-.26.41.41,0,0,0,0-.09.36.36,0,0,0,0-.09,2.13,2.13,0,0,0,.1-.72V39a.28.28,0,0,0,0-.09.31.31,0,0,0,0-.1v-.06l0-.23v0a2.56,2.56,0,0,1,0-.39,1.33,1.33,0,0,1,0-.2v-.07s0-.1,0-.14a.15.15,0,0,1,0-.07h0s0,0,0-.07,0,0,0-.06,0,0,0-.07a2.3,2.3,0,0,1,.38-.7l.11-.15.06-.07.18-.23.12-.15a4.56,4.56,0,0,0,.27-.39c0-.08.09-.16.13-.24a.77.77,0,0,0,.07-.16,1.58,1.58,0,0,0,.09-.42S55.56,34.8,55.56,34.76Zm-2.25.1a8.56,8.56,0,1,1-8.4-8.71A8.54,8.54,0,0,1,53.31,34.86Z"/><path class="cls-2" d="M48.76,33.29,47.13,33A1.64,1.64,0,0,1,46,32.23l-.72-1.48c-.18-.38-.49-.39-.68,0l-.74,1.47a1.64,1.64,0,0,1-1.11.79l-1.63.22c-.42.06-.51.35-.21.65L42.11,35a1.61,1.61,0,0,1,.41,1.29l-.29,1.62c-.07.42.17.6.55.41l1.46-.76a1.65,1.65,0,0,1,1.36,0l1.45.78c.37.19.62,0,.55-.4l-.26-1.63a1.64,1.64,0,0,1,.43-1.28L49,33.94C49.27,33.65,49.17,33.35,48.76,33.29Z"/></svg>