<svg id="Layer_1" data-name="Layer 1" xmlns="http://www.w3.org/2000/svg" viewBox="0 0 90 100"><defs><style>.cls-1,.cls-4,.cls-5{fill:#fff;}.cls-1,.cls-3,.cls-5{stroke:#74af27;stroke-miterlimit:10;}.cls-2{fill:#74af27;}.cls-3{fill:none;}.cls-3,.cls-5{stroke-width:0.69px;}</style></defs><title>EV-Connectors_Leads-13AOutdoorMaintenanceSocket</title><circle class="cls-1" cx="45" cy="38.19" r="28.35"/><path class="cls-2" d="M19.71,71.83l-1.18.36-.17-.57,1.54-.53h.52v6.34h-.71Z"/><path class="cls-2" d="M21.51,76.42,22,76a2.25,2.25,0,0,0,1.83.93,1.26,1.26,0,0,0,1.38-1.22v0c0-.78-.73-1.21-1.76-1.21h-.41L22.93,74l2-2.24H21.84v-.64h4v.52l-2,2.2c1.1.09,2.08.62,2.08,1.77v0a2,2,0,0,1-2.1,1.9A2.86,2.86,0,0,1,21.51,76.42Z"/><path class="cls-2" d="M29.53,71.09h.66l2.87,6.34H32.3l-.74-1.66H28.13l-.75,1.66h-.73Zm1.75,4-1.43-3.2-1.44,3.2Z"/><path class="cls-2" d="M36.18,74.3v0A3.2,3.2,0,0,1,39.41,71a3.16,3.16,0,0,1,3.2,3.24v0a3.22,3.22,0,1,1-6.43,0Zm5.69,0v0a2.5,2.5,0,0,0-2.48-2.6,2.48,2.48,0,0,0-2.47,2.58v0a2.51,2.51,0,0,0,2.49,2.6A2.47,2.47,0,0,0,41.87,74.3Z"/><path class="cls-2" d="M43.65,75.67V72.78h.7V75.5a1.24,1.24,0,0,0,1.28,1.4A1.37,1.37,0,0,0,47,75.44V72.78h.68v4.65H47v-.81a1.76,1.76,0,0,1-1.59.91A1.7,1.7,0,0,1,43.65,75.67Z"/><path class="cls-2" d="M49.24,76.2V73.39H48.6v-.61h.64v-1.4h.7v1.4h1.47v.61H49.94v2.72a.68.68,0,0,0,.78.77,1.4,1.4,0,0,0,.67-.16v.6a1.78,1.78,0,0,1-.83.19A1.18,1.18,0,0,1,49.24,76.2Z"/><path class="cls-2" d="M52,75.12v0a2.29,2.29,0,0,1,2.23-2.42,2.11,2.11,0,0,1,1.78,1V70.86h.69v6.57H56V76.5a2.09,2.09,0,0,1-1.78,1A2.27,2.27,0,0,1,52,75.12Zm4,0v0a1.72,1.72,0,0,0-1.68-1.79,1.65,1.65,0,0,0-1.64,1.79v0a1.68,1.68,0,0,0,1.64,1.8A1.73,1.73,0,0,0,56,75.11Z"/><path class="cls-2" d="M57.65,75.13v0a2.41,2.41,0,0,1,2.43-2.43,2.39,2.39,0,0,1,2.42,2.41v0a2.43,2.43,0,0,1-4.85,0Zm4.14,0v0a1.76,1.76,0,0,0-1.73-1.82,1.72,1.72,0,0,0-1.7,1.8v0a1.75,1.75,0,0,0,1.72,1.81A1.72,1.72,0,0,0,61.79,75.13Z"/><path class="cls-2" d="M63.19,75.13v0a2.41,2.41,0,0,1,2.43-2.43A2.39,2.39,0,0,1,68,75.09v0a2.43,2.43,0,0,1-4.85,0Zm4.14,0v0a1.76,1.76,0,0,0-1.72-1.82,1.72,1.72,0,0,0-1.71,1.8v0a1.75,1.75,0,0,0,1.72,1.81A1.72,1.72,0,0,0,67.33,75.13Z"/><path class="cls-2" d="M69,72.78h.69V74a2,2,0,0,1,1.9-1.3v.75h-.06a1.87,1.87,0,0,0-1.84,2.13v1.85H69Z"/><path class="cls-2" d="M3.35,82.13h.72l2.3,3.44,2.29-3.44h.72v6.3H8.67v-5.1L6.38,86.71h0L4.05,83.34v5.09h-.7Z"/><path class="cls-2" d="M10.43,87.08h0c0-1,.81-1.51,2-1.51a4.88,4.88,0,0,1,1.43.2V85.6c0-.84-.52-1.27-1.39-1.27a3.19,3.19,0,0,0-1.41.34l-.21-.57a3.9,3.9,0,0,1,1.69-.38,2.06,2.06,0,0,1,1.51.51,1.86,1.86,0,0,1,.47,1.36v2.84h-.66v-.7a2.07,2.07,0,0,1-1.69.8A1.56,1.56,0,0,1,10.43,87.08Zm3.43-.36v-.45a4.84,4.84,0,0,0-1.37-.19c-.87,0-1.36.37-1.36,1v0c0,.58.54.92,1.17.92A1.41,1.41,0,0,0,13.86,86.72Z"/><path class="cls-2" d="M15.74,82h.79v.76h-.79Zm0,1.78h.69v4.65h-.69Z"/><path class="cls-2" d="M17.82,83.78h.69v.81a1.76,1.76,0,0,1,1.59-.91,1.7,1.7,0,0,1,1.78,1.86v2.89h-.69V85.71a1.24,1.24,0,0,0-1.29-1.4,1.37,1.37,0,0,0-1.39,1.46v2.66h-.69Z"/><path class="cls-2" d="M23.33,87.2V84.39h-.65v-.61h.65v-1.4H24v1.4H25.5v.61H24v2.72a.68.68,0,0,0,.78.77,1.4,1.4,0,0,0,.67-.16v.6a1.78,1.78,0,0,1-.83.19A1.18,1.18,0,0,1,23.33,87.2Z"/><path class="cls-2" d="M26,86.12v0a2.3,2.3,0,0,1,2.24-2.42,2.22,2.22,0,0,1,2.17,2.46,1.55,1.55,0,0,1,0,.22h-3.7a1.63,1.63,0,0,0,1.64,1.58,1.92,1.92,0,0,0,1.47-.66l.43.39a2.4,2.4,0,0,1-1.91.87A2.32,2.32,0,0,1,26,86.12Zm3.7-.27a1.53,1.53,0,0,0-1.48-1.58,1.61,1.61,0,0,0-1.52,1.58Z"/><path class="cls-2" d="M31.38,83.78h.69v.81a1.78,1.78,0,0,1,1.6-.91,1.7,1.7,0,0,1,1.78,1.86v2.89h-.7V85.71a1.23,1.23,0,0,0-1.28-1.4,1.38,1.38,0,0,0-1.4,1.46v2.66h-.69Z"/><path class="cls-2" d="M36.3,87.08h0c0-1,.81-1.51,2-1.51a4.83,4.83,0,0,1,1.43.2V85.6c0-.84-.51-1.27-1.38-1.27a3.27,3.27,0,0,0-1.42.34l-.2-.57a3.86,3.86,0,0,1,1.69-.38,2,2,0,0,1,1.5.51,1.82,1.82,0,0,1,.48,1.36v2.84h-.67v-.7a2,2,0,0,1-1.68.8A1.56,1.56,0,0,1,36.3,87.08Zm3.43-.36v-.45a4.84,4.84,0,0,0-1.37-.19c-.87,0-1.36.37-1.36,1v0c0,.58.54.92,1.17.92A1.41,1.41,0,0,0,39.73,86.72Z"/><path class="cls-2" d="M41.59,83.78h.7v.81a1.76,1.76,0,0,1,1.59-.91,1.7,1.7,0,0,1,1.78,1.86v2.89H45V85.71a1.24,1.24,0,0,0-1.29-1.4,1.37,1.37,0,0,0-1.39,1.46v2.66h-.7Z"/><path class="cls-2" d="M46.58,86.13v0a2.42,2.42,0,0,1,4.25-1.6l-.46.49A1.87,1.87,0,0,0,49,84.29a1.72,1.72,0,0,0-1.67,1.8v0A1.74,1.74,0,0,0,49,87.92a1.93,1.93,0,0,0,1.42-.69l.45.41a2.42,2.42,0,0,1-1.91.9A2.39,2.39,0,0,1,46.58,86.13Z"/><path class="cls-2" d="M51.31,86.12v0a2.3,2.3,0,0,1,2.24-2.42,2.22,2.22,0,0,1,2.17,2.46,1.55,1.55,0,0,1,0,.22H52a1.63,1.63,0,0,0,1.63,1.58,1.92,1.92,0,0,0,1.47-.66l.43.39a2.38,2.38,0,0,1-1.91.87A2.32,2.32,0,0,1,51.31,86.12Zm3.7-.27a1.52,1.52,0,0,0-1.48-1.58A1.6,1.6,0,0,0,52,85.85Z"/><path class="cls-2" d="M58.79,87.52l.44-.53a3,3,0,0,0,2.16.89c.85,0,1.41-.45,1.41-1.07v0c0-.58-.32-.91-1.64-1.19S59,84.81,59,83.78v0A1.87,1.87,0,0,1,61.12,82a3.26,3.26,0,0,1,2.21.78l-.41.55a2.77,2.77,0,0,0-1.82-.69c-.82,0-1.34.45-1.34,1v0c0,.59.32.92,1.71,1.22s2.05.82,2.05,1.78v0c0,1.08-.9,1.78-2.15,1.78A3.72,3.72,0,0,1,58.79,87.52Z"/><path class="cls-2" d="M64.29,86.13v0a2.41,2.41,0,0,1,2.43-2.43,2.39,2.39,0,0,1,2.42,2.41v0a2.43,2.43,0,0,1-4.85,0Zm4.14,0v0a1.76,1.76,0,0,0-1.73-1.82,1.72,1.72,0,0,0-1.7,1.8v0a1.75,1.75,0,0,0,1.72,1.81A1.72,1.72,0,0,0,68.43,86.13Z"/><path class="cls-2" d="M69.84,86.13v0a2.42,2.42,0,0,1,4.24-1.6l-.45.49a1.89,1.89,0,0,0-1.42-.71,1.72,1.72,0,0,0-1.66,1.8v0a1.74,1.74,0,0,0,1.71,1.81,1.94,1.94,0,0,0,1.42-.69l.44.41a2.41,2.41,0,0,1-1.9.9A2.39,2.39,0,0,1,69.84,86.13Z"/><path class="cls-2" d="M75,81.86h.7V86.4l2.51-2.62h.86l-2,2,2,2.65H78.3l-1.67-2.17-.94,1v1.21H75Z"/><path class="cls-2" d="M79.33,86.12v0a2.3,2.3,0,0,1,2.23-2.42,2.22,2.22,0,0,1,2.17,2.46,1.55,1.55,0,0,1,0,.22H80a1.63,1.63,0,0,0,1.64,1.58,1.92,1.92,0,0,0,1.47-.66l.43.39a2.4,2.4,0,0,1-1.92.87A2.32,2.32,0,0,1,79.33,86.12Zm3.7-.27a1.53,1.53,0,0,0-1.49-1.58A1.6,1.6,0,0,0,80,85.85Z"/><path class="cls-2" d="M84.92,87.2V84.39h-.65v-.61h.65v-1.4h.69v1.4h1.48v.61H85.61v2.72a.69.69,0,0,0,.79.77,1.4,1.4,0,0,0,.67-.16v.6a1.8,1.8,0,0,1-.84.19A1.18,1.18,0,0,1,84.92,87.2Z"/><path class="cls-3" d="M28.84,43.48a1.16,1.16,0,0,0-1.4,1.07v4.63c0,1,1,.92,1,.92H39.55s1.13.21,1.13-1.08V44.39s0-.92-1.46-.92"/><path class="cls-3" d="M39.22,50.1V37.18s.27-2.63-3.17-2.63H32.17s-3.28-.11-3.28,2.63V50.1"/><polyline class="cls-3" points="32.28 34.55 32.28 33.04 35.89 33.04 35.89 34.55"/><line class="cls-3" x1="35.03" y1="31.37" x2="35.03" y2="33.04"/><line class="cls-3" x1="33.14" y1="31.37" x2="33.14" y2="33.04"/><path class="cls-3" d="M32.28,31.37h3.61s1.18,0,1.29-1.83V27.93s0-1-1.29-1H32.28s-1.4,0-1.4,1v1.24S30.8,31.37,32.28,31.37Z"/><path class="cls-3" d="M34.08,38.46l-1.19,1.86s-1.49,2.33,1.17,2.44c0,0,2.53,0,1.15-2.46Z"/><path class="cls-3" d="M35.56,41.15a2.72,2.72,0,0,0,2.1-2.69V34.87"/><path class="cls-3" d="M32.56,41.15a2.72,2.72,0,0,1-2.1-2.69V34.87"/><circle class="cls-2" cx="35.04" cy="36.88" r="0.38"/><circle class="cls-2" cx="33.13" cy="36.88" r="0.38"/><path class="cls-3" d="M36.66,50.11V47.05a2.51,2.51,0,0,0-2.8-2.66,2.39,2.39,0,0,0-2.35,2.51v3.21"/><circle class="cls-3" cx="34.05" cy="47.21" r="1.11"/><path class="cls-3" d="M25.63,50.1H24.28V47.57a.6.6,0,0,1,.68-.63s.67,0,.67.66Z"/><line class="cls-3" x1="24.96" y1="39.23" x2="24.96" y2="46.94"/><path class="cls-3" d="M25.61,39.23H24.39V26.8a.52.52,0,0,1,.57-.59.55.55,0,0,1,.65.63Z"/><path class="cls-3" d="M25,26.21v-1c0-1,1.33-.95,1.33-.95s1.22,0,1.22,1.06v6.46a1,1,0,0,0,1,1.18l1,0a.91.91,0,0,1,.95.95v1"/><path class="cls-3" d="M24.39,27.25H22.56s-.29,2.9.59,4.21c0,0,.54.86,1.24-.09"/><line class="cls-3" x1="37.22" y1="28.43" x2="30.88" y2="28.43"/><polygon class="cls-4" points="42.34 47.64 40.03 47.78 37.3 49.59 39.28 51.81 41.33 50.8 42.34 47.64"/><polyline class="cls-3" points="67.48 32.39 64.91 32.39 52.27 47.02 40.03 47.78 37.3 49.59"/><polyline class="cls-3" points="54.4 44.55 67.02 40.68 67.02 51.15 60.26 51.15"/><line class="cls-3" x1="44.43" y1="47.5" x2="44.43" y2="46.1"/><line class="cls-3" x1="47.71" y1="47.5" x2="47.71" y2="46.1"/><path class="cls-3" d="M43,46.28l6.19-.37v-.58a1.63,1.63,0,0,0-1.81-1.74H45.11S43,43.68,43,45.27Z"/><circle class="cls-3" cx="55.44" cy="50.99" r="4.89"/><circle class="cls-5" cx="35.56" cy="52.55" r="3.33"/><line class="cls-3" x1="51.82" y1="54.29" x2="38.4" y2="54.29"/><line class="cls-3" x1="40.39" y1="53.17" x2="44.28" y2="48.94"/><line class="cls-3" x1="42.96" y1="53.17" x2="46.85" y2="48.94"/><line class="cls-3" x1="45.53" y1="53.17" x2="49.42" y2="48.94"/></svg>