<svg id="Layer_1" data-name="Layer 1" xmlns="http://www.w3.org/2000/svg" viewBox="0 0 90 100"><defs><style>.cls-1{fill:#fff;}.cls-1,.cls-2,.cls-4{stroke:#74af27;stroke-miterlimit:10;}.cls-2,.cls-4{fill:none;}.cls-3{fill:#74af27;}.cls-4{stroke-width:0.5px;}</style></defs><title>EV-Connectors_Leads-Type1-Mode3-ChargingCables</title><circle class="cls-1" cx="45" cy="37.74" r="28.35"/><circle class="cls-2" cx="44.94" cy="37.93" r="15.1"/><path class="cls-3" d="M43.44,53v2.6h3.12V53A11.39,11.39,0,0,1,43.44,53Z"/><circle class="cls-2" cx="39.04" cy="32.82" r="3.44"/><circle class="cls-2" cx="51.04" cy="32.82" r="3.44"/><circle class="cls-4" cx="36.89" cy="42.3" r="2.5"/><circle class="cls-4" cx="53.21" cy="42.3" r="2.5"/><circle class="cls-2" cx="44.94" cy="46.29" r="3.44"/><path class="cls-3" d="M17.46,71.34H15.34v-.66h4.95v.66H18.18V77h-.72Z"/><path class="cls-3" d="M23.94,72.33h.74l-2,4.81c-.39,1-.84,1.31-1.55,1.31a2.19,2.19,0,0,1-1-.23l.24-.55a1.41,1.41,0,0,0,.73.17c.41,0,.67-.21,1-.87L20,72.33h.76l1.69,3.88Z"/><path class="cls-3" d="M25.5,72.33h.7v.94a2.07,2.07,0,0,1,1.78-1,2.27,2.27,0,0,1,2.22,2.42h0A2.28,2.28,0,0,1,28,77.08a2.07,2.07,0,0,1-1.78-1v2.34h-.7Zm4,2.34v0a1.68,1.68,0,0,0-1.64-1.8,1.74,1.74,0,0,0-1.68,1.8h0a1.73,1.73,0,0,0,1.68,1.8A1.64,1.64,0,0,0,29.49,74.67Z"/><path class="cls-3" d="M30.92,74.67v0a2.3,2.3,0,0,1,2.23-2.42,2.22,2.22,0,0,1,2.17,2.46,1.77,1.77,0,0,1,0,.23H31.62a1.63,1.63,0,0,0,1.64,1.57,1.92,1.92,0,0,0,1.47-.66l.43.39a2.4,2.4,0,0,1-1.92.87A2.31,2.31,0,0,1,30.92,74.67Zm3.7-.27a1.53,1.53,0,0,0-1.49-1.58,1.6,1.6,0,0,0-1.51,1.58Z"/><path class="cls-3" d="M39.53,71.38l-1.18.37-.18-.58,1.54-.53h.53V77h-.71Z"/><path class="cls-3" d="M44.19,70.68h.72l2.3,3.44,2.3-3.44h.72V77h-.71V71.88l-2.3,3.38h0l-2.29-3.37V77h-.7Z"/><path class="cls-3" d="M51.33,74.68v0a2.43,2.43,0,0,1,4.85,0h0a2.41,2.41,0,0,1-2.44,2.43A2.38,2.38,0,0,1,51.33,74.68Zm4.14,0v0a1.76,1.76,0,0,0-1.73-1.82A1.72,1.72,0,0,0,52,74.65h0a1.75,1.75,0,0,0,1.72,1.81A1.72,1.72,0,0,0,55.47,74.68Z"/><path class="cls-3" d="M56.89,74.67v0a2.29,2.29,0,0,1,2.23-2.42,2.11,2.11,0,0,1,1.78,1V70.41h.69V77H60.9v-.94a2.09,2.09,0,0,1-1.78,1A2.27,2.27,0,0,1,56.89,74.67Zm4,0h0a1.73,1.73,0,0,0-1.69-1.8,1.65,1.65,0,0,0-1.64,1.8h0a1.68,1.68,0,0,0,1.64,1.8A1.74,1.74,0,0,0,60.93,74.66Z"/><path class="cls-3" d="M62.58,74.67v0a2.3,2.3,0,0,1,2.23-2.42A2.22,2.22,0,0,1,67,74.69a1.77,1.77,0,0,1,0,.23H63.28a1.63,1.63,0,0,0,1.64,1.57,1.92,1.92,0,0,0,1.47-.66l.43.39a2.4,2.4,0,0,1-1.92.87A2.32,2.32,0,0,1,62.58,74.67Zm3.7-.27a1.53,1.53,0,0,0-1.48-1.58,1.61,1.61,0,0,0-1.52,1.58Z"/><path class="cls-3" d="M70,76l.53-.46a2.26,2.26,0,0,0,1.83.94,1.27,1.27,0,0,0,1.38-1.23v0C73.77,74.42,73,74,72,74h-.4l-.14-.43,2-2.24H70.37v-.64h4v.53l-2,2.19c1.1.09,2.08.62,2.08,1.78h0a2,2,0,0,1-2.11,1.9A2.89,2.89,0,0,1,70,76Z"/><path class="cls-3" d="M10.79,84.85v0A3.17,3.17,0,0,1,14,81.58a3.27,3.27,0,0,1,2.46,1L16,83.1a2.71,2.71,0,0,0-2-.87,2.47,2.47,0,0,0-2.44,2.59h0A2.49,2.49,0,0,0,14,87.44a2.75,2.75,0,0,0,2-.91l.47.46A3.27,3.27,0,0,1,14,88.09,3.14,3.14,0,0,1,10.79,84.85Z"/><path class="cls-3" d="M17.33,81.41H18v2.73a1.77,1.77,0,0,1,1.59-.91A1.71,1.71,0,0,1,21.4,85.1V88h-.7V85.27a1.24,1.24,0,0,0-1.29-1.41A1.37,1.37,0,0,0,18,85.32V88h-.69Z"/><path class="cls-3" d="M22.25,86.64v0c0-1,.81-1.51,2-1.51a4.83,4.83,0,0,1,1.43.2v-.16c0-.84-.51-1.27-1.39-1.27a3.19,3.19,0,0,0-1.41.34l-.21-.56a3.8,3.8,0,0,1,1.7-.39,2,2,0,0,1,1.5.51,1.88,1.88,0,0,1,.48,1.36V88h-.67v-.71a2,2,0,0,1-1.68.8A1.56,1.56,0,0,1,22.25,86.64Zm3.43-.36v-.45a4.8,4.8,0,0,0-1.37-.2c-.87,0-1.36.38-1.36,1v0c0,.58.54.93,1.17.93A1.41,1.41,0,0,0,25.68,86.28Z"/><path class="cls-3" d="M27.54,83.33h.69v1.22a2,2,0,0,1,1.9-1.3V84h-.05a1.88,1.88,0,0,0-1.85,2.13V88h-.69Z"/><path class="cls-3" d="M30.67,88.8l.32-.54a3,3,0,0,0,1.79.59,1.53,1.53,0,0,0,1.69-1.66v-.55a2.2,2.2,0,0,1-1.83,1,2.15,2.15,0,0,1-2.18-2.18v0a2.2,2.2,0,0,1,4-1.26v-.84h.7v3.85a2.22,2.22,0,0,1-.6,1.64,2.4,2.4,0,0,1-1.77.62A3.66,3.66,0,0,1,30.67,88.8Zm3.82-3.36v0a1.64,1.64,0,0,0-1.71-1.58,1.54,1.54,0,0,0-1.61,1.57v0A1.57,1.57,0,0,0,32.78,87,1.64,1.64,0,0,0,34.49,85.44Z"/><path class="cls-3" d="M36.45,81.55h.79v.76h-.79Zm0,1.78h.69V88H36.5Z"/><path class="cls-3" d="M38.53,83.33h.69v.81a1.79,1.79,0,0,1,1.6-.91A1.7,1.7,0,0,1,42.6,85.1V88h-.69V85.27a1.24,1.24,0,0,0-1.29-1.41,1.38,1.38,0,0,0-1.4,1.46V88h-.69Z"/><path class="cls-3" d="M43.75,88.8l.31-.54a3.05,3.05,0,0,0,1.8.59,1.53,1.53,0,0,0,1.69-1.66v-.55a2.22,2.22,0,0,1-1.83,1,2.15,2.15,0,0,1-2.19-2.18v0a2.2,2.2,0,0,1,4-1.26v-.84h.69v3.85a2.22,2.22,0,0,1-.59,1.64,2.44,2.44,0,0,1-1.77.62A3.66,3.66,0,0,1,43.75,88.8Zm3.82-3.36v0a1.64,1.64,0,0,0-1.71-1.58,1.55,1.55,0,0,0-1.62,1.57v0A1.57,1.57,0,0,0,45.86,87,1.64,1.64,0,0,0,47.57,85.44Z"/><path class="cls-3" d="M51.78,84.85v0A3.17,3.17,0,0,1,55,81.58a3.25,3.25,0,0,1,2.46,1l-.48.52a2.74,2.74,0,0,0-2-.87,2.47,2.47,0,0,0-2.44,2.59h0A2.49,2.49,0,0,0,55,87.44a2.75,2.75,0,0,0,2-.91l.47.46a3.31,3.31,0,0,1-2.52,1.1A3.14,3.14,0,0,1,51.78,84.85Z"/><path class="cls-3" d="M58,86.64v0c0-1,.81-1.51,2-1.51a4.83,4.83,0,0,1,1.43.2v-.16c0-.84-.51-1.27-1.39-1.27a3.22,3.22,0,0,0-1.41.34l-.21-.56a3.8,3.8,0,0,1,1.7-.39,2,2,0,0,1,1.5.51,1.83,1.83,0,0,1,.48,1.36V88h-.67v-.71a2,2,0,0,1-1.68.8A1.56,1.56,0,0,1,58,86.64Zm3.43-.36v-.45a4.8,4.8,0,0,0-1.37-.2c-.87,0-1.36.38-1.36,1v0c0,.58.54.93,1.17.93A1.41,1.41,0,0,0,61.39,86.28Z"/><path class="cls-3" d="M64,87.09V88h-.7V81.41H64v2.86a2.07,2.07,0,0,1,1.78-1A2.27,2.27,0,0,1,68,85.65h0a2.28,2.28,0,0,1-2.22,2.42A2.07,2.07,0,0,1,64,87.09Zm3.29-1.42v0a1.68,1.68,0,0,0-1.64-1.8,1.74,1.74,0,0,0-1.68,1.8h0a1.73,1.73,0,0,0,1.68,1.8A1.64,1.64,0,0,0,67.24,85.67Z"/><path class="cls-3" d="M69,81.41h.69V88H69Z"/><path class="cls-3" d="M70.77,85.67v0A2.29,2.29,0,0,1,73,83.23a2.22,2.22,0,0,1,2.17,2.46,1.77,1.77,0,0,1,0,.23H71.47a1.63,1.63,0,0,0,1.64,1.57,1.92,1.92,0,0,0,1.47-.66l.43.39a2.42,2.42,0,0,1-1.92.87A2.31,2.31,0,0,1,70.77,85.67Zm3.7-.27A1.53,1.53,0,0,0,73,83.82a1.6,1.6,0,0,0-1.51,1.58Z"/><path class="cls-3" d="M75.73,87.39l.35-.49a2.75,2.75,0,0,0,1.61.59c.56,0,1-.29,1-.74v0c0-.46-.55-.64-1.16-.81S76,85.46,76,84.6v0a1.41,1.41,0,0,1,1.59-1.33,3.24,3.24,0,0,1,1.67.51l-.31.53a2.65,2.65,0,0,0-1.38-.45c-.55,0-.9.28-.9.67v0c0,.44.57.61,1.19.8s1.5.5,1.5,1.33v0a1.47,1.47,0,0,1-1.66,1.4A3.22,3.22,0,0,1,75.73,87.39Z"/></svg>