<svg id="Layer_1" data-name="Layer 1" xmlns="http://www.w3.org/2000/svg" viewBox="0 0 90 100"><defs><style>.cls-1{fill:#fff;}.cls-1,.cls-3,.cls-4{stroke:#74af27;stroke-miterlimit:10;}.cls-2{fill:#74af27;}.cls-3,.cls-4{fill:none;}.cls-4{stroke-width:0.5px;}</style></defs><title>EV-Connectors_Leads-Type2Connector</title><circle class="cls-1" cx="45" cy="37.74" r="28.35"/><path class="cls-2" d="M33.35,71.34H31.23v-.66h5v.66H34.07V77h-.72Z"/><path class="cls-2" d="M39.83,72.33h.74l-2,4.81c-.4,1-.85,1.31-1.55,1.31a2.13,2.13,0,0,1-1-.23l.23-.55a1.43,1.43,0,0,0,.73.17c.41,0,.68-.21,1-.87l-2.11-4.64h.76l1.7,3.88Z"/><path class="cls-2" d="M41.4,72.33h.69v.94a2.1,2.1,0,0,1,1.78-1,2.27,2.27,0,0,1,2.23,2.42h0a2.28,2.28,0,0,1-2.23,2.42,2.08,2.08,0,0,1-1.78-1v2.34H41.4Zm4,2.34v0a1.68,1.68,0,0,0-1.63-1.8,1.74,1.74,0,0,0-1.69,1.8h0a1.73,1.73,0,0,0,1.69,1.8A1.63,1.63,0,0,0,45.38,74.67Z"/><path class="cls-2" d="M46.81,74.67v0a2.3,2.3,0,0,1,2.24-2.42,2.22,2.22,0,0,1,2.17,2.46,1.77,1.77,0,0,1,0,.23H47.52a1.63,1.63,0,0,0,1.63,1.57,1.92,1.92,0,0,0,1.47-.66l.43.39a2.38,2.38,0,0,1-1.91.87A2.32,2.32,0,0,1,46.81,74.67Zm3.7-.27A1.53,1.53,0,0,0,49,72.82a1.6,1.6,0,0,0-1.51,1.58Z"/><path class="cls-2" d="M54.25,76.44l2.28-2c1-.86,1.32-1.35,1.32-2a1.21,1.21,0,0,0-1.27-1.21,2,2,0,0,0-1.69,1.08l-.53-.37a2.51,2.51,0,0,1,2.27-1.35,1.82,1.82,0,0,1,2,1.79h0c0,.92-.49,1.49-1.6,2.45l-1.68,1.5h3.34V77h-4.4Z"/><path class="cls-2" d="M23.25,84.85v0a3.17,3.17,0,0,1,3.19-3.25,3.27,3.27,0,0,1,2.46,1l-.49.52a2.71,2.71,0,0,0-2-.87A2.47,2.47,0,0,0,24,84.82h0a2.49,2.49,0,0,0,2.44,2.61,2.75,2.75,0,0,0,2-.91l.47.46a3.27,3.27,0,0,1-2.52,1.1A3.14,3.14,0,0,1,23.25,84.85Z"/><path class="cls-2" d="M29.41,85.68v0a2.43,2.43,0,1,1,4.85,0h0a2.41,2.41,0,0,1-2.44,2.43A2.38,2.38,0,0,1,29.41,85.68Zm4.14,0v0a1.76,1.76,0,0,0-1.73-1.82,1.72,1.72,0,0,0-1.7,1.81h0a1.75,1.75,0,0,0,1.72,1.81A1.72,1.72,0,0,0,33.55,85.68Z"/><path class="cls-2" d="M35.24,83.33h.69v.81a1.79,1.79,0,0,1,1.6-.91,1.7,1.7,0,0,1,1.78,1.87V88h-.69V85.27a1.24,1.24,0,0,0-1.29-1.41,1.38,1.38,0,0,0-1.4,1.46V88h-.69Z"/><path class="cls-2" d="M40.51,83.33h.7v.81a1.76,1.76,0,0,1,1.59-.91,1.7,1.7,0,0,1,1.78,1.87V88h-.69V85.27a1.24,1.24,0,0,0-1.29-1.41,1.37,1.37,0,0,0-1.39,1.46V88h-.7Z"/><path class="cls-2" d="M45.5,85.67v0a2.3,2.3,0,0,1,2.23-2.42,2.22,2.22,0,0,1,2.17,2.46,1.77,1.77,0,0,1,0,.23H46.2a1.63,1.63,0,0,0,1.64,1.57,1.92,1.92,0,0,0,1.47-.66l.43.39a2.42,2.42,0,0,1-1.92.87A2.31,2.31,0,0,1,45.5,85.67Zm3.7-.27a1.53,1.53,0,0,0-1.49-1.58A1.6,1.6,0,0,0,46.2,85.4Z"/><path class="cls-2" d="M50.56,85.68v0a2.42,2.42,0,0,1,4.25-1.6l-.46.49a1.89,1.89,0,0,0-1.42-.71,1.72,1.72,0,0,0-1.66,1.81h0A1.74,1.74,0,0,0,53,87.47a1.91,1.91,0,0,0,1.42-.69l.44.41a2.35,2.35,0,0,1-1.9.9A2.38,2.38,0,0,1,50.56,85.68Z"/><path class="cls-2" d="M56,86.75V83.94h-.65v-.61H56v-1.4h.69v1.4h1.48v.61H56.65v2.72a.69.69,0,0,0,.78.78,1.43,1.43,0,0,0,.68-.17v.6a1.8,1.8,0,0,1-.84.2A1.19,1.19,0,0,1,56,86.75Z"/><path class="cls-2" d="M58.66,85.68v0a2.43,2.43,0,1,1,4.85,0h0a2.42,2.42,0,0,1-2.44,2.43A2.37,2.37,0,0,1,58.66,85.68Zm4.14,0v0a1.76,1.76,0,0,0-1.73-1.82,1.72,1.72,0,0,0-1.7,1.81h0a1.75,1.75,0,0,0,1.72,1.81A1.72,1.72,0,0,0,62.8,85.68Z"/><path class="cls-2" d="M64.49,83.33h.69v1.22a2,2,0,0,1,1.9-1.3V84h0a1.88,1.88,0,0,0-1.85,2.13V88h-.69Z"/><path class="cls-3" d="M54.93,25.93a14.77,14.77,0,0,1,5,11.42A15,15,0,1,1,35.23,26Z"/><circle class="cls-3" cx="37.54" cy="37.23" r="2.87"/><circle class="cls-3" cx="45.13" cy="37.23" r="2.87"/><circle class="cls-3" cx="52.71" cy="37.23" r="2.87"/><circle class="cls-3" cx="41.57" cy="43.91" r="2.87"/><circle class="cls-3" cx="49.16" cy="43.91" r="2.87"/><circle class="cls-4" cx="41.36" cy="32.07" r="2.03"/><circle class="cls-4" cx="49.16" cy="32.05" r="2.03"/></svg>