<svg id="Layer_1" data-name="Layer 1" xmlns="http://www.w3.org/2000/svg" xmlns:xlink="http://www.w3.org/1999/xlink" viewBox="0 0 90 100"><defs><style>.cls-1{fill:none;}.cls-2{fill:#fff;stroke:#74af27;stroke-miterlimit:10;}.cls-3{clip-path:url(#clip-path);}.cls-4{fill:#74af27;}</style><clipPath id="clip-path"><circle class="cls-1" cx="45.06" cy="37.77" r="28.38"/></clipPath></defs><title>EV-Certifications_Awards-BSI-SafetyInTheHomeCertified</title><circle class="cls-2" cx="45.06" cy="37.77" r="28.38"/><g class="cls-3"><path class="cls-4" d="M26.25,52.61V48.86h1.41a1.84,1.84,0,0,1,.69.11,1,1,0,0,1,.41.35,1,1,0,0,1,.14.5.81.81,0,0,1-.13.45.89.89,0,0,1-.39.35.92.92,0,0,1,.52.34.93.93,0,0,1,.19.57A1,1,0,0,1,29,52a1,1,0,0,1-.27.35,1.19,1.19,0,0,1-.41.18,2.68,2.68,0,0,1-.61.06Zm.5-2.17h.81a1.65,1.65,0,0,0,.47,0,.54.54,0,0,0,.29-.18.58.58,0,0,0,.09-.33.67.67,0,0,0-.08-.33.49.49,0,0,0-.26-.19,1.87,1.87,0,0,0-.57-.06h-.75Zm0,1.73h.93a1.43,1.43,0,0,0,.34,0,.83.83,0,0,0,.29-.1.65.65,0,0,0,.19-.21.62.62,0,0,0,.07-.31.58.58,0,0,0-.11-.37.64.64,0,0,0-.29-.22,2,2,0,0,0-.55-.06h-.87Z"/><path class="cls-4" d="M29.71,52.61V49.89h.41v.42a1.25,1.25,0,0,1,.29-.39.53.53,0,0,1,.3-.09.89.89,0,0,1,.47.15l-.16.43a.6.6,0,0,0-.33-.1.45.45,0,0,0-.28.09.51.51,0,0,0-.17.25,1.9,1.9,0,0,0-.07.54v1.42Z"/><path class="cls-4" d="M31.46,49.39v-.53h.46v.53Zm0,3.22V49.89h.46v2.72Z"/><path class="cls-4" d="M33.63,52.2l.07.41a1.56,1.56,0,0,1-.35,0,.81.81,0,0,1-.39-.08.45.45,0,0,1-.2-.21,1.94,1.94,0,0,1,0-.54V50.25h-.34v-.36h.34v-.67l.46-.28v1h.46v.36h-.46v1.59a.8.8,0,0,0,0,.26.32.32,0,0,0,.08.09.35.35,0,0,0,.16,0Z"/><path class="cls-4" d="M34.08,49.39v-.53h.46v.53Zm0,3.22V49.89h.46v2.72Z"/><path class="cls-4" d="M35.06,51.8l.46-.07a.61.61,0,0,0,.21.42.74.74,0,0,0,.49.15.75.75,0,0,0,.47-.13.41.41,0,0,0,.16-.31.28.28,0,0,0-.14-.24,2.3,2.3,0,0,0-.47-.16,3.92,3.92,0,0,1-.7-.22.7.7,0,0,1-.3-.26.65.65,0,0,1-.1-.36.77.77,0,0,1,.08-.34.82.82,0,0,1,.23-.26.87.87,0,0,1,.29-.13,1.29,1.29,0,0,1,.4-.06,1.6,1.6,0,0,1,.56.09.92.92,0,0,1,.36.25,1,1,0,0,1,.16.43l-.45.06a.49.49,0,0,0-.18-.33.66.66,0,0,0-.42-.12.74.74,0,0,0-.45.11.31.31,0,0,0-.14.24.23.23,0,0,0,.06.16.52.52,0,0,0,.18.13l.4.11a5.21,5.21,0,0,1,.69.22.6.6,0,0,1,.3.24.72.72,0,0,1,.11.4.86.86,0,0,1-.13.43.87.87,0,0,1-.39.31,1.34,1.34,0,0,1-.58.12,1.29,1.29,0,0,1-.8-.22A1,1,0,0,1,35.06,51.8Z"/><path class="cls-4" d="M37.87,52.61V48.86h.46v1.35a1,1,0,0,1,.81-.38,1.12,1.12,0,0,1,.53.12.73.73,0,0,1,.32.33,1.6,1.6,0,0,1,.09.61v1.72h-.46V50.89a.7.7,0,0,0-.15-.5.54.54,0,0,0-.42-.16.77.77,0,0,0-.39.11.57.57,0,0,0-.25.28,1.21,1.21,0,0,0-.08.51v1.48Z"/><path class="cls-4" d="M42.13,51.41l.47,0a.93.93,0,0,0,.16.46.79.79,0,0,0,.37.29,1.36,1.36,0,0,0,.58.11,1.5,1.5,0,0,0,.5-.08.84.84,0,0,0,.33-.23.56.56,0,0,0,.1-.33.45.45,0,0,0-.1-.3.84.84,0,0,0-.34-.23c-.1,0-.32-.1-.67-.18a3.58,3.58,0,0,1-.72-.23,1.07,1.07,0,0,1-.4-.35.85.85,0,0,1-.13-.47.92.92,0,0,1,.16-.53,1,1,0,0,1,.47-.38,2.08,2.08,0,0,1,1.42,0,1,1,0,0,1,.49.4,1.09,1.09,0,0,1,.19.59l-.48,0a.73.73,0,0,0-.26-.53,1,1,0,0,0-.65-.19,1.07,1.07,0,0,0-.66.17.49.49,0,0,0-.21.4.43.43,0,0,0,.15.33,2,2,0,0,0,.75.27,4.74,4.74,0,0,1,.83.24A1.11,1.11,0,0,1,45,51a.88.88,0,0,1,.16.53,1.08,1.08,0,0,1-.17.57,1.24,1.24,0,0,1-.49.41,1.73,1.73,0,0,1-.73.15,2.12,2.12,0,0,1-.85-.15,1.2,1.2,0,0,1-.54-.45A1.29,1.29,0,0,1,42.13,51.41Z"/><path class="cls-4" d="M46.75,52.2l.06.41a1.5,1.5,0,0,1-.35,0,.8.8,0,0,1-.38-.08.41.41,0,0,1-.2-.21,1.61,1.61,0,0,1-.05-.54V50.25h-.34v-.36h.34v-.67l.45-.28v1h.47v.36h-.47v1.59a.72.72,0,0,0,0,.26.22.22,0,0,0,.08.09.31.31,0,0,0,.15,0Z"/><path class="cls-4" d="M49,52.28a1.8,1.8,0,0,1-.49.31,1.44,1.44,0,0,1-.51.09,1,1,0,0,1-.69-.22A.74.74,0,0,1,47,51.9a.75.75,0,0,1,.09-.37.67.67,0,0,1,.24-.26,1,1,0,0,1,.33-.15,2.25,2.25,0,0,1,.41-.07,4.7,4.7,0,0,0,.82-.16.68.68,0,0,0,0-.12.55.55,0,0,0-.13-.4.82.82,0,0,0-.53-.16.77.77,0,0,0-.48.12.7.7,0,0,0-.23.4l-.45-.06a1.19,1.19,0,0,1,.2-.47.87.87,0,0,1,.41-.27,1.92,1.92,0,0,1,.62-.1,1.46,1.46,0,0,1,.56.09.65.65,0,0,1,.32.2.75.75,0,0,1,.15.31,3.8,3.8,0,0,1,0,.43v.61a6.6,6.6,0,0,0,0,.82,1,1,0,0,0,.12.32h-.49A1.31,1.31,0,0,1,49,52.28Zm0-1a2.79,2.79,0,0,1-.75.17,1.51,1.51,0,0,0-.4.1.34.34,0,0,0-.18.15.31.31,0,0,0-.07.21.4.4,0,0,0,.14.31.63.63,0,0,0,.41.12.88.88,0,0,0,.47-.11.79.79,0,0,0,.31-.32,1.11,1.11,0,0,0,.07-.46Z"/><path class="cls-4" d="M50.12,52.61V49.89h.41v.39a1,1,0,0,1,.87-.45,1.13,1.13,0,0,1,.45.09.76.76,0,0,1,.31.23,1.16,1.16,0,0,1,.14.34,2.34,2.34,0,0,1,0,.45v1.67h-.47V51a1.13,1.13,0,0,0,0-.42.45.45,0,0,0-.19-.22.57.57,0,0,0-.32-.09.72.72,0,0,0-.51.19.93.93,0,0,0-.21.71v1.48Z"/><path class="cls-4" d="M54.8,52.61v-.34a.86.86,0,0,1-.76.41,1.06,1.06,0,0,1-.6-.18A1.21,1.21,0,0,1,53,52a1.75,1.75,0,0,1-.15-.74,2,2,0,0,1,.13-.74,1.1,1.1,0,0,1,.41-.51,1.07,1.07,0,0,1,.61-.18.86.86,0,0,1,.43.11.94.94,0,0,1,.32.27V48.86h.45v3.75Zm-1.46-1.35a1.15,1.15,0,0,0,.22.78.68.68,0,0,0,.52.26.66.66,0,0,0,.51-.25,1.17,1.17,0,0,0,.21-.76,1.27,1.27,0,0,0-.21-.81.65.65,0,0,0-.53-.27.62.62,0,0,0-.51.26A1.2,1.2,0,0,0,53.34,51.26Z"/><path class="cls-4" d="M57.72,52.28a1.8,1.8,0,0,1-.49.31,1.44,1.44,0,0,1-.51.09,1,1,0,0,1-.69-.22.74.74,0,0,1-.24-.56.75.75,0,0,1,.09-.37.67.67,0,0,1,.24-.26,1,1,0,0,1,.33-.15,2.25,2.25,0,0,1,.41-.07,4.86,4.86,0,0,0,.83-.16v-.12a.55.55,0,0,0-.13-.4,1,1,0,0,0-1,0,.7.7,0,0,0-.23.4l-.45-.06a1.07,1.07,0,0,1,.21-.47.79.79,0,0,1,.4-.27,2,2,0,0,1,.62-.1,1.55,1.55,0,0,1,.57.09.77.77,0,0,1,.32.2.89.89,0,0,1,.14.31,3.8,3.8,0,0,1,0,.43v.61a6.6,6.6,0,0,0,0,.82,1,1,0,0,0,.12.32h-.48A1,1,0,0,1,57.72,52.28Zm0-1a3,3,0,0,1-.76.17,1.51,1.51,0,0,0-.4.1.34.34,0,0,0-.18.15.37.37,0,0,0-.06.21.39.39,0,0,0,.13.31.63.63,0,0,0,.41.12,1,1,0,0,0,.48-.11.71.71,0,0,0,.3-.32,1.08,1.08,0,0,0,.08-.46Z"/><path class="cls-4" d="M58.86,52.61V49.89h.42v.42a1.11,1.11,0,0,1,.29-.39.53.53,0,0,1,.3-.09.89.89,0,0,1,.47.15l-.16.43a.61.61,0,0,0-.34-.1.44.44,0,0,0-.27.09.45.45,0,0,0-.17.25,1.91,1.91,0,0,0-.08.54v1.42Z"/><path class="cls-4" d="M62.38,52.61v-.34a.85.85,0,0,1-.76.41,1.06,1.06,0,0,1-.6-.18,1.21,1.21,0,0,1-.42-.5,1.75,1.75,0,0,1-.15-.74,2,2,0,0,1,.13-.74A1.1,1.1,0,0,1,61,50a1.07,1.07,0,0,1,.61-.18.93.93,0,0,1,.44.11,1,1,0,0,1,.31.27V48.86h.46v3.75Zm-1.46-1.35a1.15,1.15,0,0,0,.22.78.68.68,0,0,0,.52.26.66.66,0,0,0,.51-.25,1.11,1.11,0,0,0,.22-.76,1.26,1.26,0,0,0-.22-.81.65.65,0,0,0-.53-.27.63.63,0,0,0-.51.26A1.2,1.2,0,0,0,60.92,51.26Z"/><path class="cls-4" d="M63.35,51.8l.45-.07a.66.66,0,0,0,.22.42.72.72,0,0,0,.49.15.75.75,0,0,0,.47-.13.4.4,0,0,0,.15-.31.27.27,0,0,0-.13-.24,2.49,2.49,0,0,0-.48-.16,4.22,4.22,0,0,1-.7-.22.7.7,0,0,1-.3-.26.75.75,0,0,1-.1-.36.67.67,0,0,1,.09-.34.78.78,0,0,1,.22-.26.84.84,0,0,1,.3-.13,1.23,1.23,0,0,1,.39-.06,1.62,1.62,0,0,1,.57.09.81.81,0,0,1,.35.25,1,1,0,0,1,.16.43l-.45.06a.49.49,0,0,0-.18-.33.61.61,0,0,0-.41-.12.78.78,0,0,0-.46.11.3.3,0,0,0-.13.24.28.28,0,0,0,.05.16.52.52,0,0,0,.18.13l.41.11a5.47,5.47,0,0,1,.68.22.67.67,0,0,1,.31.24.72.72,0,0,1,.1.4.77.77,0,0,1-.13.43.87.87,0,0,1-.39.31,1.32,1.32,0,0,1-.57.12,1.35,1.35,0,0,1-.81-.22A1.06,1.06,0,0,1,63.35,51.8Z"/><path class="cls-4" d="M28.93,45.87l-.55,1.22h-2l0,0s0,0,0,0,0-.13,0-.19V23.59a28.91,28.91,0,0,1,3.51,0v8.61a.45.45,0,0,0,.26-.1,8.06,8.06,0,0,1,3.48-1,7.69,7.69,0,0,1,2.44.21A4.94,4.94,0,0,1,39.34,34a9,9,0,0,1,.81,2.79,18.44,18.44,0,0,1,.15,3.48,11.27,11.27,0,0,1-.79,4,5,5,0,0,1-3.92,3.16A8.46,8.46,0,0,1,29.11,46Zm.9-2.31a.7.7,0,0,0,.1.08,6.45,6.45,0,0,0,4.1.79,2.72,2.72,0,0,0,2.17-1.6,4.92,4.92,0,0,0,.42-1.45,16.23,16.23,0,0,0,.07-3.75A6,6,0,0,0,36.32,36,2.79,2.79,0,0,0,33.84,34a6.51,6.51,0,0,0-3.84.77c-.07,0-.14.07-.17.14Z"/><path class="cls-4" d="M41.43,46.6V43.7c.09-.08.16,0,.23,0a13.06,13.06,0,0,0,3.07.72,9.81,9.81,0,0,0,3.5-.13,3.45,3.45,0,0,0,.52-.16,1.67,1.67,0,0,0,1.09-2,1.45,1.45,0,0,0-1-1.23,5.34,5.34,0,0,0-1.53-.31,16.05,16.05,0,0,1-2.84-.48,5.71,5.71,0,0,1-1.33-.54,3.17,3.17,0,0,1-1.62-2.06,5.75,5.75,0,0,1,0-2.94,4.29,4.29,0,0,1,2.18-2.73A6.74,6.74,0,0,1,46,31.13a14.43,14.43,0,0,1,3.35-.06,9.52,9.52,0,0,1,2.93.61l.27.11v3c-.11.06-.18,0-.27,0a12.85,12.85,0,0,0-3-.69,8.68,8.68,0,0,0-2.92.06,2.86,2.86,0,0,0-.8.3,1.78,1.78,0,0,0-.69,2.25,1.33,1.33,0,0,0,.71.65,4.62,4.62,0,0,0,1.32.31c.8.09,1.61.16,2.4.32a7.87,7.87,0,0,1,2,.63,3.26,3.26,0,0,1,1.87,2.36,6.41,6.41,0,0,1,0,2.79,4.33,4.33,0,0,1-2.75,3.13,8.44,8.44,0,0,1-2.49.57,13.13,13.13,0,0,1-1.88.06,15.92,15.92,0,0,1-4.22-.69A1,1,0,0,1,41.43,46.6Z"/><path class="cls-4" d="M54.8,31.38h3.42c.12.14.07.31.07.46V43.07a3.7,3.7,0,0,0,0,.47.83.83,0,0,0,.79.82l.47,0c0,.94,0,1.87,0,2.79a.47.47,0,0,1-.34.13A5.69,5.69,0,0,1,56.83,47a3.1,3.1,0,0,1-2-2.45,7.24,7.24,0,0,1-.13-1.47V31.83A.81.81,0,0,1,54.8,31.38Z"/><path class="cls-4" d="M58.8,26.75A2.31,2.31,0,0,1,56.49,29a2.36,2.36,0,0,1-2.27-2.31,2.32,2.32,0,0,1,2.28-2.28A2.29,2.29,0,0,1,58.8,26.75Z"/><path class="cls-4" d="M65.43,45.18a2.29,2.29,0,0,1-2.29,2.29,2.29,2.29,0,0,1,0-4.57A2.27,2.27,0,0,1,65.43,45.18Z"/></g><path class="cls-4" d="M17.8,76.05l.44-.52a3,3,0,0,0,2.16.89c.85,0,1.41-.45,1.41-1.07v0c0-.58-.32-.92-1.64-1.2s-2.12-.78-2.12-1.81v0a1.87,1.87,0,0,1,2.08-1.72,3.31,3.31,0,0,1,2.21.77l-.41.55a2.78,2.78,0,0,0-1.82-.68c-.82,0-1.34.45-1.34,1h0c0,.6.32.93,1.71,1.23s2.05.82,2.05,1.78v0c0,1.08-.9,1.78-2.15,1.78A3.69,3.69,0,0,1,17.8,76.05Z"/><path class="cls-4" d="M23.24,75.62v0c0-1,.81-1.5,2-1.5a4.83,4.83,0,0,1,1.43.2v-.17c0-.83-.51-1.26-1.39-1.26a3.19,3.19,0,0,0-1.41.34l-.21-.57a3.93,3.93,0,0,1,1.69-.39,2,2,0,0,1,1.51.52,1.84,1.84,0,0,1,.48,1.36V77h-.67v-.7a2,2,0,0,1-1.68.8A1.57,1.57,0,0,1,23.24,75.62Zm3.43-.36v-.45a4.8,4.8,0,0,0-1.37-.2c-.87,0-1.36.38-1.36,1h0c0,.59.54.93,1.17.93A1.41,1.41,0,0,0,26.67,75.26Z"/><path class="cls-4" d="M28.79,72.93h-.64v-.6h.64v-.41a1.66,1.66,0,0,1,.41-1.2,1.37,1.37,0,0,1,1-.36,2.09,2.09,0,0,1,.76.12v.6a2.34,2.34,0,0,0-.67-.11c-.54,0-.81.32-.81,1v.37H31v.6H29.48v4h-.69Z"/><path class="cls-4" d="M31.19,74.66v0a2.29,2.29,0,0,1,2.23-2.42,2.21,2.21,0,0,1,2.17,2.45,1.69,1.69,0,0,1,0,.23H31.89a1.63,1.63,0,0,0,1.64,1.58A1.92,1.92,0,0,0,35,75.82l.44.39a2.42,2.42,0,0,1-1.92.87A2.31,2.31,0,0,1,31.19,74.66Zm3.7-.27A1.54,1.54,0,0,0,33.4,72.8a1.61,1.61,0,0,0-1.51,1.59Z"/><path class="cls-4" d="M36.77,75.74V72.93h-.64v-.61h.64V70.91h.7v1.41h1.47v.61H37.47v2.72a.69.69,0,0,0,.78.77,1.47,1.47,0,0,0,.68-.16v.59a1.74,1.74,0,0,1-.84.2A1.19,1.19,0,0,1,36.77,75.74Z"/><path class="cls-4" d="M43.38,72.32h.74l-1.95,4.8c-.4,1-.85,1.32-1.55,1.32a2,2,0,0,1-1-.24l.23-.54a1.54,1.54,0,0,0,.73.17c.41,0,.68-.22.95-.88l-2.11-4.63h.76l1.7,3.88Z"/><path class="cls-4" d="M47.56,70.67h.71V77h-.71Z"/><path class="cls-4" d="M49.72,72.32h.7v.81A1.74,1.74,0,0,1,52,72.22a1.69,1.69,0,0,1,1.78,1.86V77H53.1V74.25a1.24,1.24,0,0,0-1.29-1.4,1.36,1.36,0,0,0-1.39,1.46V77h-.7Z"/><path class="cls-4" d="M59.21,71.33H57.1v-.66h4.95v.66H59.93V77h-.72Z"/><path class="cls-4" d="M62.85,70.4h.69v2.73a1.75,1.75,0,0,1,1.59-.91,1.7,1.7,0,0,1,1.79,1.86V77h-.7V74.25a1.24,1.24,0,0,0-1.28-1.4,1.37,1.37,0,0,0-1.4,1.46V77h-.69Z"/><path class="cls-4" d="M67.83,74.66v0a2.3,2.3,0,0,1,2.24-2.42,2.22,2.22,0,0,1,2.17,2.45,1.69,1.69,0,0,1,0,.23H68.54a1.62,1.62,0,0,0,1.63,1.58,2,2,0,0,0,1.47-.66l.43.39a2.4,2.4,0,0,1-1.91.87A2.32,2.32,0,0,1,67.83,74.66Zm3.7-.27a1.53,1.53,0,0,0-1.48-1.59,1.61,1.61,0,0,0-1.51,1.59Z"/><path class="cls-4" d="M13.64,81.67h.71v2.8H18v-2.8h.72V88H18V85.13H14.35V88h-.71Z"/><path class="cls-4" d="M19.8,85.67v0a2.43,2.43,0,0,1,4.85,0v0a2.42,2.42,0,0,1-2.44,2.43A2.39,2.39,0,0,1,19.8,85.67Zm4.14,0v0a1.76,1.76,0,0,0-1.73-1.82,1.72,1.72,0,0,0-1.7,1.8v0a1.75,1.75,0,0,0,1.72,1.81A1.72,1.72,0,0,0,23.94,85.67Z"/><path class="cls-4" d="M25.63,83.32h.7v.78a1.69,1.69,0,0,1,1.5-.88,1.57,1.57,0,0,1,1.49.92A1.87,1.87,0,0,1,31,83.22a1.67,1.67,0,0,1,1.73,1.87V88H32V85.25c0-.9-.45-1.4-1.21-1.4a1.3,1.3,0,0,0-1.28,1.44V88h-.69V85.23c0-.87-.46-1.38-1.2-1.38a1.34,1.34,0,0,0-1.29,1.46V88h-.7Z"/><path class="cls-4" d="M33.63,85.66v0a2.3,2.3,0,0,1,2.24-2.42A2.22,2.22,0,0,1,38,85.67a1.69,1.69,0,0,1,0,.23h-3.7A1.64,1.64,0,0,0,36,87.48a2,2,0,0,0,1.47-.66l.43.39a2.4,2.4,0,0,1-1.91.87A2.32,2.32,0,0,1,33.63,85.66Zm3.7-.27a1.53,1.53,0,0,0-1.48-1.59,1.62,1.62,0,0,0-1.52,1.59Z"/><path class="cls-4" d="M41.25,84.84v0a3.17,3.17,0,0,1,3.18-3.26,3.29,3.29,0,0,1,2.46,1l-.48.52a2.78,2.78,0,0,0-2-.86A2.46,2.46,0,0,0,42,84.8v0a2.48,2.48,0,0,0,2.43,2.6,2.72,2.72,0,0,0,2-.91l.47.46a3.28,3.28,0,0,1-2.52,1.11A3.14,3.14,0,0,1,41.25,84.84Z"/><path class="cls-4" d="M47.4,85.66v0a2.3,2.3,0,0,1,2.24-2.42,2.22,2.22,0,0,1,2.17,2.45,1.69,1.69,0,0,1,0,.23H48.11a1.62,1.62,0,0,0,1.63,1.58,2,2,0,0,0,1.47-.66l.43.39a2.4,2.4,0,0,1-1.91.87A2.32,2.32,0,0,1,47.4,85.66Zm3.7-.27a1.53,1.53,0,0,0-1.48-1.59,1.61,1.61,0,0,0-1.51,1.59Z"/><path class="cls-4" d="M52.75,83.32h.69v1.21a2,2,0,0,1,1.9-1.29V84h-.05a1.88,1.88,0,0,0-1.85,2.14V88h-.69Z"/><path class="cls-4" d="M56.37,86.74V83.93h-.65v-.61h.65V81.91h.69v1.41h1.48v.61H57.06v2.72a.69.69,0,0,0,.78.77,1.41,1.41,0,0,0,.68-.16v.59a1.71,1.71,0,0,1-.84.2A1.18,1.18,0,0,1,56.37,86.74Z"/><path class="cls-4" d="M59.51,81.53h.79v.77h-.79Zm0,1.79h.7V88h-.7Z"/><path class="cls-4" d="M61.85,83.93h-.64v-.6h.64v-.41a1.65,1.65,0,0,1,.4-1.2,1.4,1.4,0,0,1,1-.36,2.15,2.15,0,0,1,.77.12v.6a2.35,2.35,0,0,0-.68-.11c-.54,0-.81.32-.81,1v.37H64v.6H62.54v4h-.69Zm3.06-2.4h.79v.77h-.79Zm0,1.79h.69V88H65Z"/><path class="cls-4" d="M66.71,85.66v0a2.29,2.29,0,0,1,2.23-2.42,2.21,2.21,0,0,1,2.17,2.45,1.69,1.69,0,0,1,0,.23H67.41a1.63,1.63,0,0,0,1.64,1.58,2,2,0,0,0,1.47-.66l.43.39a2.42,2.42,0,0,1-1.92.87A2.31,2.31,0,0,1,66.71,85.66Zm3.7-.27a1.54,1.54,0,0,0-1.49-1.59,1.61,1.61,0,0,0-1.51,1.59Z"/><path class="cls-4" d="M71.78,85.66v0A2.29,2.29,0,0,1,74,83.22a2.11,2.11,0,0,1,1.78,1V81.4h.69V88h-.69V87a2.1,2.1,0,0,1-1.78,1A2.27,2.27,0,0,1,71.78,85.66Zm4,0v0a1.73,1.73,0,0,0-1.69-1.79,1.63,1.63,0,0,0-1.63,1.79v0a1.68,1.68,0,0,0,1.63,1.8A1.74,1.74,0,0,0,75.82,85.65Z"/></svg>