<svg id="Layer_1" data-name="Layer 1" xmlns="http://www.w3.org/2000/svg" viewBox="0 0 90 100"><defs><style>.cls-1{fill:#fff;stroke:#74af27;stroke-miterlimit:10;}.cls-2{fill:#74af27;}</style></defs><title>EV-Connectivity-WIFIConnectivity</title><circle class="cls-1" cx="45" cy="37.74" r="28.35"/><path class="cls-2" d="M35.26,70.68H36l1.8,5.25,1.73-5.26h.59l1.72,5.26,1.81-5.25h.74L42.17,77h-.6l-1.73-5.11L38.1,77h-.59Z"/><path class="cls-2" d="M45.5,70.68h.71V77H45.5Z"/><path class="cls-2" d="M47.79,70.68h4.52v.66H48.5v2.25h3.41v.65H48.5V77h-.71Z"/><path class="cls-2" d="M53.48,70.68h.71V77h-.71Z"/><path class="cls-2" d="M18.83,84.85v0A3.17,3.17,0,0,1,22,81.58a3.27,3.27,0,0,1,2.46,1L24,83.1a2.71,2.71,0,0,0-2-.87,2.48,2.48,0,0,0-2.44,2.59h0A2.49,2.49,0,0,0,22,87.44a2.77,2.77,0,0,0,2-.91l.46.46A3.27,3.27,0,0,1,22,88.09,3.14,3.14,0,0,1,18.83,84.85Z"/><path class="cls-2" d="M25,85.68v0a2.41,2.41,0,0,1,2.43-2.43,2.39,2.39,0,0,1,2.42,2.41v0a2.41,2.41,0,0,1-2.44,2.43A2.38,2.38,0,0,1,25,85.68Zm4.14,0v0a1.76,1.76,0,0,0-1.73-1.82,1.72,1.72,0,0,0-1.7,1.8v0a1.75,1.75,0,0,0,1.72,1.81A1.72,1.72,0,0,0,29.13,85.68Z"/><path class="cls-2" d="M30.82,83.33h.69v.81a1.79,1.79,0,0,1,1.6-.91,1.7,1.7,0,0,1,1.78,1.87V88H34.2V85.27a1.24,1.24,0,0,0-1.29-1.41,1.38,1.38,0,0,0-1.4,1.46V88h-.69Z"/><path class="cls-2" d="M36.1,83.33h.69v.81a1.76,1.76,0,0,1,1.59-.91,1.7,1.7,0,0,1,1.78,1.87V88h-.69V85.27a1.24,1.24,0,0,0-1.29-1.41,1.37,1.37,0,0,0-1.39,1.46V88H36.1Z"/><path class="cls-2" d="M41.08,85.67v0a2.3,2.3,0,0,1,2.23-2.42,2.22,2.22,0,0,1,2.17,2.46,1.77,1.77,0,0,1,0,.23H41.78a1.63,1.63,0,0,0,1.64,1.57,1.92,1.92,0,0,0,1.47-.66l.43.39a2.4,2.4,0,0,1-1.92.87A2.32,2.32,0,0,1,41.08,85.67Zm3.7-.27a1.53,1.53,0,0,0-1.48-1.58,1.61,1.61,0,0,0-1.52,1.58Z"/><path class="cls-2" d="M46.14,85.68v0a2.42,2.42,0,0,1,4.25-1.6l-.46.49a1.87,1.87,0,0,0-1.41-.71,1.72,1.72,0,0,0-1.67,1.8v0a1.74,1.74,0,0,0,1.71,1.81A1.91,1.91,0,0,0,50,86.78l.44.41a2.35,2.35,0,0,1-1.9.9A2.39,2.39,0,0,1,46.14,85.68Z"/><path class="cls-2" d="M51.54,86.75V83.94h-.65v-.61h.65v-1.4h.69v1.4h1.48v.61H52.23v2.72a.7.7,0,0,0,.79.78,1.42,1.42,0,0,0,.67-.17v.6a1.8,1.8,0,0,1-.84.2A1.19,1.19,0,0,1,51.54,86.75Z"/><path class="cls-2" d="M54.68,81.55h.79v.76h-.79Zm0,1.78h.69V88h-.69Z"/><path class="cls-2" d="M56.3,83.33h.76l1.57,3.86,1.58-3.86H61l-2,4.69h-.61Z"/><path class="cls-2" d="M61.79,81.55h.79v.76h-.79Zm0,1.78h.7V88h-.7Z"/><path class="cls-2" d="M64.11,86.75V83.94h-.65v-.61h.65v-1.4h.69v1.4h1.48v.61H64.8v2.72a.7.7,0,0,0,.79.78,1.42,1.42,0,0,0,.67-.17v.6a1.79,1.79,0,0,1-.83.2A1.19,1.19,0,0,1,64.11,86.75Z"/><path class="cls-2" d="M70.72,83.33h.74l-2,4.81c-.39,1-.84,1.31-1.55,1.31a2.19,2.19,0,0,1-1-.23l.24-.55a1.41,1.41,0,0,0,.73.17c.41,0,.67-.21.95-.87l-2.11-4.64h.76l1.69,3.88Z"/><path class="cls-2" d="M28.14,38.71A1.94,1.94,0,0,1,27,38.3a1.92,1.92,0,0,1-.31-2.7,24.47,24.47,0,0,1,5.16-4.31,24.92,24.92,0,0,1,11.85-4.1c6.85-.42,13.42,2.42,19.53,8.44a1.91,1.91,0,0,1-2.68,2.73C55.24,33.18,49.69,30.7,44,31a21,21,0,0,0-10,3.43A21.61,21.61,0,0,0,29.65,38,1.88,1.88,0,0,1,28.14,38.71ZM34,42.88c.44-.5,4.49-4.91,10.28-5.14,3.95-.16,7.91,1.66,11.79,5.41a1.92,1.92,0,1,0,2.66-2.76c-4.66-4.5-9.57-6.68-14.6-6.48-7.23.29-12.1,5.42-13,6.44a1.91,1.91,0,0,0,.17,2.7,1.87,1.87,0,0,0,1.25.48A1.89,1.89,0,0,0,34,42.88Zm4.52,4.92a8.65,8.65,0,0,1,5.61-3.19c2.52-.26,5,1,7.48,3.6a1.91,1.91,0,0,0,2.81-2.6c-4.11-4.45-8.08-5.07-10.68-4.81a12.28,12.28,0,0,0-8.49,5,1.92,1.92,0,0,0,.64,2.63,2,2,0,0,0,1,.27A1.89,1.89,0,0,0,38.51,47.8Z"/></svg>