<svg id="Layer_1" data-name="Layer 1" xmlns="http://www.w3.org/2000/svg" xmlns:xlink="http://www.w3.org/1999/xlink" viewBox="0 0 90 100"><defs><style>.cls-1,.cls-5{fill:none;}.cls-2{fill:#74af27;}.cls-3{fill:#fff;}.cls-4{clip-path:url(#clip-path);}.cls-5{stroke:#74af27;stroke-miterlimit:10;}</style><clipPath id="clip-path"><circle class="cls-1" cx="44.94" cy="37.74" r="28.35"/></clipPath></defs><title>EV-Certifications_Awards-OpenChargePointProtocol</title><path class="cls-2" d="M17.29,73.85v0a3.21,3.21,0,1,1,6.42,0h0a3.19,3.19,0,0,1-3.22,3.26A3.15,3.15,0,0,1,17.29,73.85Zm5.69,0v0a2.51,2.51,0,0,0-2.49-2.6A2.48,2.48,0,0,0,18,73.82h0a2.5,2.5,0,0,0,2.48,2.61A2.48,2.48,0,0,0,23,73.85Z"/><path class="cls-2" d="M24.83,72.33h.69v.94a2.1,2.1,0,0,1,1.78-1,2.28,2.28,0,0,1,2.23,2.42h0a2.27,2.27,0,0,1-2.23,2.42,2.08,2.08,0,0,1-1.78-1v2.34h-.69Zm4,2.34v0a1.68,1.68,0,0,0-1.64-1.8,1.73,1.73,0,0,0-1.68,1.8h0a1.73,1.73,0,0,0,1.68,1.8A1.64,1.64,0,0,0,28.82,74.67Z"/><path class="cls-2" d="M30.25,74.67v0a2.29,2.29,0,0,1,2.23-2.42,2.22,2.22,0,0,1,2.17,2.46,1.77,1.77,0,0,1,0,.23H31a1.63,1.63,0,0,0,1.64,1.57,1.89,1.89,0,0,0,1.46-.66l.44.39a2.42,2.42,0,0,1-1.92.87A2.31,2.31,0,0,1,30.25,74.67ZM34,74.4a1.53,1.53,0,0,0-1.49-1.58A1.6,1.6,0,0,0,31,74.4Z"/><path class="cls-2" d="M35.59,72.33h.7v.81a1.76,1.76,0,0,1,1.59-.91,1.7,1.7,0,0,1,1.78,1.87V77H39V74.27a1.24,1.24,0,0,0-1.29-1.41,1.37,1.37,0,0,0-1.39,1.46V77h-.7Z"/><path class="cls-2" d="M43.13,73.85v0a3.17,3.17,0,0,1,3.19-3.25,3.27,3.27,0,0,1,2.46,1l-.49.52a2.71,2.71,0,0,0-2-.87,2.48,2.48,0,0,0-2.44,2.59h0a2.5,2.5,0,0,0,2.44,2.61,2.77,2.77,0,0,0,2-.91l.47.46a3.31,3.31,0,0,1-2.53,1.1A3.15,3.15,0,0,1,43.13,73.85Z"/><path class="cls-2" d="M49.67,70.41h.69v2.73a1.78,1.78,0,0,1,1.6-.91,1.7,1.7,0,0,1,1.78,1.87V77H53V74.27a1.24,1.24,0,0,0-1.28-1.41,1.38,1.38,0,0,0-1.4,1.46V77h-.69Z"/><path class="cls-2" d="M54.59,75.64v0c0-1,.81-1.51,2-1.51a5.18,5.18,0,0,1,1.43.2v-.16c0-.84-.51-1.27-1.38-1.27a3.38,3.38,0,0,0-1.42.34L55,72.66a3.8,3.8,0,0,1,1.7-.39,2,2,0,0,1,1.5.51,1.83,1.83,0,0,1,.48,1.36V77H58v-.71a2,2,0,0,1-1.68.8A1.56,1.56,0,0,1,54.59,75.64ZM58,75.28v-.45a4.8,4.8,0,0,0-1.37-.2c-.87,0-1.36.38-1.36,1v0c0,.58.54.93,1.17.93A1.41,1.41,0,0,0,58,75.28Z"/><path class="cls-2" d="M59.88,72.33h.7v1.22a2,2,0,0,1,1.9-1.3V73h-.06a1.88,1.88,0,0,0-1.84,2.13V77h-.7Z"/><path class="cls-2" d="M63,77.8l.31-.54a3,3,0,0,0,1.79.59,1.53,1.53,0,0,0,1.69-1.66v-.55a2.18,2.18,0,0,1-1.82,1,2.15,2.15,0,0,1-2.19-2.18v0A2.16,2.16,0,0,1,65,72.23a2.21,2.21,0,0,1,1.82.94v-.84h.69v3.85a2.21,2.21,0,0,1-.6,1.64,2.4,2.4,0,0,1-1.77.62A3.65,3.65,0,0,1,63,77.8Zm3.81-3.36v0a1.64,1.64,0,0,0-1.71-1.58,1.54,1.54,0,0,0-1.61,1.57v0A1.57,1.57,0,0,0,65.12,76,1.64,1.64,0,0,0,66.83,74.44Z"/><path class="cls-2" d="M68.49,74.67v0a2.29,2.29,0,0,1,2.23-2.42,2.22,2.22,0,0,1,2.17,2.46,1.77,1.77,0,0,1,0,.23H69.19a1.63,1.63,0,0,0,1.64,1.57,1.89,1.89,0,0,0,1.46-.66l.44.39a2.42,2.42,0,0,1-1.92.87A2.31,2.31,0,0,1,68.49,74.67Zm3.7-.27a1.53,1.53,0,0,0-1.49-1.58,1.6,1.6,0,0,0-1.51,1.58Z"/><path class="cls-2" d="M15.75,81.68h2.36c1.42,0,2.35.76,2.35,2v0c0,1.36-1.13,2.06-2.47,2.06H16.46V88h-.71ZM18,85.11c1,0,1.73-.55,1.73-1.38v0c0-.9-.68-1.37-1.7-1.37H16.46v2.77Z"/><path class="cls-2" d="M21,85.68v0a2.43,2.43,0,1,1,4.85,0h0a2.41,2.41,0,0,1-2.44,2.43A2.38,2.38,0,0,1,21,85.68Zm4.14,0v0a1.76,1.76,0,0,0-1.73-1.82,1.72,1.72,0,0,0-1.7,1.81h0a1.75,1.75,0,0,0,1.72,1.81A1.72,1.72,0,0,0,25.18,85.68Z"/><path class="cls-2" d="M26.89,81.55h.79v.76h-.79Zm0,1.78h.7V88h-.7Z"/><path class="cls-2" d="M29,83.33h.69v.81a1.77,1.77,0,0,1,1.59-.91A1.71,1.71,0,0,1,33,85.1V88h-.7V85.27a1.24,1.24,0,0,0-1.28-1.41,1.38,1.38,0,0,0-1.4,1.46V88H29Z"/><path class="cls-2" d="M34.49,86.75V83.94h-.65v-.61h.65v-1.4h.69v1.4h1.48v.61H35.18v2.72a.69.69,0,0,0,.78.78,1.57,1.57,0,0,0,.68-.16v.59a1.74,1.74,0,0,1-.84.2A1.18,1.18,0,0,1,34.49,86.75Z"/><path class="cls-2" d="M40.16,81.68h2.35c1.43,0,2.36.76,2.36,2v0c0,1.36-1.13,2.06-2.47,2.06H40.87V88h-.71Zm2.26,3.43c1,0,1.73-.55,1.73-1.38v0c0-.9-.67-1.37-1.69-1.37H40.87v2.77Z"/><path class="cls-2" d="M45.78,83.33h.69v1.22a2,2,0,0,1,1.9-1.3V84h0a1.88,1.88,0,0,0-1.85,2.13V88h-.69Z"/><path class="cls-2" d="M48.67,85.68v0a2.43,2.43,0,1,1,4.85,0h0a2.41,2.41,0,0,1-2.44,2.43A2.38,2.38,0,0,1,48.67,85.68Zm4.14,0v0a1.76,1.76,0,0,0-1.73-1.82,1.72,1.72,0,0,0-1.7,1.81h0a1.75,1.75,0,0,0,1.72,1.81A1.72,1.72,0,0,0,52.81,85.68Z"/><path class="cls-2" d="M54.75,86.75V83.94H54.1v-.61h.65v-1.4h.69v1.4h1.47v.61H55.44v2.72a.69.69,0,0,0,.78.78,1.57,1.57,0,0,0,.68-.16v.59a1.74,1.74,0,0,1-.84.2A1.18,1.18,0,0,1,54.75,86.75Z"/><path class="cls-2" d="M57.44,85.68v0a2.43,2.43,0,0,1,4.86,0h0a2.42,2.42,0,0,1-2.44,2.43A2.38,2.38,0,0,1,57.44,85.68Zm4.14,0v0a1.76,1.76,0,0,0-1.72-1.82,1.72,1.72,0,0,0-1.7,1.81h0a1.74,1.74,0,0,0,1.72,1.81A1.71,1.71,0,0,0,61.58,85.68Z"/><path class="cls-2" d="M63,85.68v0a2.42,2.42,0,0,1,4.25-1.6l-.46.49a1.87,1.87,0,0,0-1.41-.71,1.73,1.73,0,0,0-1.67,1.81h0a1.74,1.74,0,0,0,1.71,1.81,1.91,1.91,0,0,0,1.42-.69l.44.41a2.35,2.35,0,0,1-1.9.9A2.38,2.38,0,0,1,63,85.68Z"/><path class="cls-2" d="M67.72,85.68v0a2.43,2.43,0,0,1,4.86,0h0a2.42,2.42,0,0,1-2.45,2.43A2.38,2.38,0,0,1,67.72,85.68Zm4.14,0v0a1.76,1.76,0,0,0-1.73-1.82,1.72,1.72,0,0,0-1.7,1.81h0a1.75,1.75,0,0,0,1.72,1.81A1.72,1.72,0,0,0,71.86,85.68Z"/><path class="cls-2" d="M73.62,81.41h.69V88h-.69Z"/><circle class="cls-3" cx="45" cy="37.74" r="28.35"/><g class="cls-4"><path class="cls-2" d="M38.09,23.54c1.19.09,2.38.12,3.56.26a36.28,36.28,0,0,1,4.63.86,44.22,44.22,0,0,1,6,2,40.7,40.7,0,0,1,9.16,5.16,22.47,22.47,0,0,1,4.79,4.75A10.85,10.85,0,0,1,68,40.11a7.83,7.83,0,0,1-.49,5.43,11.53,11.53,0,0,1-3.33,4A22.43,22.43,0,0,1,58.12,53a32.58,32.58,0,0,1-5.89,1.64c-1.27.22-2.55.36-3.84.46a29.67,29.67,0,0,1-3.65.05,25.12,25.12,0,0,1-7.08-1.33A22.78,22.78,0,0,1,31,50.13,18.55,18.55,0,0,1,25.45,43a16.16,16.16,0,0,1-1.39-5.32A19.83,19.83,0,0,1,24,34.75a13.25,13.25,0,0,1,1.32-5.12,9.16,9.16,0,0,1,5-4.69,18.44,18.44,0,0,1,3.93-1.07A27,27,0,0,1,38.09,23.54ZM27.33,36h6.93a17.05,17.05,0,0,1,.44-4,2.68,2.68,0,0,0-.35,0H28.52c-.35,0-.34,0-.48.35a9.82,9.82,0,0,0-.59,2.25C27.39,35.07,27.37,35.52,27.33,36ZM34.7,41,34.18,37c-.39-.08-6.45-.07-6.76,0a.19.19,0,0,0,0,.08,15.11,15.11,0,0,0,.75,3.44c.15.42.15.42.6.42h6Zm-6,1,.54,1a15,15,0,0,0,1.92,2.69.83.83,0,0,0,.7.3h4.66c-.3-.71-.59-1.33-.84-2s-.48-1.33-.72-2Zm9.17-15.06-.4,0a14.41,14.41,0,0,0-3.46.34,7.74,7.74,0,0,0-4.52,2.67,5.26,5.26,0,0,0-.8,1.22H35A8.74,8.74,0,0,1,37.87,26.88Zm6,12.19a5.12,5.12,0,0,0,0-.68,2.49,2.49,0,0,0-1.66-2.31A4.4,4.4,0,0,0,39.6,36a2.4,2.4,0,0,0-1.79,1.81,4.3,4.3,0,0,0,.07,2.56,2.56,2.56,0,0,0,2.24,1.82,4.58,4.58,0,0,0,1.61,0,2.46,2.46,0,0,0,2-1.68A3.65,3.65,0,0,0,43.91,39.07Zm9.29,1a12.52,12.52,0,0,0,1.3-.4,2,2,0,0,0,1.31-2.48,1.33,1.33,0,0,0-1-1.17,3.86,3.86,0,0,0-.88-.15c-.8,0-1.59,0-2.39,0h-.17c-.19,0-.28.1-.28.29a1,1,0,0,1,0,.17v5.45c0,.13,0,.25,0,.38h1.23V37.51c0-.16,0-.32,0-.51.58,0,1.12,0,1.66,0a.48.48,0,0,1,.5.38,1,1,0,0,1-.31,1.08,4.4,4.4,0,0,1-.72.36c-.15.06-.31.1-.48.15ZM57.78,37H59.5a.49.49,0,0,1,.47.37.94.94,0,0,1-.3,1.07,2.72,2.72,0,0,1-.63.34,4.76,4.76,0,0,1-.57.19l.19,1.09c.43-.12.8-.2,1.16-.34A2.06,2.06,0,0,0,61.3,37.6a1.54,1.54,0,0,0-1.42-1.66,3.91,3.91,0,0,0-.68-.06c-.74,0-1.48,0-2.21,0-.47,0-.47,0-.47.48,0,1.81,0,3.61,0,5.42,0,.12,0,.24,0,.39a5.07,5.07,0,0,0,1.23,0ZM50,42v-1s-.06,0-.07,0l-.24.05a4.35,4.35,0,0,1-1.89.19A1.72,1.72,0,0,1,46.17,40a3,3,0,0,1-.05-1.88,1.51,1.51,0,0,1,1-1.06A3.06,3.06,0,0,1,48.73,37l1.23.26c0-.25,0-.48,0-.72s0-.36-.34-.44A5.66,5.66,0,0,0,46.79,36,2.4,2.4,0,0,0,45,37.49a4.16,4.16,0,0,0,0,3.12,2.3,2.3,0,0,0,1.5,1.4,6.37,6.37,0,0,0,1.12.23A5.08,5.08,0,0,0,50,42ZM32.63,46.9c.93,1.31,5.9,3.94,7.57,4l-.36-.38c-.48-.56-1-1.1-1.44-1.68s-.77-1.05-1.12-1.6a.74.74,0,0,0-.7-.37c-1.2,0-2.41,0-3.61,0Z"/><path class="cls-3" d="M27.33,36c0-.5.06-1,.12-1.4A9.82,9.82,0,0,1,28,32.37c.14-.34.13-.35.48-.35h5.83a2.68,2.68,0,0,1,.35,0,17.05,17.05,0,0,0-.44,4Z"/><path class="cls-3" d="M34.7,41h-6c-.45,0-.45,0-.6-.42a15.11,15.11,0,0,1-.75-3.44.19.19,0,0,1,0-.08c.31-.09,6.37-.1,6.76,0Z"/><path class="cls-3" d="M28.7,41.94H35c.24.69.46,1.36.72,2s.54,1.26.84,2H31.86a.83.83,0,0,1-.7-.3,15,15,0,0,1-1.92-2.69Z"/><path class="cls-3" d="M37.87,26.88a8.74,8.74,0,0,0-2.9,4.2H28.69a5.26,5.26,0,0,1,.8-1.22A7.74,7.74,0,0,1,34,27.19a14.41,14.41,0,0,1,3.46-.34Z"/><path class="cls-3" d="M43.91,39.07a3.65,3.65,0,0,1-.17,1.43,2.46,2.46,0,0,1-2,1.68,4.58,4.58,0,0,1-1.61,0,2.56,2.56,0,0,1-2.24-1.82,4.3,4.3,0,0,1-.07-2.56A2.4,2.4,0,0,1,39.6,36a4.4,4.4,0,0,1,2.64.07,2.49,2.49,0,0,1,1.66,2.31A5.12,5.12,0,0,1,43.91,39.07Zm-5-.06a4.7,4.7,0,0,0,0,.68,1.59,1.59,0,0,0,1.23,1.42,2.9,2.9,0,0,0,.93,0,1.46,1.46,0,0,0,1.39-1.06,3,3,0,0,0,.17-1.34c-.13-1-.46-1.68-1.61-1.81A1.71,1.71,0,0,0,39,38.3,6.3,6.3,0,0,0,38.93,39Z"/><path class="cls-3" d="M53.2,40.08,53,39c.17,0,.33-.09.48-.15a4.4,4.4,0,0,0,.72-.36,1,1,0,0,0,.31-1.08A.48.48,0,0,0,54,37c-.54,0-1.08,0-1.66,0,0,.19,0,.35,0,.51v4.66H51.1c0-.13,0-.25,0-.38V36.34a1,1,0,0,0,0-.17c0-.19.09-.29.28-.29h.17c.8,0,1.59,0,2.39,0a3.86,3.86,0,0,1,.88.15,1.33,1.33,0,0,1,1,1.17,2,2,0,0,1-1.31,2.48A12.52,12.52,0,0,1,53.2,40.08Z"/><path class="cls-3" d="M57.78,37v5.15a5.07,5.07,0,0,1-1.23,0c0-.15,0-.27,0-.39,0-1.81,0-3.61,0-5.42,0-.47,0-.48.47-.48.73,0,1.47,0,2.21,0a3.91,3.91,0,0,1,.68.06A1.54,1.54,0,0,1,61.3,37.6a2.06,2.06,0,0,1-1.48,2.13c-.36.14-.73.22-1.16.34L58.47,39a4.76,4.76,0,0,0,.57-.19,2.72,2.72,0,0,0,.63-.34.94.94,0,0,0,.3-1.07A.49.49,0,0,0,59.5,37Z"/><path class="cls-3" d="M50,42a5.08,5.08,0,0,1-2.3.29A6.37,6.37,0,0,1,46.53,42a2.3,2.3,0,0,1-1.5-1.4,4.16,4.16,0,0,1,0-3.12A2.4,2.4,0,0,1,46.79,36a5.66,5.66,0,0,1,2.86.05c.32.08.34.12.34.44s0,.47,0,.72L48.73,37a3.06,3.06,0,0,0-1.59.13,1.51,1.51,0,0,0-1,1.06A3,3,0,0,0,46.17,40a1.72,1.72,0,0,0,1.58,1.12A4.35,4.35,0,0,0,49.64,41l.24-.05s0,0,.07,0Z"/><path class="cls-3" d="M32.63,46.9l.34,0c1.2,0,2.41,0,3.61,0a.74.74,0,0,1,.7.37c.35.55.72,1.09,1.12,1.6s1,1.12,1.44,1.68l.36.38C38.53,50.84,33.56,48.21,32.63,46.9Z"/><path class="cls-2" d="M38.93,39A6.3,6.3,0,0,1,39,38.3a1.71,1.71,0,0,1,2.08-1.36c1.15.13,1.48.76,1.61,1.81a3,3,0,0,1-.17,1.34,1.46,1.46,0,0,1-1.39,1.06,2.9,2.9,0,0,1-.93,0A1.59,1.59,0,0,1,39,39.69,4.7,4.7,0,0,1,38.93,39Z"/></g><circle class="cls-5" cx="45" cy="37.74" r="28.35"/></svg>