<svg id="Layer_1" data-name="Layer 1" xmlns="http://www.w3.org/2000/svg" xmlns:xlink="http://www.w3.org/1999/xlink" viewBox="0 0 90 100"><defs><style>.cls-1,.cls-5{fill:none;}.cls-2{fill:#fff;}.cls-2,.cls-5{stroke:#74af27;stroke-miterlimit:10;}.cls-3{fill:#74af27;}.cls-4{clip-path:url(#clip-path);}</style><clipPath id="clip-path"><circle class="cls-1" cx="45" cy="37.74" r="28.35"/></clipPath></defs><title>EV-Connectivity-EthernetConnectivity</title><circle class="cls-2" cx="45" cy="37.74" r="28.35"/><path class="cls-3" d="M27.49,70.68h4.56v.65H28.2v2.15h3.44v.65H28.2v2.21h3.89V77h-4.6Z"/><path class="cls-3" d="M33.38,75.75V72.94h-.65v-.61h.65v-1.4h.69v1.4h1.48v.61H34.07v2.72a.69.69,0,0,0,.78.78,1.43,1.43,0,0,0,.68-.17v.6a1.83,1.83,0,0,1-.84.2A1.18,1.18,0,0,1,33.38,75.75Z"/><path class="cls-3" d="M36.5,70.41h.69v2.73a1.78,1.78,0,0,1,1.6-.91,1.7,1.7,0,0,1,1.78,1.87V77h-.69V74.27a1.24,1.24,0,0,0-1.29-1.41,1.38,1.38,0,0,0-1.4,1.46V77H36.5Z"/><path class="cls-3" d="M41.49,74.67v0a2.29,2.29,0,0,1,2.23-2.42,2.22,2.22,0,0,1,2.17,2.46,1.77,1.77,0,0,1,0,.23H42.19a1.63,1.63,0,0,0,1.64,1.57,1.9,1.9,0,0,0,1.46-.66l.44.39a2.42,2.42,0,0,1-1.92.87A2.31,2.31,0,0,1,41.49,74.67Zm3.7-.27a1.54,1.54,0,0,0-1.49-1.58,1.6,1.6,0,0,0-1.51,1.58Z"/><path class="cls-3" d="M46.83,72.33h.69v1.22a2,2,0,0,1,1.9-1.3V73h-.05a1.88,1.88,0,0,0-1.85,2.13V77h-.69Z"/><path class="cls-3" d="M50.21,72.33h.69v.81a1.77,1.77,0,0,1,1.59-.91,1.71,1.71,0,0,1,1.79,1.87V77h-.7V74.27a1.24,1.24,0,0,0-1.29-1.41,1.37,1.37,0,0,0-1.39,1.46V77h-.69Z"/><path class="cls-3" d="M55.19,74.67v0a2.3,2.3,0,0,1,2.23-2.42,2.22,2.22,0,0,1,2.17,2.46v.23h-3.7a1.63,1.63,0,0,0,1.64,1.57A1.92,1.92,0,0,0,59,75.83l.43.39a2.4,2.4,0,0,1-1.92.87A2.32,2.32,0,0,1,55.19,74.67Zm3.7-.27a1.53,1.53,0,0,0-1.48-1.58,1.61,1.61,0,0,0-1.52,1.58Z"/><path class="cls-3" d="M60.78,75.75V72.94h-.65v-.61h.65v-1.4h.69v1.4H63v.61H61.47v2.72a.7.7,0,0,0,.79.78,1.42,1.42,0,0,0,.67-.17v.6a1.79,1.79,0,0,1-.83.2A1.19,1.19,0,0,1,60.78,75.75Z"/><path class="cls-3" d="M18.83,84.85v0A3.17,3.17,0,0,1,22,81.58a3.27,3.27,0,0,1,2.46,1L24,83.1a2.71,2.71,0,0,0-2-.87,2.48,2.48,0,0,0-2.44,2.59h0A2.49,2.49,0,0,0,22,87.44a2.77,2.77,0,0,0,2-.91l.46.46A3.27,3.27,0,0,1,22,88.09,3.14,3.14,0,0,1,18.83,84.85Z"/><path class="cls-3" d="M25,85.68v0a2.41,2.41,0,0,1,2.43-2.43,2.39,2.39,0,0,1,2.42,2.41v0a2.41,2.41,0,0,1-2.44,2.43A2.38,2.38,0,0,1,25,85.68Zm4.14,0v0a1.76,1.76,0,0,0-1.73-1.82,1.72,1.72,0,0,0-1.7,1.8v0a1.75,1.75,0,0,0,1.72,1.81A1.72,1.72,0,0,0,29.13,85.68Z"/><path class="cls-3" d="M30.82,83.33h.69v.81a1.79,1.79,0,0,1,1.6-.91,1.7,1.7,0,0,1,1.78,1.87V88H34.2V85.27a1.24,1.24,0,0,0-1.29-1.41,1.38,1.38,0,0,0-1.4,1.46V88h-.69Z"/><path class="cls-3" d="M36.1,83.33h.69v.81a1.76,1.76,0,0,1,1.59-.91,1.7,1.7,0,0,1,1.78,1.87V88h-.69V85.27a1.24,1.24,0,0,0-1.29-1.41,1.37,1.37,0,0,0-1.39,1.46V88H36.1Z"/><path class="cls-3" d="M41.08,85.67v0a2.3,2.3,0,0,1,2.23-2.42,2.22,2.22,0,0,1,2.17,2.46,1.77,1.77,0,0,1,0,.23H41.78a1.63,1.63,0,0,0,1.64,1.57,1.92,1.92,0,0,0,1.47-.66l.43.39a2.4,2.4,0,0,1-1.92.87A2.32,2.32,0,0,1,41.08,85.67Zm3.7-.27a1.53,1.53,0,0,0-1.48-1.58,1.61,1.61,0,0,0-1.52,1.58Z"/><path class="cls-3" d="M46.14,85.68v0a2.42,2.42,0,0,1,4.25-1.6l-.46.49a1.87,1.87,0,0,0-1.41-.71,1.72,1.72,0,0,0-1.67,1.8v0a1.74,1.74,0,0,0,1.71,1.81A1.91,1.91,0,0,0,50,86.78l.44.41a2.35,2.35,0,0,1-1.9.9A2.39,2.39,0,0,1,46.14,85.68Z"/><path class="cls-3" d="M51.54,86.75V83.94h-.65v-.61h.65v-1.4h.69v1.4h1.48v.61H52.23v2.72a.7.7,0,0,0,.79.78,1.42,1.42,0,0,0,.67-.17v.6a1.8,1.8,0,0,1-.84.2A1.19,1.19,0,0,1,51.54,86.75Z"/><path class="cls-3" d="M54.68,81.55h.79v.76h-.79Zm0,1.78h.69V88h-.69Z"/><path class="cls-3" d="M56.3,83.33h.76l1.57,3.86,1.58-3.86H61l-2,4.69h-.61Z"/><path class="cls-3" d="M61.79,81.55h.79v.76h-.79Zm0,1.78h.7V88h-.7Z"/><path class="cls-3" d="M64.11,86.75V83.94h-.65v-.61h.65v-1.4h.69v1.4h1.48v.61H64.8v2.72a.7.7,0,0,0,.79.78,1.42,1.42,0,0,0,.67-.17v.6a1.79,1.79,0,0,1-.83.2A1.19,1.19,0,0,1,64.11,86.75Z"/><path class="cls-3" d="M70.72,83.33h.74l-2,4.81c-.39,1-.84,1.31-1.55,1.31a2.19,2.19,0,0,1-1-.23l.24-.55a1.41,1.41,0,0,0,.73.17c.41,0,.67-.21.95-.87l-2.11-4.64h.76l1.69,3.88Z"/><g class="cls-4"><path class="cls-3" d="M53,20.68c0,.5,0,1,0,1.49v5.9H51.72V22H40.09c0,.09,0,.19,0,.28,0,1.86,0,3.71,0,5.57,0,.21,0,.29-.27.28s-.66,0-1,0V20.68Z"/><path class="cls-5" d="M48.13,56.43V68.3c0,.32,0,.32-.32.32H43.66V56.43c-.6,0-1.16,0-1.73,0a1.23,1.23,0,0,1-1.18-.71,1.13,1.13,0,0,1,.52-1.38,1.2,1.2,0,0,1,.7-.11.79.79,0,0,0,.84-.47.75.75,0,0,0,0-.8.71.71,0,0,0-.61-.35H40.6a1.13,1.13,0,0,1-1.09-.79,1.1,1.1,0,0,1,.61-1.35,1.54,1.54,0,0,1,.52-.09c.24,0,.47,0,.71,0a.8.8,0,0,0,.79-.59.78.78,0,0,0-.46-.92.83.83,0,0,0-.32-.06h-2a1.12,1.12,0,0,1-1.11-.8,1.08,1.08,0,0,1,.6-1.32,1.44,1.44,0,0,1,.59-.11c.39,0,.79,0,1.19,0A.78.78,0,0,0,41,45.08a1,1,0,0,0-.35-.08h-2a1.15,1.15,0,0,1-1.17-1.14q0-6.68,0-13.35c0-.22,0-.44,0-.66s0-.19.18-.19H44c.34,0,.34,0,.34.35v5h3.14v-.29c0-1.6,0-3.19,0-4.79,0-.21,0-.28.27-.28,1.05,0,2.1,0,3.15,0l1.43,0c.16,0,.32,0,.48,0,.4,0,.8,0,1.2,0,.22,0,.28.07.28.29,0,4,0,8,0,12,0,.59,0,1.18,0,1.76A1.23,1.23,0,0,1,53,45c-.61,0-1.22,0-1.83,0a.79.79,0,0,0,0,1.57c.51,0,1,0,1.54,0a1.06,1.06,0,0,1,.9.85A1.09,1.09,0,0,1,53,48.67a1.81,1.81,0,0,1-.61.14c-.64,0-1.28,0-1.93,0a.84.84,0,0,0-.82.78.8.8,0,0,0,.8.8c.33,0,.65,0,1,0a1,1,0,0,1,.87.73A1,1,0,0,1,52,52.32a1.12,1.12,0,0,1-.78.3c-.5,0-1,0-1.51,0a.83.83,0,0,0-.79.73.78.78,0,0,0,.72.84l.56,0a1.09,1.09,0,0,1,1,1.15A1.14,1.14,0,0,1,50,56.43Z"/><path class="cls-3" d="M47.74,23.3v4.79H46.57s-.11-.11-.11-.17q0-2.22,0-4.44s.09-.16.14-.16Z"/><path class="cls-3" d="M41.61,23.32h1.25v4.75H41.61Z"/><path class="cls-3" d="M48.91,23.32h1.27v4.77c-.39,0-.78,0-1.16,0,0,0-.11-.14-.11-.22V23.32Z"/><path class="cls-3" d="M44.06,23.32h1.21v4.76H44.06Z"/></g></svg>