<svg id="Layer_1" data-name="Layer 1" xmlns="http://www.w3.org/2000/svg" xmlns:xlink="http://www.w3.org/1999/xlink" viewBox="0 0 90 100"><defs><style>.cls-1,.cls-7{fill:none;}.cls-2,.cls-6{fill:#74af27;}.cls-3,.cls-5{fill:#fff;}.cls-4{clip-path:url(#clip-path);}.cls-5,.cls-6{fill-rule:evenodd;}.cls-7{stroke:#74af27;stroke-miterlimit:10;}</style><clipPath id="clip-path"><circle class="cls-1" cx="44.97" cy="37.74" r="28.35"/></clipPath></defs><title>EV-Certifications_Awards-ConformsToIEC61851-1</title><path class="cls-2" d="M19.17,73.85v0a3.17,3.17,0,0,1,3.19-3.25,3.27,3.27,0,0,1,2.46,1l-.49.52a2.73,2.73,0,0,0-2-.87,2.47,2.47,0,0,0-2.44,2.59h0a2.49,2.49,0,0,0,2.44,2.61,2.75,2.75,0,0,0,2-.91l.47.46a3.31,3.31,0,0,1-2.52,1.1A3.14,3.14,0,0,1,19.17,73.85Z"/><path class="cls-2" d="M25.33,74.68v0a2.43,2.43,0,0,1,4.85,0v0a2.42,2.42,0,0,1-2.44,2.43A2.37,2.37,0,0,1,25.33,74.68Zm4.14,0v0a1.76,1.76,0,0,0-1.73-1.82,1.72,1.72,0,0,0-1.7,1.8v0a1.75,1.75,0,0,0,1.72,1.81A1.72,1.72,0,0,0,29.47,74.68Z"/><path class="cls-2" d="M31.16,72.33h.69v.81a1.78,1.78,0,0,1,1.6-.91,1.7,1.7,0,0,1,1.78,1.87V77h-.69V74.27a1.24,1.24,0,0,0-1.29-1.41,1.38,1.38,0,0,0-1.4,1.46V77h-.69Z"/><path class="cls-2" d="M36.69,72.94h-.64v-.6h.64v-.41a1.63,1.63,0,0,1,.41-1.19,1.35,1.35,0,0,1,1-.36,2.1,2.1,0,0,1,.76.11v.61a2.37,2.37,0,0,0-.67-.12c-.54,0-.81.32-.81,1v.38h1.47v.59H37.39v4h-.7Z"/><path class="cls-2" d="M39.09,74.68v0a2.43,2.43,0,0,1,4.85,0v0a2.41,2.41,0,0,1-2.44,2.43A2.38,2.38,0,0,1,39.09,74.68Zm4.14,0v0a1.76,1.76,0,0,0-1.73-1.82,1.72,1.72,0,0,0-1.7,1.8v0a1.75,1.75,0,0,0,1.72,1.81A1.72,1.72,0,0,0,43.23,74.68Z"/><path class="cls-2" d="M44.92,72.33h.69v1.22a2,2,0,0,1,1.9-1.3V73h0a1.88,1.88,0,0,0-1.85,2.13V77h-.69Z"/><path class="cls-2" d="M48.29,72.33H49v.78a1.71,1.71,0,0,1,1.5-.88,1.6,1.6,0,0,1,1.5.93,1.85,1.85,0,0,1,1.64-.93,1.67,1.67,0,0,1,1.72,1.87V77h-.69V74.27c0-.9-.45-1.41-1.21-1.41a1.3,1.3,0,0,0-1.28,1.44V77h-.69V74.25c0-.87-.46-1.39-1.2-1.39A1.35,1.35,0,0,0,49,74.33V77h-.7Z"/><path class="cls-2" d="M56.2,76.39l.35-.49a2.75,2.75,0,0,0,1.61.59c.56,0,1-.29,1-.74v0c0-.46-.55-.64-1.16-.81s-1.54-.46-1.54-1.32v0A1.41,1.41,0,0,1,58,72.25a3.24,3.24,0,0,1,1.67.51l-.31.53A2.67,2.67,0,0,0,58,72.83c-.55,0-.9.29-.9.68v0c0,.44.57.61,1.2.8s1.49.49,1.49,1.33v0a1.47,1.47,0,0,1-1.66,1.4A3.22,3.22,0,0,1,56.2,76.39Z"/><path class="cls-2" d="M63.47,75.75V72.94h-.65v-.61h.65v-1.4h.69v1.4h1.48v.61H64.16v2.72a.7.7,0,0,0,.79.78,1.42,1.42,0,0,0,.67-.17v.6a1.8,1.8,0,0,1-.84.2A1.19,1.19,0,0,1,63.47,75.75Z"/><path class="cls-2" d="M66.17,74.68v0a2.41,2.41,0,0,1,2.43-2.43A2.39,2.39,0,0,1,71,74.64v0a2.41,2.41,0,0,1-2.44,2.43A2.38,2.38,0,0,1,66.17,74.68Zm4.14,0v0a1.76,1.76,0,0,0-1.73-1.82,1.72,1.72,0,0,0-1.7,1.8v0a1.75,1.75,0,0,0,1.72,1.81A1.72,1.72,0,0,0,70.31,74.68Z"/><path class="cls-2" d="M23.38,81.68h.71V88h-.71Z"/><path class="cls-2" d="M25.66,81.68h4.56v.65H26.38v2.15h3.43v.65H26.38v2.21h3.88V88h-4.6Z"/><path class="cls-2" d="M31.15,84.85v0a3.17,3.17,0,0,1,3.18-3.25,3.25,3.25,0,0,1,2.46,1l-.49.52a2.71,2.71,0,0,0-2-.87,2.48,2.48,0,0,0-2.44,2.59h0a2.5,2.5,0,0,0,2.44,2.61,2.77,2.77,0,0,0,2-.91l.47.46a3.31,3.31,0,0,1-2.52,1.1A3.14,3.14,0,0,1,31.15,84.85Z"/><path class="cls-2" d="M40.68,87.45a3.06,3.06,0,0,1-.8-2.44h0c0-1.92,1-3.42,2.62-3.42a2.79,2.79,0,0,1,1.87.72l-.42.54a2.21,2.21,0,0,0-1.48-.62c-1.22,0-1.86,1.28-1.86,2.7V85a2.07,2.07,0,0,1,1.8-1A2,2,0,0,1,44.59,86v0a2.13,2.13,0,0,1-2.26,2.09A2.25,2.25,0,0,1,40.68,87.45ZM43.86,86v0a1.4,1.4,0,0,0-1.54-1.35A1.48,1.48,0,0,0,40.75,86v0a1.47,1.47,0,0,0,1.59,1.41A1.42,1.42,0,0,0,43.86,86Z"/><path class="cls-2" d="M46.35,82.38l-1.19.37L45,82.17l1.54-.53h.52V88h-.7Z"/><path class="cls-2" d="M48.16,86.29v0a1.7,1.7,0,0,1,1.29-1.54,1.61,1.61,0,0,1-1.08-1.45v0a2.22,2.22,0,0,1,4.3,0v0a1.6,1.6,0,0,1-1.08,1.45,1.71,1.71,0,0,1,1.3,1.54h0c0,1.08-1,1.8-2.37,1.8S48.16,87.35,48.16,86.29Zm4,0h0c0-.71-.73-1.2-1.65-1.2s-1.64.49-1.64,1.2h0c0,.64.61,1.18,1.64,1.18S52.17,86.91,52.17,86.27Zm-.21-3v0c0-.62-.62-1.09-1.44-1.09s-1.44.46-1.44,1.09v0c0,.69.64,1.15,1.44,1.15S52,84,52,83.32Z"/><path class="cls-2" d="M53.56,87.09l.47-.51a2.65,2.65,0,0,0,1.79.87,1.42,1.42,0,0,0,1.52-1.4v0a1.39,1.39,0,0,0-1.56-1.32,2.66,2.66,0,0,0-1.32.36L54,84.75l.18-3.07h3.63v.66h-3l-.14,2a2.88,2.88,0,0,1,1.25-.28A2,2,0,0,1,58.07,86v0a2.07,2.07,0,0,1-2.26,2.07A3.21,3.21,0,0,1,53.56,87.09Z"/><path class="cls-2" d="M59.94,82.38l-1.19.37-.17-.58,1.54-.53h.52V88h-.7Z"/><path class="cls-2" d="M61.86,84.92h2.5v.72h-2.5Z"/><path class="cls-2" d="M66,82.38l-1.19.37-.17-.58,1.54-.53h.52V88H66Z"/><circle class="cls-3" cx="45.03" cy="37.74" r="28.35"/><g class="cls-4"><polygon class="cls-5" points="29.15 21.86 60.9 21.86 60.9 53.61 29.15 53.61 29.15 21.86 29.15 21.86"/><polygon class="cls-6" points="59.5 23.27 30.55 23.27 30.55 52.2 59.5 52.2 59.5 23.27 59.5 23.27"/><polygon class="cls-5" points="33.72 41.42 36.12 41.42 36.12 29.59 33.72 29.59 33.72 41.42 33.72 41.42"/><path class="cls-5" d="M46.51,29.31H40.67a1.58,1.58,0,0,0-1.4,1.53v8.67A2,2,0,0,0,41,41.41h5.62v-1h-4c-.7,0-1-.34-1-.77V36.4c0-.34-.14-.89.28-.89h3.5v-.9H42c-.46,0-.37-.32-.37-.6V31.29c0-.31,0-.84.58-.84h4.33V29.31Z"/><path class="cls-5" d="M56.82,31.29a5,5,0,0,0-4.23-2.22c-2.41,0-5.54,2.25-5.54,6.41a5.85,5.85,0,0,0,5.7,6.19,5,5,0,0,0,4.47-3.05l-.57-.52s-1.5,2.69-3.75,2.69c-1.38,0-3.59-1.37-3.59-5.31,0-4.38,1.87-5.49,3.59-5.49a4.31,4.31,0,0,1,3.33,1.91l.59-.61Z"/><path class="cls-5" d="M53.71,44.81h-20V44.3H54.3s0,0-.31.21a1.73,1.73,0,0,0-.28.3Z"/><polygon class="cls-5" points="33.72 46.22 53.52 46.22 53.52 45.65 33.72 45.65 33.72 46.22 33.72 46.22"/><path class="cls-5" d="M54.29,47.63H33.72v-.5h20l.21.23c.23.26.37.27.37.27Z"/><path class="cls-5" d="M55.66,47.7A1.75,1.75,0,1,0,54.15,46a1.64,1.64,0,0,0,1.51,1.73Z"/><path class="cls-6" d="M55.63,48.36A2.4,2.4,0,1,0,53.44,46a2.3,2.3,0,0,0,2.19,2.39Z"/><path class="cls-5" d="M55.67,47.7A1.74,1.74,0,1,0,54.15,46a1.64,1.64,0,0,0,1.52,1.73Z"/></g><circle class="cls-7" cx="45.03" cy="37.74" r="28.35"/></svg>