<svg id="Layer_1" data-name="Layer 1" xmlns="http://www.w3.org/2000/svg" viewBox="0 0 90 100"><defs><style>.cls-1{fill:#fff;}.cls-1,.cls-2,.cls-4,.cls-5,.cls-6,.cls-7{stroke:#74af27;}.cls-1,.cls-2,.cls-4,.cls-5,.cls-6{stroke-miterlimit:10;}.cls-2,.cls-4,.cls-5,.cls-6,.cls-7{fill:none;}.cls-2{stroke-width:0.63px;}.cls-3{fill:#74af27;}.cls-4{stroke-width:0.57px;}.cls-5{stroke-width:0.28px;}.cls-6{stroke-width:0.31px;}.cls-7{stroke-linecap:round;stroke-linejoin:round;stroke-width:0.75px;}</style></defs><title>EV-Connectors_Leads-Adapters&amp;amp;ConversionCables</title><circle class="cls-1" cx="45" cy="37.74" r="28.35"/><circle class="cls-2" cx="31.92" cy="37.02" r="8.56"/><path class="cls-3" d="M31.07,45.54V47h1.77V45.54A6.41,6.41,0,0,1,31.07,45.54Z"/><circle class="cls-4" cx="28.57" cy="34.13" r="1.95"/><circle class="cls-4" cx="35.38" cy="34.13" r="1.95"/><circle class="cls-5" cx="27.36" cy="39.5" r="1.42"/><circle class="cls-5" cx="36.61" cy="39.5" r="1.42"/><circle class="cls-4" cx="31.92" cy="41.76" r="1.95"/><path class="cls-2" d="M63.47,29.46a9.27,9.27,0,0,1,3.17,7.17A9.41,9.41,0,1,1,51.1,29.5Z"/><circle class="cls-2" cx="52.55" cy="36.55" r="1.8"/><circle class="cls-2" cx="57.31" cy="36.55" r="1.8"/><circle class="cls-2" cx="62.08" cy="36.55" r="1.8"/><circle class="cls-2" cx="55.09" cy="40.75" r="1.8"/><circle class="cls-2" cx="59.85" cy="40.75" r="1.8"/><circle class="cls-6" cx="54.95" cy="33.31" r="1.27"/><circle class="cls-6" cx="59.85" cy="33.3" r="1.27"/><line class="cls-7" x1="42.24" y1="36.88" x2="46.01" y2="36.88"/><path class="cls-3" d="M24.45,70.64h.67L28,77h-.76l-.74-1.67H23.06L22.31,77h-.73Zm1.76,4-1.43-3.2-1.44,3.2Z"/><path class="cls-3" d="M28.35,74.67v0a2.28,2.28,0,0,1,2.22-2.42,2.11,2.11,0,0,1,1.79,1V70.41h.69V77h-.69v-.94a2.09,2.09,0,0,1-1.79,1A2.27,2.27,0,0,1,28.35,74.67Zm4,0h0a1.73,1.73,0,0,0-1.68-1.8,1.65,1.65,0,0,0-1.64,1.8h0a1.68,1.68,0,0,0,1.64,1.8A1.74,1.74,0,0,0,32.38,74.66Z"/><path class="cls-3" d="M34,75.64v0c0-1,.81-1.51,2-1.51a4.9,4.9,0,0,1,1.44.2v-.16c0-.84-.52-1.27-1.39-1.27a3.19,3.19,0,0,0-1.41.34l-.21-.56a3.76,3.76,0,0,1,1.69-.39,2.07,2.07,0,0,1,1.51.51,1.87,1.87,0,0,1,.47,1.36V77H37.4v-.71a2,2,0,0,1-1.69.8A1.56,1.56,0,0,1,34,75.64Zm3.43-.36v-.45a4.91,4.91,0,0,0-1.37-.2c-.88,0-1.36.38-1.36,1v0c0,.58.54.93,1.17.93A1.42,1.42,0,0,0,37.41,75.28Z"/><path class="cls-3" d="M39.27,72.33H40v.94a2.1,2.1,0,0,1,1.78-1A2.27,2.27,0,0,1,44,74.65h0a2.28,2.28,0,0,1-2.23,2.42,2.08,2.08,0,0,1-1.78-1v2.34h-.69Zm4,2.34v0a1.68,1.68,0,0,0-1.64-1.8,1.74,1.74,0,0,0-1.69,1.8h0a1.73,1.73,0,0,0,1.69,1.8A1.64,1.64,0,0,0,43.26,74.67Z"/><path class="cls-3" d="M45.22,75.75V72.94h-.65v-.61h.65v-1.4h.69v1.4h1.48v.61H45.91v2.72a.69.69,0,0,0,.78.78,1.43,1.43,0,0,0,.68-.17v.6a1.83,1.83,0,0,1-.84.2A1.18,1.18,0,0,1,45.22,75.75Z"/><path class="cls-3" d="M47.92,74.67v0a2.29,2.29,0,0,1,2.23-2.42,2.22,2.22,0,0,1,2.17,2.46,1.77,1.77,0,0,1,0,.23H48.62a1.63,1.63,0,0,0,1.64,1.57,1.89,1.89,0,0,0,1.46-.66l.44.39a2.42,2.42,0,0,1-1.92.87A2.31,2.31,0,0,1,47.92,74.67Zm3.7-.27a1.54,1.54,0,0,0-1.49-1.58,1.6,1.6,0,0,0-1.51,1.58Z"/><path class="cls-3" d="M53.26,72.33H54v1.22a2,2,0,0,1,1.9-1.3V73H55.8A1.87,1.87,0,0,0,54,75.13V77h-.7Z"/><path class="cls-3" d="M56.25,76.39l.35-.49a2.78,2.78,0,0,0,1.61.59c.56,0,1-.29,1-.74v0c0-.46-.55-.64-1.16-.81s-1.54-.46-1.54-1.32v0a1.4,1.4,0,0,1,1.58-1.33,3.18,3.18,0,0,1,1.67.51l-.31.53A2.63,2.63,0,0,0,58,72.84c-.55,0-.9.28-.9.67v0c0,.44.58.61,1.2.8s1.49.5,1.49,1.33v0a1.47,1.47,0,0,1-1.65,1.4A3.22,3.22,0,0,1,56.25,76.39Z"/><path class="cls-3" d="M67,76.09a2.7,2.7,0,0,1-2.06,1,1.82,1.82,0,0,1-2-1.77v0a2,2,0,0,1,1.52-1.82,2,2,0,0,1-.63-1.38v0a1.54,1.54,0,0,1,1.67-1.49A1.46,1.46,0,0,1,67,72v0c0,.8-.57,1.31-1.49,1.63L67,75.12a8.37,8.37,0,0,0,.76-1.4l.58.27a8.5,8.5,0,0,1-.91,1.58l1.1,1.13-.54.41Zm-.43-.44-1.68-1.73c-.84.3-1.21.82-1.21,1.35h0a1.21,1.21,0,0,0,1.31,1.19A2.14,2.14,0,0,0,66.52,75.65Zm-.19-3.6v0a.86.86,0,0,0-.89-.87.9.9,0,0,0-1,.91v0c0,.37.15.65.63,1.16C65.92,73,66.33,72.59,66.33,72.05Z"/><path class="cls-3" d="M6.46,84.85v0a3.17,3.17,0,0,1,3.19-3.25,3.25,3.25,0,0,1,2.45,1l-.48.52a2.73,2.73,0,0,0-2-.87A2.47,2.47,0,0,0,7.2,84.82h0a2.49,2.49,0,0,0,2.44,2.61,2.75,2.75,0,0,0,2-.91l.47.46a3.31,3.31,0,0,1-2.52,1.1A3.14,3.14,0,0,1,6.46,84.85Z"/><path class="cls-3" d="M12.61,85.68v0a2.43,2.43,0,0,1,4.86,0h0A2.42,2.42,0,0,1,15,88.09,2.38,2.38,0,0,1,12.61,85.68Zm4.15,0v0A1.76,1.76,0,0,0,15,83.84a1.72,1.72,0,0,0-1.7,1.81h0a1.74,1.74,0,0,0,1.72,1.81A1.72,1.72,0,0,0,16.76,85.68Z"/><path class="cls-3" d="M18.45,83.33h.69v.81a1.77,1.77,0,0,1,1.59-.91,1.71,1.71,0,0,1,1.79,1.87V88h-.7V85.27a1.24,1.24,0,0,0-1.28-1.41,1.37,1.37,0,0,0-1.4,1.46V88h-.69Z"/><path class="cls-3" d="M23.08,83.33h.77l1.56,3.86L27,83.33h.75l-2,4.69H25.1Z"/><path class="cls-3" d="M28,85.67v0a2.29,2.29,0,0,1,2.23-2.42,2.22,2.22,0,0,1,2.17,2.46,1.77,1.77,0,0,1,0,.23H28.7a1.63,1.63,0,0,0,1.64,1.57,1.92,1.92,0,0,0,1.46-.66l.44.39a2.42,2.42,0,0,1-1.92.87A2.31,2.31,0,0,1,28,85.67Zm3.69-.27a1.53,1.53,0,0,0-1.48-1.58A1.6,1.6,0,0,0,28.7,85.4Z"/><path class="cls-3" d="M33.34,83.33H34v1.22a2,2,0,0,1,1.9-1.3V84h0A1.88,1.88,0,0,0,34,86.13V88h-.69Z"/><path class="cls-3" d="M36.33,87.39l.35-.49a2.75,2.75,0,0,0,1.61.59c.56,0,1-.29,1-.74v0c0-.46-.54-.64-1.16-.81s-1.54-.46-1.54-1.32v0a1.41,1.41,0,0,1,1.59-1.33,3.18,3.18,0,0,1,1.67.51l-.31.53a2.63,2.63,0,0,0-1.38-.45c-.55,0-.9.28-.9.67v0c0,.44.58.61,1.2.8s1.49.5,1.49,1.33v0a1.47,1.47,0,0,1-1.65,1.4A3.22,3.22,0,0,1,36.33,87.39Z"/><path class="cls-3" d="M41,81.55h.79v.76H41Zm0,1.78h.69V88H41Z"/><path class="cls-3" d="M42.74,85.68v0a2.43,2.43,0,1,1,4.85,0h0a2.42,2.42,0,0,1-2.44,2.43A2.37,2.37,0,0,1,42.74,85.68Zm4.14,0v0a1.76,1.76,0,0,0-1.73-1.82,1.72,1.72,0,0,0-1.7,1.81h0a1.75,1.75,0,0,0,1.72,1.81A1.72,1.72,0,0,0,46.88,85.68Z"/><path class="cls-3" d="M48.57,83.33h.69v.81a1.78,1.78,0,0,1,1.6-.91,1.7,1.7,0,0,1,1.78,1.87V88h-.7V85.27a1.24,1.24,0,0,0-1.28-1.41,1.38,1.38,0,0,0-1.4,1.46V88h-.69Z"/><path class="cls-3" d="M56.11,84.85v0a3.17,3.17,0,0,1,3.19-3.25,3.25,3.25,0,0,1,2.45,1l-.48.52a2.73,2.73,0,0,0-2-.87,2.47,2.47,0,0,0-2.44,2.59h0a2.49,2.49,0,0,0,2.44,2.61,2.75,2.75,0,0,0,2-.91l.47.46a3.31,3.31,0,0,1-2.52,1.1A3.14,3.14,0,0,1,56.11,84.85Z"/><path class="cls-3" d="M62.29,86.64v0c0-1,.81-1.51,2-1.51a4.78,4.78,0,0,1,1.43.2v-.16c0-.84-.51-1.27-1.38-1.27a3.27,3.27,0,0,0-1.42.34l-.2-.56a3.73,3.73,0,0,1,1.69-.39,2,2,0,0,1,1.5.51,1.83,1.83,0,0,1,.48,1.36V88h-.67v-.71a2,2,0,0,1-1.68.8A1.57,1.57,0,0,1,62.29,86.64Zm3.43-.36v-.45a4.8,4.8,0,0,0-1.37-.2c-.87,0-1.35.38-1.35,1v0c0,.58.54.93,1.17.93A1.41,1.41,0,0,0,65.72,86.28Z"/><path class="cls-3" d="M68.28,87.09V88h-.69V81.41h.69v2.86a2.1,2.1,0,0,1,1.78-1,2.27,2.27,0,0,1,2.23,2.42h0a2.28,2.28,0,0,1-2.23,2.42A2.08,2.08,0,0,1,68.28,87.09Zm3.29-1.42v0a1.68,1.68,0,0,0-1.63-1.8,1.74,1.74,0,0,0-1.69,1.8h0a1.73,1.73,0,0,0,1.69,1.8A1.63,1.63,0,0,0,71.57,85.67Z"/><path class="cls-3" d="M73.35,81.41h.7V88h-.7Z"/><path class="cls-3" d="M75.1,85.67v0a2.3,2.3,0,0,1,2.23-2.42,2.22,2.22,0,0,1,2.17,2.46,1.77,1.77,0,0,1,0,.23H75.8a1.63,1.63,0,0,0,1.64,1.57,1.92,1.92,0,0,0,1.47-.66l.43.39a2.4,2.4,0,0,1-1.92.87A2.31,2.31,0,0,1,75.1,85.67Zm3.7-.27a1.53,1.53,0,0,0-1.49-1.58A1.6,1.6,0,0,0,75.8,85.4Z"/><path class="cls-3" d="M80.06,87.39l.35-.49a2.75,2.75,0,0,0,1.61.59c.56,0,1-.29,1-.74v0c0-.46-.55-.64-1.17-.81s-1.54-.46-1.54-1.32v0a1.41,1.41,0,0,1,1.59-1.33,3.18,3.18,0,0,1,1.67.51l-.31.53a2.63,2.63,0,0,0-1.38-.45c-.55,0-.9.28-.9.67v0c0,.44.58.61,1.2.8s1.49.5,1.49,1.33v0A1.47,1.47,0,0,1,82,88.08,3.22,3.22,0,0,1,80.06,87.39Z"/></svg>