<svg id="Layer_1" data-name="Layer 1" xmlns="http://www.w3.org/2000/svg" viewBox="0 0 90 100"><defs><style>.cls-1{fill:#fff;}.cls-1,.cls-3{stroke:#74af27;stroke-miterlimit:10;}.cls-2{fill:#74af27;}.cls-3{fill:none;stroke-width:0.97px;}</style></defs><title>EV-Connectors_Leads-UK-3PinPlug</title><circle class="cls-1" cx="45" cy="37.74" r="28.35"/><path class="cls-2" d="M39.28,74.35V70.68H40V74.3c0,1.36.73,2.13,1.92,2.13s1.9-.7,1.9-2.08V70.68h.71v3.61a2.62,2.62,0,1,1-5.24.06Z"/><path class="cls-2" d="M45.94,70.68h.71v3.77l3.62-3.77h.91l-2.7,2.76L51.3,77h-.89L48,73.93l-1.34,1.36V77h-.71Z"/><path class="cls-2" d="M23.81,87l.52-.46a2.27,2.27,0,0,0,1.84.94,1.27,1.27,0,0,0,1.38-1.23v0c0-.78-.73-1.21-1.77-1.21h-.4l-.15-.43,2-2.24H24.14v-.64h4v.53l-2,2.19c1.1.09,2.08.62,2.08,1.78h0a2,2,0,0,1-2.11,1.9A2.87,2.87,0,0,1,23.81,87Z"/><path class="cls-2" d="M29.19,84.92h2.5v.73h-2.5Z"/><path class="cls-2" d="M32.9,81.68h2.36c1.42,0,2.36.76,2.36,2v0c0,1.36-1.14,2.06-2.48,2.06H33.61V88H32.9Zm2.27,3.43c1,0,1.73-.55,1.73-1.38v0c0-.9-.68-1.37-1.7-1.37H33.61v2.77Z"/><path class="cls-2" d="M38.54,81.55h.8v.76h-.8Zm.05,1.78h.69V88h-.69Z"/><path class="cls-2" d="M40.62,83.33h.69v.81a1.79,1.79,0,0,1,1.6-.91,1.7,1.7,0,0,1,1.78,1.87V88H44V85.27a1.24,1.24,0,0,0-1.29-1.41,1.38,1.38,0,0,0-1.4,1.46V88h-.69Z"/><path class="cls-2" d="M48.44,81.68H50.8c1.42,0,2.36.76,2.36,2v0c0,1.36-1.13,2.06-2.48,2.06H49.15V88h-.71Zm2.27,3.43c1,0,1.73-.55,1.73-1.38v0c0-.9-.68-1.37-1.69-1.37h-1.6v2.77Z"/><path class="cls-2" d="M54.13,81.41h.69V88h-.69Z"/><path class="cls-2" d="M56.09,86.22V83.33h.7v2.72a1.23,1.23,0,0,0,1.28,1.4A1.37,1.37,0,0,0,59.47,86V83.33h.68V88h-.68v-.81a1.78,1.78,0,0,1-1.59.9A1.7,1.7,0,0,1,56.09,86.22Z"/><path class="cls-2" d="M61.38,88.8l.32-.54a3,3,0,0,0,1.79.59,1.53,1.53,0,0,0,1.69-1.66v-.55a2.2,2.2,0,0,1-1.82,1,2.15,2.15,0,0,1-2.19-2.18v0a2.2,2.2,0,0,1,4-1.26v-.84h.7v3.85a2.22,2.22,0,0,1-.6,1.64,2.4,2.4,0,0,1-1.77.62A3.7,3.7,0,0,1,61.38,88.8Zm3.82-3.36v0a1.64,1.64,0,0,0-1.71-1.58,1.54,1.54,0,0,0-1.61,1.57v0A1.57,1.57,0,0,0,63.49,87,1.64,1.64,0,0,0,65.2,85.44Z"/><path class="cls-3" d="M41.55,24.79a7.14,7.14,0,0,0-7.16,4.35s-2.17,9-2.26,11.87c0,0-.64,4.17,1.18,6.26,0,0,.45.44,1.26,1.17,0,0,2.66,2,4.72,2h8.93s4.57.09,6.56-1.54c0,0,2.27-1.72,2.63-2.63,0,0,.88-1.72.45-6.07,0,0-.72-5.35-1.63-9.06,0,0-1.72-6.29-6.61-6.37C49.62,24.77,46.35,24.7,41.55,24.79Z"/><rect class="cls-3" x="43.67" y="28.81" width="2.78" height="5.07"/><rect class="cls-3" x="38.05" y="40.5" width="2.78" height="4.41" transform="translate(82.14 3.27) rotate(90)"/><rect class="cls-3" x="49.53" y="40.5" width="2.78" height="4.41" transform="translate(93.62 -8.21) rotate(90)"/></svg>