<svg id="Layer_1" data-name="Layer 1" xmlns="http://www.w3.org/2000/svg" xmlns:xlink="http://www.w3.org/1999/xlink" viewBox="0 0 90 100"><defs><style>.cls-1,.cls-5,.cls-6,.cls-7,.cls-8{fill:none;}.cls-2{fill:#fff;}.cls-2,.cls-5,.cls-6,.cls-7{stroke:#74af27;}.cls-2,.cls-6,.cls-7{stroke-miterlimit:10;}.cls-3{fill:#74af27;}.cls-4{clip-path:url(#clip-path);}.cls-5,.cls-8{stroke-linecap:round;stroke-linejoin:round;stroke-width:0.77px;}.cls-6{stroke-width:0.62px;}.cls-7{stroke-width:0.31px;}.cls-8{stroke:#fff;}</style><clipPath id="clip-path"><circle class="cls-1" cx="44.4" cy="37.46" r="28.35"/></clipPath></defs><title>EV-Connectors_Leads-Type2-5mTetheredLead</title><circle class="cls-2" cx="44.48" cy="37.54" r="28.35"/><path class="cls-3" d="M32,71.31l-2.11,0v-.66l4.95-.06v.65l-2.12,0L32.82,77H32.1Z"/><path class="cls-3" d="M38.52,72.22h.74L37.37,77c-.38,1-.83,1.33-1.53,1.33a2.07,2.07,0,0,1-1-.22l.23-.55a1.45,1.45,0,0,0,.73.16c.42,0,.68-.22,1-.88l-2.18-4.61h.77l1.74,3.86Z"/><path class="cls-3" d="M40.09,72.2h.69v.94a2.1,2.1,0,0,1,1.77-1.06,2.27,2.27,0,0,1,2.26,2.38v0a2.28,2.28,0,0,1-2.2,2.45,2.1,2.1,0,0,1-1.79-1l0,2.33h-.69Zm4,2.29v0a1.68,1.68,0,0,0-1.67-1.78,1.74,1.74,0,0,0-1.66,1.81v0a1.74,1.74,0,0,0,1.71,1.78A1.65,1.65,0,0,0,44.11,74.49Z"/><path class="cls-3" d="M45.54,74.47v0A2.29,2.29,0,0,1,47.74,72a2.22,2.22,0,0,1,2.2,2.43,1.69,1.69,0,0,1,0,.23l-3.69,0a1.63,1.63,0,0,0,1.66,1.56,1.93,1.93,0,0,0,1.46-.68l.43.39a2.41,2.41,0,0,1-1.9.89A2.3,2.3,0,0,1,45.54,74.47Zm3.69-.32a1.53,1.53,0,0,0-1.5-1.56,1.61,1.61,0,0,0-1.5,1.6Z"/><path class="cls-3" d="M53,76.14l2.26-2c1-.88,1.3-1.37,1.29-2a1.2,1.2,0,0,0-1.28-1.19A2,2,0,0,0,53.58,72l-.53-.37a2.5,2.5,0,0,1,2.25-1.37,1.81,1.81,0,0,1,2,1.76h0c0,.92-.47,1.5-1.56,2.47L54.05,76l3.34,0v.64l-4.4.06Z"/><path class="cls-3" d="M7.23,87.38l.46-.52a2.65,2.65,0,0,0,1.8.84A1.42,1.42,0,0,0,11,86.29v0A1.4,1.4,0,0,0,9.41,85a2.73,2.73,0,0,0-1.31.38L7.61,85,7.76,82l3.62,0v.66l-3,0-.1,2a2.79,2.79,0,0,1,1.23-.3,2,2,0,0,1,2.21,1.9v0a2.08,2.08,0,0,1-2.23,2.1A3.2,3.2,0,0,1,7.23,87.38Z"/><path class="cls-3" d="M12.72,83.55h.69v.78a1.71,1.71,0,0,1,1.49-.9,1.58,1.58,0,0,1,1.51.91,1.83,1.83,0,0,1,1.62-1,1.68,1.68,0,0,1,1.76,1.85l0,2.88h-.69l0-2.72c0-.9-.47-1.4-1.23-1.39a1.3,1.3,0,0,0-1.26,1.46l0,2.68H16l0-2.74c0-.87-.48-1.38-1.22-1.37a1.35,1.35,0,0,0-1.28,1.48l0,2.66h-.69Z"/><path class="cls-3" d="M25.2,82.4l-2.11,0v-.65l5-.07v.66l-2.12,0L26,88h-.72Z"/><path class="cls-3" d="M27.59,85.7v0a2.31,2.31,0,0,1,2.21-2.45A2.22,2.22,0,0,1,32,85.66a1.77,1.77,0,0,1,0,.23l-3.69,0A1.63,1.63,0,0,0,30,87.49a2,2,0,0,0,1.46-.68l.43.38a2.38,2.38,0,0,1-1.9.9A2.32,2.32,0,0,1,27.59,85.7Zm3.7-.32a1.52,1.52,0,0,0-1.5-1.56,1.61,1.61,0,0,0-1.5,1.6Z"/><path class="cls-3" d="M33.2,86.71l0-2.81h-.65V83.3h.64V81.88h.69l0,1.41,1.47,0v.61l-1.48,0,0,2.72a.68.68,0,0,0,.79.76,1.39,1.39,0,0,0,.67-.17v.6a1.79,1.79,0,0,1-.83.21A1.19,1.19,0,0,1,33.2,86.71Z"/><path class="cls-3" d="M36.25,81.33H37l0,2.73a1.76,1.76,0,0,1,1.58-.93A1.7,1.7,0,0,1,40.37,85l0,2.89h-.69l0-2.72a1.25,1.25,0,0,0-1.31-1.39A1.37,1.37,0,0,0,37,85.23l0,2.66h-.7Z"/><path class="cls-3" d="M41.29,85.53v0a2.29,2.29,0,0,1,2.2-2.45,2.21,2.21,0,0,1,2.2,2.43.81.81,0,0,1,0,.22L42,85.76a1.62,1.62,0,0,0,1.65,1.55,1.89,1.89,0,0,0,1.46-.67l.44.38a2.39,2.39,0,0,1-1.91.9A2.32,2.32,0,0,1,41.29,85.53Zm3.7-.32a1.54,1.54,0,0,0-1.51-1.57A1.61,1.61,0,0,0,42,85.25Z"/><path class="cls-3" d="M46.61,83.12h.69l0,1.21A2,2,0,0,1,49.2,83v.75h-.06a1.87,1.87,0,0,0-1.81,2.16l0,1.85h-.69Z"/><path class="cls-3" d="M49.53,85.42v0A2.29,2.29,0,0,1,51.73,83a2.22,2.22,0,0,1,2.2,2.43,1.69,1.69,0,0,1,0,.23l-3.69,0a1.63,1.63,0,0,0,1.66,1.55,1.92,1.92,0,0,0,1.46-.68l.44.39a2.44,2.44,0,0,1-1.91.89A2.3,2.3,0,0,1,49.53,85.42Zm3.69-.32a1.53,1.53,0,0,0-1.5-1.56,1.61,1.61,0,0,0-1.5,1.6Z"/><path class="cls-3" d="M54.6,85.36v0a2.28,2.28,0,0,1,2.19-2.45,2.1,2.1,0,0,1,1.8,1l0-2.81h.7l.08,6.57h-.69v-.94a2.1,2.1,0,0,1-1.77,1.06A2.27,2.27,0,0,1,54.6,85.36Zm4-.06v0a1.73,1.73,0,0,0-1.7-1.77,1.65,1.65,0,0,0-1.62,1.81v0A1.69,1.69,0,0,0,57,87.12,1.73,1.73,0,0,0,58.63,85.3Z"/><path class="cls-3" d="M63.07,81.26h.72l.07,5.65,3.54-.05v.66l-4.26,0Z"/><path class="cls-3" d="M67.93,85.19v0a2.29,2.29,0,0,1,2.2-2.45,2.21,2.21,0,0,1,2.2,2.43v.23l-3.7,0A1.63,1.63,0,0,0,70.29,87a1.93,1.93,0,0,0,1.46-.68l.44.38a2.39,2.39,0,0,1-1.91.9A2.31,2.31,0,0,1,67.93,85.19Zm3.7-.32a1.53,1.53,0,0,0-1.51-1.56,1.6,1.6,0,0,0-1.49,1.6Z"/><path class="cls-3" d="M72.94,86.09v0c0-1,.79-1.51,2-1.53a4.88,4.88,0,0,1,1.43.18v-.16c0-.84-.53-1.26-1.4-1.25a3.07,3.07,0,0,0-1.41.36l-.22-.57A3.76,3.76,0,0,1,75,82.7a2,2,0,0,1,1.51.49A1.8,1.8,0,0,1,77,84.54l0,2.85h-.66v-.71a2.05,2.05,0,0,1-1.68.83A1.57,1.57,0,0,1,72.94,86.09Zm3.42-.4v-.45A5,5,0,0,0,75,85.05c-.88,0-1.36.4-1.35,1v0c0,.59.55.92,1.18.92A1.41,1.41,0,0,0,76.36,85.69Z"/><path class="cls-3" d="M78,85.06v0a2.28,2.28,0,0,1,2.19-2.45,2.09,2.09,0,0,1,1.79,1l0-2.81h.69l.08,6.57H82v-.94a2.11,2.11,0,0,1-1.77,1.06A2.27,2.27,0,0,1,78,85.06ZM82,85v0a1.73,1.73,0,0,0-1.71-1.77A1.64,1.64,0,0,0,78.66,85h0a1.67,1.67,0,0,0,1.66,1.78A1.74,1.74,0,0,0,82,85Z"/><g class="cls-4"><path class="cls-5" d="M66.4,34.8,66.47,41a1.67,1.67,0,0,1-1.85,1.8l-18.51.23C44,43.08,44,44.81,44,44.81c0,1.73,2.35,1.61,2.35,1.61l12.76-.16c2.21-.08,2.19,1.66,2.19,1.66,0,1.68-2.06,1.61-2.06,1.61l-12.94.17a2,2,0,0,0-2.22,1.88c0,1.94,2.45,1.67,2.45,1.67L54,53.16a2.87,2.87,0,0,1,3.19,3.3l.1,8.24"/></g><path class="cls-6" d="M36.86,32.12a9.13,9.13,0,0,1,3.21,7,9.28,9.28,0,1,1-15.41-6.84Z"/><circle class="cls-6" cx="26.18" cy="39.25" r="1.78"/><circle class="cls-6" cx="30.87" cy="39.19" r="1.78"/><circle class="cls-6" cx="35.57" cy="39.13" r="1.78"/><circle class="cls-6" cx="28.73" cy="43.35" r="1.78"/><circle class="cls-6" cx="33.43" cy="43.29" r="1.78"/><circle class="cls-7" cx="28.5" cy="36.02" r="1.26"/><circle class="cls-7" cx="33.33" cy="35.95" r="1.26"/><path class="cls-5" d="M67.44,32.23l-1.71-2.31a1.1,1.1,0,0,0-.15-.85,1.75,1.75,0,0,0-.68-.42S60.27,22,48.12,21.56A23.45,23.45,0,0,0,47,29.88l3.16.36a3.67,3.67,0,0,0,2.45-1.12s2.49-1.75,7.41,1.93a4,4,0,0,1,1.23,1.76s0,.76,1.05.6l2.28,1.43a1.13,1.13,0,0,0,1.24.06,4.68,4.68,0,0,0,1.46-1.36S67.88,32.82,67.44,32.23Z"/><path class="cls-3" d="M46,29.61a23.42,23.42,0,0,1,1.08-8.31l-.31-.07-.25.53-3.84-.46s-.54-.29-.78.6a15.24,15.24,0,0,0-.72,6.1,1,1,0,0,0,.64.53l3.75.45a5.35,5.35,0,0,1,.09.59Z"/><path class="cls-3" d="M64.9,28.65c.17-.4.68.42.68.42a1.1,1.1,0,0,1,.15.85l1.71,2.31c.44.59-.12,1.31-.12,1.31a4.68,4.68,0,0,1-1.46,1.36,1.13,1.13,0,0,1-1.24-.06l-2.28-1.43c-1,.16-1.05-.6-1.05-.6A8.7,8.7,0,0,0,64.9,28.65Z"/><path class="cls-8" d="M63.08,33a8.42,8.42,0,0,0,2.22-2.47"/><path class="cls-8" d="M63.29,34.73s.44,0,1.34-.88"/><path class="cls-8" d="M66.66,32.78a2.87,2.87,0,0,0,.55-2"/><path class="cls-3" d="M49,20.31s-1.71,1.36-.22,2.12c2.59,1.34,5.75,0,11.25,3.07,0,0,3.05,1,.9-1.43C60.91,24.07,58.46,21.27,49,20.31Z"/></svg>