<svg id="Layer_1" data-name="Layer 1" xmlns="http://www.w3.org/2000/svg" xmlns:xlink="http://www.w3.org/1999/xlink" viewBox="0 0 90 100"><defs><style>.cls-1,.cls-5,.cls-6{fill:none;}.cls-2{fill:#fff;stroke-miterlimit:10;}.cls-2,.cls-5{stroke:#74af27;}.cls-3{fill:#74af27;}.cls-4{clip-path:url(#clip-path);}.cls-5,.cls-6{stroke-linecap:round;stroke-linejoin:round;stroke-width:0.77px;}.cls-6{stroke:#fff;}</style><clipPath id="clip-path"><circle class="cls-1" cx="45" cy="37.74" r="28.35"/></clipPath></defs><title>EV-Connectors_Leads-5mTetheredLead</title><circle class="cls-2" cx="45" cy="37.74" r="28.35"/><path class="cls-3" d="M18.81,76.09l.46-.51a2.67,2.67,0,0,0,1.8.87,1.42,1.42,0,0,0,1.52-1.4v0A1.4,1.4,0,0,0,21,73.71a2.69,2.69,0,0,0-1.32.36l-.48-.32.18-3.07H23v.66H20l-.13,2a2.87,2.87,0,0,1,1.24-.28A2,2,0,0,1,23.31,75h0a2.07,2.07,0,0,1-2.25,2.07A3.19,3.19,0,0,1,18.81,76.09Z"/><path class="cls-3" d="M24.34,72.33H25v.78a1.72,1.72,0,0,1,1.51-.88,1.58,1.58,0,0,1,1.49.93,1.86,1.86,0,0,1,1.64-.93A1.67,1.67,0,0,1,31.4,74.1V77h-.69V74.27c0-.9-.45-1.41-1.21-1.41a1.3,1.3,0,0,0-1.28,1.44V77h-.69V74.25c0-.87-.46-1.39-1.2-1.39A1.35,1.35,0,0,0,25,74.33V77h-.69Z"/><path class="cls-3" d="M36.84,71.34H34.73v-.66h5v.66H37.56V77h-.72Z"/><path class="cls-3" d="M39.19,74.67v0a2.3,2.3,0,0,1,2.23-2.42,2.22,2.22,0,0,1,2.17,2.46,1.77,1.77,0,0,1,0,.23H39.89a1.63,1.63,0,0,0,1.64,1.57A1.92,1.92,0,0,0,43,75.83l.43.39a2.4,2.4,0,0,1-1.92.87A2.31,2.31,0,0,1,39.19,74.67Zm3.7-.27a1.53,1.53,0,0,0-1.49-1.58,1.6,1.6,0,0,0-1.51,1.58Z"/><path class="cls-3" d="M44.78,75.75V72.94h-.65v-.61h.65v-1.4h.69v1.4H47v.61H45.47v2.72a.7.7,0,0,0,.79.78,1.42,1.42,0,0,0,.67-.17v.6a1.8,1.8,0,0,1-.84.2A1.19,1.19,0,0,1,44.78,75.75Z"/><path class="cls-3" d="M47.9,70.41h.7v2.73a1.76,1.76,0,0,1,1.59-.91A1.7,1.7,0,0,1,52,74.1V77h-.69V74.27A1.24,1.24,0,0,0,50,72.86a1.37,1.37,0,0,0-1.39,1.46V77h-.7Z"/><path class="cls-3" d="M52.89,74.67v0a2.29,2.29,0,0,1,2.23-2.42,2.22,2.22,0,0,1,2.17,2.46,1.77,1.77,0,0,1,0,.23H53.59a1.63,1.63,0,0,0,1.64,1.57,1.92,1.92,0,0,0,1.47-.66l.43.39a2.42,2.42,0,0,1-1.92.87A2.31,2.31,0,0,1,52.89,74.67Zm3.7-.27a1.53,1.53,0,0,0-1.49-1.58,1.6,1.6,0,0,0-1.51,1.58Z"/><path class="cls-3" d="M58.23,72.33h.7v1.22a2,2,0,0,1,1.9-1.3V73h-.06a1.88,1.88,0,0,0-1.84,2.13V77h-.7Z"/><path class="cls-3" d="M61.12,74.67v0a2.3,2.3,0,0,1,2.24-2.42,2.22,2.22,0,0,1,2.17,2.46,1.77,1.77,0,0,1,0,.23H61.83a1.62,1.62,0,0,0,1.63,1.57,1.92,1.92,0,0,0,1.47-.66l.43.39a2.38,2.38,0,0,1-1.91.87A2.32,2.32,0,0,1,61.12,74.67Zm3.7-.27a1.53,1.53,0,0,0-1.48-1.58,1.6,1.6,0,0,0-1.51,1.58Z"/><path class="cls-3" d="M66.2,74.67v0a2.28,2.28,0,0,1,2.22-2.42,2.11,2.11,0,0,1,1.79,1V70.41h.69V77h-.69v-.94a2.09,2.09,0,0,1-1.79,1A2.27,2.27,0,0,1,66.2,74.67Zm4,0h0a1.73,1.73,0,0,0-1.68-1.8,1.65,1.65,0,0,0-1.64,1.8h0a1.68,1.68,0,0,0,1.64,1.8A1.74,1.74,0,0,0,70.23,74.66Z"/><path class="cls-3" d="M35.3,81.68H36v5.65h3.55V88H35.3Z"/><path class="cls-3" d="M40.1,85.67v0a2.3,2.3,0,0,1,2.24-2.42,2.22,2.22,0,0,1,2.17,2.46,1.77,1.77,0,0,1,0,.23H40.81a1.63,1.63,0,0,0,1.63,1.57,1.92,1.92,0,0,0,1.47-.66l.43.39a2.38,2.38,0,0,1-1.91.87A2.32,2.32,0,0,1,40.1,85.67Zm3.7-.27a1.53,1.53,0,0,0-1.48-1.58,1.6,1.6,0,0,0-1.51,1.58Z"/><path class="cls-3" d="M45.1,86.64v0c0-1,.81-1.51,2-1.51a4.83,4.83,0,0,1,1.43.2v-.16c0-.84-.51-1.27-1.39-1.27a3.19,3.19,0,0,0-1.41.34l-.21-.56a3.8,3.8,0,0,1,1.7-.39,2,2,0,0,1,1.5.51,1.88,1.88,0,0,1,.48,1.36V88h-.67v-.71a2,2,0,0,1-1.68.8A1.56,1.56,0,0,1,45.1,86.64Zm3.43-.36v-.45a4.8,4.8,0,0,0-1.37-.2c-.87,0-1.36.38-1.36,1v0c0,.58.54.93,1.17.93A1.41,1.41,0,0,0,48.53,86.28Z"/><path class="cls-3" d="M50.12,85.67v0a2.29,2.29,0,0,1,2.23-2.42,2.11,2.11,0,0,1,1.78,1V81.41h.69V88h-.69v-.94a2.09,2.09,0,0,1-1.78,1A2.27,2.27,0,0,1,50.12,85.67Zm4,0h0a1.73,1.73,0,0,0-1.68-1.8,1.65,1.65,0,0,0-1.64,1.8h0a1.68,1.68,0,0,0,1.64,1.8A1.73,1.73,0,0,0,54.15,85.66Z"/><g class="cls-4"><path class="cls-5" d="M55,37.35v6.22a1.66,1.66,0,0,1-1.87,1.78H34.64c-2.15,0-2.14,1.74-2.14,1.74,0,1.72,2.33,1.63,2.33,1.63H58.59c2.21,0,2.17,1.69,2.17,1.69,0,1.68-2.08,1.59-2.08,1.59H34.74a2,2,0,0,0-2.24,1.85c0,1.94,2.42,1.71,2.42,1.71h7.43A2.87,2.87,0,0,1,45.5,58.9v8.24"/></g><path class="cls-5" d="M56.11,34.8l-1.69-2.33a1.06,1.06,0,0,0-.13-.85,1.71,1.71,0,0,0-.68-.43s-4.55-6.68-16.69-7.3a23.47,23.47,0,0,0-1.18,8.3l3.15.4a3.65,3.65,0,0,0,2.46-1.08s2.52-1.72,7.39,2A4,4,0,0,1,50,35.3s0,.76,1,.61l2.27,1.46a1.1,1.1,0,0,0,1.23.08A4.66,4.66,0,0,0,56,36.11S56.54,35.39,56.11,34.8Z"/><path class="cls-3" d="M34.67,31.91a23.36,23.36,0,0,1,1.19-8.3l-.31-.07-.26.52-3.83-.51s-.54-.29-.79.6a15.15,15.15,0,0,0-.8,6.09,1,1,0,0,0,.63.54l3.75.5a4.28,4.28,0,0,1,.08.58Z"/><path class="cls-3" d="M53.61,31.19c.17-.39.68.43.68.43a1.06,1.06,0,0,1,.13.85l1.69,2.33c.43.59-.14,1.31-.14,1.31a4.66,4.66,0,0,1-1.48,1.34,1.1,1.1,0,0,1-1.23-.08L51,35.91c-1,.15-1-.61-1-.61A8.72,8.72,0,0,0,53.61,31.19Z"/><path class="cls-6" d="M51.74,35.54A8.4,8.4,0,0,0,54,33.1"/><path class="cls-6" d="M51.93,37.25s.43,0,1.34-.87"/><path class="cls-6" d="M55.32,35.34a2.83,2.83,0,0,0,.57-2"/><path class="cls-3" d="M37.8,22.65s-1.73,1.33-.25,2.12c2.58,1.37,5.75.08,11.21,3.21,0,0,3,1,.92-1.42C49.68,26.56,47.26,23.73,37.8,22.65Z"/></svg>