<svg id="Layer_1" data-name="Layer 1" xmlns="http://www.w3.org/2000/svg" xmlns:xlink="http://www.w3.org/1999/xlink" viewBox="0 0 90 100"><defs><style>.cls-1,.cls-5{fill:none;}.cls-2{fill:#fff;stroke-miterlimit:10;}.cls-2,.cls-5{stroke:#74af27;}.cls-3{fill:#74af27;}.cls-4{clip-path:url(#clip-path);}.cls-5{stroke-linecap:round;stroke-linejoin:round;}</style><clipPath id="clip-path"><circle class="cls-1" cx="45" cy="37.74" r="28.35"/></clipPath></defs><title>EV-Connectors_Leads-11kW</title><circle class="cls-2" cx="45" cy="37.74" r="28.35"/><polygon class="cls-3" points="47.25 39.98 42.37 46.6 45.13 46.6 43.24 51.63 48.19 44.97 45.41 44.97 47.25 39.98"/><g class="cls-4"><rect class="cls-5" x="30.48" y="29.31" width="29.12" height="6.82" rx="3.41"/><path class="cls-5" d="M46.74,19.76a1.9,1.9,0,1,0-3.8,0v9.47h3.8Z"/><rect class="cls-5" x="36.05" y="21.68" width="3.8" height="7.55"/><rect class="cls-5" x="49.82" y="21.68" width="3.8" height="7.55"/><path class="cls-5" d="M33.5,37.74H56.71v10s1.18,5.37-11.58,6.16c0,0-11.63,0-11.63-6.43Z"/><path class="cls-3" d="M41.34,55a33.11,33.11,0,0,0,7.87,0v4.33H41.34Z"/><rect class="cls-3" x="43.87" y="59.22" width="2.82" height="9.71"/></g><path class="cls-3" d="M36.25,71.38l-1.19.37-.17-.58,1.54-.53H37V77h-.7Z"/><path class="cls-3" d="M39.2,71.38,38,71.75l-.18-.58,1.54-.53h.53V77H39.2Z"/><path class="cls-3" d="M41.32,70.41H42V75l2.51-2.62h.87l-2,2,2,2.66h-.83L43,74.82l-1,1V77h-.69Z"/><path class="cls-3" d="M45.8,70.68h.77l1.81,5.25,1.72-5.26h.59l1.73,5.26,1.8-5.25H55L52.71,77h-.6l-1.73-5.11L48.65,77h-.6Z"/></svg>