<svg id="Layer_1" data-name="Layer 1" xmlns="http://www.w3.org/2000/svg" viewBox="0 0 90 100"><defs><style>.cls-1{fill:#fff;}.cls-1,.cls-3{stroke:#74af27;stroke-miterlimit:10;}.cls-2{fill:#74af27;}.cls-3{fill:none;stroke-width:1.07px;}</style></defs><title>EV-Connectors_Leads-32A-400V-IP44Inlet</title><circle class="cls-1" cx="45" cy="37.74" r="28.35"/><path class="cls-2" d="M23.21,76l.52-.46a2.27,2.27,0,0,0,1.84.94,1.27,1.27,0,0,0,1.37-1.23v0c0-.78-.73-1.21-1.76-1.21h-.41l-.14-.43,2-2.24H23.54v-.64h4v.53l-2,2.19c1.1.09,2.08.62,2.08,1.78h0a2,2,0,0,1-2.1,1.9A2.86,2.86,0,0,1,23.21,76Z"/><path class="cls-2" d="M28.44,76.44l2.28-2c1-.86,1.32-1.35,1.32-2a1.21,1.21,0,0,0-1.27-1.21,2,2,0,0,0-1.69,1.08l-.53-.37a2.5,2.5,0,0,1,2.27-1.35,1.82,1.82,0,0,1,2,1.79h0c0,.92-.49,1.49-1.6,2.45l-1.68,1.5h3.34V77h-4.4Z"/><path class="cls-2" d="M36.35,70.64H37L39.89,77h-.77l-.74-1.67H35L34.21,77h-.73Zm1.75,4-1.43-3.2-1.44,3.2Z"/><path class="cls-2" d="M46.28,75.49H43L42.78,75l3.57-4.33H47V74.9h1v.59H47V77h-.7Zm0-.59V71.65L43.64,74.9Z"/><path class="cls-2" d="M48.72,73.85v0c0-1.76,1.06-3.25,2.68-3.25S54,72.05,54,73.82h0c0,1.77-1,3.26-2.66,3.26S48.72,75.62,48.72,73.85Zm4.58,0v0c0-1.37-.75-2.61-1.92-2.61s-1.92,1.21-1.92,2.6h0c0,1.38.76,2.62,1.94,2.62S53.3,75.23,53.3,73.85Z"/><path class="cls-2" d="M54.89,73.85v0c0-1.76,1-3.25,2.67-3.25s2.65,1.47,2.65,3.24h0c0,1.77-1.05,3.26-2.67,3.26S54.89,75.62,54.89,73.85Zm4.58,0v0c0-1.37-.76-2.61-1.93-2.61s-1.91,1.21-1.91,2.6h0c0,1.38.75,2.62,1.93,2.62S59.47,75.23,59.47,73.85Z"/><path class="cls-2" d="M60.84,70.68h.8l2.24,5.43,2.25-5.43h.76L64.18,77h-.63Z"/><path class="cls-2" d="M25.72,81.68h.71V88h-.71Z"/><path class="cls-2" d="M28,81.68h2.36c1.43,0,2.36.76,2.36,2v0c0,1.36-1.13,2.06-2.47,2.06H28.71V88H28Zm2.27,3.43c1.05,0,1.73-.55,1.73-1.38v0c0-.9-.67-1.37-1.69-1.37h-1.6v2.77Z"/><path class="cls-2" d="M36.74,86.49H33.42L33.24,86l3.57-4.33h.63V85.9h1v.59h-1V88h-.7Zm0-.59V82.65L34.1,85.9Z"/><path class="cls-2" d="M42.51,86.49H39.19L39,86l3.57-4.33h.63V85.9h1v.59h-1V88h-.7Zm0-.59V82.65L39.87,85.9Z"/><path class="cls-2" d="M47.78,81.68h.71V88h-.71Z"/><path class="cls-2" d="M50,83.33h.69v.81a1.77,1.77,0,0,1,1.59-.91A1.7,1.7,0,0,1,54,85.1V88h-.69V85.27A1.24,1.24,0,0,0,52,83.86a1.37,1.37,0,0,0-1.39,1.46V88H50Z"/><path class="cls-2" d="M55.28,81.41H56V88h-.7Z"/><path class="cls-2" d="M57,85.67v0a2.29,2.29,0,0,1,2.23-2.42,2.22,2.22,0,0,1,2.17,2.46,1.77,1.77,0,0,1,0,.23H57.73a1.63,1.63,0,0,0,1.64,1.57,1.92,1.92,0,0,0,1.47-.66l.43.39a2.42,2.42,0,0,1-1.92.87A2.31,2.31,0,0,1,57,85.67Zm3.7-.27a1.53,1.53,0,0,0-1.49-1.58,1.6,1.6,0,0,0-1.51,1.58Z"/><path class="cls-2" d="M62.62,86.75V83.94H62v-.61h.65v-1.4h.69v1.4h1.48v.61H63.31v2.72a.69.69,0,0,0,.78.78,1.43,1.43,0,0,0,.68-.17v.6a1.83,1.83,0,0,1-.84.2A1.18,1.18,0,0,1,62.62,86.75Z"/><circle class="cls-3" cx="45" cy="37.43" r="17.01"/><path class="cls-2" d="M43.39,54.49v2A1.44,1.44,0,0,0,44.84,58h.44a1.45,1.45,0,0,0,1.45-1.45v-2A12.08,12.08,0,0,1,43.39,54.49Z"/><circle class="cls-2" cx="40.75" cy="30.28" r="1.89"/><circle class="cls-2" cx="49.37" cy="30.28" r="1.89"/><circle class="cls-2" cx="36.79" cy="38.53" r="1.89"/><circle class="cls-2" cx="53.41" cy="38.53" r="1.89"/><circle class="cls-2" cx="45" cy="44.93" r="2.95"/></svg>