<svg id="Layer_1" data-name="Layer 1" xmlns="http://www.w3.org/2000/svg" xmlns:xlink="http://www.w3.org/1999/xlink" viewBox="0 0 90 100"><defs><style>.cls-1,.cls-5{fill:none;}.cls-2{fill:#fff;stroke-miterlimit:10;}.cls-2,.cls-5{stroke:#74af27;}.cls-3{fill:#74af27;}.cls-4{clip-path:url(#clip-path);}.cls-5{stroke-linecap:round;stroke-linejoin:round;stroke-width:0.64px;}</style><clipPath id="clip-path"><circle class="cls-1" cx="45" cy="37.74" r="28.35"/></clipPath></defs><title>EV-Connectivity-ElectricVehicleConnectivity</title><circle class="cls-2" cx="45" cy="37.74" r="28.35"/><path class="cls-3" d="M13.64,70.68H18.2v.65H14.36v2.15h3.43v.65H14.36v2.21h3.89V77H13.64Z"/><path class="cls-3" d="M19.35,70.41H20V77h-.69Z"/><path class="cls-3" d="M21.1,74.67v0a2.29,2.29,0,0,1,2.23-2.42,2.22,2.22,0,0,1,2.17,2.46,1.77,1.77,0,0,1,0,.23H21.8a1.63,1.63,0,0,0,1.64,1.57,1.89,1.89,0,0,0,1.46-.66l.44.39a2.42,2.42,0,0,1-1.92.87A2.31,2.31,0,0,1,21.1,74.67Zm3.7-.27a1.54,1.54,0,0,0-1.49-1.58A1.6,1.6,0,0,0,21.8,74.4Z"/><path class="cls-3" d="M26.15,74.68v0a2.42,2.42,0,0,1,4.25-1.6l-.46.49a1.85,1.85,0,0,0-1.41-.71,1.72,1.72,0,0,0-1.66,1.8v0a1.73,1.73,0,0,0,1.71,1.81A1.91,1.91,0,0,0,30,75.78l.44.41a2.41,2.41,0,0,1-4.29-1.51Z"/><path class="cls-3" d="M31.55,75.75V72.94h-.64v-.61h.64v-1.4h.7v1.4h1.47v.61H32.25v2.72a.69.69,0,0,0,.78.78,1.46,1.46,0,0,0,.68-.17v.6a1.86,1.86,0,0,1-.84.2A1.19,1.19,0,0,1,31.55,75.75Z"/><path class="cls-3" d="M34.68,72.33h.69v1.22a2,2,0,0,1,1.9-1.3V73h-.05a1.88,1.88,0,0,0-1.85,2.13V77h-.69Z"/><path class="cls-3" d="M38.07,70.55h.79v.76h-.79Zm0,1.78h.69V77h-.69Z"/><path class="cls-3" d="M39.86,74.68v0a2.42,2.42,0,0,1,4.25-1.6l-.46.49a1.87,1.87,0,0,0-1.41-.71,1.72,1.72,0,0,0-1.67,1.8v0a1.74,1.74,0,0,0,1.71,1.81,1.87,1.87,0,0,0,1.42-.69l.45.41a2.41,2.41,0,0,1-4.29-1.51Z"/><path class="cls-3" d="M47,70.68h.8l2.24,5.43,2.25-5.43h.76L50.36,77h-.63Z"/><path class="cls-3" d="M53,74.67v0a2.3,2.3,0,0,1,2.23-2.42,2.22,2.22,0,0,1,2.17,2.46,1.77,1.77,0,0,1,0,.23H53.71a1.63,1.63,0,0,0,1.64,1.57,1.92,1.92,0,0,0,1.47-.66l.43.39a2.42,2.42,0,0,1-1.92.87A2.31,2.31,0,0,1,53,74.67Zm3.7-.27a1.53,1.53,0,0,0-1.49-1.58,1.6,1.6,0,0,0-1.51,1.58Z"/><path class="cls-3" d="M58.36,70.41h.69v2.73a1.76,1.76,0,0,1,1.59-.91,1.7,1.7,0,0,1,1.78,1.87V77h-.69V74.27a1.24,1.24,0,0,0-1.29-1.41,1.37,1.37,0,0,0-1.39,1.46V77h-.69Z"/><path class="cls-3" d="M63.65,70.55h.79v.76h-.79Zm0,1.78h.7V77h-.7Z"/><path class="cls-3" d="M65.44,74.68v0a2.42,2.42,0,0,1,4.25-1.6l-.46.49a1.87,1.87,0,0,0-1.41-.71,1.72,1.72,0,0,0-1.67,1.8v0a1.74,1.74,0,0,0,1.71,1.81,1.91,1.91,0,0,0,1.42-.69l.44.41a2.35,2.35,0,0,1-1.9.9A2.38,2.38,0,0,1,65.44,74.68Z"/><path class="cls-3" d="M70.66,70.41h.69V77h-.69Z"/><path class="cls-3" d="M72.4,74.67v0a2.3,2.3,0,0,1,2.24-2.42,2.22,2.22,0,0,1,2.17,2.46,1.77,1.77,0,0,1,0,.23H73.11a1.63,1.63,0,0,0,1.64,1.57,1.92,1.92,0,0,0,1.46-.66l.44.39a2.42,2.42,0,0,1-1.92.87A2.32,2.32,0,0,1,72.4,74.67Zm3.7-.27a1.53,1.53,0,0,0-1.48-1.58,1.6,1.6,0,0,0-1.51,1.58Z"/><path class="cls-3" d="M18.83,84.85v0A3.17,3.17,0,0,1,22,81.58a3.27,3.27,0,0,1,2.46,1L24,83.1a2.71,2.71,0,0,0-2-.87,2.48,2.48,0,0,0-2.44,2.59h0A2.49,2.49,0,0,0,22,87.44a2.77,2.77,0,0,0,2-.91l.46.46A3.27,3.27,0,0,1,22,88.09,3.14,3.14,0,0,1,18.83,84.85Z"/><path class="cls-3" d="M25,85.68v0a2.41,2.41,0,0,1,2.43-2.43,2.39,2.39,0,0,1,2.42,2.41v0a2.41,2.41,0,0,1-2.44,2.43A2.38,2.38,0,0,1,25,85.68Zm4.14,0v0a1.76,1.76,0,0,0-1.73-1.82,1.72,1.72,0,0,0-1.7,1.8v0a1.75,1.75,0,0,0,1.72,1.81A1.72,1.72,0,0,0,29.13,85.68Z"/><path class="cls-3" d="M30.82,83.33h.69v.81a1.79,1.79,0,0,1,1.6-.91,1.7,1.7,0,0,1,1.78,1.87V88H34.2V85.27a1.24,1.24,0,0,0-1.29-1.41,1.38,1.38,0,0,0-1.4,1.46V88h-.69Z"/><path class="cls-3" d="M36.1,83.33h.69v.81a1.76,1.76,0,0,1,1.59-.91,1.7,1.7,0,0,1,1.78,1.87V88h-.69V85.27a1.24,1.24,0,0,0-1.29-1.41,1.37,1.37,0,0,0-1.39,1.46V88H36.1Z"/><path class="cls-3" d="M41.08,85.67v0a2.3,2.3,0,0,1,2.23-2.42,2.22,2.22,0,0,1,2.17,2.46,1.77,1.77,0,0,1,0,.23H41.78a1.63,1.63,0,0,0,1.64,1.57,1.92,1.92,0,0,0,1.47-.66l.43.39a2.4,2.4,0,0,1-1.92.87A2.32,2.32,0,0,1,41.08,85.67Zm3.7-.27a1.53,1.53,0,0,0-1.48-1.58,1.61,1.61,0,0,0-1.52,1.58Z"/><path class="cls-3" d="M46.14,85.68v0a2.42,2.42,0,0,1,4.25-1.6l-.46.49a1.87,1.87,0,0,0-1.41-.71,1.72,1.72,0,0,0-1.67,1.8v0a1.74,1.74,0,0,0,1.71,1.81A1.91,1.91,0,0,0,50,86.78l.44.41a2.35,2.35,0,0,1-1.9.9A2.39,2.39,0,0,1,46.14,85.68Z"/><path class="cls-3" d="M51.54,86.75V83.94h-.65v-.61h.65v-1.4h.69v1.4h1.48v.61H52.23v2.72a.7.7,0,0,0,.79.78,1.42,1.42,0,0,0,.67-.17v.6a1.8,1.8,0,0,1-.84.2A1.19,1.19,0,0,1,51.54,86.75Z"/><path class="cls-3" d="M54.68,81.55h.79v.76h-.79Zm0,1.78h.69V88h-.69Z"/><path class="cls-3" d="M56.3,83.33h.76l1.57,3.86,1.58-3.86H61l-2,4.69h-.61Z"/><path class="cls-3" d="M61.79,81.55h.79v.76h-.79Zm0,1.78h.7V88h-.7Z"/><path class="cls-3" d="M64.11,86.75V83.94h-.65v-.61h.65v-1.4h.69v1.4h1.48v.61H64.8v2.72a.7.7,0,0,0,.79.78,1.42,1.42,0,0,0,.67-.17v.6a1.79,1.79,0,0,1-.83.2A1.19,1.19,0,0,1,64.11,86.75Z"/><path class="cls-3" d="M70.72,83.33h.74l-2,4.81c-.39,1-.84,1.31-1.55,1.31a2.19,2.19,0,0,1-1-.23l.24-.55a1.41,1.41,0,0,0,.73.17c.41,0,.67-.21.95-.87l-2.11-4.64h.76l1.69,3.88Z"/><g class="cls-4"><path class="cls-5" d="M23.08,46s-3.64-3.39-.89-6.83c0,0,1.25-2.28,9-4.06a15.76,15.76,0,0,0,4.25-1.91c1.36-1.13,3-1.88,6.69-2.34a71.94,71.94,0,0,1,7.29-.49s6.15-.63,7.9,3.81a17.7,17.7,0,0,1,.83,4.93v2.33s-.24,2.09,1.08,2.28c0,0,1.43.25,1.49-2.15V35s-.65-5.29,2.93-5.29h1.2"/><line class="cls-5" x1="34.08" y1="46.59" x2="46.69" y2="46.59"/><ellipse class="cls-5" cx="28.81" cy="43.71" rx="4.26" ry="4.38"/><ellipse class="cls-5" cx="52.05" cy="43.71" rx="4.26" ry="4.38"/><path class="cls-3" d="M66.81,28v3.21a.67.67,0,0,1-.83.58,2.15,2.15,0,0,1-2.07-2s-.26-1.87,2.2-2.23C66.11,27.53,66.81,27.4,66.81,28Z"/><path class="cls-3" d="M68.36,29.14a.49.49,0,0,0,0-1H66.2v1Z"/><path class="cls-3" d="M68.36,31.19a.49.49,0,0,0,0-1H66.2v1Z"/><path class="cls-3" d="M41.65,24a.7.7,0,0,1-.55-1.14A9,9,0,0,1,43,21.3a9.16,9.16,0,0,1,4.35-1.5c2.52-.16,4.94.89,7.19,3.1a.71.71,0,0,1,0,1,.7.7,0,0,1-1,0,8,8,0,0,0-6.06-2.71,7.81,7.81,0,0,0-3.69,1.26,8.14,8.14,0,0,0-1.6,1.31A.69.69,0,0,1,41.65,24Zm2.15,1.54a5.74,5.74,0,0,1,3.78-1.89,5.94,5.94,0,0,1,4.33,2,.72.72,0,0,0,1,0,.71.71,0,0,0,0-1,7.33,7.33,0,0,0-5.37-2.38,7.17,7.17,0,0,0-4.78,2.37.71.71,0,0,0,.52,1.17A.71.71,0,0,0,43.8,25.57Zm1.66,1.81a3.19,3.19,0,0,1,2.06-1.18,3.32,3.32,0,0,1,2.75,1.33.71.71,0,1,0,1-1,4.65,4.65,0,0,0-3.93-1.77,4.54,4.54,0,0,0-3.12,1.85.69.69,0,0,0,.23,1,.72.72,0,0,0,.36.11A.71.71,0,0,0,45.46,27.38Z"/></g></svg>