<svg id="Layer_1" data-name="Layer 1" xmlns="http://www.w3.org/2000/svg" viewBox="0 0 90 100"><defs><style>.cls-1,.cls-5{fill:#008bd2;}.cls-1,.cls-3{stroke:#fff;}.cls-1{stroke-miterlimit:10;stroke-width:0.86px;}.cls-2{fill:#fff;}.cls-3,.cls-4{fill:none;stroke-linecap:round;stroke-linejoin:round;}.cls-3{stroke-width:4.3px;}.cls-4{stroke:#008bd2;stroke-width:2.82px;}</style></defs><title>EV-Certifications_Awards-BS7671-18THEditionRedgulations Compliant</title><circle class="cls-1" cx="43.4" cy="37.74" r="28.82"/><circle class="cls-2" cx="43.4" cy="37.74" r="19.51"/><path class="cls-2" d="M22.66,47.26l.6,1.14a1.13,1.13,0,0,1,.12.86.91.91,0,0,1-.46.51h0a.88.88,0,0,1-.57.11.91.91,0,0,1-.48-.24l-.58,1.07L21,50.07l.52-1h0l-.22-.42-.79.41-.29-.54ZM22,49a.44.44,0,0,0,.26.26.38.38,0,0,0,.31,0h0a.39.39,0,0,0,.2-.26.55.55,0,0,0-.07-.36l-.29-.54-.71.37Z"/><path class="cls-2" d="M23.93,49.62l1.18,1.75-.46.31-.84-1.25-.47.32.74,1.1-.46.3-.74-1.09-.49.32.85,1.27-.45.31L21.6,51.19Z"/><path class="cls-2" d="M24,54.55a1.75,1.75,0,0,1-.31-.52,1.51,1.51,0,0,1-.07-.55A1.28,1.28,0,0,1,23.8,53a1.6,1.6,0,0,1,.37-.46h0a1.46,1.46,0,0,1,.5-.28,1.49,1.49,0,0,1,.55-.07,1.67,1.67,0,0,1,.54.15,1.4,1.4,0,0,1,.47.37,2.26,2.26,0,0,1,.21.28,1.66,1.66,0,0,1,.13.27,1.25,1.25,0,0,1,.07.26c0,.1,0,.19,0,.28h-.61a1.34,1.34,0,0,0,0-.2,1.16,1.16,0,0,0,0-.18,1.42,1.42,0,0,0-.08-.18L25.79,53a.7.7,0,0,0-.26-.19.67.67,0,0,0-.31-.07.7.7,0,0,0-.32,0,.75.75,0,0,0-.3.17h0a.89.89,0,0,0-.23.28.87.87,0,0,0-.1.31.86.86,0,0,0,.21.63.91.91,0,0,0,.51.33l.3-.26-.4-.47.4-.35.8.93-.93.79a2.2,2.2,0,0,1-.57-.18A1.72,1.72,0,0,1,24,54.55Z"/><path class="cls-2" d="M26.2,56.76a1.24,1.24,0,0,1-.45-.83,1.23,1.23,0,0,1,.39-.91l1.07-1.19.46.41L26.6,55.42a.76.76,0,0,0-.23.49.62.62,0,0,0,.22.43.54.54,0,0,0,.44.17.73.73,0,0,0,.46-.26l1.08-1.2.46.42L28,56.64a1.59,1.59,0,0,1-.44.36,1,1,0,0,1-.44.13,1,1,0,0,1-.45-.09A1.58,1.58,0,0,1,26.2,56.76Z"/><path class="cls-2" d="M29.36,55.72l.5.36-1.31,1.83,1.13.81-.32.46L27.72,58Z"/><path class="cls-2" d="M32.06,57.49l.5.28-.33,3.06-.57-.32.09-.67-1-.58-.53.42-.55-.3Zm-.24,1.76.12-1-.77.62Z"/><path class="cls-2" d="M34.18,59.21l-.79-.32.22-.53,2.15.89-.21.52-.79-.32-.86,2.07-.57-.24Z"/><path class="cls-2" d="M36.07,59.32l.59.19-.87,2.68L35.21,62Z"/><path class="cls-2" d="M37.84,62.78a1.67,1.67,0,0,1-.56-.24,1.52,1.52,0,0,1-.39-.41,1.27,1.27,0,0,1-.2-.51,1.37,1.37,0,0,1,0-.57h0a1.4,1.4,0,0,1,.23-.53,1.49,1.49,0,0,1,.41-.38,1.47,1.47,0,0,1,.53-.21,1.58,1.58,0,0,1,.61,0,1.76,1.76,0,0,1,.56.24,1.64,1.64,0,0,1,.39.4,1.47,1.47,0,0,1,.19,1.09h0a1.58,1.58,0,0,1-.23.53,1.64,1.64,0,0,1-.41.38,1.3,1.3,0,0,1-.53.2A1.57,1.57,0,0,1,37.84,62.78Zm.13-.56a.83.83,0,0,0,.35,0,.81.81,0,0,0,.3-.13.84.84,0,0,0,.23-.23,1.15,1.15,0,0,0,.14-.32h0a1,1,0,0,0,0-.34,1.1,1.1,0,0,0-.11-.32.87.87,0,0,0-.23-.24.68.68,0,0,0-.31-.14.83.83,0,0,0-.35,0,.67.67,0,0,0-.3.13.84.84,0,0,0-.23.23.92.92,0,0,0-.14.32h0a1,1,0,0,0,0,.34.87.87,0,0,0,.11.32,1,1,0,0,0,.22.24A.71.71,0,0,0,38,62.22Z"/><path class="cls-2" d="M40.24,60.34l.57,0L42,62.22l.15-1.72.61,0-.24,2.8-.52,0-1.21-1.9-.15,1.78-.61,0Z"/><path class="cls-2" d="M44.28,63.37a2.23,2.23,0,0,1-.63-.09,1.77,1.77,0,0,1-.58-.33l.36-.44a1.8,1.8,0,0,0,.4.23,1.08,1.08,0,0,0,.44.08.51.51,0,0,0,.3-.08.22.22,0,0,0,.1-.2h0a.3.3,0,0,0,0-.1.24.24,0,0,0-.09-.08.78.78,0,0,0-.18-.08l-.29-.07-.39-.11a1.4,1.4,0,0,1-.3-.15.71.71,0,0,1-.19-.23.85.85,0,0,1-.08-.34h0a1,1,0,0,1,.06-.35.68.68,0,0,1,.2-.27.91.91,0,0,1,.3-.19,1.59,1.59,0,0,1,.4-.07,1.54,1.54,0,0,1,.57.08,1.38,1.38,0,0,1,.48.25l-.31.47a2.16,2.16,0,0,0-.37-.19.8.8,0,0,0-.37-.06.37.37,0,0,0-.26.08.2.2,0,0,0-.09.17h0a.21.21,0,0,0,0,.12.3.3,0,0,0,.1.09l.19.07.3.07a1.89,1.89,0,0,1,.38.12.81.81,0,0,1,.29.16.55.55,0,0,1,.18.22.76.76,0,0,1,.07.32h0a.92.92,0,0,1-.07.38.69.69,0,0,1-.2.28,1.22,1.22,0,0,1-.32.18A1.67,1.67,0,0,1,44.28,63.37Z"/><path class="cls-2" d="M48.41,62.9a1.26,1.26,0,0,1-.58,0,1.35,1.35,0,0,1-.89-.6,1.43,1.43,0,0,1-.22-.54h0a1.82,1.82,0,0,1,0-.57,1.45,1.45,0,0,1,.21-.51,1.39,1.39,0,0,1,.4-.4,1.46,1.46,0,0,1,.56-.22,1.59,1.59,0,0,1,.36,0,1.39,1.39,0,0,1,.3,0,1.07,1.07,0,0,1,.27.09,1.49,1.49,0,0,1,.24.14l-.3.52a1.27,1.27,0,0,0-.38-.17.85.85,0,0,0-.39,0,.71.71,0,0,0-.31.13.66.66,0,0,0-.21.23.91.91,0,0,0-.12.31.79.79,0,0,0,0,.34h0a.82.82,0,0,0,.12.32.88.88,0,0,0,.22.25.87.87,0,0,0,.29.14.74.74,0,0,0,.33,0,.87.87,0,0,0,.39-.16,1.63,1.63,0,0,0,.28-.3l.46.32-.18.24a1.45,1.45,0,0,1-.22.21,1.25,1.25,0,0,1-.28.15A1.53,1.53,0,0,1,48.41,62.9Z"/><path class="cls-2" d="M51.45,62.09a1.39,1.39,0,0,1-.6.08A1.44,1.44,0,0,1,50.3,62a1.27,1.27,0,0,1-.43-.34,1.46,1.46,0,0,1-.29-.5h0a1.6,1.6,0,0,1-.07-.57,1.55,1.55,0,0,1,.15-.53,1.52,1.52,0,0,1,.35-.45,1.57,1.57,0,0,1,.54-.3,1.45,1.45,0,0,1,1.14.07,1.22,1.22,0,0,1,.44.34,1.3,1.3,0,0,1,.28.5h0a1.6,1.6,0,0,1,.07.57,1.67,1.67,0,0,1-.15.54,1.52,1.52,0,0,1-.35.45A1.41,1.41,0,0,1,51.45,62.09Zm-.17-.54a.87.87,0,0,0,.3-.17.82.82,0,0,0,.2-.26.88.88,0,0,0,.07-.32.78.78,0,0,0-.05-.34h0a.83.83,0,0,0-.16-.31.86.86,0,0,0-.26-.21.85.85,0,0,0-.32-.09.68.68,0,0,0-.34,0,.85.85,0,0,0-.31.17,1,1,0,0,0-.19.26.88.88,0,0,0-.07.32.8.8,0,0,0,0,.34h0a.79.79,0,0,0,.16.3,1.09,1.09,0,0,0,.26.22.85.85,0,0,0,.31.09A.84.84,0,0,0,51.28,61.55Z"/><path class="cls-2" d="M52.27,58.78l.6-.29,1.19.73.13-1.39.6-.3L56,60.05l-.55.27-.82-1.64L54.5,60.1h0l-1.23-.72L54.07,61l-.55.27Z"/><path class="cls-2" d="M55.15,57.29l1-.63a1.15,1.15,0,0,1,.41-.19.85.85,0,0,1,.74.11,1.11,1.11,0,0,1,.28.29h0a1,1,0,0,1,.16.4.9.9,0,0,1,0,.4,1.13,1.13,0,0,1-.2.35,1.6,1.6,0,0,1-.33.3l-.4.26.47.7-.52.34Zm1.71.57a.49.49,0,0,0,.23-.3.39.39,0,0,0-.06-.33h0a.39.39,0,0,0-.29-.19.55.55,0,0,0-.37.11l-.39.26.47.72Z"/><path class="cls-2" d="M57.19,55.91l.47-.39,1.43,1.73,1.09-.89.35.44L59,58.08Z"/><path class="cls-2" d="M59,54.39l.44-.43,2,2-.45.43Z"/><path class="cls-2" d="M60.4,52.89l.38-.43,2.92.95-.42.49-.64-.22-.79.89.31.61-.41.47Zm1.68.59-.93-.31.44.88Z"/><path class="cls-2" d="M61.7,51.39l.32-.48,2.16-.14-1.44-1,.34-.51,2.34,1.56-.29.43-2.24.15,1.49,1-.34.5Z"/><path class="cls-2" d="M64.1,48.59l-.39.76-.51-.25,1-2.08.51.26-.38.76,2,1-.28.55Z"/><polyline class="cls-3" points="32.47 39.41 42.81 52.13 75.42 18.17"/><polyline class="cls-4" points="32.47 39.41 42.81 52.13 75.42 18.17"/><path class="cls-5" d="M33.68,25.93l-1.17.29L32.2,25l1.93-.58h1v6.76H33.68Z"/><path class="cls-5" d="M38.8,31.29a3.77,3.77,0,0,1-1-.14,2.5,2.5,0,0,1-.82-.39,2,2,0,0,1-.54-.61,1.64,1.64,0,0,1-.2-.8v0a1.66,1.66,0,0,1,.27-1,2.2,2.2,0,0,1,.81-.63,1.93,1.93,0,0,1-.62-.58,1.59,1.59,0,0,1-.23-.89h0a1.59,1.59,0,0,1,.17-.72,1.69,1.69,0,0,1,.48-.59,2.37,2.37,0,0,1,.74-.39,3.18,3.18,0,0,1,1.93,0,2.23,2.23,0,0,1,.75.39,1.58,1.58,0,0,1,.48.58,1.66,1.66,0,0,1,.17.73h0a1.59,1.59,0,0,1-.23.89,1.93,1.93,0,0,1-.62.58,2.55,2.55,0,0,1,.79.63,1.49,1.49,0,0,1,.29.95v0a1.77,1.77,0,0,1-.2.84,1.88,1.88,0,0,1-.54.62,2.3,2.3,0,0,1-.82.38A3.77,3.77,0,0,1,38.8,31.29Zm0-1.22a1.34,1.34,0,0,0,.85-.24.72.72,0,0,0,.31-.59v0a.69.69,0,0,0-.33-.61,1.68,1.68,0,0,0-1.66,0,.69.69,0,0,0-.33.61v0a.73.73,0,0,0,.31.59A1.34,1.34,0,0,0,38.8,30.07Zm0-2.85a1,1,0,0,0,.7-.23.75.75,0,0,0,.26-.58v0a.73.73,0,0,0-.25-.55,1.17,1.17,0,0,0-1.42,0,.69.69,0,0,0-.25.54v0a.79.79,0,0,0,.26.59A1,1,0,0,0,38.8,27.22Z"/><path class="cls-5" d="M44,25.84h-2V24.48h5.56v1.36h-2v5.35H44Z"/><path class="cls-5" d="M48.36,24.48h1.48v2.66h2.72V24.48H54v6.71H52.56V28.5H49.84v2.69H48.36Z"/><path class="cls-5" d="M33,32.71h2.55v.35H33.4v1.22h1.93v.36H33.4v1.24h2.18v.36H33Z"/><path class="cls-5" d="M36.38,32.71h1.23a2.09,2.09,0,0,1,.76.13,1.69,1.69,0,0,1,.59.37,1.67,1.67,0,0,1,.39.56,1.74,1.74,0,0,1,.14.69h0a1.82,1.82,0,0,1-.14.7,1.67,1.67,0,0,1-.39.56,1.69,1.69,0,0,1-.59.37,2.1,2.1,0,0,1-.76.14H36.38Zm1.23,3.16a1.64,1.64,0,0,0,.6-.1,1.4,1.4,0,0,0,.47-.3A1.35,1.35,0,0,0,39,35a1.42,1.42,0,0,0,.1-.55h0a1.4,1.4,0,0,0-.1-.54,1.51,1.51,0,0,0-.29-.45,1.58,1.58,0,0,0-.47-.3,1.64,1.64,0,0,0-.6-.11h-.83v2.8Z"/><path class="cls-5" d="M40.36,32.71h.4v3.53h-.4Z"/><path class="cls-5" d="M42.73,33.07H41.54v-.36h2.78v.36H43.13v3.17h-.4Z"/><path class="cls-5" d="M45.1,32.71h.4v3.53h-.4Z"/><path class="cls-5" d="M48.18,36.3a1.78,1.78,0,0,1-.74-.15,1.75,1.75,0,0,1-.57-.39,1.89,1.89,0,0,1-.49-1.28h0a1.88,1.88,0,0,1,.5-1.28,1.75,1.75,0,0,1,.57-.39,1.78,1.78,0,0,1,.74-.15,1.73,1.73,0,0,1,.73.14,1.78,1.78,0,0,1,.57.4,1.85,1.85,0,0,1,.37.58,2,2,0,0,1,.12.69h0a1.82,1.82,0,0,1-.13.7,1.75,1.75,0,0,1-.37.58,1.58,1.58,0,0,1-.57.4A1.73,1.73,0,0,1,48.18,36.3Zm0-.37a1.42,1.42,0,0,0,.55-.11,1.4,1.4,0,0,0,.44-.31,1.56,1.56,0,0,0,.29-.46,1.75,1.75,0,0,0,.1-.57h0a1.69,1.69,0,0,0-.1-.56,1.49,1.49,0,0,0-.29-.47,1.57,1.57,0,0,0-.45-.31,1.26,1.26,0,0,0-.55-.12,1.28,1.28,0,0,0-.56.12,1.25,1.25,0,0,0-.44.31,1.42,1.42,0,0,0-.28.46,1.47,1.47,0,0,0-.11.56h0a1.56,1.56,0,0,0,.11.57,1.29,1.29,0,0,0,.29.46,1.43,1.43,0,0,0,.44.32A1.47,1.47,0,0,0,48.19,35.93Z"/><path class="cls-5" d="M50.83,32.71h.37l2.23,2.83V32.71h.38v3.53H53.5l-2.29-2.9v2.9h-.38Z"/><circle class="cls-2" cx="19.22" cy="37.74" r="1.13"/><circle class="cls-2" cx="67.47" cy="37.74" r="1.13"/><path class="cls-2" d="M34.06,13.88l1.49-.5a1.15,1.15,0,0,1,.93,0,.82.82,0,0,1,.41.48h0a.79.79,0,0,1,0,.25.85.85,0,0,1,0,.23.62.62,0,0,1-.07.19,1.09,1.09,0,0,1-.13.17,1.26,1.26,0,0,1,.54.14.79.79,0,0,1,.33.45h0a.9.9,0,0,1,.05.42.8.8,0,0,1-.14.36,1.21,1.21,0,0,1-.33.3,1.86,1.86,0,0,1-.47.22l-1.52.52Zm1.79.86a.71.71,0,0,0,.34-.21.3.3,0,0,0,.05-.31h0A.28.28,0,0,0,36,14a.61.61,0,0,0-.37,0l-.7.24.24.68ZM36.48,16a.74.74,0,0,0,.34-.22.31.31,0,0,0,0-.31h0a.33.33,0,0,0-.22-.21.68.68,0,0,0-.43,0l-.81.28.25.71Z"/><path class="cls-2" d="M39.46,16a2.21,2.21,0,0,1-.77,0,1.92,1.92,0,0,1-.74-.28l.33-.61a2,2,0,0,0,.52.21,1.45,1.45,0,0,0,.55,0,.64.64,0,0,0,.34-.16.26.26,0,0,0,.08-.25h0a.22.22,0,0,0,0-.12.19.19,0,0,0-.12-.09l-.22-.06-.36,0-.48-.05a1.8,1.8,0,0,1-.39-.12.78.78,0,0,1-.27-.24.91.91,0,0,1-.16-.4h0a1.08,1.08,0,0,1,0-.44,1,1,0,0,1,.17-.36,1.12,1.12,0,0,1,.33-.28,1.27,1.27,0,0,1,.45-.16,2.09,2.09,0,0,1,.7,0,2.39,2.39,0,0,1,.62.21l-.27.63a2.48,2.48,0,0,0-.49-.15,1.09,1.09,0,0,0-.44,0,.53.53,0,0,0-.3.15.28.28,0,0,0-.07.23h0a.26.26,0,0,0,.06.13.28.28,0,0,0,.14.09l.23.05.38,0a3.5,3.5,0,0,1,.48.06,1.35,1.35,0,0,1,.37.14.85.85,0,0,1,.26.24,1.08,1.08,0,0,1,.14.36h0a1.06,1.06,0,0,1,0,.47.87.87,0,0,1-.19.37,1.06,1.06,0,0,1-.34.28A2.08,2.08,0,0,1,39.46,16Z"/><path class="cls-2" d="M43.84,12.71l-1.59,0v-.65l2.44,0v.57L43.2,15.5h-.84Z"/><path class="cls-2" d="M46.35,15.71a1.37,1.37,0,0,1-.55-.16,1.16,1.16,0,0,1-.38-.32,1.31,1.31,0,0,1-.23-.52,2.38,2.38,0,0,1,0-.81v0a3.16,3.16,0,0,1,.17-.72,1.82,1.82,0,0,1,.34-.56,1.25,1.25,0,0,1,.51-.33,1.34,1.34,0,0,1,.67-.07,1.42,1.42,0,0,1,.31.06,1,1,0,0,1,.26.11l.23.14.21.19-.46.53-.15-.14a.71.71,0,0,0-.14-.1L47,12.92l-.19-.05a.68.68,0,0,0-.29,0,.74.74,0,0,0-.22.14,1,1,0,0,0-.16.24,1.6,1.6,0,0,0-.1.31,1.34,1.34,0,0,1,.3-.12,1.11,1.11,0,0,1,.42,0,1.31,1.31,0,0,1,.45.13.9.9,0,0,1,.35.25.82.82,0,0,1,.21.36,1.13,1.13,0,0,1,0,.49h0a1.17,1.17,0,0,1-.47.81,1.3,1.3,0,0,1-.43.2A1.51,1.51,0,0,1,46.35,15.71Zm0-.65a.62.62,0,0,0,.44-.09.44.44,0,0,0,.19-.34h0a.49.49,0,0,0-.12-.37.59.59,0,0,0-.41-.19.65.65,0,0,0-.45.08.47.47,0,0,0-.19.34h0a.48.48,0,0,0,.11.38A.61.61,0,0,0,46.4,15.06Z"/><path class="cls-2" d="M50.21,13.57l-1.54-.38.16-.64,2.36.6-.14.55-2.16,2.41-.82-.21Z"/><path class="cls-2" d="M52.09,14.25l-.6-.06.06-.63,1,0,.47.17L51.86,17l-.69-.25Z"/></svg>