<svg id="Layer_1" data-name="Layer 1" xmlns="http://www.w3.org/2000/svg" viewBox="0 0 90 100"><defs><style>.cls-1,.cls-3{fill:#fff;stroke:#74af27;}.cls-1{stroke-miterlimit:10;}.cls-2{fill:#74af27;}.cls-3{stroke-linecap:round;stroke-linejoin:round;stroke-width:1.5px;}</style></defs><title>EV-DealerPortal-Back</title><circle class="cls-1" cx="45" cy="37.74" r="28.35"/><path class="cls-2" d="M35.31,70.68H38a2.3,2.3,0,0,1,1.64.56,1.42,1.42,0,0,1,.41,1v0a1.53,1.53,0,0,1-1,1.46c.75.22,1.35.65,1.35,1.52v0c0,1.08-.91,1.72-2.29,1.72h-2.8Zm4,1.67c0-.62-.5-1-1.4-1H36v2.17h1.87c.85,0,1.45-.38,1.45-1.12ZM38,74.12H36v2.23h2.12c.95,0,1.55-.43,1.55-1.13v0C39.68,74.52,39.1,74.12,38,74.12Z"/><path class="cls-2" d="M41.07,75.63h0c0-1,.81-1.51,2-1.51a5.12,5.12,0,0,1,1.43.2v-.16c0-.84-.51-1.27-1.38-1.27a3.41,3.41,0,0,0-1.42.34l-.2-.56a3.73,3.73,0,0,1,1.69-.39,2,2,0,0,1,1.5.51,1.83,1.83,0,0,1,.48,1.36V77h-.67v-.71a2,2,0,0,1-1.68.8A1.57,1.57,0,0,1,41.07,75.63Zm3.43-.35v-.45a4.8,4.8,0,0,0-1.37-.2c-.87,0-1.36.38-1.36,1v0c0,.58.54.93,1.17.93A1.41,1.41,0,0,0,44.5,75.28Z"/><path class="cls-2" d="M46.08,74.68v0a2.4,2.4,0,0,1,2.38-2.43,2.43,2.43,0,0,1,1.87.83l-.46.49a1.89,1.89,0,0,0-1.42-.71,1.72,1.72,0,0,0-1.66,1.8v0a1.74,1.74,0,0,0,1.71,1.81,1.91,1.91,0,0,0,1.42-.69l.44.41a2.4,2.4,0,0,1-4.28-1.51Z"/><path class="cls-2" d="M51.23,70.41h.7V75l2.51-2.62h.86l-1.95,2,2,2.66h-.83l-1.67-2.17-.94,1V77h-.7Z"/><path class="cls-3" d="M58.76,44.67s-.1-12-15.5-12V28.77s0-2.37-2.29-.69l-8.84,6.85s-2,1.39,0,2.69l9.24,7.05s1.71,1.59,1.79-.5V39.5S54.29,37.59,56.87,45C56.87,45,58.4,47.16,58.76,44.67Z"/></svg>