<svg id="Layer_1" data-name="Layer 1" xmlns="http://www.w3.org/2000/svg" viewBox="0 0 90 100"><defs><style>.cls-1{fill:#fff;stroke:#74af27;stroke-miterlimit:10;}.cls-2{fill:#74af27;}</style></defs><title>EV-DealerPortal-Search</title><circle class="cls-1" cx="45" cy="37.74" r="28.35"/><path class="cls-2" d="M51.81,40.24c-1.21.87-2.28,1.61-3.31,2.39-.55.42-.78,0-.92-.34-.31-.76-.8-.65-1.43-.51a17.62,17.62,0,0,1-3.83.64,10.69,10.69,0,0,1-10.07-7.14A11,11,0,0,1,51.33,24.9a10.72,10.72,0,0,1,2.19,6.52,9.71,9.71,0,0,1-1.84,6.09C50.94,38.46,50.48,39.29,51.81,40.24ZM42.59,22.83a8.57,8.57,0,0,0-8.69,8.46A8.45,8.45,0,0,0,42,40.13a8.66,8.66,0,1,0,.57-17.3Z"/><path class="cls-2" d="M48.94,44.19l3.57-2.62A4.22,4.22,0,0,1,53,42l5.25,7.24c.23.33.3.57-.12.86-1,.67-1.91,1.42-2.88,2.09a.64.64,0,0,1-.59-.16C52.76,49.47,50.89,46.87,48.94,44.19Z"/><path class="cls-2" d="M30.94,76.07l.44-.53a3,3,0,0,0,2.16.9c.85,0,1.4-.45,1.4-1.07v0c0-.59-.31-.92-1.63-1.2s-2.12-.78-2.12-1.82v0a1.86,1.86,0,0,1,2.07-1.72,3.32,3.32,0,0,1,2.22.78l-.42.55a2.75,2.75,0,0,0-1.82-.69c-.82,0-1.34.45-1.34,1v0c0,.59.33.93,1.71,1.22s2,.82,2,1.79h0c0,1.08-.9,1.79-2.15,1.79A3.69,3.69,0,0,1,30.94,76.07Z"/><path class="cls-2" d="M36.44,74.67v0a2.29,2.29,0,0,1,2.23-2.42,2.22,2.22,0,0,1,2.17,2.46,1.77,1.77,0,0,1,0,.23H37.14a1.63,1.63,0,0,0,1.64,1.57,1.89,1.89,0,0,0,1.46-.66l.44.39a2.42,2.42,0,0,1-1.92.87A2.31,2.31,0,0,1,36.44,74.67Zm3.7-.27a1.54,1.54,0,0,0-1.49-1.58,1.6,1.6,0,0,0-1.51,1.58Z"/><path class="cls-2" d="M41.43,75.63h0c0-1,.81-1.51,2-1.51a5.12,5.12,0,0,1,1.43.2v-.16c0-.84-.51-1.27-1.38-1.27a3.38,3.38,0,0,0-1.42.34l-.2-.56a3.73,3.73,0,0,1,1.69-.39,2,2,0,0,1,1.5.51,1.83,1.83,0,0,1,.48,1.36V77h-.67v-.71a2,2,0,0,1-1.68.8A1.56,1.56,0,0,1,41.43,75.63Zm3.43-.35v-.45a4.8,4.8,0,0,0-1.37-.2c-.87,0-1.36.38-1.36,1v0c0,.58.54.93,1.17.93A1.41,1.41,0,0,0,44.86,75.28Z"/><path class="cls-2" d="M46.72,72.33h.7v1.22a2,2,0,0,1,1.9-1.3V73h-.06a1.88,1.88,0,0,0-1.84,2.13V77h-.7Z"/><path class="cls-2" d="M49.61,74.68v0a2.42,2.42,0,0,1,4.25-1.6l-.46.49A1.87,1.87,0,0,0,52,72.84a1.72,1.72,0,0,0-1.67,1.8v0A1.74,1.74,0,0,0,52,76.47a1.91,1.91,0,0,0,1.43-.69l.44.41a2.41,2.41,0,0,1-4.29-1.51Z"/><path class="cls-2" d="M54.77,70.41h.69v2.73a1.79,1.79,0,0,1,1.6-.91,1.7,1.7,0,0,1,1.78,1.87V77h-.69V74.27a1.24,1.24,0,0,0-1.29-1.41,1.38,1.38,0,0,0-1.4,1.46V77h-.69Z"/></svg>