<svg id="Layer_1" data-name="Layer 1" xmlns="http://www.w3.org/2000/svg" viewBox="0 0 90 100"><defs><style>.cls-1{fill:#fff;stroke:#74af27;stroke-miterlimit:10;}.cls-2{fill:#74af27;}</style></defs><title>EV-DealerPortal-EnquirySubmitted</title><circle class="cls-1" cx="45" cy="37.74" r="28.35"/><path class="cls-2" d="M29.49,70.68H34v.65H30.2v2.15h3.44v.65H30.2v2.21h3.89V77h-4.6Z"/><path class="cls-2" d="M35.13,72.33h.69v.81a1.79,1.79,0,0,1,1.6-.91A1.7,1.7,0,0,1,39.2,74.1V77h-.69V74.27a1.24,1.24,0,0,0-1.29-1.41,1.38,1.38,0,0,0-1.4,1.46V77h-.69Z"/><path class="cls-2" d="M44.14,76.05a2.09,2.09,0,0,1-1.78,1,2.26,2.26,0,0,1-2.22-2.41v0a2.28,2.28,0,0,1,2.22-2.42,2.11,2.11,0,0,1,1.78,1v-.89h.69v6.1h-.69Zm0-1.39v0a1.73,1.73,0,0,0-1.68-1.79,1.64,1.64,0,0,0-1.64,1.79v0a1.68,1.68,0,0,0,1.64,1.8A1.74,1.74,0,0,0,44.17,74.66Z"/><path class="cls-2" d="M46,75.22V72.33h.69v2.72A1.25,1.25,0,0,0,48,76.46,1.38,1.38,0,0,0,49.42,75V72.33h.68V77h-.68v-.81a1.79,1.79,0,0,1-1.6.9A1.7,1.7,0,0,1,46,75.22Z"/><path class="cls-2" d="M51.4,70.55h.8v.76h-.8Zm.05,1.78h.69V77h-.69Z"/><path class="cls-2" d="M53.48,72.33h.7v1.22a2,2,0,0,1,1.9-1.3V73H56a1.87,1.87,0,0,0-1.84,2.13V77h-.7Z"/><path class="cls-2" d="M60.34,72.33h.74l-1.95,4.81c-.4,1-.85,1.31-1.55,1.31a2.13,2.13,0,0,1-1-.23l.23-.55a1.43,1.43,0,0,0,.73.17c.41,0,.68-.21,1-.87l-2.11-4.64h.76l1.7,3.88Z"/><path class="cls-2" d="M23.23,87.07l.45-.53a3,3,0,0,0,2.16.9c.84,0,1.4-.45,1.4-1.07v0c0-.59-.31-.92-1.64-1.2s-2.11-.78-2.11-1.82v0a1.86,1.86,0,0,1,2.07-1.72,3.29,3.29,0,0,1,2.21.78l-.41.55a2.77,2.77,0,0,0-1.82-.69c-.82,0-1.34.45-1.34,1v0c0,.59.32.93,1.71,1.22S28,85.31,28,86.28h0c0,1.08-.9,1.79-2.15,1.79A3.73,3.73,0,0,1,23.23,87.07Z"/><path class="cls-2" d="M29,86.22V83.33h.69v2.72a1.25,1.25,0,0,0,1.29,1.41A1.37,1.37,0,0,0,32.32,86V83.33H33V88h-.69v-.81a1.76,1.76,0,0,1-1.59.9A1.7,1.7,0,0,1,29,86.22Z"/><path class="cls-2" d="M35,87.09V88h-.7V81.41H35v2.86a2.1,2.1,0,0,1,1.78-1A2.27,2.27,0,0,1,39,85.64v0a2.27,2.27,0,0,1-2.22,2.42A2.08,2.08,0,0,1,35,87.09Zm3.29-1.42v0a1.68,1.68,0,0,0-1.64-1.8A1.74,1.74,0,0,0,35,85.64v0a1.73,1.73,0,0,0,1.68,1.8A1.64,1.64,0,0,0,38.28,85.67Z"/><path class="cls-2" d="M40,83.33h.69v.79a1.71,1.71,0,0,1,1.51-.89,1.58,1.58,0,0,1,1.49.93,1.86,1.86,0,0,1,1.64-.93,1.68,1.68,0,0,1,1.73,1.88V88h-.69V85.27c0-.9-.45-1.41-1.21-1.41a1.3,1.3,0,0,0-1.28,1.44V88h-.69V85.25c0-.87-.46-1.39-1.2-1.39a1.35,1.35,0,0,0-1.3,1.47V88H40Z"/><path class="cls-2" d="M48.31,81.55h.79v.76h-.79Zm0,1.78h.7V88h-.7Z"/><path class="cls-2" d="M50.63,86.75V83.94H50v-.61h.65v-1.4h.69v1.4H52.8v.61H51.32v2.72a.7.7,0,0,0,.79.78,1.42,1.42,0,0,0,.67-.17v.6a1.8,1.8,0,0,1-.84.2A1.19,1.19,0,0,1,50.63,86.75Z"/><path class="cls-2" d="M54,86.75V83.94h-.65v-.61H54v-1.4h.69v1.4h1.48v.61H54.69v2.72a.69.69,0,0,0,.78.78,1.46,1.46,0,0,0,.68-.17v.6a1.86,1.86,0,0,1-.84.2A1.18,1.18,0,0,1,54,86.75Z"/><path class="cls-2" d="M56.7,85.67v0a2.29,2.29,0,0,1,2.23-2.42,2.22,2.22,0,0,1,2.17,2.46,1.77,1.77,0,0,1,0,.23H57.4A1.63,1.63,0,0,0,59,87.49a1.9,1.9,0,0,0,1.46-.66l.44.39a2.42,2.42,0,0,1-1.92.87A2.31,2.31,0,0,1,56.7,85.67Zm3.7-.27a1.54,1.54,0,0,0-1.49-1.58A1.6,1.6,0,0,0,57.4,85.4Z"/><path class="cls-2" d="M61.77,85.67v0A2.29,2.29,0,0,1,64,83.23a2.11,2.11,0,0,1,1.78,1V81.41h.69V88h-.69v-.94a2.09,2.09,0,0,1-1.78,1A2.27,2.27,0,0,1,61.77,85.67Zm4,0v0a1.72,1.72,0,0,0-1.68-1.79,1.65,1.65,0,0,0-1.64,1.79v0a1.68,1.68,0,0,0,1.64,1.8A1.73,1.73,0,0,0,65.8,85.66Z"/><path class="cls-2" d="M45.05,23.12H58.49A2.33,2.33,0,0,1,61,25,12.21,12.21,0,0,1,61,26.79c0,.9,0,1.8,0,2.71,0,.6,0,1.21,0,1.82,0,.84,0,1.68,0,2.52,0,.56,0,1.12,0,1.68V39.8c0,1.1,0,2.21,0,3.32,0,.83,0,1.66,0,2.48A14.93,14.93,0,0,1,61,47.1a2.24,2.24,0,0,1-1.91,1.82c-1,0-2,.06-3,.06-2.34,0-4.69,0-7,0-.36,0-.5.09-.49.47,0,1,0,1.93,0,2.89a1,1,0,0,0,.75,1,3,3,0,0,0,.79.12h3.62c.61,0,.94.29.94.8a.73.73,0,0,1-.63.77,6,6,0,0,1-1,.05H36.38a3.29,3.29,0,0,1-.54-.05.77.77,0,0,1-.63-.76.74.74,0,0,1,.57-.75,2.16,2.16,0,0,1,.51-.06h3.07a3.68,3.68,0,0,0,.66-.06c.76-.16,1.14-.4,1.1-1.34s0-1.81,0-2.71c0-.33-.11-.43-.42-.43H31.61A2.39,2.39,0,0,1,29,46.36V25.75a2.35,2.35,0,0,1,1.61-2.48,3.92,3.92,0,0,1,1.19-.14Zm0,1.63H31.51c-.73,0-.93.2-.93,1,0,2.72,0,5.44,0,8.16,0,4.22,0,8.43,0,12.64,0,.65.21.86.85.86h27c.77,0,1-.19,1-1q0-4,0-8.06c0-4.23,0-8.45,0-12.67,0-.7-.2-.9-.89-.9Zm2,28.73c0-.88-.07-1.72-.09-2.55,0-.52,0-1,0-1.54,0-.3-.08-.42-.39-.42-1.13,0-2.27,0-3.41,0-.34,0-.42.12-.43.44a17.85,17.85,0,0,1-.2,4.06Z"/><path class="cls-2" d="M45,26.48H57.27c.59,0,.66.1.65.69,0,.83,0,1.66,0,2.48,0,.62,0,1.24,0,1.86,0,.83,0,1.66,0,2.49,0,.55,0,1.11,0,1.67,0,.94,0,1.88,0,2.81,0,.68,0,1.36,0,2v2c0,.49-.12.62-.6.62H32.82c-.6,0-.77-.19-.77-.8,0-1.45,0-2.9,0-4.34,0-1.13,0-2.26,0-3.39,0-.81,0-1.61,0-2.41,0-.62,0-1.24,0-1.86,0-.83,0-1.66,0-2.48,0-.37,0-.73,0-1.1s.27-.33.52-.33H45Zm0,.81H39.6c-2.09,0-4.19,0-6.29,0-.36,0-.48.13-.46.48a8.43,8.43,0,0,1,0,.87c0,1.33,0,2.66,0,4,0,1.09,0,2.19,0,3.29,0,1.4,0,2.8,0,4.2,0,.57,0,1.14,0,1.72s0,.54.53.54H44.13c4.16,0,8.32,0,12.48,0,.46,0,.53,0,.54-.52s0-.71,0-1.06c0-1.45,0-2.9,0-4.34,0-.62,0-1.24,0-1.86,0-.77,0-1.54,0-2.3s0-1.24,0-1.86c0-.9,0-1.8,0-2.7,0-.4-.15-.45-.49-.45Z"/><path class="cls-2" d="M39.39,36.06h1.36c.38,0,.53.14.54.53q0,1.35,0,2.7c0,.41-.17.58-.58.59-.91,0-1.81,0-2.71,0-.39,0-.54-.19-.55-.58q0-1.34,0-2.67c0-.42.18-.57.59-.58Zm-.06,3.15h.88c.21,0,.32-.06.31-.29V37.13c0-.22-.1-.31-.31-.31H38.45c-.21,0-.31.08-.31.3q0,.9,0,1.8c0,.22.1.3.31.29Z"/><path class="cls-2" d="M41.28,31.14c0,.62,0,1.24,0,1.86a.41.41,0,0,1-.43.42c-1,0-2,0-2.92,0-.32,0-.48-.22-.48-.54V30.11c0-.25.12-.48.4-.48.94,0,1.88,0,2.82,0a.89.89,0,0,1-.82.76H38.46c-.23,0-.32.09-.32.33,0,.58,0,1.17,0,1.75,0,.26.12.31.34.31.55,0,1.1,0,1.65,0,.3,0,.44-.1.39-.4-.11-.61.33-.91.66-1.27Z"/><path class="cls-2" d="M47.94,36.72h4.13c.28,0,.56,0,.55.38s-.27.39-.55.39H43.73c-.27,0-.52-.07-.52-.39s.25-.38.52-.38Z"/><path class="cls-2" d="M47.92,30.35H52a.85.85,0,0,1,.36,0c.11.06.26.18.26.29a.43.43,0,0,1-.22.32A.82.82,0,0,1,52,31H43.84c-.27,0-.61,0-.62-.34s.34-.35.6-.35Z"/><path class="cls-2" d="M46.15,32.59H43.7c-.26,0-.48-.05-.49-.36s.22-.39.47-.39h4.91c.26,0,.52.09.51.4s-.27.36-.54.36Z"/><path class="cls-2" d="M46.13,39H43.71c-.24,0-.51,0-.5-.33s.27-.35.52-.35h4.79a.52.52,0,0,1,.22,0c.13.1.33.22.35.35s-.18.32-.4.32H46.13Z"/><path class="cls-2" d="M39.46,31.55,40.8,30l.24-.28c.17-.19.36-.38.62-.15s.11.43-.06.63c-.4.45-.79.9-1.19,1.34-.17.2-.34.41-.53.61s-.45.26-.72,0-.37-.39-.55-.58-.21-.38,0-.55.38-.12.54.05A4.44,4.44,0,0,1,39.46,31.55Z"/></svg>