<svg id="Layer_1" data-name="Layer 1" xmlns="http://www.w3.org/2000/svg" viewBox="0 0 90 100"><defs><style>.cls-1,.cls-3{fill:#fff;}.cls-1,.cls-3,.cls-4{stroke:#74af27;}.cls-1{stroke-miterlimit:10;}.cls-2{fill:#74af27;}.cls-3,.cls-4{stroke-linecap:round;stroke-linejoin:round;stroke-width:1.5px;}.cls-4{fill:none;}</style></defs><title>EV-DealerPortal-Save</title><circle class="cls-1" cx="45" cy="37.74" r="28.35"/><path class="cls-2" d="M35.32,76.07l.44-.53a3,3,0,0,0,2.16.9c.84,0,1.4-.45,1.4-1.07v0c0-.59-.31-.92-1.64-1.2s-2.11-.78-2.11-1.82v0a1.86,1.86,0,0,1,2.07-1.72,3.29,3.29,0,0,1,2.21.78l-.41.55a2.77,2.77,0,0,0-1.82-.69c-.82,0-1.34.45-1.34,1v0c0,.59.32.93,1.71,1.22s2,.82,2,1.79h0c0,1.08-.9,1.79-2.15,1.79A3.69,3.69,0,0,1,35.32,76.07Z"/><path class="cls-2" d="M40.75,75.63h0c0-1,.81-1.51,2-1.51a5.12,5.12,0,0,1,1.43.2v-.16c0-.84-.51-1.27-1.38-1.27a3.41,3.41,0,0,0-1.42.34l-.2-.56a3.73,3.73,0,0,1,1.69-.39,2,2,0,0,1,1.5.51,1.83,1.83,0,0,1,.48,1.36V77h-.67v-.71a2,2,0,0,1-1.68.8A1.57,1.57,0,0,1,40.75,75.63Zm3.43-.35v-.45a4.8,4.8,0,0,0-1.37-.2c-.87,0-1.36.38-1.36,1v0c0,.58.54.93,1.17.93A1.41,1.41,0,0,0,44.18,75.28Z"/><path class="cls-2" d="M45.4,72.33h.77l1.57,3.86,1.57-3.86h.75L48,77h-.61Z"/><path class="cls-2" d="M50.32,74.67v0a2.29,2.29,0,0,1,2.23-2.42,2.22,2.22,0,0,1,2.17,2.46,1.77,1.77,0,0,1,0,.23H51a1.63,1.63,0,0,0,1.64,1.57,1.92,1.92,0,0,0,1.47-.66l.43.39a2.42,2.42,0,0,1-1.92.87A2.31,2.31,0,0,1,50.32,74.67ZM54,74.4a1.53,1.53,0,0,0-1.49-1.58A1.6,1.6,0,0,0,51,74.4Z"/><path class="cls-3" d="M58,47.89a2.72,2.72,0,0,1-2.71,2.71H34.69A2.72,2.72,0,0,1,32,47.89V27.26a2.72,2.72,0,0,1,2.71-2.7h20L58,28.14Z"/><polyline class="cls-4" points="37.15 24.56 37.15 33.01 53.05 33.01 53.05 24.56"/><line class="cls-4" x1="49.07" y1="26.85" x2="49.07" y2="30.52"/><polyline class="cls-4" points="54.24 50.6 54.24 37.58 35.96 37.58 35.96 50.6"/></svg>