<svg id="Layer_1" data-name="Layer 1" xmlns="http://www.w3.org/2000/svg" viewBox="0 0 90 100"><defs><style>.cls-1{fill:#fff;stroke:#74af27;stroke-miterlimit:10;}.cls-2{fill:#74af27;}</style></defs><title>EV-DealerPortal-Edit</title><circle class="cls-1" cx="45" cy="37.74" r="28.35"/><path class="cls-2" d="M34.81,50.84H55.7v1.28H34.31V50.2c0-3.08,0-6.17,0-9.24a3.36,3.36,0,0,1,.41-1.59c2.91-5.09,5.87-10.15,8.79-15.24a5.06,5.06,0,0,1,4.81-2.91c3.15.2,5.65,2.54,5.21,6a8.4,8.4,0,0,1-1.25,2.95c-2.59,4.53-5.29,9-7.81,13.55a7.76,7.76,0,0,1-3.3,3.1c-2,1.12-4,2.3-6,3.45l-.6.32Zm7.4-7.63a3.09,3.09,0,0,0,.4-.43c2-3.42,3.91-6.84,5.9-10.24.25-.43.12-.54-.22-.73-1.48-.85-3-1.72-4.43-2.59-.47-.28-.78-.2-1,.32s-.72,1.18-1.07,1.78l-5,8.72Zm9.42-16.76A9.93,9.93,0,0,0,51.17,25,3.41,3.41,0,0,0,47,23.52c-1.27.53-1.72,1.7-2.28,2.78A.74.74,0,0,0,45,27q2.28,1.37,4.6,2.65c.17.1.58.1.63,0C50.72,28.61,51.58,27.74,51.63,26.45ZM41.78,44c-1-.6-1.81-1.12-2.65-1.61s-1.72-1-2.74-1.51V42.8c0,1.88,0,1.89,1.59,2.77a1.25,1.25,0,0,0,1,.08C39.89,45.19,40.77,44.62,41.78,44Z"/><path class="cls-2" d="M37.34,70.68h4.55v.65H38.05v2.15h3.44v.65H38.05v2.21h3.89V77h-4.6Z"/><path class="cls-2" d="M42.62,74.67v0a2.28,2.28,0,0,1,2.22-2.42,2.11,2.11,0,0,1,1.79,1V70.41h.69V77h-.69v-.94a2.09,2.09,0,0,1-1.79,1A2.27,2.27,0,0,1,42.62,74.67Zm4,0v0A1.73,1.73,0,0,0,45,72.85a1.65,1.65,0,0,0-1.64,1.79v0A1.68,1.68,0,0,0,45,76.46,1.74,1.74,0,0,0,46.65,74.66Z"/><path class="cls-2" d="M48.61,70.55h.8v.76h-.8Zm0,1.78h.69V77h-.69Z"/><path class="cls-2" d="M50.94,75.75V72.94h-.65v-.61h.65v-1.4h.69v1.4h1.48v.61H51.63v2.72a.69.69,0,0,0,.78.78,1.46,1.46,0,0,0,.68-.17v.6a1.86,1.86,0,0,1-.84.2A1.18,1.18,0,0,1,50.94,75.75Z"/></svg>