<svg id="Layer_1" data-name="Layer 1" xmlns="http://www.w3.org/2000/svg" viewBox="0 0 90 100"><defs><style>.cls-1,.cls-3,.cls-5{fill:#fff;}.cls-1,.cls-3,.cls-6{stroke:#74af27;}.cls-1{stroke-miterlimit:10;}.cls-2,.cls-4{fill:#74af27;}.cls-3,.cls-6{stroke-linecap:round;stroke-linejoin:round;stroke-width:0.82px;}.cls-4,.cls-5{fill-rule:evenodd;}.cls-6{fill:none;}</style></defs><title>EV-DealerPortal-InstallationComplete</title><circle class="cls-1" cx="45" cy="37.74" r="28.35"/><path class="cls-2" d="M23.11,70.68h.71V77h-.71Z"/><path class="cls-2" d="M25.28,72.33H26v.81a1.77,1.77,0,0,1,1.59-.91,1.71,1.71,0,0,1,1.79,1.87V77h-.7V74.27a1.24,1.24,0,0,0-1.28-1.41A1.37,1.37,0,0,0,26,74.32V77h-.69Z"/><path class="cls-2" d="M30.16,76.39l.35-.49a2.81,2.81,0,0,0,1.62.59c.55,0,1-.29,1-.74v0c0-.46-.55-.64-1.16-.81s-1.54-.46-1.54-1.32v0A1.4,1.4,0,0,1,32,72.25a3.24,3.24,0,0,1,1.68.51l-.32.53A2.59,2.59,0,0,0,32,72.84c-.55,0-.91.28-.91.67v0c0,.44.58.61,1.2.8s1.5.5,1.5,1.33v0a1.47,1.47,0,0,1-1.66,1.4A3.25,3.25,0,0,1,30.16,76.39Z"/><path class="cls-2" d="M34.92,75.75V72.94h-.65v-.61h.65v-1.4h.69v1.4h1.48v.61H35.61v2.72a.69.69,0,0,0,.78.78,1.46,1.46,0,0,0,.68-.17v.6a1.86,1.86,0,0,1-.84.2A1.18,1.18,0,0,1,34.92,75.75Z"/><path class="cls-2" d="M37.69,75.63h0c0-1,.81-1.51,2-1.51a5.24,5.24,0,0,1,1.43.2v-.16c0-.84-.51-1.27-1.39-1.27a3.33,3.33,0,0,0-1.41.34l-.21-.56a3.79,3.79,0,0,1,1.69-.39,2.06,2.06,0,0,1,1.51.51,1.87,1.87,0,0,1,.47,1.36V77h-.66v-.71a2,2,0,0,1-1.69.8A1.56,1.56,0,0,1,37.69,75.63Zm3.43-.35v-.45a4.8,4.8,0,0,0-1.37-.2c-.87,0-1.36.38-1.36,1v0c0,.58.54.93,1.17.93A1.41,1.41,0,0,0,41.12,75.28Z"/><path class="cls-2" d="M43,70.41h.7V77H43Z"/><path class="cls-2" d="M45.14,70.41h.69V77h-.69Z"/><path class="cls-2" d="M46.82,75.63h0c0-1,.81-1.51,2-1.51a5.12,5.12,0,0,1,1.43.2v-.16c0-.84-.51-1.27-1.38-1.27a3.41,3.41,0,0,0-1.42.34l-.2-.56a3.73,3.73,0,0,1,1.69-.39,2,2,0,0,1,1.5.51,1.83,1.83,0,0,1,.48,1.36V77h-.67v-.71a2,2,0,0,1-1.68.8A1.57,1.57,0,0,1,46.82,75.63Zm3.43-.35v-.45a4.8,4.8,0,0,0-1.37-.2c-.87,0-1.36.38-1.36,1v0c0,.58.54.93,1.17.93A1.41,1.41,0,0,0,50.25,75.28Z"/><path class="cls-2" d="M52.31,75.75V72.94h-.65v-.61h.65v-1.4H53v1.4h1.48v.61H53v2.72a.7.7,0,0,0,.79.78,1.42,1.42,0,0,0,.67-.17v.6a1.79,1.79,0,0,1-.83.2A1.19,1.19,0,0,1,52.31,75.75Z"/><path class="cls-2" d="M55.45,70.55h.79v.76h-.79Zm0,1.78h.69V77H55.5Z"/><path class="cls-2" d="M57.24,74.68v0a2.43,2.43,0,0,1,4.86,0v0a2.42,2.42,0,0,1-2.44,2.43A2.38,2.38,0,0,1,57.24,74.68Zm4.14,0v0a1.76,1.76,0,0,0-1.72-1.82A1.72,1.72,0,0,0,58,74.64v0a1.75,1.75,0,0,0,1.72,1.81A1.72,1.72,0,0,0,61.38,74.68Z"/><path class="cls-2" d="M63.08,72.33h.69v.81a1.76,1.76,0,0,1,1.59-.91,1.7,1.7,0,0,1,1.78,1.87V77h-.69V74.27a1.24,1.24,0,0,0-1.29-1.41,1.37,1.37,0,0,0-1.39,1.46V77h-.69Z"/><path class="cls-2" d="M24.85,84.85v0A3.17,3.17,0,0,1,28,81.58a3.25,3.25,0,0,1,2.46,1L30,83.1a2.71,2.71,0,0,0-2-.87,2.48,2.48,0,0,0-2.44,2.59h0A2.5,2.5,0,0,0,28,87.44a2.76,2.76,0,0,0,2-.91l.47.46A3.31,3.31,0,0,1,28,88.09,3.14,3.14,0,0,1,24.85,84.85Z"/><path class="cls-2" d="M31,85.68v0a2.41,2.41,0,0,1,2.43-2.43,2.39,2.39,0,0,1,2.42,2.41v0a2.41,2.41,0,0,1-2.44,2.43A2.38,2.38,0,0,1,31,85.68Zm4.14,0v0a1.76,1.76,0,0,0-1.73-1.82,1.72,1.72,0,0,0-1.7,1.8v0a1.75,1.75,0,0,0,1.72,1.81A1.72,1.72,0,0,0,35.14,85.68Z"/><path class="cls-2" d="M36.83,83.33h.7v.79a1.7,1.7,0,0,1,1.5-.89,1.57,1.57,0,0,1,1.49.93,1.87,1.87,0,0,1,1.64-.93,1.68,1.68,0,0,1,1.73,1.88V88H43.2V85.27c0-.9-.45-1.41-1.21-1.41a1.3,1.3,0,0,0-1.28,1.44V88H40V85.25c0-.87-.46-1.39-1.2-1.39a1.34,1.34,0,0,0-1.29,1.47V88h-.7Z"/><path class="cls-2" d="M45.12,83.33h.7v.94a2.07,2.07,0,0,1,1.78-1,2.28,2.28,0,0,1,2.22,2.41v0a2.28,2.28,0,0,1-2.22,2.42,2.07,2.07,0,0,1-1.78-1v2.34h-.7Zm4,2.34v0a1.68,1.68,0,0,0-1.64-1.8,1.74,1.74,0,0,0-1.68,1.79v0a1.73,1.73,0,0,0,1.68,1.8A1.64,1.64,0,0,0,49.11,85.67Z"/><path class="cls-2" d="M50.89,81.41h.69V88h-.69Z"/><path class="cls-2" d="M52.64,85.67v0a2.29,2.29,0,0,1,2.23-2.42A2.22,2.22,0,0,1,57,85.69a1.77,1.77,0,0,1,0,.23H53.34A1.63,1.63,0,0,0,55,87.49a1.92,1.92,0,0,0,1.47-.66l.43.39a2.42,2.42,0,0,1-1.92.87A2.31,2.31,0,0,1,52.64,85.67Zm3.7-.27a1.53,1.53,0,0,0-1.49-1.58,1.6,1.6,0,0,0-1.51,1.58Z"/><path class="cls-2" d="M58.23,86.75V83.94h-.65v-.61h.65v-1.4h.69v1.4H60.4v.61H58.92v2.72a.69.69,0,0,0,.78.78,1.46,1.46,0,0,0,.68-.17v.6a1.86,1.86,0,0,1-.84.2A1.18,1.18,0,0,1,58.23,86.75Z"/><path class="cls-2" d="M60.93,85.67v0a2.29,2.29,0,0,1,2.23-2.42,2.22,2.22,0,0,1,2.17,2.46,1.77,1.77,0,0,1,0,.23H61.63a1.63,1.63,0,0,0,1.64,1.57,1.89,1.89,0,0,0,1.46-.66l.44.39a2.42,2.42,0,0,1-1.92.87A2.31,2.31,0,0,1,60.93,85.67Zm3.7-.27a1.54,1.54,0,0,0-1.49-1.58,1.6,1.6,0,0,0-1.51,1.58Z"/><path class="cls-3" d="M28.87,50.64s-2.31-2.14-.56-4.33c0,0,.79-1.45,5.69-2.58a10,10,0,0,0,2.69-1.21c.87-.71,1.87-1.19,4.25-1.48a44.74,44.74,0,0,1,4.62-.31s3.91-.4,5,2.42a11.14,11.14,0,0,1,.53,3.12v1.48s-.15,1.33.69,1.45c0,0,.91.15.94-1.37V43.65s-.41-3.35,1.86-3.35h.76"/><line class="cls-3" x1="35.85" y1="51.03" x2="43.86" y2="51.03"/><ellipse class="cls-3" cx="32.51" cy="49.2" rx="2.7" ry="2.78"/><ellipse class="cls-3" cx="47.26" cy="49.2" rx="2.7" ry="2.78"/><path class="cls-2" d="M56.62,39.22v2a.41.41,0,0,1-.52.36,1.35,1.35,0,0,1-1.32-1.27s-.16-1.18,1.4-1.41C56.18,38.94,56.62,38.86,56.62,39.22Z"/><path class="cls-2" d="M57.61,40a.31.31,0,0,0,0-.62H56.24V40Z"/><path class="cls-2" d="M57.61,41.26a.31.31,0,0,0,0-.62H56.24v.62Z"/><path class="cls-4" d="M63.74,37.32c0,.31,0,.61,0,.92s0,.64-.05,1c0,.14,0,.29,0,.44a8.61,8.61,0,0,1-.09,1c0,.31-.09.62-.14.93a.87.87,0,0,1-.39.56,2.66,2.66,0,0,1-.76.27c-.23,0-.46.08-.69.1a4,4,0,0,1-.85,0,7.55,7.55,0,0,1-1-.17,1.43,1.43,0,0,1-.67-.37.56.56,0,0,1-.17-.32,11.86,11.86,0,0,1-.2-1.35c0-.26,0-.52-.06-.79s0-.8-.05-1.2c0-.62,0-1.23,0-1.85,0-.27,0-.54,0-.81s0-.66.06-1A14.07,14.07,0,0,1,59,33a.77.77,0,0,1,.36-.45,2.34,2.34,0,0,1,.68-.26,7,7,0,0,1,.8-.13h.36a4.67,4.67,0,0,1,1,.1,2.7,2.7,0,0,1,.73.23,1,1,0,0,1,.4.35l.06.14c.07.34.12.68.17,1s.06.56.08.84a2.82,2.82,0,0,1,0,.41l0,.55C63.75,36.29,63.74,36.8,63.74,37.32Z"/><path class="cls-5" d="M62.66,39.75v1.16a.57.57,0,0,1-.23.45,1.39,1.39,0,0,1-.73.3,3,3,0,0,1-.67,0,1.81,1.81,0,0,1-.52-.06,1.37,1.37,0,0,1-.63-.33.57.57,0,0,1-.16-.41c0-.76,0-1.52,0-2.28a.62.62,0,0,1,.32-.55,1.6,1.6,0,0,1,.56-.22,4.57,4.57,0,0,1,.83,0,1.78,1.78,0,0,1,.65.12,1,1,0,0,1,.5.37.47.47,0,0,1,.08.26v1.2Zm-2.39-1s0,.05,0,.08v.6c0,.42,0,.84,0,1.26a.3.3,0,0,0,.11.23l.11.07a1.12,1.12,0,0,0,.47.11,3.22,3.22,0,0,0,.62,0,1.21,1.21,0,0,0,.42-.13.29.29,0,0,0,.16-.27c0-.39,0-.77,0-1.16,0,0,0,0,0-.08v-.65a.16.16,0,0,0,0-.1.41.41,0,0,0-.17-.15.92.92,0,0,0-.33-.11,2.69,2.69,0,0,0-.75,0,.94.94,0,0,0-.43.13A.26.26,0,0,0,60.27,38.72Z"/><path class="cls-5" d="M62.66,34.9v1.16a.57.57,0,0,1-.23.45,1.39,1.39,0,0,1-.73.3,3,3,0,0,1-.67,0,1.81,1.81,0,0,1-.52-.06,1.28,1.28,0,0,1-.63-.33.57.57,0,0,1-.16-.41c0-.76,0-1.52,0-2.28a.62.62,0,0,1,.32-.55A1.6,1.6,0,0,1,60.6,33a4.57,4.57,0,0,1,.83,0,1.78,1.78,0,0,1,.65.12,1,1,0,0,1,.5.37.5.5,0,0,1,.08.26v1.2Zm-2.39-1a.09.09,0,0,0,0,.08v.61c0,.41,0,.83,0,1.25a.28.28,0,0,0,.11.23l.11.07a1.12,1.12,0,0,0,.47.11,3.22,3.22,0,0,0,.62,0,1.21,1.21,0,0,0,.42-.13.29.29,0,0,0,.16-.27c0-.39,0-.77,0-1.15,0,0,0-.06,0-.08v-.66a.18.18,0,0,0,0-.1.41.41,0,0,0-.17-.15.92.92,0,0,0-.33-.11,2.69,2.69,0,0,0-.75,0,.94.94,0,0,0-.43.13A.26.26,0,0,0,60.27,33.87Z"/><polyline class="cls-6" points="42.7 29.81 44.94 32.56 52 25.21"/><path class="cls-6" d="M50.3,28.55a4.81,4.81,0,1,1-4.6-3.43,4.79,4.79,0,0,1,3.4,1.41"/></svg>