<svg id="Layer_1" data-name="Layer 1" xmlns="http://www.w3.org/2000/svg" viewBox="0 0 90 100"><defs><style>.cls-1,.cls-3{fill:#fff;stroke:#74af27;}.cls-1{stroke-miterlimit:10;}.cls-2{fill:#74af27;}.cls-3{stroke-linecap:round;stroke-linejoin:round;}</style></defs><title>EV-DealerPortal-InstallationBooked</title><circle class="cls-1" cx="45" cy="37.74" r="28.35"/><path class="cls-2" d="M23.11,70.68h.71V77h-.71Z"/><path class="cls-2" d="M25.28,72.33H26v.81a1.77,1.77,0,0,1,1.59-.91,1.71,1.71,0,0,1,1.79,1.87V77h-.7V74.27a1.24,1.24,0,0,0-1.28-1.41A1.37,1.37,0,0,0,26,74.32V77h-.69Z"/><path class="cls-2" d="M30.16,76.39l.35-.49a2.81,2.81,0,0,0,1.62.59c.55,0,1-.29,1-.74v0c0-.46-.55-.64-1.16-.81s-1.54-.46-1.54-1.32v0A1.4,1.4,0,0,1,32,72.25a3.24,3.24,0,0,1,1.68.51l-.32.53A2.59,2.59,0,0,0,32,72.84c-.55,0-.91.28-.91.67v0c0,.44.58.61,1.2.8s1.5.5,1.5,1.33v0a1.47,1.47,0,0,1-1.66,1.4A3.25,3.25,0,0,1,30.16,76.39Z"/><path class="cls-2" d="M34.92,75.75V72.94h-.65v-.61h.65v-1.4h.69v1.4h1.48v.61H35.61v2.72a.69.69,0,0,0,.78.78,1.46,1.46,0,0,0,.68-.17v.6a1.86,1.86,0,0,1-.84.2A1.18,1.18,0,0,1,34.92,75.75Z"/><path class="cls-2" d="M37.69,75.63h0c0-1,.81-1.51,2-1.51a5.24,5.24,0,0,1,1.43.2v-.16c0-.84-.51-1.27-1.39-1.27a3.33,3.33,0,0,0-1.41.34l-.21-.56a3.79,3.79,0,0,1,1.69-.39,2.06,2.06,0,0,1,1.51.51,1.87,1.87,0,0,1,.47,1.36V77h-.66v-.71a2,2,0,0,1-1.69.8A1.56,1.56,0,0,1,37.69,75.63Zm3.43-.35v-.45a4.8,4.8,0,0,0-1.37-.2c-.87,0-1.36.38-1.36,1v0c0,.58.54.93,1.17.93A1.41,1.41,0,0,0,41.12,75.28Z"/><path class="cls-2" d="M43,70.41h.7V77H43Z"/><path class="cls-2" d="M45.14,70.41h.69V77h-.69Z"/><path class="cls-2" d="M46.82,75.63h0c0-1,.81-1.51,2-1.51a5.12,5.12,0,0,1,1.43.2v-.16c0-.84-.51-1.27-1.38-1.27a3.41,3.41,0,0,0-1.42.34l-.2-.56a3.73,3.73,0,0,1,1.69-.39,2,2,0,0,1,1.5.51,1.83,1.83,0,0,1,.48,1.36V77h-.67v-.71a2,2,0,0,1-1.68.8A1.57,1.57,0,0,1,46.82,75.63Zm3.43-.35v-.45a4.8,4.8,0,0,0-1.37-.2c-.87,0-1.36.38-1.36,1v0c0,.58.54.93,1.17.93A1.41,1.41,0,0,0,50.25,75.28Z"/><path class="cls-2" d="M52.31,75.75V72.94h-.65v-.61h.65v-1.4H53v1.4h1.48v.61H53v2.72a.7.7,0,0,0,.79.78,1.42,1.42,0,0,0,.67-.17v.6a1.79,1.79,0,0,1-.83.2A1.19,1.19,0,0,1,52.31,75.75Z"/><path class="cls-2" d="M55.45,70.55h.79v.76h-.79Zm0,1.78h.69V77H55.5Z"/><path class="cls-2" d="M57.24,74.68v0a2.43,2.43,0,0,1,4.86,0v0a2.42,2.42,0,0,1-2.44,2.43A2.38,2.38,0,0,1,57.24,74.68Zm4.14,0v0a1.76,1.76,0,0,0-1.72-1.82A1.72,1.72,0,0,0,58,74.64v0a1.75,1.75,0,0,0,1.72,1.81A1.72,1.72,0,0,0,61.38,74.68Z"/><path class="cls-2" d="M63.08,72.33h.69v.81a1.76,1.76,0,0,1,1.59-.91,1.7,1.7,0,0,1,1.78,1.87V77h-.69V74.27a1.24,1.24,0,0,0-1.29-1.41,1.37,1.37,0,0,0-1.39,1.46V77h-.69Z"/><path class="cls-2" d="M29.4,81.68h2.69a2.3,2.3,0,0,1,1.64.56,1.42,1.42,0,0,1,.41,1v0a1.53,1.53,0,0,1-1,1.46c.75.22,1.35.65,1.35,1.52v0c0,1.08-.91,1.72-2.29,1.72H29.4Zm4,1.67c0-.62-.5-1-1.4-1H30.11v2.17H32c.85,0,1.45-.38,1.45-1.12ZM32.1,85.12h-2v2.23h2.11c1,0,1.55-.43,1.55-1.13v0C33.77,85.52,33.19,85.12,32.1,85.12Z"/><path class="cls-2" d="M35.23,85.68v0a2.43,2.43,0,0,1,4.85,0v0a2.42,2.42,0,0,1-2.44,2.43A2.37,2.37,0,0,1,35.23,85.68Zm4.14,0v0a1.76,1.76,0,0,0-1.73-1.82,1.72,1.72,0,0,0-1.7,1.8v0a1.75,1.75,0,0,0,1.72,1.81A1.72,1.72,0,0,0,39.37,85.68Z"/><path class="cls-2" d="M40.77,85.68v0a2.41,2.41,0,0,1,2.43-2.43,2.39,2.39,0,0,1,2.42,2.41v0a2.41,2.41,0,0,1-2.44,2.43A2.38,2.38,0,0,1,40.77,85.68Zm4.14,0v0a1.76,1.76,0,0,0-1.73-1.82,1.72,1.72,0,0,0-1.7,1.8v0a1.75,1.75,0,0,0,1.72,1.81A1.72,1.72,0,0,0,44.91,85.68Z"/><path class="cls-2" d="M46.6,81.41h.69V86l2.52-2.62h.86l-2,2,2,2.66h-.82l-1.67-2.17-1,1V88H46.6Z"/><path class="cls-2" d="M50.94,85.67v0a2.3,2.3,0,0,1,2.23-2.42,2.22,2.22,0,0,1,2.17,2.46,1.77,1.77,0,0,1,0,.23H51.64a1.63,1.63,0,0,0,1.64,1.57,1.92,1.92,0,0,0,1.47-.66l.43.39a2.42,2.42,0,0,1-1.92.87A2.31,2.31,0,0,1,50.94,85.67Zm3.7-.27a1.53,1.53,0,0,0-1.49-1.58,1.6,1.6,0,0,0-1.51,1.58Z"/><path class="cls-2" d="M56,85.67v0a2.28,2.28,0,0,1,2.22-2.42,2.11,2.11,0,0,1,1.78,1V81.41h.7V88H60v-.94a2.08,2.08,0,0,1-1.78,1A2.26,2.26,0,0,1,56,85.67Zm4,0v0a1.73,1.73,0,0,0-1.68-1.79,1.65,1.65,0,0,0-1.64,1.79v0a1.68,1.68,0,0,0,1.64,1.8A1.74,1.74,0,0,0,60.05,85.66Z"/><path class="cls-3" d="M56.23,51a1.29,1.29,0,0,1-.46-1.65l1.4-2.29a1.07,1.07,0,0,1,1.57-.18l4.07,2.92a8.3,8.3,0,0,0-2.43-6.3A10.47,10.47,0,0,0,59,42.37h0a4.2,4.2,0,0,0-.89-.55,3.52,3.52,0,0,0-1-.28h0a4.49,4.49,0,0,0-.62,0c-.59,0-1.43-.1-1.94-.18a9.68,9.68,0,0,1-2-.7l-5.18-5.42h0l-5.1-5.36a5.52,5.52,0,0,1-1.22-2.67C41,25.79,41,24.71,41,24.71h0a3.53,3.53,0,0,0-.56-2,4.23,4.23,0,0,0-.89-1h0c-2.55-2.52-6.1-3.22-8.54-1.8l4.07,2.92a1.3,1.3,0,0,1,.46,1.65l-1.4,2.29a1.08,1.08,0,0,1-1.58.18L28.52,24a8.27,8.27,0,0,0,2.42,6.3,9.84,9.84,0,0,0,1.35,1.17h0a4,4,0,0,0,.9.55,3.58,3.58,0,0,0,1,.29h0a4.64,4.64,0,0,0,.63,0,19.11,19.11,0,0,1,1.94.18,9.5,9.5,0,0,1,2,.7l5.18,5.44h0L49,44.06a5.65,5.65,0,0,1,1.23,2.67c.1,1.36.08,2.44.08,2.44h0a3.62,3.62,0,0,0,.57,2,4.25,4.25,0,0,0,.89,1h0c2.56,2.52,6.11,3.21,8.54,1.79Z"/><path class="cls-2" d="M56.24,19.52l-.32.29-2.63,2.45a2.43,2.43,0,0,0-.78,2.43L40.71,38.52l1.63,1.39L54.15,26.06a2.54,2.54,0,0,0,2.3-1.12l1.92-3.05.23-.36Z"/><path class="cls-3" d="M40.93,38.26l-1.07-.91a.64.64,0,0,0-.91.13l-.12.15s0,0,0,.06a0,0,0,0,1,0,0l0,0v0l0,0,0,0h0l0,.09h0s0,0,0,0h0v0l0,0-.15-.12A.35.35,0,0,0,38,38L28.11,49.56c-1.17,1.38-1.28,3.34-.17,4.28l1.28,1.1c1.11.93,3,.51,4.19-.86l9.85-11.57a.35.35,0,0,0,0-.51L43,41.82h0l0,0,0,0,0,0h0l.05,0,0,0,0,0,0,0,0,0,0,0s0,0,0,0l0-.06.12-.14a.63.63,0,0,0,.07-.85L42.94,40l-.38-.33h0l-1.62-1.4Z"/><path class="cls-2" d="M29.54,52.38a.76.76,0,1,1-1.13-1l9.86-11.57a.84.84,0,0,1,1.15-.21.85.85,0,0,1,0,1.17Z"/><path class="cls-2" d="M32.07,53.65a.74.74,0,0,1-1,.21.75.75,0,0,1,0-1l9-10.54a.67.67,0,1,1,1,.84Z"/></svg>