<svg id="Layer_1" data-name="Layer 1" xmlns="http://www.w3.org/2000/svg" xmlns:xlink="http://www.w3.org/1999/xlink" viewBox="0 0 90 100"><defs><style>.cls-1,.cls-5,.cls-8,.cls-9{fill:none;}.cls-2,.cls-6,.cls-7{fill:#fff;}.cls-2,.cls-5,.cls-6,.cls-8,.cls-9{stroke:#74af27;}.cls-2,.cls-8{stroke-miterlimit:10;}.cls-3{fill:#74af27;}.cls-4{clip-path:url(#clip-path);}.cls-5,.cls-6{stroke-linecap:round;stroke-width:0.6px;}.cls-5,.cls-6,.cls-9{stroke-linejoin:round;}.cls-8,.cls-9{stroke-width:0.56px;}.cls-10{fill:#e3221f;}</style><clipPath id="clip-path"><circle class="cls-1" cx="45.47" cy="37.74" r="28.35"/></clipPath></defs><title>EV-Installation-MaintenanceResponseService</title><circle class="cls-2" cx="45.47" cy="37.74" r="28.35"/><path class="cls-3" d="M19.51,70.68h.72l2.3,3.44,2.29-3.44h.72V77h-.71V71.88l-2.29,3.38h0l-2.29-3.37V77h-.7Z"/><path class="cls-3" d="M26.59,75.63h0c0-1,.81-1.51,2-1.51a5.24,5.24,0,0,1,1.43.2v-.16c0-.84-.52-1.27-1.39-1.27a3.33,3.33,0,0,0-1.41.34L27,72.66a3.76,3.76,0,0,1,1.69-.39,2.07,2.07,0,0,1,1.51.51,1.87,1.87,0,0,1,.47,1.36V77H30v-.71a2,2,0,0,1-1.69.8A1.56,1.56,0,0,1,26.59,75.63ZM30,75.28v-.45a4.91,4.91,0,0,0-1.37-.2c-.88,0-1.36.38-1.36,1v0c0,.58.54.93,1.17.93A1.42,1.42,0,0,0,30,75.28Z"/><path class="cls-3" d="M31.9,70.55h.79v.76H31.9Zm0,1.78h.69V77h-.69Z"/><path class="cls-3" d="M34,72.33h.69v.81a1.76,1.76,0,0,1,1.59-.91A1.7,1.7,0,0,1,38,74.1V77h-.69V74.27a1.24,1.24,0,0,0-1.29-1.41,1.37,1.37,0,0,0-1.39,1.46V77H34Z"/><path class="cls-3" d="M39.49,75.75V72.94h-.65v-.61h.65v-1.4h.7v1.4h1.47v.61H40.19v2.72a.69.69,0,0,0,.78.78,1.42,1.42,0,0,0,.67-.17v.6a1.79,1.79,0,0,1-.83.2A1.19,1.19,0,0,1,39.49,75.75Z"/><path class="cls-3" d="M42.19,74.67v0a2.3,2.3,0,0,1,2.23-2.42,2.22,2.22,0,0,1,2.17,2.46,1.77,1.77,0,0,1,0,.23H42.89a1.63,1.63,0,0,0,1.64,1.57A1.92,1.92,0,0,0,46,75.83l.43.39a2.4,2.4,0,0,1-1.92.87A2.32,2.32,0,0,1,42.19,74.67Zm3.7-.27a1.53,1.53,0,0,0-1.48-1.58,1.61,1.61,0,0,0-1.52,1.58Z"/><path class="cls-3" d="M47.54,72.33h.69v.81a1.77,1.77,0,0,1,1.59-.91,1.71,1.71,0,0,1,1.79,1.87V77h-.7V74.27a1.24,1.24,0,0,0-1.28-1.41,1.38,1.38,0,0,0-1.4,1.46V77h-.69Z"/><path class="cls-3" d="M52.46,75.63h0c0-1,.81-1.51,2-1.51a5.18,5.18,0,0,1,1.43.2v-.16c0-.84-.51-1.27-1.38-1.27a3.38,3.38,0,0,0-1.42.34l-.2-.56a3.73,3.73,0,0,1,1.69-.39,2,2,0,0,1,1.5.51,1.83,1.83,0,0,1,.48,1.36V77h-.67v-.71a2,2,0,0,1-1.68.8A1.56,1.56,0,0,1,52.46,75.63Zm3.43-.35v-.45a4.8,4.8,0,0,0-1.37-.2c-.87,0-1.36.38-1.36,1v0c0,.58.54.93,1.17.93A1.41,1.41,0,0,0,55.89,75.28Z"/><path class="cls-3" d="M57.75,72.33h.7v.81A1.76,1.76,0,0,1,60,72.23a1.7,1.7,0,0,1,1.78,1.87V77h-.69V74.27a1.24,1.24,0,0,0-1.29-1.41,1.37,1.37,0,0,0-1.39,1.46V77h-.7Z"/><path class="cls-3" d="M62.74,74.68v0A2.42,2.42,0,0,1,67,73.06l-.46.49a1.87,1.87,0,0,0-1.41-.71,1.72,1.72,0,0,0-1.67,1.8v0a1.74,1.74,0,0,0,1.71,1.81,1.91,1.91,0,0,0,1.42-.69l.44.41a2.35,2.35,0,0,1-1.9.9A2.38,2.38,0,0,1,62.74,74.68Z"/><path class="cls-3" d="M67.47,74.67v0a2.3,2.3,0,0,1,2.24-2.42,2.22,2.22,0,0,1,2.17,2.46,1.77,1.77,0,0,1,0,.23h-3.7a1.63,1.63,0,0,0,1.64,1.57,1.92,1.92,0,0,0,1.47-.66l.43.39a2.4,2.4,0,0,1-1.92.87A2.32,2.32,0,0,1,67.47,74.67Zm3.7-.27a1.53,1.53,0,0,0-1.48-1.58,1.61,1.61,0,0,0-1.52,1.58Z"/><path class="cls-3" d="M9,81.68H11.7a2.49,2.49,0,0,1,1.79.63A1.74,1.74,0,0,1,14,83.56h0a1.84,1.84,0,0,1-1.71,1.84L14.2,88h-.87L11.5,85.54H9.7V88H9Zm2.65,3.22c.94,0,1.62-.49,1.62-1.3v0c0-.77-.6-1.24-1.61-1.24h-2V84.9Z"/><path class="cls-3" d="M14.73,85.67v0A2.3,2.3,0,0,1,17,83.23a2.22,2.22,0,0,1,2.17,2.46,1.77,1.77,0,0,1,0,.23H15.44a1.62,1.62,0,0,0,1.63,1.57,1.92,1.92,0,0,0,1.47-.66l.43.39a2.38,2.38,0,0,1-1.91.87A2.32,2.32,0,0,1,14.73,85.67Zm3.7-.27A1.53,1.53,0,0,0,17,83.82a1.6,1.6,0,0,0-1.51,1.58Z"/><path class="cls-3" d="M19.69,87.39,20,86.9a2.8,2.8,0,0,0,1.61.59c.56,0,1-.29,1-.74v0c0-.46-.55-.64-1.16-.81s-1.54-.46-1.54-1.32v0a1.4,1.4,0,0,1,1.58-1.33,3.24,3.24,0,0,1,1.68.51l-.32.53a2.63,2.63,0,0,0-1.38-.45c-.55,0-.9.28-.9.67v0c0,.44.58.61,1.2.8s1.5.5,1.5,1.33v0a1.47,1.47,0,0,1-1.66,1.4A3.22,3.22,0,0,1,19.69,87.39Z"/><path class="cls-3" d="M24.29,83.33H25v.94a2.1,2.1,0,0,1,1.79-1A2.28,2.28,0,0,1,29,85.64v0a2.28,2.28,0,0,1-2.22,2.42,2.09,2.09,0,0,1-1.79-1v2.34h-.69Zm4,2.34v0a1.68,1.68,0,0,0-1.64-1.8A1.74,1.74,0,0,0,25,85.64v0a1.73,1.73,0,0,0,1.68,1.8A1.64,1.64,0,0,0,28.28,85.67Z"/><path class="cls-3" d="M29.71,85.68v0a2.41,2.41,0,0,1,2.43-2.43,2.39,2.39,0,0,1,2.42,2.41v0a2.41,2.41,0,0,1-2.44,2.43A2.38,2.38,0,0,1,29.71,85.68Zm4.14,0v0a1.76,1.76,0,0,0-1.73-1.82,1.72,1.72,0,0,0-1.7,1.8v0a1.75,1.75,0,0,0,1.72,1.81A1.72,1.72,0,0,0,33.85,85.68Z"/><path class="cls-3" d="M35.54,83.33h.69v.81a1.79,1.79,0,0,1,1.6-.91,1.7,1.7,0,0,1,1.78,1.87V88h-.69V85.27a1.24,1.24,0,0,0-1.29-1.41,1.38,1.38,0,0,0-1.4,1.46V88h-.69Z"/><path class="cls-3" d="M40.43,87.39l.35-.49a2.75,2.75,0,0,0,1.61.59c.56,0,1-.29,1-.74v0c0-.46-.55-.64-1.16-.81s-1.54-.46-1.54-1.32v0a1.41,1.41,0,0,1,1.59-1.33,3.21,3.21,0,0,1,1.67.51l-.31.53a2.63,2.63,0,0,0-1.38-.45c-.55,0-.9.28-.9.67v0c0,.44.58.61,1.2.8s1.49.5,1.49,1.33v0a1.47,1.47,0,0,1-1.66,1.4A3.22,3.22,0,0,1,40.43,87.39Z"/><path class="cls-3" d="M44.74,85.67v0A2.29,2.29,0,0,1,47,83.23a2.22,2.22,0,0,1,2.17,2.46,1.77,1.77,0,0,1,0,.23H45.44a1.63,1.63,0,0,0,1.64,1.57,1.92,1.92,0,0,0,1.47-.66l.43.39a2.42,2.42,0,0,1-1.92.87A2.31,2.31,0,0,1,44.74,85.67Zm3.7-.27A1.53,1.53,0,0,0,47,83.82a1.6,1.6,0,0,0-1.51,1.58Z"/><path class="cls-3" d="M52.22,87.07l.44-.53a3,3,0,0,0,2.16.9c.85,0,1.4-.45,1.4-1.07v0c0-.59-.31-.92-1.63-1.2s-2.12-.78-2.12-1.82v0a1.86,1.86,0,0,1,2.07-1.72,3.32,3.32,0,0,1,2.22.78l-.42.55a2.75,2.75,0,0,0-1.82-.69c-.82,0-1.34.45-1.34,1v0c0,.59.33.93,1.71,1.22s2,.82,2,1.79h0c0,1.08-.9,1.79-2.15,1.79A3.69,3.69,0,0,1,52.22,87.07Z"/><path class="cls-3" d="M57.72,85.67v0A2.29,2.29,0,0,1,60,83.23a2.22,2.22,0,0,1,2.17,2.46,1.77,1.77,0,0,1,0,.23H58.42a1.63,1.63,0,0,0,1.64,1.57,1.89,1.89,0,0,0,1.46-.66l.44.39a2.42,2.42,0,0,1-1.92.87A2.31,2.31,0,0,1,57.72,85.67Zm3.7-.27a1.54,1.54,0,0,0-1.49-1.58,1.6,1.6,0,0,0-1.51,1.58Z"/><path class="cls-3" d="M63.06,83.33h.7v1.22a2,2,0,0,1,1.9-1.3V84H65.6a1.87,1.87,0,0,0-1.84,2.13V88h-.7Z"/><path class="cls-3" d="M66,83.33h.76l1.57,3.86,1.58-3.86h.74l-2,4.69H68Z"/><path class="cls-3" d="M71.47,81.55h.79v.76h-.79Zm0,1.78h.7V88h-.7Z"/><path class="cls-3" d="M73.26,85.68v0a2.42,2.42,0,0,1,4.25-1.6l-.46.49a1.87,1.87,0,0,0-1.41-.71A1.72,1.72,0,0,0,74,85.64v0a1.74,1.74,0,0,0,1.71,1.81,1.89,1.89,0,0,0,1.42-.69l.44.41a2.35,2.35,0,0,1-1.89.9A2.39,2.39,0,0,1,73.26,85.68Z"/><path class="cls-3" d="M78,85.67v0a2.3,2.3,0,0,1,2.24-2.42,2.22,2.22,0,0,1,2.17,2.46,1.77,1.77,0,0,1,0,.23H78.7a1.62,1.62,0,0,0,1.63,1.57,1.92,1.92,0,0,0,1.47-.66l.43.39a2.38,2.38,0,0,1-1.91.87A2.32,2.32,0,0,1,78,85.67Zm3.7-.27a1.53,1.53,0,0,0-1.48-1.58A1.6,1.6,0,0,0,78.7,85.4Z"/><g class="cls-4"><path class="cls-5" d="M46.94,44.11s.31-4.72-3.61-6.37l-3.8-2a6.36,6.36,0,0,1-8,0l-4,2A6.54,6.54,0,0,0,24,44.11"/><polyline class="cls-5" points="34.75 38.97 31.63 39.91 30.17 36.41"/><polyline class="cls-5" points="36.1 38.84 39.29 39.91 40.83 36.41"/><path class="cls-5" d="M30.17,27.76c-.2-1.71-.23-4.71,4.09-5.52a7.49,7.49,0,0,1,3.13,0,4.75,4.75,0,0,1,3.44,5.52c-.09.77-.29,2.3-.44,3.06-.31,1.61-1.06,4.49-4.94,4.35-1.57-.06-4-.13-4.68-4.17C30.63,30.19,30.26,28.58,30.17,27.76Z"/><path class="cls-5" d="M30.22,26.94c6,.6,8.24-1.63,8.24-1.63a2.12,2.12,0,0,0,2.37,2.45"/><path class="cls-6" d="M62.35,50.63a.81.81,0,0,1-.29-1.05l.88-1.44a.68.68,0,0,1,1-.12l2.57,1.84a5.29,5.29,0,0,0-1.54-4,6.53,6.53,0,0,0-.85-.74h0a2.65,2.65,0,0,0-.57-.35,2.35,2.35,0,0,0-.61-.18h0a2.82,2.82,0,0,0-.4,0c-.37,0-.9-.06-1.23-.12A5.87,5.87,0,0,1,60.05,44L56.78,40.6h0l-3.23-3.39a3.47,3.47,0,0,1-.77-1.69c-.07-.86-.06-1.54-.06-1.54h0a2.27,2.27,0,0,0-.35-1.26,2.61,2.61,0,0,0-.56-.64h0a4.64,4.64,0,0,0-5.4-1.14L49,32.79a.82.82,0,0,1,.29,1l-.89,1.45a.67.67,0,0,1-1,.12l-2.57-1.85a5.24,5.24,0,0,0,1.53,4,5.85,5.85,0,0,0,.85.74h0a2.43,2.43,0,0,0,.57.35,2.35,2.35,0,0,0,.61.18h0a2.82,2.82,0,0,0,.4,0A11.65,11.65,0,0,1,50,39a5.7,5.7,0,0,1,1.24.44l3.28,3.44h0l3.23,3.38a3.54,3.54,0,0,1,.78,1.69c.06.86.05,1.54.05,1.54h0A2.29,2.29,0,0,0,59,50.7a2.61,2.61,0,0,0,.56.64h0c1.62,1.59,3.86,2,5.4,1.13Z"/><path class="cls-3" d="M62.35,30.7l-.2.18-1.66,1.55A1.51,1.51,0,0,0,60,34l-7.46,8.75,1,.88L61,34.83a1.6,1.6,0,0,0,1.46-.71L63.7,32.2l.15-.23Z"/><path class="cls-6" d="M52.67,42.55,52,42a.42.42,0,0,0-.58.08l-.07.09,0,0v0l0,0v0h0s0,0,0,0h0v0h0v0h0l0,0-.09-.08a.23.23,0,0,0-.32,0l-6.23,7.31a2,2,0,0,0-.11,2.7l.81.7a2,2,0,0,0,2.65-.55l6.23-7.31a.22.22,0,0,0,0-.32L54,44.8h0l0,0h0l0,0h0l0,0,0,0h0l0,0v0s0,0,0,0l.08-.09a.39.39,0,0,0,0-.54l-.4-.34-.25-.21h0l-1-.88Z"/><path class="cls-3" d="M45.47,51.47a.47.47,0,1,1-.71-.6L51,43.55a.48.48,0,1,1,.71.61Z"/><path class="cls-3" d="M47.08,52.28a.43.43,0,1,1-.63-.54l5.68-6.66a.42.42,0,1,1,.62.53Z"/></g><g id="layer1"><path id="path4732" class="cls-7" d="M56.92,9.75H75.29a1.54,1.54,0,0,1,1.46,1.61L66.09,19.11,55.47,11.36a1.54,1.54,0,0,1,1.45-1.61Z"/><path id="path4734" class="cls-7" d="M66.1,2.83a.77.77,0,0,0-.42.19c-2.89,1.87-7.87,5.66-9.6,7a1.31,1.31,0,0,0-.35.41,1.77,1.77,0,0,0-.26.92H76.75a1.68,1.68,0,0,0-.33-1,1.58,1.58,0,0,0-.31-.33c-1.77-1.33-6.73-5.08-9.6-7a.81.81,0,0,0-.41-.19Z"/><path id="path4736" class="cls-7" d="M76.74,11.34v12a1.47,1.47,0,0,1-1.46,1.48H56.92l9.2-5.72Z"/><path id="path4738" class="cls-7" d="M55.45,11.3v12a1.47,1.47,0,0,0,1.46,1.48H75.28l-9.2-5.72Z"/><path class="cls-8" d="M76.75,11.33a1.68,1.68,0,0,0-.33-1,1.58,1.58,0,0,0-.31-.33c-1.77-1.33-6.73-5.08-9.6-7a.81.81,0,0,0-.41-.19.77.77,0,0,0-.42.19c-2.89,1.87-7.87,5.66-9.6,7a1.31,1.31,0,0,0-.35.41,1.7,1.7,0,0,0-.26.91H76.75Z"/><path class="cls-9" d="M56.92,24.78l18.37,0a1.46,1.46,0,0,0,1.45-1.48v-12L66.13,19.09l9.15,5.69"/><path class="cls-8" d="M66.13,19.09l0,0-.34-.25L55.49,11.33h0l0,0v12a1.47,1.47,0,0,0,1.46,1.48"/><circle id="path4740" class="cls-10" cx="75.96" cy="10.9" r="3.81"/><path id="path4765" class="cls-7" d="M75.93,8.14a.82.82,0,0,0-.65.41,2,2,0,0,0-.17,1.11,5.16,5.16,0,0,0,.33,1.83c.14.32.26.61.52.61s.39-.35.47-.6a6.56,6.56,0,0,0,.38-1.84,1.89,1.89,0,0,0-.22-1.18.85.85,0,0,0-.66-.34Zm0,4.45a.53.53,0,0,0-.54.53h0a.54.54,0,0,0,.54.53h0a.53.53,0,0,0,.53-.53h0a.53.53,0,0,0-.53-.53Z"/></g></svg>