<svg id="Layer_1" data-name="Layer 1" xmlns="http://www.w3.org/2000/svg" viewBox="0 0 90 100"><defs><style>.cls-1,.cls-3{fill:#fff;}.cls-1,.cls-2,.cls-3{stroke:#74af27;}.cls-1{stroke-miterlimit:10;}.cls-2{fill:none;}.cls-2,.cls-3{stroke-linecap:round;stroke-linejoin:round;stroke-width:0.6px;}.cls-4{fill:#74af27;}</style></defs><title>EV-Installation-EasyToInstall</title><circle class="cls-1" cx="45" cy="37.74" r="28.35"/><path class="cls-2" d="M46.15,43.14s.3-4.72-3.62-6.37l-3.79-2a6.36,6.36,0,0,1-8,0l-4,2a6.55,6.55,0,0,0-3.61,6.44"/><polyline class="cls-2" points="33.96 37.99 30.84 38.94 29.37 35.43"/><polyline class="cls-2" points="35.31 37.87 38.49 38.94 40.03 35.43"/><path class="cls-2" d="M29.37,26.78c-.19-1.7-.23-4.71,4.1-5.51a7.28,7.28,0,0,1,3.12,0A4.73,4.73,0,0,1,40,26.78c-.08.77-.29,2.31-.44,3.06-.31,1.62-1.05,4.49-4.94,4.35-1.56,0-4-.12-4.67-4.16C29.84,29.22,29.47,27.6,29.37,26.78Z"/><path class="cls-2" d="M29.42,26c6,.59,8.25-1.64,8.25-1.64A2.12,2.12,0,0,0,40,26.78"/><path class="cls-3" d="M61.56,49.65a.82.82,0,0,1-.3-1l.88-1.45a.68.68,0,0,1,1-.11l2.57,1.84a5.2,5.2,0,0,0-1.54-4,5.37,5.37,0,0,0-.85-.74h0a2.43,2.43,0,0,0-.57-.35,2.32,2.32,0,0,0-.61-.17h0a2.69,2.69,0,0,0-.4,0c-.36,0-.9-.06-1.22-.11a5.87,5.87,0,0,1-1.25-.44L56,39.63h0l-3.22-3.38A3.6,3.6,0,0,1,52,34.55c-.06-.86-.05-1.54-.05-1.54h0a2.26,2.26,0,0,0-.36-1.26,2.61,2.61,0,0,0-.56-.64h0A4.61,4.61,0,0,0,45.62,30l2.57,1.85a.8.8,0,0,1,.29,1l-.88,1.45a.68.68,0,0,1-1,.11L44,32.57a5.26,5.26,0,0,0,1.54,4,5.93,5.93,0,0,0,.85.74h0a2.33,2.33,0,0,0,.56.34,2,2,0,0,0,.62.18h0c.14,0,.26,0,.4,0,.36,0,.9.06,1.22.11a6.28,6.28,0,0,1,1.25.45l3.27,3.43h0L57,45.24a3.54,3.54,0,0,1,.78,1.69c.07.86.06,1.54.06,1.54h0a2.21,2.21,0,0,0,.36,1.26,2.37,2.37,0,0,0,.56.63h0a4.63,4.63,0,0,0,5.4,1.14Z"/><path class="cls-4" d="M61.56,29.72l-.2.18-1.67,1.55A1.57,1.57,0,0,0,59.2,33l-7.46,8.75,1,.88,7.47-8.76a1.61,1.61,0,0,0,1.45-.71l1.22-1.93.14-.23Z"/><path class="cls-3" d="M51.88,41.57,51.21,41a.4.4,0,0,0-.58.08l-.08.09s0,0,0,0h0v0h0v0h0a.14.14,0,0,0,0,.06h0v0h0v0l-.09-.08a.23.23,0,0,0-.33,0l-6.23,7.32a2,2,0,0,0-.1,2.7l.81.69a2,2,0,0,0,2.64-.54l6.23-7.31a.21.21,0,0,0,0-.32l-.13-.12h0l0,0h0l0,0h0l0,0h0l0,0h0l0,0,.07-.09a.39.39,0,0,0,0-.54l-.4-.34-.24-.21h0l-1-.88Z"/><path class="cls-4" d="M44.68,50.5a.54.54,0,0,1-.73.13.53.53,0,0,1,0-.74l6.23-7.31a.47.47,0,1,1,.71.6Z"/><path class="cls-4" d="M46.28,51.3a.47.47,0,0,1-.65.13.46.46,0,0,1,0-.66l5.67-6.67A.47.47,0,0,1,52,44a.48.48,0,0,1,0,.67Z"/><path class="cls-4" d="M29.65,70.68H34.2v.65H30.36v2.15H33.8v.65H30.36v2.21h3.89V77h-4.6Z"/><path class="cls-4" d="M34.94,75.64v0c0-1,.81-1.51,2-1.51a5.18,5.18,0,0,1,1.43.2v-.16c0-.84-.51-1.27-1.39-1.27a3.33,3.33,0,0,0-1.41.34l-.21-.56A3.79,3.79,0,0,1,37,72.27a2.06,2.06,0,0,1,1.51.51A1.88,1.88,0,0,1,39,74.14V77h-.67v-.71a2,2,0,0,1-1.68.8A1.56,1.56,0,0,1,34.94,75.64Zm3.43-.36v-.45a4.8,4.8,0,0,0-1.37-.2c-.87,0-1.36.38-1.36,1v0c0,.58.54.93,1.17.93A1.41,1.41,0,0,0,38.37,75.28Z"/><path class="cls-4" d="M39.84,76.39l.35-.49a2.81,2.81,0,0,0,1.62.59c.55,0,1-.29,1-.74v0c0-.46-.55-.64-1.16-.81s-1.54-.46-1.54-1.32v0a1.4,1.4,0,0,1,1.58-1.33,3.24,3.24,0,0,1,1.68.51l-.32.53a2.63,2.63,0,0,0-1.38-.45c-.54,0-.9.28-.9.67v0c0,.44.58.61,1.2.8s1.5.5,1.5,1.33v0a1.47,1.47,0,0,1-1.66,1.4A3.18,3.18,0,0,1,39.84,76.39Z"/><path class="cls-4" d="M47.79,72.33h.74l-2,4.81c-.4,1-.85,1.31-1.55,1.31a2.13,2.13,0,0,1-1-.23l.23-.55a1.43,1.43,0,0,0,.73.17c.41,0,.68-.21,1-.87l-2.12-4.64h.76l1.7,3.88Z"/><path class="cls-4" d="M53.57,71.34H51.45v-.66H56.4v.66H54.29V77h-.72Z"/><path class="cls-4" d="M55.92,74.68v0a2.43,2.43,0,0,1,4.85,0h0a2.42,2.42,0,0,1-2.44,2.43A2.37,2.37,0,0,1,55.92,74.68Zm4.14,0v0a1.76,1.76,0,0,0-1.73-1.82,1.72,1.72,0,0,0-1.7,1.81h0a1.75,1.75,0,0,0,1.72,1.81A1.72,1.72,0,0,0,60.06,74.68Z"/><path class="cls-4" d="M33.7,81.68h.71V88H33.7Z"/><path class="cls-4" d="M35.87,83.33h.69v.81a1.76,1.76,0,0,1,1.59-.91,1.7,1.7,0,0,1,1.78,1.87V88h-.69V85.27A1.24,1.24,0,0,0,38,83.86a1.37,1.37,0,0,0-1.39,1.46V88h-.69Z"/><path class="cls-4" d="M40.75,87.39l.35-.49a2.8,2.8,0,0,0,1.61.59c.56,0,1-.29,1-.74v0c0-.46-.55-.64-1.16-.81S41,85.46,41,84.6v0a1.4,1.4,0,0,1,1.58-1.33,3.24,3.24,0,0,1,1.68.51l-.32.53a2.63,2.63,0,0,0-1.38-.45c-.55,0-.9.28-.9.67v0c0,.44.58.61,1.2.8s1.49.5,1.49,1.33v0a1.46,1.46,0,0,1-1.65,1.4A3.16,3.16,0,0,1,40.75,87.39Z"/><path class="cls-4" d="M45.5,86.75V83.94h-.64v-.61h.64v-1.4h.7v1.4h1.47v.61H46.2v2.72a.69.69,0,0,0,.78.78,1.48,1.48,0,0,0,.68-.17v.6a1.74,1.74,0,0,1-.84.2A1.19,1.19,0,0,1,45.5,86.75Z"/><path class="cls-4" d="M48.28,86.64v0c0-1,.81-1.51,2-1.51a5.24,5.24,0,0,1,1.43.2v-.16c0-.84-.52-1.27-1.39-1.27a3.33,3.33,0,0,0-1.41.34l-.21-.56a3.76,3.76,0,0,1,1.69-.39,2.07,2.07,0,0,1,1.51.51,1.87,1.87,0,0,1,.47,1.36V88H51.7v-.71a2,2,0,0,1-1.69.8A1.56,1.56,0,0,1,48.28,86.64Zm3.43-.36v-.45a4.91,4.91,0,0,0-1.37-.2c-.88,0-1.36.38-1.36,1v0c0,.58.54.93,1.17.93A1.42,1.42,0,0,0,51.71,86.28Z"/><path class="cls-4" d="M53.63,81.41h.69V88h-.69Z"/><path class="cls-4" d="M55.73,81.41h.69V88h-.69Z"/></svg>