<svg id="Layer_1" data-name="Layer 1" xmlns="http://www.w3.org/2000/svg" viewBox="0 0 90 100"><defs><style>.cls-1,.cls-4{fill:#fff;}.cls-1,.cls-3{stroke:#74af27;}.cls-1{stroke-miterlimit:10;}.cls-2{fill:#74af27;}.cls-3{fill:none;stroke-linecap:round;stroke-linejoin:round;}</style></defs><title>EV-Installation-SiteSurvey</title><circle class="cls-1" cx="45" cy="37.74" r="28.35"/><path class="cls-2" d="M21.81,76.07l.44-.53a3,3,0,0,0,2.16.9c.85,0,1.4-.45,1.4-1.07v0c0-.59-.31-.92-1.64-1.2s-2.11-.78-2.11-1.82v0a1.86,1.86,0,0,1,2.07-1.72,3.28,3.28,0,0,1,2.21.78l-.41.55a2.75,2.75,0,0,0-1.82-.69c-.82,0-1.34.45-1.34,1v0c0,.59.32.93,1.71,1.22s2.05.82,2.05,1.79h0c0,1.08-.9,1.79-2.15,1.79A3.69,3.69,0,0,1,21.81,76.07Z"/><path class="cls-2" d="M27.61,70.55h.79v.76h-.79Zm.05,1.78h.69V77h-.69Z"/><path class="cls-2" d="M29.93,75.75V72.94h-.64v-.61h.64v-1.4h.7v1.4H32.1v.61H30.63v2.72a.69.69,0,0,0,.78.78,1.48,1.48,0,0,0,.68-.17v.6a1.86,1.86,0,0,1-.84.2A1.19,1.19,0,0,1,29.93,75.75Z"/><path class="cls-2" d="M32.63,74.67v0a2.3,2.3,0,0,1,2.24-2.42A2.22,2.22,0,0,1,37,74.69a1.77,1.77,0,0,1,0,.23H33.34A1.63,1.63,0,0,0,35,76.49a1.92,1.92,0,0,0,1.47-.66l.43.39a2.38,2.38,0,0,1-1.91.87A2.32,2.32,0,0,1,32.63,74.67Zm3.7-.27a1.53,1.53,0,0,0-1.48-1.58,1.6,1.6,0,0,0-1.51,1.58Z"/><path class="cls-2" d="M40.11,76.07l.44-.53a3,3,0,0,0,2.16.9c.85,0,1.41-.45,1.41-1.07v0c0-.59-.32-.92-1.64-1.2s-2.12-.78-2.12-1.82v0a1.87,1.87,0,0,1,2.08-1.72,3.31,3.31,0,0,1,2.21.78l-.41.55a2.77,2.77,0,0,0-1.82-.69c-.82,0-1.34.45-1.34,1v0c0,.59.32.93,1.71,1.22s2.05.82,2.05,1.79h0c0,1.08-.9,1.79-2.15,1.79A3.73,3.73,0,0,1,40.11,76.07Z"/><path class="cls-2" d="M45.83,75.22V72.33h.69v2.72a1.25,1.25,0,0,0,1.29,1.41A1.37,1.37,0,0,0,49.2,75V72.33h.69V77H49.2v-.81a1.76,1.76,0,0,1-1.59.9A1.69,1.69,0,0,1,45.83,75.22Z"/><path class="cls-2" d="M51.17,72.33h.7v1.22a2,2,0,0,1,1.9-1.3V73h-.06a1.87,1.87,0,0,0-1.84,2.13V77h-.7Z"/><path class="cls-2" d="M54.09,72.33h.76l1.57,3.86L58,72.33h.74l-2,4.69h-.61Z"/><path class="cls-2" d="M59,74.67v0a2.3,2.3,0,0,1,2.24-2.42,2.22,2.22,0,0,1,2.17,2.46,1.77,1.77,0,0,1,0,.23H59.71a1.62,1.62,0,0,0,1.63,1.57,1.92,1.92,0,0,0,1.47-.66l.43.39a2.4,2.4,0,0,1-1.91.87A2.32,2.32,0,0,1,59,74.67Zm3.7-.27a1.53,1.53,0,0,0-1.48-1.58,1.59,1.59,0,0,0-1.51,1.58Z"/><path class="cls-2" d="M67.61,72.33h.74l-2,4.81c-.39,1-.84,1.31-1.55,1.31a2.19,2.19,0,0,1-1-.23l.24-.55a1.41,1.41,0,0,0,.73.17c.41,0,.67-.21,1-.87l-2.11-4.64h.76l1.69,3.88Z"/><polyline class="cls-3" points="22.54 33.57 34.79 21.68 46.87 33.57"/><polyline class="cls-3" points="25.6 32.74 25.6 43.84 32.09 43.84 32.09 36.09 37.5 36.09 37.5 43.84 43.8 43.84 43.8 32.74"/><polyline class="cls-3" points="26.86 27.72 26.86 22.85 29.57 22.85 29.57 25.28"/><path class="cls-4" d="M57.28,48.31v4.41a1.73,1.73,0,0,1-1.82,1.82H40.62a1.82,1.82,0,0,1-2-2.3V33.09c.07-2.23,2-1.78,2-1.78h1.49A1.25,1.25,0,0,1,43.44,30h1.41V26.74h6.38v3.31h1.19"/><path class="cls-3" d="M41.47,32.56s-1.93-.45-2,1.78V53.49a1.82,1.82,0,0,0,2,2.3H56.32A1.73,1.73,0,0,0,58.14,54V49.55"/><path class="cls-3" d="M58.14,36.05V34.86s.48-2.34-1.16-2.34H55.87"/><path class="cls-3" d="M54.76,33.89H43V32.52a1.17,1.17,0,0,1,1.33-1.3H45.7V28h6.39V31.3h1.18s1.49,0,1.49,1Z"/><line class="cls-3" x1="54.76" y1="38.35" x2="44.81" y2="38.35"/><line class="cls-3" x1="54.76" y1="42.06" x2="44.81" y2="42.06"/><line class="cls-3" x1="52.98" y1="45.77" x2="44.81" y2="45.77"/><circle class="cls-2" cx="42.66" cy="38.35" r="0.96"/><circle class="cls-2" cx="42.66" cy="41.91" r="0.96"/><circle class="cls-2" cx="42.66" cy="45.47" r="0.96"/><polyline class="cls-3" points="45.85 50.89 48.45 53.19 51.86 48.22"/><path class="cls-3" d="M53.79,50.24l1-4.77L58.69,40l-.55-.37,3.52-5.33a2.74,2.74,0,0,1,3.71-1.42s1.71,1.18,0,3.71l-3.64,5.34-.59-.37-3.78,5.71Z"/><path class="cls-3" d="M64.7,41.61l2.53-3.71s1-1.59-1.26-2.5"/><line class="cls-3" x1="54.76" y1="45.47" x2="57.36" y2="47.25"/><line class="cls-3" x1="58.69" y1="39.98" x2="61.73" y2="41.91"/><circle class="cls-2" cx="64.34" cy="42.06" r="0.82"/><line class="cls-3" x1="54.2" y1="48.22" x2="55.25" y2="49.02"/><path class="cls-3" d="M47.48,31.3h2.83S50.75,30,48.89,30C48.89,30,47.48,29.59,47.48,31.3Z"/></svg>