<svg id="Layer_1" data-name="Layer 1" xmlns="http://www.w3.org/2000/svg" viewBox="0 0 90 100"><defs><style>.cls-1,.cls-4{fill:#fff;}.cls-1,.cls-3,.cls-4{stroke:#74af27;}.cls-1{stroke-miterlimit:10;}.cls-2{fill:#74af27;}.cls-3{fill:none;}.cls-3,.cls-4{stroke-linecap:round;stroke-linejoin:round;stroke-width:0.6px;}</style></defs><title>EV-Installation-NationwideInstallation</title><circle class="cls-1" cx="45" cy="37.74" r="28.35"/><path class="cls-2" d="M21.65,70.68h.66l4,5v-5H27V77h-.57l-4.07-5.17V77h-.69Z"/><path class="cls-2" d="M28,75.63h0c0-1,.81-1.51,2-1.51a5.24,5.24,0,0,1,1.43.2v-.16c0-.84-.51-1.27-1.39-1.27a3.33,3.33,0,0,0-1.41.34l-.21-.56a3.76,3.76,0,0,1,1.69-.39,2.06,2.06,0,0,1,1.51.51,1.87,1.87,0,0,1,.47,1.36V77h-.66v-.71a2,2,0,0,1-1.69.8A1.56,1.56,0,0,1,28,75.63Zm3.43-.35v-.45a4.8,4.8,0,0,0-1.37-.2c-.87,0-1.36.38-1.36,1v0c0,.58.54.93,1.17.93A1.41,1.41,0,0,0,31.45,75.28Z"/><path class="cls-2" d="M33.51,75.75V72.94h-.65v-.61h.65v-1.4h.69v1.4h1.48v.61H34.2v2.72a.69.69,0,0,0,.78.78,1.43,1.43,0,0,0,.68-.17v.6a1.8,1.8,0,0,1-.84.2A1.18,1.18,0,0,1,33.51,75.75Z"/><path class="cls-2" d="M36.65,70.55h.79v.76h-.79Zm0,1.78h.7V77h-.7Z"/><path class="cls-2" d="M38.44,74.68v0a2.43,2.43,0,0,1,4.85,0v0a2.41,2.41,0,0,1-2.44,2.43A2.38,2.38,0,0,1,38.44,74.68Zm4.14,0v0a1.76,1.76,0,0,0-1.73-1.82,1.72,1.72,0,0,0-1.7,1.8v0a1.75,1.75,0,0,0,1.72,1.81A1.72,1.72,0,0,0,42.58,74.68Z"/><path class="cls-2" d="M44.27,72.33H45v.81a1.79,1.79,0,0,1,1.6-.91,1.7,1.7,0,0,1,1.78,1.87V77h-.69V74.27a1.24,1.24,0,0,0-1.29-1.41A1.38,1.38,0,0,0,45,74.32V77h-.69Z"/><path class="cls-2" d="M49,72.33h.74L51,76.07l1.25-3.76h.57l1.26,3.76,1.23-3.74H56L54.37,77h-.6l-1.25-3.67L51.26,77h-.62Z"/><path class="cls-2" d="M56.91,70.55h.79v.76h-.79Zm0,1.78h.7V77H57Z"/><path class="cls-2" d="M58.72,74.67v0a2.28,2.28,0,0,1,2.22-2.42,2.11,2.11,0,0,1,1.78,1V70.41h.7V77h-.7v-.94a2.09,2.09,0,0,1-1.78,1A2.26,2.26,0,0,1,58.72,74.67Zm4,0v0a1.73,1.73,0,0,0-1.68-1.79,1.65,1.65,0,0,0-1.64,1.79v0a1.68,1.68,0,0,0,1.64,1.8A1.74,1.74,0,0,0,62.75,74.66Z"/><path class="cls-2" d="M64.4,74.67v0a2.3,2.3,0,0,1,2.24-2.42,2.22,2.22,0,0,1,2.17,2.46,1.77,1.77,0,0,1,0,.23H65.11a1.63,1.63,0,0,0,1.63,1.57,1.92,1.92,0,0,0,1.47-.66l.43.39a2.38,2.38,0,0,1-1.91.87A2.32,2.32,0,0,1,64.4,74.67Zm3.7-.27a1.53,1.53,0,0,0-1.48-1.58,1.6,1.6,0,0,0-1.51,1.58Z"/><path class="cls-2" d="M23.11,81.68h.71V88h-.71Z"/><path class="cls-2" d="M25.28,83.33H26v.81a1.77,1.77,0,0,1,1.59-.91,1.71,1.71,0,0,1,1.79,1.87V88h-.7V85.27a1.24,1.24,0,0,0-1.28-1.41A1.37,1.37,0,0,0,26,85.32V88h-.69Z"/><path class="cls-2" d="M30.16,87.39l.35-.49a2.81,2.81,0,0,0,1.62.59c.55,0,1-.29,1-.74v0c0-.46-.55-.64-1.16-.81s-1.54-.46-1.54-1.32v0A1.4,1.4,0,0,1,32,83.25a3.24,3.24,0,0,1,1.68.51l-.32.53A2.59,2.59,0,0,0,32,83.84c-.55,0-.91.28-.91.67v0c0,.44.58.61,1.2.8s1.5.5,1.5,1.33v0a1.47,1.47,0,0,1-1.66,1.4A3.25,3.25,0,0,1,30.16,87.39Z"/><path class="cls-2" d="M34.92,86.75V83.94h-.65v-.61h.65v-1.4h.69v1.4h1.48v.61H35.61v2.72a.69.69,0,0,0,.78.78,1.46,1.46,0,0,0,.68-.17v.6a1.86,1.86,0,0,1-.84.2A1.18,1.18,0,0,1,34.92,86.75Z"/><path class="cls-2" d="M37.69,86.63h0c0-1,.81-1.51,2-1.51a5.24,5.24,0,0,1,1.43.2v-.16c0-.84-.51-1.27-1.39-1.27a3.33,3.33,0,0,0-1.41.34l-.21-.56a3.76,3.76,0,0,1,1.69-.39,2.06,2.06,0,0,1,1.51.51,1.87,1.87,0,0,1,.47,1.36V88h-.66v-.71a2,2,0,0,1-1.69.8A1.56,1.56,0,0,1,37.69,86.63Zm3.43-.35v-.45a4.8,4.8,0,0,0-1.37-.2c-.87,0-1.36.38-1.36,1v0c0,.58.54.93,1.17.93A1.41,1.41,0,0,0,41.12,86.28Z"/><path class="cls-2" d="M43,81.41h.7V88H43Z"/><path class="cls-2" d="M45.14,81.41h.69V88h-.69Z"/><path class="cls-2" d="M46.82,86.63h0c0-1,.81-1.51,2-1.51a5.12,5.12,0,0,1,1.43.2v-.16c0-.84-.51-1.27-1.38-1.27a3.41,3.41,0,0,0-1.42.34l-.2-.56a3.73,3.73,0,0,1,1.69-.39,2,2,0,0,1,1.5.51,1.83,1.83,0,0,1,.48,1.36V88h-.67v-.71a2,2,0,0,1-1.68.8A1.56,1.56,0,0,1,46.82,86.63Zm3.43-.35v-.45a4.8,4.8,0,0,0-1.37-.2c-.87,0-1.36.38-1.36,1v0c0,.58.54.93,1.17.93A1.41,1.41,0,0,0,50.25,86.28Z"/><path class="cls-2" d="M52.31,86.75V83.94h-.65v-.61h.65v-1.4H53v1.4h1.48v.61H53v2.72a.7.7,0,0,0,.79.78,1.42,1.42,0,0,0,.67-.17v.6a1.79,1.79,0,0,1-.83.2A1.19,1.19,0,0,1,52.31,86.75Z"/><path class="cls-2" d="M55.45,81.55h.79v.76h-.79Zm0,1.78h.69V88H55.5Z"/><path class="cls-2" d="M57.24,85.68v0a2.43,2.43,0,0,1,4.86,0v0a2.42,2.42,0,0,1-2.44,2.43A2.38,2.38,0,0,1,57.24,85.68Zm4.14,0v0a1.76,1.76,0,0,0-1.72-1.82A1.72,1.72,0,0,0,58,85.64v0a1.75,1.75,0,0,0,1.72,1.81A1.72,1.72,0,0,0,61.38,85.68Z"/><path class="cls-2" d="M63.08,83.33h.69v.81a1.76,1.76,0,0,1,1.59-.91,1.7,1.7,0,0,1,1.78,1.87V88h-.69V85.27a1.24,1.24,0,0,0-1.29-1.41,1.37,1.37,0,0,0-1.39,1.46V88h-.69Z"/><path class="cls-3" d="M46.15,43.13s.3-4.71-3.62-6.36l-3.79-2a6.36,6.36,0,0,1-8,0l-4,2a6.54,6.54,0,0,0-3.61,6.43"/><polyline class="cls-3" points="33.96 37.99 30.84 38.94 29.37 35.43"/><polyline class="cls-3" points="35.31 37.87 38.49 38.94 40.03 35.43"/><path class="cls-3" d="M29.37,26.78c-.19-1.7-.23-4.71,4.1-5.51a7.28,7.28,0,0,1,3.12,0A4.73,4.73,0,0,1,40,26.78c-.08.77-.29,2.31-.44,3.06-.31,1.62-1.05,4.49-4.94,4.35-1.56,0-4-.12-4.67-4.16C29.84,29.21,29.47,27.6,29.37,26.78Z"/><path class="cls-3" d="M29.42,26c6,.59,8.25-1.64,8.25-1.64A2.12,2.12,0,0,0,40,26.78"/><path class="cls-4" d="M61.56,49.65a.82.82,0,0,1-.3-1l.88-1.45a.68.68,0,0,1,1-.11l2.57,1.84a5.2,5.2,0,0,0-1.54-4,5.37,5.37,0,0,0-.85-.74h0a2.43,2.43,0,0,0-.57-.35,2.32,2.32,0,0,0-.61-.17h0a1.8,1.8,0,0,0-.4,0c-.36,0-.9-.06-1.22-.11a5.67,5.67,0,0,1-1.25-.45L56,39.63h0l-3.22-3.38A3.6,3.6,0,0,1,52,34.55c-.06-.86-.05-1.54-.05-1.54h0a2.26,2.26,0,0,0-.36-1.26,2.61,2.61,0,0,0-.56-.64h0A4.61,4.61,0,0,0,45.62,30l2.57,1.85a.8.8,0,0,1,.29,1l-.88,1.45a.68.68,0,0,1-1,.11L44,32.57a5.26,5.26,0,0,0,1.54,4,5.93,5.93,0,0,0,.85.74h0a2.38,2.38,0,0,0,.56.35,2,2,0,0,0,.62.18h0c.14,0,.26,0,.4,0,.36,0,.9.06,1.22.11a6.28,6.28,0,0,1,1.25.45l3.27,3.43h0L57,45.24a3.54,3.54,0,0,1,.78,1.69c.07.85.06,1.54.06,1.54h0a2.21,2.21,0,0,0,.36,1.26,2.54,2.54,0,0,0,.56.63h0a4.63,4.63,0,0,0,5.4,1.14Z"/><path class="cls-2" d="M61.56,29.72l-.2.18-1.67,1.55A1.57,1.57,0,0,0,59.2,33l-7.46,8.75,1,.88,7.47-8.76a1.61,1.61,0,0,0,1.45-.71l1.22-1.93.14-.23Z"/><path class="cls-4" d="M51.88,41.57,51.21,41a.4.4,0,0,0-.58.08l-.08.09s0,0,0,0h0v0h0v0h0a.14.14,0,0,0,0,.06h0v0h0v0l-.09-.08a.23.23,0,0,0-.33,0l-6.23,7.32a2,2,0,0,0-.1,2.7l.81.69a2,2,0,0,0,2.64-.54l6.23-7.31a.21.21,0,0,0,0-.32l-.13-.12h0l0,0h0l0,0h0l0,0h0l0,0h0l0,0,.07-.09a.39.39,0,0,0,0-.54l-.4-.34-.24-.21h0l-1-.88Z"/><path class="cls-2" d="M44.68,50.49a.48.48,0,1,1-.71-.6l6.23-7.31a.47.47,0,1,1,.71.6Z"/><path class="cls-2" d="M46.28,51.3a.47.47,0,0,1-.65.13.46.46,0,0,1,0-.66l5.67-6.67A.47.47,0,0,1,52,44a.48.48,0,0,1,0,.67Z"/></svg>