<svg id="Layer_1" data-name="Layer 1" xmlns="http://www.w3.org/2000/svg" viewBox="0 0 90 100"><defs><style>.cls-1,.cls-3{fill:#fff;stroke:#74af27;}.cls-1{stroke-miterlimit:10;}.cls-2{fill:#74af27;}.cls-3{stroke-linecap:round;stroke-linejoin:round;}</style></defs><title>EV-Installation-Install</title><circle class="cls-1" cx="45" cy="37.74" r="28.35"/><path class="cls-2" d="M33.7,70.68h.71V77H33.7Z"/><path class="cls-2" d="M35.87,72.33h.69v.81a1.76,1.76,0,0,1,1.59-.91,1.7,1.7,0,0,1,1.78,1.87V77h-.69V74.27A1.24,1.24,0,0,0,38,72.86a1.37,1.37,0,0,0-1.39,1.46V77h-.69Z"/><path class="cls-2" d="M40.75,76.39l.35-.49a2.8,2.8,0,0,0,1.61.59c.56,0,1-.29,1-.74v0c0-.46-.55-.64-1.16-.81S41,74.46,41,73.6v0a1.4,1.4,0,0,1,1.58-1.33,3.24,3.24,0,0,1,1.68.51l-.32.53a2.63,2.63,0,0,0-1.38-.45c-.55,0-.9.28-.9.67v0c0,.44.58.61,1.2.8s1.49.5,1.49,1.33v0a1.46,1.46,0,0,1-1.65,1.4A3.16,3.16,0,0,1,40.75,76.39Z"/><path class="cls-2" d="M45.5,75.75V72.94h-.64v-.61h.64v-1.4h.7v1.4h1.47v.61H46.2v2.72a.69.69,0,0,0,.78.78,1.48,1.48,0,0,0,.68-.17v.6a1.74,1.74,0,0,1-.84.2A1.19,1.19,0,0,1,45.5,75.75Z"/><path class="cls-2" d="M48.28,75.64v0c0-1,.81-1.51,2-1.51a5.24,5.24,0,0,1,1.43.2v-.16c0-.84-.52-1.27-1.39-1.27a3.33,3.33,0,0,0-1.41.34l-.21-.56a3.76,3.76,0,0,1,1.69-.39,2.07,2.07,0,0,1,1.51.51,1.87,1.87,0,0,1,.47,1.36V77H51.7v-.71a2,2,0,0,1-1.69.8A1.56,1.56,0,0,1,48.28,75.64Zm3.43-.36v-.45a4.91,4.91,0,0,0-1.37-.2c-.88,0-1.36.38-1.36,1v0c0,.58.54.93,1.17.93A1.42,1.42,0,0,0,51.71,75.28Z"/><path class="cls-2" d="M53.63,70.41h.69V77h-.69Z"/><path class="cls-2" d="M55.73,70.41h.69V77h-.69Z"/><path class="cls-3" d="M56.23,51a1.29,1.29,0,0,1-.46-1.65l1.4-2.29a1.07,1.07,0,0,1,1.57-.18l4.07,2.92a8.3,8.3,0,0,0-2.43-6.3A10.47,10.47,0,0,0,59,42.37h0a4.2,4.2,0,0,0-.89-.55,3.52,3.52,0,0,0-1-.28h0a4.49,4.49,0,0,0-.62,0c-.59,0-1.43-.1-1.94-.18a9.68,9.68,0,0,1-2-.7l-5.18-5.42h0l-5.1-5.36a5.52,5.52,0,0,1-1.22-2.67C41,25.79,41,24.71,41,24.71h0a3.53,3.53,0,0,0-.56-2,4.23,4.23,0,0,0-.89-1h0c-2.55-2.52-6.1-3.22-8.54-1.8l4.07,2.92a1.3,1.3,0,0,1,.46,1.65l-1.4,2.29a1.08,1.08,0,0,1-1.58.18L28.52,24a8.27,8.27,0,0,0,2.42,6.3,9.84,9.84,0,0,0,1.35,1.17h0a4,4,0,0,0,.9.55,3.58,3.58,0,0,0,1,.29h0a4.64,4.64,0,0,0,.63,0,19.11,19.11,0,0,1,1.94.18,9.5,9.5,0,0,1,2,.7l5.18,5.44h0L49,44.06a5.65,5.65,0,0,1,1.23,2.67c.1,1.36.08,2.44.08,2.44h0a3.62,3.62,0,0,0,.57,2,4.25,4.25,0,0,0,.89,1h0c2.56,2.52,6.11,3.21,8.54,1.79Z"/><path class="cls-2" d="M56.24,19.52l-.32.29-2.63,2.45a2.43,2.43,0,0,0-.78,2.43L40.71,38.52l1.63,1.39L54.15,26.06a2.54,2.54,0,0,0,2.3-1.12l1.92-3.05.23-.36Z"/><path class="cls-3" d="M40.93,38.26l-1.07-.91a.64.64,0,0,0-.91.13l-.12.15s0,0,0,.06a0,0,0,0,1,0,0l0,0v0l0,0,0,0h0l0,.09h0s0,0,0,0h0v0l0,0-.15-.12A.35.35,0,0,0,38,38L28.11,49.56c-1.17,1.38-1.28,3.34-.17,4.28l1.28,1.1c1.11.93,3,.51,4.19-.86l9.85-11.57a.35.35,0,0,0,0-.51L43,41.82h0l0,0,0,0,0,0h0l.05,0,0,0,0,0,0,0,0,0,0,0s0,0,0,0l0-.06.12-.14a.63.63,0,0,0,.07-.85L42.94,40l-.38-.33h0l-1.62-1.4Z"/><path class="cls-2" d="M29.54,52.38a.76.76,0,1,1-1.13-1l9.86-11.57a.84.84,0,0,1,1.15-.21.85.85,0,0,1,0,1.17Z"/><path class="cls-2" d="M32.07,53.65a.74.74,0,0,1-1,.21.75.75,0,0,1,0-1l9-10.54a.67.67,0,1,1,1,.84Z"/></svg>