<svg id="Layer_1" data-name="Layer 1" xmlns="http://www.w3.org/2000/svg" xmlns:xlink="http://www.w3.org/1999/xlink" viewBox="0 0 90 100"><defs><style>.cls-1,.cls-5,.cls-7,.cls-8{fill:none;}.cls-2,.cls-6{fill:#fff;}.cls-2,.cls-5,.cls-7,.cls-8{stroke:#74af27;}.cls-2{stroke-miterlimit:10;}.cls-3{fill:#74af27;}.cls-4{clip-path:url(#clip-path);}.cls-5,.cls-7,.cls-8{stroke-linecap:round;stroke-linejoin:round;}.cls-5{stroke-width:0.7px;}.cls-7{stroke-width:0.57px;}.cls-8{stroke-width:0.53px;}</style><clipPath id="clip-path"><circle class="cls-1" cx="45" cy="37.74" r="27.79"/></clipPath></defs><title>EV-Installation-FitsMostStreetLights-TitanEVStreetCharge</title><circle class="cls-2" cx="45" cy="37.74" r="28.35"/><path class="cls-3" d="M26.6,70.69h4.53v.65H27.31v2.25h3.41v.65H27.31V77H26.6Z"/><path class="cls-3" d="M32.13,70.55h.8v.77h-.8Zm0,1.78h.69V77h-.69Z"/><path class="cls-3" d="M34.46,75.75V73h-.65v-.62h.65v-1.4h.69v1.4h1.48V73H35.15v2.72a.69.69,0,0,0,.78.77,1.54,1.54,0,0,0,.68-.16v.59a1.71,1.71,0,0,1-.84.2A1.18,1.18,0,0,1,34.46,75.75Z"/><path class="cls-3" d="M37.19,76.39l.35-.49a2.73,2.73,0,0,0,1.61.59c.56,0,1-.28,1-.74h0c0-.47-.55-.65-1.16-.82s-1.54-.46-1.54-1.32h0A1.4,1.4,0,0,1,39,72.25a3.16,3.16,0,0,1,1.68.52l-.32.52A2.63,2.63,0,0,0,39,72.84c-.55,0-.9.29-.9.67v0c0,.44.58.61,1.2.8s1.5.5,1.5,1.34h0a1.47,1.47,0,0,1-1.66,1.4A3.16,3.16,0,0,1,37.19,76.39Z"/><path class="cls-3" d="M44.34,70.69h.72l2.29,3.44,2.3-3.44h.72V77h-.71V71.88l-2.3,3.38h0L45,71.89V77h-.69Z"/><path class="cls-3" d="M51.48,74.68h0a2.43,2.43,0,1,1,4.85,0v0a2.42,2.42,0,0,1-2.44,2.43A2.38,2.38,0,0,1,51.48,74.68Zm4.14,0h0a1.76,1.76,0,0,0-1.73-1.82,1.72,1.72,0,0,0-1.7,1.8v0a1.72,1.72,0,1,0,3.43,0Z"/><path class="cls-3" d="M56.92,76.39l.35-.49a2.69,2.69,0,0,0,1.61.59c.56,0,1-.28,1-.74h0c0-.47-.55-.65-1.17-.82s-1.53-.46-1.53-1.32h0a1.4,1.4,0,0,1,1.58-1.34,3.1,3.1,0,0,1,1.67.52l-.31.52a2.63,2.63,0,0,0-1.38-.45c-.55,0-.9.29-.9.67v0c0,.44.58.61,1.2.8s1.49.5,1.49,1.34h0a1.47,1.47,0,0,1-1.65,1.4A3.16,3.16,0,0,1,56.92,76.39Z"/><path class="cls-3" d="M61.67,75.75V73H61v-.62h.65v-1.4h.7v1.4h1.47V73H62.37v2.72a.69.69,0,0,0,.78.77,1.53,1.53,0,0,0,.67-.16v.59a1.67,1.67,0,0,1-.83.2A1.19,1.19,0,0,1,61.67,75.75Z"/><path class="cls-3" d="M18.41,87.07l.45-.52a3,3,0,0,0,2.16.89c.84,0,1.4-.45,1.4-1.07v0c0-.59-.31-.92-1.64-1.2s-2.11-.78-2.11-1.82h0a1.86,1.86,0,0,1,2.07-1.72,3.29,3.29,0,0,1,2.21.77l-.41.55a2.76,2.76,0,0,0-1.82-.68c-.82,0-1.34.45-1.34,1v0c0,.6.32.93,1.71,1.23s2.05.81,2.05,1.78v0c0,1.08-.9,1.78-2.15,1.78A3.69,3.69,0,0,1,18.41,87.07Z"/><path class="cls-3" d="M24.4,86.75V84h-.65v-.62h.65v-1.4h.69v1.4h1.48V84H25.09v2.72a.69.69,0,0,0,.79.77,1.53,1.53,0,0,0,.67-.16v.59a1.68,1.68,0,0,1-.84.2A1.19,1.19,0,0,1,24.4,86.75Z"/><path class="cls-3" d="M27.52,83.33h.7v1.22a2,2,0,0,1,1.9-1.3V84h-.06a1.87,1.87,0,0,0-1.84,2.13V88h-.7Z"/><path class="cls-3" d="M30.41,85.67h0a2.31,2.31,0,0,1,2.23-2.43,2.22,2.22,0,0,1,2.17,2.46,1.69,1.69,0,0,1,0,.23H31.11a1.62,1.62,0,0,0,1.64,1.57,2,2,0,0,0,1.47-.65l.43.38a2.38,2.38,0,0,1-1.92.88A2.32,2.32,0,0,1,30.41,85.67Zm3.7-.27a1.53,1.53,0,0,0-1.48-1.58,1.61,1.61,0,0,0-1.52,1.58Z"/><path class="cls-3" d="M35.47,85.67h0a2.31,2.31,0,0,1,2.23-2.43,2.22,2.22,0,0,1,2.17,2.46,1.69,1.69,0,0,1,0,.23H36.17a1.62,1.62,0,0,0,1.64,1.57,2,2,0,0,0,1.47-.65l.43.38a2.39,2.39,0,0,1-1.92.88A2.31,2.31,0,0,1,35.47,85.67Zm3.7-.27a1.53,1.53,0,0,0-1.49-1.58,1.61,1.61,0,0,0-1.51,1.58Z"/><path class="cls-3" d="M41.06,86.75V84h-.65v-.62h.65v-1.4h.69v1.4h1.48V84H41.75v2.72a.69.69,0,0,0,.79.77,1.53,1.53,0,0,0,.67-.16v.59a1.68,1.68,0,0,1-.84.2A1.19,1.19,0,0,1,41.06,86.75Z"/><path class="cls-3" d="M46.73,81.69h.71v5.64H51V88H46.73Z"/><path class="cls-3" d="M51.93,81.55h.79v.77h-.79Zm0,1.78h.69V88H52Z"/><path class="cls-3" d="M54,88.8l.32-.54a3,3,0,0,0,1.79.59,1.52,1.52,0,0,0,1.69-1.65v-.55a2.19,2.19,0,0,1-1.82,1,2.15,2.15,0,0,1-2.19-2.18v0a2.2,2.2,0,0,1,4-1.26v-.84h.7v3.85a2.25,2.25,0,0,1-.6,1.65,2.45,2.45,0,0,1-1.77.62A3.71,3.71,0,0,1,54,88.8Zm3.82-3.36v0a1.63,1.63,0,0,0-1.71-1.57,1.54,1.54,0,0,0-1.61,1.56v0A1.58,1.58,0,0,0,56.06,87,1.64,1.64,0,0,0,57.77,85.44Z"/><path class="cls-3" d="M59.71,81.42h.7v2.72A1.76,1.76,0,0,1,62,83.23a1.7,1.7,0,0,1,1.78,1.87V88h-.69V85.27a1.24,1.24,0,0,0-1.29-1.4,1.36,1.36,0,0,0-1.39,1.45V88h-.7Z"/><path class="cls-3" d="M65.23,86.75V84h-.65v-.62h.65v-1.4h.69v1.4H67.4V84H65.92v2.72a.69.69,0,0,0,.79.77,1.53,1.53,0,0,0,.67-.16v.59a1.67,1.67,0,0,1-.83.2A1.19,1.19,0,0,1,65.23,86.75Z"/><path class="cls-3" d="M68,87.39l.35-.49a2.69,2.69,0,0,0,1.61.59c.56,0,1-.28,1-.74h0c0-.47-.55-.65-1.16-.82s-1.54-.46-1.54-1.32h0a1.41,1.41,0,0,1,1.59-1.34,3.16,3.16,0,0,1,1.67.52l-.31.52a2.65,2.65,0,0,0-1.38-.45c-.55,0-.9.29-.9.67v0c0,.44.57.61,1.2.8s1.49.5,1.49,1.34h0a1.47,1.47,0,0,1-1.66,1.4A3.15,3.15,0,0,1,68,87.39Z"/><g class="cls-4"><rect class="cls-5" x="52.27" y="50.01" width="7.36" height="46.96"/><polygon class="cls-5" points="59.63 50.01 52.27 50.01 53.83 45.99 58.07 45.99 59.63 50.01"/><rect class="cls-5" x="53.83" y="3.42" width="4.24" height="42.57"/></g><path class="cls-3" d="M42.89,39.18H42.4a.35.35,0,0,1-.34-.35.38.38,0,0,1,.28-.37l.55-.12,1.3-.3a13.37,13.37,0,0,0,5.29-2.51,8.52,8.52,0,0,0,2-2.1l.25-.39-1-.54a.34.34,0,0,1-.18-.3.42.42,0,0,1,.24-.4l4.06-1.27.1,0a.35.35,0,0,1,.17,0,.36.36,0,0,1,.17.21l1.27,4.15a.35.35,0,0,1-.11.37.4.4,0,0,1-.23.08.32.32,0,0,1-.16,0l-1.1-.59-.14.19A8.4,8.4,0,0,1,52,37.19a15.13,15.13,0,0,1-3.53,1.31,26.84,26.84,0,0,1-2.88.56,14.93,14.93,0,0,1-2.18.12Z"/><path class="cls-6" d="M54.91,30.85,56.18,35l-1.37-.73c-.11.15-.2.29-.31.43a7.92,7.92,0,0,1-2.63,2.18,15.16,15.16,0,0,1-3.44,1.28,27.56,27.56,0,0,1-2.85.55,15.27,15.27,0,0,1-2.14.12h-1v0c.62-.14,1.24-.27,1.86-.42A13.75,13.75,0,0,0,49.7,35.8a9,9,0,0,0,2-2.19l.46-.72-1.33-.71v0l4-1.28m0-.7-.21,0-1.62.51-2.43.77a.69.69,0,0,0-.49.68v.06a.68.68,0,0,0,.37.6l.09.05.58.31-.05.08a8.41,8.41,0,0,1-1.89,2,13,13,0,0,1-5.15,2.44L42.85,38l-.59.14a.71.71,0,0,0-.55.67.73.73,0,0,0,.68.74h1a14.44,14.44,0,0,0,2.24-.13,27.72,27.72,0,0,0,2.92-.56,15.11,15.11,0,0,0,3.6-1.35A8.57,8.57,0,0,0,55,35.17l.83.45a.8.8,0,0,0,.33.08.7.7,0,0,0,.67-.91l-.7-2.28-.57-1.86a.71.71,0,0,0-.34-.42.76.76,0,0,0-.33-.08Z"/><line class="cls-7" x1="39.8" y1="23.35" x2="39.8" y2="52.23"/><path class="cls-3" d="M30.5,23.33l0-.47,0-.45,0-.38,0-.3,0-.27,0-.23,0-.2,0-.15h0l.14-.61.18-.5.19-.39h0l.11-.14.17-.16.21-.13.26-.11.3-.08.32-.06.33,0,.32,0h5.09l.32,0,.33,0,.32.06.3.08.26.11.22.13.17.16.1.14h0l.19.39.18.5.14.61h0l0,.15,0,.2,0,.23,0,.27,0,.3,0,.38,0,.45,0,.47v28.9l0,.47,0,.45,0,.39,0,.29,0,.27,0,.24,0,.19,0,.15h0l-.14.61-.18.5-.19.39h0l-.1.14-.17.16-.22.14-.26.1-.3.09-.32,0-.33,0H33l-.34,0-.32,0-.3-.09-.25-.1-.22-.14-.17-.16-.11-.14h0l-.19-.39-.18-.5-.14-.61h0l0-.15,0-.19,0-.24,0-.27,0-.29,0-.39,0-.45,0-.47V23.33Zm1.84,28.88a18.29,18.29,0,0,0,.53,3.61h0v.06h0v0h0l0,0h0l0,0,0,0,0,0h0l0,0H38.5l0,0h0l0,0,0,0,0,0h0v0h0v0h0v-.06l.06-.27.06-.27.06-.28,0-.28.05-.27,0-.28,0-.28,0-.28,0-.28,0-.28,0-.28,0-.28v-.28h0V20.77h0l0-.13,0-.13,0-.13,0-.13,0-.13L39,20l0-.13,0-.13h0v-.08h0v0h0v0l0,0,0,0,0,0,0,0h-.06l-.06,0h0l-.06,0h-5.5l-.06,0h0l-.06,0h-.06l0,0,0,0,0,0,0,0,0,0h0l0,0h0v.08h0l0,.13,0,.13,0,.13,0,.13,0,.13,0,.13,0,.13,0,.13h0v1.71l0,.44V52.21"/><line class="cls-7" x1="31.81" y1="23.35" x2="39.8" y2="23.35"/><line class="cls-7" x1="39.8" y1="52.23" x2="31.81" y2="52.23"/><circle class="cls-3" cx="35.81" cy="46.79" r="2.5"/><circle class="cls-3" cx="35.81" cy="27.1" r="0.72"/><path class="cls-8" d="M35.13,20.38H35l0,0,0,0,0,0,0,0,0,0,0,0,0,0v.14h0A4,4,0,0,0,35,22h0v0h0a.3.3,0,0,0,0,.1h0a.44.44,0,0,0,.4.29h0l.38,0h0l.37,0a.47.47,0,0,0,.41-.29h0l0-.1h0v0h0a4,4,0,0,0,.24-1.28h0v-.14l0,0,0,0,0,0,0,0,0,0,0,0,0,0h-.17l-.68,0h0c-.23,0-.46,0-.68,0Z"/><path class="cls-8" d="M36.49,55.1h.14l0,0,0,0,0,0,0,0,0,0,0,0,0,0,0,0v-.15h0a3.77,3.77,0,0,0-.24-1.28h0v0h0a.3.3,0,0,1,0-.1h0a.51.51,0,0,0-.4-.29h-.76a.49.49,0,0,0-.4.29h0a.69.69,0,0,0,0,.1h0v0h0a4,4,0,0,0-.24,1.28h0v.15l0,0,0,0,0,0,0,0,0,0,0,0,0,0,0,0h.15c.22,0,.45,0,.68,0h0l.68,0Z"/></svg>