<svg id="Layer_1" data-name="Layer 1" xmlns="http://www.w3.org/2000/svg" xmlns:xlink="http://www.w3.org/1999/xlink" viewBox="0 0 90 100"><defs><style>.cls-1,.cls-6,.cls-7,.cls-8{fill:none;}.cls-2,.cls-5,.cls-9{fill:#fff;}.cls-2,.cls-5,.cls-6,.cls-7,.cls-8,.cls-9{stroke:#74af27;}.cls-2{stroke-miterlimit:10;}.cls-3{fill:#74af27;}.cls-4{clip-path:url(#clip-path);}.cls-5,.cls-6,.cls-7,.cls-8,.cls-9{stroke-linecap:round;stroke-linejoin:round;}.cls-5,.cls-6,.cls-7,.cls-8{stroke-width:0.5px;}.cls-7{stroke-dasharray:0.5 1.81;}.cls-8{stroke-dasharray:0.51 1.82;}.cls-9{stroke-width:0.41px;}</style><clipPath id="clip-path"><circle class="cls-1" cx="45" cy="37.74" r="27.9"/></clipPath></defs><title>EV-Installation-GroundOrSurfaceMounted</title><circle class="cls-2" cx="45" cy="37.74" r="28.35"/><path class="cls-3" d="M23.92,73.85v0a3.16,3.16,0,0,1,3.16-3.25,3.33,3.33,0,0,1,2.35.83L29,72a2.67,2.67,0,0,0-1.91-.72,2.47,2.47,0,0,0-2.4,2.59h0a2.44,2.44,0,0,0,2.49,2.63A2.9,2.9,0,0,0,29,75.82V74.26H27.06v-.64h2.6v2.51a3.84,3.84,0,0,1-2.53,1A3.09,3.09,0,0,1,23.92,73.85Z"/><path class="cls-3" d="M30.87,72.33h.69v1.22a2,2,0,0,1,1.9-1.3V73h-.05a1.88,1.88,0,0,0-1.85,2.13V77h-.69Z"/><path class="cls-3" d="M33.76,74.68v0a2.41,2.41,0,0,1,2.43-2.43,2.39,2.39,0,0,1,2.42,2.41v0a2.41,2.41,0,0,1-2.44,2.43A2.38,2.38,0,0,1,33.76,74.68Zm4.14,0v0a1.76,1.76,0,0,0-1.73-1.82,1.72,1.72,0,0,0-1.7,1.8v0a1.75,1.75,0,0,0,1.72,1.81A1.72,1.72,0,0,0,37.9,74.68Z"/><path class="cls-3" d="M39.52,75.22V72.33h.69v2.72a1.25,1.25,0,0,0,1.29,1.41A1.38,1.38,0,0,0,42.9,75V72.33h.68V77H42.9v-.81a1.79,1.79,0,0,1-1.6.9A1.7,1.7,0,0,1,39.52,75.22Z"/><path class="cls-3" d="M44.87,72.33h.69v.81a1.77,1.77,0,0,1,1.59-.91,1.7,1.7,0,0,1,1.78,1.87V77h-.69V74.27A1.24,1.24,0,0,0,47,72.86a1.37,1.37,0,0,0-1.39,1.46V77h-.69Z"/><path class="cls-3" d="M49.87,74.67v0a2.28,2.28,0,0,1,2.22-2.42,2.11,2.11,0,0,1,1.79,1V70.41h.69V77h-.69v-.94a2.09,2.09,0,0,1-1.79,1A2.27,2.27,0,0,1,49.87,74.67Zm4,0v0a1.73,1.73,0,0,0-1.68-1.79,1.65,1.65,0,0,0-1.64,1.79v0a1.68,1.68,0,0,0,1.64,1.8A1.74,1.74,0,0,0,53.9,74.66Z"/><path class="cls-3" d="M58,74.68v0a2.43,2.43,0,0,1,4.85,0v0a2.42,2.42,0,0,1-2.44,2.43A2.37,2.37,0,0,1,58,74.68Zm4.14,0v0a1.76,1.76,0,0,0-1.73-1.82,1.72,1.72,0,0,0-1.7,1.8v0a1.75,1.75,0,0,0,1.72,1.81A1.72,1.72,0,0,0,62.13,74.68Z"/><path class="cls-3" d="M63.82,72.33h.69v1.22a2,2,0,0,1,1.9-1.3V73h0a1.88,1.88,0,0,0-1.85,2.13V77h-.69Z"/><path class="cls-3" d="M9.43,87.07l.44-.53a3,3,0,0,0,2.16.9c.85,0,1.4-.45,1.4-1.07v0c0-.59-.31-.92-1.63-1.2s-2.12-.78-2.12-1.82v0a1.86,1.86,0,0,1,2.07-1.72,3.32,3.32,0,0,1,2.22.78l-.42.55a2.75,2.75,0,0,0-1.82-.69c-.82,0-1.34.45-1.34,1v0c0,.59.33.93,1.71,1.22s2.05.82,2.05,1.79h0c0,1.08-.9,1.79-2.15,1.79A3.69,3.69,0,0,1,9.43,87.07Z"/><path class="cls-3" d="M15.14,86.22V83.33h.7v2.72a1.24,1.24,0,0,0,1.28,1.41A1.38,1.38,0,0,0,18.52,86V83.33h.68V88h-.68v-.81a1.78,1.78,0,0,1-1.59.9A1.7,1.7,0,0,1,15.14,86.22Z"/><path class="cls-3" d="M20.49,83.33h.69v1.22a2,2,0,0,1,1.9-1.3V84h0a1.88,1.88,0,0,0-1.85,2.13V88h-.69Z"/><path class="cls-3" d="M24.13,83.94h-.64v-.6h.64v-.4a1.64,1.64,0,0,1,.4-1.2,1.35,1.35,0,0,1,1-.36,1.9,1.9,0,0,1,.76.12v.6a2.37,2.37,0,0,0-.67-.12c-.54,0-.81.32-.81,1v.38h1.48v.59H24.82v4h-.69Z"/><path class="cls-3" d="M26.41,86.63h0c0-1,.81-1.51,2-1.51a5.18,5.18,0,0,1,1.43.2v-.16c0-.84-.51-1.27-1.38-1.27a3.38,3.38,0,0,0-1.42.34l-.2-.56a3.73,3.73,0,0,1,1.69-.39,2,2,0,0,1,1.5.51,1.83,1.83,0,0,1,.48,1.36V88h-.67v-.71a2,2,0,0,1-1.68.8A1.56,1.56,0,0,1,26.41,86.63Zm3.43-.35v-.45a4.8,4.8,0,0,0-1.37-.2c-.87,0-1.36.38-1.36,1v0c0,.58.54.93,1.17.93A1.41,1.41,0,0,0,29.84,86.28Z"/><path class="cls-3" d="M31.42,85.68v0a2.42,2.42,0,0,1,4.24-1.6l-.45.49a1.89,1.89,0,0,0-1.42-.71,1.72,1.72,0,0,0-1.66,1.8v0a1.73,1.73,0,0,0,1.71,1.81,1.91,1.91,0,0,0,1.42-.69l.44.41a2.4,2.4,0,0,1-4.28-1.51Z"/><path class="cls-3" d="M36.15,85.67v0a2.29,2.29,0,0,1,2.23-2.42,2.22,2.22,0,0,1,2.17,2.46,1.77,1.77,0,0,1,0,.23H36.85a1.63,1.63,0,0,0,1.64,1.57A1.92,1.92,0,0,0,40,86.83l.43.39a2.42,2.42,0,0,1-1.92.87A2.31,2.31,0,0,1,36.15,85.67Zm3.7-.27a1.53,1.53,0,0,0-1.49-1.58,1.6,1.6,0,0,0-1.51,1.58Z"/><path class="cls-3" d="M44,81.68h.72l2.3,3.44,2.29-3.44h.72V88h-.71V82.88l-2.29,3.38h0l-2.3-3.37V88H44Z"/><path class="cls-3" d="M51.18,85.68v0a2.43,2.43,0,0,1,4.85,0v0a2.41,2.41,0,0,1-2.44,2.43A2.38,2.38,0,0,1,51.18,85.68Zm4.14,0v0a1.76,1.76,0,0,0-1.73-1.82,1.72,1.72,0,0,0-1.7,1.8v0a1.75,1.75,0,0,0,1.72,1.81A1.72,1.72,0,0,0,55.32,85.68Z"/><path class="cls-3" d="M56.94,86.22V83.33h.69v2.72a1.25,1.25,0,0,0,1.29,1.41A1.37,1.37,0,0,0,60.31,86V83.33H61V88h-.69v-.81a1.76,1.76,0,0,1-1.59.9A1.7,1.7,0,0,1,56.94,86.22Z"/><path class="cls-3" d="M62.28,83.33H63v.81a1.76,1.76,0,0,1,1.59-.91,1.7,1.7,0,0,1,1.78,1.87V88h-.69V85.27a1.24,1.24,0,0,0-1.29-1.41A1.37,1.37,0,0,0,63,85.32V88h-.7Z"/><path class="cls-3" d="M67.8,86.75V83.94h-.65v-.61h.65v-1.4h.69v1.4H70v.61H68.49v2.72a.7.7,0,0,0,.79.78,1.42,1.42,0,0,0,.67-.17v.6a1.79,1.79,0,0,1-.83.2A1.19,1.19,0,0,1,67.8,86.75Z"/><path class="cls-3" d="M70.5,85.67v0a2.3,2.3,0,0,1,2.23-2.42,2.22,2.22,0,0,1,2.17,2.46,1.77,1.77,0,0,1,0,.23H71.2a1.63,1.63,0,0,0,1.64,1.57,1.92,1.92,0,0,0,1.47-.66l.43.39a2.4,2.4,0,0,1-1.92.87A2.32,2.32,0,0,1,70.5,85.67Zm3.7-.27a1.53,1.53,0,0,0-1.48-1.58A1.61,1.61,0,0,0,71.2,85.4Z"/><path class="cls-3" d="M75.58,85.67v0a2.28,2.28,0,0,1,2.22-2.42,2.09,2.09,0,0,1,1.78,1V81.41h.7V88h-.7v-.94a2.06,2.06,0,0,1-1.78,1A2.26,2.26,0,0,1,75.58,85.67Zm4,0v0a1.73,1.73,0,0,0-1.68-1.79,1.65,1.65,0,0,0-1.64,1.79v0a1.68,1.68,0,0,0,1.64,1.8A1.74,1.74,0,0,0,79.61,85.66Z"/><g class="cls-4"><line class="cls-5" x1="15.54" y1="31.83" x2="74.46" y2="31.83"/><polyline class="cls-6" points="28.15 47.93 27.9 47.93 27.9 48.18"/><path class="cls-7" d="M27.9,50v5.32c0,1.12,2.6,2,5.8,2s5.81-.91,5.81-2V49.08"/><polyline class="cls-6" points="39.51 48.18 39.51 47.93 39.26 47.93"/><line class="cls-8" x1="37.44" y1="47.93" x2="29.06" y2="47.93"/><path class="cls-5" d="M26.11,46v.73c0,1.46,3.4,2.65,7.59,2.65s7.6-1.19,7.6-2.65V46"/><ellipse class="cls-5" cx="33.7" cy="45.62" rx="7.59" ry="2.66"/><ellipse class="cls-3" cx="33.69" cy="45.62" rx="3.1" ry="1.08"/><ellipse class="cls-3" cx="30.2" cy="44.45" rx="0.66" ry="0.23"/><ellipse class="cls-3" cx="30.2" cy="46.79" rx="0.66" ry="0.23"/><ellipse class="cls-3" cx="37.17" cy="44.45" rx="0.66" ry="0.23"/><ellipse class="cls-3" cx="37.17" cy="46.79" rx="0.66" ry="0.23"/><polygon class="cls-3" points="31.73 39.58 32.88 39.58 32.88 38.08 34.53 38.08 34.53 39.58 35.68 39.58 33.71 42.43 31.73 39.58"/><path class="cls-5" d="M39.52-23.08V36.57a1,1,0,0,1-.32.72c-.52.47-1.9,1.13-5.51,1.13s-5.09-.71-5.57-1.18a.92.92,0,0,1-.27-.67V-23.08"/><path class="cls-5" d="M32.18,26.66h3a0,0,0,0,1,0,0v.79a1.09,1.09,0,0,1-1.09,1.09h-.84a1.09,1.09,0,0,1-1.09-1.09v-.79A0,0,0,0,1,32.18,26.66Z"/><path class="cls-5" d="M38.61-24.47V25.6a1,1,0,0,1-.62.93,11.81,11.81,0,0,1-4.3.53,11.84,11.84,0,0,1-4.31-.53,1,1,0,0,1-.62-.93V-24.47"/><ellipse class="cls-3" cx="57.26" cy="45.62" rx="3.1" ry="1.08"/><ellipse class="cls-3" cx="53.78" cy="44.45" rx="0.66" ry="0.23"/><ellipse class="cls-3" cx="53.78" cy="46.79" rx="0.66" ry="0.23"/><ellipse class="cls-3" cx="60.75" cy="44.45" rx="0.66" ry="0.23"/><ellipse class="cls-3" cx="60.75" cy="46.79" rx="0.66" ry="0.23"/><polygon class="cls-3" points="55.3 39.58 56.46 39.58 56.46 38.08 58.11 38.08 58.11 39.58 59.26 39.58 57.28 42.43 55.3 39.58"/><path class="cls-5" d="M63.1-23.08V36.57a1,1,0,0,1-.32.72c-.52.47-1.9,1.13-5.52,1.13s-5.09-.71-5.57-1.18a1,1,0,0,1-.26-.67V-23.08"/><path class="cls-5" d="M55.76,26.66h3a0,0,0,0,1,0,0v.79a1.09,1.09,0,0,1-1.09,1.09h-.84a1.09,1.09,0,0,1-1.09-1.09v-.79A0,0,0,0,1,55.76,26.66Z"/><path class="cls-5" d="M62.19-24.47V25.6a1,1,0,0,1-.62.93,11.84,11.84,0,0,1-4.31.53,11.81,11.81,0,0,1-4.3-.53,1,1,0,0,1-.62-.93V-24.47"/><path class="cls-3" d="M47.06,52l.13.13,1,1.11a1,1,0,0,0,1,.33l5.83,5,.59-.68-5.84-5a1.07,1.07,0,0,0-.48-1l-1.28-.81-.16-.1Z"/><path class="cls-9" d="M55,58.44l-.38.45a.28.28,0,0,0,0,.39l.06,0,0,0h.16l0,.06a.15.15,0,0,0,0,.22l4.88,4.15a1.3,1.3,0,0,0,1.8.07l.47-.54a1.31,1.31,0,0,0-.37-1.76l-4.88-4.16a.14.14,0,0,0-.21,0l-.08.09h0a0,0,0,0,0,0,0h0v0h0v0h0v0h0v0h0l-.06-.06a.26.26,0,0,0-.36,0l-.22.26-.14.17h0l-.59.68Z"/><path class="cls-3" d="M60.93,63.25a.35.35,0,0,1,.09.48.36.36,0,0,1-.5,0l-4.88-4.15a.36.36,0,0,1-.09-.49.37.37,0,0,1,.5,0Z"/><path class="cls-3" d="M61.46,62.18a.31.31,0,0,1,.09.43.31.31,0,0,1-.44,0l-4.45-3.79a.33.33,0,0,1-.09-.44.34.34,0,0,1,.45,0Z"/></g></svg>