<svg id="Layer_1" data-name="Layer 1" xmlns="http://www.w3.org/2000/svg" xmlns:xlink="http://www.w3.org/1999/xlink" viewBox="0 0 90 100"><defs><style>.cls-1,.cls-11,.cls-12,.cls-13,.cls-5,.cls-6,.cls-8,.cls-9{fill:none;}.cls-2,.cls-7{fill:#fff;}.cls-12,.cls-13,.cls-2{stroke:#74af27;}.cls-11,.cls-2,.cls-6,.cls-9{stroke-miterlimit:10;}.cls-3{clip-path:url(#clip-path);}.cls-4{fill:#74af27;}.cls-11,.cls-5,.cls-6,.cls-8,.cls-9{stroke:#fff;}.cls-12,.cls-13,.cls-5,.cls-8{stroke-linecap:round;stroke-linejoin:round;}.cls-5,.cls-6{stroke-width:0.26px;}.cls-8{stroke-width:0.43px;}.cls-9{stroke-width:0.17px;}.cls-10{clip-path:url(#clip-path-2);}.cls-11{stroke-width:0.86px;}.cls-12{stroke-width:0.4px;}.cls-13{stroke-width:0.46px;}</style><clipPath id="clip-path"><circle class="cls-1" cx="44.94" cy="37.61" r="28.25"/></clipPath><clipPath id="clip-path-2"><rect class="cls-1" x="39.82" y="39.59" width="2.63" height="5.34"/></clipPath></defs><title>EV-Location-DCRapidCharging</title><circle class="cls-2" cx="45.06" cy="37.82" r="28.25"/><g class="cls-3"><path class="cls-4" d="M52.07,25.85h1.32a2.21,2.21,0,0,1,.74.12,1.85,1.85,0,0,1,.57.36,1.64,1.64,0,0,1,.5,1.2h0a1.63,1.63,0,0,1-.13.67,1.58,1.58,0,0,1-.37.54,1.68,1.68,0,0,1-.57.36,2,2,0,0,1-.74.13H52.07Zm1.32,2.72a1.32,1.32,0,0,0,.42-.07.81.81,0,0,0,.32-.21,1,1,0,0,0,.21-.32,1.12,1.12,0,0,0,.08-.42h0a1.15,1.15,0,0,0-.08-.41,1,1,0,0,0-.21-.32.81.81,0,0,0-.32-.21,1.08,1.08,0,0,0-.42-.08h-.57v2.05Z"/><path class="cls-4" d="M57.31,29.3a1.73,1.73,0,0,1-.69-.13,1.85,1.85,0,0,1-.56-.38,1.74,1.74,0,0,1-.49-1.24h0a1.72,1.72,0,0,1,.13-.68,1.92,1.92,0,0,1,.36-.56,1.76,1.76,0,0,1,.56-.37,1.71,1.71,0,0,1,.72-.14,2.06,2.06,0,0,1,.44,0,1.61,1.61,0,0,1,.35.1,1.46,1.46,0,0,1,.3.17,1.64,1.64,0,0,1,.25.21l-.47.55a2,2,0,0,0-.41-.28,1,1,0,0,0-.46-.1.87.87,0,0,0-.4.08.79.79,0,0,0-.31.23,1,1,0,0,0-.21.33,1.41,1.41,0,0,0-.07.41h0a1.42,1.42,0,0,0,.07.42,1.08,1.08,0,0,0,.21.34.93.93,0,0,0,.31.23,1,1,0,0,0,.4.08,1,1,0,0,0,.49-.1,2.09,2.09,0,0,0,.4-.3l.48.48a2.27,2.27,0,0,1-.28.26,1.53,1.53,0,0,1-.3.19,2.29,2.29,0,0,1-.37.12A2,2,0,0,1,57.31,29.3Z"/><path class="cls-4" d="M49.56,31.42a.71.71,0,0,1-.26,0,.62.62,0,0,1-.19-.12.45.45,0,0,1-.12-.2.78.78,0,0,1-.05-.28V30h.25v.82a.46.46,0,0,0,.1.31.37.37,0,0,0,.27.11.41.41,0,0,0,.27-.1.46.46,0,0,0,.1-.31V30h.25v.82a.78.78,0,0,1,0,.28.61.61,0,0,1-.12.21.56.56,0,0,1-.2.12A.66.66,0,0,1,49.56,31.42Z"/><path class="cls-4" d="M50.46,30h.26v1.22h.76v.23h-1Z"/><path class="cls-4" d="M52,30.19h-.45V30h1.17v.24h-.46V31.4H52Z"/><path class="cls-4" d="M53,30h.64a.86.86,0,0,1,.24,0,.54.54,0,0,1,.18.11.47.47,0,0,1,.08.14.32.32,0,0,1,0,.17h0a.39.39,0,0,1,0,.16.54.54,0,0,1-.07.13.31.31,0,0,1-.11.09.35.35,0,0,1-.14.06l.39.55h-.3l-.35-.51h-.32v.51H53Zm.62.72a.32.32,0,0,0,.22-.07.21.21,0,0,0,.08-.17h0a.22.22,0,0,0-.08-.18.36.36,0,0,0-.22-.06h-.37v.49Z"/><path class="cls-4" d="M54.9,29.94h.23l.64,1.46H55.5l-.15-.35h-.68l-.15.35h-.26Zm.36.88L55,30.25l-.25.57Z"/><path class="cls-4" d="M56.51,30h1.07v.23h-.82v.4h.73v.23h-.73v.59h-.25Z"/><path class="cls-4" d="M58.31,29.94h.24l.63,1.46h-.26l-.15-.35h-.68l-.15.35h-.26Zm.37.88-.25-.57-.25.57Z"/><path class="cls-4" d="M59.88,31.42a.87.87,0,0,1-.32-.06,1,1,0,0,1-.29-.17l.16-.19a.64.64,0,0,0,.21.14.47.47,0,0,0,.24.05.29.29,0,0,0,.19-.05.14.14,0,0,0,.07-.13h0s0-.05,0-.07l-.05-.06-.1-.05-.17,0-.2-.06a.54.54,0,0,1-.15-.09.23.23,0,0,1-.1-.12.4.4,0,0,1,0-.17h0a.33.33,0,0,1,0-.17.31.31,0,0,1,.1-.13.38.38,0,0,1,.15-.09.64.64,0,0,1,.2,0,.88.88,0,0,1,.29.05.76.76,0,0,1,.23.13l-.13.2a.66.66,0,0,0-.2-.11.43.43,0,0,0-.19,0,.24.24,0,0,0-.18.05.14.14,0,0,0-.06.12h0a.24.24,0,0,0,0,.08.08.08,0,0,0,0,.05l.1.05.17,0,.21.06.14.09a.27.27,0,0,1,.09.12.33.33,0,0,1,0,.15h0a.39.39,0,0,1,0,.18.32.32,0,0,1-.1.13.46.46,0,0,1-.17.09A.64.64,0,0,1,59.88,31.42Z"/><path class="cls-4" d="M61,30.19h-.46V30H61.7v.24h-.46V31.4H61Z"/><path class="cls-4" d="M51.69,33.25a.73.73,0,0,1-.3-.06.7.7,0,0,1-.23-.15A.78.78,0,0,1,51,32.8a.93.93,0,0,1,0-.29h0a.88.88,0,0,1,0-.29.78.78,0,0,1,.16-.24.63.63,0,0,1,.23-.16.81.81,0,0,1,.31-.06.55.55,0,0,1,.18,0l.15,0,.12.07.11.09-.16.19a.8.8,0,0,0-.19-.13.48.48,0,0,0-.22-.05.65.65,0,0,0-.19,0,.58.58,0,0,0-.15.11.86.86,0,0,0-.1.16.69.69,0,0,0,0,.2h0a.69.69,0,0,0,0,.2.86.86,0,0,0,.1.16.42.42,0,0,0,.15.11.43.43,0,0,0,.19,0,.52.52,0,0,0,.23-.05.77.77,0,0,0,.19-.14l.16.17a.58.58,0,0,1-.12.1.57.57,0,0,1-.13.08.52.52,0,0,1-.15.06Z"/><path class="cls-4" d="M52.47,31.78h.26v.6h.69v-.6h.25v1.45h-.25v-.61h-.69v.61h-.26Z"/><path class="cls-4" d="M54.49,31.77h.24l.63,1.46h-.27L55,32.88h-.69l-.14.35h-.27Zm.36.88-.25-.57-.24.57Z"/><path class="cls-4" d="M55.55,31.78h.64a.86.86,0,0,1,.24,0,.54.54,0,0,1,.18.11.34.34,0,0,1,.09.14.47.47,0,0,1,0,.17h0a.38.38,0,0,1,0,.16.54.54,0,0,1-.07.13.31.31,0,0,1-.11.09.35.35,0,0,1-.14.06l.39.55h-.3l-.35-.51H55.8v.51h-.25Zm.62.72a.32.32,0,0,0,.22-.07.21.21,0,0,0,.08-.17h0a.22.22,0,0,0-.08-.18.36.36,0,0,0-.22-.06H55.8v.49Z"/><path class="cls-4" d="M57.66,33.25a1.06,1.06,0,0,1-.31,0,.63.63,0,0,1-.23-.16A.61.61,0,0,1,57,32.8a.68.68,0,0,1-.06-.29h0a.72.72,0,0,1,.06-.29.61.61,0,0,1,.15-.24.78.78,0,0,1,.24-.16.73.73,0,0,1,.3-.06h.17l.14,0,.13.06a.48.48,0,0,1,.11.09l-.16.19a.27.27,0,0,0-.08-.07l-.09,0-.11,0h-.12a.58.58,0,0,0-.19,0l-.14.11a.37.37,0,0,0-.1.17.41.41,0,0,0,0,.19h0a.64.64,0,0,0,0,.2.69.69,0,0,0,.1.17.54.54,0,0,0,.16.1.45.45,0,0,0,.2,0,.58.58,0,0,0,.19,0,.48.48,0,0,0,.16-.08v-.27h-.37v-.22h.61V33a.36.36,0,0,1-.12.08l-.14.08-.16.05Z"/><path class="cls-4" d="M58.53,31.78H59.6V32h-.82v.37h.73v.23h-.73V33h.83v.23H58.53Z"/><path class="cls-4" d="M24.16,22.38a2.34,2.34,0,0,1,.44-1.56l2.52-2.68A1,1,0,0,1,28,18l13.92,1.32s.66,0,.57.74l0,33.8s0,.74-.64.73h-.38v1.58L27.38,57.53l-2.59-2.92,0-1.38-.31-.29s-.39-.25-.37-1.32Z"/><path class="cls-5" d="M27.6,57.13V18.51s0-.3-.11-.38"/><polygon class="cls-6" points="37.55 30.41 37.55 35.35 40.52 35.33 40.52 30.49 37.55 30.41"/><polygon class="cls-6" points="37.9 32.66 37.9 34.08 40.2 34.12 40.2 32.7 37.9 32.66"/><circle class="cls-7" cx="39.07" cy="31.61" r="0.21"/><path class="cls-7" d="M39.58,31.14a0,0,0,0,1,0,0,.05.05,0,0,1,.08,0l.12.14a.62.62,0,0,1,.11.33.73.73,0,0,1-.23.55.06.06,0,0,1-.08,0,0,0,0,0,1,0-.07.69.69,0,0,0,.21-.47.71.71,0,0,0-.1-.28l-.1-.12Zm-.12.16a.39.39,0,0,1,0,.62.05.05,0,0,0,0,.08,0,0,0,0,0,.07,0,.53.53,0,0,0,.18-.41.52.52,0,0,0-.18-.37,0,0,0,0,0-.07,0s0,0,0,0A.05.05,0,0,0,39.46,31.3Zm-.14.13a.2.2,0,0,1,.09.16.23.23,0,0,1-.1.21,0,0,0,0,0,0,.07.06.06,0,0,0,.08,0,.36.36,0,0,0,.13-.3.32.32,0,0,0-.14-.24,0,0,0,0,0-.07,0s0,0,0,0A.08.08,0,0,0,39.32,31.43Z"/><path class="cls-7" d="M38.55,32.08a.05.05,0,0,1,0,0,0,0,0,0,1-.07,0,.56.56,0,0,1-.12-.15.7.7,0,0,1-.12-.33.72.72,0,0,1,.24-.55.06.06,0,0,1,.08.08.58.58,0,0,0-.21.46.61.61,0,0,0,.1.28.33.33,0,0,0,.1.12A.08.08,0,0,1,38.55,32.08Zm.11-.16a.49.49,0,0,1-.14-.29.45.45,0,0,1,.15-.33,0,0,0,0,0,0-.07.05.05,0,0,0-.08,0,.61.61,0,0,0-.18.41.53.53,0,0,0,.18.36.06.06,0,0,0,.08,0,.06.06,0,0,0,0,0A0,0,0,0,0,38.66,31.92Zm.14-.13a.23.23,0,0,1-.09-.15.25.25,0,0,1,.1-.21.06.06,0,0,0,0-.08.06.06,0,0,0-.08,0,.36.36,0,0,0-.14.3.41.41,0,0,0,.15.24.07.07,0,0,0,.07,0s0,0,0,0A.05.05,0,0,0,38.8,31.79Z"/><ellipse class="cls-7" cx="38.06" cy="34.86" rx="0.19" ry="0.22"/><ellipse class="cls-7" cx="38.56" cy="34.86" rx="0.19" ry="0.22"/><ellipse class="cls-7" cx="39.06" cy="34.88" rx="0.19" ry="0.22"/><ellipse class="cls-7" cx="40.07" cy="34.9" rx="0.19" ry="0.22"/><ellipse class="cls-7" cx="39.57" cy="34.88" rx="0.19" ry="0.22"/><ellipse class="cls-6" cx="39.82" cy="37.9" rx="0.92" ry="0.99"/><ellipse class="cls-7" cx="39.82" cy="37.88" rx="0.35" ry="0.37"/><path class="cls-6" d="M39.6,40.31l.59,0a.9.9,0,0,1,.57,1A.82.82,0,0,1,40,42s-.77.11-.87-.83A.91.91,0,0,1,39.6,40.31Z"/><path class="cls-5" d="M36.7,29l3.82.18a1.23,1.23,0,0,1,1.26,1.45V41.15a2.7,2.7,0,0,1-.34,1.6l-2.88,4.56V36.91H36.7Z"/><path class="cls-7" d="M29,21.44h-.33a.27.27,0,0,1-.27-.27v-.94l.88.07v.87A.28.28,0,0,1,29,21.44Z"/><path class="cls-7" d="M32.67,21.72h-.33a.28.28,0,0,1-.28-.27v-.94l.88.07v.87A.27.27,0,0,1,32.67,21.72Z"/><path class="cls-7" d="M36.23,22.05h-.32a.28.28,0,0,1-.28-.27v-.94l.88.07v.87A.27.27,0,0,1,36.23,22.05Z"/><path class="cls-8" d="M28.8,21.34l-.06,24.55s0,7.42-.08,8.56c0,0-.32,2.58,1.09,2.37,0,0,1.54,0,1.05-2.62a30.61,30.61,0,0,1-.14-4.5s.27-2.62.44-4c0,0,.64-8.27.2-10.17"/><path class="cls-8" d="M34.74,35.21a23.53,23.53,0,0,1,.41,5.85,37.21,37.21,0,0,1-.53,5.5,19.47,19.47,0,0,0-.41,5.52l.19,2.39s.46,2-1,2.08c0,0-1.23.33-1.25-1.9,0,0,.29-4.33.25-6,0,0,0-6.31,0-6.71l0-6.23.12-14.15"/><path class="cls-8" d="M37.9,40.85s0,4.07-.09,6.91c0,0,0,2.42,0,4.1,0,0,.41,4.17-1,4.24,0,0-1.34.36-1.13-2.59,0,0,.15-2.09.14-3.51,0,0,0-5.15,0-5.67L36,21.62"/><polyline class="cls-5" points="41.22 54.48 27.6 55.7 25 53.33"/><polyline class="cls-6" points="31.42 35.4 31.42 36.51 29.23 36.51 29.23 30.71 31.42 30.8 31.42 32.45"/><path class="cls-7" d="M29.9,32.48a.78.78,0,0,1,.76-.76.85.85,0,0,1,.65.38l.21.25a.57.57,0,0,0,.21.18s.14,0,.14.21v.2s0,.14-.06.15L32,34.81s.07.3-.09.44l-.4.56h-.27s-.47-.12-.49-.49l-.07-1.49a1.07,1.07,0,0,0-.4-.64A1.07,1.07,0,0,1,29.9,32.48Zm1.32.91.11,1.72.2-.19s.11-.06.07-.25l-.08-1.13S31.53,33.39,31.22,33.39Z"/><ellipse class="cls-6" cx="30.51" cy="32.31" rx="0.94" ry="1"/><polyline class="cls-6" points="34.99 35.4 34.99 36.51 32.8 36.51 32.8 30.71 34.99 30.8 34.99 32.45"/><path class="cls-7" d="M33.47,32.48a.78.78,0,0,1,.76-.76.85.85,0,0,1,.65.38l.21.25a.57.57,0,0,0,.21.18s.14,0,.14.21v.2s0,.14-.06.15l.14,1.72s.07.3-.09.44l-.4.56h-.27s-.47-.12-.49-.49l-.07-1.49a1.07,1.07,0,0,0-.4-.64A1.07,1.07,0,0,1,33.47,32.48Zm1.32.91.11,1.72.2-.19s.11-.06.07-.25l-.08-1.13S35.1,33.39,34.79,33.39Z"/><ellipse class="cls-6" cx="34.08" cy="32.31" rx="0.94" ry="1"/><path class="cls-7" d="M38.25,41a1,1,0,0,1-.67.16l-.22-.53v-.09l-.1-.05A4.8,4.8,0,0,1,36.88,39s0-.16-.27-.34l-.26-.47a.66.66,0,0,1,.55-.47l.32-.09a.31.31,0,0,1,.38.15l.3.44a.92.92,0,0,1,.07.46,4.17,4.17,0,0,0,.19,1s0,.37,0,.67Z"/><path class="cls-9" d="M36.32,37.8l.12.24.62-.23h.35l-.21-.29s-.07-.19-.39-.09l-.32.09S36.23,37.62,36.32,37.8Z"/><g class="cls-10"><path class="cls-11" d="M43.13,44.81c-.36-2.71-1.13-3.66-1.83-3.66H39.94"/></g><path class="cls-12" d="M78.51,54.48s3.41-3.16.84-6.38c0,0-1.18-2.13-8.39-3.8a14.76,14.76,0,0,1-4-1.78c-1.28-1.06-2.76-1.77-6.26-2.19a67.36,67.36,0,0,0-6.82-.46s-5.74-.59-7.37,3.57a16.27,16.27,0,0,0-.79,4.6v2.18s.23,2-1,2.13c0,0-1.34.23-1.4-2V49.12s.22-8-2.05-8H39.94"/><line class="cls-12" x1="68.22" y1="55.06" x2="56.43" y2="55.06"/><ellipse class="cls-12" cx="73.16" cy="52.36" rx="3.98" ry="4.1"/><ellipse class="cls-12" cx="51.42" cy="52.36" rx="3.98" ry="4.1"/><path class="cls-4" d="M62.45,32.42a.74.74,0,0,0-1,.19l-.28.37a.76.76,0,0,0-.13.69.75.75,0,0,0,1.29.23,4.71,4.71,0,0,0,.33-.45A.74.74,0,0,0,62.45,32.42Z"/><path class="cls-4" d="M63.43,29.7a.75.75,0,0,0-.91.52c0,.15-.08.31-.13.45a.72.72,0,0,0,.46.94.74.74,0,0,0,.94-.46,5.52,5.52,0,0,0,.16-.54A.74.74,0,0,0,63.43,29.7Z"/><path class="cls-4" d="M52,35.92a.74.74,0,0,0-.34-1l-.41-.22a.76.76,0,0,0-.7,0,.69.69,0,0,0-.31.3.73.73,0,0,0,.27,1l.49.26A.74.74,0,0,0,52,35.92Z"/><path class="cls-4" d="M54.85,36.51a.74.74,0,0,0-.65-.83l-.46-.07a.78.78,0,0,0-.46.06.76.76,0,0,0-.41.54.75.75,0,0,0,.6.86l.55.08A.74.74,0,0,0,54.85,36.51Z"/><path class="cls-4" d="M51.13,21.49a.49.49,0,0,1,.16-.54l2.28-1.86a7.13,7.13,0,0,0-.8.18h-.05l-.2.06-.34.1,0,0a9.12,9.12,0,0,0-4.46,3.34l0,0c-.1.15-.21.3-.31.46v0l-.29.49a9.18,9.18,0,0,0-1,5.5h0a8.92,8.92,0,0,0,.32,1.5,9.15,9.15,0,0,0,1.94,3.47.74.74,0,0,0,1.11-1,7.56,7.56,0,0,1-1.12-1.64v0c-.07-.14-.14-.29-.2-.43h0a8,8,0,0,1-.29-.82,7.75,7.75,0,0,1,2.83-8.47l.12-.08c.14-.1.31-.18.46-.27A.35.35,0,0,1,51.13,21.49Z"/><path class="cls-4" d="M64.89,25l-1,.31A9.13,9.13,0,0,0,59.52,20c-.21-.11-.42-.22-.64-.31h0l0,0a9.94,9.94,0,0,0-2-.6l-.37.66,1.21.07a.5.5,0,0,1,.29.88l-.23.18a7.68,7.68,0,0,1,4,3.32h0a.31.31,0,0,1,0,.1h0a8.17,8.17,0,0,1,.63,1.41l-1,.3c-.27.08-.29.28-.06.43l2.12,1.37a.41.41,0,0,0,.63-.19l1-2.33C65.3,25.06,65.16,24.91,64.89,25Z"/><path class="cls-4" d="M58,36.12a.75.75,0,0,0-.89-.55,3.73,3.73,0,0,1-.46.09.76.76,0,0,0-.55.43.78.78,0,0,0-.06.43.74.74,0,0,0,.86.6,5.35,5.35,0,0,0,.55-.11A.74.74,0,0,0,58,36.12Z"/><path class="cls-4" d="M60.52,34.77a.74.74,0,0,0-1-.22l-.4.24a.74.74,0,1,0,.72,1.29l.48-.29A.72.72,0,0,0,60.52,34.77Z"/><polygon class="cls-4" points="51.6 21.34 53.6 21.45 51.32 25.53 57.69 20.34 55.69 20.23 57.97 16.15 51.6 21.34"/><line class="cls-13" x1="40.93" y1="58.06" x2="64.8" y2="58.06"/><line class="cls-13" x1="34.35" y1="62.46" x2="58.22" y2="62.46"/></g><path class="cls-4" d="M25.57,70.71h2.18a3.14,3.14,0,0,1,3.35,3.13v0A3.15,3.15,0,0,1,27.75,77H25.57Zm.71.66v5h1.47a2.44,2.44,0,0,0,2.62-2.47v0a2.45,2.45,0,0,0-2.62-2.49Z"/><path class="cls-4" d="M32.06,73.88v0a3.17,3.17,0,0,1,3.18-3.26,3.29,3.29,0,0,1,2.46,1l-.49.52a2.74,2.74,0,0,0-2-.86,2.47,2.47,0,0,0-2.44,2.58v0a2.49,2.49,0,0,0,2.44,2.6,2.72,2.72,0,0,0,2-.91l.47.46a3.28,3.28,0,0,1-2.52,1.11A3.14,3.14,0,0,1,32.06,73.88Z"/><path class="cls-4" d="M41.14,70.71h2.71a2.48,2.48,0,0,1,1.79.63,1.76,1.76,0,0,1,.49,1.24v0a1.86,1.86,0,0,1-1.72,1.84L46.35,77h-.87l-1.83-2.45h-1.8V77h-.71Zm2.64,3.21c.95,0,1.62-.48,1.62-1.29v0c0-.78-.59-1.24-1.61-1.24H41.85v2.55Z"/><path class="cls-4" d="M46.91,75.66v0c0-1,.81-1.5,2-1.5a4.88,4.88,0,0,1,1.43.2v-.17c0-.83-.52-1.27-1.39-1.27a3.19,3.19,0,0,0-1.41.35l-.21-.57A3.9,3.9,0,0,1,49,72.29a2,2,0,0,1,1.51.52A1.84,1.84,0,0,1,51,74.17V77h-.66v-.7a2.07,2.07,0,0,1-1.69.8A1.57,1.57,0,0,1,46.91,75.66Zm3.43-.36v-.45a4.91,4.91,0,0,0-1.37-.2c-.88,0-1.36.38-1.36,1v0c0,.59.54.93,1.17.93A1.41,1.41,0,0,0,50.34,75.3Z"/><path class="cls-4" d="M52.2,72.36h.69v.93a2.09,2.09,0,0,1,1.78-1,2.27,2.27,0,0,1,2.23,2.41v0a2.28,2.28,0,0,1-2.23,2.42,2.11,2.11,0,0,1-1.78-1v2.33H52.2Zm4,2.34v0a1.68,1.68,0,0,0-1.64-1.8,1.74,1.74,0,0,0-1.69,1.79v0a1.73,1.73,0,0,0,1.69,1.8A1.65,1.65,0,0,0,56.19,74.7Z"/><path class="cls-4" d="M57.92,70.57h.79v.77h-.79Zm0,1.79h.69V77H58Z"/><path class="cls-4" d="M59.73,74.7v0A2.28,2.28,0,0,1,62,72.26a2.11,2.11,0,0,1,1.79,1V70.44h.69V77h-.69v-.94a2.1,2.1,0,0,1-1.79,1A2.27,2.27,0,0,1,59.73,74.7Zm4,0v0a1.73,1.73,0,0,0-1.68-1.79,1.64,1.64,0,0,0-1.64,1.79v0a1.68,1.68,0,0,0,1.64,1.8A1.74,1.74,0,0,0,63.76,74.69Z"/><path class="cls-4" d="M26.14,84.88v0a3.17,3.17,0,0,1,3.18-3.26,3.29,3.29,0,0,1,2.46,1l-.48.52a2.78,2.78,0,0,0-2-.86,2.46,2.46,0,0,0-2.44,2.58v0a2.48,2.48,0,0,0,2.44,2.6,2.71,2.71,0,0,0,2-.91l.47.46a3.28,3.28,0,0,1-2.52,1.11A3.14,3.14,0,0,1,26.14,84.88Z"/><path class="cls-4" d="M32.67,81.44h.7v2.73A1.74,1.74,0,0,1,35,83.26a1.7,1.7,0,0,1,1.78,1.86V88h-.69V85.29a1.24,1.24,0,0,0-1.29-1.4,1.36,1.36,0,0,0-1.39,1.46V88h-.7Z"/><path class="cls-4" d="M37.59,86.66v0c0-1,.81-1.5,2-1.5a4.78,4.78,0,0,1,1.43.2v-.17c0-.83-.51-1.27-1.38-1.27a3.27,3.27,0,0,0-1.42.35l-.2-.57a3.9,3.9,0,0,1,1.69-.39,2,2,0,0,1,1.5.52,1.8,1.8,0,0,1,.48,1.36V88H41v-.7a2,2,0,0,1-1.68.8A1.58,1.58,0,0,1,37.59,86.66ZM41,86.3v-.45a4.78,4.78,0,0,0-1.36-.2c-.88,0-1.36.38-1.36,1v0c0,.59.54.93,1.17.93A1.4,1.4,0,0,0,41,86.3Z"/><path class="cls-4" d="M42.89,83.36h.69v1.21a2,2,0,0,1,1.9-1.3V84h0a1.88,1.88,0,0,0-1.85,2.14V88h-.69Z"/><path class="cls-4" d="M46,88.82l.31-.54a3,3,0,0,0,1.79.59,1.53,1.53,0,0,0,1.7-1.65v-.55a2.22,2.22,0,0,1-1.83,1,2.15,2.15,0,0,1-2.19-2.18v0A2.16,2.16,0,0,1,48,83.26a2.2,2.2,0,0,1,1.82.93v-.83h.69V87.2a2.28,2.28,0,0,1-.59,1.65,2.49,2.49,0,0,1-1.78.62A3.66,3.66,0,0,1,46,88.82Zm3.81-3.36v0a1.62,1.62,0,0,0-1.71-1.57,1.54,1.54,0,0,0-1.61,1.57h0A1.58,1.58,0,0,0,48.12,87,1.64,1.64,0,0,0,49.83,85.46Z"/><path class="cls-4" d="M51.8,81.57h.79v.77H51.8Zm0,1.79h.69V88h-.69Z"/><path class="cls-4" d="M53.88,83.36h.69v.81a1.74,1.74,0,0,1,1.59-.91,1.69,1.69,0,0,1,1.78,1.86V88h-.69V85.29A1.24,1.24,0,0,0,56,83.89a1.36,1.36,0,0,0-1.39,1.46V88h-.69Z"/><path class="cls-4" d="M59.09,88.82l.32-.54a3,3,0,0,0,1.79.59,1.52,1.52,0,0,0,1.69-1.65v-.55a2.19,2.19,0,0,1-1.82,1,2.15,2.15,0,0,1-2.19-2.18v0a2.2,2.2,0,0,1,4-1.26v-.83h.7V87.2a2.25,2.25,0,0,1-.6,1.65,2.45,2.45,0,0,1-1.77.62A3.71,3.71,0,0,1,59.09,88.82Zm3.82-3.36v0a1.63,1.63,0,0,0-1.71-1.57,1.54,1.54,0,0,0-1.61,1.57h0A1.58,1.58,0,0,0,61.2,87,1.64,1.64,0,0,0,62.91,85.46Z"/></svg>