<svg id="Layer_1" data-name="Layer 1" xmlns="http://www.w3.org/2000/svg" xmlns:xlink="http://www.w3.org/1999/xlink" viewBox="0 0 120 100"><defs><style>.cls-1,.cls-6,.cls-9{fill:none;}.cls-2,.cls-7{fill:#74af27;}.cls-3,.cls-5,.cls-8{fill:#fff;}.cls-4{clip-path:url(#clip-path);}.cls-5,.cls-6,.cls-9{stroke:#74af27;}.cls-5,.cls-6{stroke-linecap:round;stroke-linejoin:round;stroke-width:0.67px;}.cls-7,.cls-8{fill-rule:evenodd;}.cls-9{stroke-miterlimit:10;}</style><clipPath id="clip-path"><circle class="cls-1" cx="60" cy="37.97" r="28.35"/></clipPath></defs><title>EV-Location-IdealForPrivateResidentialDevelopments</title><path class="cls-2" d="M26.51,70.68h.71V77h-.71Z"/><path class="cls-2" d="M28.41,74.67v0a2.28,2.28,0,0,1,2.22-2.42,2.11,2.11,0,0,1,1.79,1V70.41h.69V77h-.69v-.94a2.09,2.09,0,0,1-1.79,1A2.27,2.27,0,0,1,28.41,74.67Zm4,0h0a1.73,1.73,0,0,0-1.68-1.8,1.65,1.65,0,0,0-1.64,1.8h0a1.68,1.68,0,0,0,1.64,1.8A1.73,1.73,0,0,0,32.44,74.66Z"/><path class="cls-2" d="M34.1,74.67v0a2.29,2.29,0,0,1,2.23-2.42,2.22,2.22,0,0,1,2.17,2.46,1.77,1.77,0,0,1,0,.23H34.8a1.63,1.63,0,0,0,1.64,1.57,1.92,1.92,0,0,0,1.47-.66l.43.39a2.42,2.42,0,0,1-1.92.87A2.31,2.31,0,0,1,34.1,74.67Zm3.7-.27a1.53,1.53,0,0,0-1.49-1.58A1.6,1.6,0,0,0,34.8,74.4Z"/><path class="cls-2" d="M39.09,75.64v0c0-1,.81-1.51,2-1.51a4.78,4.78,0,0,1,1.43.2v-.16c0-.84-.51-1.27-1.38-1.27a3.27,3.27,0,0,0-1.42.34l-.2-.56a3.76,3.76,0,0,1,1.69-.39,2,2,0,0,1,1.5.51,1.83,1.83,0,0,1,.48,1.36V77h-.67v-.71a2,2,0,0,1-1.68.8A1.57,1.57,0,0,1,39.09,75.64Zm3.43-.36v-.45a4.78,4.78,0,0,0-1.36-.2c-.88,0-1.36.38-1.36,1v0c0,.58.54.93,1.17.93A1.41,1.41,0,0,0,42.52,75.28Z"/><path class="cls-2" d="M44.45,70.41h.69V77h-.69Z"/><path class="cls-2" d="M49,70.68h4.53v.66H49.74v2.25h3.41v.65H49.74V77H49Z"/><path class="cls-2" d="M54.12,74.68v0a2.43,2.43,0,0,1,4.85,0h0a2.41,2.41,0,0,1-2.43,2.43A2.38,2.38,0,0,1,54.12,74.68Zm4.14,0v0a1.76,1.76,0,0,0-1.72-1.82,1.73,1.73,0,0,0-1.71,1.81h0a1.75,1.75,0,0,0,1.72,1.81A1.72,1.72,0,0,0,58.26,74.68Z"/><path class="cls-2" d="M60,72.33h.69v1.22a2,2,0,0,1,1.9-1.3V73h-.06a1.88,1.88,0,0,0-1.84,2.13V77H60Z"/><path class="cls-2" d="M65.88,70.68h2.36c1.42,0,2.35.76,2.35,2v0c0,1.36-1.13,2.06-2.47,2.06H66.59V77h-.71Zm2.27,3.43c1,0,1.72-.55,1.72-1.38v0c0-.9-.67-1.37-1.69-1.37H66.59v2.77Z"/><path class="cls-2" d="M71.5,72.33h.7v1.22a2,2,0,0,1,1.89-1.3V73h0a1.87,1.87,0,0,0-1.84,2.13V77h-.7Z"/><path class="cls-2" d="M74.89,70.55h.8v.76h-.8Zm0,1.78h.69V77h-.69Z"/><path class="cls-2" d="M76.51,72.33h.77l1.57,3.86,1.57-3.86h.75l-2,4.69h-.61Z"/><path class="cls-2" d="M81.41,75.64v0c0-1,.81-1.51,2-1.51a4.83,4.83,0,0,1,1.43.2v-.16c0-.84-.51-1.27-1.38-1.27a3.23,3.23,0,0,0-1.42.34l-.21-.56a3.8,3.8,0,0,1,1.7-.39,2,2,0,0,1,1.5.51,1.83,1.83,0,0,1,.48,1.36V77h-.67v-.71a2,2,0,0,1-1.68.8A1.56,1.56,0,0,1,81.41,75.64Zm3.43-.36v-.45a4.8,4.8,0,0,0-1.37-.2c-.87,0-1.36.38-1.36,1v0c0,.58.54.93,1.17.93A1.41,1.41,0,0,0,84.84,75.28Z"/><path class="cls-2" d="M86.9,75.75V72.94h-.65v-.61h.65v-1.4h.69v1.4h1.48v.61H87.59v2.72a.7.7,0,0,0,.79.78,1.42,1.42,0,0,0,.67-.17v.6a1.8,1.8,0,0,1-.84.2A1.19,1.19,0,0,1,86.9,75.75Z"/><path class="cls-2" d="M89.6,74.67v0a2.29,2.29,0,0,1,2.23-2.42A2.22,2.22,0,0,1,94,74.69a1.77,1.77,0,0,1,0,.23H90.3a1.63,1.63,0,0,0,1.64,1.57,1.92,1.92,0,0,0,1.47-.66l.43.39a2.42,2.42,0,0,1-1.92.87A2.31,2.31,0,0,1,89.6,74.67Zm3.7-.27a1.53,1.53,0,0,0-1.49-1.58A1.6,1.6,0,0,0,90.3,74.4Z"/><path class="cls-2" d="M6,81.68H8.75a2.49,2.49,0,0,1,1.79.63A1.74,1.74,0,0,1,11,83.56h0a1.84,1.84,0,0,1-1.71,1.84L11.25,88h-.87L8.55,85.54H6.75V88H6ZM8.69,84.9c.94,0,1.62-.49,1.62-1.3v0c0-.77-.6-1.24-1.61-1.24H6.75V84.9Z"/><path class="cls-2" d="M11.78,85.67v0A2.3,2.3,0,0,1,14,83.23a2.22,2.22,0,0,1,2.17,2.46,1.77,1.77,0,0,1,0,.23H12.49a1.62,1.62,0,0,0,1.63,1.57,1.92,1.92,0,0,0,1.47-.66l.43.39a2.38,2.38,0,0,1-1.91.87A2.32,2.32,0,0,1,11.78,85.67Zm3.7-.27A1.53,1.53,0,0,0,14,83.82a1.6,1.6,0,0,0-1.51,1.58Z"/><path class="cls-2" d="M16.74,87.39l.35-.49a2.81,2.81,0,0,0,1.62.59c.55,0,1-.29,1-.74v0c0-.46-.55-.64-1.16-.81S17,85.46,17,84.6v0a1.4,1.4,0,0,1,1.58-1.33,3.24,3.24,0,0,1,1.68.51l-.32.53a2.63,2.63,0,0,0-1.38-.45c-.55,0-.9.28-.9.67v0c0,.44.58.61,1.2.8s1.5.5,1.5,1.33v0a1.47,1.47,0,0,1-1.66,1.4A3.22,3.22,0,0,1,16.74,87.39Z"/><path class="cls-2" d="M21.36,81.55h.79v.76h-.79Zm0,1.78h.7V88h-.7Z"/><path class="cls-2" d="M23.17,85.67v0a2.28,2.28,0,0,1,2.22-2.42,2.09,2.09,0,0,1,1.78,1V81.41h.7V88h-.7v-.94a2.06,2.06,0,0,1-1.78,1A2.27,2.27,0,0,1,23.17,85.67Zm4,0h0a1.73,1.73,0,0,0-1.68-1.8,1.65,1.65,0,0,0-1.64,1.8h0a1.68,1.68,0,0,0,1.64,1.8A1.74,1.74,0,0,0,27.2,85.66Z"/><path class="cls-2" d="M28.86,85.67v0a2.29,2.29,0,0,1,2.23-2.42,2.22,2.22,0,0,1,2.17,2.46,1.77,1.77,0,0,1,0,.23H29.56a1.63,1.63,0,0,0,1.64,1.57,1.89,1.89,0,0,0,1.46-.66l.44.39a2.42,2.42,0,0,1-1.92.87A2.31,2.31,0,0,1,28.86,85.67Zm3.7-.27a1.54,1.54,0,0,0-1.49-1.58,1.6,1.6,0,0,0-1.51,1.58Z"/><path class="cls-2" d="M34.2,83.33h.7v.81a1.76,1.76,0,0,1,1.59-.91,1.7,1.7,0,0,1,1.78,1.87V88h-.69V85.27a1.24,1.24,0,0,0-1.29-1.41,1.37,1.37,0,0,0-1.39,1.46V88h-.7Z"/><path class="cls-2" d="M39.72,86.75V83.94h-.65v-.61h.65v-1.4h.69v1.4h1.48v.61H40.41v2.72a.7.7,0,0,0,.79.78,1.42,1.42,0,0,0,.67-.17v.6a1.8,1.8,0,0,1-.84.2A1.19,1.19,0,0,1,39.72,86.75Z"/><path class="cls-2" d="M42.86,81.55h.79v.76h-.79Zm0,1.78h.69V88h-.69Z"/><path class="cls-2" d="M44.59,86.64v0c0-1,.81-1.51,2-1.51a4.88,4.88,0,0,1,1.43.2v-.16c0-.84-.51-1.27-1.39-1.27a3.19,3.19,0,0,0-1.41.34L45,83.66a3.79,3.79,0,0,1,1.69-.39,2.06,2.06,0,0,1,1.51.51,1.87,1.87,0,0,1,.47,1.36V88H48v-.71a2,2,0,0,1-1.68.8A1.56,1.56,0,0,1,44.59,86.64ZM48,86.28v-.45a4.8,4.8,0,0,0-1.37-.2c-.87,0-1.36.38-1.36,1v0c0,.58.54.93,1.17.93A1.41,1.41,0,0,0,48,86.28Z"/><path class="cls-2" d="M49.94,81.41h.7V88h-.7Z"/><path class="cls-2" d="M54.52,81.68h2.19a3.14,3.14,0,0,1,3.35,3.14h0A3.16,3.16,0,0,1,56.71,88H54.52Zm.71.66v5h1.48a2.44,2.44,0,0,0,2.61-2.48v0a2.45,2.45,0,0,0-2.61-2.49Z"/><path class="cls-2" d="M60.89,85.67v0a2.29,2.29,0,0,1,2.23-2.42,2.22,2.22,0,0,1,2.17,2.46,1.77,1.77,0,0,1,0,.23H61.59a1.63,1.63,0,0,0,1.64,1.57,1.92,1.92,0,0,0,1.47-.66l.43.39a2.42,2.42,0,0,1-1.92.87A2.31,2.31,0,0,1,60.89,85.67Zm3.7-.27a1.54,1.54,0,0,0-1.49-1.58,1.6,1.6,0,0,0-1.51,1.58Z"/><path class="cls-2" d="M65.55,83.33h.76l1.57,3.86,1.58-3.86h.74l-2,4.69h-.62Z"/><path class="cls-2" d="M70.46,85.67v0a2.3,2.3,0,0,1,2.24-2.42,2.22,2.22,0,0,1,2.17,2.46,1.77,1.77,0,0,1,0,.23h-3.7a1.63,1.63,0,0,0,1.64,1.57,1.92,1.92,0,0,0,1.47-.66l.43.39a2.4,2.4,0,0,1-1.91.87A2.32,2.32,0,0,1,70.46,85.67Zm3.7-.27a1.53,1.53,0,0,0-1.48-1.58,1.61,1.61,0,0,0-1.52,1.58Z"/><path class="cls-2" d="M75.87,81.41h.69V88h-.69Z"/><path class="cls-2" d="M77.62,85.68v0a2.43,2.43,0,1,1,4.85,0h0A2.42,2.42,0,0,1,80,88.09,2.37,2.37,0,0,1,77.62,85.68Zm4.14,0v0A1.76,1.76,0,0,0,80,83.84a1.72,1.72,0,0,0-1.7,1.81h0a1.75,1.75,0,0,0,1.72,1.81A1.72,1.72,0,0,0,81.76,85.68Z"/><path class="cls-2" d="M83.45,83.33h.69v.94a2.1,2.1,0,0,1,1.78-1,2.27,2.27,0,0,1,2.23,2.42h0a2.28,2.28,0,0,1-2.23,2.42,2.08,2.08,0,0,1-1.78-1v2.34h-.69Zm4,2.34v0a1.68,1.68,0,0,0-1.64-1.8,1.73,1.73,0,0,0-1.68,1.8h0a1.73,1.73,0,0,0,1.68,1.8A1.64,1.64,0,0,0,87.44,85.67Z"/><path class="cls-2" d="M89.16,83.33h.69v.78a1.71,1.71,0,0,1,1.5-.88,1.6,1.6,0,0,1,1.5.93,1.85,1.85,0,0,1,1.63-.93,1.67,1.67,0,0,1,1.73,1.87V88h-.69V85.27c0-.9-.45-1.41-1.21-1.41A1.29,1.29,0,0,0,93,85.3V88h-.7V85.25c0-.87-.46-1.39-1.2-1.39a1.35,1.35,0,0,0-1.29,1.47V88h-.69Z"/><path class="cls-2" d="M97.16,85.67v0a2.29,2.29,0,0,1,2.23-2.42,2.22,2.22,0,0,1,2.17,2.46,1.77,1.77,0,0,1,0,.23H97.86a1.63,1.63,0,0,0,1.64,1.57,1.89,1.89,0,0,0,1.46-.66l.44.39a2.42,2.42,0,0,1-1.92.87A2.31,2.31,0,0,1,97.16,85.67Zm3.7-.27a1.54,1.54,0,0,0-1.49-1.58,1.6,1.6,0,0,0-1.51,1.58Z"/><path class="cls-2" d="M102.5,83.33h.7v.81a1.76,1.76,0,0,1,1.59-.91,1.7,1.7,0,0,1,1.78,1.87V88h-.69V85.27a1.24,1.24,0,0,0-1.29-1.41,1.37,1.37,0,0,0-1.39,1.46V88h-.7Z"/><path class="cls-2" d="M108,86.75V83.94h-.65v-.61H108v-1.4h.69v1.4h1.48v.61h-1.48v2.72a.7.7,0,0,0,.79.78,1.42,1.42,0,0,0,.67-.17v.6a1.8,1.8,0,0,1-.84.2A1.19,1.19,0,0,1,108,86.75Z"/><path class="cls-2" d="M110.75,87.39l.36-.49a2.75,2.75,0,0,0,1.61.59c.56,0,1-.29,1-.74v0c0-.46-.55-.64-1.16-.81S111,85.46,111,84.6v0a1.41,1.41,0,0,1,1.58-1.33,3.24,3.24,0,0,1,1.68.51l-.32.53a2.59,2.59,0,0,0-1.37-.45c-.55,0-.9.28-.9.67v0c0,.44.57.61,1.19.8s1.5.5,1.5,1.33v0a1.47,1.47,0,0,1-1.66,1.4A3.27,3.27,0,0,1,110.75,87.39Z"/><circle class="cls-3" cx="60" cy="37.97" r="28.35"/><g class="cls-4"><rect class="cls-5" x="30.6" y="30.08" width="24.57" height="21.94" rx="1.75"/><path class="cls-6" d="M81.37,50.63s2.45-2.27.6-4.59c0,0-.85-1.53-6-2.73A10.56,10.56,0,0,1,73.08,42c-.92-.76-2-1.27-4.5-1.57a48.92,48.92,0,0,0-4.9-.34s-4.14-.42-5.31,2.57A11.82,11.82,0,0,0,57.81,46v.9a1.46,1.46,0,0,1-1.46,1.53H50.66"/><line class="cls-6" x1="73.97" y1="50.71" x2="65.49" y2="50.71"/><ellipse class="cls-6" cx="77.52" cy="49.11" rx="2.86" ry="2.95"/><ellipse class="cls-6" cx="61.88" cy="49.11" rx="2.86" ry="2.95"/><rect class="cls-6" x="40.51" y="43.31" width="4.74" height="8.71"/><rect class="cls-6" x="34.65" y="34.26" width="5.24" height="5.24" rx="0.49"/><rect class="cls-6" x="45.89" y="34.26" width="5.24" height="5.24" rx="0.1"/><line class="cls-6" x1="115.78" y1="52.05" x2="-3.88" y2="52.05"/><line class="cls-6" x1="18.63" y1="46.99" x2="18.63" y2="52.05"/><path class="cls-5" d="M18.63,32.91c2.14,0,3.41,5.21,3.44,8.1s-.38,4.05-1,5a2.73,2.73,0,0,1-1.89,1h-1a2.75,2.75,0,0,1-1.89-1c-.65-.92-1.08-2.08-1-5S16.48,32.91,18.63,32.91Z"/><path class="cls-5" d="M54.88,31.08h-28a1,1,0,0,1-.84-1.49l2.55-5.41a1,1,0,0,1,.84-.56H52.33a1,1,0,0,1,.84.56l2.55,5.41A1,1,0,0,1,54.88,31.08Z"/><rect class="cls-5" x="45.52" y="20.48" width="2.78" height="5.04" rx="0.77"/><path class="cls-5" d="M33.65,50.07a1.95,1.95,0,0,1-2,2H25.54a2,2,0,0,1-2-2,2,2,0,0,1,2-2h1.12a2,2,0,0,1,2-2,2,2,0,0,1,1.95,2h1.12A2,2,0,0,1,33.65,50.07Z"/><path class="cls-7" d="M52.08,47c0,.17,0,.35,0,.52s0,.35,0,.53,0,.17,0,.25a3.53,3.53,0,0,1,0,.56c0,.18-.05.35-.08.53a.4.4,0,0,1-.22.3,1.08,1.08,0,0,1-.42.16l-.39.05a1.85,1.85,0,0,1-.47,0,3.26,3.26,0,0,1-.53-.09.76.76,0,0,1-.37-.21.4.4,0,0,1-.1-.18,6.46,6.46,0,0,1-.11-.75l0-.44,0-.67c0-.35,0-.69,0-1,0-.15,0-.3,0-.45l0-.55a7.5,7.5,0,0,1,.14-1,.36.36,0,0,1,.2-.25,1.12,1.12,0,0,1,.38-.15l.45-.07h.2a2.84,2.84,0,0,1,.58.05,2,2,0,0,1,.41.13.53.53,0,0,1,.22.2.2.2,0,0,1,0,.08,5.62,5.62,0,0,1,.09.57c0,.16,0,.31,0,.47a1.77,1.77,0,0,1,0,.23c0,.1,0,.21,0,.31C52.09,46.41,52.08,46.69,52.08,47Z"/><path class="cls-8" d="M51.48,48.34V49a.3.3,0,0,1-.13.25.79.79,0,0,1-.41.17,2.3,2.3,0,0,1-.37,0,1.35,1.35,0,0,1-.29,0,.74.74,0,0,1-.36-.19.29.29,0,0,1-.09-.22V47.7a.35.35,0,0,1,.18-.3,1,1,0,0,1,.32-.13,3.54,3.54,0,0,1,.46,0,1.16,1.16,0,0,1,.37.07.53.53,0,0,1,.28.21.33.33,0,0,1,0,.14v.67Zm-1.34-.57a.06.06,0,0,0,0,0v.34c0,.23,0,.46,0,.7a.16.16,0,0,0,.07.13l.06,0a.58.58,0,0,0,.26.06,1.93,1.93,0,0,0,.34,0A.61.61,0,0,0,51.1,49a.16.16,0,0,0,.09-.15c0-.22,0-.43,0-.65,0,0,0,0,0,0v-.37a.07.07,0,0,0,0,0,.2.2,0,0,0-.09-.09.6.6,0,0,0-.19-.06,2,2,0,0,0-.42,0,.57.57,0,0,0-.24.08A.15.15,0,0,0,50.14,47.77Z"/><path class="cls-8" d="M51.48,45.63v.65a.3.3,0,0,1-.13.25.79.79,0,0,1-.41.17,2.3,2.3,0,0,1-.37,0,1.35,1.35,0,0,1-.29,0,.72.72,0,0,1-.36-.18.33.33,0,0,1-.09-.23V45a.35.35,0,0,1,.18-.3,1,1,0,0,1,.32-.13,3.54,3.54,0,0,1,.46,0,1.16,1.16,0,0,1,.37.07.53.53,0,0,1,.28.21.33.33,0,0,1,0,.14v.67Zm-1.34-.57a.06.06,0,0,0,0,0v.34c0,.23,0,.47,0,.7a.15.15,0,0,0,.07.13l.06,0a.58.58,0,0,0,.26.06,1.29,1.29,0,0,0,.34,0,.61.61,0,0,0,.24-.07.16.16,0,0,0,.09-.15c0-.22,0-.43,0-.65,0,0,0,0,0,0v-.37a.07.07,0,0,0,0,0,.2.2,0,0,0-.09-.09.6.6,0,0,0-.19-.06,1.48,1.48,0,0,0-.42,0,.55.55,0,0,0-.24.07A.15.15,0,0,0,50.14,45.06Z"/></g><circle class="cls-9" cx="60" cy="37.97" r="28.35"/></svg>