<svg id="Layer_1" data-name="Layer 1" xmlns="http://www.w3.org/2000/svg" viewBox="0 0 90 100"><defs><style>.cls-1,.cls-3,.cls-4,.cls-5{fill:#fff;}.cls-1,.cls-5,.cls-6,.cls-7{stroke:#74af27;}.cls-1,.cls-4{stroke-miterlimit:10;}.cls-2{fill:#74af27;}.cls-4{stroke:#fff;stroke-width:1.28px;}.cls-5,.cls-6,.cls-7{stroke-linecap:round;stroke-linejoin:round;}.cls-5{stroke-width:0.64px;}.cls-6{fill:#74af28;}.cls-6,.cls-7{stroke-width:0.66px;}.cls-7{fill:none;}</style></defs><title>EV-Location-IdealForCarParks</title><circle class="cls-1" cx="45" cy="37.74" r="28.35"/><path class="cls-2" d="M27.89,70.11h.66V77h-.66Z"/><path class="cls-2" d="M34.24,77h-.56V76h0a1.94,1.94,0,0,1-1.77,1.09c-1.51,0-2.23-1.21-2.23-2.63s.72-2.63,2.23-2.63A1.79,1.79,0,0,1,33.62,73h0V70.11h.61Zm-2.35-.37c1.28,0,1.74-1.09,1.74-2.12s-.46-2.12-1.74-2.12-1.63,1.09-1.63,2.12S30.74,76.62,31.89,76.62Z"/><path class="cls-2" d="M35.76,74.67a1.76,1.76,0,0,0,1.63,2A1.5,1.5,0,0,0,39,75.35h.61a2,2,0,0,1-2.17,1.78c-1.58,0-2.24-1.21-2.24-2.63s.66-2.63,2.24-2.63,2.24,1.4,2.19,2.8ZM39,74.16a1.68,1.68,0,0,0-1.58-1.78,1.76,1.76,0,0,0-1.63,1.78Z"/><path class="cls-2" d="M40.34,73.54c.07-1.17.87-1.67,2-1.67.88,0,1.83.26,1.83,1.6v2.64a.33.33,0,0,0,.36.37.41.41,0,0,0,.19,0V77a1.61,1.61,0,0,1-.39,0c-.62,0-.71-.36-.71-.87h0a1.92,1.92,0,0,1-1.82,1c-.92,0-1.66-.45-1.66-1.45,0-1.39,1.36-1.45,2.67-1.6.5,0,.78-.14.78-.68,0-.81-.58-1-1.3-1S41,72.73,41,73.54Zm3.24.73h0c-.08.15-.35.19-.51.22-1,.19-2.31.19-2.31,1.15a1,1,0,0,0,1.1,1,1.6,1.6,0,0,0,1.74-1.56Z"/><path class="cls-2" d="M45.41,70.11H46V77h-.61Z"/><path class="cls-2" d="M50,70.11h4.36v.56H50.63v2.48h3.29v.56H50.63V77H50Z"/><path class="cls-2" d="M59.48,74.5a2.36,2.36,0,1,1-2.35-2.63A2.38,2.38,0,0,1,59.48,74.5Zm-4.09,0a1.78,1.78,0,1,0,1.74-2.12A1.9,1.9,0,0,0,55.39,74.5Z"/><path class="cls-2" d="M60.39,72H61v1.16h0A1.82,1.82,0,0,1,62.84,72v.61A1.71,1.71,0,0,0,61,74.34V77h-.61Z"/><path class="cls-2" d="M30.19,83.75a2.07,2.07,0,0,0-2.1-1.66c-1.82,0-2.59,1.52-2.59,3s.77,3,2.59,3a2.24,2.24,0,0,0,2.2-2.2H31a2.81,2.81,0,0,1-2.86,2.76c-2.17,0-3.25-1.69-3.25-3.58s1.08-3.58,3.25-3.58a2.64,2.64,0,0,1,2.76,2.22Z"/><path class="cls-2" d="M31.78,85.1c.06-1.17.86-1.67,2-1.67.88,0,1.83.26,1.83,1.6v2.64c0,.24.11.37.35.37a.48.48,0,0,0,.2,0v.51a1.7,1.7,0,0,1-.4,0c-.61,0-.71-.36-.71-.87h0a1.9,1.9,0,0,1-1.81,1c-.92,0-1.66-.45-1.66-1.45,0-1.39,1.35-1.45,2.66-1.6.5,0,.78-.14.78-.68,0-.81-.58-1-1.3-1s-1.3.35-1.33,1.16Zm3.23.73h0c-.07.15-.34.19-.51.22-1,.18-2.31.18-2.31,1.15a1,1,0,0,0,1.11,1A1.6,1.6,0,0,0,35,86.62Z"/><path class="cls-2" d="M36.83,83.58h.56v1.16h0a1.82,1.82,0,0,1,1.88-1.23v.61a1.71,1.71,0,0,0-1.85,1.78v2.65h-.61Z"/><path class="cls-2" d="M42.66,81.67h3.06a2,2,0,1,1,0,3.93h-2.4v3h-.66ZM43.32,85h2.25c.92,0,1.53-.45,1.53-1.4s-.61-1.41-1.53-1.41H43.32Z"/><path class="cls-2" d="M48.56,85.1c.07-1.17.87-1.67,2-1.67.88,0,1.83.26,1.83,1.6v2.64a.33.33,0,0,0,.36.37A.46.46,0,0,0,53,88v.51a1.64,1.64,0,0,1-.4,0c-.61,0-.71-.36-.71-.87h0a1.89,1.89,0,0,1-1.81,1c-.92,0-1.66-.45-1.66-1.45,0-1.39,1.36-1.45,2.66-1.6.51,0,.78-.14.78-.68,0-.81-.57-1-1.3-1s-1.29.35-1.32,1.16Zm3.23.73h0c-.08.15-.35.19-.51.22-1,.18-2.32.18-2.32,1.15a1,1,0,0,0,1.11,1,1.59,1.59,0,0,0,1.73-1.56Z"/><path class="cls-2" d="M53.62,83.58h.56v1.16h0a1.81,1.81,0,0,1,1.87-1.23v.61a1.71,1.71,0,0,0-1.85,1.78v2.65h-.6Z"/><path class="cls-2" d="M56.65,81.67h.61V86L60,83.58h.81L58.7,85.42,61,88.55h-.75l-2-2.71-1,.82v1.89h-.61Z"/><path class="cls-2" d="M64.44,85c0-.75-.6-1.09-1.3-1.09-.53,0-1.17.22-1.17.86s.61.73,1,.84l.81.18a1.46,1.46,0,0,1,1.41,1.38c0,1.08-1.06,1.49-2,1.49a1.79,1.79,0,0,1-2-1.75h.61a1.3,1.3,0,0,0,1.46,1.24c.58,0,1.36-.25,1.36-.94s-.54-.77-1.09-.91l-.78-.17c-.79-.2-1.39-.49-1.39-1.33,0-1,1-1.4,1.87-1.4A1.63,1.63,0,0,1,65.05,85Z"/><rect class="cls-2" x="34.89" y="18.38" width="19.24" height="19.24" rx="2.83"/><path class="cls-3" d="M40.16,34.39V21.9h4a14.17,14.17,0,0,1,3,.19A3.2,3.2,0,0,1,49,23.31a3.9,3.9,0,0,1,.72,2.43,4.22,4.22,0,0,1-.41,1.94,3.56,3.56,0,0,1-1.06,1.23,3.72,3.72,0,0,1-1.31.59,14.36,14.36,0,0,1-2.62.18H42.68v4.71ZM42.68,24v3.55h1.38a6.47,6.47,0,0,0,2-.2,1.62,1.62,0,0,0,.79-.61,1.68,1.68,0,0,0,.29-1,1.66,1.66,0,0,0-.4-1.13,1.77,1.77,0,0,0-1-.55A11.39,11.39,0,0,0,43.9,24Z"/><path class="cls-4" d="M33.75,41.16v2.08a.42.42,0,0,0,.53.37,1.39,1.39,0,0,0,1.34-1.3s.17-1.2-1.42-1.43C34.2,40.88,33.75,40.79,33.75,41.16Z"/><path class="cls-4" d="M32.74,41.91a.32.32,0,0,1,0-.63h1.4v.63Z"/><path class="cls-4" d="M32.74,43.24a.32.32,0,0,1,0-.63h1.4v.63Z"/><path class="cls-5" d="M62,52.79s2.36-2.18.58-4.41c0,0-.81-1.47-5.79-2.62a9.94,9.94,0,0,1-2.74-1.24c-.89-.73-1.91-1.21-4.33-1.51A46.52,46.52,0,0,0,45,42.7s-4-.41-5.1,2.46a11.36,11.36,0,0,0-.54,3.18v1.51s.15,1.35-.7,1.47c0,0-.92.16-1-1.39V45.68s.42-3.42-1.9-3.42H35"/><line class="cls-5" x1="54.9" y1="53.19" x2="46.75" y2="53.19"/><ellipse class="cls-5" cx="58.3" cy="51.33" rx="2.75" ry="2.83"/><ellipse class="cls-5" cx="43.28" cy="51.33" rx="2.75" ry="2.83"/><path class="cls-2" d="M33.75,41.16v2.08a.42.42,0,0,0,.53.37,1.39,1.39,0,0,0,1.34-1.3s.17-1.2-1.42-1.43C34.2,40.88,33.75,40.79,33.75,41.16Z"/><path class="cls-2" d="M32.74,41.91a.32.32,0,0,1,0-.63h1.4v.63Z"/><path class="cls-2" d="M32.74,43.24a.32.32,0,0,1,0-.63h1.4v.63Z"/><polygon class="cls-6" points="31.79 52.71 26.89 52.71 26.75 53.19 31.93 53.19 31.79 52.71"/><rect class="cls-5" x="27.13" y="39.45" width="4.43" height="13.26"/><path class="cls-6" d="M31.77,39.45H26.92a.07.07,0,0,1-.07-.07l0-.35A.07.07,0,0,1,27,39h4.79a.06.06,0,0,1,.06.06l0,.35A.07.07,0,0,1,31.77,39.45Z"/><rect class="cls-7" x="28.37" y="41.12" width="1.95" height="2.61" rx="0.91"/><path class="cls-7" d="M31.68,39H27l0-1.18h4.6Z"/><path class="cls-6" d="M31.64,37.78H27.05a.29.29,0,0,1,0-.09l.08-.16a.33.33,0,0,1,.14-.12,6.35,6.35,0,0,1,4.1,0,.33.33,0,0,1,.14.12l.08.16A.16.16,0,0,1,31.64,37.78Z"/></svg>