<svg id="Layer_1" data-name="Layer 1" xmlns="http://www.w3.org/2000/svg" viewBox="0 0 90 100"><defs><style>.cls-1,.cls-4,.cls-5,.cls-6,.cls-7{fill:#fff;}.cls-1,.cls-3,.cls-5,.cls-6{stroke:#74af27;}.cls-1,.cls-4{stroke-miterlimit:10;}.cls-2{fill:#74af27;}.cls-3{fill:none;stroke-width:0.54px;}.cls-3,.cls-5,.cls-6{stroke-linecap:round;stroke-linejoin:round;}.cls-4{stroke:#fff;stroke-width:1.32px;}.cls-5{stroke-width:0.66px;}.cls-6{stroke-width:0.51px;}.cls-7{fill-rule:evenodd;}</style></defs><title>EV-Location-IdealForFleetManagement</title><circle class="cls-1" cx="45" cy="37.84" r="28.24"/><path class="cls-2" d="M9.44,70.73h.71V77H9.44Z"/><path class="cls-2" d="M11.34,74.72v0a2.28,2.28,0,0,1,2.22-2.42,2.11,2.11,0,0,1,1.79,1V70.46H16V77h-.69V76.1a2.09,2.09,0,0,1-1.79,1A2.27,2.27,0,0,1,11.34,74.72Zm4,0v0a1.72,1.72,0,0,0-1.68-1.79,1.65,1.65,0,0,0-1.64,1.79v0a1.68,1.68,0,0,0,1.64,1.8A1.73,1.73,0,0,0,15.37,74.71Z"/><path class="cls-2" d="M17,74.72v0a2.29,2.29,0,0,1,2.23-2.42,2.22,2.22,0,0,1,2.17,2.46,1.55,1.55,0,0,1,0,.22H17.73a1.63,1.63,0,0,0,1.64,1.58,1.92,1.92,0,0,0,1.47-.66l.43.39a2.42,2.42,0,0,1-1.92.87A2.31,2.31,0,0,1,17,74.72Zm3.7-.27a1.53,1.53,0,0,0-1.49-1.58,1.6,1.6,0,0,0-1.51,1.58Z"/><path class="cls-2" d="M22,75.68h0c0-1,.81-1.51,2-1.51a4.9,4.9,0,0,1,1.44.2V74.2c0-.84-.52-1.27-1.39-1.27a3.19,3.19,0,0,0-1.41.34l-.21-.57a3.9,3.9,0,0,1,1.69-.38,2,2,0,0,1,1.5.51,1.83,1.83,0,0,1,.48,1.36V77h-.66v-.7a2.07,2.07,0,0,1-1.69.8A1.57,1.57,0,0,1,22,75.68Zm3.43-.36v-.45a4.82,4.82,0,0,0-1.36-.19c-.88,0-1.36.37-1.36,1v0c0,.58.54.92,1.17.92A1.4,1.4,0,0,0,25.45,75.32Z"/><path class="cls-2" d="M27.38,70.46h.69V77h-.69Z"/><path class="cls-2" d="M32.1,73h-.64v-.6h.64V72a1.63,1.63,0,0,1,.41-1.19,1.33,1.33,0,0,1,1-.36,2.1,2.1,0,0,1,.76.11v.61A2.06,2.06,0,0,0,33.6,71c-.54,0-.81.32-.81,1v.38h1.47V73H32.8v4h-.7Z"/><path class="cls-2" d="M34.5,74.73v0a2.43,2.43,0,0,1,4.85,0v0a2.42,2.42,0,0,1-2.44,2.43A2.38,2.38,0,0,1,34.5,74.73Zm4.14,0v0a1.76,1.76,0,0,0-1.73-1.82,1.72,1.72,0,0,0-1.7,1.8v0a1.75,1.75,0,0,0,1.72,1.81A1.72,1.72,0,0,0,38.64,74.73Z"/><path class="cls-2" d="M40.33,72.38H41V73.6a2,2,0,0,1,1.9-1.3v.75h-.05A1.88,1.88,0,0,0,41,75.18V77h-.69Z"/><path class="cls-2" d="M46.25,70.73h4.56v.65H47v2.15H50.4v.65H47v2.21h3.89V77h-4.6Z"/><path class="cls-2" d="M51.47,70.73h.79l2.24,5.43,2.26-5.43h.76l-2.71,6.35h-.63Z"/><path class="cls-2" d="M60.92,70.73h4.53v.66H61.63v2.25H65v.65H61.63V77h-.71Z"/><path class="cls-2" d="M66.5,70.46h.69V77H66.5Z"/><path class="cls-2" d="M68.25,74.72v0a2.29,2.29,0,0,1,2.23-2.42,2.22,2.22,0,0,1,2.17,2.46,1.55,1.55,0,0,1,0,.22H69a1.63,1.63,0,0,0,1.64,1.58,1.89,1.89,0,0,0,1.46-.66l.44.39a2.42,2.42,0,0,1-1.92.87A2.31,2.31,0,0,1,68.25,74.72Zm3.7-.27a1.53,1.53,0,0,0-1.49-1.58A1.6,1.6,0,0,0,69,74.45Z"/><path class="cls-2" d="M73.3,74.72v0a2.3,2.3,0,0,1,2.24-2.42,2.22,2.22,0,0,1,2.17,2.46,1.55,1.55,0,0,1,0,.22H74a1.63,1.63,0,0,0,1.63,1.58,1.92,1.92,0,0,0,1.47-.66l.43.39a2.38,2.38,0,0,1-1.91.87A2.32,2.32,0,0,1,73.3,74.72Zm3.7-.27a1.52,1.52,0,0,0-1.48-1.58A1.6,1.6,0,0,0,74,74.45Z"/><path class="cls-2" d="M78.89,75.8V73h-.64v-.61h.64V71h.7v1.4h1.47V73H79.59v2.72a.68.68,0,0,0,.78.77,1.4,1.4,0,0,0,.67-.16v.6a1.79,1.79,0,0,1-.83.2A1.19,1.19,0,0,1,78.89,75.8Z"/><path class="cls-2" d="M18,81.73h.72l2.3,3.44,2.29-3.44h.72V88h-.71v-5.1l-2.29,3.38h0l-2.29-3.37V88H18Z"/><path class="cls-2" d="M25.11,86.68h0c0-1,.81-1.51,2-1.51a4.88,4.88,0,0,1,1.43.2V85.2c0-.84-.52-1.27-1.39-1.27a3.19,3.19,0,0,0-1.41.34l-.21-.57a3.9,3.9,0,0,1,1.69-.38,2.07,2.07,0,0,1,1.51.51,1.87,1.87,0,0,1,.47,1.36V88h-.66v-.7a2.07,2.07,0,0,1-1.69.8A1.56,1.56,0,0,1,25.11,86.68Zm3.43-.36v-.45a5,5,0,0,0-1.37-.19c-.88,0-1.36.37-1.36,1v0c0,.58.54.92,1.17.92A1.41,1.41,0,0,0,28.54,86.32Z"/><path class="cls-2" d="M30.4,83.38h.69v.81a1.78,1.78,0,0,1,1.6-.91,1.7,1.7,0,0,1,1.78,1.86V88h-.7V85.32a1.24,1.24,0,0,0-1.28-1.41,1.38,1.38,0,0,0-1.4,1.46V88H30.4Z"/><path class="cls-2" d="M35.32,86.68h0c0-1,.81-1.51,2-1.51a4.83,4.83,0,0,1,1.43.2V85.2c0-.84-.51-1.27-1.38-1.27a3.23,3.23,0,0,0-1.42.34l-.2-.57a3.86,3.86,0,0,1,1.69-.38,2,2,0,0,1,1.5.51,1.83,1.83,0,0,1,.48,1.36V88h-.67v-.7a2,2,0,0,1-1.68.8A1.56,1.56,0,0,1,35.32,86.68Zm3.43-.36v-.45a4.84,4.84,0,0,0-1.37-.19c-.87,0-1.36.37-1.36,1v0c0,.58.54.92,1.17.92A1.41,1.41,0,0,0,38.75,86.32Z"/><path class="cls-2" d="M40.56,88.84l.31-.54a3,3,0,0,0,1.8.6,1.53,1.53,0,0,0,1.69-1.66v-.55a2.21,2.21,0,0,1-1.83,1,2.15,2.15,0,0,1-2.19-2.17v0a2.2,2.2,0,0,1,4-1.26v-.84H45v3.84a2.24,2.24,0,0,1-.59,1.65,2.44,2.44,0,0,1-1.78.62A3.58,3.58,0,0,1,40.56,88.84Zm3.82-3.35v0a1.63,1.63,0,0,0-1.71-1.58,1.55,1.55,0,0,0-1.62,1.57v0a1.58,1.58,0,0,0,1.62,1.58A1.64,1.64,0,0,0,44.38,85.49Z"/><path class="cls-2" d="M46,85.72v0a2.3,2.3,0,0,1,2.23-2.42,2.22,2.22,0,0,1,2.17,2.46,1.55,1.55,0,0,1,0,.22H46.73a1.63,1.63,0,0,0,1.64,1.58,1.92,1.92,0,0,0,1.47-.66l.43.39a2.4,2.4,0,0,1-1.92.87A2.32,2.32,0,0,1,46,85.72Zm3.7-.27a1.53,1.53,0,0,0-1.48-1.58,1.61,1.61,0,0,0-1.52,1.58Z"/><path class="cls-2" d="M51.38,83.38h.69v.78a1.7,1.7,0,0,1,1.5-.88,1.59,1.59,0,0,1,1.5.93,1.84,1.84,0,0,1,1.64-.93,1.67,1.67,0,0,1,1.73,1.87V88h-.7V85.32c0-.9-.45-1.41-1.2-1.41a1.29,1.29,0,0,0-1.28,1.44V88h-.7V85.3c0-.88-.46-1.39-1.19-1.39a1.35,1.35,0,0,0-1.3,1.47V88h-.69Z"/><path class="cls-2" d="M59.38,85.72v0a2.29,2.29,0,0,1,2.23-2.42,2.22,2.22,0,0,1,2.17,2.46,1.55,1.55,0,0,1,0,.22H60.08a1.63,1.63,0,0,0,1.64,1.58,1.92,1.92,0,0,0,1.47-.66l.43.39a2.42,2.42,0,0,1-1.92.87A2.31,2.31,0,0,1,59.38,85.72Zm3.7-.27a1.53,1.53,0,0,0-1.49-1.58,1.6,1.6,0,0,0-1.51,1.58Z"/><path class="cls-2" d="M64.72,83.38h.7v.81A1.76,1.76,0,0,1,67,83.28a1.7,1.7,0,0,1,1.78,1.86V88H68.1V85.32a1.24,1.24,0,0,0-1.29-1.41,1.37,1.37,0,0,0-1.39,1.46V88h-.7Z"/><path class="cls-2" d="M70.24,86.8V84h-.65v-.61h.65V82h.69v1.4h1.48V84H70.93v2.72a.69.69,0,0,0,.79.77,1.4,1.4,0,0,0,.67-.16v.6a1.79,1.79,0,0,1-.83.2A1.19,1.19,0,0,1,70.24,86.8Z"/><path class="cls-3" d="M39.6,41.94H31.09V17a.87.87,0,0,1,1-1h13.7a.87.87,0,0,1,.94.92V28H41.46a1.74,1.74,0,0,0-1.86,1.86ZM32.85,17.79v3.39h1.67V17.79Zm3.45,3.4H38v-3.4H36.3Zm5.14,0V17.8H39.77v3.39Zm1.79-3.4v3.39H44.9V17.79ZM32.85,23v3.4h1.67V23ZM38,23H36.31v3.4H38Zm1.79,3.39h1.67V23H39.77Zm3.45,0H44.9V23H43.22Zm-8.7,1.8H32.85v3.4h1.67Zm1.78,3.39H38V28.17H36.3Zm-1.78,1.8H32.85v3.4h1.67Zm1.79,3.39H38V33.36H36.31Z"/><path class="cls-3" d="M51.76,36.62H46.47v5.32H41.25V30.62a.88.88,0,0,1,1-1H55.89a.87.87,0,0,1,1,.94V41.94H51.76Zm-8.74,0V40h1.67V36.61Zm12,3.4v-3.4H53.4V40ZM43,31.41v3.21c0,.18.1.18.23.18.39,0,.79,0,1.19,0,.22,0,.29-.06.29-.29,0-.84,0-1.69,0-2.53v-.58Zm5.16,0c-.54,0-1.05,0-1.56,0,0,0-.13.14-.14.22,0,1,0,2,0,2.94,0,.2.09.24.26.24.4,0,.79,0,1.19,0,.22,0,.27-.08.26-.29,0-.81,0-1.63,0-2.45Zm3.46,0H50s0,0,0,.07v3.13c0,.17.09.19.22.18h1.24c.19,0,.25-.07.24-.25,0-.71,0-1.42,0-2.13Zm1.76,0v3.22c0,.17.1.17.23.17h1.21c.2,0,.27-.06.26-.26,0-.89,0-1.78,0-2.67v-.47Z"/><path class="cls-4" d="M33.87,43.26V45.4a.45.45,0,0,0,.55.39,1.43,1.43,0,0,0,1.38-1.34S36,43.2,34.33,43C34.33,43,33.87,42.88,33.87,43.26Z"/><path class="cls-4" d="M32.83,44a.31.31,0,0,1-.31-.32.32.32,0,0,1,.31-.33h1.45V44Z"/><path class="cls-4" d="M32.83,45.4a.31.31,0,0,1-.31-.32.32.32,0,0,1,.31-.33h1.45v.65Z"/><path class="cls-5" d="M63,55.26s2.43-2.26.6-4.55c0,0-.84-1.52-6-2.71a10.57,10.57,0,0,1-2.83-1.27c-.91-.75-2-1.26-4.46-1.56s-4.87-.33-4.87-.33-4.09-.42-5.25,2.55a11.66,11.66,0,0,0-.56,3.28v1.55s.16,1.4-.72,1.52c0,0-1,.16-1-1.43V47.92s.44-3.53-2-3.53h-.8"/><line class="cls-5" x1="55.69" y1="55.67" x2="47.28" y2="55.67"/><ellipse class="cls-5" cx="59.2" cy="53.75" rx="2.84" ry="2.92"/><ellipse class="cls-5" cx="43.71" cy="53.75" rx="2.84" ry="2.92"/><path class="cls-2" d="M33.87,43.26V45.4a.45.45,0,0,0,.55.39,1.43,1.43,0,0,0,1.38-1.34S36,43.2,34.33,43C34.33,43,33.87,42.88,33.87,43.26Z"/><path class="cls-2" d="M32.83,44a.31.31,0,0,1-.31-.32.32.32,0,0,1,.31-.33h1.45V44Z"/><path class="cls-2" d="M32.83,45.4a.31.31,0,0,1-.31-.32.32.32,0,0,1,.31-.33h1.45v.65Z"/><rect class="cls-2" x="28.14" y="41.53" width="3.88" height="14.35" transform="translate(60.16 97.41) rotate(-180)"/><rect class="cls-6" x="28.06" y="40.32" width="4.04" height="1.21" rx="0.61" transform="translate(60.16 81.85) rotate(180)"/><path class="cls-7" d="M28.58,44.51V43.29a.47.47,0,0,1,.08-.26,1,1,0,0,1,.51-.38,1.84,1.84,0,0,1,.66-.12,4,4,0,0,1,.85,0,1.47,1.47,0,0,1,.57.22.65.65,0,0,1,.33.56v2.32a.57.57,0,0,1-.17.41,1.21,1.21,0,0,1-.64.34,2.33,2.33,0,0,1-.53.07,3.83,3.83,0,0,1-.68,0,1.44,1.44,0,0,1-.74-.31.56.56,0,0,1-.24-.46V44.51Zm2.27-1.24a1.19,1.19,0,0,0-.44-.14,2.42,2.42,0,0,0-.76,0,1,1,0,0,0-.34.1.52.52,0,0,0-.17.16.18.18,0,0,0,0,.1v.67s0,0,0,.08c0,.39,0,.78,0,1.17a.31.31,0,0,0,.16.28,1.36,1.36,0,0,0,.43.14,4.53,4.53,0,0,0,.64,0,1.31,1.31,0,0,0,.47-.12l.11-.07a.28.28,0,0,0,.11-.24V43.54s0,0,0-.07A.27.27,0,0,0,30.85,43.27Z"/></svg>