<svg id="Layer_1" data-name="Layer 1" xmlns="http://www.w3.org/2000/svg" xmlns:xlink="http://www.w3.org/1999/xlink" viewBox="0 0 90 100"><defs><style>.cls-1,.cls-5,.cls-8{fill:none;}.cls-2,.cls-6,.cls-7{fill:#fff;}.cls-2,.cls-5,.cls-7{stroke:#74af27;}.cls-2,.cls-8{stroke-miterlimit:10;}.cls-3{clip-path:url(#clip-path);}.cls-4{fill:#74af27;}.cls-5,.cls-7{stroke-linecap:round;stroke-linejoin:round;}.cls-5{stroke-width:0.64px;}.cls-7{stroke-width:0.69px;}.cls-8{stroke:#fff;stroke-width:0.4px;}</style><clipPath id="clip-path"><circle class="cls-1" cx="44.81" cy="37.81" r="28.35"/></clipPath></defs><title>EV-Location-PublicCharging-AutoCharge</title><circle class="cls-2" cx="45" cy="37.74" r="28.35"/><g class="cls-3"><path class="cls-4" d="M2.74,49.83,22.07,30.3,4.14,51.13a1,1,0,0,1-1.45-1.25Z"/><path class="cls-4" d="M43.69,51.13,25.77,30.3,45.1,49.83a1,1,0,0,1-1.36,1.35S43.71,51.14,43.69,51.13Z"/><line class="cls-5" x1="57.37" y1="36.72" x2="32.26" y2="36.72"/><line class="cls-5" x1="67.54" y1="47.85" x2="42.43" y2="47.85"/><line class="cls-5" x1="62.39" y1="41.94" x2="37.28" y2="41.94"/><path class="cls-4" d="M22.9,52.81,23,49.7a.82.82,0,0,1,.85-.78.82.82,0,0,1,.79.78l.14,3.11a1,1,0,1,1-1.92.08Z"/><path class="cls-4" d="M23.31,43.49l.14-3.1a.41.41,0,0,1,.82,0l.14,3.1a.56.56,0,0,1-.53.57.55.55,0,0,1-.57-.52Z"/><path class="cls-4" d="M23.55,35.31l.07-2.24c0-.16.12-.29.25-.28a.27.27,0,0,1,.22.28l.08,2.24a.37.37,0,0,1-.3.41.35.35,0,0,1-.32-.38Z"/><path class="cls-4" d="M23.7,30.88l0-.55s.06-.08.12-.08a.14.14,0,0,1,.12.08l0,.55c0,.06-.06.1-.14.11s-.16,0-.17-.1Z"/><path class="cls-6" d="M60.94,39.7h5.74a6.17,6.17,0,0,0,1.71-.41s2.47-2.29.6-4.63c0,0-.85-1.54-6.07-2.75a10.38,10.38,0,0,1-2.87-1.29c-.93-.76-2-1.28-4.54-1.58s-4.94-.34-4.94-.34-4.16-.42-5.34,2.59a11.77,11.77,0,0,0-.57,3.33V36.2s-1.27,3.58,7.63,3.54Z"/><path class="cls-7" d="M68.39,39.29s2.47-2.29.6-4.63c0,0-.85-1.54-6.07-2.75a10.38,10.38,0,0,1-2.87-1.29c-.93-.76-2-1.28-4.54-1.58s-4.94-.34-4.94-.34-4.16-.42-5.34,2.59a11.77,11.77,0,0,0-.57,3.33V36.2s.16,1.42-.73,1.55c0,0-1,.16-1-1.46V31.83s.44-3.58-2-3.58h-.8"/><path class="cls-7" d="M40.13,28.25h.8c2.43,0,2,3.58,2,3.58v4.46c0,1.62,1,1.46,1,1.46.89-.13.73-1.55.73-1.55V34.62a11.77,11.77,0,0,1,.57-3.33c1.18-3,5.34-2.59,5.34-2.59s2.3,0,4.94.34,3.61.82,4.54,1.58a10.38,10.38,0,0,0,2.87,1.29C68.14,33.12,69,34.66,69,34.66c1.87,2.34-.6,4.63-.6,4.63"/><line class="cls-7" x1="52.39" y1="39.7" x2="60.94" y2="39.7"/><ellipse class="cls-7" cx="64.51" cy="37.75" rx="2.88" ry="2.97"/><ellipse class="cls-7" cx="48.77" cy="37.75" rx="2.88" ry="2.97"/><path class="cls-4" d="M38.77,27.1v2.18a.45.45,0,0,0,.56.38,1.44,1.44,0,0,0,1.4-1.35s.18-1.27-1.49-1.51C39.24,26.8,38.77,26.71,38.77,27.1Z"/><path class="cls-4" d="M37.72,27.88a.33.33,0,0,1,0-.66h1.46v.66Z"/><path class="cls-4" d="M37.72,29.28a.34.34,0,0,1,0-.67h1.46v.67Z"/><polygon class="cls-4" points="37.39 40.72 35.77 38.9 34.67 23.19 37.39 26.26 37.39 40.72"/><polygon class="cls-4" points="34.67 23.19 38.56 24.61 40.62 26.61 38.74 40.72 37.39 40.72 37.39 26.26 34.67 23.19"/><line class="cls-4" x1="37.39" y1="26.26" x2="40.62" y2="26.61"/><line class="cls-8" x1="37.39" y1="26.26" x2="40.62" y2="26.61"/><polyline class="cls-8" points="34.67 23.19 37.39 26.26 37.39 40.72"/></g><path class="cls-4" d="M32.86,70.68h2.36c1.43,0,2.36.76,2.36,2v0c0,1.36-1.13,2.06-2.47,2.06H33.58V77h-.72Zm2.27,3.43c1,0,1.73-.55,1.73-1.38v0c0-.9-.67-1.37-1.69-1.37H33.58v2.77Z"/><path class="cls-4" d="M38.42,75.22V72.33h.69v2.72a1.24,1.24,0,0,0,1.29,1.4A1.37,1.37,0,0,0,41.79,75V72.33h.69V77h-.69v-.81a1.76,1.76,0,0,1-1.59.9A1.69,1.69,0,0,1,38.42,75.22Z"/><path class="cls-4" d="M44.46,76.09V77h-.7V70.41h.7v2.86a2.07,2.07,0,0,1,1.78-1,2.27,2.27,0,0,1,2.22,2.42h0a2.28,2.28,0,0,1-2.22,2.42A2.07,2.07,0,0,1,44.46,76.09Zm3.29-1.42v0a1.68,1.68,0,0,0-1.64-1.8,1.74,1.74,0,0,0-1.68,1.8h0a1.73,1.73,0,0,0,1.68,1.8A1.64,1.64,0,0,0,47.75,74.67Z"/><path class="cls-4" d="M49.53,70.41h.7V77h-.7Z"/><path class="cls-4" d="M51.58,70.55h.8v.76h-.8Zm.05,1.78h.69V77h-.69Z"/><path class="cls-4" d="M53.37,74.68v0a2.42,2.42,0,0,1,4.25-1.6l-.46.49a1.85,1.85,0,0,0-1.41-.71,1.72,1.72,0,0,0-1.66,1.81h0a1.73,1.73,0,0,0,1.71,1.81,1.91,1.91,0,0,0,1.42-.69l.44.41a2.41,2.41,0,0,1-4.29-1.51Z"/><path class="cls-4" d="M26.2,84.85v0a3.17,3.17,0,0,1,3.19-3.25,3.25,3.25,0,0,1,2.45,1l-.48.52a2.73,2.73,0,0,0-2-.87,2.47,2.47,0,0,0-2.44,2.59h0a2.49,2.49,0,0,0,2.44,2.61,2.75,2.75,0,0,0,2-.91l.47.46a3.31,3.31,0,0,1-2.52,1.1A3.14,3.14,0,0,1,26.2,84.85Z"/><path class="cls-4" d="M32.73,81.41h.7v2.73A1.76,1.76,0,0,1,35,83.23,1.7,1.7,0,0,1,36.8,85.1V88h-.69V85.27a1.24,1.24,0,0,0-1.29-1.41,1.37,1.37,0,0,0-1.39,1.46V88h-.7Z"/><path class="cls-4" d="M37.66,86.64v0c0-1,.81-1.51,2-1.51a4.88,4.88,0,0,1,1.43.2v-.16c0-.84-.52-1.27-1.39-1.27a3.19,3.19,0,0,0-1.41.34l-.21-.56a3.76,3.76,0,0,1,1.69-.39,2.07,2.07,0,0,1,1.51.51,1.87,1.87,0,0,1,.47,1.36V88h-.66v-.71a2,2,0,0,1-1.69.8A1.56,1.56,0,0,1,37.66,86.64Zm3.43-.36v-.45a4.85,4.85,0,0,0-1.37-.2c-.88,0-1.36.38-1.36,1v0c0,.58.54.93,1.17.93A1.42,1.42,0,0,0,41.09,86.28Z"/><path class="cls-4" d="M43,83.33h.69v1.22a2,2,0,0,1,1.9-1.3V84h0a1.88,1.88,0,0,0-1.85,2.13V88H43Z"/><path class="cls-4" d="M46.08,88.8l.32-.54a3,3,0,0,0,1.79.59,1.53,1.53,0,0,0,1.69-1.66v-.55a2.22,2.22,0,0,1-1.83,1,2.16,2.16,0,0,1-2.19-2.18v0a2.2,2.2,0,0,1,4-1.26v-.84h.69v3.85A2.22,2.22,0,0,1,50,88.82a2.42,2.42,0,0,1-1.77.62A3.66,3.66,0,0,1,46.08,88.8Zm3.82-3.36v0a1.64,1.64,0,0,0-1.71-1.58,1.54,1.54,0,0,0-1.61,1.57v0A1.56,1.56,0,0,0,48.19,87,1.64,1.64,0,0,0,49.9,85.44Z"/><path class="cls-4" d="M51.86,81.55h.79v.76h-.79Zm0,1.78h.7V88h-.7Z"/><path class="cls-4" d="M53.94,83.33h.69v.81a1.77,1.77,0,0,1,1.59-.91A1.71,1.71,0,0,1,58,85.1V88h-.7V85.27A1.24,1.24,0,0,0,56,83.86a1.37,1.37,0,0,0-1.4,1.46V88h-.69Z"/><path class="cls-4" d="M59.16,88.8l.31-.54a3,3,0,0,0,1.79.59A1.54,1.54,0,0,0,63,87.19v-.55a2.23,2.23,0,0,1-1.83,1,2.15,2.15,0,0,1-2.19-2.18v0a2.2,2.2,0,0,1,4-1.26v-.84h.69v3.85a2.26,2.26,0,0,1-.59,1.64,2.44,2.44,0,0,1-1.78.62A3.65,3.65,0,0,1,59.16,88.8ZM63,85.44v0a1.63,1.63,0,0,0-1.71-1.58,1.54,1.54,0,0,0-1.61,1.57v0A1.57,1.57,0,0,0,61.26,87,1.64,1.64,0,0,0,63,85.44Z"/></svg>