<svg id="Layer_1" data-name="Layer 1" xmlns="http://www.w3.org/2000/svg" xmlns:xlink="http://www.w3.org/1999/xlink" viewBox="0 0 90 100"><defs><style>.cls-1,.cls-6,.cls-9{fill:none;}.cls-2,.cls-7{fill:#74af27;}.cls-3,.cls-5,.cls-8{fill:#fff;}.cls-4{clip-path:url(#clip-path);}.cls-5,.cls-6,.cls-9{stroke:#74af27;}.cls-5,.cls-6{stroke-linecap:round;stroke-linejoin:round;stroke-width:0.67px;}.cls-7,.cls-8{fill-rule:evenodd;}.cls-9{stroke-miterlimit:10;}</style><clipPath id="clip-path"><circle class="cls-1" cx="45" cy="37.97" r="28.35"/></clipPath></defs><title>EV-Location-HomeCharging</title><path class="cls-2" d="M33,70.68h.71v2.8h3.63v-2.8h.72V77h-.72V74.15H33.74V77H33Z"/><path class="cls-2" d="M39.19,74.68v0a2.43,2.43,0,1,1,4.85,0h0a2.41,2.41,0,0,1-2.44,2.43A2.38,2.38,0,0,1,39.19,74.68Zm4.14,0v0a1.76,1.76,0,0,0-1.73-1.82,1.72,1.72,0,0,0-1.7,1.81h0a1.75,1.75,0,0,0,1.72,1.81A1.72,1.72,0,0,0,43.33,74.68Z"/><path class="cls-2" d="M45,72.33h.7v.78a1.71,1.71,0,0,1,1.5-.88,1.57,1.57,0,0,1,1.49.93,1.87,1.87,0,0,1,1.64-.93,1.67,1.67,0,0,1,1.73,1.87V77h-.69V74.27c0-.9-.45-1.41-1.21-1.41A1.3,1.3,0,0,0,48.9,74.3V77h-.69V74.25c0-.87-.46-1.39-1.2-1.39a1.34,1.34,0,0,0-1.29,1.47V77H45Z"/><path class="cls-2" d="M53,74.67v0a2.3,2.3,0,0,1,2.24-2.42,2.22,2.22,0,0,1,2.17,2.46,1.77,1.77,0,0,1,0,.23H53.73a1.63,1.63,0,0,0,1.63,1.57,1.92,1.92,0,0,0,1.47-.66l.43.39a2.38,2.38,0,0,1-1.91.87A2.32,2.32,0,0,1,53,74.67Zm3.7-.27a1.53,1.53,0,0,0-1.48-1.58,1.6,1.6,0,0,0-1.51,1.58Z"/><path class="cls-2" d="M26.2,84.85v0a3.17,3.17,0,0,1,3.19-3.25,3.25,3.25,0,0,1,2.45,1l-.48.52a2.73,2.73,0,0,0-2-.87,2.47,2.47,0,0,0-2.44,2.59h0a2.49,2.49,0,0,0,2.44,2.61,2.75,2.75,0,0,0,2-.91l.47.46a3.31,3.31,0,0,1-2.52,1.1A3.14,3.14,0,0,1,26.2,84.85Z"/><path class="cls-2" d="M32.73,81.41h.7v2.73A1.76,1.76,0,0,1,35,83.23,1.7,1.7,0,0,1,36.8,85.1V88h-.69V85.27a1.24,1.24,0,0,0-1.29-1.41,1.37,1.37,0,0,0-1.39,1.46V88h-.7Z"/><path class="cls-2" d="M37.66,86.64v0c0-1,.81-1.51,2-1.51a4.88,4.88,0,0,1,1.43.2v-.16c0-.84-.52-1.27-1.39-1.27a3.19,3.19,0,0,0-1.41.34l-.21-.56a3.76,3.76,0,0,1,1.69-.39,2.07,2.07,0,0,1,1.51.51,1.87,1.87,0,0,1,.47,1.36V88h-.66v-.71a2,2,0,0,1-1.69.8A1.56,1.56,0,0,1,37.66,86.64Zm3.43-.36v-.45a4.85,4.85,0,0,0-1.37-.2c-.88,0-1.36.38-1.36,1v0c0,.58.54.93,1.17.93A1.42,1.42,0,0,0,41.09,86.28Z"/><path class="cls-2" d="M43,83.33h.69v1.22a2,2,0,0,1,1.9-1.3V84h0a1.88,1.88,0,0,0-1.85,2.13V88H43Z"/><path class="cls-2" d="M46.08,88.8l.32-.54a3,3,0,0,0,1.79.59,1.53,1.53,0,0,0,1.69-1.66v-.55a2.22,2.22,0,0,1-1.83,1,2.16,2.16,0,0,1-2.19-2.18v0a2.2,2.2,0,0,1,4-1.26v-.84h.69v3.85A2.22,2.22,0,0,1,50,88.82a2.42,2.42,0,0,1-1.77.62A3.66,3.66,0,0,1,46.08,88.8Zm3.82-3.36v0a1.64,1.64,0,0,0-1.71-1.58,1.54,1.54,0,0,0-1.61,1.57v0A1.56,1.56,0,0,0,48.19,87,1.64,1.64,0,0,0,49.9,85.44Z"/><path class="cls-2" d="M51.86,81.55h.79v.76h-.79Zm0,1.78h.7V88h-.7Z"/><path class="cls-2" d="M53.94,83.33h.69v.81a1.77,1.77,0,0,1,1.59-.91A1.71,1.71,0,0,1,58,85.1V88h-.7V85.27A1.24,1.24,0,0,0,56,83.86a1.37,1.37,0,0,0-1.4,1.46V88h-.69Z"/><path class="cls-2" d="M59.16,88.8l.31-.54a3,3,0,0,0,1.79.59A1.54,1.54,0,0,0,63,87.19v-.55a2.23,2.23,0,0,1-1.83,1,2.15,2.15,0,0,1-2.19-2.18v0a2.2,2.2,0,0,1,4-1.26v-.84h.69v3.85a2.26,2.26,0,0,1-.59,1.64,2.44,2.44,0,0,1-1.78.62A3.65,3.65,0,0,1,59.16,88.8ZM63,85.44v0a1.63,1.63,0,0,0-1.71-1.58,1.54,1.54,0,0,0-1.61,1.57v0A1.57,1.57,0,0,0,61.26,87,1.64,1.64,0,0,0,63,85.44Z"/><circle class="cls-3" cx="45" cy="37.97" r="28.35"/><g class="cls-4"><rect class="cls-5" x="15.6" y="30.08" width="24.57" height="21.94" rx="1.75"/><path class="cls-6" d="M66.37,50.63s2.45-2.27.6-4.59c0,0-.85-1.53-6-2.73A10.56,10.56,0,0,1,58.08,42c-.92-.76-2-1.27-4.5-1.57a48.92,48.92,0,0,0-4.9-.34s-4.14-.42-5.31,2.57A11.82,11.82,0,0,0,42.81,46v.9a1.46,1.46,0,0,1-1.46,1.53H35.66"/><line class="cls-6" x1="58.97" y1="50.71" x2="50.49" y2="50.71"/><ellipse class="cls-6" cx="62.52" cy="49.11" rx="2.86" ry="2.95"/><ellipse class="cls-6" cx="46.88" cy="49.11" rx="2.86" ry="2.95"/><rect class="cls-6" x="25.51" y="43.31" width="4.74" height="8.71"/><rect class="cls-6" x="19.65" y="34.26" width="5.24" height="5.24" rx="0.49"/><rect class="cls-6" x="30.89" y="34.26" width="5.24" height="5.24" rx="0.1"/><line class="cls-6" x1="100.78" y1="52.05" x2="-18.88" y2="52.05"/><line class="cls-6" x1="3.63" y1="46.99" x2="3.63" y2="52.05"/><path class="cls-5" d="M3.63,32.91c2.14,0,3.41,5.21,3.44,8.1s-.38,4.05-1,5a2.73,2.73,0,0,1-1.89,1h-1a2.75,2.75,0,0,1-1.89-1c-.65-.92-1.08-2.08-1-5S1.48,32.91,3.63,32.91Z"/><path class="cls-5" d="M39.88,31.08h-28a1,1,0,0,1-.84-1.49l2.55-5.41a1,1,0,0,1,.84-.56H37.33a1,1,0,0,1,.84.56l2.55,5.41A1,1,0,0,1,39.88,31.08Z"/><rect class="cls-5" x="30.52" y="20.48" width="2.78" height="5.04" rx="0.77"/><path class="cls-5" d="M18.65,50.07a1.95,1.95,0,0,1-2,2H10.54a2,2,0,0,1-2-2,2,2,0,0,1,2-2h1.12a2,2,0,0,1,2-2,2,2,0,0,1,2,2h1.12A2,2,0,0,1,18.65,50.07Z"/><path class="cls-7" d="M37.08,47c0,.17,0,.35,0,.52s0,.35,0,.53,0,.17,0,.25a3.53,3.53,0,0,1,0,.56c0,.18-.05.35-.08.53a.4.4,0,0,1-.22.3,1.08,1.08,0,0,1-.42.16l-.39.05a1.85,1.85,0,0,1-.47,0,3.26,3.26,0,0,1-.53-.09.76.76,0,0,1-.37-.21.4.4,0,0,1-.1-.18,6.46,6.46,0,0,1-.11-.75l0-.44,0-.67c0-.35,0-.69,0-1,0-.15,0-.3,0-.45l0-.55a7.5,7.5,0,0,1,.14-1,.36.36,0,0,1,.2-.25,1.12,1.12,0,0,1,.38-.15l.45-.07h.2a2.84,2.84,0,0,1,.58.05,2,2,0,0,1,.41.13.53.53,0,0,1,.22.2.2.2,0,0,1,0,.08,5.62,5.62,0,0,1,.09.57c0,.16,0,.31,0,.47a1.77,1.77,0,0,1,0,.23c0,.1,0,.21,0,.31C37.09,46.41,37.08,46.69,37.08,47Z"/><path class="cls-8" d="M36.48,48.34V49a.3.3,0,0,1-.13.25.79.79,0,0,1-.41.17,2.3,2.3,0,0,1-.37,0,1.35,1.35,0,0,1-.29,0,.74.74,0,0,1-.36-.19.29.29,0,0,1-.09-.22V47.7a.35.35,0,0,1,.18-.3,1,1,0,0,1,.32-.13,3.54,3.54,0,0,1,.46,0,1.16,1.16,0,0,1,.37.07.53.53,0,0,1,.28.21.33.33,0,0,1,0,.14v.67Zm-1.34-.57a.06.06,0,0,0,0,0v.34c0,.23,0,.46,0,.7a.16.16,0,0,0,.07.13l.06,0a.58.58,0,0,0,.26.06,1.93,1.93,0,0,0,.34,0A.61.61,0,0,0,36.1,49a.16.16,0,0,0,.09-.15c0-.22,0-.43,0-.65,0,0,0,0,0,0v-.37a.07.07,0,0,0,0,0,.2.2,0,0,0-.09-.09.6.6,0,0,0-.19-.06,2,2,0,0,0-.42,0,.57.57,0,0,0-.24.08A.15.15,0,0,0,35.14,47.77Z"/><path class="cls-8" d="M36.48,45.63v.65a.3.3,0,0,1-.13.25.79.79,0,0,1-.41.17,2.3,2.3,0,0,1-.37,0,1.35,1.35,0,0,1-.29,0,.72.72,0,0,1-.36-.18.33.33,0,0,1-.09-.23V45a.35.35,0,0,1,.18-.3,1,1,0,0,1,.32-.13,3.54,3.54,0,0,1,.46,0,1.16,1.16,0,0,1,.37.07.53.53,0,0,1,.28.21.33.33,0,0,1,0,.14v.67Zm-1.34-.57a.06.06,0,0,0,0,0v.34c0,.23,0,.47,0,.7a.15.15,0,0,0,.07.13l.06,0a.58.58,0,0,0,.26.06,1.29,1.29,0,0,0,.34,0,.61.61,0,0,0,.24-.07.16.16,0,0,0,.09-.15c0-.22,0-.43,0-.65,0,0,0,0,0,0v-.37a.07.07,0,0,0,0,0,.2.2,0,0,0-.09-.09.6.6,0,0,0-.19-.06,1.48,1.48,0,0,0-.42,0,.55.55,0,0,0-.24.07A.15.15,0,0,0,35.14,45.06Z"/></g><circle class="cls-9" cx="45" cy="37.97" r="28.35"/></svg>