<svg id="Layer_1" data-name="Layer 1" xmlns="http://www.w3.org/2000/svg" viewBox="0 0 90 100"><defs><style>.cls-1,.cls-3,.cls-4,.cls-6,.cls-7{fill:#fff;}.cls-1,.cls-2,.cls-4,.cls-6{stroke:#74af27;}.cls-1,.cls-3{stroke-miterlimit:10;}.cls-2{fill:none;stroke-width:0.54px;}.cls-2,.cls-4,.cls-6{stroke-linecap:round;stroke-linejoin:round;}.cls-3{stroke:#fff;stroke-width:1.33px;}.cls-4{stroke-width:0.66px;}.cls-5{fill:#74af27;}.cls-6{stroke-width:0.51px;}.cls-7{fill-rule:evenodd;}</style></defs><title>EV-Location-WorkplaceCharging</title><circle class="cls-1" cx="45" cy="37.74" r="28.35"/><path class="cls-2" d="M39.62,42H31.08l0-25.06a.88.88,0,0,1,1-1H45.77a.87.87,0,0,1,.94.93V28H41.48a1.73,1.73,0,0,0-1.86,1.86ZM32.84,17.79V21.2h1.68V17.79Zm3.47,3.42H38V17.8H36.31Zm5.15,0V17.8H39.78v3.41Zm1.8-3.42V21.2h1.67V17.79ZM32.84,23v3.42h1.67V23ZM38,23H36.32v3.41H38Zm1.79,3.4h1.68V23H39.78Zm3.47,0h1.68V23H43.25Zm-8.73,1.8H32.84v3.42h1.68Zm1.78,3.41H38v-3.4H36.3Zm-1.78,1.8H32.84v3.41h1.68Zm1.79,3.41H38V33.42H36.31Z"/><path class="cls-2" d="M51.82,36.69H46.51V42H41.27V30.67a.88.88,0,0,1,.95-1H56a.87.87,0,0,1,1,.94V42h-5.1Zm-8.77,0v3.41h1.67V36.68ZM55.14,40.1V36.69H53.46V40.1ZM43,31.47c0,1.1,0,2.16,0,3.22,0,.18.11.18.24.18.39,0,.79,0,1.19,0,.22,0,.29-.06.29-.29,0-.85,0-1.7,0-2.54v-.58Zm5.18,0H46.65a.32.32,0,0,0-.14.23c0,1,0,2,0,2.95,0,.2.09.24.26.24.4,0,.8,0,1.19,0,.22,0,.27-.08.27-.29,0-.82,0-1.64,0-2.46Zm3.47,0H50a.45.45,0,0,0,0,.08c0,1,0,2.09,0,3.14,0,.17.09.19.22.18h1.25c.19,0,.24-.07.24-.26,0-.71,0-1.42,0-2.13Zm1.76,0V34.7c0,.17.11.17.23.17H54.9c.2,0,.27-.06.26-.26,0-.9,0-1.79,0-2.68v-.47Z"/><path class="cls-3" d="M33.87,43.36v2.15a.45.45,0,0,0,.55.39,1.44,1.44,0,0,0,1.39-1.35s.17-1.25-1.48-1.48C34.33,43.07,33.87,43,33.87,43.36Z"/><path class="cls-3" d="M32.82,44.14a.33.33,0,0,1,0-.66h1.45v.66Z"/><path class="cls-3" d="M32.82,45.51a.33.33,0,0,1,0-.65h1.45v.65Z"/><path class="cls-4" d="M63.12,55.4s2.44-2.26.6-4.57c0,0-.84-1.52-6-2.71a10.39,10.39,0,0,1-2.84-1.28c-.92-.75-2-1.26-4.48-1.56A46.71,46.71,0,0,0,45.52,45s-4.11-.42-5.28,2.55a11.78,11.78,0,0,0-.56,3.29v1.57s.16,1.4-.72,1.52c0,0-1,.16-1-1.44V48s.44-3.54-2-3.54h-.8"/><line class="cls-4" x1="55.76" y1="55.81" x2="47.32" y2="55.81"/><ellipse class="cls-4" cx="59.29" cy="53.88" rx="2.85" ry="2.93"/><ellipse class="cls-4" cx="43.74" cy="53.88" rx="2.85" ry="2.93"/><path class="cls-5" d="M33.87,43.36v2.15a.45.45,0,0,0,.55.39,1.44,1.44,0,0,0,1.39-1.35s.17-1.25-1.48-1.48C34.33,43.07,33.87,43,33.87,43.36Z"/><path class="cls-5" d="M32.82,44.14a.33.33,0,0,1,0-.66h1.45v.66Z"/><path class="cls-5" d="M32.82,45.51a.33.33,0,0,1,0-.65h1.45v.65Z"/><rect class="cls-5" x="28.11" y="41.62" width="3.89" height="14.4" transform="translate(60.12 97.65) rotate(-180)"/><rect class="cls-6" x="28.03" y="40.41" width="4.06" height="1.22" rx="0.61" transform="translate(60.12 82.03) rotate(180)"/><path class="cls-7" d="M28.56,44.61V43.39a.47.47,0,0,1,.08-.26.93.93,0,0,1,.51-.38,1.65,1.65,0,0,1,.66-.12,4.84,4.84,0,0,1,.85,0,1.43,1.43,0,0,1,.57.23.63.63,0,0,1,.33.56v2.33a.56.56,0,0,1-.16.41,1.38,1.38,0,0,1-.65.35,2.33,2.33,0,0,1-.53.06,3.07,3.07,0,0,1-.68,0,1.39,1.39,0,0,1-.75-.31.55.55,0,0,1-.23-.46V44.61Zm2.27-1.24a1.08,1.08,0,0,0-.44-.14,2.84,2.84,0,0,0-.77,0,1.28,1.28,0,0,0-.33.11.56.56,0,0,0-.18.16.18.18,0,0,0,0,.1v.75c0,.4,0,.79,0,1.18a.31.31,0,0,0,.16.28,1.26,1.26,0,0,0,.43.13,3.4,3.4,0,0,0,.64,0,1.31,1.31,0,0,0,.47-.12l.11-.07a.28.28,0,0,0,.11-.24v-1.9s0,0,0-.07A.25.25,0,0,0,30.83,43.37Z"/><path class="cls-5" d="M22.56,70.68h.78l1.8,5.25,1.73-5.26h.58l1.73,5.26L31,70.68h.75L29.48,77h-.61l-1.72-5.11L25.41,77h-.6Z"/><path class="cls-5" d="M31.75,74.68v0a2.43,2.43,0,1,1,4.85,0h0a2.41,2.41,0,0,1-2.43,2.43A2.38,2.38,0,0,1,31.75,74.68Zm4.14,0v0a1.76,1.76,0,0,0-1.72-1.82,1.73,1.73,0,0,0-1.71,1.81h0a1.75,1.75,0,0,0,1.72,1.81A1.72,1.72,0,0,0,35.89,74.68Z"/><path class="cls-5" d="M37.58,72.33h.7v1.22a2,2,0,0,1,1.9-1.3V73h-.06a1.88,1.88,0,0,0-1.84,2.13V77h-.7Z"/><path class="cls-5" d="M41,70.41h.69V75l2.51-2.62H45l-2,2,2,2.66h-.83L42.6,74.82l-1,1V77H41Z"/><path class="cls-5" d="M45.81,72.33h.69v.94a2.1,2.1,0,0,1,1.79-1,2.27,2.27,0,0,1,2.22,2.42h0a2.28,2.28,0,0,1-2.22,2.42,2.09,2.09,0,0,1-1.79-1v2.34h-.69Zm4,2.34v0a1.68,1.68,0,0,0-1.64-1.8,1.74,1.74,0,0,0-1.68,1.8h0a1.73,1.73,0,0,0,1.68,1.8A1.64,1.64,0,0,0,49.8,74.67Z"/><path class="cls-5" d="M51.58,70.41h.69V77h-.69Z"/><path class="cls-5" d="M53.26,75.64v0c0-1,.81-1.51,2-1.51a4.78,4.78,0,0,1,1.43.2v-.16c0-.84-.51-1.27-1.38-1.27a3.27,3.27,0,0,0-1.42.34l-.2-.56a3.73,3.73,0,0,1,1.69-.39,2,2,0,0,1,1.5.51,1.83,1.83,0,0,1,.48,1.36V77h-.67v-.71a2,2,0,0,1-1.68.8A1.57,1.57,0,0,1,53.26,75.64Zm3.43-.36v-.45a4.8,4.8,0,0,0-1.37-.2c-.87,0-1.36.38-1.36,1v0c0,.58.54.93,1.17.93A1.41,1.41,0,0,0,56.69,75.28Z"/><path class="cls-5" d="M58.27,74.68v0a2.4,2.4,0,0,1,2.38-2.43,2.43,2.43,0,0,1,1.87.83l-.46.49a1.89,1.89,0,0,0-1.42-.71A1.72,1.72,0,0,0,59,74.65h0a1.74,1.74,0,0,0,1.71,1.81,1.91,1.91,0,0,0,1.42-.69l.44.41a2.4,2.4,0,0,1-4.28-1.51Z"/><path class="cls-5" d="M63,74.67v0a2.3,2.3,0,0,1,2.23-2.42,2.22,2.22,0,0,1,2.17,2.46,1.77,1.77,0,0,1,0,.23H63.7a1.63,1.63,0,0,0,1.64,1.57,1.92,1.92,0,0,0,1.47-.66l.43.39a2.4,2.4,0,0,1-1.92.87A2.31,2.31,0,0,1,63,74.67Zm3.7-.27a1.53,1.53,0,0,0-1.49-1.58A1.6,1.6,0,0,0,63.7,74.4Z"/><path class="cls-5" d="M26.2,84.85v0a3.17,3.17,0,0,1,3.19-3.25,3.25,3.25,0,0,1,2.45,1l-.48.52a2.73,2.73,0,0,0-2-.87,2.47,2.47,0,0,0-2.44,2.59h0a2.49,2.49,0,0,0,2.44,2.61,2.75,2.75,0,0,0,2-.91l.47.46a3.31,3.31,0,0,1-2.52,1.1A3.14,3.14,0,0,1,26.2,84.85Z"/><path class="cls-5" d="M32.73,81.41h.7v2.73A1.76,1.76,0,0,1,35,83.23,1.7,1.7,0,0,1,36.8,85.1V88h-.69V85.27a1.24,1.24,0,0,0-1.29-1.41,1.37,1.37,0,0,0-1.39,1.46V88h-.7Z"/><path class="cls-5" d="M37.66,86.64v0c0-1,.81-1.51,2-1.51a4.88,4.88,0,0,1,1.43.2v-.16c0-.84-.52-1.27-1.39-1.27a3.19,3.19,0,0,0-1.41.34l-.21-.56a3.76,3.76,0,0,1,1.69-.39,2.07,2.07,0,0,1,1.51.51,1.87,1.87,0,0,1,.47,1.36V88h-.66v-.71a2,2,0,0,1-1.69.8A1.56,1.56,0,0,1,37.66,86.64Zm3.43-.36v-.45a4.85,4.85,0,0,0-1.37-.2c-.88,0-1.36.38-1.36,1v0c0,.58.54.93,1.17.93A1.42,1.42,0,0,0,41.09,86.28Z"/><path class="cls-5" d="M43,83.33h.69v1.22a2,2,0,0,1,1.9-1.3V84h0a1.88,1.88,0,0,0-1.85,2.13V88H43Z"/><path class="cls-5" d="M46.08,88.8l.32-.54a3,3,0,0,0,1.79.59,1.53,1.53,0,0,0,1.69-1.66v-.55a2.22,2.22,0,0,1-1.83,1,2.16,2.16,0,0,1-2.19-2.18v0a2.2,2.2,0,0,1,4-1.26v-.84h.69v3.85A2.22,2.22,0,0,1,50,88.82a2.42,2.42,0,0,1-1.77.62A3.66,3.66,0,0,1,46.08,88.8Zm3.82-3.36v0a1.64,1.64,0,0,0-1.71-1.58,1.54,1.54,0,0,0-1.61,1.57v0A1.56,1.56,0,0,0,48.19,87,1.64,1.64,0,0,0,49.9,85.44Z"/><path class="cls-5" d="M51.86,81.55h.79v.76h-.79Zm0,1.78h.7V88h-.7Z"/><path class="cls-5" d="M53.94,83.33h.69v.81a1.77,1.77,0,0,1,1.59-.91A1.71,1.71,0,0,1,58,85.1V88h-.7V85.27A1.24,1.24,0,0,0,56,83.86a1.37,1.37,0,0,0-1.4,1.46V88h-.69Z"/><path class="cls-5" d="M59.16,88.8l.31-.54a3,3,0,0,0,1.79.59A1.54,1.54,0,0,0,63,87.19v-.55a2.23,2.23,0,0,1-1.83,1,2.15,2.15,0,0,1-2.19-2.18v0a2.2,2.2,0,0,1,4-1.26v-.84h.69v3.85a2.26,2.26,0,0,1-.59,1.64,2.44,2.44,0,0,1-1.78.62A3.65,3.65,0,0,1,59.16,88.8ZM63,85.44v0a1.63,1.63,0,0,0-1.71-1.58,1.54,1.54,0,0,0-1.61,1.57v0A1.57,1.57,0,0,0,61.26,87,1.64,1.64,0,0,0,63,85.44Z"/></svg>