<svg id="Layer_1" data-name="Layer 1" xmlns="http://www.w3.org/2000/svg" xmlns:xlink="http://www.w3.org/1999/xlink" viewBox="0 0 90 100"><defs><style>.cls-1,.cls-10,.cls-11,.cls-5,.cls-6,.cls-7{fill:none;}.cls-12,.cls-2,.cls-8,.cls-9{fill:#fff;}.cls-10,.cls-12,.cls-2,.cls-5,.cls-6,.cls-7,.cls-9{stroke:#74af27;}.cls-11,.cls-12,.cls-2{stroke-miterlimit:10;}.cls-3{fill:#74af27;}.cls-4{clip-path:url(#clip-path);}.cls-10,.cls-5,.cls-6,.cls-7,.cls-9{stroke-linecap:round;stroke-linejoin:round;}.cls-5,.cls-6{stroke-width:0.61px;}.cls-6{stroke-dasharray:4.46 3.34;}.cls-7{stroke-width:0.78px;}.cls-9{stroke-width:0.68px;}.cls-10{stroke-width:0.91px;}.cls-11{stroke:#fff;stroke-width:0.23px;}.cls-12{stroke-width:0.74px;}</style><clipPath id="clip-path"><circle class="cls-1" cx="45" cy="37.74" r="28.28"/></clipPath></defs><title>EV-Location-OnStreetCharging</title><circle class="cls-2" cx="45" cy="37.74" r="28.35"/><path class="cls-3" d="M25.2,73.85v0a3.22,3.22,0,1,1,6.43,0h0a3.22,3.22,0,1,1-6.43,0Zm5.69,0v0a2.48,2.48,0,1,0-4.95,0h0a2.48,2.48,0,1,0,4.95,0Z"/><path class="cls-3" d="M32.74,72.33h.7v.81A1.76,1.76,0,0,1,35,72.23a1.7,1.7,0,0,1,1.78,1.87V77h-.69V74.27a1.24,1.24,0,0,0-1.29-1.41,1.37,1.37,0,0,0-1.39,1.46V77h-.7Z"/><path class="cls-3" d="M40.15,76.07l.44-.52a3,3,0,0,0,2.16.89c.85,0,1.4-.45,1.4-1.07v0c0-.59-.31-.92-1.63-1.2s-2.12-.78-2.12-1.82v0a1.86,1.86,0,0,1,2.07-1.72,3.27,3.27,0,0,1,2.22.78l-.42.55a2.75,2.75,0,0,0-1.82-.69c-.82,0-1.34.45-1.34,1v0c0,.59.33.93,1.71,1.22s2.06.82,2.06,1.79h0c0,1.08-.91,1.79-2.16,1.79A3.69,3.69,0,0,1,40.15,76.07Z"/><path class="cls-3" d="M46.13,75.75V72.94h-.64v-.61h.64v-1.4h.7v1.4H48.3v.61H46.83v2.72a.69.69,0,0,0,.78.78,1.48,1.48,0,0,0,.68-.17v.6a1.86,1.86,0,0,1-.84.2A1.19,1.19,0,0,1,46.13,75.75Z"/><path class="cls-3" d="M49.26,72.33H50v1.22a2,2,0,0,1,1.9-1.3V73h-.06A1.88,1.88,0,0,0,50,75.13V77h-.69Z"/><path class="cls-3" d="M52.15,74.67v0a2.29,2.29,0,0,1,2.23-2.42,2.22,2.22,0,0,1,2.17,2.46,1.77,1.77,0,0,1,0,.23H52.85a1.63,1.63,0,0,0,1.64,1.57A1.89,1.89,0,0,0,56,75.83l.44.39a2.42,2.42,0,0,1-1.92.87A2.31,2.31,0,0,1,52.15,74.67Zm3.7-.27a1.54,1.54,0,0,0-1.49-1.58,1.6,1.6,0,0,0-1.51,1.58Z"/><path class="cls-3" d="M57.2,74.67v0a2.3,2.3,0,0,1,2.24-2.42,2.22,2.22,0,0,1,2.17,2.46,1.77,1.77,0,0,1,0,.23H57.91a1.62,1.62,0,0,0,1.63,1.57A1.92,1.92,0,0,0,61,75.83l.43.39a2.38,2.38,0,0,1-1.91.87A2.32,2.32,0,0,1,57.2,74.67Zm3.7-.27a1.53,1.53,0,0,0-1.48-1.58,1.6,1.6,0,0,0-1.51,1.58Z"/><path class="cls-3" d="M62.79,75.75V72.94h-.65v-.61h.65v-1.4h.7v1.4H65v.61H63.49v2.72a.69.69,0,0,0,.78.78,1.42,1.42,0,0,0,.67-.17v.6a1.79,1.79,0,0,1-.83.2A1.19,1.19,0,0,1,62.79,75.75Z"/><path class="cls-3" d="M26.2,84.85v0a3.17,3.17,0,0,1,3.19-3.25,3.25,3.25,0,0,1,2.45,1l-.48.52a2.73,2.73,0,0,0-2-.87,2.47,2.47,0,0,0-2.44,2.59h0a2.49,2.49,0,0,0,2.44,2.61,2.75,2.75,0,0,0,2-.91l.47.46a3.31,3.31,0,0,1-2.52,1.1A3.14,3.14,0,0,1,26.2,84.85Z"/><path class="cls-3" d="M32.73,81.41h.7v2.73A1.76,1.76,0,0,1,35,83.23,1.7,1.7,0,0,1,36.8,85.1V88h-.69V85.27a1.24,1.24,0,0,0-1.29-1.41,1.37,1.37,0,0,0-1.39,1.46V88h-.7Z"/><path class="cls-3" d="M37.66,86.64v0c0-1,.81-1.51,2-1.51a4.88,4.88,0,0,1,1.43.2v-.16c0-.84-.52-1.27-1.39-1.27a3.19,3.19,0,0,0-1.41.34l-.21-.56a3.76,3.76,0,0,1,1.69-.39,2.07,2.07,0,0,1,1.51.51,1.87,1.87,0,0,1,.47,1.36V88h-.66v-.71a2,2,0,0,1-1.69.8A1.56,1.56,0,0,1,37.66,86.64Zm3.43-.36v-.45a4.85,4.85,0,0,0-1.37-.2c-.88,0-1.36.38-1.36,1v0c0,.58.54.93,1.17.93A1.42,1.42,0,0,0,41.09,86.28Z"/><path class="cls-3" d="M43,83.33h.69v1.22a2,2,0,0,1,1.9-1.3V84h0a1.88,1.88,0,0,0-1.85,2.13V88H43Z"/><path class="cls-3" d="M46.08,88.8l.32-.54a3,3,0,0,0,1.79.59,1.53,1.53,0,0,0,1.69-1.66v-.55a2.22,2.22,0,0,1-1.83,1,2.16,2.16,0,0,1-2.19-2.18v0a2.2,2.2,0,0,1,4-1.26v-.84h.69v3.85A2.22,2.22,0,0,1,50,88.82a2.42,2.42,0,0,1-1.77.62A3.66,3.66,0,0,1,46.08,88.8Zm3.82-3.36v0a1.64,1.64,0,0,0-1.71-1.58,1.54,1.54,0,0,0-1.61,1.57v0A1.56,1.56,0,0,0,48.19,87,1.64,1.64,0,0,0,49.9,85.44Z"/><path class="cls-3" d="M51.86,81.55h.79v.76h-.79Zm0,1.78h.7V88h-.7Z"/><path class="cls-3" d="M53.94,83.33h.69v.81a1.77,1.77,0,0,1,1.59-.91A1.71,1.71,0,0,1,58,85.1V88h-.7V85.27A1.24,1.24,0,0,0,56,83.86a1.37,1.37,0,0,0-1.4,1.46V88h-.69Z"/><path class="cls-3" d="M59.16,88.8l.31-.54a3,3,0,0,0,1.79.59A1.54,1.54,0,0,0,63,87.19v-.55a2.23,2.23,0,0,1-1.83,1,2.15,2.15,0,0,1-2.19-2.18v0a2.2,2.2,0,0,1,4-1.26v-.84h.69v3.85a2.26,2.26,0,0,1-.59,1.64,2.44,2.44,0,0,1-1.78.62A3.65,3.65,0,0,1,59.16,88.8ZM63,85.44v0a1.63,1.63,0,0,0-1.71-1.58,1.54,1.54,0,0,0-1.61,1.57v0A1.57,1.57,0,0,0,61.26,87,1.64,1.64,0,0,0,63,85.44Z"/><g class="cls-4"><polyline class="cls-5" points="11.22 28.57 11.22 41.35 18.78 41.35 18.78 32.43 25.07 32.43 25.07 41.35 32.41 41.35 32.41 28.57"/><polyline class="cls-5" points="32.29 41.35 39.84 41.35 39.84 32.43 46.14 32.43 46.14 41.35 53.48 41.35 53.48 28.57"/><polyline class="cls-5" points="53.48 41.35 61.04 41.35 61.04 32.43 67.33 32.43 67.33 41.35 74.67 41.35 74.67 28.57"/><polyline class="cls-5" points="17.85 14.42 17.85 10.66 14.7 10.66 14.7 14.42"/><polyline class="cls-5" points="37.19 14.42 37.19 10.66 34.04 10.66 34.04 14.42"/><polyline class="cls-5" points="58.45 14.42 58.45 10.66 55.31 10.66 55.31 14.42"/><polygon class="cls-5" points="76.03 26.84 9.66 26.84 12.56 15.45 73.13 15.45 76.03 26.84"/><line class="cls-5" x1="16.55" y1="47.09" x2="77.45" y2="47.09"/><line class="cls-5" x1="23.52" y1="59.42" x2="25.8" y2="59.42"/><line class="cls-6" x1="29.14" y1="59.42" x2="66.48" y2="59.42"/><line class="cls-5" x1="68.15" y1="59.42" x2="70.43" y2="59.42"/><line class="cls-7" x1="16.8" y1="47.76" x2="76.95" y2="47.76"/><path class="cls-8" d="M54.66,55.13h5.55a6,6,0,0,0,1.66-.4s2.39-2.22.59-4.48c0,0-.82-1.49-5.88-2.66a10.23,10.23,0,0,1-2.79-1.26c-.89-.74-1.93-1.23-4.39-1.53a46.21,46.21,0,0,0-4.78-.32s-4-.41-5.17,2.5a11.47,11.47,0,0,0-.55,3.23v1.53s-1.23,3.46,7.39,3.43Z"/><path class="cls-9" d="M61.87,54.73s2.39-2.22.59-4.48c0,0-.82-1.49-5.88-2.66a10.23,10.23,0,0,1-2.79-1.26c-.89-.74-1.93-1.23-4.39-1.53a46.21,46.21,0,0,0-4.78-.32s-4-.41-5.17,2.5a11.47,11.47,0,0,0-.55,3.23v1.53s.15,1.37-.71,1.49c0,0-.94.16-1-1.41V47.5S37.64,44,35.29,44h-.78"/><path class="cls-9" d="M34.51,44h.78c2.35,0,1.92,3.47,1.92,3.47v4.32c0,1.57,1,1.41,1,1.41.86-.12.71-1.49.71-1.49V50.21A11.47,11.47,0,0,1,39.45,47c1.14-2.91,5.17-2.5,5.17-2.5a46.21,46.21,0,0,1,4.78.32c2.46.3,3.5.79,4.39,1.53a10.23,10.23,0,0,0,2.79,1.26c5.06,1.17,5.88,2.66,5.88,2.66,1.8,2.26-.59,4.48-.59,4.48"/><line class="cls-9" x1="46.38" y1="55.13" x2="54.66" y2="55.13"/><ellipse class="cls-9" cx="58.12" cy="53.24" rx="2.79" ry="2.87"/><ellipse class="cls-9" cx="42.87" cy="53.24" rx="2.79" ry="2.87"/><path class="cls-3" d="M33.19,42.92V45a.44.44,0,0,0,.54.38,1.42,1.42,0,0,0,1.37-1.32s.17-1.22-1.45-1.46C33.65,42.63,33.19,42.54,33.19,42.92Z"/><path class="cls-3" d="M32.17,43.68a.32.32,0,0,1,0-.64h1.42v.64Z"/><path class="cls-3" d="M32.17,45a.32.32,0,0,1,0-.64h1.42V45Z"/><path class="cls-3" d="M27.87,46V37a1,1,0,1,1,2.05,0V46A2,2,0,0,1,27.87,46Z"/><line class="cls-10" x1="28.89" y1="37.74" x2="28.89" y2="19.68"/><rect class="cls-11" x="28.35" y="41.7" width="1.06" height="3.21" rx="0.52"/><rect class="cls-11" x="28.35" y="37.97" width="1.06" height="3.21" rx="0.52"/><path class="cls-12" d="M28.44,18.28h.92a1.1,1.1,0,0,1,1.1,1.1v0a.74.74,0,0,1-.74.74H28.07a.74.74,0,0,1-.74-.74v0a1.1,1.1,0,0,1,1.1-1.1Z"/></g></svg>