<svg id="Layer_1" data-name="Layer 1" xmlns="http://www.w3.org/2000/svg" xmlns:xlink="http://www.w3.org/1999/xlink" viewBox="0 0 90 100"><defs><style>.cls-1,.cls-10,.cls-11,.cls-5,.cls-6,.cls-7{fill:none;}.cls-12,.cls-2,.cls-8,.cls-9{fill:#fff;}.cls-10,.cls-12,.cls-2,.cls-5,.cls-6,.cls-7,.cls-9{stroke:#74af27;}.cls-11,.cls-12,.cls-2{stroke-miterlimit:10;}.cls-3{fill:#74af27;}.cls-4{clip-path:url(#clip-path);}.cls-10,.cls-5,.cls-6,.cls-7,.cls-9{stroke-linecap:round;stroke-linejoin:round;}.cls-5,.cls-6{stroke-width:0.61px;}.cls-6{stroke-dasharray:4.56 3.42;}.cls-7{stroke-width:0.78px;}.cls-9{stroke-width:0.68px;}.cls-10{stroke-width:0.91px;}.cls-11{stroke:#fff;stroke-width:0.23px;}.cls-12{stroke-width:0.74px;}</style><clipPath id="clip-path"><circle class="cls-1" cx="45" cy="37.74" r="28.35"/></clipPath></defs><title>EV-Location-HighwaySpecColumn</title><circle class="cls-2" cx="45" cy="37.74" r="28.35"/><path class="cls-3" d="M15.67,70.68h.71v2.8H20v-2.8h.71V77H20V74.15H16.38V77h-.71Z"/><path class="cls-3" d="M22.14,70.55h.79v.76h-.79Zm.05,1.78h.69V77h-.69Z"/><path class="cls-3" d="M24.17,77.8l.31-.54a3,3,0,0,0,1.79.59A1.53,1.53,0,0,0,28,76.19v-.55a2.2,2.2,0,0,1-1.82,1A2.15,2.15,0,0,1,24,74.45v0a2.2,2.2,0,0,1,4-1.26v-.84h.69v3.85a2.22,2.22,0,0,1-.6,1.64,2.4,2.4,0,0,1-1.77.62A3.65,3.65,0,0,1,24.17,77.8ZM28,74.44v0a1.64,1.64,0,0,0-1.71-1.58,1.54,1.54,0,0,0-1.61,1.57v0A1.57,1.57,0,0,0,26.27,76,1.64,1.64,0,0,0,28,74.44Z"/><path class="cls-3" d="M29.93,70.41h.69v2.73a1.76,1.76,0,0,1,1.59-.91A1.7,1.7,0,0,1,34,74.1V77H33.3V74.27A1.24,1.24,0,0,0,32,72.86a1.37,1.37,0,0,0-1.39,1.46V77h-.69Z"/><path class="cls-3" d="M34.67,72.33h.74l1.22,3.74,1.25-3.76h.58l1.26,3.76,1.22-3.74h.72L40,77h-.61l-1.25-3.67L36.91,77H36.3Z"/><path class="cls-3" d="M42,75.64v0c0-1,.81-1.51,2-1.51a4.78,4.78,0,0,1,1.43.2v-.16c0-.84-.51-1.27-1.38-1.27a3.27,3.27,0,0,0-1.42.34l-.2-.56a3.73,3.73,0,0,1,1.69-.39,2,2,0,0,1,1.5.51,1.83,1.83,0,0,1,.48,1.36V77h-.67v-.71a2,2,0,0,1-1.68.8A1.56,1.56,0,0,1,42,75.64Zm3.43-.36v-.45a4.8,4.8,0,0,0-1.37-.2c-.87,0-1.36.38-1.36,1v0c0,.58.54.93,1.17.93A1.41,1.41,0,0,0,45.44,75.28Z"/><path class="cls-3" d="M50.61,72.33h.74l-2,4.81c-.39,1-.84,1.31-1.55,1.31a2.19,2.19,0,0,1-1-.23l.24-.55a1.41,1.41,0,0,0,.73.17c.41,0,.67-.21,1-.87l-2.11-4.64h.76l1.69,3.88Z"/><path class="cls-3" d="M54.31,76.07l.44-.52a3,3,0,0,0,2.16.89c.84,0,1.4-.45,1.4-1.07v0c0-.59-.31-.92-1.64-1.2s-2.11-.78-2.11-1.82v0a1.86,1.86,0,0,1,2.07-1.72,3.24,3.24,0,0,1,2.21.78l-.41.55a2.77,2.77,0,0,0-1.82-.69c-.82,0-1.34.45-1.34,1v0c0,.59.32.93,1.71,1.22S59,74.31,59,75.28h0c0,1.08-.9,1.79-2.15,1.79A3.69,3.69,0,0,1,54.31,76.07Z"/><path class="cls-3" d="M60.09,72.33h.7v.94a2.07,2.07,0,0,1,1.78-1,2.27,2.27,0,0,1,2.22,2.42h0a2.28,2.28,0,0,1-2.22,2.42,2.07,2.07,0,0,1-1.78-1v2.34h-.7Zm4,2.34v0a1.68,1.68,0,0,0-1.64-1.8,1.74,1.74,0,0,0-1.68,1.8h0a1.73,1.73,0,0,0,1.68,1.8A1.64,1.64,0,0,0,64.08,74.67Z"/><path class="cls-3" d="M65.51,74.67v0a2.3,2.3,0,0,1,2.23-2.42,2.22,2.22,0,0,1,2.17,2.46,1.77,1.77,0,0,1,0,.23H66.21a1.63,1.63,0,0,0,1.64,1.57,1.92,1.92,0,0,0,1.47-.66l.43.39a2.42,2.42,0,0,1-1.92.87A2.31,2.31,0,0,1,65.51,74.67Zm3.7-.27a1.53,1.53,0,0,0-1.49-1.58,1.6,1.6,0,0,0-1.51,1.58Z"/><path class="cls-3" d="M70.57,74.68v0a2.42,2.42,0,0,1,4.25-1.6l-.46.49A1.87,1.87,0,0,0,73,72.84a1.73,1.73,0,0,0-1.67,1.81h0A1.74,1.74,0,0,0,73,76.47a1.91,1.91,0,0,0,1.42-.69l.44.41a2.35,2.35,0,0,1-1.89.9A2.38,2.38,0,0,1,70.57,74.68Z"/><path class="cls-3" d="M29.1,84.85v0a3.17,3.17,0,0,1,3.19-3.25,3.25,3.25,0,0,1,2.45,1l-.48.52a2.74,2.74,0,0,0-2-.87,2.47,2.47,0,0,0-2.44,2.59h0a2.49,2.49,0,0,0,2.44,2.61,2.75,2.75,0,0,0,2-.91l.47.46a3.31,3.31,0,0,1-2.52,1.1A3.14,3.14,0,0,1,29.1,84.85Z"/><path class="cls-3" d="M35.25,85.68v0a2.43,2.43,0,0,1,4.86,0h0a2.42,2.42,0,0,1-2.44,2.43A2.38,2.38,0,0,1,35.25,85.68Zm4.14,0v0a1.76,1.76,0,0,0-1.72-1.82A1.73,1.73,0,0,0,36,85.65h0a1.75,1.75,0,0,0,1.72,1.81A1.72,1.72,0,0,0,39.39,85.68Z"/><path class="cls-3" d="M41.15,81.41h.69V88h-.69Z"/><path class="cls-3" d="M43.11,86.22V83.33h.69v2.72a1.24,1.24,0,0,0,1.29,1.4A1.37,1.37,0,0,0,46.49,86V83.33h.68V88h-.68v-.81a1.79,1.79,0,0,1-1.6.9A1.7,1.7,0,0,1,43.11,86.22Z"/><path class="cls-3" d="M48.46,83.33h.69v.78a1.72,1.72,0,0,1,1.5-.88,1.59,1.59,0,0,1,1.5.93,1.86,1.86,0,0,1,1.64-.93,1.67,1.67,0,0,1,1.72,1.87V88h-.69V85.27c0-.9-.45-1.41-1.2-1.41a1.29,1.29,0,0,0-1.28,1.44V88h-.7V85.25c0-.87-.46-1.39-1.19-1.39a1.35,1.35,0,0,0-1.3,1.47V88h-.69Z"/><path class="cls-3" d="M56.75,83.33h.69v.81A1.76,1.76,0,0,1,59,83.23a1.7,1.7,0,0,1,1.78,1.87V88h-.69V85.27a1.24,1.24,0,0,0-1.29-1.41,1.37,1.37,0,0,0-1.39,1.46V88h-.69Z"/><g class="cls-4"><polyline class="cls-5" points="10.55 28.39 10.55 41.42 18.25 41.42 18.25 32.32 24.67 32.32 24.67 41.42 32.16 41.42 32.16 28.39"/><polyline class="cls-5" points="32.04 41.42 39.74 41.42 39.74 32.32 46.16 32.32 46.16 41.42 53.65 41.42 53.65 28.39"/><polyline class="cls-5" points="53.65 41.42 61.36 41.42 61.36 32.32 67.78 32.32 67.78 41.42 75.27 41.42 75.27 28.39"/><polyline class="cls-5" points="17.31 13.95 17.31 10.12 14.1 10.12 14.1 13.95"/><polyline class="cls-5" points="37.03 13.95 37.03 10.12 33.82 10.12 33.82 13.95"/><polyline class="cls-5" points="58.72 13.95 58.72 10.12 55.51 10.12 55.51 13.95"/><polygon class="cls-5" points="76.66 26.62 8.95 26.62 11.91 15.01 73.7 15.01 76.66 26.62"/><line class="cls-5" x1="15.98" y1="47.28" x2="78.1" y2="47.28"/><line class="cls-5" x1="23.09" y1="59.86" x2="25.37" y2="59.86"/><line class="cls-6" x1="28.79" y1="59.86" x2="66.95" y2="59.86"/><line class="cls-5" x1="68.66" y1="59.86" x2="70.94" y2="59.86"/><line class="cls-7" x1="16.23" y1="47.96" x2="77.59" y2="47.96"/><path class="cls-8" d="M54.85,55.48h5.67a5.91,5.91,0,0,0,1.69-.41s2.44-2.27.6-4.57c0,0-.84-1.52-6-2.72A10.58,10.58,0,0,1,54,46.51c-.91-.76-2-1.26-4.48-1.57s-4.88-.33-4.88-.33-4.11-.42-5.28,2.56a11.69,11.69,0,0,0-.56,3.29V52s-1.25,3.53,7.54,3.49Z"/><path class="cls-9" d="M62.21,55.07s2.44-2.27.6-4.57c0,0-.84-1.52-6-2.72A10.58,10.58,0,0,1,54,46.51c-.91-.76-2-1.26-4.48-1.57s-4.88-.33-4.88-.33-4.11-.42-5.28,2.56a11.69,11.69,0,0,0-.56,3.29V52s.16,1.4-.72,1.52c0,0-1,.17-1-1.44V47.7s.44-3.54-1.95-3.54h-.8"/><path class="cls-9" d="M34.3,44.16h.8c2.39,0,1.95,3.54,1.95,3.54v4.4c0,1.61,1,1.44,1,1.44.88-.12.72-1.52.72-1.52V50.46a11.69,11.69,0,0,1,.56-3.29c1.17-3,5.28-2.56,5.28-2.56s2.27,0,4.88.33,3.57.81,4.48,1.57a10.58,10.58,0,0,0,2.84,1.27c5.16,1.2,6,2.72,6,2.72,1.84,2.3-.6,4.57-.6,4.57"/><line class="cls-9" x1="46.41" y1="55.48" x2="54.85" y2="55.48"/><ellipse class="cls-9" cx="58.38" cy="53.55" rx="2.85" ry="2.93"/><ellipse class="cls-9" cx="42.83" cy="53.55" rx="2.85" ry="2.93"/><path class="cls-3" d="M33,43v2.15a.44.44,0,0,0,.55.38,1.44,1.44,0,0,0,1.39-1.34s.17-1.25-1.48-1.49C33.42,42.73,33,42.64,33,43Z"/><path class="cls-3" d="M31.92,43.8a.33.33,0,0,1,0-.65h1.44v.65Z"/><path class="cls-3" d="M31.92,45.18a.33.33,0,0,1,0-.66h1.44v.66Z"/><path class="cls-3" d="M27.52,46.12V37a1.05,1.05,0,0,1,2.1,0v9.1A2.06,2.06,0,0,1,27.52,46.12Z"/><line class="cls-10" x1="28.57" y1="37.74" x2="28.57" y2="19.32"/><rect class="cls-11" x="28.02" y="41.78" width="1.08" height="3.28" rx="0.54"/><rect class="cls-11" x="28.02" y="37.97" width="1.08" height="3.28" rx="0.54"/><path class="cls-12" d="M27.74,17.89H29A1.14,1.14,0,0,1,30.16,19v0a.76.76,0,0,1-.76.76H27.74A.76.76,0,0,1,27,19v-.38A.76.76,0,0,1,27.74,17.89Z"/></g></svg>