<svg id="Layer_1" data-name="Layer 1" xmlns="http://www.w3.org/2000/svg" viewBox="0 0 90 100"><defs><style>.cls-1{fill:#74af27;}</style></defs><title>EV-Misc-EVChargingSymbol</title><path class="cls-1" d="M72.22,52.65a17.59,17.59,0,0,0,.17-3.45h0A27.41,27.41,0,1,0,61,72.27c.9.92,2,2,2.18,2.19a1.27,1.27,0,0,0,1.32,0c.2-.2,3.48-2.49,3.76-2.78a.71.71,0,0,0,0-.93s-.32-.41-.47-.61c.71-.56,3.2-2.55,3.42-2.79s.09-.62-.14-.92a8.34,8.34,0,0,0-.83-1,.83.83,0,0,0-.91,0c-.16.14-3.12,2.52-3.12,2.52l-.55-.68L64.2,65.53c.6-.5,3-2.55,3.34-2.75a.64.64,0,0,0,.31-.85,12.88,12.88,0,0,0-1.24-1.49c-.28-.23-.57,0-.9.28s-2.6,2.09-3.29,2.64c-.28-.33-.49-.57-.59-.66a.68.68,0,0,0-1,0c-.25.2-2.26,1.84-3,2.46a1.52,1.52,0,0,0-.34,2c.21.48,1,1.75,1.29,2.19A23.73,23.73,0,1,1,68.73,50v0a.25.25,0,0,1-.24.21c-.28,0-1.64.12-3.48.12-2.08,0-2.6.11-2.93.35s-.48.54-.48,2.11-.39,4.13-3.37,4.13S54.86,53.79,54.86,53s-1-1-1.57-1h-12a1.61,1.61,0,0,0-1.59,1.77,3.25,3.25,0,0,1-3.39,3.13c-2.61,0-3.22-2.85-3.24-3.09a2.37,2.37,0,0,0-.18-1.2c-.28-.56-1.08-.65-1.41-.65H28.5c-.29,0-.37-.46-.37-.67V49.52c0-.34.26-.45.56-.56l7.38-2.63a7.71,7.71,0,0,0,1.73-.77c.29-.23,4.88-3.54,5.25-3.78a1.88,1.88,0,0,1,1.11-.28h11.2a1.35,1.35,0,0,1,.87.26l2.83,2.87a1.44,1.44,0,0,0,2.08,0c.64-.65,0-1.5-.15-1.68L57.23,39.2a1.05,1.05,0,0,0-.79-.29H43.26a2,2,0,0,0-1.34.5c-.52.52-4.75,3.53-5.05,3.67S27,46.87,26.56,47a1.51,1.51,0,0,0-1,1.3V53c0,.41.34,1.56,1.26,1.56h3.38a.38.38,0,0,1,.37.29c0,.15,1.26,4.6,5.42,4.6a6.14,6.14,0,0,0,6-4.19,1.51,1.51,0,0,0,.11-.67H52.2c.19,0,0-.22.19,0s1.18,4.86,5.82,4.86,5.94-4.41,5.94-5.6.71-1,.93-1h6.48l.48,0c.12,0,.17-.12.18-.17"/></svg>