<svg id="Layer_1" data-name="Layer 1" xmlns="http://www.w3.org/2000/svg" viewBox="0 0 90 100"><defs><style>.cls-1,.cls-2{fill:none;}.cls-1{stroke:#74af27;stroke-linecap:round;stroke-linejoin:round;stroke-width:1.61px;}.cls-3{fill:#74af27;}</style></defs><title>EV-Misc-SolarCharge-ScreenIcons</title><path class="cls-1" d="M25.84,48.85H64.16M38.33,34.51l.18.22a7.54,7.54,0,0,0,.55.59A8.06,8.06,0,0,0,45,37.79h.13a8.07,8.07,0,0,0,5.81-2.47c.19-.19.37-.39.54-.59l.18-.22M55.81,33a1.79,1.79,0,0,0-.54,1.32,1.76,1.76,0,0,0,.54,1.32,1.8,1.8,0,0,0,1.33.55A1.88,1.88,0,0,0,59,34.29,1.8,1.8,0,0,0,58.45,33a1.84,1.84,0,0,0-1.31-.55A1.88,1.88,0,0,0,55.81,33ZM34.76,28.19l1.35-.06c3-.13,5.93-.2,8.89-.21s5.91.08,8.87.21l1.37.06m4.43,3a9.37,9.37,0,0,0,1.55-5.3,9.34,9.34,0,0,0-1.75-5.6A11.24,11.24,0,0,0,58.36,19a9.42,9.42,0,0,0-6.89-2.86H48.36M34.19,33a1.75,1.75,0,0,1,.54,1.32,1.72,1.72,0,0,1-.54,1.32,1.85,1.85,0,0,1-2.63,0A1.8,1.8,0,0,1,31,34.29,1.86,1.86,0,0,1,34.19,33Zm.57-9.73-2.91,5.9a6.84,6.84,0,0,1-.69,1.06l-1.72,2a3,3,0,0,0-.27.35,3.52,3.52,0,0,0-.61,2.22c0,.11,0,.22,0,.34,0,.42.08.84.13,1.24v.09c.09.76.18,1.47.28,2.14l0,.13v6.56a1.09,1.09,0,0,0,.31.79,1.13,1.13,0,0,0,.71.32h2.63a1.06,1.06,0,0,0,.69-.32,1.08,1.08,0,0,0,.33-.75V43.11q5.64.39,11.29.39t11.29-.39v2.16a1.12,1.12,0,0,0,1,1.07h2.62a1.09,1.09,0,0,0,.7-.32,1.06,1.06,0,0,0,.32-.79V38.67c.11-.71.22-1.46.31-2.27v-.09c0-.4.1-.82.14-1.24a3.64,3.64,0,0,0-.58-2.56,3,3,0,0,0-.27-.35l-.89-1-.83-.95a6.84,6.84,0,0,1-.69-1.06l-2.91-5.9a2.21,2.21,0,0,0-.37-.55,2.06,2.06,0,0,0-1.17-.6l-.21,0-.58-.1c-1.16-.18-2.36-.32-3.59-.42l-.7-.05-1.95-.09q-1.59-.07-3.27,0l-2,.09c-1.3.09-2.56.22-3.78.4l-.51.07-.58.1-.21,0a2.06,2.06,0,0,0-1.17.6A2,2,0,0,0,34.76,23.24Zm8-5.67V19.1h2.61A2.93,2.93,0,0,0,46,19,3,3,0,0,0,47.48,14a2.87,2.87,0,0,0-1.45-.8,2.93,2.93,0,0,0-.67-.07H42.75v1.53m-3.23,3h3.23v-3H39.52"/><path class="cls-2" d="M48.89,75.87a5.39,5.39,0,0,0-1.82-.33H45.48a8,8,0,0,0-1.44.1,4.56,4.56,0,0,0-1.6.56c-.42.24-.42.38-.42.47v8c0,.06,0,.1.1.2a4,4,0,0,0,1.7.75,7.77,7.77,0,0,0,1.6.17l.73,0a10.92,10.92,0,0,0,1.59-.11,4.12,4.12,0,0,0,2-.72.79.79,0,0,0,.23-.22V83.57h-.27a.84.84,0,0,1-.66-1.35L50,81v-.37h0V76.53A2.14,2.14,0,0,0,48.89,75.87Z"/><path class="cls-2" d="M42.12,68.61a4,4,0,0,0,1.7.75,7.7,7.7,0,0,0,1.6.17l.73,0a10.92,10.92,0,0,0,1.59-.11,4.16,4.16,0,0,0,2-.72c.19-.15.23-.22.23-.23,0-1,0-2,0-3v-1h0V60.32a2.14,2.14,0,0,0-1.1-.67,5.63,5.63,0,0,0-1.82-.32H45.48a9,9,0,0,0-1.44.1,5,5,0,0,0-1.6.56c-.42.25-.42.39-.42.48v7.95C42,68.47,42,68.51,42.12,68.61Z"/><path class="cls-2" d="M51.67,84.68a1.93,1.93,0,0,1-.89,1.58,5.78,5.78,0,0,1-2.8,1,12.51,12.51,0,0,1-1.83.13l-.76,0a9.55,9.55,0,0,1-2-.22A5.34,5.34,0,0,1,41,86a1.91,1.91,0,0,1-.62-1.4c0-2.66,0-5.31,0-8a2.19,2.19,0,0,1,1.23-1.91A6.49,6.49,0,0,1,43.74,74a10.18,10.18,0,0,1,1.74-.12h1.59a7.4,7.4,0,0,1,2.38.42,3.72,3.72,0,0,1,1.92,1.29,1.57,1.57,0,0,1,.29.88v2.39l2.59-3.38c0-.66,0-1.32,0-2v-1c0-1.61,0-3.43-.11-5.22,0-.58-.07-1.17-.09-1.76l0-.6c0-.31,0-.61,0-.91l-.08-.84c-.07-.67-.13-1.34-.22-2-.15-1.09-.33-2.26-.6-3.42a.83.83,0,0,0-.12-.25,2.42,2.42,0,0,0-1.08-.86,9,9,0,0,0-2.36-.72A17,17,0,0,0,46,55.59H45.2l-.46,0A23.17,23.17,0,0,0,42,56a7,7,0,0,0-2.16.78,1.77,1.77,0,0,0-.92,1,40.21,40.21,0,0,0-.83,5.7c-.08.91-.12,1.82-.17,2.74l-.06,1.19c0,.71-.08,1.42-.09,2.13v.59c0,1.87-.05,3.8,0,5.69,0,1,.1,2.11.15,3.16L38,80c0,.89.1,1.78.19,2.66a42,42,0,0,0,.7,4.5,1.32,1.32,0,0,0,.38.68,4.36,4.36,0,0,0,2,1,22,22,0,0,0,3.26.56,12.66,12.66,0,0,0,2.82,0c.8-.08,1.6-.19,2.4-.35a7.71,7.71,0,0,0,2.16-.71l1.75-4.46,0-.13c0-.07,0-.13,0-.2H51.67C51.67,83.94,51.66,84.31,51.67,84.68ZM40.35,60.46a2.18,2.18,0,0,1,1.23-1.91,6.49,6.49,0,0,1,2.16-.77,10.2,10.2,0,0,1,1.74-.13h1.59a7.14,7.14,0,0,1,2.38.42,3.72,3.72,0,0,1,1.92,1.29,1.57,1.57,0,0,1,.29.88v4.18h0c0,1.35,0,2.69,0,4a1.93,1.93,0,0,1-.89,1.58,5.78,5.78,0,0,1-2.8,1,12.5,12.5,0,0,1-1.83.12h-.76a9.55,9.55,0,0,1-2-.22A5.34,5.34,0,0,1,41,69.82a1.91,1.91,0,0,1-.62-1.41C40.34,65.76,40.35,63.11,40.35,60.46Z"/><path class="cls-2" d="M55.58,80.56a.84.84,0,0,1-.69-.36s0,0,0-.07a.82.82,0,0,1-.06-.7l.11-.31,1-2.51.4-1-.37.48L55,77.23l-.9,1.17-2.45,3.19-.24.31H55a.81.81,0,0,1,.53.22s.12.08.16.14a.83.83,0,0,1,.09.78l-.52,1.31-1,2.55L55,86l4.18-5.39H55.58Z"/><path class="cls-3" d="M43.4,71a9.55,9.55,0,0,0,2,.22h.76A12.5,12.5,0,0,0,48,71.09a5.78,5.78,0,0,0,2.8-1,1.93,1.93,0,0,0,.89-1.58c0-1.35,0-2.69,0-4h0V60.25a1.57,1.57,0,0,0-.29-.88,3.72,3.72,0,0,0-1.92-1.29,7.14,7.14,0,0,0-2.38-.42H45.48a10.2,10.2,0,0,0-1.74.13,6.49,6.49,0,0,0-2.16.77,2.18,2.18,0,0,0-1.23,1.91c0,2.65,0,5.3,0,7.95A1.91,1.91,0,0,0,41,69.82,5.34,5.34,0,0,0,43.4,71ZM42,60.46c0-.09,0-.23.42-.48a5,5,0,0,1,1.6-.56,9,9,0,0,1,1.44-.1h1.59a5.63,5.63,0,0,1,1.82.32,2.14,2.14,0,0,1,1.1.67v4.11h0v1c0,1,0,2,0,3,0,0,0,.08-.23.23a4.16,4.16,0,0,1-2,.72,10.92,10.92,0,0,1-1.59.11l-.73,0a7.7,7.7,0,0,1-1.6-.17,4,4,0,0,1-1.7-.75c-.1-.1-.1-.14-.1-.2V60.46Z"/><path class="cls-3" d="M61.67,79.36a.83.83,0,0,0-.75-.47H56.79l3.09-8.06A.83.83,0,0,0,58.44,70l-2.51,3.26v-.76c0-1.63,0-3.49-.11-5.34,0-.57-.07-1.14-.1-1.86l0-.44c0-.34,0-.68-.05-1L55.57,63c-.06-.7-.13-1.39-.23-2.08a34.76,34.76,0,0,0-.62-3.57,2.64,2.64,0,0,0-.32-.75,4.16,4.16,0,0,0-1.76-1.49,10.92,10.92,0,0,0-2.81-.86,18.51,18.51,0,0,0-3.92-.37h-.46a8.42,8.42,0,0,0-.87,0,22.82,22.82,0,0,0-2.95.45,9,9,0,0,0-2.66,1,3.39,3.39,0,0,0-1.67,2.08,40.55,40.55,0,0,0-.87,5.93c-.08.93-.13,1.86-.18,2.79l-.06,1.19c0,.74-.08,1.47-.09,2.2v.59c0,1.89-.05,3.84,0,5.78,0,1.06.1,2.12.16,3.17l.05.94c0,.92.1,1.83.19,2.75a42.89,42.89,0,0,0,.73,4.68A2.94,2.94,0,0,0,38.09,89a6.18,6.18,0,0,0,2.76,1.47,24.6,24.6,0,0,0,3.51.61,15.76,15.76,0,0,0,1.68.09,12.73,12.73,0,0,0,1.51-.08c.85-.09,1.69-.21,2.53-.37.33-.06.68-.14,1-.24l-.48,1.22a.83.83,0,0,0,.36,1,.8.8,0,0,0,.42.11.84.84,0,0,0,.66-.32l9.51-12.27A.83.83,0,0,0,61.67,79.36Zm-8,4.41,0,.13-1.75,4.46a7.71,7.71,0,0,1-2.16.71c-.8.16-1.6.27-2.4.35a12.66,12.66,0,0,1-2.82,0,22,22,0,0,1-3.26-.56,4.36,4.36,0,0,1-2-1,1.32,1.32,0,0,1-.38-.68,42,42,0,0,1-.7-4.5C38.1,81.75,38,80.86,38,80L38,79c-.05-1-.11-2.11-.15-3.16-.08-1.89-.06-3.82,0-5.69v-.59c0-.71,0-1.42.09-2.13l.06-1.19c0-.92.09-1.83.17-2.74a40.21,40.21,0,0,1,.83-5.7,1.77,1.77,0,0,1,.92-1A7,7,0,0,1,42,56a23.17,23.17,0,0,1,2.74-.42l.46,0H46a17,17,0,0,1,3.56.34,9,9,0,0,1,2.36.72,2.42,2.42,0,0,1,1.08.86.83.83,0,0,1,.12.25c.27,1.16.45,2.33.6,3.42.09.67.15,1.34.22,2L54,64c0,.3,0,.6,0,.91l0,.6c0,.59,0,1.18.09,1.76.13,1.79.12,3.61.11,5.22v1c0,.66,0,1.32,0,2l-2.59,3.38V76.46a1.57,1.57,0,0,0-.29-.88,3.72,3.72,0,0,0-1.92-1.29,7.4,7.4,0,0,0-2.38-.42H45.48a10.18,10.18,0,0,0-1.74.12,6.49,6.49,0,0,0-2.16.77,2.19,2.19,0,0,0-1.23,1.91c0,2.65,0,5.3,0,8A1.91,1.91,0,0,0,41,86a5.34,5.34,0,0,0,2.43,1.16,9.55,9.55,0,0,0,2,.22l.76,0A12.51,12.51,0,0,0,48,87.3a5.78,5.78,0,0,0,2.8-1,1.93,1.93,0,0,0,.89-1.58c0-.37,0-.74,0-1.11h2.06C53.72,83.64,53.72,83.7,53.71,83.77ZM50,80.65V81l-.92,1.2a.84.84,0,0,0,.66,1.35H50v1.14a.79.79,0,0,1-.23.22,4.12,4.12,0,0,1-2,.72,10.92,10.92,0,0,1-1.59.11l-.73,0a7.77,7.77,0,0,1-1.6-.17,4,4,0,0,1-1.7-.75c-.1-.1-.1-.14-.1-.2v-8c0-.09,0-.23.42-.47a4.56,4.56,0,0,1,1.6-.56,8,8,0,0,1,1.44-.1h1.59a5.39,5.39,0,0,1,1.82.33,2.14,2.14,0,0,1,1.1.66v4.12ZM55,86l-.74,1,1-2.55L55.82,83a.83.83,0,0,0-.09-.78c0-.06-.11-.09-.16-.14A.81.81,0,0,0,55,81.9H51.42l.24-.31,2.45-3.19.9-1.17.89-1.16.37-.48-.4,1-1,2.51-.11.31a.82.82,0,0,0,.06.7s0,.05,0,.07a.84.84,0,0,0,.69.36h3.64Z"/><path class="cls-3" d="M32.72,77.75a.6.6,0,0,0-.6-.61H26.31a.61.61,0,0,0-.61.61v.13a.61.61,0,0,0,.31.56l3.3,2.11L26,82.65a.64.64,0,0,0-.32.57v.12a.61.61,0,0,0,.61.62h5.82a.59.59,0,0,0,.59-.6.59.59,0,0,0-.59-.6H28l2.53-1.69a.57.57,0,0,0,.32-.5.6.6,0,0,0-.32-.52L28,78.36h4.17A.62.62,0,0,0,32.72,77.75Z"/><path class="cls-3" d="M32.3,70.29a.64.64,0,0,0,.42-.59.57.57,0,0,0-.58-.58.54.54,0,0,0-.26.07l-5.75,2.58a.74.74,0,0,0-.49.72v.06a.76.76,0,0,0,.49.73l5.75,2.58a.63.63,0,0,0,.28.08.56.56,0,0,0,.56-.57.59.59,0,0,0-.38-.56L31,74.22V70.85Zm-2.38,3.47-2.81-1.22,2.81-1.22Z"/><path class="cls-3" d="M32.72,62.93a.59.59,0,0,0-.59-.6.76.76,0,0,0-.46.19l-2.55,2-2.41-1.94a.72.72,0,0,0-.47-.19.55.55,0,0,0-.55.55.68.68,0,0,0,.33.6l2.27,1.73L26,67.07a.62.62,0,0,0-.29.55.58.58,0,0,0,.59.61.79.79,0,0,0,.46-.19l2.4-1.94,2.56,2.06a.76.76,0,0,0,.46.18.56.56,0,0,0,.56-.56.7.7,0,0,0-.33-.59L30,65.35l2.42-1.86A.63.63,0,0,0,32.72,62.93Z"/></svg>