<svg id="Layer_1" data-name="Layer 1" xmlns="http://www.w3.org/2000/svg" viewBox="0 0 90 100"><defs><style>.cls-1,.cls-3{fill:#74af27;}.cls-2{opacity:0.6;}.cls-3{opacity:0.4;}.cls-4{opacity:0.8;}</style></defs><title>EV-Misc-EVChargingAppSymbols</title><path class="cls-1" d="M34.34,85.8H20.75a.25.25,0,0,1-.25-.24V74A.25.25,0,1,1,21,74V85.32H34.34a.24.24,0,1,1,0,.48Z"/><path class="cls-1" d="M33.27,83.7h0a.24.24,0,0,1-.23-.17l-1.82-5.62-1.34,2.56a.24.24,0,0,1-.23.13.27.27,0,0,1-.22-.16L28,76.19,26.5,79.65a.25.25,0,0,1-.22.14.22.22,0,0,1-.22-.13l-.73-1.37-1.6,3a.22.22,0,0,1-.22.13.22.22,0,0,1-.21-.15L22.35,79a.25.25,0,0,1,.13-.32.25.25,0,0,1,.32.13l.75,1.79,1.56-2.94a.25.25,0,0,1,.43,0L26.25,79l1.57-3.57a.26.26,0,0,1,.24-.14.25.25,0,0,1,.22.16l1.43,4.3,1.34-2.57a.26.26,0,0,1,.24-.13.25.25,0,0,1,.21.17l1.78,5.5.35-1a.24.24,0,0,1,.46.16l-.59,1.64A.24.24,0,0,1,33.27,83.7Z"/><path class="cls-1" d="M27.55,28.12a5.43,5.43,0,0,1-3.38-9.69.15.15,0,0,1,.21,0l1.08,1.08a.17.17,0,0,1,.05.13.15.15,0,0,1-.07.12,3.6,3.6,0,1,0,4.22,0,.15.15,0,0,1-.07-.12.14.14,0,0,1,.05-.13l1.08-1.08a.15.15,0,0,1,.21,0,5.43,5.43,0,0,1-3.38,9.69Zm-3.29-9.35a5.11,5.11,0,1,0,6.58,0l-.84.85a3.92,3.92,0,1,1-4.9,0Z"/><path class="cls-1" d="M27.57,28.18h0a5.48,5.48,0,0,1-5.25-7,5.6,5.6,0,0,1,1.86-2.75.2.2,0,0,1,.24,0l1.09,1.1a.17.17,0,0,1,.05.13.16.16,0,0,1-.06.13,3.58,3.58,0,0,0-1.32,1.8,3.56,3.56,0,0,0,1.3,4,3.54,3.54,0,0,0,2.08.68h0a3.65,3.65,0,0,0,2.09-.68,3.56,3.56,0,0,0,1.3-1.78,3.63,3.63,0,0,0,0-2.21,3.68,3.68,0,0,0-1.3-1.79.21.21,0,0,1-.07-.12.18.18,0,0,1,0-.14l1.11-1.09a.17.17,0,0,1,.21,0h0a5.47,5.47,0,0,1-3.36,9.76Zm-3.31-9.37a5.07,5.07,0,0,0,3.27,8.93h0a5.09,5.09,0,0,0,2.92-.93,5.21,5.21,0,0,0,1.86-2.46,5.06,5.06,0,0,0,.09-3.08,5.13,5.13,0,0,0-1.59-2.49l-.82.84a3.89,3.89,0,0,1,1.29,1.83,4,4,0,0,1,0,2.45,4,4,0,0,1-1.43,2,4,4,0,0,1-4.67,0,4,4,0,0,1-1.42-4.43,4.08,4.08,0,0,1,1.27-1.84Z"/><path class="cls-1" d="M28.4,22.78H26.69a.16.16,0,0,1-.16-.16v-7.3a.16.16,0,0,1,.16-.16H28.4a.17.17,0,0,1,.17.16v7.3A.17.17,0,0,1,28.4,22.78Zm-1.54-.32h1.38v-7H26.86Z"/><path class="cls-1" d="M28.45,22.83h0l-1.76,0a.19.19,0,0,1-.19-.16l0-1.85c0-.61,0-1.22,0-1.83,0-1.22,0-2.42,0-3.65a.2.2,0,0,1,0-.13s.08-.07.12-.07h0l1.75,0a.17.17,0,0,1,.16.17h0c0,.81,0,1.62,0,2.43,0,.41,0,.81,0,1.22,0,1.22,0,2.44,0,3.65v.05a.22.22,0,0,1-.05.12A.16.16,0,0,1,28.45,22.83ZM26.9,15.52c0,1.16,0,2.3,0,3.45,0,.61,0,1.22,0,1.83l0,1.63,1.3,0c0-1.14,0-2.29,0-3.44,0-.41,0-.82,0-1.22,0-.75,0-1.51,0-2.26Z"/><path class="cls-1" d="M27.55,47.23a.66.66,0,0,1-.66-.67V44a.47.47,0,0,1,0-.17,1.67,1.67,0,0,1-1-1.52,1.64,1.64,0,0,1,1-1.51V36.15a.66.66,0,1,1,1.32,0v4.58a.22.22,0,0,1,0,.08,1.65,1.65,0,0,1,0,3,.57.57,0,0,1,0,.18v2.55A.67.67,0,0,1,27.55,47.23Zm0-11.42a.34.34,0,0,0-.34.34v4.58a.5.5,0,0,0,0,.12l.06.16-.16.05a1.33,1.33,0,0,0,0,2.53l.2.06-.11.18a.35.35,0,0,0-.05.18v2.55a.34.34,0,1,0,.67,0V44a.29.29,0,0,0-.05-.18l-.11-.18.2-.06a1.33,1.33,0,0,0,0-2.53L27.8,41l.06-.16a.25.25,0,0,0,0-.12V36.15A.34.34,0,0,0,27.55,35.81ZM32,47.23a.67.67,0,0,1-.66-.67V41.47a.55.55,0,0,1,0-.17,1.66,1.66,0,0,1,0-3,.17.17,0,0,1,0-.07V36.15a.67.67,0,0,1,.66-.66.65.65,0,0,1,.66.66v2.12a1.66,1.66,0,0,1,0,3,.52.52,0,0,1,0,.17v5.09A.66.66,0,0,1,32,47.23Zm0-11.42a.34.34,0,0,0-.33.34V38.2a.25.25,0,0,0,0,.12l.06.15-.16.06a1.33,1.33,0,0,0,0,2.52l.2.07-.11.17a.31.31,0,0,0-.05.18v5.09a.34.34,0,1,0,.67,0V41.47a.41.41,0,0,0-.05-.18l-.11-.18.2-.06a1.33,1.33,0,0,0,0-2.52l-.16-.06.06-.15a.5.5,0,0,0,0-.12V36.15a.34.34,0,0,0-.34-.34ZM23.12,47.23a.66.66,0,0,1-.66-.67V41.47a1.11,1.11,0,0,1,0-.17,1.66,1.66,0,0,1,0-3V36.15a.66.66,0,1,1,1.32,0V38.2a.17.17,0,0,1,0,.07,1.66,1.66,0,0,1,0,3,1.11,1.11,0,0,1,0,.17v5.09A.67.67,0,0,1,23.12,47.23Zm0-11.42a.34.34,0,0,0-.34.34V38.2a.5.5,0,0,0,0,.12l.06.15-.16.06a1.32,1.32,0,0,0-.89,1.25,1.34,1.34,0,0,0,.93,1.27l.2.07-.11.17a.41.41,0,0,0,0,.18v5.09a.34.34,0,0,0,.34.34.34.34,0,0,0,.34-.34V41.47a.32.32,0,0,0-.06-.18l-.11-.18.2-.06a1.33,1.33,0,0,0,0-2.52l-.16-.06.06-.15a.27.27,0,0,0,0-.12V36.15A.34.34,0,0,0,23.12,35.81Zm4.43,7.65a1.15,1.15,0,1,1,1.12-1.14A1.13,1.13,0,0,1,27.55,43.46Zm0-2a.82.82,0,1,0,.8.82A.82.82,0,0,0,27.55,41.5ZM32,40.93a1.15,1.15,0,1,1,1.13-1.15A1.14,1.14,0,0,1,32,40.93Zm0-2a.82.82,0,1,0,.81.82A.81.81,0,0,0,32,39Zm-8.85,2a1.15,1.15,0,1,1,1.13-1.15A1.15,1.15,0,0,1,23.12,40.93Zm0-2a.82.82,0,0,0,0,1.64.82.82,0,0,0,0-1.64Z"/><path class="cls-1" d="M30,54.64h-.86v-.9H26v.9h-.55a1.19,1.19,0,0,0-1.19,1.19V66.17a1.18,1.18,0,0,0,1.19,1.18H30a1.18,1.18,0,0,0,1.18-1.18V55.83A1.19,1.19,0,0,0,30,54.64Zm-3.62-.54h2.4v.54h-2.4Zm4.45,6v6.09A.84.84,0,0,1,30,67H25.46a.83.83,0,0,1-.83-.83V55.83a.83.83,0,0,1,.83-.83H30a.83.83,0,0,1,.83.83Z"/><path class="cls-1" d="M26.79,64.52h-.28l-.26.34.13-.34H24.89v1.42a.78.78,0,0,0,.76.79h4.14a.78.78,0,0,0,.76-.79V64.52Z"/><g class="cls-2"><polygon class="cls-1" points="28.24 59.58 28 59.58 27.79 60.13 29.77 60.13 28.5 61.84 28.78 61.84 30.55 61.84 30.55 59.58 28.24 59.58"/><polygon class="cls-1" points="26.89 59.58 26.61 59.58 24.9 59.58 24.9 61.84 27.15 61.84 27.39 61.84 27.59 61.29 25.63 61.29 26.89 59.58"/></g><polygon class="cls-3" points="29.14 57.12 28.9 57.12 28.07 59.37 28.31 59.37 30.55 59.37 30.55 57.12 29.14 57.12"/><polygon class="cls-3" points="28.42 57.12 24.9 57.12 24.9 59.37 26.76 59.37 27.04 59.37 28.7 57.12 28.42 57.12"/><g class="cls-4"><polygon class="cls-1" points="28.64 62.03 28.36 62.03 26.68 64.28 26.96 64.28 30.54 64.28 30.54 62.03 28.64 62.03"/><polygon class="cls-1" points="27.08 62.03 24.89 62.03 24.89 64.28 26.23 64.28 26.47 64.28 27.32 62.03 27.08 62.03"/></g><polygon class="cls-1" points="27.63 61.84 27.56 62.03 28.08 62.03 28.22 61.84 27.63 61.84"/><polygon class="cls-1" points="27.83 59.37 27.32 59.37 27.17 59.58 27.75 59.58 27.83 59.37"/><polygon class="cls-1" points="29.32 60.36 27.47 60.36 27.75 59.58 27.17 59.58 26.08 61.06 27.92 61.06 27.63 61.84 28.22 61.84 29.32 60.36"/><polygon class="cls-1" points="27.03 63.44 28.08 62.03 27.56 62.03 27.03 63.44"/><polygon class="cls-1" points="28.34 58 27.32 59.37 27.83 59.37 28.34 58"/><path class="cls-1" d="M48.31,63.31a.23.23,0,0,1-.17-.07,2.17,2.17,0,0,1-.37-3c0-.07.6-1,3.58-1.65A5.86,5.86,0,0,0,52.88,58a4.66,4.66,0,0,1,2.7-1,26.52,26.52,0,0,1,2.82-.2c.09,0,2.54-.23,3.27,1.63a6.84,6.84,0,0,1,.34,2v.9a.26.26,0,0,1-.51,0v-.9a6.25,6.25,0,0,0-.31-1.81c-.58-1.49-2.74-1.29-2.76-1.29a26.78,26.78,0,0,0-2.79.19,4.28,4.28,0,0,0-2.44.84,6,6,0,0,1-1.72.78c-2.76.64-3.29,1.44-3.29,1.44a1.72,1.72,0,0,0,.3,2.31.25.25,0,0,1,0,.36A.27.27,0,0,1,48.31,63.31Z"/><path class="cls-1" d="M57.37,63.55H52.53a.26.26,0,0,1-.25-.26.25.25,0,0,1,.25-.25h4.84a.25.25,0,0,1,.26.25A.26.26,0,0,1,57.37,63.55Z"/><path class="cls-1" d="M50.51,64.12a1.94,1.94,0,1,1,1.89-1.94A1.92,1.92,0,0,1,50.51,64.12Zm0-3.36a1.43,1.43,0,1,0,1.38,1.42A1.4,1.4,0,0,0,50.51,60.76Z"/><path class="cls-1" d="M59.43,64.12a1.94,1.94,0,1,1,1.89-1.94A1.92,1.92,0,0,1,59.43,64.12Zm0-3.36a1.43,1.43,0,1,0,1.38,1.42A1.4,1.4,0,0,0,59.43,60.76Z"/><circle class="cls-1" cx="63.58" cy="58.88" r="0.46"/><circle class="cls-1" cx="64.99" cy="57.46" r="0.66"/><circle class="cls-1" cx="67.21" cy="58.88" r="0.46"/><circle class="cls-1" cx="65.82" cy="62.18" r="0.66"/><circle class="cls-1" cx="62.21" cy="62.06" r="0.3"/><circle class="cls-1" cx="63.58" cy="63.11" r="0.46"/><circle class="cls-1" cx="63.42" cy="61.45" r="0.3"/><circle class="cls-1" cx="64.79" cy="60.09" r="0.46"/><circle class="cls-1" cx="67.05" cy="57.22" r="0.3"/><circle class="cls-1" cx="66.45" cy="60.24" r="0.3"/><circle class="cls-1" cx="68.24" cy="60.98" r="0.66"/><circle class="cls-1" cx="69.47" cy="59.03" r="0.3"/><circle class="cls-1" cx="65.84" cy="59.03" r="0.3"/><circle class="cls-1" cx="67.66" cy="62.66" r="0.3"/><polygon class="cls-1" points="63.14 19.41 62.98 19.85 63.52 20.39 64.13 20.39 63.14 19.41"/><path class="cls-1" d="M62.08,18.37l-3-3a.22.22,0,0,0-.31,0l-6.51,6.32a.22.22,0,0,0,0,.3.23.23,0,0,0,.15.07.18.18,0,0,0,.15-.07l6.36-6.17,3,2.91Z"/><path class="cls-1" d="M65.44,21.68,65,21.25l-.26.35.39.38a.21.21,0,0,0,.3-.3Z"/><path class="cls-1" d="M63.45,23.35v3.72H60.68l-.18.24a.16.16,0,0,1-.14.07.15.15,0,0,1-.09,0,.17.17,0,0,1-.08-.22l.34-.9V23.17a.22.22,0,0,0-.22-.22H57.44a.22.22,0,0,0-.22.22v3.9h-3V21.39a.21.21,0,0,0-.22-.21.21.21,0,0,0-.21.21v5.9a.21.21,0,0,0,.21.21h3.45a.21.21,0,0,0,.21-.21v-3.9h2.44v3.9a.21.21,0,0,0,.22.21h3.35a.21.21,0,0,0,.22-.21V22.77Z"/><path class="cls-1" d="M54.66,18.94a.21.21,0,0,1-.21-.22V16.14a.21.21,0,0,1,.21-.22H56.1a.21.21,0,0,1,.21.22v1.29a.21.21,0,0,1-.21.21.21.21,0,0,1-.22-.21V16.35h-1v2.37A.22.22,0,0,1,54.66,18.94Z"/><polygon class="cls-1" points="64.35 15.6 59.49 22.19 62.24 22.19 60.36 27.2 65.29 20.57 62.52 20.57 64.35 15.6"/><path class="cls-1" d="M50.16,45.37l7.88-8-7.31,8.49a.38.38,0,0,1-.55,0,.39.39,0,0,1,0-.55Z"/><path class="cls-1" d="M66.86,45.89,59.55,37.4l7.88,8a.39.39,0,1,1-.56.54Z"/><path class="cls-1" d="M58.38,46.58l.06-1.27a.34.34,0,0,1,.35-.32.33.33,0,0,1,.31.32l.06,1.27a.39.39,0,1,1-.78,0Z"/><path class="cls-1" d="M58.55,42.78l.05-1.26a.17.17,0,0,1,.18-.16.16.16,0,0,1,.16.16L59,42.78a.22.22,0,1,1-.44,0Z"/><path class="cls-1" d="M58.71,39l.06-1.26L58.83,39a.06.06,0,0,1-.06.06.06.06,0,0,1-.06,0Z"/><path class="cls-1" d="M54.28,84.7A4.68,4.68,0,1,1,59,80,4.67,4.67,0,0,1,54.28,84.7Zm0-8.84A4.17,4.17,0,1,0,58.45,80,4.17,4.17,0,0,0,54.28,75.86Z"/><path class="cls-1" d="M54.28,80.28A.25.25,0,0,1,54,80V77.09a.25.25,0,0,1,.25-.25.26.26,0,0,1,.26.25V80A.26.26,0,0,1,54.28,80.28Z"/><path class="cls-1" d="M54.28,83.48a.26.26,0,0,1-.25-.26V82.8a.26.26,0,0,1,.25-.26.26.26,0,0,1,.26.26v.42A.26.26,0,0,1,54.28,83.48Z"/><path class="cls-1" d="M57.48,80.28h-.43A.25.25,0,0,1,56.8,80a.26.26,0,0,1,.25-.26h.43a.26.26,0,0,1,.25.26A.25.25,0,0,1,57.48,80.28Z"/><path class="cls-1" d="M55.52,80.28H54.28A.25.25,0,0,1,54,80a.26.26,0,0,1,.25-.26h1.24a.26.26,0,0,1,.25.26A.25.25,0,0,1,55.52,80.28Z"/><path class="cls-1" d="M51.51,80.28H51.1a.25.25,0,0,1-.25-.25.26.26,0,0,1,.25-.26h.41a.26.26,0,0,1,.26.26A.26.26,0,0,1,51.51,80.28Z"/><path class="cls-1" d="M49.76,76.69a.24.24,0,0,1-.21-.11.25.25,0,0,1,.06-.35L52,74.52a.25.25,0,0,1,.35.07.25.25,0,0,1-.06.35l-2.42,1.71A.28.28,0,0,1,49.76,76.69Z"/><path class="cls-1" d="M58.73,76.69a.23.23,0,0,1-.14,0l-2.42-1.71a.24.24,0,0,1-.06-.35.25.25,0,0,1,.35-.07l2.42,1.71a.25.25,0,0,1,.06.35A.24.24,0,0,1,58.73,76.69Z"/><path class="cls-1" d="M67,78.15H61a.25.25,0,0,1-.26-.25.26.26,0,0,1,.26-.26h6a.26.26,0,0,1,.25.26A.25.25,0,0,1,67,78.15Z"/><path class="cls-1" d="M67,80.28H61a.25.25,0,0,1-.26-.25.26.26,0,0,1,.26-.26h6a.26.26,0,0,1,.25.26A.25.25,0,0,1,67,80.28Z"/><path class="cls-1" d="M67,82.41H61a.25.25,0,0,1-.26-.25A.26.26,0,0,1,61,81.9h6a.26.26,0,0,1,.25.26A.25.25,0,0,1,67,82.41Z"/></svg>