<svg id="Layer_1" data-name="Layer 1" xmlns="http://www.w3.org/2000/svg" viewBox="0 0 90 100"><defs><style>.cls-1{fill:#74af27;}</style></defs><title>EV-Misc-SolarCharge-ModeIcons</title><path class="cls-1" d="M33.79,73.38,33.38,69h4.46l.76,4.42Zm5.9,6.29H34.37l-.49-5.33h4.89Zm-12.53,0V74.34h5.75l.49,5.33Zm-1-6.29H20.53L20.94,69h5.25Zm0,6.29H20l.49-5.33h5.74ZM14.75,73.38,15.51,69H20l-.41,4.42ZM19,79.67H13.66l.92-5.33h4.9ZM16.32,64.3H20.4L20.06,68H15.68Zm5.05,0h4.82V68H21Zm5.79,0H32l.34,3.7H27.16Zm5.66,9.08H27.16V69h5.25ZM37,64.3l.64,3.7H33.29L33,64.3Zm.14-1h-21a.8.8,0,0,0-.79.67L12.68,79.7a.77.77,0,0,0,.18.65.79.79,0,0,0,.61.29H39.88a.81.81,0,0,0,.8-.94L38,64a.8.8,0,0,0-.79-.67"/><path class="cls-1" d="M38.58,53.7a.56.56,0,0,0,.56.59.57.57,0,0,0,.56-.59V52.64a.57.57,0,0,0-.57-.59.56.56,0,0,0-.55.58V53.7"/><path class="cls-1" d="M35.62,54.9a.54.54,0,0,0,.63.18.6.6,0,0,0,.38-.53l-.07-.23c-.2-.35-.4-.71-.61-1a.55.55,0,0,0-1,.53c.19.37.41.74.63,1.1"/><path class="cls-1" d="M44.73,57.3c.34-.18.68-.38,1-.58a.48.48,0,0,0,.26-.4.56.56,0,0,0-.8-.56c-.35.18-.69.38-1,.59a.55.55,0,0,0-.18.74.54.54,0,0,0,.74.21"/><path class="cls-1" d="M42,55.05a.55.55,0,0,0,.72-.17c.22-.35.43-.7.62-1.07a.55.55,0,0,0-.5-.78.51.51,0,0,0-.45.22c-.22.36-.44.72-.63,1.09a.54.54,0,0,0,.24.71"/><path class="cls-1" d="M32.48,56.68c.37.23.74.45,1.12.65a.54.54,0,0,0,.69-.25.55.55,0,0,0-.16-.71c-.35-.22-.71-.44-1.07-.62a.54.54,0,0,0-.78.51.48.48,0,0,0,.2.42"/><path class="cls-1" d="M45.8,63.11c-.37-.23-.74-.45-1.12-.65a.55.55,0,0,0-.53,1c.35.22.7.43,1.07.62a.54.54,0,0,0,.78-.51.48.48,0,0,0-.2-.42"/><path class="cls-1" d="M42,81.63l-.13.06H11.46l-.12-.06,0-.14,3.29-19.08.17-.13H38.6l.16.13,3.29,19.08ZM23.55,85.27,24,82.65h5.34l.45,2.62Zm10.81,1a.76.76,0,0,1,.77.77v1a.16.16,0,0,1-.17.17H18.39a.17.17,0,0,1-.17-.17V87a.77.77,0,0,1,.77-.77Zm1.42-26.35a3.36,3.36,0,1,1,4.09,3.29l-.16-.93a1.13,1.13,0,0,0-1.11-.94H36.09a3.35,3.35,0,0,1-.31-1.42m4.14,3.53.14.86a4.48,4.48,0,1,0-5.17-3H14.76a1.13,1.13,0,0,0-1.12.94L10.35,81.33a1.13,1.13,0,0,0,1.11,1.32H23l-.46,2.62H19A1.74,1.74,0,0,0,17.26,87v1a1.14,1.14,0,0,0,1.13,1.14H35a1.14,1.14,0,0,0,1.14-1.14V87a1.74,1.74,0,0,0-1.74-1.74H30.78l-.45-2.62H41.89A1.11,1.11,0,0,0,43,81.33Z"/><path class="cls-1" d="M46.4,59.34q-.54,0-1.08,0a.56.56,0,0,0-.58.55.56.56,0,0,0,.58.56H46.4a.56.56,0,1,0,0-1.11"/><path class="cls-1" d="M42.69,64.94a.55.55,0,0,0-1,.55c.18.34.38.67.58,1a.53.53,0,0,0,.4.26.57.57,0,0,0,.56-.82c-.18-.34-.38-.67-.58-1"/><path class="cls-1" d="M31.88,60.45H33a.55.55,0,0,0,.58-.56.55.55,0,0,0-.59-.55c-.18,0-.35,0-.53,0s-.34,0-.52,0a.55.55,0,0,0-.59.55.55.55,0,0,0,.58.56"/><path class="cls-1" d="M71,77.33V73.88l6.09,3.45Zm-.79,1.51,2.92,8.75L66.9,81.87ZM59.1,87.59,62,78.84l3.29,3Zm2.13-13.71v3.45h-6.1Zm0-9.52v3.45h-6.1Zm4.88-8.11,3.45,6.64h-6.9ZM71,67.81V64.36l6.09,3.45Zm-1.93,10.6-3,2.73-3-2.73Zm-4.32-6H62.31V69.74Zm1.37-7.15L63.82,64H68.4Zm3.8,7.15H67.47l2.44-2.68ZM67.19,73.5h2.72v3Zm-1.08.41,3.11,3.42H63Zm3.11-5-3.11,3.42L63,68.89Zm-6.91-1.47V64.36L65,65.89Zm6.09.39H63.82l2.29-1.3Zm1.51-.39L67.2,65.89l2.71-1.53Zm-7.6,6.08H65l-2.71,3Zm17.08,3.9L71,72.64V68.89h8.14a.54.54,0,0,0,.26-1L70.85,63l-4.27-8.21a.55.55,0,0,0-1,0L61.36,63l-8.54,4.84a.55.55,0,0,0-.26.61.54.54,0,0,0,.53.4h8.14v3.75L52.82,77.4a.55.55,0,0,0-.26.61.54.54,0,0,0,.53.4H61L57.41,89.24s0,0,0,.07a.41.41,0,0,0,0,.11.31.31,0,0,0,0,.1l0,.1s0,.06.06.1l0,.06s0,0,0,0l.11.07.08,0h.11l.08,0h0l.09,0,.11,0,.08-.05.07,0,7.82-7.2,7.82,7.2h0l.11.07,0,0a.57.57,0,0,0,.18,0,.47.47,0,0,0,.17,0h0l.09,0,.1-.07s0,0,0,0a.21.21,0,0,1,0-.06l0-.1a1.1,1.1,0,0,0,0-.2.43.43,0,0,0,0-.11.15.15,0,0,0,0-.07L71.2,78.41h7.93a.54.54,0,0,0,.26-1Z"/><path class="cls-1" d="M50.13,31.37,49.73,27h4.46L55,31.37Zm5.9,6.3H50.71l-.49-5.33h4.89Zm-12.53,0V32.34h5.75l.49,5.33Zm-1-6.3H36.88l.4-4.41h5.26Zm0,6.3H36.3l.49-5.33h5.75Zm-11.45-6.3L31.85,27h4.46l-.4,4.41Zm4.24,6.3H30l.92-5.33h4.89ZM32.66,22.29h4.08L36.4,26H32Zm5.05,0h4.83V26H37.37Zm5.79,0h4.83L48.67,26H43.5Zm5.66,9.08H43.5V27h5.26Zm4.22-9.08L54,26H49.64l-.34-3.71Zm.14-1h-21a.8.8,0,0,0-.79.66L29,37.69a.82.82,0,0,0,.18.66.8.8,0,0,0,.61.28H56.23a.78.78,0,0,0,.61-.28.82.82,0,0,0,.18-.66L54.31,22a.8.8,0,0,0-.79-.66"/><path class="cls-1" d="M54.92,11.69a.58.58,0,0,0,.56.6A.56.56,0,0,0,56,11.7V10.63a.56.56,0,0,0-.56-.58.57.57,0,0,0-.56.58v1.06"/><path class="cls-1" d="M52,12.9a.52.52,0,0,0,.62.18.59.59,0,0,0,.38-.53l-.07-.23c-.2-.36-.39-.71-.61-1.06a.55.55,0,0,0-.73-.16.53.53,0,0,0-.23.69A12.27,12.27,0,0,0,52,12.9"/><path class="cls-1" d="M61.07,15.3c.35-.18.68-.38,1-.58a.53.53,0,0,0,.26-.4.56.56,0,0,0-.8-.57c-.36.19-.7.39-1,.6a.54.54,0,0,0-.19.73.55.55,0,0,0,.74.22"/><path class="cls-1" d="M58.3,13a.54.54,0,0,0,.71-.16c.22-.35.43-.71.62-1.08a.54.54,0,0,0-.5-.77.51.51,0,0,0-.45.22c-.22.36-.43.72-.63,1.09a.54.54,0,0,0,.25.7"/><path class="cls-1" d="M48.83,14.68c.36.22.73.45,1.11.64a.53.53,0,0,0,.69-.24.54.54,0,0,0-.16-.72,11.33,11.33,0,0,0-1.07-.61.54.54,0,0,0-.78.51.46.46,0,0,0,.21.42"/><path class="cls-1" d="M62.14,21.1c-.37-.22-.74-.44-1.12-.64a.53.53,0,0,0-.69.24.56.56,0,0,0,.16.72c.35.22.71.43,1.07.62a.56.56,0,0,0,.79-.51.53.53,0,0,0-.21-.43"/><path class="cls-1" d="M58.36,39.63l-.13.06H27.81l-.13-.06,0-.14,3.29-19.08.16-.14H54.94l.16.14,3.3,19.08ZM39.89,43.27l.46-2.62h5.34l.46,2.62Zm10.82,1a.78.78,0,0,1,.77.77v1.06a.17.17,0,0,1-.18.17H34.74a.16.16,0,0,1-.17-.17V45a.77.77,0,0,1,.77-.77Zm1.41-26.34a3.37,3.37,0,1,1,4.1,3.28l-.16-.92a1.14,1.14,0,0,0-1.12-.94H52.43a3.35,3.35,0,0,1-.31-1.42m4.14,3.53.15.85a4.47,4.47,0,1,0-5.18-3H31.1a1.14,1.14,0,0,0-1.12.94L26.69,39.33a1.18,1.18,0,0,0,.25.92,1.15,1.15,0,0,0,.87.4H39.37l-.46,2.62H35.34A1.74,1.74,0,0,0,33.6,45v1.06a1.14,1.14,0,0,0,1.14,1.14H51.3a1.14,1.14,0,0,0,1.14-1.14V45a1.74,1.74,0,0,0-1.73-1.73H47.13l-.46-2.62H58.23a1.15,1.15,0,0,0,.87-.4,1.14,1.14,0,0,0,.25-.92Z"/><path class="cls-1" d="M62.74,17.33H61.66a.56.56,0,1,0,0,1.12h1.08a.56.56,0,1,0,0-1.12"/><path class="cls-1" d="M59,22.94a.56.56,0,0,0-.75-.2.55.55,0,0,0-.22.74c.19.35.39.68.58,1a.5.5,0,0,0,.41.25.55.55,0,0,0,.55-.81c-.18-.34-.37-.67-.57-1"/><path class="cls-1" d="M48.23,18.45h1.06a.57.57,0,0,0,.59-.56.58.58,0,0,0-.6-.56H48.23a.57.57,0,0,0-.59.56.56.56,0,0,0,.59.56"/></svg>