<svg id="Layer_1" data-name="Layer 1" xmlns="http://www.w3.org/2000/svg" viewBox="0 0 90 100"><defs><style>.cls-1{fill:#74af27;}</style></defs><title>EV-Misc-SolarChargeCharger-MaxkWicon</title><path class="cls-1" d="M45.45,47.41a8.45,8.45,0,0,0,1.94.24l.75,0a11.88,11.88,0,0,0,1.79-.13,5.48,5.48,0,0,0,2.75-1.13,2.19,2.19,0,0,0,.87-1.72c0-1.46,0-2.91,0-4.37h0V35.79a1.69,1.69,0,0,0-.29-.95,3.55,3.55,0,0,0-1.88-1.4A6.39,6.39,0,0,0,49,33H47.48a8.08,8.08,0,0,0-1.7.14,6,6,0,0,0-2.12.83A2.39,2.39,0,0,0,42.45,36v8.61a2.13,2.13,0,0,0,.61,1.52A5,5,0,0,0,45.45,47.41ZM44.4,36c0-.12,0-.23.33-.44A4.07,4.07,0,0,1,46.16,35a6.64,6.64,0,0,1,1.32-.1H49a4.41,4.41,0,0,1,1.63.32,1.68,1.68,0,0,1,.92.6v5.85c0,1,0,2,0,3v0a1,1,0,0,1-.18.19,3.5,3.5,0,0,1-1.79.69,9.73,9.73,0,0,1-1.49.11l-.66,0h0A6.86,6.86,0,0,1,46,45.54a3.23,3.23,0,0,1-1.51-.73.21.21,0,0,1-.07-.18V36Z"/><path class="cls-1" d="M33.14,54.59a.65.65,0,0,0-.65-.66H26.2a.66.66,0,0,0-.66.66v.14a.67.67,0,0,0,.34.6l3.57,2.28-3.56,2.28a.69.69,0,0,0-.35.61v.14a.66.66,0,0,0,.66.66h6.3a.63.63,0,0,0,.64-.64A.64.64,0,0,0,32.5,60H28l2.74-1.82a.61.61,0,0,0,0-1.1L28,55.24h4.51A.66.66,0,0,0,33.14,54.59Z"/><path class="cls-1" d="M32.68,46.78a.69.69,0,0,0,.46-.65.62.62,0,0,0-.63-.62.5.5,0,0,0-.28.08L26,48.37a.83.83,0,0,0-.53.79v.06A.83.83,0,0,0,26,50l6.22,2.79a.73.73,0,0,0,.3.09.61.61,0,0,0,.61-.61.62.62,0,0,0-.42-.61L31.27,51V47.39Zm-2.57,3.75-3-1.32,3-1.32Z"/><path class="cls-1" d="M33.14,39.08a.63.63,0,0,0-.64-.65.8.8,0,0,0-.5.2l-2.75,2.21-2.62-2.1a.77.77,0,0,0-.5-.21.6.6,0,0,0-.6.6.76.76,0,0,0,.36.65l2.46,1.87-2.5,1.9a.68.68,0,0,0-.32.6.64.64,0,0,0,.64.66.86.86,0,0,0,.5-.21l2.6-2.1L32,44.73a.79.79,0,0,0,.49.19.6.6,0,0,0,.61-.6.75.75,0,0,0-.36-.64l-2.59-2,2.63-2A.68.68,0,0,0,33.14,39.08Z"/><path class="cls-1" d="M64.37,56.68a1.47,1.47,0,0,0-1.31-.81H60.12l2.58-7a1.47,1.47,0,0,0-1.27-2h-.19a1.47,1.47,0,0,0-.65.21,1.32,1.32,0,0,0-.36.31l-.07.09-1.3,1.77c0-1.59,0-3.57-.11-5.5,0-.56-.07-1.11-.09-1.71v-.16c0-.14,0-.28,0-.42,0-.36,0-.73-.06-1.13s0-.57-.08-.85c-.06-.7-.13-1.43-.23-2.16-.14-1.12-.33-2.44-.63-3.75a3.72,3.72,0,0,0-.42-1h0A5.18,5.18,0,0,0,55,30.54a10.91,10.91,0,0,0-3.06-1,18.56,18.56,0,0,0-3.64-.41H47.21a6.46,6.46,0,0,0-.72,0,22.25,22.25,0,0,0-3,.49,9.26,9.26,0,0,0-3,1.15,4.55,4.55,0,0,0-2.14,2.81,45.53,45.53,0,0,0-.87,6.21c-.08,1-.13,2-.18,2.95l0,.54,0,.61c0,.74-.08,1.51-.08,2.29v.59c0,2,0,4,0,6,0,1.05.09,2.09.14,3.13L37.39,57c0,1,.11,2,.19,2.85a47.19,47.19,0,0,0,.73,4.9,4.14,4.14,0,0,0,1.11,2.09,7,7,0,0,0,3.21,1.79,23.38,23.38,0,0,0,3.61.66,15.34,15.34,0,0,0,1.79.1c.53,0,1.07,0,1.61-.08,1-.11,1.8-.24,2.59-.4.17,0,.35-.07.52-.12l0,.08a1.46,1.46,0,0,0,1.36,2,1.49,1.49,0,0,0,1.18-.59l9-12.06A1.46,1.46,0,0,0,64.37,56.68ZM51.84,67c-.8.16-1.61.28-2.42.37a13,13,0,0,1-1.39.08,13.3,13.3,0,0,1-1.55-.1,23.31,23.31,0,0,1-3.32-.59,5.13,5.13,0,0,1-2.34-1.28,2.19,2.19,0,0,1-.6-1.12,46.3,46.3,0,0,1-.7-4.7c-.09-.92-.15-1.84-.19-2.76-.07-1.4-.14-2.8-.2-4.2-.08-2.15-.05-4.31,0-6.46,0-.94.07-1.89.11-2.83.06-1.14.11-2.29.2-3.43a42.68,42.68,0,0,1,.84-5.94,2.59,2.59,0,0,1,1.27-1.59,7.69,7.69,0,0,1,2.36-.9,23.81,23.81,0,0,1,2.79-.44,4.7,4.7,0,0,1,.53,0h1.12a17.15,17.15,0,0,1,3.27.37,9.08,9.08,0,0,1,2.54.81,3.23,3.23,0,0,1,1.39,1.2,1.83,1.83,0,0,1,.21.5c.27,1.18.44,2.38.6,3.58.13,1,.2,2,.3,2.94,0,.48,0,1,.06,1.44,0,.64.06,1.29.1,1.93.13,1.79.12,3.59.11,5.39,0,.87,0,1.74,0,2.61l-3.37,4.57V53.35a1.74,1.74,0,0,0-.29-1A3.59,3.59,0,0,0,51.37,51,6.4,6.4,0,0,0,49,50.54H47.48a8.08,8.08,0,0,0-1.7.14,6,6,0,0,0-2.12.82,2.4,2.4,0,0,0-1.21,2.08v8.61a2.13,2.13,0,0,0,.61,1.52A5.08,5.08,0,0,0,45.45,65a8.45,8.45,0,0,0,1.94.24h.75a10.71,10.71,0,0,0,1.79-.13A5.48,5.48,0,0,0,52.68,64a2.16,2.16,0,0,0,.87-1.71v-.5h1.86l-1.79,4.74A9.09,9.09,0,0,1,51.84,67ZM51.21,61a1.53,1.53,0,0,0,.39.48v.86a1.21,1.21,0,0,1-.18.18,3.5,3.5,0,0,1-1.79.7,9.79,9.79,0,0,1-1.49.1h-.7A6.81,6.81,0,0,1,46,63.09a3.23,3.23,0,0,1-1.51-.72.22.22,0,0,1-.07-.18V53.58c0-.12,0-.23.33-.44a3.72,3.72,0,0,1,1.43-.55,6.64,6.64,0,0,1,1.32-.1H49a4.63,4.63,0,0,1,1.63.32,1.74,1.74,0,0,1,.92.6v5.67l-.25.35A1.44,1.44,0,0,0,51.21,61Zm6.56,3.51L55.21,67.9l-1.12,1.5.44-1.17,3-7.94h-5l1-1.4,3.27-4.44,2-2.78,2.49-3.37-2.63,7.15L58,57.34h5Z"/></svg>