<svg id="Layer_1" data-name="Layer 1" xmlns="http://www.w3.org/2000/svg" viewBox="0 0 90 100"><defs><style>.cls-1,.cls-3{fill:none;stroke:#74af27;}.cls-1{stroke-linecap:round;stroke-linejoin:round;stroke-width:1.61px;}.cls-2{fill:#74af27;}.cls-3{stroke-miterlimit:10;stroke-width:0.4px;}</style></defs><title>EV-Misc-SolarCharge-ScreenIcons2</title><path class="cls-1" d="M19.65,86.43h53m1.25-8.8a4.65,4.65,0,0,0-1.34-2.52,4.76,4.76,0,1,0,1.34,2.52ZM42.92,75.11a4.9,4.9,0,0,0-6.92,0,4.61,4.61,0,0,0-1.37,2.66,6.63,6.63,0,0,0-.07.79,4.89,4.89,0,1,0,8.36-3.45Zm-10.64,1.2a6.73,6.73,0,0,1-.57-1.14l-1-2.65a4,4,0,0,1,1.05-4.1l6.76-6.63a7.3,7.3,0,0,1,4.85-1.94H53.78a5.06,5.06,0,0,1,3.8,1.8L61,65.4a7.67,7.67,0,0,0,2.81,1.74,5.73,5.73,0,0,0,.95.23l10.46,1.45c1.72.26,2.47,1.18,2.25,2.74-.1.67-.22,1.33-.35,2s-.28,1.41-.45,2.12a2.78,2.78,0,0,1-.4.74"/><path class="cls-2" d="M20.72,67.05c.22-.37.45-.75.65-1.14a.57.57,0,0,0-.25-.74.58.58,0,0,0-.76.17c-.23.36-.45.74-.65,1.13a.59.59,0,0,0,.62.82.5.5,0,0,0,.39-.24M31.1,63.44c-.38-.24-.77-.47-1.18-.68a.56.56,0,0,0-.72.26.56.56,0,0,0,.16.75,13,13,0,0,0,1.14.66.58.58,0,0,0,.82-.54.52.52,0,0,0-.22-.45m-.63-7.75c-.36.19-.72.41-1.08.63a.58.58,0,0,0,.59,1c.36-.19.71-.4,1.07-.61a.55.55,0,0,0,.27-.42.6.6,0,0,0-.85-.6m-13.41,1c.39.24.78.47,1.18.68a.58.58,0,0,0,.56-1,12.8,12.8,0,0,0-1.13-.66.58.58,0,0,0-.83.54.55.55,0,0,0,.22.45m10.39-3.62c-.23.38-.45.76-.66,1.15a.58.58,0,0,0,1,.57c.23-.37.46-.74.66-1.13a.58.58,0,0,0-.53-.82.55.55,0,0,0-.48.23m1,13.38c-.19-.36-.4-.71-.61-1.05a.58.58,0,0,0-1,.57c.2.36.41.72.62,1.07a.52.52,0,0,0,.42.27.59.59,0,0,0,.59-.86m-10.73-2c.35-.19.7-.4,1.05-.61A.58.58,0,0,0,19,63a.57.57,0,0,0-.78-.22c-.37.19-.72.4-1.07.61a.52.52,0,0,0-.27.42.59.59,0,0,0,.86.59m3.65-10.23c-.21-.38-.41-.75-.64-1.11a.58.58,0,0,0-.77-.18.57.57,0,0,0-.25.73c.21.4.44.79.67,1.17A.57.57,0,0,0,21,55a.62.62,0,0,0,.4-.56,1,1,0,0,0-.07-.24m2.13,13.56a.59.59,0,0,0,1.18,0c0-.4,0-.79,0-1.18a.58.58,0,0,0-.58-.59.59.59,0,0,0-.6.59v1.18m8.25-7.1a.59.59,0,1,0,0-1.17H30.6a.59.59,0,1,0,0,1.17h1.14m-15.3-1.17a.6.6,0,0,0-.63.58.59.59,0,0,0,.62.59h1.12a.59.59,0,1,0,0-1.17h-1.1m7-5.95a.59.59,0,0,0,.59.62.58.58,0,0,0,.59-.61V52.4a.58.58,0,0,0-.59-.61.6.6,0,0,0-.59.61v1.12m4.14,6.53a3.55,3.55,0,1,0-3.54,3.55,3.54,3.54,0,0,0,3.54-3.55m1.18,0a4.73,4.73,0,1,1-4.72-4.73,4.73,4.73,0,0,1,4.72,4.73"/><path class="cls-3" d="M20.72,67.05c.22-.37.45-.75.65-1.14a.57.57,0,0,0-.25-.74.58.58,0,0,0-.76.17c-.23.36-.45.74-.65,1.13a.59.59,0,0,0,.62.82A.5.5,0,0,0,20.72,67.05ZM31.1,63.44c-.38-.24-.77-.47-1.18-.68a.56.56,0,0,0-.72.26.56.56,0,0,0,.16.75,13,13,0,0,0,1.14.66.58.58,0,0,0,.82-.54A.52.52,0,0,0,31.1,63.44Zm-.63-7.75c-.36.19-.72.41-1.08.63a.58.58,0,0,0,.59,1c.36-.19.71-.4,1.07-.61a.55.55,0,0,0,.27-.42A.6.6,0,0,0,30.47,55.69Zm-13.41,1c.39.24.78.47,1.18.68a.58.58,0,0,0,.56-1,12.8,12.8,0,0,0-1.13-.66.58.58,0,0,0-.83.54A.55.55,0,0,0,17.06,56.67Zm10.39-3.62c-.23.38-.45.76-.66,1.15a.58.58,0,0,0,1,.57c.23-.37.46-.74.66-1.13a.58.58,0,0,0-.53-.82A.55.55,0,0,0,27.45,53.05Zm1,13.38c-.19-.36-.4-.71-.61-1.05a.58.58,0,0,0-1,.57c.2.36.41.72.62,1.07a.52.52,0,0,0,.42.27A.59.59,0,0,0,28.44,66.43Zm-10.73-2c.35-.19.7-.4,1.05-.61A.58.58,0,0,0,19,63a.57.57,0,0,0-.78-.22c-.37.19-.72.4-1.07.61a.52.52,0,0,0-.27.42A.59.59,0,0,0,17.71,64.41Zm3.65-10.23c-.21-.38-.41-.75-.64-1.11a.58.58,0,0,0-.77-.18.57.57,0,0,0-.25.73c.21.4.44.79.67,1.17A.57.57,0,0,0,21,55a.62.62,0,0,0,.4-.56A1,1,0,0,0,21.36,54.18Zm2.13,13.56a.59.59,0,0,0,1.18,0c0-.4,0-.79,0-1.18a.58.58,0,0,0-.58-.59.59.59,0,0,0-.6.59v1.18Zm8.25-7.1a.59.59,0,1,0,0-1.17H30.6a.59.59,0,1,0,0,1.17h1.14Zm-15.3-1.17a.6.6,0,0,0-.63.58.59.59,0,0,0,.62.59h1.12a.59.59,0,1,0,0-1.17h-1.1Zm7-5.95a.59.59,0,0,0,.59.62.58.58,0,0,0,.59-.61V52.4a.58.58,0,0,0-.59-.61.6.6,0,0,0-.59.61v1.12Zm4.14,6.53a3.55,3.55,0,1,0-3.54,3.55A3.54,3.54,0,0,0,27.63,60.05Zm1.18,0a4.73,4.73,0,1,1-4.72-4.73A4.73,4.73,0,0,1,28.81,60.06Z"/><path class="cls-1" d="M47.12,80.85H61.57M12.45,77.28H29m-7.4-2.87h12M15.16,80.85H25.78"/><path class="cls-2" d="M30.32,17.32a.71.71,0,0,1-.51-1.18l0,0a.7.7,0,0,1,1,0,.69.69,0,0,1,0,1v0a.72.72,0,0,1-.51.22"/><path class="cls-3" d="M30.32,17.32a.71.71,0,0,1-.51-1.18l0,0a.7.7,0,0,1,1,0,.69.69,0,0,1,0,1v0A.72.72,0,0,1,30.32,17.32Z"/><path class="cls-2" d="M48.87,46.59a10.3,10.3,0,0,1-8.21-4.07,8.81,8.81,0,0,1-4.6,1.28,8.91,8.91,0,0,1-6.74-14.74,9.79,9.79,0,0,1-1.24-10.41.7.7,0,0,1,1.26.61,8.2,8.2,0,0,0-.82,3.62,8.34,8.34,0,0,0,2.26,5.72.7.7,0,0,1,0,1,7.44,7.44,0,0,0-2.21,5.32A7.52,7.52,0,0,0,40.44,41a.66.66,0,0,1,.53-.12.69.69,0,0,1,.46.3A8.91,8.91,0,0,0,57.62,38a.69.69,0,0,1,.49-.54,4.64,4.64,0,0,0,1.25-8.36.69.69,0,0,1-.31-.48.72.72,0,0,1,.16-.56A9.62,9.62,0,1,0,43.74,16.69a.69.69,0,0,1-1.07.13,8.35,8.35,0,0,0-9.76-1.31.69.69,0,0,1-.94-.29.68.68,0,0,1,.28-.94,9.78,9.78,0,0,1,10.77,1A11,11,0,0,1,60.74,28.38a6,6,0,0,1-1.84,10.3,10.32,10.32,0,0,1-10,7.91"/><path class="cls-3" d="M48.87,46.59a10.3,10.3,0,0,1-8.21-4.07,8.81,8.81,0,0,1-4.6,1.28,8.91,8.91,0,0,1-6.74-14.74,9.79,9.79,0,0,1-1.24-10.41.7.7,0,0,1,1.26.61,8.2,8.2,0,0,0-.82,3.62,8.34,8.34,0,0,0,2.26,5.72.7.7,0,0,1,0,1,7.44,7.44,0,0,0-2.21,5.32A7.52,7.52,0,0,0,40.44,41a.66.66,0,0,1,.53-.12.69.69,0,0,1,.46.3A8.91,8.91,0,0,0,57.62,38a.69.69,0,0,1,.49-.54,4.64,4.64,0,0,0,1.25-8.36.69.69,0,0,1-.31-.48.72.72,0,0,1,.16-.56A9.62,9.62,0,1,0,43.74,16.69a.69.69,0,0,1-1.07.13,8.35,8.35,0,0,0-9.76-1.31.69.69,0,0,1-.94-.29.68.68,0,0,1,.28-.94,9.78,9.78,0,0,1,10.77,1A11,11,0,0,1,60.74,28.38a6,6,0,0,1-1.84,10.3A10.32,10.32,0,0,1,48.87,46.59Z"/><path class="cls-2" d="M51.86,16h0a.7.7,0,0,1,0-1.4h0a.7.7,0,1,1,0,1.4"/><path class="cls-3" d="M51.86,16h0a.7.7,0,0,1,0-1.4h0a.7.7,0,1,1,0,1.4Z"/><path class="cls-2" d="M58.41,22.55a.71.71,0,0,1-.7-.7,5.88,5.88,0,0,0-3.3-5.27A.7.7,0,0,1,55,15.32,7.28,7.28,0,0,1,58,18a7.16,7.16,0,0,1,1.14,3.9.7.7,0,0,1-.7.7"/><path class="cls-3" d="M58.41,22.55a.71.71,0,0,1-.7-.7,5.88,5.88,0,0,0-3.3-5.27A.7.7,0,0,1,55,15.32,7.28,7.28,0,0,1,58,18a7.16,7.16,0,0,1,1.14,3.9A.7.7,0,0,1,58.41,22.55Z"/><path class="cls-2" d="M36.06,40a5.15,5.15,0,0,1-5.14-5.14.7.7,0,1,1,1.4,0,3.75,3.75,0,0,0,3.74,3.74.7.7,0,0,1,0,1.4"/><path class="cls-3" d="M36.06,40a5.15,5.15,0,0,1-5.14-5.14.7.7,0,1,1,1.4,0,3.75,3.75,0,0,0,3.74,3.74.7.7,0,0,1,0,1.4Z"/><path class="cls-2" d="M48.1,23.76a3.5,3.5,0,1,0,3.49,3.49,3.5,3.5,0,0,0-3.49-3.49m0,8.38A4.89,4.89,0,1,1,53,27.25a4.89,4.89,0,0,1-4.89,4.89"/><path class="cls-3" d="M48.1,23.76a3.5,3.5,0,1,0,3.49,3.49A3.5,3.5,0,0,0,48.1,23.76Zm0,8.38A4.89,4.89,0,1,1,53,27.25,4.89,4.89,0,0,1,48.1,32.14Z"/><path class="cls-2" d="M38.18,32.14a4.89,4.89,0,1,1,3.46-8.34.7.7,0,0,1-1,1,3.49,3.49,0,1,0,0,4.94.7.7,0,0,1,1,1,4.91,4.91,0,0,1-3.46,1.43"/><path class="cls-3" d="M38.18,32.14a4.89,4.89,0,1,1,3.46-8.34.7.7,0,0,1-1,1,3.49,3.49,0,1,0,0,4.94.7.7,0,0,1,1,1A4.91,4.91,0,0,1,38.18,32.14Z"/><path class="cls-2" d="M56,35.06H53.77a.69.69,0,0,1-.66-.48.68.68,0,0,1,.25-.78c.64-.47,2-1.72,2-2.57,0-.27-.07-.42-.43-.42a.42.42,0,0,0-.42.42.7.7,0,1,1-1.4,0,1.83,1.83,0,0,1,1.82-1.82,1.72,1.72,0,0,1,1.82,1.82,4,4,0,0,1-1.15,2.43H56a.7.7,0,1,1,0,1.4"/></svg>