<svg id="Layer_1" data-name="Layer 1" xmlns="http://www.w3.org/2000/svg" viewBox="0 0 90 100"><defs><style>.cls-1{fill:none;}.cls-1,.cls-2{stroke:#74af27;stroke-linecap:round;stroke-linejoin:round;stroke-width:1.5px;}.cls-2{fill:#fff;}.cls-3{fill:#74af27;}</style></defs><title>EV-Misc-Car</title><path class="cls-1" d="M83.67,64.42s6.44-6,1.59-12.05c0,0-2.22-4-15.83-7.17,0,0-5.26-1.53-7.48-3.36-2.42-2-5.22-3.33-11.82-4.13a127.77,127.77,0,0,0-12.87-.87s-10.84-1.11-13.92,6.73a31,31,0,0,0-1.48,8.69v4.12s.43,3.69-1.89,4c0,0-2.54.43-2.64-3.8V45s1.16-9.34-5.17-9.34H10.05"/><line class="cls-2" x1="64.27" y1="65.5" x2="42.01" y2="65.5"/><ellipse class="cls-1" cx="73.57" cy="60.41" rx="7.52" ry="7.73"/><ellipse class="cls-1" cx="32.56" cy="60.41" rx="7.52" ry="7.73"/><path class="cls-3" d="M6.52,32.66v5.67a1.16,1.16,0,0,0,1.45,1,3.8,3.8,0,0,0,3.67-3.53s.46-3.3-3.9-3.93C7.74,31.88,6.52,31.64,6.52,32.66Z"/><path class="cls-3" d="M3.77,34.71a.86.86,0,0,1-.84-.87A.85.85,0,0,1,3.77,33H7.59v1.73Z"/><path class="cls-3" d="M3.77,38.33a.85.85,0,0,1-.84-.86.86.86,0,0,1,.84-.87H7.59v1.73Z"/></svg>