<svg id="Layer_1" data-name="Layer 1" xmlns="http://www.w3.org/2000/svg" xmlns:xlink="http://www.w3.org/1999/xlink" viewBox="0 0 90 100"><defs><style>.cls-1,.cls-10,.cls-5,.cls-6,.cls-8,.cls-9{fill:none;}.cls-2,.cls-7{fill:#fff;}.cls-10,.cls-2,.cls-5,.cls-6,.cls-7,.cls-8,.cls-9{stroke:#74af27;}.cls-10,.cls-2,.cls-9{stroke-miterlimit:10;}.cls-3{fill:#74af27;}.cls-4{clip-path:url(#clip-path);}.cls-5,.cls-6,.cls-7,.cls-8,.cls-9{stroke-linecap:round;}.cls-5,.cls-6,.cls-7,.cls-8{stroke-linejoin:round;}.cls-5{stroke-width:0.61px;}.cls-6{stroke-width:0.59px;}.cls-10,.cls-7,.cls-8,.cls-9{stroke-width:0.61px;}</style><clipPath id="clip-path"><circle class="cls-1" cx="45" cy="37.74" r="27.89"/></clipPath></defs><title>EV-ProductFeatures-LockableDoorToSwitchgear</title><circle class="cls-2" cx="45" cy="37.74" r="28.35"/><path class="cls-3" d="M14.83,70.68h.71v5.65h3.55V77H14.83Z"/><path class="cls-3" d="M19.64,74.68v0a2.43,2.43,0,0,1,4.85,0v0a2.41,2.41,0,0,1-2.44,2.43A2.38,2.38,0,0,1,19.64,74.68Zm4.14,0v0a1.76,1.76,0,0,0-1.73-1.82,1.72,1.72,0,0,0-1.7,1.8v0a1.75,1.75,0,0,0,1.72,1.81A1.72,1.72,0,0,0,23.78,74.68Z"/><path class="cls-3" d="M25.18,74.68v0a2.42,2.42,0,0,1,4.25-1.6l-.46.49a1.87,1.87,0,0,0-1.41-.71,1.72,1.72,0,0,0-1.67,1.8v0a1.74,1.74,0,0,0,1.71,1.81A1.91,1.91,0,0,0,29,75.78l.44.41a2.41,2.41,0,0,1-4.29-1.51Z"/><path class="cls-3" d="M30.34,70.41H31V75l2.51-2.62h.87l-1.95,2,2,2.66h-.83L32,74.82l-.95,1V77h-.69Z"/><path class="cls-3" d="M34.75,75.63h0c0-1,.81-1.51,2-1.51a5.18,5.18,0,0,1,1.43.2v-.16c0-.84-.51-1.27-1.39-1.27a3.33,3.33,0,0,0-1.41.34l-.21-.56a3.8,3.8,0,0,1,1.7-.39,2,2,0,0,1,1.5.51,1.88,1.88,0,0,1,.48,1.36V77h-.67v-.71a2,2,0,0,1-1.68.8A1.56,1.56,0,0,1,34.75,75.63Zm3.43-.35v-.45a4.8,4.8,0,0,0-1.37-.2c-.87,0-1.36.38-1.36,1v0c0,.58.54.93,1.17.93A1.41,1.41,0,0,0,38.18,75.28Z"/><path class="cls-3" d="M40.73,76.09V77H40V70.41h.69v2.86a2.1,2.1,0,0,1,1.79-1,2.28,2.28,0,0,1,2.22,2.41v0a2.28,2.28,0,0,1-2.22,2.42A2.09,2.09,0,0,1,40.73,76.09ZM44,74.67v0a1.68,1.68,0,0,0-1.64-1.8,1.74,1.74,0,0,0-1.68,1.79v0a1.73,1.73,0,0,0,1.68,1.8A1.64,1.64,0,0,0,44,74.67Z"/><path class="cls-3" d="M45.81,70.41h.69V77h-.69Z"/><path class="cls-3" d="M47.56,74.67v0a2.29,2.29,0,0,1,2.23-2.42A2.22,2.22,0,0,1,52,74.69a1.77,1.77,0,0,1,0,.23H48.26a1.63,1.63,0,0,0,1.64,1.57,1.89,1.89,0,0,0,1.46-.66l.44.39a2.42,2.42,0,0,1-1.92.87A2.31,2.31,0,0,1,47.56,74.67Zm3.7-.27a1.54,1.54,0,0,0-1.49-1.58,1.6,1.6,0,0,0-1.51,1.58Z"/><path class="cls-3" d="M55.45,70.68h2.19A3.14,3.14,0,0,1,61,73.82h0A3.16,3.16,0,0,1,57.64,77H55.45Zm.71.66v5h1.48a2.44,2.44,0,0,0,2.61-2.48v0a2.45,2.45,0,0,0-2.61-2.49Z"/><path class="cls-3" d="M61.81,74.68v0a2.41,2.41,0,0,1,2.43-2.43,2.39,2.39,0,0,1,2.42,2.41v0a2.41,2.41,0,0,1-2.44,2.43A2.38,2.38,0,0,1,61.81,74.68Zm4.14,0v0a1.76,1.76,0,0,0-1.73-1.82,1.72,1.72,0,0,0-1.7,1.8v0a1.75,1.75,0,0,0,1.72,1.81A1.72,1.72,0,0,0,66,74.68Z"/><path class="cls-3" d="M67.36,74.68v0a2.43,2.43,0,0,1,4.85,0v0a2.42,2.42,0,0,1-2.44,2.43A2.37,2.37,0,0,1,67.36,74.68Zm4.14,0v0a1.76,1.76,0,0,0-1.73-1.82,1.72,1.72,0,0,0-1.7,1.8v0a1.74,1.74,0,0,0,1.72,1.81A1.72,1.72,0,0,0,71.5,74.68Z"/><path class="cls-3" d="M73.19,72.33h.69v1.22a2,2,0,0,1,1.9-1.3V73h0a1.88,1.88,0,0,0-1.85,2.13V77h-.69Z"/><path class="cls-3" d="M17.51,82.34H15.39v-.66h5v.66H18.23V88h-.72Z"/><path class="cls-3" d="M19.86,85.68v0a2.43,2.43,0,0,1,4.85,0v0a2.41,2.41,0,0,1-2.44,2.43A2.38,2.38,0,0,1,19.86,85.68Zm4.14,0v0a1.76,1.76,0,0,0-1.73-1.82,1.72,1.72,0,0,0-1.7,1.8v0a1.75,1.75,0,0,0,1.72,1.81A1.72,1.72,0,0,0,24,85.68Z"/><path class="cls-3" d="M27.82,87.07l.44-.53a3,3,0,0,0,2.17.9c.84,0,1.4-.45,1.4-1.07v0c0-.59-.32-.92-1.64-1.2s-2.11-.78-2.11-1.82v0a1.86,1.86,0,0,1,2.07-1.72,3.31,3.31,0,0,1,2.21.78l-.41.55a2.77,2.77,0,0,0-1.82-.69c-.82,0-1.34.45-1.34,1v0c0,.59.32.93,1.71,1.22s2,.82,2,1.79h0c0,1.08-.9,1.79-2.15,1.79A3.73,3.73,0,0,1,27.82,87.07Z"/><path class="cls-3" d="M33.13,83.33h.73l1.23,3.74,1.25-3.76h.58l1.26,3.76,1.22-3.74h.72L38.48,88h-.6l-1.25-3.67L35.37,88h-.62Z"/><path class="cls-3" d="M41,81.55h.79v.76H41Zm0,1.78h.7V88h-.7Z"/><path class="cls-3" d="M43.34,86.75V83.94h-.65v-.61h.65v-1.4H44v1.4h1.48v.61H44v2.72a.7.7,0,0,0,.79.78,1.42,1.42,0,0,0,.67-.17v.6a1.8,1.8,0,0,1-.84.2A1.19,1.19,0,0,1,43.34,86.75Z"/><path class="cls-3" d="M46,85.68v0a2.42,2.42,0,0,1,4.25-1.6l-.46.49a1.87,1.87,0,0,0-1.41-.71,1.72,1.72,0,0,0-1.67,1.8v0a1.74,1.74,0,0,0,1.71,1.81,1.91,1.91,0,0,0,1.42-.69l.44.41a2.35,2.35,0,0,1-1.89.9A2.39,2.39,0,0,1,46,85.68Z"/><path class="cls-3" d="M51.2,81.41h.69v2.73a1.77,1.77,0,0,1,1.59-.91,1.71,1.71,0,0,1,1.79,1.87V88h-.7V85.27a1.24,1.24,0,0,0-1.28-1.41,1.37,1.37,0,0,0-1.4,1.46V88H51.2Z"/><path class="cls-3" d="M56.42,88.8l.31-.54a3,3,0,0,0,1.79.59,1.54,1.54,0,0,0,1.7-1.66v-.55a2.23,2.23,0,0,1-1.83,1,2.15,2.15,0,0,1-2.19-2.18v0a2.2,2.2,0,0,1,4-1.26v-.84h.69v3.85a2.24,2.24,0,0,1-.59,1.64,2.44,2.44,0,0,1-1.78.62A3.65,3.65,0,0,1,56.42,88.8Zm3.81-3.36v0a1.63,1.63,0,0,0-1.71-1.58,1.54,1.54,0,0,0-1.61,1.57v0A1.57,1.57,0,0,0,58.52,87,1.63,1.63,0,0,0,60.23,85.44Z"/><path class="cls-3" d="M61.89,85.67v0a2.29,2.29,0,0,1,2.23-2.42,2.22,2.22,0,0,1,2.17,2.46,1.77,1.77,0,0,1,0,.23H62.59a1.63,1.63,0,0,0,1.64,1.57,1.92,1.92,0,0,0,1.47-.66l.43.39a2.42,2.42,0,0,1-1.92.87A2.31,2.31,0,0,1,61.89,85.67Zm3.7-.27a1.53,1.53,0,0,0-1.49-1.58,1.6,1.6,0,0,0-1.51,1.58Z"/><path class="cls-3" d="M66.88,86.63h0c0-1,.81-1.51,2-1.51a5.12,5.12,0,0,1,1.43.2v-.16c0-.84-.51-1.27-1.38-1.27a3.41,3.41,0,0,0-1.42.34l-.2-.56A3.73,3.73,0,0,1,69,83.27a2,2,0,0,1,1.5.51A1.83,1.83,0,0,1,71,85.14V88H70.3v-.71a2,2,0,0,1-1.68.8A1.57,1.57,0,0,1,66.88,86.63Zm3.43-.35v-.45a4.78,4.78,0,0,0-1.36-.2c-.88,0-1.36.38-1.36,1v0c0,.58.54.93,1.17.93A1.41,1.41,0,0,0,70.31,86.28Z"/><path class="cls-3" d="M72.18,83.33h.69v1.22a2,2,0,0,1,1.9-1.3V84h-.06a1.88,1.88,0,0,0-1.84,2.13V88h-.69Z"/><g class="cls-4"><path class="cls-1" d="M38.93-7.75c-5.67,38-3,47-3,47,3.59,12.63,19.25,11.49,19.25,11.49,16.57-.74,20.15-8,20.15-8,5-8,4.92-18.8,4.92-18.8.3-11,2.09-31.71,2.09-31.71"/><path class="cls-5" d="M71.87,45.43a27.57,27.57,0,0,1-17,2.14S39.53,44.48,38.63,31.2c0,0-1-14.92.3-38.95"/><path class="cls-5" d="M73.7-7.75V26.73s1.19,10.74-7.91,12.38c0,0-9.4,2.69-18.5-1.49,0,0-6.23-3.08-4.83-13.21"/><path class="cls-5" d="M64.87,39.33s2.52-.68,2.24-4.43a7.67,7.67,0,0,1,3.42-6.55,4,4,0,0,0,1.73-5.26c-1.56-3.58-2.46-12.93-2-31.17"/><path class="cls-5" d="M40.72-7.75s-1.79,8.36.9,30.45c0,0,2.53,5.82,5.37,7,0,0,2.35.89,2.24,4.78,0,0-.42,3.86,2.7,4.72"/><path class="cls-5" d="M41.62,22.7S68,19.06,72.54,23.87"/><ellipse class="cls-5" cx="54.14" cy="35.6" rx="1.75" ry="2.79"/><path class="cls-5" d="M54.14,32.81h1.3c1,0,1.75,1.25,1.75,2.79s-.78,2.79-1.75,2.79h-1.3"/><path class="cls-5" d="M57,34.26h1a3.7,3.7,0,0,1,0,2.61h-.78"/><path class="cls-1" d="M35.31-7.75S28,40.05,30.24,57.51"/><path class="cls-5" d="M89.11-7.75S87.43,28,88,69.7"/><ellipse class="cls-1" cx="71.42" cy="57.62" rx="4.81" ry="6.27"/><ellipse class="cls-1" cx="70.81" cy="57.45" rx="3.19" ry="4.09"/><path class="cls-1" d="M49.26,53s-2.23-.19-2.91,1.27a4.63,4.63,0,0,0,.11,4,2.63,2.63,0,0,0,2.24,1.45L57,60s2.35,0,3.1-1.23a4.46,4.46,0,0,0,0-4.18,2.87,2.87,0,0,0-2.65-1.42Z"/><rect class="cls-6" x="60.45" y="34" width="5.33" height="3.1" rx="1.55"/><path class="cls-5" d="M73.74,28.45s-4.41,2-4.63,5.31c0,0,0,3.93-1.57,4.89"/><path class="cls-7" d="M17,53.22l-1.84-4.06,11-5.25,7.18,2L33.11,48s1.08,5.07-2.41,6.72a3.1,3.1,0,0,1-2.52,0,3.77,3.77,0,0,1-3,1.47,3,3,0,0,1-3-2,4.22,4.22,0,0,1-3,1.12A2.6,2.6,0,0,1,17,53.22"/><path class="cls-7" d="M30.41,47.18l.87,2.13c1.36,3.63,3.37,3.06,3.37,3.06,2.48-.47,2.24-3.91,2.24-3.91A41.76,41.76,0,0,0,35,40.91a13.56,13.56,0,0,0-7.56-5.81c-3-.92-10.67-3.6-10.67-3.6-3-1-4.29.18-4.29.18-1.44.81-13,9.9-13,9.9l-.53,13.69,13.65-.94A9.06,9.06,0,0,0,18.68,52L21.57,49l3.88-1.76s4.84-2,3.88-6.16c0,0-1.24-2.56-4.85-.88L14.2,45.08"/><path class="cls-8" d="M17.18,39.8a18,18,0,0,0,6.62.76s1.19,2.7,5.31,3.55a15.56,15.56,0,0,0,1.3,3.07"/><path class="cls-7" d="M52.3,41.66,51,43.29a2.8,2.8,0,0,1-.76.67,2.91,2.91,0,0,1-1,.07h0A.59.59,0,0,1,49,44c-.25-.21-.5-.41-.73-.63s-.18-.11-.3,0l-1.09,1.09a1.85,1.85,0,0,1-1.09.06l0,0-1-1-.17-.17-1.44,1.45-.94-.93a.32.32,0,0,0-.18-.11l-1.58,0c0,.1,0,.18,0,.27,0,.44,0,.89,0,1.33s-.27.53-.62.34l-1.15-.67-.25-.13-.1.21a6.06,6.06,0,0,1-2,2.37A5.31,5.31,0,0,1,28.87,46a6,6,0,0,1-1-4.58,5.54,5.54,0,0,1,2.53-3.92,5.25,5.25,0,0,1,7.42,1.67c.16.25.3.51.46.79l.46-.37c.24-.2.48-.41.74-.59a.48.48,0,0,1,.75.4c0,.19,0,.38,0,.57s0,.37,0,.58l.28,0,9.88,0a1,1,0,0,1,.38.08ZM29.9,43.2a1.27,1.27,0,0,0,1.8,0,1.3,1.3,0,0,0,0-1.81,1.26,1.26,0,0,0-1.81,0A1.3,1.3,0,0,0,29.9,43.2Z"/><line class="cls-9" x1="52.24" y1="41.72" x2="39.99" y2="41.72"/><path class="cls-7" d="M-1.06,55.27l13.65-.94A9.06,9.06,0,0,0,18.68,52L21.57,49l3.88-1.76S31.2,45,29.33,41.12c0,0-1.24-2.56-4.85-.88L14.2,45.08"/><line class="cls-10" x1="28.18" y1="54.71" x2="25.45" y2="47.28"/><line class="cls-10" x1="22.17" y1="54.15" x2="20.82" y2="49.81"/><ellipse class="cls-3" cx="63.12" cy="35.54" rx="0.46" ry="0.98"/></g></svg>