<svg id="Layer_1" data-name="Layer 1" xmlns="http://www.w3.org/2000/svg" xmlns:xlink="http://www.w3.org/1999/xlink" viewBox="0 0 90 100"><defs><style>.cls-1{fill:none;}.cls-2,.cls-5{fill:#fff;}.cls-2{stroke:#74af27;stroke-miterlimit:10;}.cls-3{fill:#74af27;}.cls-4{clip-path:url(#clip-path);}</style><clipPath id="clip-path"><circle class="cls-1" cx="45" cy="37.74" r="28.35"/></clipPath></defs><title>EV-ProductFeatures-10xFasterThanA13APlug</title><circle class="cls-2" cx="45" cy="37.74" r="28.35"/><path class="cls-3" d="M13.52,71.38l-1.19.37-.17-.58,1.54-.53h.52V77h-.7Z"/><path class="cls-3" d="M15.42,73.85v0c0-1.76,1-3.25,2.67-3.25s2.65,1.47,2.65,3.24h0c0,1.77-1,3.26-2.67,3.26S15.42,75.62,15.42,73.85Zm4.58,0v0c0-1.37-.76-2.61-1.93-2.61s-1.91,1.21-1.91,2.6h0c0,1.38.75,2.62,1.93,2.62S20,75.23,20,73.85Z"/><path class="cls-3" d="M23.61,74.15,25,72.33h.78L24,74.61,25.84,77H25L23.6,75.07,22.15,77h-.77l1.81-2.37-1.74-2.29h.79Z"/><path class="cls-3" d="M29.24,70.68h4.53v.66H30v2.25h3.41v.65H30V77h-.71Z"/><path class="cls-3" d="M34.18,75.63h0c0-1,.81-1.51,2-1.51a5.12,5.12,0,0,1,1.43.2v-.16c0-.84-.51-1.27-1.38-1.27a3.38,3.38,0,0,0-1.42.34l-.2-.56a3.73,3.73,0,0,1,1.69-.39,2,2,0,0,1,1.5.51,1.83,1.83,0,0,1,.48,1.36V77H37.6v-.71a2,2,0,0,1-1.68.8A1.56,1.56,0,0,1,34.18,75.63Zm3.43-.35v-.45a4.8,4.8,0,0,0-1.37-.2c-.87,0-1.36.38-1.36,1v0c0,.58.54.93,1.17.93A1.41,1.41,0,0,0,37.61,75.28Z"/><path class="cls-3" d="M39.09,76.39l.35-.49a2.75,2.75,0,0,0,1.61.59c.56,0,1-.29,1-.74v0c0-.46-.55-.64-1.16-.81s-1.54-.46-1.54-1.32v0a1.41,1.41,0,0,1,1.59-1.33,3.24,3.24,0,0,1,1.67.51l-.31.53a2.65,2.65,0,0,0-1.38-.45c-.55,0-.9.28-.9.67v0c0,.44.57.61,1.19.8s1.5.5,1.5,1.33v0A1.47,1.47,0,0,1,41,77.08,3.22,3.22,0,0,1,39.09,76.39Z"/><path class="cls-3" d="M43.84,75.75V72.94h-.65v-.61h.65v-1.4h.69v1.4H46v.61H44.53v2.72a.69.69,0,0,0,.78.78,1.43,1.43,0,0,0,.68-.17v.6a1.8,1.8,0,0,1-.84.2A1.19,1.19,0,0,1,43.84,75.75Z"/><path class="cls-3" d="M46.54,74.67v0a2.29,2.29,0,0,1,2.23-2.42,2.22,2.22,0,0,1,2.17,2.46,1.77,1.77,0,0,1,0,.23H47.24a1.63,1.63,0,0,0,1.64,1.57,1.92,1.92,0,0,0,1.47-.66l.43.39a2.42,2.42,0,0,1-1.92.87A2.31,2.31,0,0,1,46.54,74.67Zm3.7-.27a1.53,1.53,0,0,0-1.49-1.58,1.6,1.6,0,0,0-1.51,1.58Z"/><path class="cls-3" d="M51.88,72.33h.7v1.22a2,2,0,0,1,1.9-1.3V73h-.06a1.88,1.88,0,0,0-1.84,2.13V77h-.7Z"/><path class="cls-3" d="M59.47,71.34H57.36v-.66h5v.66H60.19V77h-.72Z"/><path class="cls-3" d="M63.11,70.41h.69v2.73a1.77,1.77,0,0,1,1.59-.91,1.71,1.71,0,0,1,1.79,1.87V77h-.7V74.27a1.24,1.24,0,0,0-1.28-1.41,1.37,1.37,0,0,0-1.4,1.46V77h-.69Z"/><path class="cls-3" d="M68,75.63h0c0-1,.81-1.51,2-1.51a5.18,5.18,0,0,1,1.43.2v-.16c0-.84-.51-1.27-1.39-1.27a3.37,3.37,0,0,0-1.41.34l-.21-.56a3.8,3.8,0,0,1,1.7-.39,2,2,0,0,1,1.5.51,1.83,1.83,0,0,1,.48,1.36V77h-.67v-.71a2,2,0,0,1-1.68.8A1.56,1.56,0,0,1,68,75.63Zm3.43-.35v-.45a4.8,4.8,0,0,0-1.37-.2c-.87,0-1.36.38-1.36,1v0c0,.58.54.93,1.17.93A1.41,1.41,0,0,0,71.46,75.28Z"/><path class="cls-3" d="M73.32,72.33H74v.81a1.76,1.76,0,0,1,1.59-.91,1.7,1.7,0,0,1,1.78,1.87V77H76.7V74.27a1.24,1.24,0,0,0-1.29-1.41A1.37,1.37,0,0,0,74,74.32V77h-.7Z"/><path class="cls-3" d="M25.31,81.64H26L28.85,88h-.77l-.74-1.67H23.91L23.17,88h-.73Zm1.75,4-1.43-3.2-1.44,3.2Z"/><path class="cls-3" d="M33,82.38l-1.19.37-.17-.58,1.54-.53h.52V88H33Z"/><path class="cls-3" d="M34.76,87l.52-.46a2.27,2.27,0,0,0,1.84.94,1.27,1.27,0,0,0,1.37-1.23v0c0-.78-.73-1.21-1.76-1.21h-.41l-.14-.43,2-2.24H35.09v-.64h4v.53l-2,2.19c1.1.09,2.08.62,2.08,1.78h0a2,2,0,0,1-2.1,1.9A2.86,2.86,0,0,1,34.76,87Z"/><path class="cls-3" d="M42.78,81.64h.66L46.32,88h-.77l-.74-1.67H41.38L40.63,88h-.72Zm1.75,4-1.43-3.2-1.44,3.2Z"/><path class="cls-3" d="M49.72,81.68h2.35c1.43,0,2.36.76,2.36,2v0c0,1.36-1.13,2.06-2.47,2.06H50.43V88h-.71ZM52,85.11c1.05,0,1.73-.55,1.73-1.38v0c0-.9-.67-1.37-1.69-1.37H50.43v2.77Z"/><path class="cls-3" d="M55.4,81.41h.7V88h-.7Z"/><path class="cls-3" d="M57.37,86.22V83.33h.69v2.72a1.25,1.25,0,0,0,1.29,1.41A1.37,1.37,0,0,0,60.74,86V83.33h.69V88h-.69v-.81a1.76,1.76,0,0,1-1.59.9A1.69,1.69,0,0,1,57.37,86.22Z"/><path class="cls-3" d="M62.66,88.8l.31-.54a3,3,0,0,0,1.79.59,1.54,1.54,0,0,0,1.7-1.66v-.55a2.23,2.23,0,0,1-1.83,1,2.15,2.15,0,0,1-2.19-2.18v0a2.2,2.2,0,0,1,4-1.26v-.84h.69v3.85a2.24,2.24,0,0,1-.59,1.64,2.44,2.44,0,0,1-1.78.62A3.65,3.65,0,0,1,62.66,88.8Zm3.81-3.36v0a1.63,1.63,0,0,0-1.71-1.58,1.54,1.54,0,0,0-1.61,1.57v0A1.57,1.57,0,0,0,64.76,87,1.63,1.63,0,0,0,66.47,85.44Z"/><g class="cls-4"><path class="cls-3" d="M51.3,46l-.84.22a1.36,1.36,0,0,0-1,1.62.56.56,0,0,0,0,.12,1.35,1.35,0,0,0,1.58.91l1-.26A1.36,1.36,0,0,0,51.3,46Z"/><path class="cls-3" d="M41.82,45.41c-.26-.11-.53-.23-.79-.36a1.36,1.36,0,0,0-1.82.61,1.37,1.37,0,0,0,.61,1.82c.31.15.62.3.94.43a1.36,1.36,0,1,0,1.06-2.5Z"/><path class="cls-3" d="M46.51,46.52l-.86-.08a1.36,1.36,0,0,0-1.51,1.18,1.25,1.25,0,0,0,0,.58,1.35,1.35,0,0,0,1.13.93c.34,0,.68.08,1,.1a1.36,1.36,0,1,0,.17-2.71Z"/><path class="cls-3" d="M55.63,43.88c-.23.17-.47.33-.71.49a1.34,1.34,0,0,0-.57,1.56,1.23,1.23,0,0,0,.14.31,1.36,1.36,0,0,0,1.87.42c.29-.18.58-.37.86-.57a1.36,1.36,0,0,0,.31-1.89A1.37,1.37,0,0,0,55.63,43.88Z"/><path class="cls-3" d="M60.9,40.11a1.36,1.36,0,0,0-1.89.34c-.16.24-.33.47-.51.7a1.37,1.37,0,0,0-.23,1.26,1.5,1.5,0,0,0,.45.65,1.36,1.36,0,0,0,1.91-.23c.21-.27.42-.55.61-.83A1.35,1.35,0,0,0,60.9,40.11Z"/><path class="cls-3" d="M62.71,35.13a1.36,1.36,0,0,0-1.67.95c-.07.28-.16.56-.25.83a1.37,1.37,0,0,0,0,.85,1.32,1.32,0,0,0,.85.87,1.36,1.36,0,0,0,1.73-.85c.1-.32.21-.65.29-1A1.36,1.36,0,0,0,62.71,35.13Z"/><path class="cls-3" d="M65.39,26.5l-1.79.55a16.74,16.74,0,0,0-8.06-9.63c-.39-.21-.78-.4-1.18-.58h0l-.05,0A16.77,16.77,0,0,0,43.15,16l-.09,0-.37.11-.61.2-.07,0a16.7,16.7,0,0,0-8.19,6.12l0,0c-.19.28-.39.57-.57.86l0,.05c-.18.3-.35.6-.52.9a16.73,16.73,0,0,0-1.88,10.07v0h0a17.24,17.24,0,0,0,.58,2.75A16.66,16.66,0,0,0,35,43.54a1.36,1.36,0,0,0,2-1.81,14.08,14.08,0,0,1-2.07-3s0,0,0,0c-.13-.25-.26-.52-.37-.78h0a13.41,13.41,0,0,1-.54-1.5,14.2,14.2,0,0,1,5.2-15.53l.21-.15a14.06,14.06,0,0,1,4.06-2,14.33,14.33,0,0,1,4.51-.6H48l.27,0h.11a14.23,14.23,0,0,1,11.32,6.92h0c0,.06.07.12.1.19v0A13.67,13.67,0,0,1,61,27.86l-1.78.55c-.5.15-.55.51-.11.79L63,31.72a.76.76,0,0,0,1.15-.36l1.78-4.27C66.13,26.61,65.88,26.34,65.39,26.5Z"/><path class="cls-3" d="M40.3,29.82H38.57V28.29c1.07,0,2.13-.38,2.19-1.6H42.5v7.38H40.3Z"/><path class="cls-3" d="M46.85,26.61c1.35,0,3.15.92,3.15,3.77s-1.8,3.78-3.14,3.78-3.14-.93-3.14-3.78S45.52,26.61,46.85,26.61Zm0,5.92c1.08,0,1.13-1.36,1.13-2.15s0-2.15-1.11-2.15-1.13,1.36-1.13,2.15S45.78,32.53,46.85,32.53Z"/><path class="cls-3" d="M52.31,31.18l-1.73-2.61h2.31l.61,1.09.61-1.09h2.25l-1.73,2.61,1.95,2.89H54.27l-.81-1.34-.77,1.34h-2.3Z"/><path class="cls-3" d="M50.44,26.61h.14v.94c0,.35.17.48.44.48s.45-.13.45-.48v-.94h.14v1a.59.59,0,0,1-1.17,0Z"/><path class="cls-3" d="M51.91,26.61h.67A.41.41,0,0,1,53,27a.4.4,0,0,1-.45.43h-.53v.65h-.14Zm.14.74h.5a.31.31,0,1,0,0-.62h-.5Z"/><path class="cls-3" d="M53.68,26.61h1.2v.12h-.53v1.39h-.14V26.73h-.53Z"/><path class="cls-3" d="M55.66,26.58a.79.79,0,1,1-.72.79A.71.71,0,0,1,55.66,26.58Zm0,1.45a.59.59,0,0,0,.57-.66.58.58,0,1,0-1.14,0A.59.59,0,0,0,55.66,28Z"/><path class="cls-3" d="M40.19,35.24h2.13v.28H40.51v1.21h1.61V37H40.51v1.6h-.32Z"/><path class="cls-3" d="M43.44,35.24h.36l1.32,3.37h-.34l-.41-1H42.84l-.41,1h-.34Zm-.5,2h1.32l-.65-1.73Z"/><path class="cls-3" d="M45.58,37.5c0,.7.48.91,1.1.91.35,0,.89-.2.89-.69s-.38-.53-.69-.6l-.75-.19c-.4-.1-.76-.29-.76-.81,0-.33.21-.95,1.16-.95.66,0,1.25.36,1.24,1h-.32a.83.83,0,0,0-.92-.77c-.44,0-.84.17-.84.67,0,.31.23.44.51.51l.82.2c.47.13.87.34.87.89,0,.23-.1,1-1.29,1-.79,0-1.38-.36-1.34-1.18Z"/><path class="cls-3" d="M48,35.24H50.7v.28H49.53v3.09h-.32V35.52H48Z"/><path class="cls-3" d="M51,35.24h2.32v.28h-2v1.21h1.87V37H51.34v1.33h2v.27H51Z"/><path class="cls-3" d="M53.81,35.24h1.54c.56,0,1,.27,1,.88a.82.82,0,0,1-.66.86h0c.44,0,.57.36.59.76a1.74,1.74,0,0,0,.16.86h-.36a1.33,1.33,0,0,1-.09-.52c0-.47-.06-1-.67-1H54.13v1.49h-.32Zm.32,1.6h1.2a.67.67,0,0,0,.73-.65.64.64,0,0,0-.73-.67h-1.2Z"/><rect class="cls-5" x="51.19" y="45.83" width="1.91" height="5.74"/><rect class="cls-5" x="25.53" y="42.13" width="25.62" height="13.71" rx="2.83"/><path class="cls-3" d="M35.45,55.38h-7.6a1.71,1.71,0,0,1-1.7-1.71v-9.3a1.71,1.71,0,0,1,1.7-1.71h10.2l.54-.73H27.85a2.44,2.44,0,0,0-2.44,2.44v9.3a2.45,2.45,0,0,0,2.44,2.44h7.33Z"/><path class="cls-3" d="M49.08,41.93H42.23l-.27.73h7.12a1.72,1.72,0,0,1,1.71,1.71v9.3a1.72,1.72,0,0,1-1.71,1.71H39.32l-.54.73h10.3a2.45,2.45,0,0,0,2.44-2.44v-9.3A2.44,2.44,0,0,0,49.08,41.93Z"/><path class="cls-3" d="M53.37,51.9H50.79V45.51h2.58Zm-1.85-.73h1.12V46.24H51.52Z"/><polygon class="cls-3" points="42.16 38.93 33.76 50.34 38.52 50.34 35.26 59 43.8 47.53 39 47.53 42.16 38.93"/></g></svg>