<svg id="Layer_1" data-name="Layer 1" xmlns="http://www.w3.org/2000/svg" xmlns:xlink="http://www.w3.org/1999/xlink" viewBox="0 0 90 100"><defs><style>.cls-1{fill:none;}.cls-2,.cls-5,.cls-6{fill:#fff;stroke:#74af27;}.cls-2{stroke-miterlimit:10;}.cls-3{fill:#74af27;}.cls-4{clip-path:url(#clip-path);}.cls-5{stroke-linejoin:bevel;}.cls-5,.cls-6{stroke-width:0.8px;}.cls-6{stroke-linecap:round;stroke-linejoin:round;}</style><clipPath id="clip-path"><circle class="cls-1" cx="45" cy="37.74" r="27.81"/></clipPath></defs><title>EV-ProductFeatures-DoorLockedWhilstCharging</title><circle class="cls-2" cx="45" cy="37.74" r="28.35"/><path class="cls-3" d="M18.42,70.68h2.19A3.14,3.14,0,0,1,24,73.82h0A3.16,3.16,0,0,1,20.61,77H18.42Zm.71.66v5h1.48a2.44,2.44,0,0,0,2.61-2.48v0a2.45,2.45,0,0,0-2.61-2.49Z"/><path class="cls-3" d="M24.78,74.68v0a2.41,2.41,0,0,1,2.43-2.43,2.39,2.39,0,0,1,2.42,2.41v0a2.41,2.41,0,0,1-2.43,2.43A2.38,2.38,0,0,1,24.78,74.68Zm4.14,0v0a1.76,1.76,0,0,0-1.72-1.82,1.72,1.72,0,0,0-1.71,1.8v0a1.75,1.75,0,0,0,1.72,1.81A1.72,1.72,0,0,0,28.92,74.68Z"/><path class="cls-3" d="M30.33,74.68v0a2.43,2.43,0,0,1,4.85,0v0a2.42,2.42,0,0,1-2.44,2.43A2.37,2.37,0,0,1,30.33,74.68Zm4.14,0v0a1.76,1.76,0,0,0-1.73-1.82,1.72,1.72,0,0,0-1.7,1.8v0a1.75,1.75,0,0,0,1.72,1.81A1.72,1.72,0,0,0,34.47,74.68Z"/><path class="cls-3" d="M36.16,72.33h.69v1.22a2,2,0,0,1,1.9-1.3V73h0a1.88,1.88,0,0,0-1.85,2.13V77h-.69Z"/><path class="cls-3" d="M42.08,70.68h.71v5.65h3.55V77H42.08Z"/><path class="cls-3" d="M46.89,74.68v0a2.43,2.43,0,0,1,4.85,0v0a2.42,2.42,0,0,1-2.44,2.43A2.37,2.37,0,0,1,46.89,74.68Zm4.14,0v0a1.76,1.76,0,0,0-1.73-1.82,1.72,1.72,0,0,0-1.7,1.8v0a1.74,1.74,0,0,0,1.72,1.81A1.72,1.72,0,0,0,51,74.68Z"/><path class="cls-3" d="M52.43,74.68v0a2.42,2.42,0,0,1,4.25-1.6l-.46.49a1.87,1.87,0,0,0-1.41-.71,1.72,1.72,0,0,0-1.67,1.8v0a1.74,1.74,0,0,0,1.71,1.81,1.89,1.89,0,0,0,1.42-.69l.44.41a2.35,2.35,0,0,1-1.89.9A2.39,2.39,0,0,1,52.43,74.68Z"/><path class="cls-3" d="M57.59,70.41h.69V75l2.51-2.62h.87l-2,2,2,2.66h-.83l-1.67-2.17-.94,1V77h-.69Z"/><path class="cls-3" d="M61.92,74.67v0a2.3,2.3,0,0,1,2.24-2.42,2.22,2.22,0,0,1,2.17,2.46,1.77,1.77,0,0,1,0,.23H62.63a1.63,1.63,0,0,0,1.64,1.57,1.92,1.92,0,0,0,1.46-.66l.44.39a2.42,2.42,0,0,1-1.92.87A2.32,2.32,0,0,1,61.92,74.67Zm3.71-.27a1.54,1.54,0,0,0-1.49-1.58,1.6,1.6,0,0,0-1.51,1.58Z"/><path class="cls-3" d="M67,74.67v0a2.28,2.28,0,0,1,2.22-2.42,2.11,2.11,0,0,1,1.79,1V70.41h.69V77H71v-.94a2.09,2.09,0,0,1-1.79,1A2.27,2.27,0,0,1,67,74.67Zm4,0v0a1.73,1.73,0,0,0-1.68-1.79,1.65,1.65,0,0,0-1.64,1.79v0a1.68,1.68,0,0,0,1.64,1.8A1.74,1.74,0,0,0,71,74.66Z"/><path class="cls-3" d="M11.5,81.68h.77l1.8,5.25,1.73-5.26h.59l1.73,5.26,1.8-5.25h.74L18.41,88h-.6l-1.73-5.11L14.34,88h-.59Z"/><path class="cls-3" d="M21.47,81.41h.69v2.73a1.79,1.79,0,0,1,1.6-.91,1.7,1.7,0,0,1,1.78,1.87V88h-.69V85.27a1.24,1.24,0,0,0-1.29-1.41,1.38,1.38,0,0,0-1.4,1.46V88h-.69Z"/><path class="cls-3" d="M26.76,81.55h.79v.76h-.79Zm0,1.78h.69V88h-.69Z"/><path class="cls-3" d="M28.9,81.41h.7V88h-.7Z"/><path class="cls-3" d="M30.55,87.39l.35-.49a2.78,2.78,0,0,0,1.61.59c.56,0,1-.29,1-.74v0c0-.46-.55-.64-1.16-.81s-1.54-.46-1.54-1.32v0a1.4,1.4,0,0,1,1.58-1.33,3.24,3.24,0,0,1,1.68.51l-.32.53a2.63,2.63,0,0,0-1.38-.45c-.55,0-.9.28-.9.67v0c0,.44.58.61,1.2.8s1.49.5,1.49,1.33v0a1.46,1.46,0,0,1-1.65,1.4A3.22,3.22,0,0,1,30.55,87.39Z"/><path class="cls-3" d="M35.3,86.75V83.94h-.64v-.61h.64v-1.4H36v1.4h1.47v.61H36v2.72a.69.69,0,0,0,.78.78,1.48,1.48,0,0,0,.68-.17v.6a1.86,1.86,0,0,1-.84.2A1.19,1.19,0,0,1,35.3,86.75Z"/><path class="cls-3" d="M40.69,84.85v0a3.17,3.17,0,0,1,3.19-3.25,3.27,3.27,0,0,1,2.46,1l-.49.52a2.71,2.71,0,0,0-2-.87,2.48,2.48,0,0,0-2.44,2.59h0a2.5,2.5,0,0,0,2.44,2.61,2.77,2.77,0,0,0,2-.91l.47.46a3.31,3.31,0,0,1-2.53,1.1A3.15,3.15,0,0,1,40.69,84.85Z"/><path class="cls-3" d="M47.23,81.41h.69v2.73a1.77,1.77,0,0,1,1.59-.91A1.71,1.71,0,0,1,51.3,85.1V88h-.7V85.27a1.24,1.24,0,0,0-1.28-1.41,1.38,1.38,0,0,0-1.4,1.46V88h-.69Z"/><path class="cls-3" d="M52.15,86.63h0c0-1,.81-1.51,2-1.51a5.18,5.18,0,0,1,1.43.2v-.16c0-.84-.51-1.27-1.38-1.27a3.38,3.38,0,0,0-1.42.34l-.21-.56a3.8,3.8,0,0,1,1.7-.39,2,2,0,0,1,1.5.51,1.83,1.83,0,0,1,.48,1.36V88h-.67v-.71a2,2,0,0,1-1.68.8A1.56,1.56,0,0,1,52.15,86.63Zm3.43-.35v-.45a4.8,4.8,0,0,0-1.37-.2c-.87,0-1.36.38-1.36,1v0c0,.58.54.93,1.17.93A1.41,1.41,0,0,0,55.58,86.28Z"/><path class="cls-3" d="M57.44,83.33h.7v1.22a2,2,0,0,1,1.9-1.3V84H60a1.87,1.87,0,0,0-1.84,2.13V88h-.7Z"/><path class="cls-3" d="M60.57,88.8l.32-.54a3,3,0,0,0,1.79.59,1.53,1.53,0,0,0,1.69-1.66v-.55a2.2,2.2,0,0,1-1.82,1,2.15,2.15,0,0,1-2.19-2.18v0a2.2,2.2,0,0,1,4-1.26v-.84h.69v3.85a2.21,2.21,0,0,1-.6,1.64,2.4,2.4,0,0,1-1.77.62A3.7,3.7,0,0,1,60.57,88.8Zm3.82-3.36v0a1.64,1.64,0,0,0-1.71-1.58,1.54,1.54,0,0,0-1.61,1.57v0A1.57,1.57,0,0,0,62.68,87,1.64,1.64,0,0,0,64.39,85.44Z"/><path class="cls-3" d="M66.35,81.55h.79v.76h-.79Zm.05,1.78h.69V88H66.4Z"/><path class="cls-3" d="M68.43,83.33h.7v.81a1.76,1.76,0,0,1,1.59-.91A1.7,1.7,0,0,1,72.5,85.1V88h-.69V85.27a1.24,1.24,0,0,0-1.29-1.41,1.37,1.37,0,0,0-1.39,1.46V88h-.7Z"/><path class="cls-3" d="M73.65,88.8l.32-.54a3,3,0,0,0,1.79.59,1.53,1.53,0,0,0,1.69-1.66v-.55a2.22,2.22,0,0,1-1.83,1,2.15,2.15,0,0,1-2.18-2.18v0a2.2,2.2,0,0,1,4-1.26v-.84h.69v3.85a2.2,2.2,0,0,1-.59,1.64,2.4,2.4,0,0,1-1.77.62A3.66,3.66,0,0,1,73.65,88.8Zm3.82-3.36v0a1.64,1.64,0,0,0-1.71-1.58,1.54,1.54,0,0,0-1.61,1.57v0A1.56,1.56,0,0,0,75.76,87,1.64,1.64,0,0,0,77.47,85.44Z"/><g class="cls-4"><path class="cls-5" d="M56.14-64.27V50a1.85,1.85,0,0,1-.61,1.38c-1,.9-3.65,2.17-10.56,2.17-7.17,0-9.75-1.36-10.67-2.27A1.77,1.77,0,0,1,33.79,50V-64.27"/><path class="cls-6" d="M42.08,31h5.79a0,0,0,0,1,0,0v2.52a1.09,1.09,0,0,1-1.09,1.09H43.17a1.09,1.09,0,0,1-1.09-1.09V31A0,0,0,0,1,42.08,31Z"/><path class="cls-3" d="M80.69,60.19H56.16c-4,0-7.08-1.19-9.22-3.54-3.41-3.73-3.1-9-3-9.68V27.4H46V47.11s-.41,4.93,2.5,8.1C50.25,57.09,52.82,58,56.16,58H80.69Z"/><path class="cls-6" d="M54.39-66.91V29a1.93,1.93,0,0,1-1.17,1.78c-1.19.5-3.55,1-8.25,1s-7.07-.52-8.25-1A1.92,1.92,0,0,1,35.54,29V-66.91"/></g></svg>