<svg id="Layer_1" data-name="Layer 1" xmlns="http://www.w3.org/2000/svg" xmlns:xlink="http://www.w3.org/1999/xlink" viewBox="0 0 90 100"><defs><style>.cls-1,.cls-5{fill:none;}.cls-2{fill:#fff;stroke-miterlimit:10;}.cls-2,.cls-5{stroke:#74af27;}.cls-3{fill:#74af27;}.cls-4{clip-path:url(#clip-path);}.cls-5{stroke-linecap:round;stroke-linejoin:round;}</style><clipPath id="clip-path"><circle class="cls-1" cx="45" cy="37.66" r="27.9"/></clipPath></defs><title>EV-ProductFeatures-PlatinumRangeSwitchgear</title><circle class="cls-2" cx="45" cy="37.74" r="28.35"/><path class="cls-3" d="M12.42,70.68h2.36c1.42,0,2.35.76,2.35,2v0c0,1.36-1.13,2.06-2.47,2.06H13.13V77h-.71Zm2.27,3.43c1,0,1.72-.55,1.72-1.38v0c0-.9-.67-1.37-1.69-1.37H13.13v2.77Z"/><path class="cls-3" d="M18.1,70.41h.7V77h-.7Z"/><path class="cls-3" d="M19.79,75.63h0c0-1,.81-1.51,2-1.51a5.24,5.24,0,0,1,1.43.2v-.16c0-.84-.51-1.27-1.39-1.27a3.33,3.33,0,0,0-1.41.34l-.21-.56a3.76,3.76,0,0,1,1.69-.39,2.06,2.06,0,0,1,1.51.51,1.87,1.87,0,0,1,.47,1.36V77h-.66v-.71a2,2,0,0,1-1.69.8A1.56,1.56,0,0,1,19.79,75.63Zm3.43-.35v-.45a4.8,4.8,0,0,0-1.37-.2c-.87,0-1.36.38-1.36,1v0c0,.58.54.93,1.17.93A1.41,1.41,0,0,0,23.22,75.28Z"/><path class="cls-3" d="M25.28,75.75V72.94h-.65v-.61h.65v-1.4H26v1.4h1.48v.61H26v2.72a.69.69,0,0,0,.78.78,1.43,1.43,0,0,0,.68-.17v.6a1.8,1.8,0,0,1-.84.2A1.18,1.18,0,0,1,25.28,75.75Z"/><path class="cls-3" d="M28.42,70.55h.79v.76h-.79Zm0,1.78h.7V77h-.7Z"/><path class="cls-3" d="M30.5,72.33h.69v.81a1.77,1.77,0,0,1,1.59-.91,1.71,1.71,0,0,1,1.79,1.87V77h-.7V74.27a1.24,1.24,0,0,0-1.28-1.41,1.37,1.37,0,0,0-1.4,1.46V77H30.5Z"/><path class="cls-3" d="M35.7,75.22V72.33h.69v2.72a1.25,1.25,0,0,0,1.29,1.41A1.37,1.37,0,0,0,39.07,75V72.33h.69V77h-.69v-.81a1.76,1.76,0,0,1-1.59.9A1.7,1.7,0,0,1,35.7,75.22Z"/><path class="cls-3" d="M41,72.33h.7v.79a1.7,1.7,0,0,1,1.5-.89,1.6,1.6,0,0,1,1.5.93,1.85,1.85,0,0,1,1.63-.93,1.67,1.67,0,0,1,1.73,1.88V77h-.69V74.27c0-.9-.45-1.41-1.21-1.41a1.3,1.3,0,0,0-1.28,1.44V77h-.69V74.25c0-.87-.46-1.39-1.2-1.39a1.35,1.35,0,0,0-1.29,1.47V77H41Z"/><path class="cls-3" d="M51.88,70.68h2.71a2.5,2.5,0,0,1,1.79.63,1.74,1.74,0,0,1,.49,1.25h0a1.84,1.84,0,0,1-1.71,1.84L57.09,77h-.87l-1.83-2.45h-1.8V77h-.71Zm2.65,3.22c.94,0,1.62-.49,1.62-1.3v0c0-.77-.6-1.24-1.61-1.24H52.59V73.9Z"/><path class="cls-3" d="M57.65,75.63h0c0-1,.81-1.51,2-1.51a5.18,5.18,0,0,1,1.43.2v-.16c0-.84-.51-1.27-1.39-1.27a3.33,3.33,0,0,0-1.41.34l-.21-.56a3.8,3.8,0,0,1,1.7-.39,2,2,0,0,1,1.5.51,1.88,1.88,0,0,1,.48,1.36V77h-.67v-.71a2,2,0,0,1-1.68.8A1.56,1.56,0,0,1,57.65,75.63Zm3.43-.35v-.45a4.8,4.8,0,0,0-1.37-.2c-.87,0-1.36.38-1.36,1v0c0,.58.54.93,1.17.93A1.41,1.41,0,0,0,61.08,75.28Z"/><path class="cls-3" d="M62.94,72.33h.69v.81a1.79,1.79,0,0,1,1.6-.91A1.7,1.7,0,0,1,67,74.1V77h-.69V74.27A1.24,1.24,0,0,0,65,72.86a1.38,1.38,0,0,0-1.4,1.46V77h-.69Z"/><path class="cls-3" d="M68.16,77.8l.32-.54a3,3,0,0,0,1.79.59A1.53,1.53,0,0,0,72,76.19v-.55a2.2,2.2,0,0,1-1.83,1,2.16,2.16,0,0,1-2.19-2.18v0a2.2,2.2,0,0,1,4-1.26v-.84h.69v3.85a2.2,2.2,0,0,1-.59,1.64,2.4,2.4,0,0,1-1.77.62A3.66,3.66,0,0,1,68.16,77.8ZM72,74.44v0a1.64,1.64,0,0,0-1.71-1.58,1.54,1.54,0,0,0-1.61,1.57v0A1.56,1.56,0,0,0,70.27,76,1.64,1.64,0,0,0,72,74.44Z"/><path class="cls-3" d="M73.63,74.67v0a2.3,2.3,0,0,1,2.24-2.42A2.22,2.22,0,0,1,78,74.69a1.77,1.77,0,0,1,0,.23H74.34A1.63,1.63,0,0,0,76,76.49a1.92,1.92,0,0,0,1.47-.66l.43.39a2.38,2.38,0,0,1-1.91.87A2.32,2.32,0,0,1,73.63,74.67Zm3.7-.27a1.53,1.53,0,0,0-1.48-1.58,1.6,1.6,0,0,0-1.51,1.58Z"/><path class="cls-3" d="M21.63,87.07l.44-.53a3,3,0,0,0,2.16.9c.85,0,1.4-.45,1.4-1.07v0c0-.59-.31-.92-1.63-1.2s-2.12-.78-2.12-1.82v0A1.86,1.86,0,0,1,24,81.59a3.32,3.32,0,0,1,2.22.78l-.42.55a2.75,2.75,0,0,0-1.82-.69c-.82,0-1.34.45-1.34,1v0c0,.59.33.93,1.71,1.22s2.05.82,2.05,1.79h0c0,1.08-.9,1.79-2.15,1.79A3.69,3.69,0,0,1,21.63,87.07Z"/><path class="cls-3" d="M26.93,83.33h.74l1.22,3.74,1.25-3.76h.58L32,87.07l1.22-3.74h.72L32.29,88h-.61l-1.25-3.67L29.17,88h-.61Z"/><path class="cls-3" d="M34.82,81.55h.79v.76h-.79Zm0,1.78h.69V88h-.69Z"/><path class="cls-3" d="M37.14,86.75V83.94H36.5v-.61h.64v-1.4h.7v1.4h1.47v.61H37.84v2.72a.69.69,0,0,0,.78.78,1.48,1.48,0,0,0,.68-.17v.6a1.86,1.86,0,0,1-.84.2A1.19,1.19,0,0,1,37.14,86.75Z"/><path class="cls-3" d="M39.84,85.68v0a2.42,2.42,0,0,1,4.25-1.6l-.46.49a1.87,1.87,0,0,0-1.41-.71,1.72,1.72,0,0,0-1.67,1.8v0a1.74,1.74,0,0,0,1.71,1.81,1.91,1.91,0,0,0,1.43-.69l.44.41a2.41,2.41,0,0,1-4.29-1.51Z"/><path class="cls-3" d="M45,81.41h.69v2.73a1.79,1.79,0,0,1,1.6-.91,1.7,1.7,0,0,1,1.78,1.87V88h-.69V85.27a1.24,1.24,0,0,0-1.29-1.41,1.38,1.38,0,0,0-1.4,1.46V88H45Z"/><path class="cls-3" d="M50.22,88.8l.32-.54a3,3,0,0,0,1.79.59A1.53,1.53,0,0,0,54,87.19v-.55a2.22,2.22,0,0,1-1.83,1A2.16,2.16,0,0,1,50,85.45v0a2.2,2.2,0,0,1,4-1.26v-.84h.69v3.85a2.2,2.2,0,0,1-.59,1.64,2.42,2.42,0,0,1-1.77.62A3.66,3.66,0,0,1,50.22,88.8ZM54,85.44v0a1.64,1.64,0,0,0-1.71-1.58,1.54,1.54,0,0,0-1.61,1.57v0A1.56,1.56,0,0,0,52.33,87,1.64,1.64,0,0,0,54,85.44Z"/><path class="cls-3" d="M55.69,85.67v0a2.3,2.3,0,0,1,2.23-2.42,2.22,2.22,0,0,1,2.17,2.46v.23h-3.7A1.63,1.63,0,0,0,58,87.49a1.92,1.92,0,0,0,1.47-.66l.43.39a2.4,2.4,0,0,1-1.91.87A2.32,2.32,0,0,1,55.69,85.67Zm3.7-.27a1.53,1.53,0,0,0-1.48-1.58,1.61,1.61,0,0,0-1.52,1.58Z"/><path class="cls-3" d="M60.69,86.63h0c0-1,.81-1.51,2-1.51a5.24,5.24,0,0,1,1.43.2v-.16c0-.84-.51-1.27-1.39-1.27a3.33,3.33,0,0,0-1.41.34l-.21-.56a3.76,3.76,0,0,1,1.69-.39,2.06,2.06,0,0,1,1.51.51,1.87,1.87,0,0,1,.47,1.36V88h-.66v-.71a2,2,0,0,1-1.69.8A1.56,1.56,0,0,1,60.69,86.63Zm3.43-.35v-.45a4.8,4.8,0,0,0-1.37-.2c-.87,0-1.36.38-1.36,1v0c0,.58.54.93,1.17.93A1.41,1.41,0,0,0,64.12,86.28Z"/><path class="cls-3" d="M66,83.33h.69v1.22a2,2,0,0,1,1.9-1.3V84h0a1.88,1.88,0,0,0-1.85,2.13V88H66Z"/><g class="cls-4"><path class="cls-5" d="M47.25,38c-2,.7-4,1.36-5.89,2-1.73.59-3.45,1.2-5.18,1.8a2.19,2.19,0,0,1-2.93-1.17,2.16,2.16,0,0,1,1.17-2.87c4.39-2.31,8.79-4.61,13.16-7a6.3,6.3,0,0,0,1.78-1.47c.9-1.07.51-1.92-.82-2.34a17.58,17.58,0,0,1-3.6-1.44,4.9,4.9,0,0,1-2.55-3.62,3.14,3.14,0,0,1,0-.75c.15-1.18.75-1.74,1.88-1.46,3.24.82,6.53.53,9.81.55.45,0,.9,0,1.35,0a10.12,10.12,0,0,1,4.63,1.11,44.89,44.89,0,0,0,5,2,4.48,4.48,0,0,0,2.3,0,2.24,2.24,0,0,1,2.07.46A11.86,11.86,0,0,1,73,28.39a13.84,13.84,0,0,1,1.55,8.14,1.5,1.5,0,0,1-1,1.27,23,23,0,0,0-3.35,2A7.25,7.25,0,0,0,69,41.41a11.11,11.11,0,0,1-1.55,2.06,35.29,35.29,0,0,1-9.2,5.21,3.52,3.52,0,0,1-4.34-2,2.92,2.92,0,0,0-1.52-1.57A4.3,4.3,0,0,1,50,41.76a.76.76,0,0,0-.59-.7,2.92,2.92,0,0,1-2-2.47C47.35,38.42,47.31,38.25,47.25,38Z"/><path class="cls-5" d="M36.51,32.16c-2.38,2.19-5.67,5.16-8,7.38a1.94,1.94,0,0,0-.52,1,4.42,4.42,0,0,1-4.55,4,.74.74,0,0,0-.47.19c.42.26.86.48,1.25.77a1,1,0,0,1,.45.65c0,3.71,0,7.42,0,11.13a2.24,2.24,0,0,1-.06.31H17.1V21.18h7.58v13l8.8-5.63Z"/></g></svg>