<svg id="Layer_1" data-name="Layer 1" xmlns="http://www.w3.org/2000/svg" viewBox="0 0 90 100"><defs><style>.cls-1,.cls-3{fill:#fff;stroke:#74af27;}.cls-1{stroke-miterlimit:10;}.cls-2{fill:#74af27;}.cls-3{stroke-linecap:round;stroke-linejoin:round;stroke-width:0.82px;}</style></defs><title>EV-ProductFeatures-CO2-CarbonEmissionSavings</title><circle class="cls-1" cx="45" cy="37.74" r="28.35"/><path class="cls-2" d="M10,73.85v0a3.17,3.17,0,0,1,3.19-3.25,3.25,3.25,0,0,1,2.45,1l-.48.52a2.73,2.73,0,0,0-2-.87,2.47,2.47,0,0,0-2.44,2.59h0a2.49,2.49,0,0,0,2.44,2.61,2.75,2.75,0,0,0,2-.91l.47.46a3.31,3.31,0,0,1-2.52,1.1A3.14,3.14,0,0,1,10,73.85Z"/><path class="cls-2" d="M16.14,75.63h0c0-1,.81-1.51,2-1.51a5.12,5.12,0,0,1,1.43.2v-.16c0-.84-.51-1.27-1.38-1.27a3.41,3.41,0,0,0-1.42.34l-.2-.56a3.73,3.73,0,0,1,1.69-.39,2,2,0,0,1,1.5.51,1.83,1.83,0,0,1,.48,1.36V77h-.67v-.71a2,2,0,0,1-1.68.8A1.57,1.57,0,0,1,16.14,75.63Zm3.43-.35v-.45a4.8,4.8,0,0,0-1.37-.2c-.87,0-1.36.38-1.36,1v0c0,.58.54.93,1.18.93A1.41,1.41,0,0,0,19.57,75.28Z"/><path class="cls-2" d="M21.43,72.33h.7v1.22a2,2,0,0,1,1.9-1.3V73H24a1.88,1.88,0,0,0-1.84,2.13V77h-.7Z"/><path class="cls-2" d="M25.5,76.09V77h-.69V70.41h.69v2.86a2.1,2.1,0,0,1,1.79-1,2.28,2.28,0,0,1,2.22,2.41v0a2.28,2.28,0,0,1-2.22,2.42A2.09,2.09,0,0,1,25.5,76.09Zm3.3-1.42v0a1.68,1.68,0,0,0-1.64-1.8,1.73,1.73,0,0,0-1.68,1.79v0a1.73,1.73,0,0,0,1.68,1.8A1.64,1.64,0,0,0,28.8,74.67Z"/><path class="cls-2" d="M30.23,74.68v0a2.43,2.43,0,0,1,4.85,0v0a2.42,2.42,0,0,1-2.44,2.43A2.37,2.37,0,0,1,30.23,74.68Zm4.14,0v0a1.76,1.76,0,0,0-1.73-1.82,1.72,1.72,0,0,0-1.7,1.8v0a1.75,1.75,0,0,0,1.72,1.81A1.72,1.72,0,0,0,34.37,74.68Z"/><path class="cls-2" d="M36.06,72.33h.69v.81a1.78,1.78,0,0,1,1.6-.91,1.7,1.7,0,0,1,1.78,1.87V77h-.69V74.27a1.24,1.24,0,0,0-1.29-1.41,1.38,1.38,0,0,0-1.4,1.46V77h-.69Z"/><path class="cls-2" d="M43.88,70.68h4.56v.65H44.59v2.15H48v.65H44.59v2.21h3.89V77h-4.6Z"/><path class="cls-2" d="M49.52,72.33h.7v.79a1.7,1.7,0,0,1,1.5-.89,1.57,1.57,0,0,1,1.49.93,1.87,1.87,0,0,1,1.64-.93,1.68,1.68,0,0,1,1.73,1.88V77h-.69V74.27c0-.9-.45-1.41-1.21-1.41A1.3,1.3,0,0,0,53.4,74.3V77h-.69V74.25c0-.87-.46-1.39-1.2-1.39a1.34,1.34,0,0,0-1.29,1.47V77h-.7Z"/><path class="cls-2" d="M57.83,70.55h.79v.76h-.79Zm.05,1.78h.69V77h-.69Z"/><path class="cls-2" d="M59.52,76.39l.35-.49a2.78,2.78,0,0,0,1.61.59c.56,0,1-.29,1-.74v0c0-.46-.55-.64-1.16-.81s-1.54-.46-1.54-1.32v0a1.4,1.4,0,0,1,1.58-1.33,3.24,3.24,0,0,1,1.68.51l-.32.53a2.63,2.63,0,0,0-1.38-.45c-.55,0-.9.28-.9.67v0c0,.44.58.61,1.2.8s1.49.5,1.49,1.33v0a1.46,1.46,0,0,1-1.65,1.4A3.22,3.22,0,0,1,59.52,76.39Z"/><path class="cls-2" d="M63.64,76.39,64,75.9a2.81,2.81,0,0,0,1.62.59c.55,0,1-.29,1-.74v0c0-.46-.55-.64-1.16-.81s-1.54-.46-1.54-1.32v0a1.41,1.41,0,0,1,1.58-1.33,3.24,3.24,0,0,1,1.68.51l-.32.53a2.62,2.62,0,0,0-1.37-.45c-.55,0-.9.28-.9.67v0c0,.44.57.61,1.19.8s1.5.5,1.5,1.33v0a1.47,1.47,0,0,1-1.66,1.4A3.25,3.25,0,0,1,63.64,76.39Z"/><path class="cls-2" d="M68.26,70.55h.79v.76h-.79Zm0,1.78H69V77h-.69Z"/><path class="cls-2" d="M70.05,74.68v0a2.41,2.41,0,0,1,2.43-2.43,2.39,2.39,0,0,1,2.42,2.41v0a2.41,2.41,0,0,1-2.44,2.43A2.38,2.38,0,0,1,70.05,74.68Zm4.14,0v0a1.76,1.76,0,0,0-1.73-1.82,1.72,1.72,0,0,0-1.7,1.8v0a1.75,1.75,0,0,0,1.72,1.81A1.72,1.72,0,0,0,74.19,74.68Z"/><path class="cls-2" d="M75.88,72.33h.7v.81a1.76,1.76,0,0,1,1.59-.91A1.7,1.7,0,0,1,80,74.1V77h-.69V74.27A1.24,1.24,0,0,0,78,72.86a1.37,1.37,0,0,0-1.39,1.46V77h-.7Z"/><path class="cls-2" d="M29.07,87.07l.44-.53a3,3,0,0,0,2.16.9c.84,0,1.4-.45,1.4-1.07v0c0-.59-.31-.92-1.64-1.2s-2.11-.78-2.11-1.82v0a1.86,1.86,0,0,1,2.07-1.72,3.29,3.29,0,0,1,2.21.78l-.41.55a2.77,2.77,0,0,0-1.82-.69c-.82,0-1.34.45-1.34,1v0c0,.59.32.93,1.71,1.22s2.05.82,2.05,1.79h0c0,1.08-.9,1.79-2.15,1.79A3.69,3.69,0,0,1,29.07,87.07Z"/><path class="cls-2" d="M34.5,86.63h0c0-1,.81-1.51,2-1.51a5.12,5.12,0,0,1,1.43.2v-.16c0-.84-.51-1.27-1.38-1.27a3.38,3.38,0,0,0-1.42.34l-.2-.56a3.73,3.73,0,0,1,1.69-.39,2,2,0,0,1,1.5.51,1.83,1.83,0,0,1,.48,1.36V88h-.67v-.71a2,2,0,0,1-1.68.8A1.57,1.57,0,0,1,34.5,86.63Zm3.43-.35v-.45a4.8,4.8,0,0,0-1.37-.2c-.87,0-1.36.38-1.36,1v0c0,.58.54.93,1.18.93A1.41,1.41,0,0,0,37.93,86.28Z"/><path class="cls-2" d="M39.15,83.33h.77l1.57,3.86,1.57-3.86h.75l-2,4.69h-.61Z"/><path class="cls-2" d="M44.64,81.55h.8v.76h-.8Zm0,1.78h.69V88h-.69Z"/><path class="cls-2" d="M46.72,83.33h.7v.81A1.76,1.76,0,0,1,49,83.23a1.7,1.7,0,0,1,1.78,1.87V88H50.1V85.27a1.24,1.24,0,0,0-1.29-1.41,1.37,1.37,0,0,0-1.39,1.46V88h-.7Z"/><path class="cls-2" d="M51.94,88.8l.32-.54a3,3,0,0,0,1.79.59,1.53,1.53,0,0,0,1.69-1.66v-.55a2.2,2.2,0,0,1-1.82,1,2.15,2.15,0,0,1-2.19-2.18v0a2.2,2.2,0,0,1,4-1.26v-.84h.7v3.85a2.21,2.21,0,0,1-.6,1.64,2.4,2.4,0,0,1-1.77.62A3.68,3.68,0,0,1,51.94,88.8Zm3.82-3.36v0a1.64,1.64,0,0,0-1.71-1.58,1.54,1.54,0,0,0-1.61,1.57v0A1.57,1.57,0,0,0,54.05,87,1.64,1.64,0,0,0,55.76,85.44Z"/><path class="cls-2" d="M57.32,87.39l.35-.49a2.75,2.75,0,0,0,1.61.59c.56,0,1-.29,1-.74v0c0-.46-.55-.64-1.16-.81s-1.54-.46-1.54-1.32v0a1.41,1.41,0,0,1,1.59-1.33,3.24,3.24,0,0,1,1.67.51l-.31.53a2.65,2.65,0,0,0-1.38-.45c-.55,0-.9.28-.9.67v0c0,.44.57.61,1.19.8s1.5.5,1.5,1.33v0a1.47,1.47,0,0,1-1.66,1.4A3.22,3.22,0,0,1,57.32,87.39Z"/><path class="cls-3" d="M28.88,50.75s-2.32-2.15-.57-4.33c0,0,.79-1.45,5.69-2.58a10,10,0,0,0,2.69-1.21c.87-.72,1.88-1.19,4.25-1.48a44.85,44.85,0,0,1,4.63-.31s3.9-.4,5,2.42a11.14,11.14,0,0,1,.53,3.12v1.48"/><line class="cls-3" x1="35.86" y1="51.14" x2="43.86" y2="51.14"/><ellipse class="cls-3" cx="32.51" cy="49.31" rx="2.7" ry="2.78"/><ellipse class="cls-3" cx="47.26" cy="49.31" rx="2.7" ry="2.78"/><path class="cls-2" d="M31.66,25.23a6.21,6.21,0,0,1,1.23-2.11,5.31,5.31,0,0,1,1.88-1.36,6,6,0,0,1,2.44-.48,5.73,5.73,0,0,1,1.68.23,5.49,5.49,0,0,1,1.29.6,4.7,4.7,0,0,1,.94.81,6,6,0,0,1,.63.85,3.74,3.74,0,0,1,.36.73,1.79,1.79,0,0,1,.11.44,1,1,0,0,1-.1.3.43.43,0,0,1-.43.21.66.66,0,0,1-.21,0,.31.31,0,0,1-.16-.13,3.59,3.59,0,0,1-.21-.32l-.33-.59a4.32,4.32,0,0,0-.59-.82,3.62,3.62,0,0,0-.82-.68,3.83,3.83,0,0,0-.81-.39,3.46,3.46,0,0,0-1.26-.2,6.64,6.64,0,0,0-.76.07,4.16,4.16,0,0,0-1,.27,5.45,5.45,0,0,0-1.07.59,3.83,3.83,0,0,0-1,1,5.31,5.31,0,0,0-.7,1.57A7.66,7.66,0,0,0,32.51,28,7.43,7.43,0,0,0,33,30.77a5,5,0,0,0,1.11,1.74,4.09,4.09,0,0,0,1.5.92,4.93,4.93,0,0,0,1.56.27,4.47,4.47,0,0,0,2-.45,4.1,4.1,0,0,0,1.53-1.31,3.26,3.26,0,0,0,.37-.68c.09-.23.17-.44.25-.63a2.18,2.18,0,0,1,.23-.46.41.41,0,0,1,.35-.18.66.66,0,0,1,.36.11.44.44,0,0,1,.16.38,2.13,2.13,0,0,1-.11.6,4.45,4.45,0,0,1-.35.86,5.78,5.78,0,0,1-.64,1,5.28,5.28,0,0,1-1,.89,4.93,4.93,0,0,1-1.36.67,6.73,6.73,0,0,1-4-.11,4.91,4.91,0,0,1-2.66-2.29,8.42,8.42,0,0,1-.65-1.49,7.82,7.82,0,0,1-.31-1.43A9.07,9.07,0,0,1,31.23,28,8.25,8.25,0,0,1,31.66,25.23Z"/><path class="cls-2" d="M52.54,22a5.56,5.56,0,0,1,1.86,1.7,6.5,6.5,0,0,1,.94,2.18A10.21,10.21,0,0,1,55.6,28a9.36,9.36,0,0,1-.28,2.21,6.39,6.39,0,0,1-1,2.18A5.45,5.45,0,0,1,52.49,34a5.94,5.94,0,0,1-3,.66,6.34,6.34,0,0,1-2.12-.32,5.34,5.34,0,0,1-1.59-.84,4.94,4.94,0,0,1-1.12-1.21A7.45,7.45,0,0,1,44,30.89a8,8,0,0,1-.38-1.49A10.36,10.36,0,0,1,43.5,28a9.81,9.81,0,0,1,.28-2.19,6.31,6.31,0,0,1,1-2.19,5.48,5.48,0,0,1,1.86-1.67,5.92,5.92,0,0,1,2.94-.66A6,6,0,0,1,52.54,22ZM49,22.33a4.84,4.84,0,0,0-.86.19,5.06,5.06,0,0,0-1,.47,4,4,0,0,0-1,.83,5,5,0,0,0-1,1.95A8.67,8.67,0,0,0,44.79,28c0,.19,0,.45,0,.78A6.55,6.55,0,0,0,45,29.84a6.76,6.76,0,0,0,.4,1.2,4,4,0,0,0,.72,1.12,4.13,4.13,0,0,0,1.6,1.14,4.7,4.7,0,0,0,1.82.39,4.8,4.8,0,0,0,1.85-.39A4,4,0,0,0,53,32.16,4.32,4.32,0,0,0,53.7,31a6.82,6.82,0,0,0,.41-1.2,7.84,7.84,0,0,0,.17-1.07q0-.49,0-.78a8.58,8.58,0,0,0-.05-1,7.27,7.27,0,0,0-.2-1.08,5.78,5.78,0,0,0-.41-1.09,4.9,4.9,0,0,0-.68-1A3.84,3.84,0,0,0,52,23a4.74,4.74,0,0,0-1-.46,4.93,4.93,0,0,0-.88-.2c-.27,0-.46-.05-.59-.05Z"/><path class="cls-2" d="M60.05,35.55a2.59,2.59,0,0,1,.41,0,.22.22,0,0,1,.18.24.32.32,0,0,1,0,.16.2.2,0,0,1-.09.09.28.28,0,0,1-.13,0H56.48a.32.32,0,0,1-.14,0,.27.27,0,0,1-.12-.09.3.3,0,0,1,0-.18,1,1,0,0,1,.07-.28,1.77,1.77,0,0,1,.21-.41,3.84,3.84,0,0,1,.4-.52,4.7,4.7,0,0,1,.64-.59l.87-.71.56-.47a4.39,4.39,0,0,0,.36-.32,3.58,3.58,0,0,0,.26-.29,1.89,1.89,0,0,0,.25-.39,1.4,1.4,0,0,0,.14-.66,1.48,1.48,0,0,0-.13-.61,1.25,1.25,0,0,0-.33-.45,1.37,1.37,0,0,0-.47-.27,1.68,1.68,0,0,0-.55-.1,1.82,1.82,0,0,0-.89.24,1.61,1.61,0,0,0-.37.32,1.23,1.23,0,0,0-.24.47,3.3,3.3,0,0,1-.14.42c0,.08-.1.11-.2.11a.29.29,0,0,1-.19-.06.24.24,0,0,1-.07-.2,1.57,1.57,0,0,1,.1-.51,1.73,1.73,0,0,1,.36-.58,1.93,1.93,0,0,1,.65-.48,2.19,2.19,0,0,1,1-.2,2.49,2.49,0,0,1,.82.12,1.77,1.77,0,0,1,.56.31,1.54,1.54,0,0,1,.36.41,2.57,2.57,0,0,1,.21.45,1.26,1.26,0,0,1,.1.38c0,.11,0,.19,0,.25a1.72,1.72,0,0,1-.13.68,2.73,2.73,0,0,1-.35.62,3.82,3.82,0,0,1-.52.55c-.19.18-.41.35-.63.53l-.44.33-.47.38a5.73,5.73,0,0,0-.45.39,3.22,3.22,0,0,0-.37.37,1.56,1.56,0,0,0-.2.27l-.13.24Z"/><circle class="cls-2" cx="54.12" cy="43.84" r="0.76"/><circle class="cls-2" cx="56.46" cy="41.5" r="1.1"/><circle class="cls-2" cx="60.12" cy="43.84" r="0.76"/><circle class="cls-2" cx="57.83" cy="49.31" r="1.1"/><circle class="cls-2" cx="51.86" cy="49.1" r="0.5"/><circle class="cls-2" cx="54.12" cy="50.84" r="0.76"/><circle class="cls-2" cx="53.86" cy="48.1" r="0.5"/><circle class="cls-2" cx="56.12" cy="45.84" r="0.76"/><circle class="cls-2" cx="59.86" cy="41.1" r="0.5"/><circle class="cls-2" cx="58.86" cy="46.1" r="0.5"/><circle class="cls-2" cx="61.83" cy="47.31" r="1.1"/><circle class="cls-2" cx="63.86" cy="44.1" r="0.5"/><circle class="cls-2" cx="57.86" cy="44.1" r="0.5"/><circle class="cls-2" cx="60.86" cy="50.1" r="0.5"/></svg>