<svg id="Layer_1" data-name="Layer 1" xmlns="http://www.w3.org/2000/svg" xmlns:xlink="http://www.w3.org/1999/xlink" viewBox="0 0 90 100"><defs><style>.cls-1{fill:none;}.cls-2,.cls-5{fill:#fff;stroke-miterlimit:10;}.cls-2{stroke:#74af27;}.cls-3{fill:#74af27;}.cls-4{clip-path:url(#clip-path);}.cls-5{stroke:#fff;stroke-width:1.27px;}</style><clipPath id="clip-path"><circle class="cls-1" cx="45" cy="37.74" r="28.35"/></clipPath></defs><title>EV-ProductFeatures-BatteryStorage</title><circle class="cls-2" cx="45" cy="37.74" r="28.35"/><path class="cls-3" d="M30.15,70.68h2.69a2.33,2.33,0,0,1,1.65.56,1.41,1.41,0,0,1,.4,1v0a1.52,1.52,0,0,1-1,1.46c.75.22,1.35.65,1.35,1.52v0c0,1.08-.91,1.72-2.29,1.72h-2.8Zm4,1.67c0-.62-.5-1-1.4-1H30.86v2.17h1.86c.86,0,1.45-.38,1.45-1.12Zm-1.32,1.77h-2v2.23H33c1,0,1.55-.43,1.55-1.13v0C34.52,74.52,34,74.12,32.85,74.12Z"/><path class="cls-3" d="M35.92,75.63h0c0-1,.81-1.51,2-1.51a5.26,5.26,0,0,1,1.44.2v-.16c0-.84-.52-1.27-1.39-1.27a3.33,3.33,0,0,0-1.41.34l-.21-.56A3.76,3.76,0,0,1,38,72.27a2,2,0,0,1,1.5.51A1.83,1.83,0,0,1,40,74.14V77h-.66v-.71a2,2,0,0,1-1.69.8A1.56,1.56,0,0,1,35.92,75.63Zm3.42-.35v-.45a4.78,4.78,0,0,0-1.36-.2c-.88,0-1.36.38-1.36,1v0c0,.58.54.93,1.17.93A1.41,1.41,0,0,0,39.34,75.28Z"/><path class="cls-3" d="M41.4,75.75V72.94h-.64v-.61h.64v-1.4h.7v1.4h1.47v.61H42.1v2.72a.69.69,0,0,0,.78.78,1.46,1.46,0,0,0,.68-.17v.6a1.86,1.86,0,0,1-.84.2A1.19,1.19,0,0,1,41.4,75.75Z"/><path class="cls-3" d="M44.77,75.75V72.94h-.65v-.61h.65v-1.4h.69v1.4h1.48v.61H45.46v2.72a.7.7,0,0,0,.79.78,1.42,1.42,0,0,0,.67-.17v.6a1.8,1.8,0,0,1-.84.2A1.19,1.19,0,0,1,44.77,75.75Z"/><path class="cls-3" d="M47.47,74.67v0a2.3,2.3,0,0,1,2.23-2.42,2.22,2.22,0,0,1,2.17,2.46,1.77,1.77,0,0,1,0,.23H48.17a1.63,1.63,0,0,0,1.64,1.57,1.92,1.92,0,0,0,1.47-.66l.43.39a2.4,2.4,0,0,1-1.92.87A2.31,2.31,0,0,1,47.47,74.67Zm3.7-.27a1.53,1.53,0,0,0-1.48-1.58,1.61,1.61,0,0,0-1.52,1.58Z"/><path class="cls-3" d="M52.82,72.33h.69v1.22a2,2,0,0,1,1.9-1.3V73h0a1.88,1.88,0,0,0-1.85,2.13V77h-.69Z"/><path class="cls-3" d="M59.68,72.33h.73l-1.95,4.81c-.4,1-.85,1.31-1.55,1.31a2.16,2.16,0,0,1-1-.23l.24-.55a1.4,1.4,0,0,0,.72.17c.42,0,.68-.21,1-.87l-2.12-4.64h.77l1.69,3.88Z"/><path class="cls-3" d="M28.8,87.07l.45-.53a3,3,0,0,0,2.16.9c.84,0,1.4-.45,1.4-1.07v0c0-.59-.31-.92-1.64-1.2s-2.11-.78-2.11-1.82v0a1.86,1.86,0,0,1,2.07-1.72,3.29,3.29,0,0,1,2.21.78l-.41.55a2.77,2.77,0,0,0-1.82-.69c-.82,0-1.34.45-1.34,1v0c0,.59.32.93,1.71,1.22s2.05.82,2.05,1.79h0c0,1.08-.9,1.79-2.15,1.79A3.73,3.73,0,0,1,28.8,87.07Z"/><path class="cls-3" d="M34.79,86.75V83.94h-.65v-.61h.65v-1.4h.69v1.4H37v.61H35.48v2.72a.7.7,0,0,0,.79.78,1.42,1.42,0,0,0,.67-.17v.6a1.8,1.8,0,0,1-.84.2A1.19,1.19,0,0,1,34.79,86.75Z"/><path class="cls-3" d="M37.49,85.68v0a2.41,2.41,0,0,1,2.43-2.43,2.39,2.39,0,0,1,2.42,2.41v0a2.41,2.41,0,0,1-2.44,2.43A2.38,2.38,0,0,1,37.49,85.68Zm4.14,0v0a1.76,1.76,0,0,0-1.73-1.82,1.72,1.72,0,0,0-1.7,1.8v0a1.75,1.75,0,0,0,1.72,1.81A1.72,1.72,0,0,0,41.63,85.68Z"/><path class="cls-3" d="M43.32,83.33H44v1.22a2,2,0,0,1,1.9-1.3V84h0A1.88,1.88,0,0,0,44,86.13V88h-.69Z"/><path class="cls-3" d="M46.12,86.63h0c0-1,.81-1.51,2-1.51a5.18,5.18,0,0,1,1.43.2v-.16c0-.84-.51-1.27-1.39-1.27a3.37,3.37,0,0,0-1.41.34l-.21-.56a3.8,3.8,0,0,1,1.7-.39,2,2,0,0,1,1.5.51,1.83,1.83,0,0,1,.48,1.36V88h-.67v-.71a2,2,0,0,1-1.68.8A1.56,1.56,0,0,1,46.12,86.63Zm3.43-.35v-.45a4.8,4.8,0,0,0-1.37-.2c-.87,0-1.36.38-1.36,1v0c0,.58.54.93,1.17.93A1.41,1.41,0,0,0,49.55,86.28Z"/><path class="cls-3" d="M51.36,88.8l.31-.54a3,3,0,0,0,1.79.59,1.54,1.54,0,0,0,1.7-1.66v-.55a2.22,2.22,0,0,1-1.83,1,2.15,2.15,0,0,1-2.19-2.18v0a2.2,2.2,0,0,1,4-1.26v-.84h.69v3.85a2.2,2.2,0,0,1-.59,1.64,2.44,2.44,0,0,1-1.78.62A3.65,3.65,0,0,1,51.36,88.8Zm3.82-3.36v0a1.64,1.64,0,0,0-1.72-1.58,1.54,1.54,0,0,0-1.61,1.57v0A1.57,1.57,0,0,0,53.46,87,1.64,1.64,0,0,0,55.18,85.44Z"/><path class="cls-3" d="M56.83,85.67v0a2.3,2.3,0,0,1,2.23-2.42,2.22,2.22,0,0,1,2.17,2.46,1.77,1.77,0,0,1,0,.23H57.53a1.63,1.63,0,0,0,1.64,1.57,1.92,1.92,0,0,0,1.47-.66l.43.39a2.4,2.4,0,0,1-1.92.87A2.31,2.31,0,0,1,56.83,85.67Zm3.7-.27A1.53,1.53,0,0,0,59,83.82a1.6,1.6,0,0,0-1.51,1.58Z"/><g class="cls-4"><path class="cls-1" d="M51.36,22.15H38.64a2.34,2.34,0,0,0-2.34,2.34v29a2.33,2.33,0,0,0,2.34,2.33H51.36a2.33,2.33,0,0,0,2.34-2.33v-29A2.34,2.34,0,0,0,51.36,22.15Z"/><rect class="cls-1" x="41.2" y="19.61" width="6.75" height="1.54"/><path class="cls-3" d="M51.36,21.15H49V18.61H40.2v2.54H38.64a3.35,3.35,0,0,0-3.34,3.34v29a3.34,3.34,0,0,0,3.34,3.33H51.36a3.34,3.34,0,0,0,3.34-3.33v-29A3.35,3.35,0,0,0,51.36,21.15ZM41.2,19.61H48v1.54H41.2ZM53.7,37.84V53.53a2.33,2.33,0,0,1-2.34,2.33H38.64a2.33,2.33,0,0,1-2.34-2.33v-29a2.34,2.34,0,0,1,2.34-2.34H51.36a2.34,2.34,0,0,1,2.34,2.34V37.84ZM53,48.9v4a2.18,2.18,0,0,1-2.14,2.21H39.18A2.18,2.18,0,0,1,37,52.89v-4Zm0-7H37v6.33H52.92Zm0-6.87H37.06v6.33H52.94Zm0-6.92H37.06v6.33H52.94Z"/><polygon class="cls-5" points="48.87 26.61 39.13 39.83 44.65 39.83 40.87 49.86 50.76 36.57 45.2 36.57 48.87 26.61"/><polygon class="cls-3" points="48.87 26.61 39.13 39.83 44.65 39.83 40.87 49.86 50.76 36.57 45.2 36.57 48.87 26.61"/></g></svg>