<svg id="Layer_1" data-name="Layer 1" xmlns="http://www.w3.org/2000/svg" viewBox="0 0 120 100"><defs><style>.cls-1{fill:#fff;stroke-miterlimit:10;}.cls-1,.cls-2{stroke:#74af27;}.cls-2{fill:none;stroke-linecap:round;stroke-linejoin:round;stroke-width:0.63px;}.cls-3{fill:#74af27;}</style></defs><title>EV-ProductFeatures-DevelopedForTheEVChargingIndustry</title><circle class="cls-1" cx="60.13" cy="37.74" r="28.35"/><path class="cls-2" d="M38.65,45.81s-3.58-3.31-.88-6.69c0,0,1.23-2.23,8.79-4a15.32,15.32,0,0,0,4.16-1.87c1.34-1.11,2.9-1.85,6.56-2.29a67.54,67.54,0,0,1,7.15-.48s6-.62,7.74,3.73A17.31,17.31,0,0,1,73,39.06v2.29s-.24,2,1.05,2.23c0,0,1.41.24,1.47-2.11V35s-.65-5.19,2.87-5.19h1.17"/><line class="cls-2" x1="49.43" y1="46.42" x2="61.8" y2="46.42"/><ellipse class="cls-2" cx="44.26" cy="43.59" rx="4.18" ry="4.3"/><ellipse class="cls-2" cx="67.05" cy="43.59" rx="4.18" ry="4.3"/><path class="cls-3" d="M81.51,28.17v3.15a.64.64,0,0,1-.8.56,2.1,2.1,0,0,1-2-2s-.25-1.84,2.16-2.18C80.83,27.74,81.51,27.6,81.51,28.17Z"/><path class="cls-3" d="M83,29.31a.48.48,0,0,0,.47-.48.47.47,0,0,0-.47-.48H80.92v1Z"/><path class="cls-3" d="M83,31.32a.47.47,0,0,0,.47-.48.48.48,0,0,0-.47-.48H80.92v1Z"/><path class="cls-3" d="M13.29,70.68h2.18a3.14,3.14,0,0,1,3.35,3.14h0A3.15,3.15,0,0,1,15.47,77H13.29Zm.71.66v5h1.47a2.44,2.44,0,0,0,2.61-2.48v0a2.45,2.45,0,0,0-2.61-2.49Z"/><path class="cls-3" d="M19.65,74.67v0a2.29,2.29,0,0,1,2.23-2.42,2.22,2.22,0,0,1,2.17,2.46,1.77,1.77,0,0,1,0,.23H20.35A1.63,1.63,0,0,0,22,76.49a1.92,1.92,0,0,0,1.47-.66l.43.39a2.42,2.42,0,0,1-1.92.87A2.31,2.31,0,0,1,19.65,74.67Zm3.7-.27a1.53,1.53,0,0,0-1.49-1.58,1.6,1.6,0,0,0-1.51,1.58Z"/><path class="cls-3" d="M24.31,72.33h.77l1.56,3.86,1.58-3.86H29l-2,4.69h-.61Z"/><path class="cls-3" d="M29.22,74.67v0a2.3,2.3,0,0,1,2.24-2.42,2.22,2.22,0,0,1,2.17,2.46,1.77,1.77,0,0,1,0,.23H29.93a1.63,1.63,0,0,0,1.64,1.57A1.9,1.9,0,0,0,33,75.83l.43.39a2.38,2.38,0,0,1-1.91.87A2.32,2.32,0,0,1,29.22,74.67Zm3.7-.27a1.53,1.53,0,0,0-1.48-1.58,1.6,1.6,0,0,0-1.51,1.58Z"/><path class="cls-3" d="M34.63,70.41h.7V77h-.7Z"/><path class="cls-3" d="M36.38,74.68v0a2.41,2.41,0,0,1,2.43-2.43,2.39,2.39,0,0,1,2.42,2.41v0a2.41,2.41,0,0,1-2.44,2.43A2.38,2.38,0,0,1,36.38,74.68Zm4.14,0v0a1.76,1.76,0,0,0-1.73-1.82,1.72,1.72,0,0,0-1.7,1.8v0a1.75,1.75,0,0,0,1.72,1.81A1.72,1.72,0,0,0,40.52,74.68Z"/><path class="cls-3" d="M42.21,72.33h.69v.94a2.1,2.1,0,0,1,1.79-1,2.28,2.28,0,0,1,2.22,2.41v0a2.28,2.28,0,0,1-2.22,2.42,2.1,2.1,0,0,1-1.79-1v2.34h-.69Zm4,2.34v0a1.68,1.68,0,0,0-1.64-1.8,1.74,1.74,0,0,0-1.68,1.79v0a1.73,1.73,0,0,0,1.68,1.8A1.64,1.64,0,0,0,46.2,74.67Z"/><path class="cls-3" d="M47.63,74.67v0a2.3,2.3,0,0,1,2.23-2.42A2.22,2.22,0,0,1,52,74.69a1.77,1.77,0,0,1,0,.23H48.33A1.63,1.63,0,0,0,50,76.49a1.92,1.92,0,0,0,1.47-.66l.43.39a2.42,2.42,0,0,1-1.92.87A2.31,2.31,0,0,1,47.63,74.67Zm3.7-.27a1.53,1.53,0,0,0-1.49-1.58,1.6,1.6,0,0,0-1.51,1.58Z"/><path class="cls-3" d="M52.71,74.67v0a2.28,2.28,0,0,1,2.22-2.42,2.11,2.11,0,0,1,1.78,1V70.41h.7V77h-.7v-.94a2.08,2.08,0,0,1-1.78,1A2.26,2.26,0,0,1,52.71,74.67Zm4,0v0a1.73,1.73,0,0,0-1.68-1.79,1.65,1.65,0,0,0-1.64,1.79v0a1.68,1.68,0,0,0,1.64,1.8A1.74,1.74,0,0,0,56.74,74.66Z"/><path class="cls-3" d="M61.23,70.68h4.53v.66H61.94v2.25h3.41v.65H61.94V77h-.71Z"/><path class="cls-3" d="M66.32,74.68v0a2.41,2.41,0,0,1,2.43-2.43,2.39,2.39,0,0,1,2.42,2.41v0a2.41,2.41,0,0,1-2.43,2.43A2.38,2.38,0,0,1,66.32,74.68Zm4.14,0v0a1.76,1.76,0,0,0-1.72-1.82A1.72,1.72,0,0,0,67,74.64v0a1.75,1.75,0,0,0,1.72,1.81A1.72,1.72,0,0,0,70.46,74.68Z"/><path class="cls-3" d="M72.15,72.33h.7v1.22a2,2,0,0,1,1.9-1.3V73h-.06a1.88,1.88,0,0,0-1.84,2.13V77h-.7Z"/><path class="cls-3" d="M79.74,71.34H77.63v-.66h5v.66H80.46V77h-.72Z"/><path class="cls-3" d="M83.38,70.41h.69v2.73a1.77,1.77,0,0,1,1.59-.91,1.71,1.71,0,0,1,1.79,1.87V77h-.7V74.27a1.24,1.24,0,0,0-1.28-1.41,1.37,1.37,0,0,0-1.4,1.46V77h-.69Z"/><path class="cls-3" d="M88.36,74.67v0a2.3,2.3,0,0,1,2.24-2.42,2.22,2.22,0,0,1,2.17,2.46,1.77,1.77,0,0,1,0,.23H89.07a1.62,1.62,0,0,0,1.63,1.57,1.92,1.92,0,0,0,1.47-.66l.43.39a2.4,2.4,0,0,1-1.91.87A2.32,2.32,0,0,1,88.36,74.67Zm3.7-.27a1.53,1.53,0,0,0-1.48-1.58,1.6,1.6,0,0,0-1.51,1.58Z"/><path class="cls-3" d="M96.26,70.68h4.55v.65H97v2.15h3.44v.65H97v2.21h3.89V77h-4.6Z"/><path class="cls-3" d="M101.48,70.68h.79l2.24,5.43,2.25-5.43h.77L104.82,77h-.63Z"/><path class="cls-3" d="M21.65,84.85v0a3.17,3.17,0,0,1,3.18-3.25,3.25,3.25,0,0,1,2.46,1l-.48.52a2.73,2.73,0,0,0-2-.87,2.47,2.47,0,0,0-2.44,2.59h0a2.49,2.49,0,0,0,2.44,2.61,2.75,2.75,0,0,0,2-.91l.47.46a3.31,3.31,0,0,1-2.52,1.1A3.14,3.14,0,0,1,21.65,84.85Z"/><path class="cls-3" d="M28.18,81.41h.7v2.73a1.76,1.76,0,0,1,1.59-.91,1.7,1.7,0,0,1,1.78,1.87V88h-.69V85.27a1.24,1.24,0,0,0-1.29-1.41,1.37,1.37,0,0,0-1.39,1.46V88h-.7Z"/><path class="cls-3" d="M33.1,86.63h0c0-1,.81-1.51,2-1.51a5.26,5.26,0,0,1,1.44.2v-.16c0-.84-.52-1.27-1.39-1.27a3.33,3.33,0,0,0-1.41.34l-.21-.56a3.76,3.76,0,0,1,1.69-.39,2,2,0,0,1,1.5.51,1.83,1.83,0,0,1,.48,1.36V88h-.66v-.71a2,2,0,0,1-1.69.8A1.57,1.57,0,0,1,33.1,86.63Zm3.43-.35v-.45a4.78,4.78,0,0,0-1.36-.2c-.88,0-1.36.38-1.36,1v0c0,.58.54.93,1.17.93A1.41,1.41,0,0,0,36.53,86.28Z"/><path class="cls-3" d="M38.4,83.33h.69v1.22a2,2,0,0,1,1.9-1.3V84h-.05a1.88,1.88,0,0,0-1.85,2.13V88H38.4Z"/><path class="cls-3" d="M41.53,88.8l.31-.54a3,3,0,0,0,1.79.59,1.54,1.54,0,0,0,1.7-1.66v-.55a2.22,2.22,0,0,1-1.83,1,2.15,2.15,0,0,1-2.19-2.18v0a2.2,2.2,0,0,1,4-1.26v-.84H46v3.85a2.24,2.24,0,0,1-.59,1.64,2.44,2.44,0,0,1-1.78.62A3.65,3.65,0,0,1,41.53,88.8Zm3.82-3.36v0a1.64,1.64,0,0,0-1.72-1.58A1.54,1.54,0,0,0,42,85.41v0A1.57,1.57,0,0,0,43.63,87,1.64,1.64,0,0,0,45.35,85.44Z"/><path class="cls-3" d="M47.31,81.55h.79v.76h-.79Zm0,1.78H48V88h-.69Z"/><path class="cls-3" d="M49.38,83.33h.7v.81a1.76,1.76,0,0,1,1.59-.91,1.7,1.7,0,0,1,1.78,1.87V88h-.69V85.27a1.24,1.24,0,0,0-1.29-1.41,1.37,1.37,0,0,0-1.39,1.46V88h-.7Z"/><path class="cls-3" d="M54.61,88.8l.31-.54a3,3,0,0,0,1.79.59,1.53,1.53,0,0,0,1.69-1.66v-.55a2.2,2.2,0,0,1-1.82,1,2.15,2.15,0,0,1-2.19-2.18v0a2.2,2.2,0,0,1,4-1.26v-.84h.7v3.85a2.21,2.21,0,0,1-.6,1.64,2.4,2.4,0,0,1-1.77.62A3.65,3.65,0,0,1,54.61,88.8Zm3.81-3.36v0a1.64,1.64,0,0,0-1.71-1.58,1.54,1.54,0,0,0-1.61,1.57v0A1.57,1.57,0,0,0,56.71,87,1.64,1.64,0,0,0,58.42,85.44Z"/><path class="cls-3" d="M63,81.68h.72V88H63Z"/><path class="cls-3" d="M65.14,83.33h.7v.81a1.76,1.76,0,0,1,1.59-.91,1.7,1.7,0,0,1,1.78,1.87V88h-.69V85.27a1.24,1.24,0,0,0-1.29-1.41,1.37,1.37,0,0,0-1.39,1.46V88h-.7Z"/><path class="cls-3" d="M70.15,85.67v0a2.28,2.28,0,0,1,2.22-2.42,2.09,2.09,0,0,1,1.78,1V81.41h.7V88h-.7v-.94a2.06,2.06,0,0,1-1.78,1A2.26,2.26,0,0,1,70.15,85.67Zm4,0v0a1.73,1.73,0,0,0-1.68-1.79,1.65,1.65,0,0,0-1.64,1.79v0a1.68,1.68,0,0,0,1.64,1.8A1.74,1.74,0,0,0,74.18,85.66Z"/><path class="cls-3" d="M76.05,86.22V83.33h.69v2.72A1.25,1.25,0,0,0,78,87.46,1.38,1.38,0,0,0,79.43,86V83.33h.68V88h-.68v-.81a1.79,1.79,0,0,1-1.6.9A1.7,1.7,0,0,1,76.05,86.22Z"/><path class="cls-3" d="M81,87.39l.35-.49a2.78,2.78,0,0,0,1.61.59c.56,0,1-.29,1-.74v0c0-.46-.55-.64-1.16-.81s-1.54-.46-1.54-1.32v0a1.4,1.4,0,0,1,1.58-1.33,3.18,3.18,0,0,1,1.67.51l-.31.53a2.63,2.63,0,0,0-1.38-.45c-.55,0-.9.28-.9.67v0c0,.44.58.61,1.2.8s1.49.5,1.49,1.33v0a1.47,1.47,0,0,1-1.65,1.4A3.22,3.22,0,0,1,81,87.39Z"/><path class="cls-3" d="M85.76,86.75V83.94h-.65v-.61h.65v-1.4h.7v1.4h1.47v.61H86.46v2.72a.69.69,0,0,0,.78.78,1.42,1.42,0,0,0,.67-.17v.6a1.79,1.79,0,0,1-.83.2A1.19,1.19,0,0,1,85.76,86.75Z"/><path class="cls-3" d="M88.88,83.33h.7v1.22a2,2,0,0,1,1.9-1.3V84h-.06a1.88,1.88,0,0,0-1.84,2.13V88h-.7Z"/><path class="cls-3" d="M95.74,83.33h.74l-2,4.81c-.4,1-.85,1.31-1.55,1.31a2.13,2.13,0,0,1-1-.23l.23-.55a1.46,1.46,0,0,0,.73.17c.42,0,.68-.21,1-.87l-2.12-4.64h.77l1.69,3.88Z"/></svg>