<svg id="Layer_1" data-name="Layer 1" xmlns="http://www.w3.org/2000/svg" viewBox="0 0 90 100"><defs><style>.cls-1{fill:#fff;}.cls-1,.cls-3,.cls-4{stroke:#74af27;stroke-miterlimit:10;}.cls-2{fill:#74af27;}.cls-3,.cls-4{fill:none;}.cls-3{stroke-width:0.95px;}</style></defs><title>EV-ProductFeatures-SecureLock-awayChargingSocket</title><circle class="cls-1" cx="45" cy="37.74" r="28.35"/><path class="cls-2" d="M6,76.07l.44-.53a3,3,0,0,0,2.16.9c.85,0,1.4-.45,1.4-1.07v0c0-.59-.31-.92-1.63-1.2s-2.12-.78-2.12-1.82v0a1.86,1.86,0,0,1,2.07-1.72,3.32,3.32,0,0,1,2.22.78l-.42.55a2.75,2.75,0,0,0-1.82-.69c-.82,0-1.34.45-1.34,1v0c0,.59.33.93,1.71,1.22s2,.82,2,1.79h0c0,1.08-.9,1.79-2.15,1.79A3.69,3.69,0,0,1,6,76.07Z"/><path class="cls-2" d="M11.46,74.67v0a2.29,2.29,0,0,1,2.23-2.42,2.22,2.22,0,0,1,2.17,2.46,1.77,1.77,0,0,1,0,.23H12.16a1.63,1.63,0,0,0,1.64,1.57,1.92,1.92,0,0,0,1.47-.66l.43.39a2.42,2.42,0,0,1-1.92.87A2.31,2.31,0,0,1,11.46,74.67Zm3.7-.27a1.54,1.54,0,0,0-1.49-1.58,1.6,1.6,0,0,0-1.51,1.58Z"/><path class="cls-2" d="M16.52,74.68v0a2.42,2.42,0,0,1,4.24-1.6l-.45.49a1.89,1.89,0,0,0-1.42-.71,1.72,1.72,0,0,0-1.66,1.8v0a1.73,1.73,0,0,0,1.71,1.81,1.91,1.91,0,0,0,1.42-.69l.44.41a2.4,2.4,0,0,1-4.28-1.51Z"/><path class="cls-2" d="M21.6,75.22V72.33h.69v2.72a1.25,1.25,0,0,0,1.29,1.41A1.38,1.38,0,0,0,25,75V72.33h.68V77H25v-.81a1.79,1.79,0,0,1-1.6.9A1.7,1.7,0,0,1,21.6,75.22Z"/><path class="cls-2" d="M27,72.33h.69v1.22a2,2,0,0,1,1.9-1.3V73h-.06a1.88,1.88,0,0,0-1.84,2.13V77H27Z"/><path class="cls-2" d="M29.84,74.67v0a2.29,2.29,0,0,1,2.23-2.42,2.22,2.22,0,0,1,2.17,2.46,1.77,1.77,0,0,1,0,.23H30.54a1.63,1.63,0,0,0,1.64,1.57,1.9,1.9,0,0,0,1.46-.66l.44.39a2.42,2.42,0,0,1-1.92.87A2.31,2.31,0,0,1,29.84,74.67Zm3.7-.27a1.54,1.54,0,0,0-1.49-1.58,1.6,1.6,0,0,0-1.51,1.58Z"/><path class="cls-2" d="M34.73,77.77c.45-.16.64-.4.6-.78H35V76h.83v.81a1.1,1.1,0,0,1-1,1.23Z"/><path class="cls-2" d="M39.57,70.68h.71v5.65h3.55V77H39.57Z"/><path class="cls-2" d="M44.38,74.68v0a2.41,2.41,0,0,1,2.43-2.43,2.39,2.39,0,0,1,2.42,2.41v0a2.41,2.41,0,0,1-2.44,2.43A2.38,2.38,0,0,1,44.38,74.68Zm4.14,0v0a1.76,1.76,0,0,0-1.73-1.82,1.72,1.72,0,0,0-1.7,1.8v0a1.75,1.75,0,0,0,1.72,1.81A1.72,1.72,0,0,0,48.52,74.68Z"/><path class="cls-2" d="M49.92,74.68v0a2.42,2.42,0,0,1,4.25-1.6l-.46.49a1.87,1.87,0,0,0-1.41-.71,1.72,1.72,0,0,0-1.67,1.8v0a1.74,1.74,0,0,0,1.71,1.81,1.91,1.91,0,0,0,1.43-.69l.44.41a2.41,2.41,0,0,1-4.29-1.51Z"/><path class="cls-2" d="M55.08,70.41h.69V75l2.51-2.62h.87l-1.95,2,2,2.66h-.83l-1.66-2.17-.95,1V77h-.69Z"/><path class="cls-2" d="M59.56,73.92h2.5v.72h-2.5Z"/><path class="cls-2" d="M62.8,75.63h0c0-1,.81-1.51,2-1.51a5.12,5.12,0,0,1,1.43.2v-.16c0-.84-.51-1.27-1.38-1.27a3.41,3.41,0,0,0-1.42.34l-.2-.56a3.73,3.73,0,0,1,1.69-.39,2,2,0,0,1,1.5.51,1.83,1.83,0,0,1,.48,1.36V77h-.67v-.71a2,2,0,0,1-1.68.8A1.57,1.57,0,0,1,62.8,75.63Zm3.43-.35v-.45a4.8,4.8,0,0,0-1.37-.2c-.87,0-1.36.38-1.36,1v0c0,.58.54.93,1.18.93A1.41,1.41,0,0,0,66.23,75.28Z"/><path class="cls-2" d="M67.52,72.33h.74l1.22,3.74,1.25-3.76h.58l1.26,3.76,1.22-3.74h.72L72.88,77h-.61L71,73.35,69.76,77h-.61Z"/><path class="cls-2" d="M74.86,75.63h0c0-1,.81-1.51,2-1.51a5.12,5.12,0,0,1,1.43.2v-.16c0-.84-.51-1.27-1.38-1.27a3.41,3.41,0,0,0-1.42.34l-.2-.56A3.73,3.73,0,0,1,77,72.27a2,2,0,0,1,1.5.51A1.83,1.83,0,0,1,79,74.14V77h-.67v-.71a2,2,0,0,1-1.68.8A1.57,1.57,0,0,1,74.86,75.63Zm3.43-.35v-.45a4.8,4.8,0,0,0-1.37-.2c-.87,0-1.36.38-1.36,1v0c0,.58.54.93,1.18.93A1.41,1.41,0,0,0,78.29,75.28Z"/><path class="cls-2" d="M83.46,72.33h.74l-2,4.81c-.39,1-.84,1.31-1.54,1.31a2.13,2.13,0,0,1-1-.23l.23-.55a1.41,1.41,0,0,0,.73.17c.41,0,.67-.21,1-.87l-2.11-4.64h.76L82,76.21Z"/><path class="cls-2" d="M10.51,84.85v0a3.17,3.17,0,0,1,3.19-3.25,3.25,3.25,0,0,1,2.45,1l-.48.52a2.73,2.73,0,0,0-2-.87,2.47,2.47,0,0,0-2.44,2.59h0a2.49,2.49,0,0,0,2.44,2.61,2.75,2.75,0,0,0,2-.91l.47.46a3.31,3.31,0,0,1-2.52,1.1A3.14,3.14,0,0,1,10.51,84.85Z"/><path class="cls-2" d="M17,81.41h.7v2.73a1.76,1.76,0,0,1,1.59-.91,1.7,1.7,0,0,1,1.78,1.87V88h-.69V85.27a1.24,1.24,0,0,0-1.29-1.41,1.37,1.37,0,0,0-1.39,1.46V88H17Z"/><path class="cls-2" d="M22,86.63h0c0-1,.81-1.51,2-1.51a5.26,5.26,0,0,1,1.44.2v-.16c0-.84-.52-1.27-1.39-1.27a3.33,3.33,0,0,0-1.41.34l-.21-.56a3.76,3.76,0,0,1,1.69-.39,2.07,2.07,0,0,1,1.51.51,1.87,1.87,0,0,1,.47,1.36V88h-.66v-.71a2,2,0,0,1-1.69.8A1.56,1.56,0,0,1,22,86.63Zm3.43-.35v-.45a4.91,4.91,0,0,0-1.37-.2c-.88,0-1.36.38-1.36,1v0c0,.58.54.93,1.17.93A1.42,1.42,0,0,0,25.4,86.28Z"/><path class="cls-2" d="M27.26,83.33H28v1.22a2,2,0,0,1,1.9-1.3V84H29.8A1.88,1.88,0,0,0,28,86.13V88h-.69Z"/><path class="cls-2" d="M30.39,88.8l.31-.54a3.05,3.05,0,0,0,1.8.59,1.53,1.53,0,0,0,1.69-1.66v-.55a2.22,2.22,0,0,1-1.83,1,2.15,2.15,0,0,1-2.19-2.18v0a2.2,2.2,0,0,1,4-1.26v-.84h.69v3.85a2.2,2.2,0,0,1-.59,1.64,2.44,2.44,0,0,1-1.78.62A3.65,3.65,0,0,1,30.39,88.8Zm3.82-3.36v0a1.64,1.64,0,0,0-1.71-1.58,1.55,1.55,0,0,0-1.62,1.57v0A1.57,1.57,0,0,0,32.5,87,1.64,1.64,0,0,0,34.21,85.44Z"/><path class="cls-2" d="M36.17,81.55H37v.76h-.79Zm0,1.78h.7V88h-.7Z"/><path class="cls-2" d="M38.25,83.33h.69v.81a1.77,1.77,0,0,1,1.59-.91,1.7,1.7,0,0,1,1.78,1.87V88h-.69V85.27a1.24,1.24,0,0,0-1.29-1.41,1.37,1.37,0,0,0-1.39,1.46V88h-.69Z"/><path class="cls-2" d="M43.47,88.8l.31-.54a3,3,0,0,0,1.79.59,1.54,1.54,0,0,0,1.7-1.66v-.55a2.23,2.23,0,0,1-1.83,1,2.15,2.15,0,0,1-2.19-2.18v0a2.2,2.2,0,0,1,4-1.26v-.84H48v3.85a2.21,2.21,0,0,1-.6,1.64,2.4,2.4,0,0,1-1.77.62A3.65,3.65,0,0,1,43.47,88.8Zm3.81-3.36v0a1.64,1.64,0,0,0-1.71-1.58A1.54,1.54,0,0,0,44,85.41v0A1.57,1.57,0,0,0,45.57,87,1.64,1.64,0,0,0,47.28,85.44Z"/><path class="cls-2" d="M51.36,87.07l.44-.53a3,3,0,0,0,2.16.9c.85,0,1.4-.45,1.4-1.07v0c0-.59-.31-.92-1.63-1.2s-2.12-.78-2.12-1.82v0a1.86,1.86,0,0,1,2.07-1.72,3.32,3.32,0,0,1,2.22.78l-.42.55a2.75,2.75,0,0,0-1.82-.69c-.82,0-1.34.45-1.34,1v0c0,.59.33.93,1.71,1.22s2,.82,2,1.79h0c0,1.08-.9,1.79-2.15,1.79A3.69,3.69,0,0,1,51.36,87.07Z"/><path class="cls-2" d="M56.86,85.68v0a2.43,2.43,0,0,1,4.85,0v0a2.42,2.42,0,0,1-2.44,2.43A2.37,2.37,0,0,1,56.86,85.68Zm4.14,0v0a1.76,1.76,0,0,0-1.73-1.82,1.72,1.72,0,0,0-1.7,1.8v0a1.75,1.75,0,0,0,1.72,1.81A1.72,1.72,0,0,0,61,85.68Z"/><path class="cls-2" d="M62.4,85.68v0a2.42,2.42,0,0,1,4.25-1.6l-.46.49a1.87,1.87,0,0,0-1.41-.71,1.72,1.72,0,0,0-1.67,1.8v0a1.74,1.74,0,0,0,1.71,1.81,1.91,1.91,0,0,0,1.43-.69l.44.41a2.41,2.41,0,0,1-4.29-1.51Z"/><path class="cls-2" d="M67.56,81.41h.69V86l2.51-2.62h.87l-2,2,2,2.66h-.83L69.2,85.82l-1,1V88h-.69Z"/><path class="cls-2" d="M71.9,85.67v0a2.29,2.29,0,0,1,2.23-2.42,2.22,2.22,0,0,1,2.17,2.46,1.77,1.77,0,0,1,0,.23H72.6a1.63,1.63,0,0,0,1.64,1.57,1.92,1.92,0,0,0,1.47-.66l.43.39a2.42,2.42,0,0,1-1.92.87A2.31,2.31,0,0,1,71.9,85.67Zm3.7-.27a1.54,1.54,0,0,0-1.49-1.58A1.6,1.6,0,0,0,72.6,85.4Z"/><path class="cls-2" d="M77.49,86.75V83.94h-.65v-.61h.65v-1.4h.69v1.4h1.48v.61H78.18v2.72a.69.69,0,0,0,.78.78,1.46,1.46,0,0,0,.68-.17v.6a1.86,1.86,0,0,1-.84.2A1.18,1.18,0,0,1,77.49,86.75Z"/><path class="cls-3" d="M44.76,24.27c3.05,0,5.28,2.79,5.3,7.37h3.7c0-6.67-4-11-9-11s-9,4.36-9,11h3.83C39.61,27.06,41.7,24.27,44.76,24.27Z"/><path class="cls-4" d="M57.15,35.85A4.21,4.21,0,0,0,53,31.64H37.05a4.21,4.21,0,0,0-4.2,4.21V49.3a4.21,4.21,0,0,0,4.2,4.21H53a4.21,4.21,0,0,0,4.2-4.21ZM46.76,44.14v4.53a1.84,1.84,0,0,1-3.67,0V44.14A4.08,4.08,0,0,1,41,40.77,3.77,3.77,0,0,1,44.79,37a3.89,3.89,0,0,1,3.91,3.77A4.33,4.33,0,0,1,46.76,44.14Z"/></svg>