<svg id="Layer_1" data-name="Layer 1" xmlns="http://www.w3.org/2000/svg" viewBox="0 0 90 100"><defs><style>.cls-1{fill:#fff;stroke-miterlimit:10;}.cls-1,.cls-3,.cls-4{stroke:#74af27;}.cls-2{fill:#74af27;}.cls-3,.cls-4{fill:none;stroke-linecap:round;stroke-linejoin:round;}.cls-3{stroke-width:2px;}.cls-4{stroke-width:1.31px;}</style></defs><title>EV-ProductFeatures-LEDAmenityLighting</title><circle class="cls-1" cx="45" cy="37.74" r="28.35"/><path class="cls-2" d="M17.64,70.68h.71v5.65H21.9V77H17.64Z"/><path class="cls-2" d="M22.94,70.68H27.5v.65H23.65v2.15h3.44v.65H23.65v2.21h3.89V77h-4.6Z"/><path class="cls-2" d="M28.7,70.68h2.19a3.14,3.14,0,0,1,3.35,3.14h0A3.16,3.16,0,0,1,30.89,77H28.7Zm.71.66v5h1.48a2.44,2.44,0,0,0,2.61-2.48v0a2.45,2.45,0,0,0-2.61-2.49Z"/><path class="cls-2" d="M40.23,70.64h.67L43.77,77H43l-.73-1.67H38.84L38.09,77h-.73Zm1.76,4-1.44-3.2-1.44,3.2Z"/><path class="cls-2" d="M44.62,72.33h.69v.79a1.72,1.72,0,0,1,1.51-.89,1.58,1.58,0,0,1,1.49.93A1.87,1.87,0,0,1,50,72.23a1.68,1.68,0,0,1,1.73,1.88V77H51V74.27c0-.9-.45-1.41-1.21-1.41A1.3,1.3,0,0,0,48.5,74.3V77h-.69V74.25c0-.87-.46-1.39-1.2-1.39a1.35,1.35,0,0,0-1.3,1.47V77h-.69Z"/><path class="cls-2" d="M52.62,74.67v0a2.3,2.3,0,0,1,2.24-2.42A2.22,2.22,0,0,1,57,74.69a1.77,1.77,0,0,1,0,.23H53.33A1.61,1.61,0,0,0,55,76.49a1.92,1.92,0,0,0,1.47-.66l.43.39a2.4,2.4,0,0,1-1.91.87A2.32,2.32,0,0,1,52.62,74.67Zm3.7-.27a1.53,1.53,0,0,0-1.48-1.58,1.6,1.6,0,0,0-1.51,1.58Z"/><path class="cls-2" d="M58,72.33h.69v.81a1.79,1.79,0,0,1,1.6-.91A1.7,1.7,0,0,1,62,74.1V77h-.69V74.27a1.24,1.24,0,0,0-1.29-1.41,1.38,1.38,0,0,0-1.4,1.46V77H58Z"/><path class="cls-2" d="M63.26,70.55h.79v.76h-.79Zm.05,1.78H64V77h-.69Z"/><path class="cls-2" d="M65.58,75.75V72.94h-.65v-.61h.65v-1.4h.7v1.4h1.47v.61H66.28v2.72a.69.69,0,0,0,.78.78,1.42,1.42,0,0,0,.67-.17v.6a1.79,1.79,0,0,1-.83.2A1.19,1.19,0,0,1,65.58,75.75Z"/><path class="cls-2" d="M72.19,72.33h.74l-2,4.81c-.39,1-.84,1.31-1.54,1.31a2.13,2.13,0,0,1-1-.23l.23-.55a1.41,1.41,0,0,0,.73.17c.41,0,.67-.21.95-.87l-2.11-4.64H69l1.7,3.88Z"/><path class="cls-2" d="M28.35,81.68h.71v5.65H32.6V88H28.35Z"/><path class="cls-2" d="M33.55,81.55h.79v.76h-.79Zm0,1.78h.7V88h-.7Z"/><path class="cls-2" d="M35.57,88.8l.32-.54a3,3,0,0,0,1.79.59,1.53,1.53,0,0,0,1.69-1.66v-.55a2.2,2.2,0,0,1-1.83,1,2.15,2.15,0,0,1-2.18-2.18v0a2.2,2.2,0,0,1,4-1.26v-.84h.7v3.85a2.21,2.21,0,0,1-.6,1.64,2.4,2.4,0,0,1-1.77.62A3.66,3.66,0,0,1,35.57,88.8Zm3.82-3.36v0a1.64,1.64,0,0,0-1.71-1.58,1.54,1.54,0,0,0-1.61,1.57v0A1.56,1.56,0,0,0,37.68,87,1.64,1.64,0,0,0,39.39,85.44Z"/><path class="cls-2" d="M41.33,81.41H42v2.73a1.76,1.76,0,0,1,1.59-.91A1.7,1.7,0,0,1,45.4,85.1V88h-.69V85.27a1.24,1.24,0,0,0-1.29-1.41A1.37,1.37,0,0,0,42,85.32V88h-.7Z"/><path class="cls-2" d="M46.85,86.75V83.94H46.2v-.61h.65v-1.4h.69v1.4H49v.61H47.54v2.72a.7.7,0,0,0,.79.78,1.42,1.42,0,0,0,.67-.17v.6a1.8,1.8,0,0,1-.84.2A1.19,1.19,0,0,1,46.85,86.75Z"/><path class="cls-2" d="M50,81.55h.79v.76H50Zm0,1.78h.69V88H50Z"/><path class="cls-2" d="M52.07,83.33h.69v.81a1.78,1.78,0,0,1,1.6-.91,1.7,1.7,0,0,1,1.78,1.87V88h-.69V85.27a1.24,1.24,0,0,0-1.29-1.41,1.38,1.38,0,0,0-1.4,1.46V88h-.69Z"/><path class="cls-2" d="M57.29,88.8l.31-.54a3,3,0,0,0,1.8.59,1.53,1.53,0,0,0,1.69-1.66v-.55a2.22,2.22,0,0,1-1.83,1,2.15,2.15,0,0,1-2.19-2.18v0a2.2,2.2,0,0,1,4-1.26v-.84h.69v3.85a2.2,2.2,0,0,1-.59,1.64,2.44,2.44,0,0,1-1.78.62A3.65,3.65,0,0,1,57.29,88.8Zm3.82-3.36v0a1.64,1.64,0,0,0-1.71-1.58,1.55,1.55,0,0,0-1.62,1.57v0A1.57,1.57,0,0,0,59.4,87,1.64,1.64,0,0,0,61.11,85.44Z"/><line class="cls-3" x1="54.06" y1="48.51" x2="35.88" y2="48.51"/><line class="cls-3" x1="42.05" y1="56" x2="42.05" y2="43.46"/><line class="cls-3" x1="47.63" y1="56" x2="47.63" y2="43.46"/><path class="cls-3" d="M37.78,48.51V37.61s-.46-8.07,7-8.07c0,0,7-.77,7.14,8.21V48.51"/><line class="cls-4" x1="44.82" y1="24.81" x2="44.82" y2="18.71"/><line class="cls-4" x1="53.26" y1="28.71" x2="57.44" y2="24.26"/><line class="cls-4" x1="32.43" y1="24.2" x2="36.48" y2="28.77"/><line class="cls-4" x1="29.58" y1="30.79" x2="33.98" y2="32.82"/><line class="cls-4" x1="55.97" y1="32.76" x2="60.42" y2="30.85"/><line class="cls-4" x1="49.52" y1="25.83" x2="51.35" y2="21.35"/><line class="cls-4" x1="40.52" y1="25.84" x2="38.74" y2="21.34"/></svg>