<svg id="Layer_1" data-name="Layer 1" xmlns="http://www.w3.org/2000/svg" viewBox="0 0 90 100"><defs><style>.cls-1,.cls-6{fill:#fff;}.cls-1,.cls-3,.cls-4,.cls-5,.cls-6,.cls-7{stroke:#74af27;}.cls-1,.cls-3,.cls-4,.cls-5{stroke-miterlimit:10;}.cls-2{fill:#74af27;}.cls-3,.cls-4,.cls-5,.cls-7{fill:none;}.cls-3{stroke-width:0.7px;}.cls-4{stroke-width:0.35px;}.cls-5,.cls-6,.cls-7{stroke-width:0.76px;}.cls-6,.cls-7{stroke-linejoin:round;}</style></defs><title>EV-ProductFeatures-LockAwayChargingSocket-SecuriCharge</title><circle class="cls-1" cx="45" cy="37.74" r="28.35"/><path class="cls-2" d="M22.55,70.68h.71v5.65H26.8V77H22.55Z"/><path class="cls-2" d="M27.35,74.68v0a2.41,2.41,0,0,1,2.43-2.43,2.39,2.39,0,0,1,2.42,2.41v0a2.41,2.41,0,0,1-2.44,2.43A2.38,2.38,0,0,1,27.35,74.68Zm4.14,0v0a1.76,1.76,0,0,0-1.73-1.82,1.72,1.72,0,0,0-1.7,1.8v0a1.75,1.75,0,0,0,1.72,1.81A1.72,1.72,0,0,0,31.49,74.68Z"/><path class="cls-2" d="M32.9,74.68v0a2.42,2.42,0,0,1,4.24-1.6l-.45.49a1.89,1.89,0,0,0-1.42-.71,1.72,1.72,0,0,0-1.66,1.8v0a1.73,1.73,0,0,0,1.71,1.81,1.91,1.91,0,0,0,1.42-.69l.44.41a2.4,2.4,0,0,1-4.28-1.51Z"/><path class="cls-2" d="M38.05,70.41h.7V75l2.51-2.62h.86l-1.95,2,2,2.66h-.82l-1.67-2.17-.94,1V77h-.7Z"/><path class="cls-2" d="M47.78,70.64h.67L51.32,77h-.77l-.73-1.67H46.39L45.64,77h-.73Zm1.76,4-1.43-3.2-1.44,3.2Z"/><path class="cls-2" d="M51.34,72.33h.74l1.23,3.74,1.25-3.76h.58l1.26,3.76,1.22-3.74h.72L56.7,77h-.6l-1.25-3.67L53.59,77H53Z"/><path class="cls-2" d="M58.69,75.63h0c0-1,.81-1.51,2-1.51a5.18,5.18,0,0,1,1.43.2v-.16c0-.84-.51-1.27-1.39-1.27a3.33,3.33,0,0,0-1.41.34l-.21-.56a3.8,3.8,0,0,1,1.7-.39,2,2,0,0,1,1.5.51,1.88,1.88,0,0,1,.48,1.36V77h-.67v-.71a2,2,0,0,1-1.68.8A1.56,1.56,0,0,1,58.69,75.63Zm3.43-.35v-.45a4.8,4.8,0,0,0-1.37-.2c-.87,0-1.36.38-1.36,1v0c0,.58.54.93,1.17.93A1.41,1.41,0,0,0,62.12,75.28Z"/><path class="cls-2" d="M67.29,72.33H68l-2,4.81c-.4,1-.85,1.31-1.55,1.31a2.16,2.16,0,0,1-1-.23l.24-.55a1.4,1.4,0,0,0,.72.17c.42,0,.68-.21,1-.87l-2.12-4.64h.77l1.69,3.88Z"/><path class="cls-2" d="M10.51,84.85v0a3.17,3.17,0,0,1,3.19-3.25,3.25,3.25,0,0,1,2.45,1l-.48.52a2.73,2.73,0,0,0-2-.87,2.47,2.47,0,0,0-2.44,2.59h0a2.49,2.49,0,0,0,2.44,2.61,2.75,2.75,0,0,0,2-.91l.47.46a3.31,3.31,0,0,1-2.52,1.1A3.14,3.14,0,0,1,10.51,84.85Z"/><path class="cls-2" d="M17,81.41h.7v2.73a1.76,1.76,0,0,1,1.59-.91,1.7,1.7,0,0,1,1.78,1.87V88h-.69V85.27a1.24,1.24,0,0,0-1.29-1.41,1.37,1.37,0,0,0-1.39,1.46V88H17Z"/><path class="cls-2" d="M22,86.63h0c0-1,.81-1.51,2-1.51a5.26,5.26,0,0,1,1.44.2v-.16c0-.84-.52-1.27-1.39-1.27a3.33,3.33,0,0,0-1.41.34l-.21-.56a3.76,3.76,0,0,1,1.69-.39,2.07,2.07,0,0,1,1.51.51,1.87,1.87,0,0,1,.47,1.36V88h-.66v-.71a2,2,0,0,1-1.69.8A1.56,1.56,0,0,1,22,86.63Zm3.43-.35v-.45a4.91,4.91,0,0,0-1.37-.2c-.88,0-1.36.38-1.36,1v0c0,.58.54.93,1.17.93A1.42,1.42,0,0,0,25.4,86.28Z"/><path class="cls-2" d="M27.26,83.33H28v1.22a2,2,0,0,1,1.9-1.3V84H29.8A1.88,1.88,0,0,0,28,86.13V88h-.69Z"/><path class="cls-2" d="M30.39,88.8l.31-.54a3.05,3.05,0,0,0,1.8.59,1.53,1.53,0,0,0,1.69-1.66v-.55a2.22,2.22,0,0,1-1.83,1,2.15,2.15,0,0,1-2.19-2.18v0a2.2,2.2,0,0,1,4-1.26v-.84h.69v3.85a2.2,2.2,0,0,1-.59,1.64,2.44,2.44,0,0,1-1.78.62A3.65,3.65,0,0,1,30.39,88.8Zm3.82-3.36v0a1.64,1.64,0,0,0-1.71-1.58,1.55,1.55,0,0,0-1.62,1.57v0A1.57,1.57,0,0,0,32.5,87,1.64,1.64,0,0,0,34.21,85.44Z"/><path class="cls-2" d="M36.17,81.55H37v.76h-.79Zm0,1.78h.69V88h-.69Z"/><path class="cls-2" d="M38.25,83.33h.69v.81a1.77,1.77,0,0,1,1.59-.91,1.7,1.7,0,0,1,1.78,1.87V88h-.69V85.27a1.24,1.24,0,0,0-1.29-1.41,1.37,1.37,0,0,0-1.39,1.46V88h-.69Z"/><path class="cls-2" d="M43.47,88.8l.31-.54a3,3,0,0,0,1.79.59,1.54,1.54,0,0,0,1.7-1.66v-.55a2.23,2.23,0,0,1-1.83,1,2.15,2.15,0,0,1-2.19-2.18v0a2.2,2.2,0,0,1,4-1.26v-.84H48v3.85a2.21,2.21,0,0,1-.6,1.64,2.4,2.4,0,0,1-1.77.62A3.65,3.65,0,0,1,43.47,88.8Zm3.81-3.36v0a1.64,1.64,0,0,0-1.71-1.58A1.54,1.54,0,0,0,44,85.41v0A1.57,1.57,0,0,0,45.57,87,1.64,1.64,0,0,0,47.28,85.44Z"/><path class="cls-2" d="M51.36,87.07l.44-.53a3,3,0,0,0,2.16.9c.85,0,1.4-.45,1.4-1.07v0c0-.59-.31-.92-1.63-1.2s-2.12-.78-2.12-1.82v0a1.86,1.86,0,0,1,2.07-1.72,3.32,3.32,0,0,1,2.22.78l-.42.55a2.75,2.75,0,0,0-1.82-.69c-.82,0-1.34.45-1.34,1v0c0,.59.33.93,1.71,1.22s2,.82,2,1.79h0c0,1.08-.9,1.79-2.15,1.79A3.69,3.69,0,0,1,51.36,87.07Z"/><path class="cls-2" d="M56.86,85.68v0a2.43,2.43,0,0,1,4.85,0v0a2.42,2.42,0,0,1-2.44,2.43A2.38,2.38,0,0,1,56.86,85.68Zm4.14,0v0a1.76,1.76,0,0,0-1.73-1.82,1.72,1.72,0,0,0-1.7,1.8v0a1.75,1.75,0,0,0,1.72,1.81A1.72,1.72,0,0,0,61,85.68Z"/><path class="cls-2" d="M62.4,85.68v0a2.42,2.42,0,0,1,4.25-1.6l-.46.49a1.87,1.87,0,0,0-1.41-.71,1.72,1.72,0,0,0-1.67,1.8v0a1.74,1.74,0,0,0,1.71,1.81,1.91,1.91,0,0,0,1.43-.69l.44.41a2.41,2.41,0,0,1-4.29-1.51Z"/><path class="cls-2" d="M67.56,81.41h.69V86l2.51-2.62h.87l-2,2,2,2.66h-.83L69.2,85.82l-1,1V88h-.69Z"/><path class="cls-2" d="M71.9,85.67v0a2.29,2.29,0,0,1,2.23-2.42,2.22,2.22,0,0,1,2.17,2.46,1.77,1.77,0,0,1,0,.23H72.6a1.63,1.63,0,0,0,1.64,1.57,1.89,1.89,0,0,0,1.46-.66l.44.39a2.42,2.42,0,0,1-1.92.87A2.31,2.31,0,0,1,71.9,85.67Zm3.7-.27a1.54,1.54,0,0,0-1.49-1.58A1.6,1.6,0,0,0,72.6,85.4Z"/><path class="cls-2" d="M77.49,86.75V83.94h-.65v-.61h.65v-1.4h.69v1.4h1.48v.61H78.18v2.72a.69.69,0,0,0,.78.78,1.46,1.46,0,0,0,.68-.17v.6a1.86,1.86,0,0,1-.84.2A1.18,1.18,0,0,1,77.49,86.75Z"/><path class="cls-3" d="M50,28.51a10.31,10.31,0,0,1,3.53,8,10.47,10.47,0,1,1-17.3-7.94Z"/><circle class="cls-3" cx="37.8" cy="36.41" r="2.01"/><circle class="cls-3" cx="43.11" cy="36.41" r="2.01"/><circle class="cls-3" cx="48.41" cy="36.41" r="2.01"/><circle class="cls-3" cx="40.63" cy="41.08" r="2.01"/><circle class="cls-3" cx="45.93" cy="41.08" r="2.01"/><circle class="cls-4" cx="40.48" cy="32.8" r="1.42"/><circle class="cls-4" cx="45.93" cy="32.79" r="1.42"/><rect class="cls-5" x="29.26" y="20.59" width="27.52" height="34.29"/><polyline class="cls-6" points="66.11 32.67 65.13 34.94 37.48 34.94 29.37 24.44"/><polygon class="cls-6" points="56.78 20.59 29.26 20.59 38.59 32.67 66.11 32.67 56.78 20.59"/><path class="cls-2" d="M34.43,48.7A1.45,1.45,0,1,1,33,50.15a1.45,1.45,0,0,1,1.45-1.45m0-1.63a3.08,3.08,0,1,0,3.08,3.08,3.08,3.08,0,0,0-3.08-3.08Z"/><path class="cls-2" d="M51.61,48.7a1.45,1.45,0,1,1-1.45,1.45,1.45,1.45,0,0,1,1.45-1.45m0-1.63a3.08,3.08,0,1,0,3.08,3.08,3.08,3.08,0,0,0-3.08-3.08Z"/><line class="cls-7" x1="38.59" y1="32.67" x2="37.51" y2="35.17"/></svg>