<svg id="Layer_1" data-name="Layer 1" xmlns="http://www.w3.org/2000/svg" viewBox="0 0 90 100"><defs><style>.cls-1,.cls-2,.cls-4{fill:#fff;}.cls-1,.cls-4{stroke:#74af27;}.cls-1{stroke-miterlimit:10;}.cls-3{fill:#74af27;}.cls-4{stroke-linecap:round;stroke-linejoin:round;stroke-width:0.41px;}</style></defs><title>EV-ProductFeatures-1WayChargingUnit-CubiCharge</title><circle class="cls-1" cx="45" cy="37.74" r="28.35"/><g id="LINE"><rect class="cls-2" x="29.09" y="21.26" width="31.82" height="31.82" rx="0.61"/><path class="cls-3" d="M60.3,21.67a.2.2,0,0,1,.2.2v30.6a.2.2,0,0,1-.2.2H29.7a.2.2,0,0,1-.2-.2V21.87a.2.2,0,0,1,.2-.2H60.3m0-.82H29.7a1,1,0,0,0-1,1v30.6a1,1,0,0,0,1,1H60.3a1,1,0,0,0,1-1V21.87a1,1,0,0,0-1-1Z"/></g><g id="LWPOLYLINE"><rect class="cls-3" x="31.07" y="53.32" width="4.04" height="3.63"/></g><g id="LWPOLYLINE-2" data-name="LWPOLYLINE"><rect class="cls-3" x="54.89" y="53.32" width="4.04" height="3.63"/></g><g id="ARC"><path class="cls-3" d="M33.7,21V18a1.74,1.74,0,0,0-2,0V21Z"/></g><g id="ARC-2" data-name="ARC"><path class="cls-3" d="M58.32,21V18a1.74,1.74,0,0,0-2,0V21Z"/></g><circle class="cls-3" cx="45" cy="38.47" r="3.95"/><path class="cls-3" d="M45,41.49a3,3,0,0,1-1.28-.28.19.19,0,0,1-.11-.18v-.48a2.5,2.5,0,0,1,0-4.16v-.47a.2.2,0,0,1,.11-.19,3.07,3.07,0,0,1,2.56,0,.21.21,0,0,1,.12.19v.47a2.52,2.52,0,0,1,0,4.16V41a.2.2,0,0,1-.12.18A3,3,0,0,1,45,41.49Z"/><path class="cls-2" d="M45,35.65a2.77,2.77,0,0,1,1.19.27v.59a2.28,2.28,0,0,1,1.11,2,2.31,2.31,0,0,1-1.11,2V41a2.76,2.76,0,0,1-1.19.26A2.8,2.8,0,0,1,43.81,41v-.59a2.3,2.3,0,0,1,0-3.94v-.58A2.8,2.8,0,0,1,45,35.65m0-.41a3.18,3.18,0,0,0-1.36.3.42.42,0,0,0-.24.38v.37a2.71,2.71,0,0,0,0,4.37V41a.4.4,0,0,0,.24.37,3.18,3.18,0,0,0,1.36.3,3.22,3.22,0,0,0,1.37-.3A.41.41,0,0,0,46.6,41v-.38a2.65,2.65,0,0,0,1.11-2.18,2.68,2.68,0,0,0-1.11-2.18v-.37a.43.43,0,0,0-.23-.38,3.22,3.22,0,0,0-1.37-.3Z"/><g id="CIRCLE"><path class="cls-4" d="M44.19,32.72a.81.81,0,1,1,.81.81.81.81,0,0,1-.81-.81Z"/></g><path class="cls-3" d="M34.35,71.38l-1.19.37L33,71.17l1.54-.53h.52V77h-.7Z"/><path class="cls-3" d="M38.52,70.69h.78l1.8,5.25,1.73-5.27h.58l1.73,5.27,1.8-5.25h.75L45.44,77h-.6l-1.73-5.11L41.37,77h-.59Z"/><path class="cls-3" d="M47.61,75.64v0c0-1,.81-1.5,2-1.5a5.27,5.27,0,0,1,1.43.19v-.16c0-.83-.52-1.27-1.39-1.27a3.33,3.33,0,0,0-1.41.34L48,72.66a3.76,3.76,0,0,1,1.69-.39,2.07,2.07,0,0,1,1.51.51,1.87,1.87,0,0,1,.47,1.36V77H51v-.7a2.07,2.07,0,0,1-1.69.8A1.57,1.57,0,0,1,47.61,75.64ZM51,75.28v-.45a4.91,4.91,0,0,0-1.37-.2c-.88,0-1.36.38-1.36,1v0c0,.59.54.93,1.17.93A1.41,1.41,0,0,0,51,75.28Z"/><path class="cls-3" d="M56.2,72.33h.74L55,77.14c-.4,1-.85,1.32-1.55,1.32a2,2,0,0,1-1-.24l.23-.55a1.43,1.43,0,0,0,.73.17c.42,0,.68-.21,1-.87l-2.12-4.64H53l1.69,3.88Z"/><path class="cls-3" d="M16.34,84.86v0a3.17,3.17,0,0,1,3.18-3.26,3.25,3.25,0,0,1,2.46,1l-.49.52a2.74,2.74,0,0,0-2-.86,2.47,2.47,0,0,0-2.44,2.58v0a2.49,2.49,0,0,0,2.44,2.6,2.72,2.72,0,0,0,2-.91L22,87A3.28,3.28,0,0,1,19.5,88.1,3.14,3.14,0,0,1,16.34,84.86Z"/><path class="cls-3" d="M22.87,81.42h.69v2.72a1.79,1.79,0,0,1,1.6-.91,1.7,1.7,0,0,1,1.78,1.87V88h-.69V85.27A1.24,1.24,0,0,0,25,83.87a1.37,1.37,0,0,0-1.4,1.45V88h-.69Z"/><path class="cls-3" d="M27.79,86.64v0c0-1,.81-1.5,2-1.5a5.16,5.16,0,0,1,1.43.19v-.16c0-.83-.51-1.27-1.38-1.27a3.41,3.41,0,0,0-1.42.34l-.2-.56a3.73,3.73,0,0,1,1.69-.39,2,2,0,0,1,1.5.51,1.83,1.83,0,0,1,.48,1.36V88h-.67v-.7a2,2,0,0,1-1.68.8A1.58,1.58,0,0,1,27.79,86.64Zm3.43-.36v-.45a4.8,4.8,0,0,0-1.37-.2c-.87,0-1.35.38-1.35,1v0c0,.59.54.93,1.17.93A1.4,1.4,0,0,0,31.22,86.28Z"/><path class="cls-3" d="M33.08,83.33h.7v1.22a2,2,0,0,1,1.9-1.3V84h-.06a1.88,1.88,0,0,0-1.84,2.13V88h-.7Z"/><path class="cls-3" d="M36.22,88.8l.31-.54a3,3,0,0,0,1.79.59A1.53,1.53,0,0,0,40,87.2v-.55a2.22,2.22,0,0,1-1.83,1A2.15,2.15,0,0,1,36,85.45v0a2.16,2.16,0,0,1,2.19-2.2,2.21,2.21,0,0,1,1.82.94v-.84h.69v3.85a2.28,2.28,0,0,1-.59,1.65,2.49,2.49,0,0,1-1.78.62A3.66,3.66,0,0,1,36.22,88.8ZM40,85.44v0a1.62,1.62,0,0,0-1.71-1.57,1.54,1.54,0,0,0-1.61,1.56v0A1.58,1.58,0,0,0,38.32,87,1.64,1.64,0,0,0,40,85.44Z"/><path class="cls-3" d="M42,81.55h.8v.77H42Zm0,1.78h.69V88H42Z"/><path class="cls-3" d="M44.07,83.33h.7v.81a1.76,1.76,0,0,1,1.59-.91,1.7,1.7,0,0,1,1.78,1.87V88h-.69V85.27a1.24,1.24,0,0,0-1.29-1.4,1.36,1.36,0,0,0-1.39,1.45V88h-.7Z"/><path class="cls-3" d="M49.29,88.8l.32-.54a2.94,2.94,0,0,0,1.79.59,1.52,1.52,0,0,0,1.69-1.65v-.55a2.19,2.19,0,0,1-1.82,1,2.15,2.15,0,0,1-2.19-2.18v0a2.2,2.2,0,0,1,4-1.26v-.84h.7v3.85a2.25,2.25,0,0,1-.6,1.65,2.45,2.45,0,0,1-1.77.62A3.66,3.66,0,0,1,49.29,88.8Zm3.82-3.36v0a1.63,1.63,0,0,0-1.71-1.57,1.54,1.54,0,0,0-1.61,1.56v0A1.58,1.58,0,0,0,51.4,87,1.64,1.64,0,0,0,53.11,85.44Z"/><path class="cls-3" d="M57.5,85.35V81.69h.71v3.62a1.86,1.86,0,0,0,1.93,2.12c1.16,0,1.9-.7,1.9-2.08V81.69h.71V85.3a2.63,2.63,0,1,1-5.25,0Z"/><path class="cls-3" d="M64,83.33h.7v.81a1.76,1.76,0,0,1,1.59-.91,1.7,1.7,0,0,1,1.78,1.87V88h-.69V85.27a1.24,1.24,0,0,0-1.29-1.4,1.36,1.36,0,0,0-1.39,1.45V88H64Z"/><path class="cls-3" d="M69.34,81.55h.79v.77h-.79Zm0,1.78h.69V88h-.69Z"/><path class="cls-3" d="M71.66,86.75V84H71v-.62h.65v-1.4h.69v1.4h1.48V84H72.35v2.72a.69.69,0,0,0,.78.77,1.54,1.54,0,0,0,.68-.16v.59a1.68,1.68,0,0,1-.84.2A1.19,1.19,0,0,1,71.66,86.75Z"/></svg>