<svg id="Layer_1" data-name="Layer 1" xmlns="http://www.w3.org/2000/svg" xmlns:xlink="http://www.w3.org/1999/xlink" viewBox="0 0 90 100"><defs><style>.cls-1,.cls-5{fill:none;}.cls-2{fill:#fff;stroke-miterlimit:10;}.cls-2,.cls-5{stroke:#74af27;}.cls-3{fill:#74af27;}.cls-4{clip-path:url(#clip-path);}.cls-5{stroke-linecap:round;stroke-linejoin:round;stroke-width:0.63px;}</style><clipPath id="clip-path"><circle class="cls-1" cx="45" cy="37.74" r="27.79"/></clipPath></defs><title>EV-ProductFeatures-ElectricVehicleMode2Charging</title><circle class="cls-2" cx="45" cy="37.74" r="28.35"/><path class="cls-3" d="M13.64,70.68H18.2v.65H14.36v2.15h3.43v.65H14.36v2.21h3.89V77H13.64Z"/><path class="cls-3" d="M19.35,70.41H20V77h-.69Z"/><path class="cls-3" d="M21.1,74.67v0a2.29,2.29,0,0,1,2.23-2.42,2.22,2.22,0,0,1,2.17,2.46,1.77,1.77,0,0,1,0,.23H21.8a1.63,1.63,0,0,0,1.64,1.57,1.89,1.89,0,0,0,1.46-.66l.44.39a2.42,2.42,0,0,1-1.92.87A2.31,2.31,0,0,1,21.1,74.67Zm3.7-.27a1.54,1.54,0,0,0-1.49-1.58A1.6,1.6,0,0,0,21.8,74.4Z"/><path class="cls-3" d="M26.15,74.68v0a2.42,2.42,0,0,1,4.25-1.6l-.46.49a1.85,1.85,0,0,0-1.41-.71,1.72,1.72,0,0,0-1.66,1.8v0a1.73,1.73,0,0,0,1.71,1.81A1.91,1.91,0,0,0,30,75.78l.44.41a2.41,2.41,0,0,1-4.29-1.51Z"/><path class="cls-3" d="M31.55,75.75V72.94h-.64v-.61h.64v-1.4h.7v1.4h1.47v.61H32.25v2.72a.69.69,0,0,0,.78.78,1.46,1.46,0,0,0,.68-.17v.6a1.86,1.86,0,0,1-.84.2A1.19,1.19,0,0,1,31.55,75.75Z"/><path class="cls-3" d="M34.68,72.33h.69v1.22a2,2,0,0,1,1.9-1.3V73h-.05a1.88,1.88,0,0,0-1.85,2.13V77h-.69Z"/><path class="cls-3" d="M38.07,70.55h.79v.76h-.79Zm0,1.78h.69V77h-.69Z"/><path class="cls-3" d="M39.86,74.68v0a2.42,2.42,0,0,1,4.25-1.6l-.46.49a1.87,1.87,0,0,0-1.41-.71,1.72,1.72,0,0,0-1.67,1.8v0a1.74,1.74,0,0,0,1.71,1.81,1.91,1.91,0,0,0,1.43-.69l.44.41a2.41,2.41,0,0,1-4.29-1.51Z"/><path class="cls-3" d="M47,70.68h.8l2.24,5.43,2.25-5.43h.76L50.36,77h-.63Z"/><path class="cls-3" d="M53,74.67v0a2.3,2.3,0,0,1,2.23-2.42,2.22,2.22,0,0,1,2.17,2.46,1.77,1.77,0,0,1,0,.23H53.71a1.63,1.63,0,0,0,1.64,1.57,1.92,1.92,0,0,0,1.47-.66l.43.39a2.42,2.42,0,0,1-1.92.87A2.31,2.31,0,0,1,53,74.67Zm3.7-.27a1.53,1.53,0,0,0-1.49-1.58,1.6,1.6,0,0,0-1.51,1.58Z"/><path class="cls-3" d="M58.36,70.41h.69v2.73a1.77,1.77,0,0,1,1.59-.91,1.71,1.71,0,0,1,1.79,1.87V77h-.7V74.27a1.24,1.24,0,0,0-1.29-1.41,1.37,1.37,0,0,0-1.39,1.46V77h-.69Z"/><path class="cls-3" d="M63.65,70.55h.79v.76h-.79Zm0,1.78h.7V77h-.7Z"/><path class="cls-3" d="M65.44,74.68v0a2.42,2.42,0,0,1,4.25-1.6l-.46.49a1.87,1.87,0,0,0-1.41-.71,1.72,1.72,0,0,0-1.67,1.8v0a1.74,1.74,0,0,0,1.71,1.81,1.91,1.91,0,0,0,1.42-.69l.44.41a2.35,2.35,0,0,1-1.9.9A2.38,2.38,0,0,1,65.44,74.68Z"/><path class="cls-3" d="M70.66,70.41h.69V77h-.69Z"/><path class="cls-3" d="M72.4,74.67v0a2.3,2.3,0,0,1,2.24-2.42,2.22,2.22,0,0,1,2.17,2.46,1.77,1.77,0,0,1,0,.23H73.11a1.63,1.63,0,0,0,1.64,1.57,1.92,1.92,0,0,0,1.46-.66l.44.39a2.42,2.42,0,0,1-1.92.87A2.32,2.32,0,0,1,72.4,74.67Zm3.7-.27a1.53,1.53,0,0,0-1.48-1.58,1.6,1.6,0,0,0-1.51,1.58Z"/><path class="cls-3" d="M9.56,81.68h.72l2.3,3.44,2.29-3.44h.72V88h-.71V82.88l-2.29,3.38h0l-2.29-3.37V88h-.7Z"/><path class="cls-3" d="M16.7,85.68v0a2.41,2.41,0,0,1,2.43-2.43,2.39,2.39,0,0,1,2.42,2.41v0a2.41,2.41,0,0,1-2.44,2.43A2.38,2.38,0,0,1,16.7,85.68Zm4.14,0v0a1.76,1.76,0,0,0-1.73-1.82,1.72,1.72,0,0,0-1.7,1.8v0a1.75,1.75,0,0,0,1.72,1.81A1.72,1.72,0,0,0,20.84,85.68Z"/><path class="cls-3" d="M22.26,85.67v0a2.29,2.29,0,0,1,2.23-2.42,2.11,2.11,0,0,1,1.78,1V81.41H27V88h-.69v-.94a2.09,2.09,0,0,1-1.78,1A2.27,2.27,0,0,1,22.26,85.67Zm4,0v0a1.72,1.72,0,0,0-1.68-1.79A1.65,1.65,0,0,0,23,85.64v0a1.68,1.68,0,0,0,1.64,1.8A1.73,1.73,0,0,0,26.29,85.66Z"/><path class="cls-3" d="M28,85.67v0a2.3,2.3,0,0,1,2.23-2.42,2.22,2.22,0,0,1,2.17,2.46,1.77,1.77,0,0,1,0,.23H28.65a1.63,1.63,0,0,0,1.64,1.57,1.92,1.92,0,0,0,1.47-.66l.43.39a2.42,2.42,0,0,1-1.92.87A2.31,2.31,0,0,1,28,85.67Zm3.7-.27a1.53,1.53,0,0,0-1.49-1.58,1.6,1.6,0,0,0-1.51,1.58Z"/><path class="cls-3" d="M35.38,87.44l2.29-2c1-.86,1.31-1.35,1.31-2a1.2,1.2,0,0,0-1.26-1.21A2,2,0,0,0,36,83.31l-.52-.37a2.5,2.5,0,0,1,2.27-1.35,1.82,1.82,0,0,1,1.95,1.79h0c0,.92-.48,1.49-1.59,2.45l-1.68,1.5h3.34V88H35.38Z"/><path class="cls-3" d="M43.11,84.85v0a3.17,3.17,0,0,1,3.19-3.25,3.27,3.27,0,0,1,2.46,1l-.49.52a2.71,2.71,0,0,0-2-.87,2.48,2.48,0,0,0-2.44,2.59h0a2.5,2.5,0,0,0,2.44,2.61,2.77,2.77,0,0,0,2-.91l.47.46a3.31,3.31,0,0,1-2.53,1.1A3.15,3.15,0,0,1,43.11,84.85Z"/><path class="cls-3" d="M49.65,81.41h.69v2.73a1.78,1.78,0,0,1,1.6-.91,1.7,1.7,0,0,1,1.78,1.87V88H53V85.27a1.24,1.24,0,0,0-1.28-1.41,1.38,1.38,0,0,0-1.4,1.46V88h-.69Z"/><path class="cls-3" d="M54.57,86.63h0c0-1,.81-1.51,2-1.51a5.12,5.12,0,0,1,1.43.2v-.16c0-.84-.51-1.27-1.38-1.27a3.41,3.41,0,0,0-1.42.34l-.2-.56a3.73,3.73,0,0,1,1.69-.39,2,2,0,0,1,1.5.51,1.83,1.83,0,0,1,.48,1.36V88H58v-.71a2,2,0,0,1-1.68.8A1.56,1.56,0,0,1,54.57,86.63ZM58,86.28v-.45a4.8,4.8,0,0,0-1.37-.2c-.87,0-1.36.38-1.36,1v0c0,.58.54.93,1.17.93A1.41,1.41,0,0,0,58,86.28Z"/><path class="cls-3" d="M59.86,83.33h.7v1.22a2,2,0,0,1,1.9-1.3V84H62.4a1.88,1.88,0,0,0-1.84,2.13V88h-.7Z"/><path class="cls-3" d="M63,88.8l.31-.54a3,3,0,0,0,1.79.59,1.53,1.53,0,0,0,1.69-1.66v-.55a2.2,2.2,0,0,1-1.82,1,2.15,2.15,0,0,1-2.19-2.18v0a2.2,2.2,0,0,1,4-1.26v-.84h.69v3.85a2.21,2.21,0,0,1-.6,1.64,2.4,2.4,0,0,1-1.77.62A3.65,3.65,0,0,1,63,88.8Zm3.81-3.36v0a1.64,1.64,0,0,0-1.71-1.58,1.54,1.54,0,0,0-1.61,1.57v0A1.57,1.57,0,0,0,65.1,87,1.64,1.64,0,0,0,66.81,85.44Z"/><path class="cls-3" d="M68.77,81.55h.8v.76h-.8Zm0,1.78h.69V88h-.69Z"/><path class="cls-3" d="M70.85,83.33h.7v.81a1.76,1.76,0,0,1,1.59-.91,1.7,1.7,0,0,1,1.78,1.87V88h-.69V85.27a1.24,1.24,0,0,0-1.29-1.41,1.37,1.37,0,0,0-1.39,1.46V88h-.7Z"/><path class="cls-3" d="M76.07,88.8l.32-.54a3,3,0,0,0,1.79.59,1.53,1.53,0,0,0,1.69-1.66v-.55a2.2,2.2,0,0,1-1.83,1,2.15,2.15,0,0,1-2.18-2.18v0a2.2,2.2,0,0,1,4-1.26v-.84h.7v3.85a2.21,2.21,0,0,1-.6,1.64,2.4,2.4,0,0,1-1.77.62A3.66,3.66,0,0,1,76.07,88.8Zm3.82-3.36v0a1.64,1.64,0,0,0-1.71-1.58,1.54,1.54,0,0,0-1.61,1.57v0A1.56,1.56,0,0,0,78.18,87,1.64,1.64,0,0,0,79.89,85.44Z"/><g class="cls-4"><path class="cls-5" d="M23.51,45.81s-3.57-3.31-.88-6.69c0,0,1.23-2.23,8.79-4a15.47,15.47,0,0,0,4.17-1.87c1.34-1.11,2.89-1.85,6.56-2.29a67.4,67.4,0,0,1,7.15-.48s6-.62,7.73,3.73a17.31,17.31,0,0,1,.82,4.83v2.29s-.23,2,1.06,2.23c0,0,1.41.24,1.46-2.11V35s-.64-5.19,2.88-5.19h1.17"/><line class="cls-5" x1="34.3" y1="46.42" x2="46.66" y2="46.42"/><ellipse class="cls-5" cx="29.12" cy="43.59" rx="4.18" ry="4.3"/><ellipse class="cls-5" cx="51.91" cy="43.59" rx="4.18" ry="4.3"/><path class="cls-3" d="M66.38,28.17v3.15a.65.65,0,0,1-.81.56,2.1,2.1,0,0,1-2-2s-.26-1.84,2.16-2.18C65.7,27.74,66.38,27.6,66.38,28.17Z"/><path class="cls-3" d="M67.91,29.31a.48.48,0,0,0,.46-.48.47.47,0,0,0-.46-.48H65.78v1Z"/><path class="cls-3" d="M67.91,31.32a.47.47,0,0,0,.46-.48.48.48,0,0,0-.46-.48H65.78v1Z"/></g></svg>