<svg id="Layer_1" data-name="Layer 1" xmlns="http://www.w3.org/2000/svg" xmlns:xlink="http://www.w3.org/1999/xlink" viewBox="0 0 90 100"><defs><style>.cls-1{fill:none;}.cls-2,.cls-5{fill:#fff;}.cls-2{stroke:#74af27;stroke-miterlimit:10;}.cls-3{fill:#74af27;}.cls-4{clip-path:url(#clip-path);}</style><clipPath id="clip-path"><circle class="cls-1" cx="45" cy="37.74" r="27.9"/></clipPath></defs><title>EV-ProductFeatures-PortableEVCharging-CubiCharge</title><circle class="cls-2" cx="45" cy="37.74" r="28.35"/><path class="cls-3" d="M20.53,70.68h2.36c1.42,0,2.36.76,2.36,2v0c0,1.36-1.14,2.06-2.48,2.06H21.24V77h-.71Zm2.27,3.43c1,0,1.73-.55,1.73-1.38v0c0-.9-.68-1.37-1.7-1.37H21.24v2.77Z"/><path class="cls-3" d="M25.82,74.68v0a2.41,2.41,0,0,1,2.43-2.43,2.39,2.39,0,0,1,2.42,2.41v0a2.41,2.41,0,0,1-2.44,2.43A2.38,2.38,0,0,1,25.82,74.68Zm4.14,0v0a1.76,1.76,0,0,0-1.73-1.82,1.72,1.72,0,0,0-1.7,1.8v0a1.75,1.75,0,0,0,1.72,1.81A1.72,1.72,0,0,0,30,74.68Z"/><path class="cls-3" d="M31.65,72.33h.7v1.22a2,2,0,0,1,1.9-1.3V73h-.06a1.88,1.88,0,0,0-1.84,2.13V77h-.7Z"/><path class="cls-3" d="M35.27,75.75V72.94h-.65v-.61h.65v-1.4H36v1.4h1.48v.61H36v2.72a.7.7,0,0,0,.79.78,1.42,1.42,0,0,0,.67-.17v.6a1.79,1.79,0,0,1-.83.2A1.19,1.19,0,0,1,35.27,75.75Z"/><path class="cls-3" d="M38,75.63h0c0-1,.81-1.51,2-1.51a5.12,5.12,0,0,1,1.43.2v-.16c0-.84-.51-1.27-1.38-1.27a3.41,3.41,0,0,0-1.42.34l-.2-.56a3.73,3.73,0,0,1,1.69-.39,2,2,0,0,1,1.5.51,1.83,1.83,0,0,1,.48,1.36V77h-.67v-.71a2,2,0,0,1-1.68.8A1.57,1.57,0,0,1,38,75.63Zm3.43-.35v-.45a4.8,4.8,0,0,0-1.37-.2c-.87,0-1.35.38-1.35,1v0c0,.58.54.93,1.17.93A1.41,1.41,0,0,0,41.47,75.28Z"/><path class="cls-3" d="M44,76.09V77h-.69V70.41H44v2.86a2.1,2.1,0,0,1,1.78-1A2.27,2.27,0,0,1,48,74.64v0a2.27,2.27,0,0,1-2.22,2.42A2.08,2.08,0,0,1,44,76.09Zm3.29-1.42v0a1.68,1.68,0,0,0-1.63-1.8A1.74,1.74,0,0,0,44,74.64v0a1.73,1.73,0,0,0,1.69,1.8A1.63,1.63,0,0,0,47.32,74.67Z"/><path class="cls-3" d="M49.1,70.41h.7V77h-.7Z"/><path class="cls-3" d="M50.85,74.67v0a2.3,2.3,0,0,1,2.23-2.42,2.22,2.22,0,0,1,2.17,2.46,1.77,1.77,0,0,1,0,.23H51.55a1.63,1.63,0,0,0,1.64,1.57,1.92,1.92,0,0,0,1.47-.66l.43.39a2.42,2.42,0,0,1-1.92.87A2.31,2.31,0,0,1,50.85,74.67Zm3.7-.27a1.53,1.53,0,0,0-1.49-1.58,1.6,1.6,0,0,0-1.51,1.58Z"/><path class="cls-3" d="M58.74,70.68H63.3v.65H59.45v2.15h3.44v.65H59.45v2.21h3.89V77h-4.6Z"/><path class="cls-3" d="M64,70.68h.8L67,76.11l2.25-5.43H70L67.3,77h-.63Z"/><path class="cls-3" d="M26.2,84.85v0a3.17,3.17,0,0,1,3.19-3.25,3.25,3.25,0,0,1,2.45,1l-.48.52a2.73,2.73,0,0,0-2-.87,2.47,2.47,0,0,0-2.44,2.59h0a2.49,2.49,0,0,0,2.44,2.61,2.75,2.75,0,0,0,2-.91l.47.46a3.31,3.31,0,0,1-2.52,1.1A3.14,3.14,0,0,1,26.2,84.85Z"/><path class="cls-3" d="M32.73,81.41h.7v2.73A1.76,1.76,0,0,1,35,83.23,1.7,1.7,0,0,1,36.8,85.1V88h-.69V85.27a1.24,1.24,0,0,0-1.29-1.41,1.37,1.37,0,0,0-1.39,1.46V88h-.7Z"/><path class="cls-3" d="M37.66,86.63h0c0-1,.81-1.51,2-1.51a5.24,5.24,0,0,1,1.43.2v-.16c0-.84-.52-1.27-1.39-1.27a3.33,3.33,0,0,0-1.41.34l-.21-.56a3.76,3.76,0,0,1,1.69-.39,2.07,2.07,0,0,1,1.51.51,1.87,1.87,0,0,1,.47,1.36V88h-.66v-.71a2,2,0,0,1-1.69.8A1.56,1.56,0,0,1,37.66,86.63Zm3.43-.35v-.45a4.85,4.85,0,0,0-1.37-.2c-.88,0-1.36.38-1.36,1v0c0,.58.54.93,1.17.93A1.42,1.42,0,0,0,41.09,86.28Z"/><path class="cls-3" d="M43,83.33h.69v1.22a2,2,0,0,1,1.9-1.3V84h0a1.88,1.88,0,0,0-1.85,2.13V88H43Z"/><path class="cls-3" d="M46.08,88.8l.32-.54a3,3,0,0,0,1.79.59,1.53,1.53,0,0,0,1.69-1.66v-.55a2.22,2.22,0,0,1-1.83,1,2.16,2.16,0,0,1-2.19-2.18v0a2.2,2.2,0,0,1,4-1.26v-.84h.69v3.85A2.2,2.2,0,0,1,50,88.82a2.42,2.42,0,0,1-1.77.62A3.66,3.66,0,0,1,46.08,88.8Zm3.82-3.36v0a1.64,1.64,0,0,0-1.71-1.58,1.54,1.54,0,0,0-1.61,1.57v0A1.56,1.56,0,0,0,48.19,87,1.64,1.64,0,0,0,49.9,85.44Z"/><path class="cls-3" d="M51.86,81.55h.79v.76h-.79Zm0,1.78h.7V88h-.7Z"/><path class="cls-3" d="M53.94,83.33h.69v.81a1.77,1.77,0,0,1,1.59-.91A1.71,1.71,0,0,1,58,85.1V88h-.7V85.27A1.24,1.24,0,0,0,56,83.86a1.37,1.37,0,0,0-1.4,1.46V88h-.69Z"/><path class="cls-3" d="M59.16,88.8l.31-.54a3,3,0,0,0,1.79.59A1.54,1.54,0,0,0,63,87.19v-.55a2.23,2.23,0,0,1-1.83,1,2.15,2.15,0,0,1-2.19-2.18v0a2.2,2.2,0,0,1,4-1.26v-.84h.69v3.85a2.24,2.24,0,0,1-.59,1.64,2.44,2.44,0,0,1-1.78.62A3.65,3.65,0,0,1,59.16,88.8ZM63,85.44v0a1.63,1.63,0,0,0-1.71-1.58,1.54,1.54,0,0,0-1.61,1.57v0A1.57,1.57,0,0,0,61.26,87,1.63,1.63,0,0,0,63,85.44Z"/><g class="cls-4"><path class="cls-3" d="M23.49,67.2V38.06s-.2-3.19,2.86-3.19H63.58s2.93.19,2.93,2.66V67.2H60.25V43.42H29.74V67.2Z"/><path class="cls-5" d="M47.6,50.39a1.49,1.49,0,0,1-1.39-1.47V42.34a2.29,2.29,0,0,1,2.42-2.26,2.39,2.39,0,0,1,2.49,2.23v6.61a1.4,1.4,0,0,1-1.34,1.47Z"/><path class="cls-3" d="M48.63,40.58a1.92,1.92,0,0,1,2,1.76v6.58s0,1-.84,1H47.6a1,1,0,0,1-.89-1V42.34a1.82,1.82,0,0,1,1.92-1.76m0-1a2.8,2.8,0,0,0-2.92,2.73v6.61a2,2,0,0,0,1.77,2h2.3a1.87,1.87,0,0,0,1.84-2V42.27a2.91,2.91,0,0,0-3-2.69Z"/><path class="cls-5" d="M37,50.39a1.49,1.49,0,0,1-1.39-1.47V42.34A2.28,2.28,0,0,1,38,40.08a2.4,2.4,0,0,1,2.5,2.23v6.61a1.4,1.4,0,0,1-1.34,1.47Z"/><path class="cls-3" d="M38,40.58a1.92,1.92,0,0,1,2,1.76v6.58s0,1-.84,1H37a1,1,0,0,1-.89-1V42.34A1.82,1.82,0,0,1,38,40.58m0-1a2.79,2.79,0,0,0-2.91,2.73v6.61a2,2,0,0,0,1.77,2h2.3a1.88,1.88,0,0,0,1.84-2V42.27a2.92,2.92,0,0,0-3-2.69Z"/><path class="cls-5" d="M42.3,50.39a1.49,1.49,0,0,1-1.39-1.47V42.34a2.28,2.28,0,0,1,2.42-2.26,2.39,2.39,0,0,1,2.49,2.23v6.61a1.4,1.4,0,0,1-1.34,1.47Z"/><path class="cls-3" d="M43.33,40.58a1.92,1.92,0,0,1,2,1.76v6.58s0,1-.84,1H42.3a1,1,0,0,1-.89-1V42.34a1.82,1.82,0,0,1,1.92-1.76m0-1a2.8,2.8,0,0,0-2.92,2.73v6.61a2,2,0,0,0,1.77,2h2.3a1.87,1.87,0,0,0,1.84-2V42.27a2.91,2.91,0,0,0-3-2.69Z"/><path class="cls-5" d="M52.9,49.05a1.48,1.48,0,0,1-1.39-1.47V44.92a2.29,2.29,0,0,1,2.42-2.26,2.38,2.38,0,0,1,2.49,2.22v2.7a1.41,1.41,0,0,1-1.35,1.47Z"/><path class="cls-3" d="M53.93,43.16a1.93,1.93,0,0,1,2,1.76v2.66s0,1-.85,1H52.9a1,1,0,0,1-.89-1V44.92a1.82,1.82,0,0,1,1.92-1.76m0-1A2.8,2.8,0,0,0,51,44.89v2.69a2,2,0,0,0,1.78,2h2.29a1.88,1.88,0,0,0,1.85-1.95V44.92s0-.05,0-.08a2.9,2.9,0,0,0-3-2.68Z"/><path class="cls-5" d="M41.43,46a.45.45,0,0,1-.16,0s-2.43-.85-5.76-2.33c-3.66-1.64-3.24-4.1-3.22-4.21V32a.52.52,0,0,1,.2-.4l5.67-4.28V3a.5.5,0,0,1,.5-.5H54a.5.5,0,0,1,.5.5V28.38A3.06,3.06,0,0,0,55,30.06a2.36,2.36,0,0,0,1.07.71.51.51,0,0,1,.39.49V34.6a.5.5,0,0,1-.5.5H46.76a.5.5,0,0,1-.47-.32.51.51,0,0,1,.13-.55,7.94,7.94,0,0,0,1.35-1.66,4.71,4.71,0,0,0,.6-2v-.81H47.9v1.07a6,6,0,0,1-1.45,2.92,5.09,5.09,0,0,1-2.89,1.77l-5.73,1.24v1.44c.46.4,1.74,1.54,2.41,2.1A8.63,8.63,0,0,1,41.72,42a4.45,4.45,0,0,1,.68,2.23c0,1.33-.66,1.65-.79,1.7A.39.39,0,0,1,41.43,46Z"/><path class="cls-3" d="M54,3V28.37a3.5,3.5,0,0,0,.57,2,2.8,2.8,0,0,0,1.34.88V34.6H46.76a8.74,8.74,0,0,0,1.44-1.77,5.27,5.27,0,0,0,.67-2.22V29.28H47.4v1.57a5.51,5.51,0,0,1-1.33,2.6A4.61,4.61,0,0,1,43.49,35l-6.16,1.34v2.06s1.76,1.57,2.58,2.27a7.67,7.67,0,0,1,1.39,1.57,4,4,0,0,1,.6,1.95c0,1.06-.47,1.24-.47,1.24s-2.37-.83-5.71-2.32-2.94-3.65-2.94-3.65V32l5.87-4.43V3H54m0-1H38.65a1,1,0,0,0-1,1V27.1l-5.47,4.13a1,1,0,0,0-.4.8v7.41c-.06.59-.06,3,3.53,4.62,3.35,1.5,5.69,2.32,5.79,2.35a1,1,0,0,0,.33.06.89.89,0,0,0,.36-.07c.19-.07,1.11-.51,1.11-2.17a4.89,4.89,0,0,0-.76-2.5,9,9,0,0,0-1.58-1.79c-.59-.49-1.68-1.46-2.23-1.95v-.8L43.68,36a5.25,5.25,0,0,0,2.17-1,1,1,0,0,0,.91.58h9.17a1,1,0,0,0,1-1V31.26a1,1,0,0,0-.77-1h0a2,2,0,0,1-.81-.56A2.53,2.53,0,0,1,55,28.4V3a1,1,0,0,0-1-1Z"/></g></svg>