<svg id="Layer_1" data-name="Layer 1" xmlns="http://www.w3.org/2000/svg" viewBox="0 0 90 100"><defs><style>.cls-1{fill:#fff;}.cls-1,.cls-3,.cls-4{stroke:#74af27;stroke-miterlimit:10;}.cls-2{fill:#74af27;}.cls-3,.cls-4{fill:none;}.cls-3{stroke-width:0.95px;}</style></defs><title>EV-Quality-Secure</title><circle class="cls-1" cx="45" cy="37.74" r="28.35"/><path class="cls-2" d="M30.88,76.07l.44-.53a3,3,0,0,0,2.16.9c.85,0,1.41-.45,1.41-1.07v0c0-.59-.32-.92-1.64-1.2s-2.12-.78-2.12-1.82v0a1.86,1.86,0,0,1,2.07-1.72,3.32,3.32,0,0,1,2.22.78l-.42.55a2.75,2.75,0,0,0-1.82-.69c-.82,0-1.34.45-1.34,1v0c0,.59.33.93,1.71,1.22s2.06.82,2.06,1.79h0c0,1.08-.9,1.79-2.16,1.79A3.71,3.71,0,0,1,30.88,76.07Z"/><path class="cls-2" d="M36.38,74.67v0a2.29,2.29,0,0,1,2.23-2.42,2.22,2.22,0,0,1,2.17,2.46,1.77,1.77,0,0,1,0,.23H37.08a1.63,1.63,0,0,0,1.64,1.57,1.92,1.92,0,0,0,1.47-.66l.43.39a2.42,2.42,0,0,1-1.92.87A2.31,2.31,0,0,1,36.38,74.67Zm3.7-.27a1.53,1.53,0,0,0-1.49-1.58,1.6,1.6,0,0,0-1.51,1.58Z"/><path class="cls-2" d="M41.44,74.68v0a2.4,2.4,0,0,1,2.38-2.43,2.43,2.43,0,0,1,1.87.83l-.46.49a1.89,1.89,0,0,0-1.42-.71,1.72,1.72,0,0,0-1.66,1.8v0a1.74,1.74,0,0,0,1.71,1.81,1.91,1.91,0,0,0,1.42-.69l.44.41a2.4,2.4,0,0,1-4.28-1.51Z"/><path class="cls-2" d="M46.52,75.22V72.33h.69v2.72a1.25,1.25,0,0,0,1.29,1.41A1.38,1.38,0,0,0,49.9,75V72.33h.68V77H49.9v-.81a1.79,1.79,0,0,1-1.6.9A1.7,1.7,0,0,1,46.52,75.22Z"/><path class="cls-2" d="M51.87,72.33h.69v1.22a2,2,0,0,1,1.9-1.3V73h-.05a1.88,1.88,0,0,0-1.85,2.13V77h-.69Z"/><path class="cls-2" d="M54.76,74.67v0A2.29,2.29,0,0,1,57,72.23a2.22,2.22,0,0,1,2.17,2.46,1.77,1.77,0,0,1,0,.23H55.46a1.63,1.63,0,0,0,1.64,1.57,1.89,1.89,0,0,0,1.46-.66l.44.39a2.42,2.42,0,0,1-1.92.87A2.31,2.31,0,0,1,54.76,74.67Zm3.7-.27A1.54,1.54,0,0,0,57,72.82a1.6,1.6,0,0,0-1.51,1.58Z"/><path class="cls-3" d="M44.76,24.27c3.05,0,5.28,2.79,5.3,7.37h3.7c0-6.67-4-11-9-11s-9,4.36-9,11h3.83C39.61,27.06,41.7,24.27,44.76,24.27Z"/><path class="cls-4" d="M57.15,35.85A4.21,4.21,0,0,0,53,31.64H37.05a4.21,4.21,0,0,0-4.2,4.21V49.3a4.21,4.21,0,0,0,4.2,4.21H53a4.21,4.21,0,0,0,4.2-4.21ZM46.76,44.14v4.53a1.84,1.84,0,0,1-3.67,0V44.14A4.08,4.08,0,0,1,41,40.77,3.77,3.77,0,0,1,44.79,37a3.89,3.89,0,0,1,3.91,3.77A4.33,4.33,0,0,1,46.76,44.14Z"/></svg>