<svg id="Layer_1" data-name="Layer 1" xmlns="http://www.w3.org/2000/svg" viewBox="0 0 90 100"><defs><style>.cls-1{fill:#fff;stroke-miterlimit:10;}.cls-1,.cls-3{stroke:#74af27;}.cls-2{fill:#74af27;}.cls-3{fill:none;stroke-linecap:round;stroke-linejoin:round;}</style></defs><title>EV-Quality-UVStabilised</title><circle class="cls-1" cx="45" cy="37.74" r="28.35"/><path class="cls-2" d="M39.14,74.35V70.68h.71V74.3c0,1.36.73,2.13,1.92,2.13s1.9-.7,1.9-2.08V70.68h.72v3.61a2.63,2.63,0,1,1-5.25.06Z"/><path class="cls-2" d="M45.26,70.68h.79l2.24,5.43,2.25-5.43h.77L48.6,77H48Z"/><path class="cls-2" d="M25,87.07l.44-.53a3,3,0,0,0,2.16.9c.85,0,1.41-.45,1.41-1.07v0c0-.59-.32-.92-1.64-1.2s-2.12-.78-2.12-1.82v0a1.86,1.86,0,0,1,2.07-1.72,3.32,3.32,0,0,1,2.22.78l-.42.55a2.75,2.75,0,0,0-1.82-.69c-.81,0-1.34.45-1.34,1v0c0,.59.33.93,1.71,1.22s2.06.82,2.06,1.79h0c0,1.08-.9,1.79-2.16,1.79A3.72,3.72,0,0,1,25,87.07Z"/><path class="cls-2" d="M31,86.75V83.94h-.64v-.61H31v-1.4h.7v1.4h1.47v.61H31.66v2.72a.69.69,0,0,0,.78.78,1.46,1.46,0,0,0,.68-.17v.6a1.86,1.86,0,0,1-.84.2A1.19,1.19,0,0,1,31,86.75Z"/><path class="cls-2" d="M33.74,86.63h0c0-1,.81-1.51,2-1.51a5.24,5.24,0,0,1,1.43.2v-.16c0-.84-.52-1.27-1.39-1.27a3.33,3.33,0,0,0-1.41.34l-.21-.56a3.76,3.76,0,0,1,1.69-.39,2.07,2.07,0,0,1,1.51.51,1.87,1.87,0,0,1,.47,1.36V88h-.66v-.71a2,2,0,0,1-1.69.8A1.56,1.56,0,0,1,33.74,86.63Zm3.43-.35v-.45a4.85,4.85,0,0,0-1.37-.2c-.88,0-1.36.38-1.36,1v0c0,.58.54.93,1.17.93A1.42,1.42,0,0,0,37.17,86.28Z"/><path class="cls-2" d="M39.72,87.09V88H39V81.41h.69v2.86a2.1,2.1,0,0,1,1.78-1,2.28,2.28,0,0,1,2.23,2.41v0a2.28,2.28,0,0,1-2.23,2.42A2.08,2.08,0,0,1,39.72,87.09ZM43,85.67v0a1.68,1.68,0,0,0-1.64-1.8,1.74,1.74,0,0,0-1.69,1.79v0a1.73,1.73,0,0,0,1.69,1.8A1.64,1.64,0,0,0,43,85.67Z"/><path class="cls-2" d="M44.75,81.55h.79v.76h-.79Zm0,1.78h.69V88H44.8Z"/><path class="cls-2" d="M46.89,81.41h.7V88h-.7Z"/><path class="cls-2" d="M49,81.55h.79v.76H49Zm0,1.78h.69V88H49Z"/><path class="cls-2" d="M50.64,87.39,51,86.9a2.75,2.75,0,0,0,1.61.59c.56,0,1-.29,1-.74v0c0-.46-.55-.64-1.16-.81s-1.54-.46-1.54-1.32v0a1.41,1.41,0,0,1,1.59-1.33,3.24,3.24,0,0,1,1.67.51l-.31.53a2.65,2.65,0,0,0-1.38-.45c-.55,0-.9.28-.9.67v0c0,.44.57.61,1.2.8s1.49.5,1.49,1.33v0a1.47,1.47,0,0,1-1.66,1.4A3.22,3.22,0,0,1,50.64,87.39Z"/><path class="cls-2" d="M55,85.67v0a2.29,2.29,0,0,1,2.23-2.42,2.22,2.22,0,0,1,2.17,2.46,1.77,1.77,0,0,1,0,.23H55.65a1.63,1.63,0,0,0,1.64,1.57,1.92,1.92,0,0,0,1.47-.66l.43.39a2.42,2.42,0,0,1-1.92.87A2.31,2.31,0,0,1,55,85.67Zm3.7-.27a1.53,1.53,0,0,0-1.49-1.58,1.6,1.6,0,0,0-1.51,1.58Z"/><path class="cls-2" d="M60,85.67v0a2.29,2.29,0,0,1,2.23-2.42,2.11,2.11,0,0,1,1.78,1V81.41h.69V88H64v-.94a2.09,2.09,0,0,1-1.78,1A2.27,2.27,0,0,1,60,85.67Zm4,0v0a1.73,1.73,0,0,0-1.69-1.79,1.64,1.64,0,0,0-1.63,1.79v0a1.68,1.68,0,0,0,1.63,1.8A1.74,1.74,0,0,0,64.06,85.66Z"/><line class="cls-3" x1="29.01" y1="56.9" x2="60.72" y2="56.9"/><line class="cls-3" x1="29.01" y1="52.92" x2="60.72" y2="52.92"/><polygon class="cls-2" points="29.6 40 31.59 40 37.76 46.06 39.55 44.57 41.14 50.44 35.07 48.84 36.86 47.16 29.6 40"/><polygon class="cls-2" points="42.73 48.7 43.28 50.44 48.55 45.22 50.24 46.81 51.93 40.64 45.81 42.28 47.33 43.92 42.73 48.7"/><polygon class="cls-2" points="49.51 50.39 51.9 50.39 57.38 44.97 58.82 46.51 60.99 40.25 54.65 42.09 56.19 43.68 49.51 50.39"/><circle class="cls-2" cx="45.32" cy="26.28" r="5.23" transform="translate(-4.14 9) rotate(-10.85)"/><path class="cls-2" d="M44.77,18.68a.56.56,0,1,0,1.11,0V16.32a.56.56,0,0,0-1.11,0Z"/><path class="cls-2" d="M44.77,33.87v2.36a.56.56,0,0,0,1.11,0V33.87a.56.56,0,1,0-1.11,0Z"/><path class="cls-2" d="M41.53,20.25a.52.52,0,0,0,.27-.07.56.56,0,0,0,.21-.76l-1.18-2a.56.56,0,0,0-1,.55L41,20A.58.58,0,0,0,41.53,20.25Z"/><path class="cls-2" d="M48.84,32.37a.56.56,0,0,0-.2.76l1.18,2a.55.55,0,0,0,.48.28.58.58,0,0,0,.28-.07.56.56,0,0,0,.2-.76l-1.18-2A.56.56,0,0,0,48.84,32.37Z"/><path class="cls-2" d="M36.22,21a.56.56,0,0,0,.21.76l2,1.18a.52.52,0,0,0,.27.07.58.58,0,0,0,.49-.27A.56.56,0,0,0,39,22l-2-1.18A.55.55,0,0,0,36.22,21Z"/><path class="cls-2" d="M54.22,30.77l-2-1.18a.56.56,0,1,0-.56,1l2,1.18a.6.6,0,0,0,.28.08.56.56,0,0,0,.28-1Z"/><path class="cls-2" d="M38.28,26.28a.56.56,0,0,0-.55-.56H35.37a.56.56,0,1,0,0,1.11h2.36A.55.55,0,0,0,38.28,26.28Z"/><path class="cls-2" d="M55.28,25.72H52.92a.56.56,0,1,0,0,1.11h2.36a.56.56,0,0,0,0-1.11Z"/><path class="cls-2" d="M38.47,29.59l-2,1.18a.56.56,0,0,0-.21.76.55.55,0,0,0,.48.28.57.57,0,0,0,.28-.08l2-1.18a.56.56,0,0,0,.21-.76A.57.57,0,0,0,38.47,29.59Z"/><path class="cls-2" d="M53.66,20.82l-2,1.18a.55.55,0,0,0,.28,1,.55.55,0,0,0,.28-.07l2-1.18a.56.56,0,1,0-.56-1Z"/><path class="cls-2" d="M41,32.57l-1.18,2a.56.56,0,0,0,.21.76.56.56,0,0,0,.76-.21l1.18-2a.56.56,0,0,0-.21-.76A.57.57,0,0,0,41,32.57Z"/><path class="cls-2" d="M48.84,20.18a.58.58,0,0,0,.28.07A.56.56,0,0,0,49.6,20l1.18-2.05a.55.55,0,1,0-1-.55l-1.18,2A.56.56,0,0,0,48.84,20.18Z"/></svg>