<svg id="Layer_1" data-name="Layer 1" xmlns="http://www.w3.org/2000/svg" viewBox="0 0 90 100"><defs><style>.cls-1{fill:#fff;stroke:#74af27;stroke-miterlimit:10;}.cls-2{fill:#74af27;}</style></defs><title>EV-Quality-WeatherResisitant</title><circle class="cls-1" cx="45" cy="37.74" r="28.35"/><path class="cls-2" d="M27.2,70.68H28l1.8,5.25,1.73-5.26h.58l1.73,5.26,1.8-5.25h.75L34.12,77h-.61l-1.73-5.11L30.05,77h-.6Z"/><path class="cls-2" d="M36.39,74.67v0a2.3,2.3,0,0,1,2.23-2.42,2.22,2.22,0,0,1,2.17,2.46,1.77,1.77,0,0,1,0,.23H37.09a1.63,1.63,0,0,0,1.64,1.57,1.92,1.92,0,0,0,1.47-.66l.43.39a2.4,2.4,0,0,1-1.92.87A2.32,2.32,0,0,1,36.39,74.67Zm3.7-.27a1.53,1.53,0,0,0-1.48-1.58,1.61,1.61,0,0,0-1.52,1.58Z"/><path class="cls-2" d="M41.39,75.63h0c0-1,.81-1.51,2-1.51a5.24,5.24,0,0,1,1.43.2v-.16c0-.84-.52-1.27-1.39-1.27a3.33,3.33,0,0,0-1.41.34l-.21-.56a3.76,3.76,0,0,1,1.69-.39,2.07,2.07,0,0,1,1.51.51,1.87,1.87,0,0,1,.47,1.36V77h-.66v-.71a2,2,0,0,1-1.69.8A1.56,1.56,0,0,1,41.39,75.63Zm3.43-.35v-.45a4.85,4.85,0,0,0-1.37-.2c-.88,0-1.36.38-1.36,1v0c0,.58.54.93,1.17.93A1.42,1.42,0,0,0,44.82,75.28Z"/><path class="cls-2" d="M46.88,75.75V72.94h-.65v-.61h.65v-1.4h.69v1.4h1.48v.61H47.57v2.72a.69.69,0,0,0,.78.78,1.43,1.43,0,0,0,.68-.17v.6a1.83,1.83,0,0,1-.84.2A1.18,1.18,0,0,1,46.88,75.75Z"/><path class="cls-2" d="M50,70.41h.69v2.73a1.78,1.78,0,0,1,1.6-.91,1.7,1.7,0,0,1,1.78,1.87V77h-.69V74.27a1.24,1.24,0,0,0-1.29-1.41,1.38,1.38,0,0,0-1.4,1.46V77H50Z"/><path class="cls-2" d="M55,74.67v0a2.29,2.29,0,0,1,2.23-2.42,2.22,2.22,0,0,1,2.17,2.46,1.77,1.77,0,0,1,0,.23H55.69a1.63,1.63,0,0,0,1.64,1.57,1.9,1.9,0,0,0,1.46-.66l.44.39a2.42,2.42,0,0,1-1.92.87A2.31,2.31,0,0,1,55,74.67Zm3.7-.27a1.54,1.54,0,0,0-1.49-1.58,1.6,1.6,0,0,0-1.51,1.58Z"/><path class="cls-2" d="M60.33,72.33H61v1.22a2,2,0,0,1,1.9-1.3V73h-.05A1.88,1.88,0,0,0,61,75.13V77h-.69Z"/><path class="cls-2" d="M26.46,81.68h2.71a2.53,2.53,0,0,1,1.8.63,1.78,1.78,0,0,1,.48,1.25h0a1.84,1.84,0,0,1-1.71,1.84L31.68,88H30.8L29,85.54h-1.8V88h-.72Zm2.65,3.22c.95,0,1.62-.49,1.62-1.3v0c0-.77-.59-1.24-1.61-1.24H27.18V84.9Z"/><path class="cls-2" d="M32.21,85.67v0a2.29,2.29,0,0,1,2.23-2.42,2.22,2.22,0,0,1,2.17,2.46,1.77,1.77,0,0,1,0,.23H32.91a1.63,1.63,0,0,0,1.64,1.57A1.92,1.92,0,0,0,36,86.83l.43.39a2.42,2.42,0,0,1-1.92.87A2.31,2.31,0,0,1,32.21,85.67Zm3.7-.27a1.54,1.54,0,0,0-1.49-1.58,1.6,1.6,0,0,0-1.51,1.58Z"/><path class="cls-2" d="M37.17,87.39l.35-.49a2.75,2.75,0,0,0,1.61.59c.56,0,1-.29,1-.74v0c0-.46-.55-.64-1.16-.81s-1.54-.46-1.54-1.32v0A1.41,1.41,0,0,1,39,83.25a3.24,3.24,0,0,1,1.67.51l-.32.53A2.59,2.59,0,0,0,39,83.84c-.55,0-.9.28-.9.67v0c0,.44.57.61,1.19.8s1.5.5,1.5,1.33v0a1.47,1.47,0,0,1-1.66,1.4A3.22,3.22,0,0,1,37.17,87.39Z"/><path class="cls-2" d="M41.78,81.55h.8v.76h-.8Zm0,1.78h.69V88h-.69Z"/><path class="cls-2" d="M43.47,87.39l.36-.49a2.75,2.75,0,0,0,1.61.59c.56,0,1-.29,1-.74v0c0-.46-.55-.64-1.16-.81s-1.54-.46-1.54-1.32v0a1.41,1.41,0,0,1,1.58-1.33,3.24,3.24,0,0,1,1.68.51l-.32.53a2.59,2.59,0,0,0-1.37-.45c-.55,0-.9.28-.9.67v0c0,.44.57.61,1.19.8s1.5.5,1.5,1.33v0a1.47,1.47,0,0,1-1.66,1.4A3.25,3.25,0,0,1,43.47,87.39Z"/><path class="cls-2" d="M48.23,86.75V83.94h-.65v-.61h.65v-1.4h.69v1.4H50.4v.61H48.92v2.72a.69.69,0,0,0,.78.78,1.43,1.43,0,0,0,.68-.17v.6a1.83,1.83,0,0,1-.84.2A1.18,1.18,0,0,1,48.23,86.75Z"/><path class="cls-2" d="M51,86.63h0c0-1,.81-1.51,2-1.51a5.18,5.18,0,0,1,1.43.2v-.16c0-.84-.51-1.27-1.39-1.27a3.33,3.33,0,0,0-1.41.34l-.21-.56a3.79,3.79,0,0,1,1.69-.39,2.06,2.06,0,0,1,1.51.51,1.88,1.88,0,0,1,.48,1.36V88h-.67v-.71a2,2,0,0,1-1.68.8A1.56,1.56,0,0,1,51,86.63Zm3.43-.35v-.45a4.8,4.8,0,0,0-1.37-.2c-.87,0-1.36.38-1.36,1v0c0,.58.54.93,1.17.93A1.41,1.41,0,0,0,54.43,86.28Z"/><path class="cls-2" d="M56.29,83.33H57v.81a1.79,1.79,0,0,1,1.6-.91,1.7,1.7,0,0,1,1.78,1.87V88h-.69V85.27a1.24,1.24,0,0,0-1.29-1.41A1.38,1.38,0,0,0,57,85.32V88h-.69Z"/><path class="cls-2" d="M61.81,86.75V83.94h-.65v-.61h.65v-1.4h.69v1.4H64v.61H62.5v2.72a.69.69,0,0,0,.78.78,1.43,1.43,0,0,0,.68-.17v.6a1.8,1.8,0,0,1-.84.2A1.18,1.18,0,0,1,61.81,86.75Z"/><path class="cls-2" d="M54.2,33.39a3,3,0,0,1-.68.49l-.22.1A13.09,13.09,0,0,1,55.17,39a4,4,0,0,0-2.79-1.14,3.92,3.92,0,0,0-2.85,1.22A15.44,15.44,0,0,0,44.28,28a13.1,13.1,0,0,1,5.77,2.46,3.51,3.51,0,0,1,.55-.93,14.12,14.12,0,0,0-8-2.77h-.69a.67.67,0,0,0-.2,0A14.22,14.22,0,0,0,28,40.94a.54.54,0,0,0,.54.54h.07a.55.55,0,0,0,.52-.39A2.91,2.91,0,0,1,31.9,39a2.86,2.86,0,0,1,2.76,2.09.53.53,0,0,0,.52.4h.26a.53.53,0,0,0,.52-.4,2.88,2.88,0,0,1,5.54,0,.53.53,0,0,0,.15.26v11a2.88,2.88,0,1,1-5.75,0,.55.55,0,0,0-.55-.54.54.54,0,0,0-.54.54,4.15,4.15,0,0,0,.13,1.12,4,4,0,0,0,3.85,2.94,3.89,3.89,0,0,0,1-.13,4,4,0,0,0,2.94-3.93V41.19a1,1,0,0,0,0-.1A2.91,2.91,0,0,1,45.56,39a2.85,2.85,0,0,1,2.75,2.09.55.55,0,0,0,.53.4h.26a.53.53,0,0,0,.52-.4,2.87,2.87,0,0,1,5.53,0,.55.55,0,0,0,.53.4h.17a.54.54,0,0,0,.54-.54A14.13,14.13,0,0,0,54.2,33.39ZM34.79,39.17A3.92,3.92,0,0,0,31.9,37.9a4,4,0,0,0-2.67,1A13.14,13.14,0,0,1,40,28,15.21,15.21,0,0,0,34.79,39.17Zm3.93-1.27a3.91,3.91,0,0,0-2.83,1.2,14.16,14.16,0,0,1,5.76-11V39.19A4,4,0,0,0,38.72,37.9Zm6.84,0a4,4,0,0,0-2.82,1.19v-11a14.14,14.14,0,0,1,5.7,11A4,4,0,0,0,45.56,37.9Z"/><path class="cls-2" d="M53.38,20.5l-3.31,2a2.71,2.71,0,0,0-1.32,2,1.83,1.83,0,0,0,2.7,1.79,2.72,2.72,0,0,0,1.37-2Z"/><path class="cls-2" d="M55.3,27,52,29a2.71,2.71,0,0,0-1.32,2,1.83,1.83,0,0,0,2.7,1.79,2.72,2.72,0,0,0,1.37-2Z"/><path class="cls-2" d="M62,23.3l-3.31,2a2.68,2.68,0,0,0-1.32,2,1.72,1.72,0,0,0,.8,1.71,1.75,1.75,0,0,0,1.9.08,2.68,2.68,0,0,0,1.36-2Z"/></svg>