<svg id="Layer_1" data-name="Layer 1" xmlns="http://www.w3.org/2000/svg" xmlns:xlink="http://www.w3.org/1999/xlink" viewBox="0 0 90 100"><defs><style>.cls-1,.cls-5,.cls-6{fill:none;}.cls-2{fill:#fff;}.cls-2,.cls-5,.cls-6{stroke:#74af27;}.cls-2,.cls-6{stroke-miterlimit:10;}.cls-3{fill:#74af27;}.cls-4{clip-path:url(#clip-path);}.cls-5{stroke-linecap:round;stroke-linejoin:round;stroke-width:0.75px;}</style><clipPath id="clip-path"><circle class="cls-1" cx="45" cy="37.74" r="28.35"/></clipPath></defs><title>EV-Quality-ImpactResistant</title><circle class="cls-2" cx="45" cy="37.74" r="28.35"/><path class="cls-3" d="M31.06,70.68h.71V77h-.71Z"/><path class="cls-3" d="M33.23,72.33h.69v.79a1.71,1.71,0,0,1,1.5-.89,1.59,1.59,0,0,1,1.5.93,1.86,1.86,0,0,1,1.64-.93,1.68,1.68,0,0,1,1.73,1.88V77h-.7V74.27c0-.9-.45-1.41-1.2-1.41a1.29,1.29,0,0,0-1.28,1.44V77h-.69V74.25c0-.87-.46-1.39-1.2-1.39a1.35,1.35,0,0,0-1.3,1.47V77h-.69Z"/><path class="cls-3" d="M41.52,72.33h.69v.94a2.1,2.1,0,0,1,1.78-1,2.28,2.28,0,0,1,2.23,2.41v0A2.28,2.28,0,0,1,44,77.08a2.08,2.08,0,0,1-1.78-1v2.34h-.69Zm4,2.34v0a1.68,1.68,0,0,0-1.64-1.8,1.74,1.74,0,0,0-1.69,1.79v0a1.73,1.73,0,0,0,1.69,1.8A1.64,1.64,0,0,0,45.51,74.67Z"/><path class="cls-3" d="M46.87,75.63h0c0-1,.81-1.51,2-1.51a5.12,5.12,0,0,1,1.43.2v-.16c0-.84-.51-1.27-1.38-1.27a3.41,3.41,0,0,0-1.42.34l-.2-.56A3.73,3.73,0,0,1,49,72.27a2,2,0,0,1,1.5.51A1.83,1.83,0,0,1,51,74.14V77h-.67v-.71a2,2,0,0,1-1.68.8A1.57,1.57,0,0,1,46.87,75.63Zm3.43-.35v-.45a4.8,4.8,0,0,0-1.37-.2c-.87,0-1.36.38-1.36,1v0c0,.58.54.93,1.18.93A1.41,1.41,0,0,0,50.3,75.28Z"/><path class="cls-3" d="M51.88,74.68v0a2.4,2.4,0,0,1,2.38-2.43,2.43,2.43,0,0,1,1.87.83l-.46.49a1.89,1.89,0,0,0-1.42-.71,1.72,1.72,0,0,0-1.66,1.8v0a1.74,1.74,0,0,0,1.71,1.81,1.91,1.91,0,0,0,1.42-.69l.44.41a2.4,2.4,0,0,1-4.28-1.51Z"/><path class="cls-3" d="M57.28,75.75V72.94h-.65v-.61h.65v-1.4H58v1.4h1.48v.61H58v2.72a.69.69,0,0,0,.78.78,1.43,1.43,0,0,0,.68-.17v.6a1.83,1.83,0,0,1-.84.2A1.18,1.18,0,0,1,57.28,75.75Z"/><path class="cls-3" d="M26.46,81.68h2.71a2.53,2.53,0,0,1,1.8.63,1.78,1.78,0,0,1,.48,1.25h0a1.84,1.84,0,0,1-1.71,1.84L31.68,88H30.8L29,85.54h-1.8V88h-.72Zm2.65,3.22c.95,0,1.62-.49,1.62-1.3v0c0-.77-.59-1.24-1.61-1.24H27.18V84.9Z"/><path class="cls-3" d="M32.21,85.67v0a2.29,2.29,0,0,1,2.23-2.42,2.22,2.22,0,0,1,2.17,2.46,1.77,1.77,0,0,1,0,.23H32.91a1.63,1.63,0,0,0,1.64,1.57A1.92,1.92,0,0,0,36,86.83l.43.39a2.42,2.42,0,0,1-1.92.87A2.31,2.31,0,0,1,32.21,85.67Zm3.7-.27a1.54,1.54,0,0,0-1.49-1.58,1.6,1.6,0,0,0-1.51,1.58Z"/><path class="cls-3" d="M37.17,87.39l.35-.49a2.75,2.75,0,0,0,1.61.59c.56,0,1-.29,1-.74v0c0-.46-.55-.64-1.16-.81s-1.54-.46-1.54-1.32v0A1.41,1.41,0,0,1,39,83.25a3.24,3.24,0,0,1,1.67.51l-.32.53A2.59,2.59,0,0,0,39,83.84c-.55,0-.9.28-.9.67v0c0,.44.57.61,1.19.8s1.5.5,1.5,1.33v0a1.47,1.47,0,0,1-1.66,1.4A3.22,3.22,0,0,1,37.17,87.39Z"/><path class="cls-3" d="M41.78,81.55h.8v.76h-.8Zm0,1.78h.69V88h-.69Z"/><path class="cls-3" d="M43.47,87.39l.36-.49a2.75,2.75,0,0,0,1.61.59c.56,0,1-.29,1-.74v0c0-.46-.55-.64-1.16-.81s-1.54-.46-1.54-1.32v0a1.41,1.41,0,0,1,1.58-1.33,3.24,3.24,0,0,1,1.68.51l-.32.53a2.59,2.59,0,0,0-1.37-.45c-.55,0-.9.28-.9.67v0c0,.44.57.61,1.19.8s1.5.5,1.5,1.33v0a1.47,1.47,0,0,1-1.66,1.4A3.25,3.25,0,0,1,43.47,87.39Z"/><path class="cls-3" d="M48.23,86.75V83.94h-.65v-.61h.65v-1.4h.69v1.4H50.4v.61H48.92v2.72a.69.69,0,0,0,.78.78,1.43,1.43,0,0,0,.68-.17v.6a1.83,1.83,0,0,1-.84.2A1.18,1.18,0,0,1,48.23,86.75Z"/><path class="cls-3" d="M51,86.63h0c0-1,.81-1.51,2-1.51a5.18,5.18,0,0,1,1.43.2v-.16c0-.84-.51-1.27-1.39-1.27a3.33,3.33,0,0,0-1.41.34l-.21-.56a3.79,3.79,0,0,1,1.69-.39,2.06,2.06,0,0,1,1.51.51,1.88,1.88,0,0,1,.48,1.36V88h-.67v-.71a2,2,0,0,1-1.68.8A1.56,1.56,0,0,1,51,86.63Zm3.43-.35v-.45a4.8,4.8,0,0,0-1.37-.2c-.87,0-1.36.38-1.36,1v0c0,.58.54.93,1.17.93A1.41,1.41,0,0,0,54.43,86.28Z"/><path class="cls-3" d="M56.29,83.33H57v.81a1.79,1.79,0,0,1,1.6-.91,1.7,1.7,0,0,1,1.78,1.87V88h-.69V85.27a1.24,1.24,0,0,0-1.29-1.41A1.38,1.38,0,0,0,57,85.32V88h-.69Z"/><path class="cls-3" d="M61.81,86.75V83.94h-.65v-.61h.65v-1.4h.69v1.4H64v.61H62.5v2.72a.69.69,0,0,0,.78.78,1.43,1.43,0,0,0,.68-.17v.6a1.8,1.8,0,0,1-.84.2A1.18,1.18,0,0,1,61.81,86.75Z"/><g class="cls-4"><polyline class="cls-5" points="54.59 50.19 55.08 53.48 47.68 48.41 43.63 56.4 40.6 47.92 32.6 51.97 35.14 43.38 26.28 41.97 33.41 36.46 27.03 30.14 36.01 29.87 34.65 21.01 42.06 26.09 46.16 18.09 49.14 26.57 57.13 22.52 54.59 31.11 63.46 32.52 56.38 38.03 62.7 44.35 60.05 44.46"/><path class="cls-3" d="M51.51,28.85h-.38c-3.67,0-8.27,4.81-10.48,7.73a1.82,1.82,0,0,0-.38,1.18v.65a1.08,1.08,0,0,1-.43,1,1.24,1.24,0,0,1-1.14.21c-.22-.05-.49-.11-.59,0l-1.19,1.46a.59.59,0,0,0,0,.81l3.08,2.7a.58.58,0,0,0,.81,0l1.25-1.41a.59.59,0,0,0-.06-.81.7.7,0,0,1-.22-.65,1.34,1.34,0,0,1,.33-.75A4,4,0,0,1,44,39.6a1.76,1.76,0,0,1,1.62.33L47,41.11a.5.5,0,0,0,.71,0l.05-.05a.09.09,0,0,1,.16,0l3.14,2.64,1.83-2.1-3.08-2.71a.1.1,0,0,1,0-.16.49.49,0,0,0,0-.7l-1.46-1.4a1.5,1.5,0,0,1-.54-.87c-.81-3.57,2.86-5.94,3.78-6.11.16-.05.33-.21.27-.37A.36.36,0,0,0,51.51,28.85Z"/><path class="cls-6" d="M55.46,48.13a6.29,6.29,0,0,1,1.89,2.92,3.17,3.17,0,0,0,.27.6c.06.05.06.11.11.16l8.92,8.7c1,.81,2.21,1,2.75.27l3-3.4c.6-.65.28-1.9-.64-2.71l-9.84-7.62s-.11,0-.16-.1a2.77,2.77,0,0,0-.65-.22A5.59,5.59,0,0,1,58,45.27l-3.84-3.4a.91.91,0,0,0-1.24.05l-1.41,1.62a.87.87,0,0,0,.11,1.24Z"/></g></svg>