<svg id="Layer_1" data-name="Layer 1" xmlns="http://www.w3.org/2000/svg" viewBox="0 0 90 100"><defs><style>.cls-1{fill:#fff;}.cls-1,.cls-3{stroke:#74af27;stroke-miterlimit:10;}.cls-2{fill:#74af27;}.cls-3{fill:none;}</style></defs><title>EV-Quality-FlameRetardant</title><circle class="cls-1" cx="45" cy="37.74" r="28.35"/><path class="cls-2" d="M32.75,70.68h4.52v.66H33.46v2.25h3.41v.65H33.46V77h-.71Z"/><path class="cls-2" d="M38.33,70.41H39V77h-.69Z"/><path class="cls-2" d="M40,75.63h0c0-1,.81-1.51,2-1.51a5.18,5.18,0,0,1,1.43.2v-.16c0-.84-.51-1.27-1.39-1.27a3.33,3.33,0,0,0-1.41.34l-.21-.56a3.8,3.8,0,0,1,1.7-.39,2,2,0,0,1,1.5.51,1.88,1.88,0,0,1,.48,1.36V77h-.67v-.71a2,2,0,0,1-1.68.8A1.56,1.56,0,0,1,40,75.63Zm3.43-.35v-.45a4.8,4.8,0,0,0-1.37-.2c-.87,0-1.36.38-1.36,1v0c0,.58.54.93,1.17.93A1.41,1.41,0,0,0,43.44,75.28Z"/><path class="cls-2" d="M45.3,72.33H46v.79a1.71,1.71,0,0,1,1.51-.89,1.58,1.58,0,0,1,1.49.93,1.87,1.87,0,0,1,1.64-.93,1.68,1.68,0,0,1,1.73,1.88V77h-.69V74.27c0-.9-.45-1.41-1.21-1.41a1.3,1.3,0,0,0-1.28,1.44V77h-.69V74.25c0-.87-.46-1.39-1.2-1.39A1.35,1.35,0,0,0,46,74.33V77H45.3Z"/><path class="cls-2" d="M53.3,74.67v0a2.3,2.3,0,0,1,2.23-2.42,2.22,2.22,0,0,1,2.17,2.46v.23H54a1.63,1.63,0,0,0,1.64,1.57,1.92,1.92,0,0,0,1.47-.66l.43.39a2.4,2.4,0,0,1-1.91.87A2.32,2.32,0,0,1,53.3,74.67ZM57,74.4a1.53,1.53,0,0,0-1.48-1.58A1.61,1.61,0,0,0,54,74.4Z"/><path class="cls-2" d="M24.76,81.68h2.71a2.53,2.53,0,0,1,1.8.63,1.78,1.78,0,0,1,.48,1.25h0A1.84,1.84,0,0,1,28,85.41L30,88H29.1l-1.82-2.45h-1.8V88h-.72Zm2.65,3.22c.95,0,1.62-.49,1.62-1.3v0c0-.77-.59-1.24-1.61-1.24H25.48V84.9Z"/><path class="cls-2" d="M30.51,85.67v0a2.29,2.29,0,0,1,2.23-2.42,2.22,2.22,0,0,1,2.17,2.46,1.77,1.77,0,0,1,0,.23H31.21a1.63,1.63,0,0,0,1.64,1.57,1.89,1.89,0,0,0,1.46-.66l.44.39a2.42,2.42,0,0,1-1.92.87A2.31,2.31,0,0,1,30.51,85.67Zm3.7-.27a1.54,1.54,0,0,0-1.49-1.58,1.6,1.6,0,0,0-1.51,1.58Z"/><path class="cls-2" d="M36.09,86.75V83.94h-.64v-.61h.64v-1.4h.7v1.4h1.47v.61H36.79v2.72a.69.69,0,0,0,.78.78,1.46,1.46,0,0,0,.68-.17v.6a1.86,1.86,0,0,1-.84.2A1.19,1.19,0,0,1,36.09,86.75Z"/><path class="cls-2" d="M38.87,86.63h0c0-1,.81-1.51,2-1.51a5.24,5.24,0,0,1,1.43.2v-.16c0-.84-.52-1.27-1.39-1.27a3.33,3.33,0,0,0-1.41.34l-.21-.56A3.76,3.76,0,0,1,41,83.27a2.07,2.07,0,0,1,1.51.51A1.87,1.87,0,0,1,43,85.14V88h-.66v-.71a2,2,0,0,1-1.69.8A1.56,1.56,0,0,1,38.87,86.63Zm3.43-.35v-.45a4.85,4.85,0,0,0-1.37-.2c-.88,0-1.36.38-1.36,1v0c0,.58.54.93,1.17.93A1.42,1.42,0,0,0,42.3,86.28Z"/><path class="cls-2" d="M44.16,83.33h.69v1.22a2,2,0,0,1,1.9-1.3V84h0a1.88,1.88,0,0,0-1.85,2.13V88h-.69Z"/><path class="cls-2" d="M47.07,85.67v0a2.29,2.29,0,0,1,2.23-2.42,2.11,2.11,0,0,1,1.78,1V81.41h.69V88h-.69v-.94a2.09,2.09,0,0,1-1.78,1A2.27,2.27,0,0,1,47.07,85.67Zm4,0v0a1.73,1.73,0,0,0-1.69-1.79,1.64,1.64,0,0,0-1.63,1.79v0a1.68,1.68,0,0,0,1.63,1.8A1.74,1.74,0,0,0,51.11,85.66Z"/><path class="cls-2" d="M52.7,86.63h0c0-1,.81-1.51,2-1.51a5.18,5.18,0,0,1,1.43.2v-.16c0-.84-.51-1.27-1.39-1.27a3.37,3.37,0,0,0-1.41.34l-.21-.56a3.8,3.8,0,0,1,1.7-.39,2,2,0,0,1,1.5.51,1.88,1.88,0,0,1,.48,1.36V88h-.67v-.71a2,2,0,0,1-1.68.8A1.56,1.56,0,0,1,52.7,86.63Zm3.43-.35v-.45a4.8,4.8,0,0,0-1.37-.2c-.87,0-1.36.38-1.36,1v0c0,.58.54.93,1.17.93A1.41,1.41,0,0,0,56.13,86.28Z"/><path class="cls-2" d="M58,83.33h.69v.81a1.79,1.79,0,0,1,1.6-.91,1.7,1.7,0,0,1,1.78,1.87V88h-.69V85.27a1.24,1.24,0,0,0-1.29-1.41,1.38,1.38,0,0,0-1.4,1.46V88H58Z"/><path class="cls-2" d="M63.51,86.75V83.94h-.65v-.61h.65v-1.4h.69v1.4h1.48v.61H64.2v2.72a.69.69,0,0,0,.78.78,1.43,1.43,0,0,0,.68-.17v.6a1.8,1.8,0,0,1-.84.2A1.19,1.19,0,0,1,63.51,86.75Z"/><path class="cls-2" d="M40.17,28.21c-.35.36-.71.7-1.07,1L53.8,44a20.33,20.33,0,0,0-.31-12.8c-2-5.32-5.93-8.81-10.71-11.48a19.91,19.91,0,0,1,.23,3A8.73,8.73,0,0,1,40.17,28.21Z"/><path class="cls-2" d="M58,48.18c.65-3.22,0-8.23-1.45-9.61a10.8,10.8,0,0,1-1.83,6.33Z"/><path class="cls-2" d="M36.26,32.07a24.53,24.53,0,0,0-5.59,9.11c-1.13,3.56-1,7,1.27,10.11A17.94,17.94,0,0,0,39.38,57s.06,0,.13,0a3.86,3.86,0,0,1-.31-.51,34.31,34.31,0,0,1-1.86-4,7.83,7.83,0,0,1,3.33-9.64c.12-.08.26-.13.52-.26a7.57,7.57,0,0,0-.47,5.6,9,9,0,0,0,3.45,4.46C45.6,51,47,49.46,47.08,47.16c3,3,3.41,6.25,1.25,9.93,3.21-1,6-2.52,7.87-5.08Z"/><line class="cls-3" x1="24.84" y1="17.82" x2="65.19" y2="58.17"/></svg>