<svg id="Layer_1" data-name="Layer 1" xmlns="http://www.w3.org/2000/svg" viewBox="0 0 90 100"><defs><style>.cls-1{fill:#fff;stroke-miterlimit:10;}.cls-1,.cls-3{stroke:#74af27;}.cls-2{fill:#74af27;}.cls-3{fill:none;stroke-linecap:round;stroke-linejoin:round;stroke-width:0.61px;}</style></defs><title>EV-Quality-IP55WeatherProof-UVStabilised</title><circle class="cls-1" cx="45" cy="37.74" r="28.35"/><path class="cls-2" d="M4.52,70.68h.71V77H4.52Z"/><path class="cls-2" d="M6.8,70.68H9.16c1.43,0,2.36.76,2.36,2v0c0,1.36-1.13,2.06-2.47,2.06H7.52V77H6.8Zm2.27,3.43c1,0,1.73-.55,1.73-1.38v0c0-.9-.67-1.37-1.69-1.37H7.52v2.77Z"/><path class="cls-2" d="M12.13,76.09l.47-.51a2.65,2.65,0,0,0,1.79.87,1.42,1.42,0,0,0,1.52-1.4v0a1.39,1.39,0,0,0-1.56-1.32,2.73,2.73,0,0,0-1.33.36l-.47-.32.18-3.07h3.62v.66h-3l-.14,2a2.88,2.88,0,0,1,1.25-.28A2,2,0,0,1,16.63,75h0a2.06,2.06,0,0,1-2.25,2.07A3.21,3.21,0,0,1,12.13,76.09Z"/><path class="cls-2" d="M17.37,76.09l.47-.51a2.65,2.65,0,0,0,1.79.87,1.42,1.42,0,0,0,1.52-1.4v0a1.4,1.4,0,0,0-1.57-1.32,2.69,2.69,0,0,0-1.32.36l-.48-.32L18,70.68h3.63v.66h-3l-.14,2a2.87,2.87,0,0,1,1.24-.28A2,2,0,0,1,21.87,75h0a2.06,2.06,0,0,1-2.25,2.07A3.21,3.21,0,0,1,17.37,76.09Z"/><path class="cls-2" d="M25,70.68h.77l1.8,5.25,1.73-5.26h.58l1.73,5.26,1.8-5.25h.75L31.88,77h-.6l-1.73-5.11L27.81,77h-.59Z"/><path class="cls-2" d="M34.15,74.67v0a2.3,2.3,0,0,1,2.24-2.42,2.22,2.22,0,0,1,2.17,2.46,1.77,1.77,0,0,1,0,.23H34.86a1.63,1.63,0,0,0,1.64,1.57A1.92,1.92,0,0,0,38,75.83l.43.39a2.38,2.38,0,0,1-1.91.87A2.32,2.32,0,0,1,34.15,74.67Zm3.7-.27a1.53,1.53,0,0,0-1.48-1.58,1.6,1.6,0,0,0-1.51,1.58Z"/><path class="cls-2" d="M39.15,75.63h0c0-1,.81-1.51,2-1.51a5.18,5.18,0,0,1,1.43.2v-.16c0-.84-.51-1.27-1.39-1.27a3.33,3.33,0,0,0-1.41.34l-.21-.56a3.8,3.8,0,0,1,1.7-.39,2,2,0,0,1,1.5.51,1.88,1.88,0,0,1,.48,1.36V77h-.67v-.71a2,2,0,0,1-1.68.8A1.56,1.56,0,0,1,39.15,75.63Zm3.43-.35v-.45a4.8,4.8,0,0,0-1.37-.2c-.87,0-1.36.38-1.36,1v0c0,.58.54.93,1.17.93A1.41,1.41,0,0,0,42.58,75.28Z"/><path class="cls-2" d="M44.64,75.75V72.94H44v-.61h.65v-1.4h.69v1.4h1.48v.61H45.33v2.72a.7.7,0,0,0,.79.78,1.42,1.42,0,0,0,.67-.17v.6a1.8,1.8,0,0,1-.84.2A1.19,1.19,0,0,1,44.64,75.75Z"/><path class="cls-2" d="M47.76,70.41h.7v2.73a1.76,1.76,0,0,1,1.59-.91,1.7,1.7,0,0,1,1.78,1.87V77h-.69V74.27a1.24,1.24,0,0,0-1.29-1.41,1.37,1.37,0,0,0-1.39,1.46V77h-.7Z"/><path class="cls-2" d="M52.75,74.67v0A2.29,2.29,0,0,1,55,72.23a2.22,2.22,0,0,1,2.17,2.46,1.77,1.77,0,0,1,0,.23H53.45a1.63,1.63,0,0,0,1.64,1.57,1.92,1.92,0,0,0,1.47-.66l.43.39a2.42,2.42,0,0,1-1.92.87A2.31,2.31,0,0,1,52.75,74.67Zm3.7-.27A1.53,1.53,0,0,0,55,72.82a1.6,1.6,0,0,0-1.51,1.58Z"/><path class="cls-2" d="M58.09,72.33h.7v1.22a2,2,0,0,1,1.9-1.3V73h-.06a1.88,1.88,0,0,0-1.84,2.13V77h-.7Z"/><path class="cls-2" d="M64,70.68h2.36c1.42,0,2.35.76,2.35,2v0c0,1.36-1.13,2.06-2.47,2.06H64.73V77H64Zm2.27,3.43c1,0,1.72-.55,1.72-1.38v0c0-.9-.67-1.37-1.69-1.37H64.73v2.77Z"/><path class="cls-2" d="M69.64,72.33h.69v1.22a2,2,0,0,1,1.9-1.3V73h0a1.88,1.88,0,0,0-1.85,2.13V77h-.69Z"/><path class="cls-2" d="M72.53,74.68v0A2.41,2.41,0,0,1,75,72.23a2.39,2.39,0,0,1,2.42,2.41v0a2.41,2.41,0,0,1-2.44,2.43A2.38,2.38,0,0,1,72.53,74.68Zm4.14,0v0a1.76,1.76,0,0,0-1.73-1.82,1.72,1.72,0,0,0-1.7,1.8v0A1.75,1.75,0,0,0,75,76.47,1.72,1.72,0,0,0,76.67,74.68Z"/><path class="cls-2" d="M78.08,74.68v0a2.43,2.43,0,0,1,4.85,0v0a2.42,2.42,0,0,1-2.44,2.43A2.37,2.37,0,0,1,78.08,74.68Zm4.14,0v0a1.76,1.76,0,0,0-1.73-1.82,1.72,1.72,0,0,0-1.7,1.8v0a1.74,1.74,0,0,0,1.72,1.81A1.72,1.72,0,0,0,82.22,74.68Z"/><path class="cls-2" d="M84.17,72.94h-.64v-.6h.64v-.4a1.64,1.64,0,0,1,.4-1.2,1.36,1.36,0,0,1,1-.36,2,2,0,0,1,.77.12v.6a2.38,2.38,0,0,0-.68-.12c-.54,0-.81.32-.81,1v.38h1.48v.59H84.86v4h-.69Z"/><path class="cls-2" d="M17,87.09a2.7,2.7,0,0,1-2.06,1,1.81,1.81,0,0,1-2-1.77v0a2,2,0,0,1,1.52-1.82,2,2,0,0,1-.63-1.38v0a1.54,1.54,0,0,1,1.67-1.49A1.45,1.45,0,0,1,17.05,83v0c0,.8-.57,1.31-1.49,1.63L17,86.12a8.37,8.37,0,0,0,.76-1.4l.58.27a8.48,8.48,0,0,1-.9,1.58l1.09,1.13-.54.41Zm-.43-.44-1.68-1.73c-.84.3-1.21.82-1.21,1.35h0A1.22,1.22,0,0,0,15,87.47,2.13,2.13,0,0,0,16.57,86.65Zm-.19-3.6v0a.86.86,0,0,0-.89-.87.9.9,0,0,0-1,.91v0c0,.37.15.65.63,1.16C16,84,16.38,83.59,16.38,83.05Z"/><path class="cls-2" d="M21.77,85.35V81.68h.71V85.3a1.86,1.86,0,0,0,1.93,2.13c1.16,0,1.9-.7,1.9-2.08V81.68H27v3.61a2.48,2.48,0,0,1-2.63,2.79A2.46,2.46,0,0,1,21.77,85.35Z"/><path class="cls-2" d="M27.89,81.68h.79l2.25,5.43,2.25-5.43h.76L31.23,88H30.6Z"/><path class="cls-2" d="M36.93,87.07l.44-.53a3,3,0,0,0,2.16.9c.85,0,1.4-.45,1.4-1.07v0c0-.59-.31-.92-1.64-1.2s-2.11-.78-2.11-1.82v0a1.86,1.86,0,0,1,2.07-1.72,3.28,3.28,0,0,1,2.21.78l-.41.55a2.77,2.77,0,0,0-1.82-.69c-.82,0-1.34.45-1.34,1v0c0,.59.32.93,1.71,1.22s2,.82,2,1.79h0c0,1.08-.9,1.79-2.15,1.79A3.69,3.69,0,0,1,36.93,87.07Z"/><path class="cls-2" d="M42.91,86.75V83.94h-.65v-.61h.65v-1.4h.7v1.4h1.47v.61H43.61v2.72a.69.69,0,0,0,.78.78,1.42,1.42,0,0,0,.67-.17v.6a1.79,1.79,0,0,1-.83.2A1.19,1.19,0,0,1,42.91,86.75Z"/><path class="cls-2" d="M45.68,86.63h0c0-1,.81-1.51,2-1.51a5.26,5.26,0,0,1,1.44.2v-.16c0-.84-.52-1.27-1.39-1.27a3.41,3.41,0,0,0-1.42.34l-.2-.56a3.76,3.76,0,0,1,1.69-.39,2,2,0,0,1,1.5.51,1.83,1.83,0,0,1,.48,1.36V88h-.66v-.71a2,2,0,0,1-1.69.8A1.57,1.57,0,0,1,45.68,86.63Zm3.43-.35v-.45a4.78,4.78,0,0,0-1.36-.2c-.88,0-1.36.38-1.36,1v0c0,.58.54.93,1.17.93A1.41,1.41,0,0,0,49.11,86.28Z"/><path class="cls-2" d="M51.67,87.09V88H51V81.41h.69v2.86a2.1,2.1,0,0,1,1.78-1,2.28,2.28,0,0,1,2.23,2.41v0a2.28,2.28,0,0,1-2.23,2.42A2.08,2.08,0,0,1,51.67,87.09ZM55,85.67v0a1.68,1.68,0,0,0-1.63-1.8,1.74,1.74,0,0,0-1.69,1.79v0a1.73,1.73,0,0,0,1.69,1.8A1.63,1.63,0,0,0,55,85.67Z"/><path class="cls-2" d="M56.7,81.55h.79v.76H56.7Zm0,1.78h.69V88h-.69Z"/><path class="cls-2" d="M58.84,81.41h.7V88h-.7Z"/><path class="cls-2" d="M60.89,81.55h.8v.76h-.8Zm0,1.78h.69V88h-.69Z"/><path class="cls-2" d="M62.58,87.39l.36-.49a2.75,2.75,0,0,0,1.61.59c.56,0,1-.29,1-.74v0c0-.46-.55-.64-1.16-.81s-1.54-.46-1.54-1.32v0a1.41,1.41,0,0,1,1.58-1.33,3.24,3.24,0,0,1,1.68.51l-.32.53a2.59,2.59,0,0,0-1.37-.45c-.55,0-.9.28-.9.67v0c0,.44.57.61,1.19.8s1.5.5,1.5,1.33v0a1.47,1.47,0,0,1-1.66,1.4A3.27,3.27,0,0,1,62.58,87.39Z"/><path class="cls-2" d="M66.9,85.67v0a2.29,2.29,0,0,1,2.23-2.42,2.22,2.22,0,0,1,2.17,2.46,1.77,1.77,0,0,1,0,.23H67.6a1.63,1.63,0,0,0,1.64,1.57,1.92,1.92,0,0,0,1.47-.66l.43.39a2.42,2.42,0,0,1-1.92.87A2.31,2.31,0,0,1,66.9,85.67Zm3.7-.27a1.54,1.54,0,0,0-1.49-1.58A1.6,1.6,0,0,0,67.6,85.4Z"/><path class="cls-2" d="M72,85.67v0a2.29,2.29,0,0,1,2.23-2.42,2.11,2.11,0,0,1,1.78,1V81.41h.69V88H76v-.94a2.09,2.09,0,0,1-1.78,1A2.27,2.27,0,0,1,72,85.67Zm4,0v0a1.73,1.73,0,0,0-1.69-1.79,1.65,1.65,0,0,0-1.64,1.79v0a1.68,1.68,0,0,0,1.64,1.8A1.74,1.74,0,0,0,76,85.66Z"/><line class="cls-3" x1="46.32" y1="49.38" x2="65.52" y2="49.38"/><line class="cls-3" x1="46.32" y1="46.98" x2="65.52" y2="46.98"/><polygon class="cls-2" points="46.69 39.16 47.89 39.16 51.62 42.83 52.7 41.92 53.66 45.47 49.99 44.51 51.08 43.49 46.69 39.16"/><polygon class="cls-2" points="54.63 44.42 54.96 45.47 58.15 42.32 59.17 43.28 60.19 39.55 56.49 40.54 57.41 41.53 54.63 44.42"/><polygon class="cls-2" points="58.73 45.45 60.17 45.45 63.49 42.17 64.36 43.1 65.68 39.31 61.84 40.42 62.77 41.38 58.73 45.45"/><circle class="cls-2" cx="56.2" cy="30.86" r="3.16" transform="matrix(0.98, -0.19, 0.19, 0.98, -4.8, 11.13)"/><path class="cls-2" d="M55.86,26.26a.34.34,0,1,0,.67,0V24.83a.34.34,0,0,0-.67,0Z"/><path class="cls-2" d="M55.86,35.45v1.43a.34.34,0,0,0,.67,0V35.45a.34.34,0,1,0-.67,0Z"/><path class="cls-2" d="M53.9,27.21a.35.35,0,0,0,.17,0,.34.34,0,0,0,.12-.46l-.71-1.24a.33.33,0,0,0-.46-.12.34.34,0,0,0-.13.46L53.61,27A.32.32,0,0,0,53.9,27.21Z"/><path class="cls-2" d="M58.33,34.54a.34.34,0,0,0-.13.46l.72,1.24a.32.32,0,0,0,.29.17.37.37,0,0,0,.17,0,.34.34,0,0,0,.12-.46l-.71-1.23A.34.34,0,0,0,58.33,34.54Z"/><path class="cls-2" d="M50.69,27.68a.34.34,0,0,0,.12.46l1.24.71a.33.33,0,0,0,.17,0,.35.35,0,0,0,.29-.16.33.33,0,0,0-.13-.46l-1.23-.72A.33.33,0,0,0,50.69,27.68Z"/><path class="cls-2" d="M61.58,33.57l-1.23-.71a.34.34,0,0,0-.46.12.33.33,0,0,0,.12.46l1.23.72a.35.35,0,0,0,.17,0A.32.32,0,0,0,61.7,34,.33.33,0,0,0,61.58,33.57Z"/><path class="cls-2" d="M51.94,30.86a.34.34,0,0,0-.34-.34H50.17a.34.34,0,0,0,0,.67H51.6A.34.34,0,0,0,51.94,30.86Z"/><path class="cls-2" d="M62.22,30.52H60.79a.34.34,0,0,0,0,.67h1.43a.34.34,0,1,0,0-.67Z"/><path class="cls-2" d="M52.05,32.86l-1.24.71a.34.34,0,0,0-.12.46.34.34,0,0,0,.29.17.33.33,0,0,0,.17,0l1.23-.72a.33.33,0,0,0,.13-.46A.34.34,0,0,0,52.05,32.86Z"/><path class="cls-2" d="M61.24,27.55,60,28.27a.33.33,0,0,0-.12.46.34.34,0,0,0,.29.16.38.38,0,0,0,.17,0l1.23-.71a.34.34,0,0,0-.34-.59Z"/><path class="cls-2" d="M53.61,34.67l-.72,1.23a.34.34,0,0,0,.13.46.34.34,0,0,0,.17,0,.35.35,0,0,0,.29-.17L54.19,35a.33.33,0,1,0-.58-.33Z"/><path class="cls-2" d="M58.33,27.17a.32.32,0,0,0,.16,0,.35.35,0,0,0,.3-.17l.71-1.23a.34.34,0,0,0-.12-.46.33.33,0,0,0-.46.12l-.72,1.24A.34.34,0,0,0,58.33,27.17Z"/><path class="cls-2" d="M40.65,33.88a2.56,2.56,0,0,1-.46.33l-.15.07a8.67,8.67,0,0,1,1.26,3.4,2.67,2.67,0,0,0-3.8,0A10.37,10.37,0,0,0,34,30.24a8.77,8.77,0,0,1,3.88,1.66,2.48,2.48,0,0,1,.37-.63,9.53,9.53,0,0,0-5.39-1.87h-.59A9.58,9.58,0,0,0,23,39a.36.36,0,0,0,.37.36h0a.35.35,0,0,0,.35-.26,2,2,0,0,1,1.87-1.42,1.93,1.93,0,0,1,1.86,1.41.35.35,0,0,0,.35.27H28a.37.37,0,0,0,.36-.27,1.93,1.93,0,0,1,3.72,0,.42.42,0,0,0,.11.18v7.43a1.94,1.94,0,0,1-3.82.55,2.18,2.18,0,0,1-.06-.56.37.37,0,1,0-.73,0,2.75,2.75,0,0,0,.09.75,2.69,2.69,0,0,0,2.59,2A2.63,2.63,0,0,0,31,49.3a2.7,2.7,0,0,0,2-2.65V39.13l0-.07a2,2,0,0,1,1.87-1.42,1.92,1.92,0,0,1,1.85,1.41.38.38,0,0,0,.36.27h.17a.35.35,0,0,0,.35-.27,1.94,1.94,0,0,1,3.73,0,.36.36,0,0,0,.35.27h.12a.36.36,0,0,0,.36-.36A9.47,9.47,0,0,0,40.65,33.88ZM27.58,37.76a2.66,2.66,0,0,0-3.75-.15,8.87,8.87,0,0,1,7.27-7.36A10.22,10.22,0,0,0,27.58,37.76Zm2.64-.85a2.65,2.65,0,0,0-1.9.81A9.51,9.51,0,0,1,32.2,30.3v7.48A2.7,2.7,0,0,0,30.22,36.91Zm4.61,0a2.66,2.66,0,0,0-1.9.8V30.33a9.54,9.54,0,0,1,3.84,7.43A2.65,2.65,0,0,0,34.83,36.91Z"/><path class="cls-2" d="M40.1,25.19l-2.23,1.35A1.82,1.82,0,0,0,37,27.92a1.16,1.16,0,0,0,.54,1.15,1.19,1.19,0,0,0,1.28.05,1.85,1.85,0,0,0,.92-1.35Z"/><path class="cls-2" d="M41.39,29.57l-2.23,1.36a1.8,1.8,0,0,0-.89,1.37,1.23,1.23,0,0,0,1.82,1.2A1.8,1.8,0,0,0,41,32.15Z"/><path class="cls-2" d="M45.9,27.08l-2.22,1.36a1.78,1.78,0,0,0-.89,1.37A1.23,1.23,0,0,0,44.61,31a1.79,1.79,0,0,0,.91-1.35Z"/></svg>