<svg id="Layer_1" data-name="Layer 1" xmlns="http://www.w3.org/2000/svg" viewBox="0 0 90 100"><defs><style>.cls-1{fill:#fff;stroke:#74af27;}.cls-1,.cls-3{stroke-miterlimit:10;}.cls-2{fill:#74af27;}.cls-3,.cls-4{fill:none;}.cls-3{stroke:#189cd9;}.cls-4{stroke:#fff;stroke-linecap:round;stroke-linejoin:round;stroke-width:0.8px;}</style></defs><title>EV-Quality-StrongAndDurable</title><circle class="cls-1" cx="45" cy="37.74" r="28.35"/><path class="cls-2" d="M31.09,76.07l.44-.53a3,3,0,0,0,2.16.9c.84,0,1.4-.45,1.4-1.07v0c0-.59-.31-.92-1.64-1.2s-2.11-.78-2.11-1.82v0a1.86,1.86,0,0,1,2.07-1.72,3.29,3.29,0,0,1,2.21.78l-.41.55a2.77,2.77,0,0,0-1.82-.69c-.82,0-1.34.45-1.34,1v0c0,.59.32.93,1.71,1.22s2.05.82,2.05,1.79h0c0,1.08-.9,1.79-2.15,1.79A3.69,3.69,0,0,1,31.09,76.07Z"/><path class="cls-2" d="M37.07,75.75V72.94h-.65v-.61h.65v-1.4h.69v1.4h1.48v.61H37.76v2.72a.7.7,0,0,0,.79.78,1.42,1.42,0,0,0,.67-.17v.6a1.79,1.79,0,0,1-.83.2A1.19,1.19,0,0,1,37.07,75.75Z"/><path class="cls-2" d="M40.19,72.33h.7v1.22a2,2,0,0,1,1.9-1.3V73h-.06a1.88,1.88,0,0,0-1.84,2.13V77h-.7Z"/><path class="cls-2" d="M43.08,74.68v0a2.43,2.43,0,0,1,4.86,0v0a2.42,2.42,0,0,1-2.44,2.43A2.38,2.38,0,0,1,43.08,74.68Zm4.14,0v0a1.76,1.76,0,0,0-1.72-1.82,1.72,1.72,0,0,0-1.71,1.8v0a1.75,1.75,0,0,0,1.72,1.81A1.72,1.72,0,0,0,47.22,74.68Z"/><path class="cls-2" d="M48.92,72.33h.69v.81a1.76,1.76,0,0,1,1.59-.91A1.7,1.7,0,0,1,53,74.1V77h-.69V74.27A1.24,1.24,0,0,0,51,72.86a1.37,1.37,0,0,0-1.39,1.46V77h-.69Z"/><path class="cls-2" d="M54.13,77.8l.32-.54a3,3,0,0,0,1.79.59,1.53,1.53,0,0,0,1.69-1.66v-.55a2.2,2.2,0,0,1-1.82,1,2.15,2.15,0,0,1-2.19-2.18v0a2.2,2.2,0,0,1,4-1.26v-.84h.7v3.85a2.21,2.21,0,0,1-.6,1.64,2.4,2.4,0,0,1-1.77.62A3.7,3.7,0,0,1,54.13,77.8ZM58,74.44v0a1.64,1.64,0,0,0-1.71-1.58,1.54,1.54,0,0,0-1.61,1.57v0A1.57,1.57,0,0,0,56.24,76,1.64,1.64,0,0,0,58,74.44Z"/><path class="cls-2" d="M28.6,87.09a2.7,2.7,0,0,1-2.06,1,1.81,1.81,0,0,1-2-1.77v0a2,2,0,0,1,1.52-1.82,2,2,0,0,1-.63-1.38v0a1.54,1.54,0,0,1,1.67-1.49A1.45,1.45,0,0,1,28.65,83v0c0,.8-.57,1.31-1.49,1.63l1.44,1.47a8.37,8.37,0,0,0,.76-1.4l.58.27a8.48,8.48,0,0,1-.9,1.58l1.09,1.13-.54.41Zm-.43-.44-1.68-1.73c-.84.3-1.21.82-1.21,1.35h0a1.22,1.22,0,0,0,1.32,1.19A2.13,2.13,0,0,0,28.17,86.65ZM28,83.05v0a.86.86,0,0,0-.89-.87.9.9,0,0,0-.95.91v0c0,.37.15.65.63,1.16C27.57,84,28,83.59,28,83.05Z"/><path class="cls-2" d="M33.47,81.68h2.19A3.14,3.14,0,0,1,39,84.82h0A3.16,3.16,0,0,1,35.66,88H33.47Zm.71.66v5h1.48a2.44,2.44,0,0,0,2.61-2.48v0a2.45,2.45,0,0,0-2.61-2.49Z"/><path class="cls-2" d="M40.05,86.22V83.33h.69v2.72A1.25,1.25,0,0,0,42,87.46,1.38,1.38,0,0,0,43.43,86V83.33h.68V88h-.68v-.81a1.79,1.79,0,0,1-1.6.9A1.7,1.7,0,0,1,40.05,86.22Z"/><path class="cls-2" d="M45.4,83.33h.69v1.22a2,2,0,0,1,1.9-1.3V84h-.05a1.88,1.88,0,0,0-1.85,2.13V88H45.4Z"/><path class="cls-2" d="M48.2,86.63h0c0-1,.81-1.51,2-1.51a5.26,5.26,0,0,1,1.44.2v-.16c0-.84-.52-1.27-1.39-1.27a3.33,3.33,0,0,0-1.41.34l-.21-.56a3.76,3.76,0,0,1,1.69-.39,2.07,2.07,0,0,1,1.51.51,1.87,1.87,0,0,1,.47,1.36V88h-.66v-.71a2,2,0,0,1-1.69.8A1.56,1.56,0,0,1,48.2,86.63Zm3.43-.35v-.45a4.91,4.91,0,0,0-1.37-.2c-.88,0-1.36.38-1.36,1v0c0,.58.54.93,1.17.93A1.42,1.42,0,0,0,51.63,86.28Z"/><path class="cls-2" d="M54.18,87.09V88h-.69V81.41h.69v2.86a2.1,2.1,0,0,1,1.78-1,2.28,2.28,0,0,1,2.23,2.41v0A2.28,2.28,0,0,1,56,88.08,2.08,2.08,0,0,1,54.18,87.09Zm3.3-1.42v0a1.68,1.68,0,0,0-1.64-1.8,1.74,1.74,0,0,0-1.69,1.79v0a1.73,1.73,0,0,0,1.69,1.8A1.64,1.64,0,0,0,57.48,85.67Z"/><path class="cls-2" d="M59.26,81.41H60V88h-.69Z"/><path class="cls-2" d="M61,85.67v0a2.3,2.3,0,0,1,2.23-2.42,2.22,2.22,0,0,1,2.17,2.46v.23H61.7a1.63,1.63,0,0,0,1.64,1.57,1.92,1.92,0,0,0,1.47-.66l.43.39a2.4,2.4,0,0,1-1.92.87A2.32,2.32,0,0,1,61,85.67Zm3.7-.27a1.53,1.53,0,0,0-1.48-1.58A1.61,1.61,0,0,0,61.7,85.4Z"/><path class="cls-3" d="M45,19.12a43.15,43.15,0,0,1-16.85,5.15S25.41,50.7,45,59.09c0,0,18.18-6.52,16.86-34.82A42.15,42.15,0,0,1,45,19.12Z"/><path class="cls-1" d="M45,19.12a43.15,43.15,0,0,1-16.85,5.15S25.41,50.7,45,59.09c0,0,18.18-6.52,16.86-34.82A42.15,42.15,0,0,1,45,19.12Z"/><path class="cls-2" d="M45,20.68a39.79,39.79,0,0,1-15.54,4.75S27,49.8,45,57.53c0,0,16.75-6,15.54-32.1A38.73,38.73,0,0,1,45,20.68Z"/><polyline class="cls-4" points="39.18 37.93 42.66 42.2 53.61 30.79"/><path class="cls-4" d="M51,36a7.44,7.44,0,1,1-1.87-3.14"/></svg>