<svg id="Layer_1" data-name="Layer 1" xmlns="http://www.w3.org/2000/svg" viewBox="0 0 90 100"><defs><style>.cls-1{fill:#fff;stroke:#74af27;stroke-miterlimit:10;}.cls-2{fill:#74af27;}</style></defs><title>EV-Quality-IP66WeatherProof</title><circle class="cls-1" cx="45" cy="37.74" r="28.35"/><path class="cls-2" d="M54.2,33.39a3,3,0,0,1-.68.49l-.22.1A13.09,13.09,0,0,1,55.17,39a4,4,0,0,0-2.79-1.14,3.92,3.92,0,0,0-2.85,1.22A15.44,15.44,0,0,0,44.28,28a13.1,13.1,0,0,1,5.77,2.46,3.51,3.51,0,0,1,.55-.93,14.12,14.12,0,0,0-8-2.77h-.69a.67.67,0,0,0-.2,0A14.22,14.22,0,0,0,28,40.94a.54.54,0,0,0,.54.54h.07a.55.55,0,0,0,.52-.39A2.91,2.91,0,0,1,31.9,39a2.86,2.86,0,0,1,2.76,2.09.53.53,0,0,0,.52.4h.26a.53.53,0,0,0,.52-.4,2.88,2.88,0,0,1,5.54,0,.53.53,0,0,0,.15.26v11a2.88,2.88,0,1,1-5.75,0,.55.55,0,0,0-.55-.54.54.54,0,0,0-.54.54,4.15,4.15,0,0,0,.13,1.12,4,4,0,0,0,3.85,2.94,3.89,3.89,0,0,0,1-.13,4,4,0,0,0,2.94-3.93V41.19a1,1,0,0,0,0-.1A2.91,2.91,0,0,1,45.56,39a2.85,2.85,0,0,1,2.75,2.09.55.55,0,0,0,.53.4h.26a.53.53,0,0,0,.52-.4,2.87,2.87,0,0,1,5.53,0,.55.55,0,0,0,.53.4h.17a.54.54,0,0,0,.54-.54A14.13,14.13,0,0,0,54.2,33.39ZM34.79,39.17A3.92,3.92,0,0,0,31.9,37.9a4,4,0,0,0-2.67,1A13.14,13.14,0,0,1,40,28,15.21,15.21,0,0,0,34.79,39.17Zm3.93-1.27a3.91,3.91,0,0,0-2.83,1.2,14.16,14.16,0,0,1,5.76-11V39.19A4,4,0,0,0,38.72,37.9Zm6.84,0a4,4,0,0,0-2.82,1.19v-11a14.14,14.14,0,0,1,5.7,11A4,4,0,0,0,45.56,37.9Z"/><path class="cls-2" d="M53.38,20.5l-3.31,2a2.71,2.71,0,0,0-1.32,2,1.83,1.83,0,0,0,2.7,1.79,2.72,2.72,0,0,0,1.37-2Z"/><path class="cls-2" d="M55.3,27,52,29a2.71,2.71,0,0,0-1.32,2,1.83,1.83,0,0,0,2.7,1.79,2.72,2.72,0,0,0,1.37-2Z"/><path class="cls-2" d="M62,23.3l-3.31,2a2.68,2.68,0,0,0-1.32,2,1.72,1.72,0,0,0,.8,1.71,1.75,1.75,0,0,0,1.9.08,2.68,2.68,0,0,0,1.36-2Z"/><path class="cls-2" d="M36.22,70.68h.71V77h-.71Z"/><path class="cls-2" d="M38.51,70.68h2.36c1.42,0,2.35.76,2.35,2v0c0,1.36-1.13,2.06-2.47,2.06H39.22V77h-.71Zm2.27,3.43c1,0,1.72-.55,1.72-1.38v0c0-.9-.67-1.37-1.69-1.37H39.22v2.77Z"/><path class="cls-2" d="M44.7,76.46A3.13,3.13,0,0,1,43.91,74v0c0-1.92,1-3.42,2.62-3.42a2.79,2.79,0,0,1,1.86.72l-.41.55a2.2,2.2,0,0,0-1.49-.63c-1.21,0-1.85,1.28-1.85,2.7V74a2,2,0,0,1,1.8-1A2,2,0,0,1,48.62,75v0a2.13,2.13,0,0,1-2.26,2.09A2.29,2.29,0,0,1,44.7,76.46ZM47.89,75h0a1.4,1.4,0,0,0-1.54-1.36A1.48,1.48,0,0,0,44.77,75v0a1.47,1.47,0,0,0,1.59,1.41A1.43,1.43,0,0,0,47.89,75Z"/><path class="cls-2" d="M50.25,76.46A3.13,3.13,0,0,1,49.46,74v0c0-1.92,1-3.42,2.62-3.42a2.77,2.77,0,0,1,1.86.72l-.41.55A2.2,2.2,0,0,0,52,71.22c-1.21,0-1.85,1.28-1.85,2.7V74A2,2,0,0,1,52,73,2,2,0,0,1,54.17,75v0a2.13,2.13,0,0,1-2.26,2.09A2.31,2.31,0,0,1,50.25,76.46ZM53.44,75h0a1.4,1.4,0,0,0-1.54-1.36A1.48,1.48,0,0,0,50.32,75v0a1.47,1.47,0,0,0,1.6,1.41A1.43,1.43,0,0,0,53.44,75Z"/><path class="cls-2" d="M14.47,81.68h.77L17,86.93l1.73-5.26h.59l1.72,5.26,1.8-5.25h.75L21.38,88h-.6l-1.73-5.11L17.31,88h-.59Z"/><path class="cls-2" d="M23.66,85.67v0a2.29,2.29,0,0,1,2.23-2.42,2.22,2.22,0,0,1,2.17,2.46,1.77,1.77,0,0,1,0,.23H24.36A1.63,1.63,0,0,0,26,87.49a1.89,1.89,0,0,0,1.46-.66l.44.39a2.42,2.42,0,0,1-1.92.87A2.31,2.31,0,0,1,23.66,85.67Zm3.7-.27a1.53,1.53,0,0,0-1.49-1.58,1.6,1.6,0,0,0-1.51,1.58Z"/><path class="cls-2" d="M28.65,86.63h0c0-1,.81-1.51,2-1.51a5.12,5.12,0,0,1,1.43.2v-.16c0-.84-.51-1.27-1.38-1.27a3.41,3.41,0,0,0-1.42.34l-.2-.56a3.73,3.73,0,0,1,1.69-.39,2,2,0,0,1,1.5.51,1.83,1.83,0,0,1,.48,1.36V88h-.67v-.71a2,2,0,0,1-1.68.8A1.57,1.57,0,0,1,28.65,86.63Zm3.43-.35v-.45a4.8,4.8,0,0,0-1.37-.2c-.87,0-1.36.38-1.36,1v0c0,.58.54.93,1.17.93A1.41,1.41,0,0,0,32.08,86.28Z"/><path class="cls-2" d="M34.14,86.75V83.94h-.65v-.61h.65v-1.4h.69v1.4h1.48v.61H34.83v2.72a.7.7,0,0,0,.79.78,1.42,1.42,0,0,0,.67-.17v.6a1.79,1.79,0,0,1-.83.2A1.19,1.19,0,0,1,34.14,86.75Z"/><path class="cls-2" d="M37.26,81.41H38v2.73a1.76,1.76,0,0,1,1.59-.91,1.7,1.7,0,0,1,1.78,1.87V88h-.69V85.27a1.24,1.24,0,0,0-1.29-1.41A1.37,1.37,0,0,0,38,85.32V88h-.7Z"/><path class="cls-2" d="M42.25,85.67v0a2.3,2.3,0,0,1,2.23-2.42,2.22,2.22,0,0,1,2.17,2.46,1.77,1.77,0,0,1,0,.23H43a1.63,1.63,0,0,0,1.64,1.57,1.92,1.92,0,0,0,1.47-.66l.43.39a2.4,2.4,0,0,1-1.92.87A2.31,2.31,0,0,1,42.25,85.67ZM46,85.4a1.53,1.53,0,0,0-1.49-1.58A1.6,1.6,0,0,0,43,85.4Z"/><path class="cls-2" d="M47.6,83.33h.69v1.22a2,2,0,0,1,1.9-1.3V84h-.06a1.88,1.88,0,0,0-1.84,2.13V88H47.6Z"/><path class="cls-2" d="M53.52,81.68h2.36c1.42,0,2.36.76,2.36,2v0c0,1.36-1.14,2.06-2.48,2.06H54.23V88h-.71Zm2.27,3.43c1,0,1.73-.55,1.73-1.38v0c0-.9-.68-1.37-1.7-1.37H54.23v2.77Z"/><path class="cls-2" d="M59.14,83.33h.7v1.22a2,2,0,0,1,1.9-1.3V84h-.06a1.88,1.88,0,0,0-1.84,2.13V88h-.7Z"/><path class="cls-2" d="M62,85.68v0a2.41,2.41,0,0,1,2.43-2.43,2.39,2.39,0,0,1,2.42,2.41v0a2.41,2.41,0,0,1-2.43,2.43A2.38,2.38,0,0,1,62,85.68Zm4.14,0v0a1.76,1.76,0,0,0-1.72-1.82,1.72,1.72,0,0,0-1.71,1.8v0a1.75,1.75,0,0,0,1.72,1.81A1.72,1.72,0,0,0,66.17,85.68Z"/><path class="cls-2" d="M67.58,85.68v0a2.43,2.43,0,0,1,4.85,0v0A2.42,2.42,0,0,1,70,88.09,2.37,2.37,0,0,1,67.58,85.68Zm4.14,0v0A1.76,1.76,0,0,0,70,83.84a1.72,1.72,0,0,0-1.7,1.8v0A1.75,1.75,0,0,0,70,87.47,1.72,1.72,0,0,0,71.72,85.68Z"/><path class="cls-2" d="M73.67,83.94H73v-.6h.64v-.4a1.64,1.64,0,0,1,.4-1.2,1.36,1.36,0,0,1,1-.36,2,2,0,0,1,.77.12v.6a2.38,2.38,0,0,0-.68-.12c-.54,0-.81.32-.81,1v.38h1.48v.59H74.36v4h-.69Z"/></svg>