<svg id="Layer_1" data-name="Layer 1" xmlns="http://www.w3.org/2000/svg" xmlns:xlink="http://www.w3.org/1999/xlink" viewBox="0 0 90 100"><defs><style>.cls-1{fill:none;}.cls-2,.cls-5{fill:#fff;}.cls-2{stroke:#74af27;stroke-miterlimit:10;}.cls-3{fill:#74af27;}.cls-4{clip-path:url(#clip-path);}</style><clipPath id="clip-path"><circle class="cls-1" cx="45" cy="37.74" r="28.35"/></clipPath></defs><title>EV-Rolec-Over25YearExperience</title><circle class="cls-2" cx="45" cy="37.74" r="28.35"/><path class="cls-3" d="M15.24,73.85v0a3.22,3.22,0,1,1,6.43,0h0a3.2,3.2,0,0,1-3.23,3.26A3.15,3.15,0,0,1,15.24,73.85Zm5.69,0v0a2.51,2.51,0,0,0-2.49-2.6A2.47,2.47,0,0,0,16,73.82h0a2.48,2.48,0,1,0,4.95,0Z"/><path class="cls-3" d="M22.32,72.33h.77l1.56,3.86,1.58-3.86H27L25,77h-.61Z"/><path class="cls-3" d="M27.23,74.67v0a2.3,2.3,0,0,1,2.24-2.42,2.22,2.22,0,0,1,2.17,2.46,1.77,1.77,0,0,1,0,.23H27.94a1.63,1.63,0,0,0,1.63,1.57A1.92,1.92,0,0,0,31,75.83l.43.39a2.38,2.38,0,0,1-1.91.87A2.32,2.32,0,0,1,27.23,74.67Zm3.7-.27a1.53,1.53,0,0,0-1.48-1.58,1.6,1.6,0,0,0-1.51,1.58Z"/><path class="cls-3" d="M32.58,72.33h.69v1.22a2,2,0,0,1,1.9-1.3V73h-.05a1.88,1.88,0,0,0-1.85,2.13V77h-.69Z"/><path class="cls-3" d="M38,76.44l2.29-2c1-.86,1.31-1.35,1.31-2a1.2,1.2,0,0,0-1.27-1.21,2,2,0,0,0-1.69,1.08l-.52-.37a2.5,2.5,0,0,1,2.27-1.35,1.82,1.82,0,0,1,2,1.79h0c0,.92-.48,1.49-1.59,2.45l-1.68,1.5h3.34V77H38Z"/><path class="cls-3" d="M43.21,76.09l.47-.51a2.65,2.65,0,0,0,1.79.87A1.42,1.42,0,0,0,47,75.05v0a1.4,1.4,0,0,0-1.57-1.32,2.69,2.69,0,0,0-1.32.36l-.48-.32.18-3.07h3.63v.66h-3l-.13,2a2.87,2.87,0,0,1,1.24-.28A2,2,0,0,1,47.71,75h0a2.07,2.07,0,0,1-2.25,2.07A3.21,3.21,0,0,1,43.21,76.09Z"/><path class="cls-3" d="M53.26,74.49l-2.62-3.81h.87l2.12,3.15,2.14-3.15h.83L54,74.48V77h-.72Z"/><path class="cls-3" d="M56.07,74.67v0a2.3,2.3,0,0,1,2.23-2.42,2.22,2.22,0,0,1,2.17,2.46,1.77,1.77,0,0,1,0,.23H56.77a1.63,1.63,0,0,0,1.64,1.57,1.92,1.92,0,0,0,1.47-.66l.43.39a2.42,2.42,0,0,1-1.92.87A2.31,2.31,0,0,1,56.07,74.67Zm3.7-.27a1.53,1.53,0,0,0-1.49-1.58,1.6,1.6,0,0,0-1.51,1.58Z"/><path class="cls-3" d="M61.06,75.63h0c0-1,.82-1.51,2-1.51a5.26,5.26,0,0,1,1.44.2v-.16c0-.84-.52-1.27-1.39-1.27a3.33,3.33,0,0,0-1.41.34l-.21-.56a3.76,3.76,0,0,1,1.69-.39,2,2,0,0,1,1.5.51,1.83,1.83,0,0,1,.48,1.36V77h-.66v-.71a2,2,0,0,1-1.69.8A1.57,1.57,0,0,1,61.06,75.63Zm3.43-.35v-.45a4.78,4.78,0,0,0-1.36-.2c-.88,0-1.36.38-1.36,1v0c0,.58.54.93,1.17.93A1.41,1.41,0,0,0,64.49,75.28Z"/><path class="cls-3" d="M66.36,72.33h.69v1.22a2,2,0,0,1,1.9-1.3V73h0a1.88,1.88,0,0,0-1.85,2.13V77h-.69Z"/><path class="cls-3" d="M69.34,76.39l.36-.49a2.75,2.75,0,0,0,1.61.59c.56,0,1-.29,1-.74v0c0-.46-.55-.64-1.16-.81s-1.54-.46-1.54-1.32v0a1.41,1.41,0,0,1,1.58-1.33,3.24,3.24,0,0,1,1.68.51l-.32.53a2.59,2.59,0,0,0-1.37-.45c-.55,0-.9.28-.9.67v0c0,.44.57.61,1.19.8s1.5.5,1.5,1.33v0a1.47,1.47,0,0,1-1.66,1.4A3.25,3.25,0,0,1,69.34,76.39Z"/><path class="cls-3" d="M73.63,72.41c.45-.16.64-.39.6-.78h-.32v-.95h.83v.81a1.12,1.12,0,0,1-1,1.24Z"/><path class="cls-3" d="M22.25,81.68H26.8v.65H23v2.15H26.4v.65H23v2.21h3.89V88h-4.6Z"/><path class="cls-3" d="M29.7,85.15l1.39-1.82h.77L30.1,85.61,31.93,88h-.8l-1.44-1.92L28.24,88h-.77l1.82-2.37-1.75-2.29h.79Z"/><path class="cls-3" d="M32.79,83.33h.69v.94a2.1,2.1,0,0,1,1.78-1,2.28,2.28,0,0,1,2.23,2.41v0a2.28,2.28,0,0,1-2.23,2.42,2.08,2.08,0,0,1-1.78-1v2.34h-.69Zm4,2.34v0a1.68,1.68,0,0,0-1.64-1.8,1.74,1.74,0,0,0-1.69,1.79v0a1.73,1.73,0,0,0,1.69,1.8A1.64,1.64,0,0,0,36.78,85.67Z"/><path class="cls-3" d="M38.21,85.67v0a2.29,2.29,0,0,1,2.23-2.42,2.22,2.22,0,0,1,2.17,2.46,1.77,1.77,0,0,1,0,.23H38.91a1.63,1.63,0,0,0,1.64,1.57A1.89,1.89,0,0,0,42,86.83l.44.39a2.42,2.42,0,0,1-1.92.87A2.31,2.31,0,0,1,38.21,85.67Zm3.7-.27a1.54,1.54,0,0,0-1.49-1.58,1.6,1.6,0,0,0-1.51,1.58Z"/><path class="cls-3" d="M43.55,83.33h.69v1.22a2,2,0,0,1,1.9-1.3V84h0a1.88,1.88,0,0,0-1.85,2.13V88h-.69Z"/><path class="cls-3" d="M46.94,81.55h.8v.76h-.8ZM47,83.33h.69V88H47Z"/><path class="cls-3" d="M48.74,85.67v0A2.29,2.29,0,0,1,51,83.23a2.22,2.22,0,0,1,2.17,2.46,1.77,1.77,0,0,1,0,.23H49.44a1.63,1.63,0,0,0,1.64,1.57,1.9,1.9,0,0,0,1.46-.66l.44.39a2.42,2.42,0,0,1-1.92.87A2.31,2.31,0,0,1,48.74,85.67Zm3.7-.27A1.54,1.54,0,0,0,51,83.82a1.6,1.6,0,0,0-1.51,1.58Z"/><path class="cls-3" d="M54.08,83.33h.69v.81a1.79,1.79,0,0,1,1.6-.91,1.7,1.7,0,0,1,1.78,1.87V88h-.69V85.27a1.24,1.24,0,0,0-1.29-1.41,1.38,1.38,0,0,0-1.4,1.46V88h-.69Z"/><path class="cls-3" d="M59.07,85.68v0a2.4,2.4,0,0,1,2.38-2.43,2.43,2.43,0,0,1,1.87.83l-.46.49a1.89,1.89,0,0,0-1.42-.71,1.72,1.72,0,0,0-1.66,1.8v0a1.74,1.74,0,0,0,1.71,1.81,1.91,1.91,0,0,0,1.42-.69l.44.41a2.4,2.4,0,0,1-4.28-1.51Z"/><path class="cls-3" d="M63.8,85.67v0A2.3,2.3,0,0,1,66,83.23a2.22,2.22,0,0,1,2.17,2.46,1.77,1.77,0,0,1,0,.23H64.5a1.63,1.63,0,0,0,1.64,1.57,1.92,1.92,0,0,0,1.47-.66l.43.39a2.4,2.4,0,0,1-1.92.87A2.32,2.32,0,0,1,63.8,85.67Zm3.7-.27A1.53,1.53,0,0,0,66,83.82,1.61,1.61,0,0,0,64.5,85.4Z"/><g class="cls-4"><path class="cls-3" d="M45.5,42.39c0-.08,0-.1-.06-.1s-.14,0-.19,0,0,0,0,0,0,0,0,0l.47-.17h0s0,0,0,0,0,.24,0,.6v.9c0,.17,0,.22.09.25s.24,0,.24,0,0,.05-.07.05l-.4,0-.3,0c-.07,0-.1,0-.1,0s.07-.05.19-.07.07-.08.07-.22Z"/><path class="cls-3" d="M46.8,42.68a.63.63,0,0,1,.63-.61.69.69,0,0,1,.72.75,1.29,1.29,0,0,1-.42,1,1.56,1.56,0,0,1-.84.44s0,0,0,0,.18-.1.4-.24a1.41,1.41,0,0,0,.57-1.2c0-.33-.2-.59-.38-.59s-.34.19-.34.55.14.45.3.45h.15s0,0,0,0-.09.09-.26.09A.53.53,0,0,1,46.8,42.68Z"/><path class="cls-3" d="M48.67,42.68a.63.63,0,0,1,.63-.61.69.69,0,0,1,.72.75,1.29,1.29,0,0,1-.42,1,1.56,1.56,0,0,1-.84.44s0,0,0,0,.18-.1.4-.24a1.41,1.41,0,0,0,.57-1.2c0-.33-.2-.59-.38-.59s-.34.19-.34.55.14.45.3.45h.15s0,0,0,0-.1.09-.27.09A.53.53,0,0,1,48.67,42.68Z"/><path class="cls-3" d="M50.55,43c0-.59.28-1,.68-1s.66.37.66.91-.3,1-.68,1S50.55,43.64,50.55,43Zm.66.88c.22,0,.35-.34.35-1,0-.51-.12-.78-.33-.78s-.35.32-.35.94S51,43.91,51.21,43.91Z"/><path class="cls-3" d="M49.6,50.59a4.47,4.47,0,1,1-4.47-4.47A4.47,4.47,0,0,1,49.6,50.59Z"/><path class="cls-3" d="M50.91,51.49a5.81,5.81,0,1,1-5.81-5.81A5.81,5.81,0,0,1,50.91,51.49Z"/><path class="cls-5" d="M45.72,48.58a.9.9,0,1,1-.89-.89A.89.89,0,0,1,45.72,48.58Z"/><path class="cls-5" d="M46.05,54.46,44,52.13h2.5c.18,0,.26-.14.26-.42s-.08-.43-.26-.43h-3v3.18h-1V50.31h4a1,1,0,0,1,.88.44,1.67,1.67,0,0,1,0,1.91,1,1,0,0,1-.88.44h-.37l1.22,1.36Z"/><path class="cls-3" d="M42.29,32.53c0,.17,0,.4-.43.4H35.29c-.15,0-.36,0-.36-.23s.24-.5,1.61-2c2.87-3.2,3.7-4.22,3.7-5.75a2,2,0,0,0-2.13-2.23A3,3,0,0,0,35.68,24c-.32.45-.4.54-.54.54a.21.21,0,0,1-.19-.21A3.88,3.88,0,0,1,38.77,22c1.77,0,3.54.9,3.54,2.65a4.37,4.37,0,0,1-1.67,3.06L38,29.94a5.67,5.67,0,0,0-1.18,1.2c0,.15.12.17.48.17H40.7c.83,0,1-.26,1.11-.78.07-.21.12-.31.28-.31s.2.26.2.38Z"/><path class="cls-3" d="M44.45,22.7c.12-.42.14-.47.54-.51l4.22-.38a.68.68,0,0,1,.21,0c.22,0,.29,0,.29.21a7.56,7.56,0,0,1-.29,1.25c-.12.23-.42.26-.66.28L45,23.79c-.33,0-.43.1-.52.28a3.3,3.3,0,0,0-.21.87c0,.29.1.29,1,.38,1.36.12,5.09.45,5.09,3.68,0,3.79-5.64,5-6.79,5-.22,0-.28-.12-.28-.21s.07-.21.73-.28c2.23-.26,4.59-1.58,4.59-3.86,0-1.32-.78-2.5-4.93-2.74-.19,0-.4,0-.4-.37a1.74,1.74,0,0,1,0-.34Z"/><path class="cls-3" d="M37.79,36.24a.67.67,0,0,0,.13-.3c0-.16-.15-.24-.31-.26s-.32,0-.32-.12.13-.16.22-.16.43,0,.65,0,.53,0,.8,0c.09,0,.22,0,.22.17s-.08.1-.17.11a.77.77,0,0,0-.38.14,3,3,0,0,0-.53.65l-.89,1.28v1.16c0,.42,0,.59.42.66.09,0,.23,0,.23.16s-.08.14-.17.14c-.37,0-.73,0-1.1,0s-.68,0-1,0c-.1,0-.17,0-.17-.14s.11-.15.2-.16c.47-.08.44-.2.44-.66V38l-1.25-1.8a2.39,2.39,0,0,0-.28-.35.38.38,0,0,0-.25-.13c-.12,0-.25,0-.25-.14s.15-.14.25-.14c.31,0,.61,0,.92,0s.76,0,1.13,0c.11,0,.28,0,.28.15s-.2.13-.3.13-.24,0-.24.16a1.09,1.09,0,0,0,.19.37l.83,1.19Z"/><path class="cls-3" d="M40.93,37c0,.22,0,.34.23.34a3.89,3.89,0,0,0,.6,0,.45.45,0,0,0,.34-.38c0-.09.08-.23.21-.23s.14.08.14.18,0,.41,0,.61,0,.42,0,.62,0,.2-.15.2c-.34,0-.09-.69-.84-.69l-.31,0c-.24,0-.22.11-.22.3v.84a1.1,1.1,0,0,0,.12.59.72.72,0,0,0,.55.2,1.19,1.19,0,0,0,1.14-.64c0-.1.12-.25.25-.25s.15.05.15.16,0,.25,0,.32l-.08.57c0,.09,0,.13-.12.13-.52,0-1,0-1.58,0l-2.05,0c-.1,0-.17,0-.17-.13s.11-.16.19-.17c.49-.08.47-.22.47-.65V36.39c0-.42,0-.64-.43-.71-.09,0-.23,0-.23-.11a.16.16,0,0,1,.17-.17c.43,0,.84,0,1.27,0,.74,0,1.48,0,2.23,0,.16,0,.12.12.12.25v.58c0,.11,0,.22-.14.22s-.17-.11-.22-.19a1.68,1.68,0,0,0-.33-.37.8.8,0,0,0-.56-.15,1.82,1.82,0,0,0-.62.07c-.09,0-.08.24-.08.33Z"/><path class="cls-3" d="M45.24,35.65c.1-.23.1-.36.39-.36s.23.08.31.28L47.41,39a1.73,1.73,0,0,0,.18.36.32.32,0,0,0,.29.17c.12,0,.26,0,.26.15s-.14.15-.24.15c-.3,0-.59,0-.87,0s-.7,0-1,0c-.1,0-.23,0-.23-.15s.5,0,.5-.3a1.07,1.07,0,0,0-.07-.27L46,38.57c-.1-.25-.07-.23-.33-.23H44.7c-.25,0-.23,0-.32.21a2.37,2.37,0,0,0-.15.65c0,.51.7.2.7.52,0,.13-.13.15-.23.15l-.67,0-.67,0c-.11,0-.22,0-.22-.15s.1-.14.2-.15.27,0,.38-.24.22-.54.3-.74l.39-1Zm-.54,2.08a1.29,1.29,0,0,0-.06.21c0,.1.15.07.21.07h.62c.05,0,.24,0,.24-.06a1.34,1.34,0,0,0-.07-.18l-.47-1.21Z"/><path class="cls-3" d="M52.19,39.09c.14.27.17.42.49.48.08,0,.14,0,.14.15s-.12.13-.21.13H51.43c-.17,0-.18-.08-.24-.22l-.66-1.31a2,2,0,0,0-.33-.52.3.3,0,0,0-.24-.08c-.13,0-.1.1-.1.24v.95c0,.42,0,.59.42.66.09,0,.23,0,.23.16s-.08.14-.17.14c-.37,0-.73,0-1.1,0l-1,0c-.1,0-.18,0-.18-.14s.11-.15.2-.16c.47-.08.45-.2.45-.66V36.37c0-.42,0-.62-.4-.69-.09,0-.22,0-.22-.13s.07-.15.18-.15c.33,0,.66,0,1,0,.56,0,1.1,0,1.65,0a1.52,1.52,0,0,1,.89.22,1.08,1.08,0,0,1,.42.87c0,.69-.6,1-1.21,1,.41,0,.57.3.74.63Zm-2.33-2c0,.18,0,.32.15.32a1.06,1.06,0,0,0,.62-.17.88.88,0,0,0,.34-.7.82.82,0,0,0-.79-.89c-.11,0-.3,0-.32.14s0,.25,0,.34Z"/><path class="cls-3" d="M55.87,36.28c0,.11,0,.27-.15.27s-.16-.1-.19-.19c-.13-.4-.35-.78-.82-.78s-.8.23-.8.64.35.52.65.62l.37.12c.71.23,1.27.59,1.27,1.42a1.51,1.51,0,0,1-.57,1.14,2,2,0,0,1-1.31.43,3.25,3.25,0,0,1-1.2-.24c-.23-.11-.21-.2-.21-.44v-.39c0-.12,0-.39.14-.39s.21.22.24.34a1.26,1.26,0,0,0,.29.59,1.07,1.07,0,0,0,.74.26c.45,0,1-.25,1-.76s-.62-.75-1.06-.92S53,37.44,53,36.73c0-.94,1-1.44,1.86-1.44a2.6,2.6,0,0,1,.92.18c.14.07.12.19.12.32Z"/><path class="cls-3" d="M68.5,37.68c-.08,0-3.61,1-5,3.7C63.42,41.32,66.78,41.77,68.5,37.68Z"/><path class="cls-3" d="M67.79,42.52c-.06,0-3.73.1-5.84,2.28C61.86,44.72,65,46.05,67.79,42.52Z"/><path class="cls-3" d="M65.74,47a9.46,9.46,0,0,0-6.27.7C59.4,47.6,62.08,49.68,65.74,47Z"/><path class="cls-3" d="M62.5,50.78a9.37,9.37,0,0,0-6.24-.92C56.24,49.76,58.2,52.41,62.5,50.78Z"/><path class="cls-3" d="M57.44,46.14a10.55,10.55,0,0,0-4.87,4.47C52.48,50.56,55.54,50.77,57.44,46.14Z"/><path class="cls-3" d="M60.28,42.49a10.89,10.89,0,0,0-2.5,5.71C57.7,48.19,60.27,47.08,60.28,42.49Z"/><path class="cls-3" d="M54.45,44.21a8.79,8.79,0,0,0-2,4.62C52.35,48.82,54.44,47.92,54.45,44.21Z"/><path class="cls-3" d="M54.45,57.4a8.84,8.84,0,0,1-2-4.62C52.35,52.79,54.44,53.69,54.45,57.4Z"/><path class="cls-3" d="M61.55,37.71a11.56,11.56,0,0,0-.25,6.35C61.22,44.09,63.18,41.91,61.55,37.71Z"/><path class="cls-3" d="M60.79,32.84A11.1,11.1,0,0,0,63,38.68C63,38.75,63.88,35.83,60.79,32.84Z"/><path class="cls-3" d="M58.46,28.1a10.36,10.36,0,0,0,4,4.66C62.41,32.84,62.48,29.85,58.46,28.1Z"/><path class="cls-3" d="M57,25.09c0,.05,1.7,2.47,3.87,2.92A4.34,4.34,0,0,0,57,25.09Z"/><path class="cls-3" d="M58.31,53.6c0-.05-2.64-2.55-5.74-2.48C52.57,51,53.69,54.05,58.31,53.6Z"/><path class="cls-3" d="M59.48,25.05a6.07,6.07,0,0,0-2.3-3.88C57.24,21.1,56.49,23.42,59.48,25.05Z"/><path class="cls-3" d="M61.23,27.4a7,7,0,0,0-.11-5.17C61.22,22.2,59.15,24.06,61.23,27.4Z"/><path class="cls-3" d="M63.12,25.05a7.36,7.36,0,0,0-.5,5.38C62.52,30.46,64.94,28.6,63.12,25.05Z"/><path class="cls-3" d="M65.74,28.36c-.06,0-2.45,2.66-2.23,5.62C63.39,34,66.56,32.69,65.74,28.36Z"/><path class="cls-3" d="M67.79,32.84c-.06,0-3.16,1.93-3.73,4.84C63.93,37.65,67.31,37.22,67.79,32.84Z"/><path class="cls-3" d="M22.32,37.68a8.34,8.34,0,0,1,4.73,3.7C27.14,41.32,24,41.77,22.32,37.68Z"/><path class="cls-3" d="M23,42.52a8.5,8.5,0,0,1,5.54,2.28C28.62,44.72,25.62,46.05,23,42.52Z"/><path class="cls-3" d="M24.94,47a8.56,8.56,0,0,1,5.95.7C31,47.6,28.41,49.68,24.94,47Z"/><path class="cls-3" d="M28,50.78a8.47,8.47,0,0,1,5.91-.92C34,49.76,32.1,52.41,28,50.78Z"/><path class="cls-3" d="M32.82,46.14a10.19,10.19,0,0,1,4.62,4.47C37.52,50.56,34.61,50.77,32.82,46.14Z"/><path class="cls-3" d="M30.12,42.49a11.14,11.14,0,0,1,2.37,5.71C32.57,48.19,30.13,47.08,30.12,42.49Z"/><path class="cls-3" d="M35.66,44.21a9.08,9.08,0,0,1,1.92,4.62C37.64,48.82,35.66,47.92,35.66,44.21Z"/><path class="cls-3" d="M35.66,57.4a9.13,9.13,0,0,0,1.92-4.62C37.64,52.79,35.66,53.69,35.66,57.4Z"/><path class="cls-3" d="M28.92,37.71a12.2,12.2,0,0,1,.23,6.35C29.23,44.09,27.37,41.91,28.92,37.71Z"/><path class="cls-3" d="M29.64,32.84a11.61,11.61,0,0,1-2.12,5.84C27.57,38.75,26.7,35.83,29.64,32.84Z"/><path class="cls-3" d="M31.84,28.1a10.14,10.14,0,0,1-3.78,4.66C28.1,32.84,28,29.85,31.84,28.1Z"/><path class="cls-3" d="M33.26,25.09c0,.05-1.61,2.47-3.67,2.92A4.18,4.18,0,0,1,33.26,25.09Z"/><path class="cls-3" d="M32,53.6c0-.05,2.51-2.55,5.45-2.48C37.44,51,36.37,54.05,32,53.6Z"/><path class="cls-3" d="M30.88,25.05a6.18,6.18,0,0,1,2.18-3.88C33,21.1,33.71,23.42,30.88,25.05Z"/><path class="cls-3" d="M29.22,27.4a7.4,7.4,0,0,1,.1-5.17C29.23,22.2,31.19,24.06,29.22,27.4Z"/><path class="cls-3" d="M27.43,25.05a7.71,7.71,0,0,1,.47,5.38C28,30.46,25.7,28.6,27.43,25.05Z"/><path class="cls-3" d="M24.94,28.36A8.64,8.64,0,0,1,27.05,34C27.17,34,24.16,32.69,24.94,28.36Z"/><path class="cls-3" d="M23,32.84c.05,0,3,1.93,3.53,4.84C26.66,37.65,23.45,37.22,23,32.84Z"/><path class="cls-3" d="M38.88,42.27v.28c0,.08,0,.13,0,.15s0,0,.08,0h.2a.22.22,0,0,0,.2-.14l0-.06s0,0,0,0,0,0,0,0a.2.2,0,0,0,0,.05v.06a1.77,1.77,0,0,0,0,.19,1.21,1.21,0,0,1,0,.18v.09h0s0,0,0,0a.34.34,0,0,0-.08-.17l-.08,0H39l-.08,0s0,0,0,.08a1,1,0,0,0,0,.2v.11a.79.79,0,0,0,0,.26.12.12,0,0,0,.05.08l.09,0a.69.69,0,0,0,.68-.32h0v0a.45.45,0,0,1-.07.25.38.38,0,0,1-.14.14.48.48,0,0,1-.22,0h-.92a0,0,0,0,1,0,0s0,0,0,0l.1-.06a.23.23,0,0,0,0-.11.92.92,0,0,0,0-.18v-1a.3.3,0,0,0,0-.19.35.35,0,0,0-.2-.07s0,0,0,0,0,0,0,0H39.6a0,0,0,0,1,0,0,.54.54,0,0,0,0,.11c0,.07,0,.13,0,.16s0,.1,0,.1,0,0,0-.06a.2.2,0,0,0-.09-.18.56.56,0,0,0-.3-.06H39c-.05,0-.07.06-.07.13Z"/><path class="cls-3" d="M40.4,42a.59.59,0,0,1,.23,0l.09,0,.08,0h0l0,0s0,0,0,0,0,0,0,0v.15l0,.13v.14s0,.06,0,.06,0,0,0-.05a.54.54,0,0,0-.19-.31A.45.45,0,0,0,40.4,42a.32.32,0,0,0-.21.08.25.25,0,0,0-.08.18.22.22,0,0,0,.07.17,1.76,1.76,0,0,0,.31.15,1.06,1.06,0,0,1,.4.24.53.53,0,0,1,.12.35.57.57,0,0,1-.16.39.52.52,0,0,1-.38.16,1.08,1.08,0,0,1-.28-.06l-.13,0s-.07,0-.07,0,0,0,0-.07a1,1,0,0,0,0-.17,1.65,1.65,0,0,1,0-.22s0-.06,0-.06,0,0,0,0a.78.78,0,0,0,.22.37.45.45,0,0,0,.32.15.34.34,0,0,0,.23-.1.3.3,0,0,0,.1-.23.31.31,0,0,0,0-.17.7.7,0,0,0-.18-.12l-.2-.09a1,1,0,0,1-.37-.23.39.39,0,0,1-.1-.29.45.45,0,0,1,.14-.35A.42.42,0,0,1,40.4,42Z"/><path class="cls-3" d="M42.12,42.29v1a.51.51,0,0,0,.07.31.27.27,0,0,0,.22.1s0,0,0,0,0,0,0,0h-.47l-.28,0H41.6s0,0,0,0,0,0,0,0h0a.26.26,0,0,0,.16-.07.35.35,0,0,0,0-.18v-1.2c0-.07,0-.1-.11-.1a.94.94,0,0,0-.35,0l-.09.06-.06.18v0s0,0,0,0,0,0,0,0a.46.46,0,0,1,0-.1v-.11l0-.11V42a0,0,0,0,1,0-.05h1.48s.07,0,.08.05v.1a.77.77,0,0,1,0,.1.49.49,0,0,1,0,.11s0,0,0,0,0,0,0-.05a.26.26,0,0,0-.1-.17.39.39,0,0,0-.23,0,.56.56,0,0,0-.24,0S42.12,42.21,42.12,42.29Z"/><path class="cls-3" d="M43,43.32s0,0,.09,0l.07.08.05.06,0,0s0,.05-.06.08l-.07.08a.18.18,0,0,1-.1.06.13.13,0,0,1-.07,0,.3.3,0,0,0-.09-.1s-.06-.06-.06-.08,0,0,.06-.08a.29.29,0,0,1,.08-.08S43,43.32,43,43.32Z"/><path class="cls-3" d="M53.45,28.86v1.43c0,.15,0,.23-.15.25l-.22.06-.25.08-.08,0a.37.37,0,0,1-.07-.26s0-.11,0-.23,0-.34,0-.5v-.8H51.19c-.19,0-.29-.05-.29-.15l.09-.24,0-.22c0-.1.11-.15.26-.15h.15l.53,0h.74v-.32l0-1a.47.47,0,0,1,.16-.35.53.53,0,0,1,.37-.15c.11,0,.17,0,.19.11a4.71,4.71,0,0,1,0,.73v1H55c.16,0,.24.07.24.2a.49.49,0,0,1-.16.37.47.47,0,0,1-.35.17H54.6l-.83,0Z"/></g></svg>