<svg id="Layer_1" data-name="Layer 1" xmlns="http://www.w3.org/2000/svg" viewBox="0 0 90 100"><defs><style>.cls-1{fill:#fff;stroke-miterlimit:10;}.cls-1,.cls-3{stroke:#74af27;}.cls-2{fill:#74af27;}.cls-3{fill:none;stroke-linecap:round;stroke-linejoin:round;}</style></defs><title>EV-Rolec-CustomerService</title><circle class="cls-1" cx="45" cy="37.74" r="28.35"/><path class="cls-2" d="M24.85,73.85v0A3.17,3.17,0,0,1,28,70.58a3.25,3.25,0,0,1,2.46,1L30,72.1a2.71,2.71,0,0,0-2-.87,2.48,2.48,0,0,0-2.44,2.59h0A2.5,2.5,0,0,0,28,76.44a2.77,2.77,0,0,0,2-.91l.47.46A3.31,3.31,0,0,1,28,77.09,3.14,3.14,0,0,1,24.85,73.85Z"/><path class="cls-2" d="M31.31,75.22V72.33H32v2.72a1.25,1.25,0,0,0,1.29,1.41A1.37,1.37,0,0,0,34.68,75V72.33h.69V77h-.69v-.81a1.76,1.76,0,0,1-1.59.9A1.69,1.69,0,0,1,31.31,75.22Z"/><path class="cls-2" d="M36.27,76.39l.35-.49a2.75,2.75,0,0,0,1.61.59c.56,0,1-.29,1-.74v0c0-.46-.55-.64-1.16-.81s-1.54-.46-1.54-1.32v0a1.41,1.41,0,0,1,1.59-1.33,3.24,3.24,0,0,1,1.67.51l-.31.53a2.65,2.65,0,0,0-1.38-.45c-.55,0-.9.28-.9.67v0c0,.44.57.61,1.19.8s1.5.5,1.5,1.33v0a1.47,1.47,0,0,1-1.66,1.4A3.22,3.22,0,0,1,36.27,76.39Z"/><path class="cls-2" d="M41,75.75V72.94h-.65v-.61H41v-1.4h.69v1.4h1.48v.61H41.71v2.72a.69.69,0,0,0,.78.78,1.43,1.43,0,0,0,.68-.17v.6a1.8,1.8,0,0,1-.84.2A1.19,1.19,0,0,1,41,75.75Z"/><path class="cls-2" d="M43.72,74.68v0a2.43,2.43,0,0,1,4.85,0v0a2.42,2.42,0,0,1-2.44,2.43A2.37,2.37,0,0,1,43.72,74.68Zm4.14,0v0a1.76,1.76,0,0,0-1.73-1.82,1.72,1.72,0,0,0-1.7,1.8v0a1.75,1.75,0,0,0,1.72,1.81A1.72,1.72,0,0,0,47.86,74.68Z"/><path class="cls-2" d="M49.55,72.33h.69v.79a1.71,1.71,0,0,1,1.51-.89,1.58,1.58,0,0,1,1.49.93,1.86,1.86,0,0,1,1.64-.93,1.68,1.68,0,0,1,1.73,1.88V77h-.7V74.27c0-.9-.45-1.41-1.2-1.41a1.3,1.3,0,0,0-1.28,1.44V77h-.69V74.25c0-.87-.46-1.39-1.2-1.39a1.35,1.35,0,0,0-1.3,1.47V77h-.69Z"/><path class="cls-2" d="M57.55,74.67v0a2.3,2.3,0,0,1,2.23-2.42A2.22,2.22,0,0,1,62,74.69a1.77,1.77,0,0,1,0,.23H58.25a1.63,1.63,0,0,0,1.64,1.57,1.92,1.92,0,0,0,1.47-.66l.43.39a2.4,2.4,0,0,1-1.92.87A2.31,2.31,0,0,1,57.55,74.67Zm3.7-.27a1.53,1.53,0,0,0-1.48-1.58,1.61,1.61,0,0,0-1.52,1.58Z"/><path class="cls-2" d="M62.9,72.33h.69v1.22a2,2,0,0,1,1.9-1.3V73h0a1.88,1.88,0,0,0-1.85,2.13V77H62.9Z"/><path class="cls-2" d="M29.93,87.07l.44-.53a3,3,0,0,0,2.16.9c.85,0,1.41-.45,1.41-1.07v0c0-.59-.32-.92-1.64-1.2s-2.12-.78-2.12-1.82v0a1.86,1.86,0,0,1,2.07-1.72,3.32,3.32,0,0,1,2.22.78l-.42.55a2.75,2.75,0,0,0-1.82-.69c-.81,0-1.34.45-1.34,1v0c0,.59.33.93,1.71,1.22s2.06.82,2.06,1.79h0c0,1.08-.9,1.79-2.16,1.79A3.72,3.72,0,0,1,29.93,87.07Z"/><path class="cls-2" d="M35.43,85.67v0a2.29,2.29,0,0,1,2.23-2.42,2.22,2.22,0,0,1,2.17,2.46,1.77,1.77,0,0,1,0,.23H36.13a1.63,1.63,0,0,0,1.64,1.57,1.92,1.92,0,0,0,1.47-.66l.43.39a2.42,2.42,0,0,1-1.92.87A2.31,2.31,0,0,1,35.43,85.67Zm3.7-.27a1.53,1.53,0,0,0-1.49-1.58,1.6,1.6,0,0,0-1.51,1.58Z"/><path class="cls-2" d="M40.77,83.33h.7v1.22a2,2,0,0,1,1.9-1.3V84h-.06a1.88,1.88,0,0,0-1.84,2.13V88h-.7Z"/><path class="cls-2" d="M43.69,83.33h.77L46,87.19l1.58-3.86h.74l-2,4.69h-.61Z"/><path class="cls-2" d="M49.18,81.55H50v.76h-.79Zm0,1.78h.69V88h-.69Z"/><path class="cls-2" d="M51,85.68v0a2.42,2.42,0,0,1,4.25-1.6l-.46.49a1.87,1.87,0,0,0-1.41-.71,1.72,1.72,0,0,0-1.67,1.8v0a1.74,1.74,0,0,0,1.71,1.81,1.87,1.87,0,0,0,1.42-.69l.45.41A2.41,2.41,0,0,1,51,85.68Z"/><path class="cls-2" d="M55.71,85.67v0a2.29,2.29,0,0,1,2.23-2.42,2.22,2.22,0,0,1,2.17,2.46,1.77,1.77,0,0,1,0,.23H56.41a1.63,1.63,0,0,0,1.64,1.57,1.89,1.89,0,0,0,1.46-.66l.44.39a2.42,2.42,0,0,1-1.92.87A2.31,2.31,0,0,1,55.71,85.67Zm3.7-.27a1.54,1.54,0,0,0-1.49-1.58,1.6,1.6,0,0,0-1.51,1.58Z"/><path class="cls-3" d="M62.63,55.76s.47-7.23-5.54-9.77l-5.83-3.1a9.74,9.74,0,0,1-12.21,0l-6.11,3a10,10,0,0,0-5.54,9.86"/><polyline class="cls-3" points="43.93 47.87 39.14 49.33 36.9 43.95"/><polyline class="cls-3" points="46 47.68 50.88 49.33 53.25 43.95"/><path class="cls-3" d="M36.9,30.68c-.3-2.62-.35-7.23,6.28-8.46a11.35,11.35,0,0,1,4.79,0s6.07,1.34,5.28,8.46c-.13,1.18-.45,3.53-.67,4.7C52.1,37.85,51,42.26,45,42.05c-2.4-.09-6.1-.2-7.17-6.39C37.61,34.41,37,31.94,36.9,30.68Z"/><path class="cls-3" d="M37,29.43c9.2.91,12.64-2.51,12.64-2.51s-.58,3.66,3.63,3.76"/><path class="cls-3" d="M55.51,30.68c4.17,0,3.56,3.86,3.5,4.49-.42,3.93-5.12,3.49-5.12,3.49,4.77-14.14-2.45-17.39-2.45-17.39-4.29-2.73-8.83-1.85-12.2-.38-8.53,3.73-2.92,17.77-2.92,17.77s-4.69.29-5.26-3.85c0,0-.28-4.08,3.46-4.64"/><line class="cls-3" x1="42.15" y1="38.29" x2="36.32" y2="38.66"/><rect class="cls-3" x="42.15" y="36.69" width="6.01" height="2.82" rx="1.29"/></svg>