<svg id="Layer_1" data-name="Layer 1" xmlns="http://www.w3.org/2000/svg" xmlns:xlink="http://www.w3.org/1999/xlink" viewBox="0 0 90 100"><defs><style>.cls-1,.cls-5{fill:none;}.cls-2,.cls-6{fill:#fff;}.cls-2{stroke:#74af27;}.cls-2,.cls-5{stroke-miterlimit:10;}.cls-3{fill:#74af27;}.cls-4{clip-path:url(#clip-path);}.cls-5{stroke:#fff;stroke-width:0.27px;}</style><clipPath id="clip-path"><circle class="cls-1" cx="45" cy="37.74" r="28.35"/></clipPath></defs><title>EV-Rolec-3YearWarrantyIncludedFree-OLEV</title><circle class="cls-2" cx="45" cy="37.74" r="28.35"/><path class="cls-3" d="M27.65,70.68h.71V77h-.71Z"/><path class="cls-3" d="M29.82,72.33h.69v.81a1.79,1.79,0,0,1,1.6-.91,1.7,1.7,0,0,1,1.78,1.87V77H33.2V74.27a1.24,1.24,0,0,0-1.29-1.41,1.38,1.38,0,0,0-1.4,1.46V77h-.69Z"/><path class="cls-3" d="M34.81,74.68v0a2.42,2.42,0,0,1,4.25-1.6l-.46.49a1.89,1.89,0,0,0-1.42-.71,1.72,1.72,0,0,0-1.66,1.8v0a1.74,1.74,0,0,0,1.71,1.81,1.91,1.91,0,0,0,1.42-.69l.44.41a2.4,2.4,0,0,1-4.28-1.51Z"/><path class="cls-3" d="M40,70.41h.69V77H40Z"/><path class="cls-3" d="M42,75.22V72.33h.69v2.72A1.25,1.25,0,0,0,44,76.46,1.38,1.38,0,0,0,45.37,75V72.33h.68V77h-.68v-.81a1.79,1.79,0,0,1-1.6.9A1.7,1.7,0,0,1,42,75.22Z"/><path class="cls-3" d="M47.07,74.67v0a2.28,2.28,0,0,1,2.22-2.42,2.11,2.11,0,0,1,1.78,1V70.41h.69V77h-.69v-.94a2.09,2.09,0,0,1-1.78,1A2.26,2.26,0,0,1,47.07,74.67Zm4,0v0a1.73,1.73,0,0,0-1.68-1.79,1.64,1.64,0,0,0-1.64,1.79v0a1.68,1.68,0,0,0,1.64,1.8A1.74,1.74,0,0,0,51.1,74.66Z"/><path class="cls-3" d="M52.75,74.67v0A2.3,2.3,0,0,1,55,72.23a2.22,2.22,0,0,1,2.17,2.46,1.77,1.77,0,0,1,0,.23H53.46a1.62,1.62,0,0,0,1.63,1.57,1.92,1.92,0,0,0,1.47-.66l.43.39a2.38,2.38,0,0,1-1.91.87A2.32,2.32,0,0,1,52.75,74.67Zm3.7-.27A1.53,1.53,0,0,0,55,72.82a1.6,1.6,0,0,0-1.51,1.58Z"/><path class="cls-3" d="M57.83,74.67v0a2.28,2.28,0,0,1,2.22-2.42,2.11,2.11,0,0,1,1.79,1V70.41h.69V77h-.69v-.94a2.09,2.09,0,0,1-1.79,1A2.27,2.27,0,0,1,57.83,74.67Zm4,0v0a1.73,1.73,0,0,0-1.68-1.79,1.65,1.65,0,0,0-1.64,1.79v0a1.68,1.68,0,0,0,1.64,1.8A1.74,1.74,0,0,0,61.86,74.66Z"/><path class="cls-3" d="M34.06,81.68h4.53v.66H34.77v2.25h3.41v.65H34.77V88h-.71Z"/><path class="cls-3" d="M39.69,81.68H42.4a2.53,2.53,0,0,1,1.8.63,1.78,1.78,0,0,1,.48,1.25h0A1.84,1.84,0,0,1,43,85.41L44.91,88H44l-1.82-2.45h-1.8V88h-.72Zm2.65,3.22c.95,0,1.62-.49,1.62-1.3v0c0-.77-.59-1.24-1.61-1.24H40.41V84.9Z"/><path class="cls-3" d="M45.93,81.68h4.56v.65H46.64v2.15h3.44v.65H46.64v2.21h3.89V88h-4.6Z"/><path class="cls-3" d="M51.69,81.68h4.56v.65H52.4v2.15h3.44v.65H52.4v2.21h3.89V88h-4.6Z"/><g class="cls-4"><path class="cls-3" d="M41.94,15.48c1.42-.17,4.14-1.5,5.56-1.33s3.77,2.09,5.11,2.59,4.36.59,5.54,1.4,2.36,3.6,3.32,4.67,3.59,2.56,4.26,3.82.41,4.28.76,5.67,2,3.93,2,5.36-1.62,4-2,5.38-.06,4.41-.73,5.68-3.28,2.77-4.23,3.85-2.1,3.87-3.28,4.69-4.2.93-5.53,1.44-3.67,2.45-5.09,2.63S43.52,60.2,42.1,60s-4.38.47-5.72,0-3.15-2.93-4.33-3.74-4.1-1.62-5-2.69-1.44-4.06-2.11-5.32S22,44.91,21.67,43.52s.62-4.26.62-5.69-1-4.3-.66-5.69,2.53-3.48,3.19-4.75,1.12-4.26,2.06-5.34,3.86-1.91,5-2.72,3-3.26,4.31-3.77S40.52,15.66,41.94,15.48Z"/><circle class="cls-5" cx="44.76" cy="38.05" r="19.32"/><path class="cls-6" d="M38.31,24.26A1.72,1.72,0,1,1,36,23.75,1.67,1.67,0,0,1,38.31,24.26Zm-2.6,1.6A1.34,1.34,0,0,0,38,24.46a1.34,1.34,0,0,0-2.28,1.4Z"/><path class="cls-6" d="M39.09,22.26l2.63,2L41,21.71l.36-.11.92,3.14-.37.11-2.63-2L40,25.41l-.36.1-.93-3.14Z"/><path class="cls-6" d="M43.86,23l0,.26-1.1.11,0-.27Z"/><path class="cls-6" d="M45.81,21.68c-.42,0-.71.12-.72.4-.06.85,1.81.52,1.74,1.71,0,.54-.54.86-1.24.82A1.83,1.83,0,0,1,44.37,24l.18-.31a1.71,1.71,0,0,0,1.07.53c.47,0,.77-.15.79-.47.06-.87-1.81-.52-1.74-1.7,0-.51.51-.81,1.19-.77a2,2,0,0,1,1,.37L46.7,22A1.7,1.7,0,0,0,45.81,21.68Z"/><path class="cls-6" d="M48.47,21.71l-.68,3.2-.37-.08.69-3.2Z"/><path class="cls-6" d="M51.72,22.75l-.12.33-1-.37-1,2.75-.35-.13,1-2.75-1-.37.12-.33Z"/><path class="cls-6" d="M54.53,24.37l-.18.3-1.59-1-.56.95,1.42.85-.18.29L52,25l-.59,1,1.64,1-.18.29-2-1.17,1.69-2.82Z"/><path class="cls-6" d="M33.27,46.58l-1.4,2.64,2.66-1.37.26.27-1.4,2.65,2.66-1.37.27.27-3.11,1.52-.27-.27,1.36-2.58-2.61,1.31-.27-.28L33,46.29Z"/><path class="cls-6" d="M36.92,52.72l-1.53-.93-.75.53-.34-.2,3-2,.33.2-.44,3.57-.35-.21Zm0-.38.24-1.83L35.7,51.58Z"/><path class="cls-6" d="M40.1,54.89l-.32-1.21-.2-.06-.83-.27-.33,1-.35-.12,1-3.11,1.18.4c.78.26,1.1.79.88,1.45a1,1,0,0,1-1,.77L40.51,55Zm-.41-1.6c.56.19,1,.05,1.13-.44s-.07-.83-.64-1l-.83-.28L38.86,53Z"/><path class="cls-6" d="M43.89,55.51l-.58-1.12H43.1l-.86-.09-.11,1-.37,0L42.09,52l1.24.12c.82.09,1.25.54,1.17,1.23a1,1,0,0,1-.84,1l.65,1.19ZM43.14,54c.59.06,1-.17,1-.69s-.26-.79-.85-.85l-.87-.09L42.27,54Z"/><path class="cls-6" d="M47.54,54.45l-1.78.21-.27.87-.39,0,1.09-3.43.38,0,1.84,3.1-.41,0Zm-.19-.33-.93-1.59-.54,1.76Z"/><path class="cls-6" d="M48.64,51.71l2.75,1.85L50.49,51l.35-.12L52,54l-.36.13L48.83,52.3l.9,2.51-.35.12-1.11-3.09Z"/><path class="cls-6" d="M53.25,49.48l.18.29-.91.56,1.53,2.5-.32.2-1.53-2.5-.91.55-.18-.29Z"/><path class="cls-6" d="M55.79,50.07l.77.85-.28.25-.76-.85-2.38-.75.29-.26,1.94.57-.37-2,.29-.25Z"/><path class="cls-6" d="M56.07,46.43l.4.3.06-.5.22,0-.07.51.46-.21.09.2-.47.2.41.3-.12.16-.4-.3-.06.5-.22,0,.07-.5-.46.2-.1-.2.47-.19-.4-.3Z"/><circle class="cls-6" cx="44.76" cy="38.05" r="11.38"/><rect class="cls-3" x="21.51" y="31.89" width="46.98" height="12.33"/><line class="cls-5" x1="68.49" y1="43.68" x2="21.51" y2="43.68"/><line class="cls-5" x1="21.51" y1="32.43" x2="68.49" y2="32.43"/><path class="cls-6" d="M31.51,39.51c0,1.36-1.12,2.31-2.87,2.31A4.86,4.86,0,0,1,25.86,41l.75-1.42a2.65,2.65,0,0,0,1.89.88c.78,0,1.21-.33,1.21-.88s-.43-.86-1.22-.86H27.3v-1L29,36.11H26.24V34.69h4.93v1.06l-1.9,1.78.35,0A2,2,0,0,1,31.51,39.51Z"/><path class="cls-6" d="M39.39,39.48v2.26H37.55V39.53L35,34.68h1.84l1.67,3,1.63-3h1.85Z"/><path class="cls-6" d="M48.14,34.68v1.47H44.42v1.31h3.36v1.47H44.42v1.32h3.82v1.48H42.57V34.68Z"/><path class="cls-6" d="M54.07,40.49H51l-.49,1.25H48.64l3-7.06h1.89l3,7.06h-2Zm-.54-1.41-1-2.52-1,2.52Z"/><path class="cls-6" d="M61.4,41.74l-1-2H59v2H57.16V34.68h3.17c1.87,0,2.94.9,2.94,2.47A2.38,2.38,0,0,1,62,39.43l1.47,2.31ZM59,38.31h1.34a1,1,0,0,0,1.18-1.1c0-.69-.44-1.06-1.18-1.06H59Z"/><polygon class="cls-3" points="44.76 27.62 45.29 28.69 46.47 28.86 45.62 29.69 45.82 30.87 44.76 30.31 43.71 30.87 43.91 29.69 43.05 28.86 44.23 28.69 44.76 27.62"/><polygon class="cls-3" points="41.26 28.99 41.56 29.61 42.24 29.71 41.75 30.19 41.87 30.87 41.26 30.55 40.65 30.87 40.77 30.19 40.27 29.71 40.95 29.61 41.26 28.99"/><polygon class="cls-3" points="48.27 28.99 48.57 29.61 49.25 29.71 48.76 30.19 48.88 30.87 48.27 30.55 47.66 30.87 47.78 30.19 47.28 29.71 47.96 29.61 48.27 28.99"/><polygon class="cls-3" points="44.76 48.39 44.23 47.32 43.05 47.15 43.91 46.31 43.71 45.14 44.76 45.69 45.82 45.14 45.62 46.31 46.47 47.15 45.29 47.32 44.76 48.39"/><polygon class="cls-3" points="48.27 47.01 47.96 46.4 47.28 46.3 47.77 45.82 47.66 45.14 48.27 45.46 48.88 45.14 48.76 45.82 49.25 46.3 48.57 46.4 48.27 47.01"/><polygon class="cls-3" points="41.26 47.01 40.95 46.4 40.27 46.3 40.76 45.82 40.65 45.14 41.26 45.46 41.87 45.14 41.75 45.82 42.24 46.3 41.56 46.4 41.26 47.01"/></g></svg>