<svg xmlns="http://www.w3.org/2000/svg" xmlns:xlink="http://www.w3.org/1999/xlink" viewBox="0 0 90 100"><defs><style>.cls-1{fill:none;}.cls-2{isolation:isolate;}.cls-3,.cls-9{fill:#fff;}.cls-3{stroke:#74af27;stroke-miterlimit:10;}.cls-4{fill:#74af27;}.cls-5{clip-path:url(#clip-path);}.cls-6{fill:#2f4794;}.cls-7{fill:#fbf4f9;}.cls-8{fill:#e5312f;}.cls-10{fill:#cd132d;}.cls-11{mix-blend-mode:multiply;}.cls-11,.cls-12{fill:url(#linear-gradient);}.cls-12{opacity:0.25;mix-blend-mode:overlay;}</style><clipPath id="clip-path"><circle class="cls-1" cx="45" cy="37.74" r="28.35"/></clipPath><linearGradient id="linear-gradient" x1="26.21" y1="37.57" x2="63.45" y2="37.57" gradientUnits="userSpaceOnUse"><stop offset="0" stop-color="#fff"/><stop offset="0.13" stop-color="#f7f7f7"/><stop offset="0.34" stop-color="#e0e0e1"/><stop offset="0.54" stop-color="#c4c5c6"/><stop offset="0.59" stop-color="#c0c0c2"/><stop offset="0.69" stop-color="#bdbdbf"/><stop offset="0.91" stop-color="#fff"/></linearGradient></defs><title>EV-Rolec-ManufacturedInTheUK</title><g class="cls-2"><g id="Layer_1" data-name="Layer 1"><circle class="cls-3" cx="45" cy="37.74" r="28.35"/><path class="cls-4" d="M16.6,70.68h.72l2.29,3.44,2.3-3.44h.72V77h-.71V71.88l-2.3,3.38h0l-2.3-3.37V77H16.6Z"/><path class="cls-4" d="M23.67,75.63h0c0-1,.81-1.51,2-1.51a5.18,5.18,0,0,1,1.43.2v-.16c0-.84-.51-1.27-1.39-1.27a3.37,3.37,0,0,0-1.41.34l-.21-.56a3.8,3.8,0,0,1,1.7-.39,2,2,0,0,1,1.5.51,1.83,1.83,0,0,1,.48,1.36V77h-.67v-.71a2,2,0,0,1-1.68.8A1.56,1.56,0,0,1,23.67,75.63Zm3.43-.35v-.45a4.8,4.8,0,0,0-1.37-.2c-.87,0-1.36.38-1.36,1v0c0,.58.54.93,1.17.93A1.41,1.41,0,0,0,27.1,75.28Z"/><path class="cls-4" d="M29,72.33h.7v.81a1.76,1.76,0,0,1,1.59-.91A1.7,1.7,0,0,1,33,74.1V77h-.69V74.27a1.24,1.24,0,0,0-1.29-1.41,1.37,1.37,0,0,0-1.39,1.46V77H29Z"/><path class="cls-4" d="M34.16,75.22V72.33h.7v2.72a1.25,1.25,0,0,0,1.28,1.41A1.38,1.38,0,0,0,37.54,75V72.33h.68V77h-.68v-.81a1.76,1.76,0,0,1-1.59.9A1.7,1.7,0,0,1,34.16,75.22Z"/><path class="cls-4" d="M39.77,72.94h-.64v-.6h.64v-.4a1.64,1.64,0,0,1,.41-1.2,1.33,1.33,0,0,1,1-.36,1.9,1.9,0,0,1,.76.12v.6a2.37,2.37,0,0,0-.67-.12c-.54,0-.81.32-.81,1v.38h1.47v.59H40.46v4h-.69Z"/><path class="cls-4" d="M42.06,75.63h0c0-1,.81-1.51,2-1.51a5.24,5.24,0,0,1,1.43.2v-.16c0-.84-.52-1.27-1.39-1.27a3.33,3.33,0,0,0-1.41.34l-.21-.56a3.76,3.76,0,0,1,1.69-.39,2.07,2.07,0,0,1,1.51.51,1.87,1.87,0,0,1,.47,1.36V77h-.66v-.71a2,2,0,0,1-1.69.8A1.56,1.56,0,0,1,42.06,75.63Zm3.43-.35v-.45a4.8,4.8,0,0,0-1.37-.2c-.87,0-1.36.38-1.36,1v0c0,.58.54.93,1.17.93A1.42,1.42,0,0,0,45.49,75.28Z"/><path class="cls-4" d="M47.06,74.68v0a2.42,2.42,0,0,1,4.25-1.6l-.46.49a1.87,1.87,0,0,0-1.41-.71,1.72,1.72,0,0,0-1.67,1.8v0a1.74,1.74,0,0,0,1.71,1.81,1.87,1.87,0,0,0,1.42-.69l.45.41a2.41,2.41,0,0,1-4.29-1.51Z"/><path class="cls-4" d="M52.46,75.75V72.94h-.65v-.61h.65v-1.4h.69v1.4h1.48v.61H53.15v2.72a.7.7,0,0,0,.79.78,1.42,1.42,0,0,0,.67-.17v.6a1.79,1.79,0,0,1-.83.2A1.19,1.19,0,0,1,52.46,75.75Z"/><path class="cls-4" d="M55.51,75.22V72.33h.7v2.72a1.24,1.24,0,0,0,1.28,1.41A1.38,1.38,0,0,0,58.89,75V72.33h.68V77h-.68v-.81a1.78,1.78,0,0,1-1.6.9A1.7,1.7,0,0,1,55.51,75.22Z"/><path class="cls-4" d="M60.86,72.33h.69v1.22a2,2,0,0,1,1.9-1.3V73H63.4a1.88,1.88,0,0,0-1.85,2.13V77h-.69Z"/><path class="cls-4" d="M63.75,74.67v0A2.29,2.29,0,0,1,66,72.23a2.22,2.22,0,0,1,2.17,2.46,1.77,1.77,0,0,1,0,.23H64.45a1.63,1.63,0,0,0,1.64,1.57,1.92,1.92,0,0,0,1.47-.66l.43.39a2.42,2.42,0,0,1-1.92.87A2.31,2.31,0,0,1,63.75,74.67Zm3.7-.27A1.53,1.53,0,0,0,66,72.82a1.6,1.6,0,0,0-1.51,1.58Z"/><path class="cls-4" d="M68.82,74.67v0a2.29,2.29,0,0,1,2.23-2.42,2.11,2.11,0,0,1,1.78,1V70.41h.69V77h-.69v-.94a2.09,2.09,0,0,1-1.78,1A2.27,2.27,0,0,1,68.82,74.67Zm4,0v0a1.73,1.73,0,0,0-1.69-1.79,1.65,1.65,0,0,0-1.64,1.79v0a1.68,1.68,0,0,0,1.64,1.8A1.74,1.74,0,0,0,72.86,74.66Z"/><path class="cls-4" d="M25.32,81.68H26V88h-.71Z"/><path class="cls-4" d="M27.49,83.33h.69v.81a1.79,1.79,0,0,1,1.6-.91,1.7,1.7,0,0,1,1.78,1.87V88h-.69V85.27a1.24,1.24,0,0,0-1.29-1.41,1.38,1.38,0,0,0-1.4,1.46V88h-.69Z"/><path class="cls-4" d="M37,82.34H34.86v-.66h5v.66H37.7V88H37Z"/><path class="cls-4" d="M40.61,81.41h.7v2.73a1.76,1.76,0,0,1,1.59-.91,1.7,1.7,0,0,1,1.78,1.87V88H44V85.27a1.24,1.24,0,0,0-1.29-1.41,1.37,1.37,0,0,0-1.39,1.46V88h-.7Z"/><path class="cls-4" d="M45.6,85.67v0a2.29,2.29,0,0,1,2.23-2.42A2.22,2.22,0,0,1,50,85.69a1.77,1.77,0,0,1,0,.23H46.3a1.63,1.63,0,0,0,1.64,1.57,1.92,1.92,0,0,0,1.47-.66l.43.39a2.42,2.42,0,0,1-1.92.87A2.31,2.31,0,0,1,45.6,85.67Zm3.7-.27a1.53,1.53,0,0,0-1.49-1.58A1.6,1.6,0,0,0,46.3,85.4Z"/><path class="cls-4" d="M53.39,85.35V81.68h.71V85.3A1.86,1.86,0,0,0,56,87.43c1.16,0,1.9-.7,1.9-2.08V81.68h.71v3.61a2.63,2.63,0,1,1-5.25.06Z"/><path class="cls-4" d="M60.05,81.68h.71v3.77l3.62-3.77h.92l-2.7,2.76L65.42,88h-.89L62.1,84.93l-1.34,1.36V88h-.71Z"/><g class="cls-5"><path class="cls-6" d="M63.5,25.94V49.3h0c-12.43-7-24.85,7-37.28,0V26C38.65,33,51.07,18.93,63.5,25.94Z"/><path class="cls-7" d="M63.5,46.87V49.3h0a15.49,15.49,0,0,0-3.88-1.55,34.72,34.72,0,0,0-11.45-6.52L47,40.82l-1.35-.47-.45-.16-1.38-.47-.51-.18-.43-.15L42,39.08,41.76,39l-.42-.15c-1.35-.51-2.71-1.06-4.06-1.72-.61-.29-1.22-.61-1.83-1a32.67,32.67,0,0,1-9.23-7.75V26l0,0,.08.08a15.16,15.16,0,0,0,3.77,1.49,35.22,35.22,0,0,0,11.66,6.6l1.15.41.31.11,1.82.63.19.06.7.25L47,36l.19.07,1,.35.94.36c.84.32,1.67.67,2.51,1.05.61.27,1.22.57,1.83.89A32.43,32.43,0,0,1,63.5,46.87Z"/><path class="cls-8" d="M63.51,49.24v.09A16.27,16.27,0,0,0,61,48.18a34,34,0,0,0-12.85-7.82L47.08,40h0l-1.1-.39-.67-.24L44,38.9l-1.13-.39-.16-.06L42,38.2l-.28-.1c-1-.38-2-.78-3.08-1.23-.61-.27-1.22-.55-1.83-.86a32.59,32.59,0,0,1-10.63-8.49V25.91l0,0,.08.08a32.73,32.73,0,0,0,13.11,9.55l1.82.72.5.18,1.15.42.43.15.7.24,1.29.45,1.7.59.19.07.62.22.33.13c.5.18,1,.37,1.49.57A33,33,0,0,1,63.51,49.24Z"/><path class="cls-7" d="M63.5,26.4v2.43A17.88,17.88,0,0,0,55,32.15c-.61.4-1.21.83-1.82,1.28-1.36,1-2.72,2.12-4.07,3.3l-.94.81c-.32.28-.64.56-1,.85l-.19.17L46.6,39l-.67.61-.7.63-.46.41-1.86,1.69-1.15,1c-3.64,3.23-7.29,6.16-10.93,7.73a15.43,15.43,0,0,1-4.61-1.71v-2c3.6-.23,7.19-2.22,10.79-5,.61-.47,1.21-.95,1.82-1.45.84-.69,1.67-1.4,2.51-2.14l.42-.37L42,38.2l.87-.78.43-.38,1.89-1.72.18-.16L47,33.69l.21-.18.93-.84c4.06-3.58,8.12-6.76,12.18-8.09a15.78,15.78,0,0,1,2.86,1.19C63.3,26,63.4,26.19,63.5,26.4Z"/><path class="cls-8" d="M63.41,26.46c-4.07.3-8.13,2.83-12.19,6.12q-.91.73-1.83,1.53l-1.22,1.06-1,.85-.19.17-1.7,1.54L44,38.9l-.7.64c-.14.13-.29.25-.43.39l-.09.07c-.35.32-.7.64-1.06,1s-.51.45-.77.67c-4.64,4.06-9.29,7.51-13.93,8.16-.28-.14-.56-.28-.84-.44v-1.1c4.06-.26,8.13-2.77,12.19-6.05q.92-.75,1.83-1.53l1.52-1.33.28-.25.71-.63.16-.15,1.13-1,1.89-1.71.88-.8.22-.2,1.14-1,.47-.41C53,29.32,57.38,26,61.75,25.08c.43.18.86.38,1.29.61l.46.25c0,.17,0,.34,0,.51Z"/><path class="cls-9" d="M63.52,40.58c-12.44-7-24.89,7-37.33,0V34.17c12.44,7,24.89-7,37.33,0Z"/><path class="cls-8" d="M63.52,39.44c-12.44-7-24.89,7-37.33,0V35.31c12.44,7,24.89-7,37.33,0Z"/><path class="cls-10" d="M47,25.34V48.71c-1.37.38-2.75.78-4.12,1.15V26.49C44.28,26.11,45.66,25.71,47,25.34Z"/><path class="cls-9" d="M47,40l1.15-.31v8.75c-2.14.54-4.28,1.2-6.42,1.75V41.43l1.15-.3V34.71L41.75,35V26.8c2.14-.56,4.28-1.21,6.42-1.76v8.22l-1.15.3Z"/><path class="cls-8" d="M47,25.34V48.71l-4.16,1.16V26.5C44.27,26.12,45.65,25.71,47,25.34Z"/><path class="cls-11" d="M63.45,33.57v7.87h0v7.82c-12.41-7-24.83,7-37.23,0V25.89c12.4,7,24.82-7,37.23,0v7.68Z"/><path class="cls-12" d="M63.45,33.57v7.87h0v7.82c-12.41-7-24.83,7-37.23,0V25.89c12.4,7,24.82-7,37.23,0v7.68Z"/></g></g></g></svg>