<svg id="Layer_1" data-name="Layer 1" xmlns="http://www.w3.org/2000/svg" xmlns:xlink="http://www.w3.org/1999/xlink" viewBox="0 0 90 100"><defs><style>.cls-1,.cls-6{fill:none;}.cls-2,.cls-4{fill:#fff;}.cls-2,.cls-6{stroke:#74af27;stroke-miterlimit:10;}.cls-3{clip-path:url(#clip-path);}.cls-5{fill:#74af27;}</style><clipPath id="clip-path"><path class="cls-1" d="M45,9.77a28,28,0,1,0,28,28A28,28,0,0,0,45,9.77Z"/></clipPath></defs><title>EV-Systems_Operations-2ChargingModes</title><circle class="cls-2" cx="45" cy="37.74" r="28.35"/><g class="cls-3"><path class="cls-4" d="M49.66,30.55c0,2.21.05,4.42,0,6.63s-.16,4.59-.33,6.87c-.08,1.06-.11,2.12-.15,3.18-.11,2.43-.33,4.84-.64,7.26-.28,2.25-.65,4.49-1.06,6.73a5.69,5.69,0,0,1-2.79,4,15.75,15.75,0,0,1-5.46,2c-1.65.34-3.31.58-5,.77a26.22,26.22,0,0,1-6.07,0,45.41,45.41,0,0,1-6.84-1.23A10.32,10.32,0,0,1,16.5,64a4.35,4.35,0,0,1-1.23-2.3A93,93,0,0,1,13.82,52c-.18-1.89-.3-3.78-.39-5.68-.14-2.89-.29-5.77-.41-8.67-.18-4.44-.1-8.88,0-13.32,0-1.94.14-3.88.23-5.82.12-2.35.22-4.72.41-7.07A90.15,90.15,0,0,1,15.34-.78,5.26,5.26,0,0,1,18-4a15.5,15.5,0,0,1,4.87-1.86,44.67,44.67,0,0,1,5.75-.91c.85-.09,1.72,0,2.58,0a33.1,33.1,0,0,1,7.56.75,18.71,18.71,0,0,1,5.22,1.66A6.58,6.58,0,0,1,46.81-2a3.72,3.72,0,0,1,.44,1c.55,2.44.91,4.9,1.24,7.38.27,2,.41,4,.61,6.05.09,1,.09,2,.13,3,.06,1.32.11,2.65.2,4,.26,3.7.25,7.41.23,11.12"/><path class="cls-5" d="M49.66,30.55h-.49c0,1.35,0,2.7,0,4q0,1.29,0,2.58c-.08,2.29-.17,4.57-.34,6.85-.08,1.07-.1,2.14-.15,3.19h0c-.1,2.41-.33,4.81-.63,7.22v0c-.28,2.25-.65,4.48-1,6.71h0a5.21,5.21,0,0,1-2.58,3.64,15.43,15.43,0,0,1-5.29,1.89h0c-1.63.33-3.27.57-4.93.75a24.24,24.24,0,0,1-2.82.16,27.74,27.74,0,0,1-3.15-.19,44.93,44.93,0,0,1-6.76-1.22,9.87,9.87,0,0,1-4.6-2.5h0a3.91,3.91,0,0,1-1.09-2h0A91.61,91.61,0,0,1,14.31,52l0-.24,0,.24c-.19-1.88-.31-3.76-.39-5.66v0c-.14-2.89-.29-5.77-.41-8.66-.09-2.11-.12-4.23-.12-6.35,0-2.31,0-4.62.06-6.94h0c0-1.92.14-3.86.24-5.8.12-2.36.22-4.72.41-7.06A90.61,90.61,0,0,1,15.81-.68v0a4.81,4.81,0,0,1,2.41-3,15,15,0,0,1,4.72-1.79,45.24,45.24,0,0,1,5.69-.91c.33,0,.68,0,1,0h1.52l.8,0a34.15,34.15,0,0,1,6.65.76A18.33,18.33,0,0,1,43.72-4,6.39,6.39,0,0,1,46.4-1.74L46.81-2l-.42.24a3.46,3.46,0,0,1,.39.9v0c.54,2.41.9,4.86,1.23,7.33h0c.26,2,.41,4,.6,6h0c.09,1,.1,1.94.14,3,0,1.32.11,2.65.2,4v0c.19,2.74.23,5.48.23,8.23,0,.95,0,1.91,0,2.86h1c0-.95,0-1.9,0-2.86,0-2.76,0-5.53-.24-8.3-.09-1.3-.15-2.63-.2-4,0-1,0-2-.14-3h0c-.19-2-.34-4-.61-6.08-.32-2.48-.69-5-1.24-7.41v0a4.29,4.29,0,0,0-.49-1.17h0a7.13,7.13,0,0,0-3.07-2.66A19.09,19.09,0,0,0,38.81-6.6,35.38,35.38,0,0,0,32-7.37l-.84,0H29.66c-.37,0-.75,0-1.13,0a45.92,45.92,0,0,0-5.81.93,15.8,15.8,0,0,0-5,1.92A5.77,5.77,0,0,0,14.86-.89h0a90.25,90.25,0,0,0-1.73,12.31c-.19,2.37-.29,4.73-.41,7.09-.1,1.93-.22,3.88-.24,5.84h0c0,2.31-.06,4.63-.06,7,0,2.13,0,4.26.12,6.39.11,2.9.27,5.78.41,8.67h0c.08,1.9.2,3.8.39,5.7a94.12,94.12,0,0,0,1.45,9.74h0a4.93,4.93,0,0,0,1.36,2.54h0a10.83,10.83,0,0,0,5.05,2.77,45.75,45.75,0,0,0,6.91,1.24,27.3,27.3,0,0,0,3.26.2,26,26,0,0,0,2.92-.16c1.69-.19,3.36-.43,5-.77h0a16.18,16.18,0,0,0,5.62-2h0a6.17,6.17,0,0,0,3-4.3h0c.41-2.25.78-4.5,1.07-6.76h0c.3-2.43.53-4.85.64-7.3h0c0-1.06.07-2.12.14-3.16.17-2.3.27-4.6.34-6.89,0-.88,0-1.75,0-2.61,0-1.35,0-2.7,0-4h-.48Z"/><path class="cls-4" d="M42.72,13.15c0,3,0,6,0,9a4.42,4.42,0,0,1-1.79,3.53A11.08,11.08,0,0,1,35.28,28a25.47,25.47,0,0,1-5.23.24,17.55,17.55,0,0,1-4-.49,10.49,10.49,0,0,1-4.92-2.6A4.42,4.42,0,0,1,19.86,22c0-5.92,0-11.83,0-17.75A4.91,4.91,0,0,1,22.36,0,12.4,12.4,0,0,1,26.71-1.7,36,36,0,0,1,33.19-2,13.47,13.47,0,0,1,38.25-1a7.53,7.53,0,0,1,3.88,2.88,3.72,3.72,0,0,1,.59,2v9.34Z"/><path class="cls-5" d="M42.72,13.15h-.48c0,1.52,0,3,0,4.56s0,3,0,4.45h0v0a3.91,3.91,0,0,1-1.61,3.12h0a10.6,10.6,0,0,1-5.43,2.22,22.91,22.91,0,0,1-3.61.27c-.51,0-1,0-1.52,0a17.07,17.07,0,0,1-3.9-.47,10,10,0,0,1-4.71-2.47h0A3.91,3.91,0,0,1,20.35,22h0c0-1.9,0-3.8,0-5.7q0-6,0-12A4.18,4.18,0,0,1,21,2.06,5.24,5.24,0,0,1,22.62.42h0a11.91,11.91,0,0,1,4.19-1.64,16.92,16.92,0,0,1,3.42-.28l2.34,0h.86a12.77,12.77,0,0,1,4.64.9h0A7,7,0,0,1,41.71,2.1h0a3.12,3.12,0,0,1,.52,1.71v9.82h.49v-.48h0v-.49h0v.49h.48V3.82h0a4.13,4.13,0,0,0-.66-2.23h0a7.93,7.93,0,0,0-4.12-3.07h0a13.63,13.63,0,0,0-5-1h-.86l-2.34,0a17.87,17.87,0,0,0-3.62.3A12.74,12.74,0,0,0,22.09-.4h0a6.43,6.43,0,0,0-2,2,5.11,5.11,0,0,0-.74,2.73q0,6,0,12c0,1.9,0,3.8,0,5.7h0a4.87,4.87,0,0,0,1.38,3.46h0a10.92,10.92,0,0,0,5.14,2.73,17.84,17.84,0,0,0,4.12.5c.52,0,1,0,1.57,0a24,24,0,0,0,3.77-.28,11.63,11.63,0,0,0,5.89-2.43,4.93,4.93,0,0,0,2-3.87v0c0-1.48,0-3,0-4.44V12.66h-.49Z"/><path class="cls-4" d="M24.14,41.36c-.18.17-.1.4-.1.59,0,1.57,0,3.13,0,4.7,0,3.24,0,6.48,0,9.73a2.08,2.08,0,0,0,.86,1.8,5.59,5.59,0,0,0,.85.55,9.39,9.39,0,0,0,3.59.88,26.31,26.31,0,0,0,4.86-.09,8.58,8.58,0,0,0,3.24-1.05,2.2,2.2,0,0,0,1.23-2.1c0-3,0-6,0-8.94,0-.21,0-.42,0-.62,0-1.7,0-3.4,0-5.09a1.22,1.22,0,0,0-.16-.76,3.89,3.89,0,0,0-1.31-1.21,8.74,8.74,0,0,0-2.56-.84,21.31,21.31,0,0,0-5.86-.09,8.44,8.44,0,0,0-3.32,1,2.19,2.19,0,0,0-1.29,1.53m18.58,8c0,3,0,6,0,9a4.42,4.42,0,0,1-1.79,3.53,11.26,11.26,0,0,1-5.66,2.33,26.19,26.19,0,0,1-5.23.23,17,17,0,0,1-4-.49,10.39,10.39,0,0,1-4.92-2.59,4.46,4.46,0,0,1-1.25-3.13c0-5.92,0-11.84,0-17.76a4.91,4.91,0,0,1,2.5-4.27,12.2,12.2,0,0,1,4.35-1.7,34.27,34.27,0,0,1,6.48-.27,13.28,13.28,0,0,1,5.06.93A7.51,7.51,0,0,1,42.13,38a3.76,3.76,0,0,1,.59,2v9.33Z"/><path class="cls-5" d="M24.14,41.36,23.8,41a.89.89,0,0,0-.26.66c0,.15,0,.25,0,.28h0v4.7h0c0,2.49,0,5,0,7.47v2.26h0v0a2.59,2.59,0,0,0,1.05,2.18l.29-.4-.29.39a5.23,5.23,0,0,0,.93.59h0a9.92,9.92,0,0,0,3.77.93c.77,0,1.55.06,2.34.06a19,19,0,0,0,2.6-.16h0a9.1,9.1,0,0,0,3.43-1.11h0a3,3,0,0,0,1.08-1,2.75,2.75,0,0,0,.4-1.48v-.07h0c0-1.21,0-2.41,0-3.62,0-1.77,0-3.54,0-5.31,0-.23,0-.45,0-.65l-.49,0h.49V41.72h0v-.08a1.48,1.48,0,0,0-.25-1l-.39.3.39-.29a4.33,4.33,0,0,0-1.48-1.36,9.39,9.39,0,0,0-2.7-.88,19.34,19.34,0,0,0-3.22-.26,23.7,23.7,0,0,0-2.78.17,8.83,8.83,0,0,0-3.51,1.07l0,0,.05,0a4.52,4.52,0,0,0-.94.69,2,2,0,0,0-.59,1.19l.48.07L23.8,41l.34.35.48.07a1,1,0,0,1,.33-.65,3.28,3.28,0,0,1,.72-.53,8,8,0,0,1,3.13-1,24,24,0,0,1,2.67-.15,18.39,18.39,0,0,1,3.06.24,7.93,7.93,0,0,1,2.41.79,3.33,3.33,0,0,1,1.15,1.07h0s.06.13,0,.38v.08h0v5.09h0v0c0,.21,0,.41,0,.59,0,1.76,0,3.53,0,5.31,0,1.21,0,2.42,0,3.64h0v.06a1.71,1.71,0,0,1-.25,1,2,2,0,0,1-.74.66h0a8.16,8.16,0,0,1-3.06,1,18.51,18.51,0,0,1-2.47.15c-.76,0-1.53,0-2.3-.06a8.78,8.78,0,0,1-3.4-.84l-.21.44.22-.44a4.39,4.39,0,0,1-.78-.49h0a1.56,1.56,0,0,1-.66-1.39h0V54.12q0-3.73,0-7.47h0V42h0c0-.15,0-.24,0-.28v0h-.08l.07,0v0h-.08l.07,0-.1,0,.08.08,0,0-.1,0,.08.08.12-.12,0-.16Zm18.58,8h-.48c0,1.52,0,3,0,4.56s0,3,0,4.45h0v0a3.92,3.92,0,0,1-1.62,3.13h0a10.78,10.78,0,0,1-5.43,2.22h0a22.9,22.9,0,0,1-3.61.26c-.51,0-1,0-1.52,0a16.53,16.53,0,0,1-3.9-.46h0A10.07,10.07,0,0,1,21.46,61h0a3.9,3.9,0,0,1-1.11-2.79h0c0-1.9,0-3.8,0-5.7q0-6,0-12a4.18,4.18,0,0,1,.6-2.22,5.34,5.34,0,0,1,1.67-1.64A11.91,11.91,0,0,1,26.81,35a16.77,16.77,0,0,1,3.41-.27l2.37,0h.84a13,13,0,0,1,4.64.9h0a7,7,0,0,1,3.64,2.68h0A3.15,3.15,0,0,1,42.23,40v9.82h.49v-.49h0v-.48h0v.48h.48V40h0a4.11,4.11,0,0,0-.66-2.23h0a8,8,0,0,0-4.12-3.07h0a13.84,13.84,0,0,0-5-1h-.84c-.78,0-1.57,0-2.37,0a18.59,18.59,0,0,0-3.61.3,12.57,12.57,0,0,0-4.52,1.78h0a6.32,6.32,0,0,0-2,2,5.08,5.08,0,0,0-.74,2.72q0,6,0,12c0,1.9,0,3.8,0,5.71h0a4.88,4.88,0,0,0,1.38,3.46h0a10.83,10.83,0,0,0,5.14,2.73h0a17.87,17.87,0,0,0,4.12.51c.52,0,1.05,0,1.57,0a24,24,0,0,0,3.77-.27h0a11.65,11.65,0,0,0,5.9-2.44h0a4.93,4.93,0,0,0,2-3.87v0h0c0-1.49,0-3,0-4.45v-5h-.49Z"/><path class="cls-5" d="M20.43,49.33A10.87,10.87,0,1,1,31.29,60.2,10.87,10.87,0,0,1,20.43,49.33"/><path class="cls-5" d="M31.29,57.69a8.26,8.26,0,0,1-3.53-.78.62.62,0,0,1-.35-.55V55.07a6.93,6.93,0,0,1,0-11.47V42.31a.61.61,0,0,1,.35-.55,8.38,8.38,0,0,1,7.06,0,.6.6,0,0,1,.36.55V43.6a6.93,6.93,0,0,1,0,11.47v1.29a.61.61,0,0,1-.36.55,8.2,8.2,0,0,1-3.53.78"/><path class="cls-4" d="M31.29,40.37a8.77,8.77,0,0,0-3.78.84,1.21,1.21,0,0,0-.7,1.1v1a7.54,7.54,0,0,0,0,12.11v1a1.21,1.21,0,0,0,.7,1.1,8.95,8.95,0,0,0,7.57,0,1.21,1.21,0,0,0,.7-1.1v-1a7.53,7.53,0,0,0,0-12.09v-1a1.21,1.21,0,0,0-.7-1.1,8.81,8.81,0,0,0-3.79-.84m0,1.22a7.68,7.68,0,0,1,3.28.72v1.62a6.32,6.32,0,0,1,0,10.8v1.63a7.81,7.81,0,0,1-6.55,0V54.74a6.32,6.32,0,0,1,0-10.81V42.31a7.67,7.67,0,0,1,3.27-.72"/><rect class="cls-5" x="24.97" y="5.84" width="12.63" height="10.13"/><path class="cls-4" d="M44.21,31.11a1.79,1.79,0,1,1-1.78-1.79,1.78,1.78,0,0,1,1.78,1.79"/><path class="cls-5" d="M44.21,31.11h-.48a1.3,1.3,0,1,1-1.3-1.3,1.31,1.31,0,0,1,1.3,1.3h1a2.27,2.27,0,1,0-2.27,2.27,2.27,2.27,0,0,0,2.27-2.27Z"/><path class="cls-5" d="M35,32.7H27.6a1.38,1.38,0,0,1,0-2.76H35a1.38,1.38,0,1,1,0,2.76"/><path class="cls-5" d="M69,57.74l-3.15-5.8-.42.23.46.14a10,10,0,0,0,.35-2.75,10.79,10.79,0,0,0-1-4.49h0L60.93,36.4l-.43.21.44-.19a3.42,3.42,0,0,0-.57-.87,2.46,2.46,0,0,0-1.83-.92,2.11,2.11,0,0,0-.54.07.48.48,0,1,0,.23.94l.31,0a1.46,1.46,0,0,1,1.1.58,3,3,0,0,1,.32.44l.08.14v0h0l4.38,8.68.44-.22-.45.2a9.62,9.62,0,0,1,.88,4.08,10,10,0,0,1-.16,1.8c0,.22-.08.39-.1.5L65,52v0l-.06.2,3.25,6a.48.48,0,0,0,.66.2A.49.49,0,0,0,69,57.74Z"/><path class="cls-5" d="M54.1,35.54h0a2.05,2.05,0,0,1,1.09-.44,1,1,0,0,1,.55.18,1.92,1.92,0,0,1,.62.82h0l1.84,3.43a.49.49,0,0,0,.66.19.47.47,0,0,0,.2-.65l-1.84-3.42-.43.23.44-.2a2.88,2.88,0,0,0-.94-1.2,1.9,1.9,0,0,0-1.11-.36,2.59,2.59,0,0,0-1.22.34,3.48,3.48,0,0,0-.5.33.49.49,0,0,0,.63.74Z"/><path class="cls-4" d="M54.57,40.29,52.41,36c-1-2-3.15-.79-3.15-.79l-2.55,1.36,3.93,6.87"/><path class="cls-4" d="M50.9,41.67,46,32.09s-.52-1.57-2.62-.75c0,0-1.51.68-.59,2.52l6.43,13.78"/><path class="cls-4" d="M51.33,41.45l-4.85-9.58-.44.22.46-.16a2,2,0,0,0-.42-.67,2.08,2.08,0,0,0-1.55-.65,3.73,3.73,0,0,0-1.29.27h0a2.06,2.06,0,0,0-.6.44A2,2,0,0,0,42,32.76a3,3,0,0,0,.35,1.32l.44-.22-.44.2,6.43,13.79a.49.49,0,0,0,.88-.42L43.26,33.65h0a1.91,1.91,0,0,1-.24-.88,1,1,0,0,1,.3-.76l.22-.18.07,0h0l-.06-.12.06.12h0l-.06-.12.06.12-.2-.44.17.45a2.64,2.64,0,0,1,.94-.2,1.05,1.05,0,0,1,.84.34l.17.23,0,.07v0l.15-.06-.15.05h0l.15-.06-.15.05v0l4.87,9.61a.49.49,0,0,0,.66.21A.48.48,0,0,0,51.33,41.45Z"/><path class="cls-4" d="M60,64.43l-4.11-7.08a10.08,10.08,0,0,1-6-3.69l-3.2-4.46s-1.73-3,1-5"/><path class="cls-4" d="M60.42,64.19,56.19,56.9l-.24,0h0a9.64,9.64,0,0,1-5.62-3.51l-.39.3.4-.29-3.2-4.46-.4.29.42-.25h0a4.24,4.24,0,0,1-.48-1.89A2.88,2.88,0,0,1,48,44.63a.49.49,0,1,0-.57-.79,3.87,3.87,0,0,0-1.7,3.22,5.1,5.1,0,0,0,.61,2.38v0L49.52,54h0a10.56,10.56,0,0,0,6.29,3.87l.06-.48-.42.25,4.12,7.08a.48.48,0,0,0,.66.17A.49.49,0,0,0,60.42,64.19Z"/><path class="cls-5" d="M49.5,35.59h0a2.76,2.76,0,0,1,1.17-.31,1.41,1.41,0,0,1,.69.17,1.68,1.68,0,0,1,.61.72h0l2.17,4.33a.48.48,0,0,0,.65.22.5.5,0,0,0,.22-.66l-2.17-4.33-.43.22.43-.21a2.56,2.56,0,0,0-1-1.14,2.41,2.41,0,0,0-1.18-.3,3.67,3.67,0,0,0-1.66.44.48.48,0,0,0-.17.66A.47.47,0,0,0,49.5,35.59Z"/><path class="cls-5" d="M51.33,41.45l-4.85-9.58-.44.22.46-.16a2,2,0,0,0-.42-.67,2.08,2.08,0,0,0-1.55-.65,3.73,3.73,0,0,0-1.29.27h0a2.06,2.06,0,0,0-.6.44A2,2,0,0,0,42,32.76a3,3,0,0,0,.35,1.32l.44-.22-.44.2,6.43,13.79a.49.49,0,0,0,.88-.42L43.26,33.65h0a1.91,1.91,0,0,1-.24-.88,1,1,0,0,1,.3-.76l.22-.18.07,0h0l-.06-.12.06.12h0l-.06-.12.06.12-.2-.44.17.45a2.64,2.64,0,0,1,.94-.2,1.05,1.05,0,0,1,.84.34l.17.23,0,.07v0l.15-.06-.15.05h0l.15-.06-.15.05v0l4.87,9.61a.49.49,0,0,0,.66.21A.48.48,0,0,0,51.33,41.45Z"/><path class="cls-5" d="M60.42,64.19,56.19,56.9l-.24,0h0a9.64,9.64,0,0,1-5.62-3.51l-.39.3.4-.29-3.2-4.46-.4.29.42-.25h0a4.24,4.24,0,0,1-.48-1.89A2.88,2.88,0,0,1,48,44.63a.49.49,0,1,0-.57-.79,3.87,3.87,0,0,0-1.7,3.22,5.1,5.1,0,0,0,.61,2.38v0L49.52,54h0a10.56,10.56,0,0,0,6.29,3.87l.06-.48-.42.25,4.12,7.08a.48.48,0,0,0,.66.17A.49.49,0,0,0,60.42,64.19Z"/></g><path class="cls-5" d="M22.24,76.44l2.29-2c1-.86,1.32-1.35,1.32-2a1.21,1.21,0,0,0-1.27-1.21,2,2,0,0,0-1.7,1.08l-.52-.37a2.5,2.5,0,0,1,2.27-1.35,1.82,1.82,0,0,1,1.95,1.79h0c0,.92-.48,1.49-1.59,2.45l-1.68,1.5h3.34V77H22.24Z"/><path class="cls-5" d="M30,73.85v0a3.17,3.17,0,0,1,3.19-3.25,3.27,3.27,0,0,1,2.46,1l-.49.52a2.71,2.71,0,0,0-2-.87,2.48,2.48,0,0,0-2.44,2.59h0a2.5,2.5,0,0,0,2.44,2.61,2.77,2.77,0,0,0,2-.91l.47.46a3.31,3.31,0,0,1-2.53,1.1A3.15,3.15,0,0,1,30,73.85Z"/><path class="cls-5" d="M36.51,70.41h.69v2.73a1.78,1.78,0,0,1,1.6-.91,1.7,1.7,0,0,1,1.78,1.87V77h-.7V74.27a1.24,1.24,0,0,0-1.28-1.41,1.38,1.38,0,0,0-1.4,1.46V77h-.69Z"/><path class="cls-5" d="M41.43,75.64v0c0-1,.81-1.51,2-1.51a5.12,5.12,0,0,1,1.43.2v-.16c0-.84-.51-1.27-1.38-1.27a3.41,3.41,0,0,0-1.42.34l-.2-.56a3.73,3.73,0,0,1,1.69-.39,2,2,0,0,1,1.5.51,1.83,1.83,0,0,1,.48,1.36V77h-.67v-.71a2,2,0,0,1-1.68.8A1.56,1.56,0,0,1,41.43,75.64Zm3.43-.36v-.45a4.8,4.8,0,0,0-1.37-.2c-.87,0-1.36.38-1.36,1v0c0,.58.54.93,1.17.93A1.41,1.41,0,0,0,44.86,75.28Z"/><path class="cls-5" d="M46.72,72.33h.7v1.22a2,2,0,0,1,1.9-1.3V73h-.06a1.88,1.88,0,0,0-1.84,2.13V77h-.7Z"/><path class="cls-5" d="M49.86,77.8l.31-.54a3,3,0,0,0,1.79.59,1.54,1.54,0,0,0,1.7-1.66v-.55a2.23,2.23,0,0,1-1.83,1,2.15,2.15,0,0,1-2.19-2.18v0a2.16,2.16,0,0,1,2.19-2.2,2.21,2.21,0,0,1,1.82.94v-.84h.69v3.85a2.24,2.24,0,0,1-.59,1.64,2.44,2.44,0,0,1-1.78.62A3.65,3.65,0,0,1,49.86,77.8Zm3.81-3.36v0A1.64,1.64,0,0,0,52,72.84a1.54,1.54,0,0,0-1.61,1.57v0A1.57,1.57,0,0,0,52,76,1.64,1.64,0,0,0,53.67,74.44Z"/><path class="cls-5" d="M55.63,70.55h.8v.76h-.8Zm0,1.78h.69V77h-.69Z"/><path class="cls-5" d="M57.71,72.33h.7v.81A1.76,1.76,0,0,1,60,72.23a1.7,1.7,0,0,1,1.78,1.87V77h-.69V74.27a1.24,1.24,0,0,0-1.29-1.41,1.37,1.37,0,0,0-1.39,1.46V77h-.7Z"/><path class="cls-5" d="M62.93,77.8l.32-.54a3,3,0,0,0,1.79.59,1.53,1.53,0,0,0,1.69-1.66v-.55a2.2,2.2,0,0,1-1.83,1,2.15,2.15,0,0,1-2.18-2.18v0a2.16,2.16,0,0,1,2.18-2.2,2.19,2.19,0,0,1,1.82.94v-.84h.7v3.85a2.21,2.21,0,0,1-.6,1.64,2.4,2.4,0,0,1-1.77.62A3.66,3.66,0,0,1,62.93,77.8Zm3.82-3.36v0A1.64,1.64,0,0,0,65,72.84a1.54,1.54,0,0,0-1.61,1.57v0A1.56,1.56,0,0,0,65,76,1.64,1.64,0,0,0,66.75,74.44Z"/><path class="cls-5" d="M31.72,81.68h.73l2.29,3.44L37,81.68h.72V88h-.71V82.88l-2.3,3.38h0l-2.29-3.37V88h-.7Z"/><path class="cls-5" d="M38.86,85.68v0a2.43,2.43,0,1,1,4.85,0h0a2.41,2.41,0,0,1-2.43,2.43A2.38,2.38,0,0,1,38.86,85.68Zm4.14,0v0a1.76,1.76,0,0,0-1.72-1.82,1.73,1.73,0,0,0-1.71,1.81h0a1.75,1.75,0,0,0,1.72,1.81A1.72,1.72,0,0,0,43,85.68Z"/><path class="cls-5" d="M44.42,85.67v0a2.29,2.29,0,0,1,2.23-2.42,2.11,2.11,0,0,1,1.78,1V81.41h.69V88h-.69v-.94a2.09,2.09,0,0,1-1.78,1A2.27,2.27,0,0,1,44.42,85.67Zm4,0h0a1.73,1.73,0,0,0-1.69-1.8,1.65,1.65,0,0,0-1.64,1.8h0a1.68,1.68,0,0,0,1.64,1.8A1.74,1.74,0,0,0,48.46,85.66Z"/><path class="cls-5" d="M50.11,85.67v0a2.3,2.3,0,0,1,2.23-2.42,2.22,2.22,0,0,1,2.17,2.46v.23h-3.7a1.63,1.63,0,0,0,1.64,1.57,1.92,1.92,0,0,0,1.47-.66l.43.39a2.4,2.4,0,0,1-1.92.87A2.32,2.32,0,0,1,50.11,85.67Zm3.7-.27a1.53,1.53,0,0,0-1.48-1.58,1.61,1.61,0,0,0-1.52,1.58Z"/><path class="cls-5" d="M55.07,87.39l.35-.49a2.78,2.78,0,0,0,1.61.59c.56,0,1-.29,1-.74v0c0-.46-.55-.64-1.16-.81s-1.54-.46-1.54-1.32v0a1.4,1.4,0,0,1,1.58-1.33,3.18,3.18,0,0,1,1.67.51l-.31.53a2.63,2.63,0,0,0-1.38-.45c-.55,0-.9.28-.9.67v0c0,.44.58.61,1.2.8s1.49.5,1.49,1.33v0A1.47,1.47,0,0,1,57,88.08,3.16,3.16,0,0,1,55.07,87.39Z"/><circle class="cls-6" cx="45" cy="37.74" r="28.35"/></svg>