<svg id="Layer_1" data-name="Layer 1" xmlns="http://www.w3.org/2000/svg" viewBox="0 0 90 100"><defs><style>.cls-1,.cls-3{fill:#fff;}.cls-1{stroke:#74af27;stroke-miterlimit:10;}.cls-2{fill:#74af27;}</style></defs><title>EV-Systems_Operations-ChargeBySolar</title><circle class="cls-1" cx="45" cy="37.74" r="28.35"/><path class="cls-2" d="M10.56,73.85v0a3.17,3.17,0,0,1,3.18-3.25,3.25,3.25,0,0,1,2.46,1l-.48.52a2.73,2.73,0,0,0-2-.87,2.47,2.47,0,0,0-2.44,2.59h0a2.49,2.49,0,0,0,2.44,2.61,2.75,2.75,0,0,0,2-.91l.47.46a3.31,3.31,0,0,1-2.52,1.1A3.14,3.14,0,0,1,10.56,73.85Z"/><path class="cls-2" d="M17.09,70.41h.69v2.73a1.79,1.79,0,0,1,1.6-.91,1.7,1.7,0,0,1,1.78,1.87V77h-.69V74.27a1.24,1.24,0,0,0-1.29-1.41,1.38,1.38,0,0,0-1.4,1.46V77h-.69Z"/><path class="cls-2" d="M22,75.63h0c0-1,.81-1.51,2-1.51a5.26,5.26,0,0,1,1.44.2v-.16c0-.84-.52-1.27-1.39-1.27a3.33,3.33,0,0,0-1.41.34l-.21-.56a3.76,3.76,0,0,1,1.69-.39,2,2,0,0,1,1.5.51,1.83,1.83,0,0,1,.48,1.36V77h-.66v-.71a2,2,0,0,1-1.69.8A1.57,1.57,0,0,1,22,75.63Zm3.43-.35v-.45a4.78,4.78,0,0,0-1.36-.2c-.88,0-1.36.38-1.36,1v0c0,.58.54.93,1.17.93A1.41,1.41,0,0,0,25.44,75.28Z"/><path class="cls-2" d="M27.31,72.33H28v1.22a2,2,0,0,1,1.9-1.3V73h0A1.88,1.88,0,0,0,28,75.13V77h-.69Z"/><path class="cls-2" d="M30.44,77.8l.31-.54a3,3,0,0,0,1.79.59,1.54,1.54,0,0,0,1.7-1.66v-.55a2.22,2.22,0,0,1-1.83,1,2.15,2.15,0,0,1-2.19-2.18v0a2.2,2.2,0,0,1,4-1.26v-.84h.69v3.85a2.2,2.2,0,0,1-.59,1.64,2.44,2.44,0,0,1-1.78.62A3.65,3.65,0,0,1,30.44,77.8Zm3.82-3.36v0a1.64,1.64,0,0,0-1.72-1.58,1.54,1.54,0,0,0-1.61,1.57v0A1.57,1.57,0,0,0,32.54,76,1.64,1.64,0,0,0,34.26,74.44Z"/><path class="cls-2" d="M35.91,74.67v0a2.3,2.3,0,0,1,2.23-2.42,2.22,2.22,0,0,1,2.17,2.46,1.77,1.77,0,0,1,0,.23H36.61a1.63,1.63,0,0,0,1.64,1.57,1.92,1.92,0,0,0,1.47-.66l.43.39a2.4,2.4,0,0,1-1.92.87A2.31,2.31,0,0,1,35.91,74.67Zm3.7-.27a1.53,1.53,0,0,0-1.48-1.58,1.6,1.6,0,0,0-1.52,1.58Z"/><path class="cls-2" d="M41.07,73.92h2.5v.72h-2.5Z"/><path class="cls-2" d="M44.78,70.68h2.68a2.33,2.33,0,0,1,1.65.56,1.41,1.41,0,0,1,.4,1v0a1.52,1.52,0,0,1-1,1.46c.75.22,1.35.65,1.35,1.52v0c0,1.08-.91,1.72-2.28,1.72h-2.8Zm4,1.67c0-.62-.49-1-1.39-1H45.48v2.17h1.86c.86,0,1.45-.38,1.45-1.12Zm-1.32,1.77h-2v2.23h2.11c1,0,1.55-.43,1.55-1.13v0C49.14,74.52,48.57,74.12,47.47,74.12Z"/><path class="cls-2" d="M54.28,72.33H55l-2,4.81c-.4,1-.85,1.31-1.55,1.31a2.13,2.13,0,0,1-1-.23l.23-.55a1.43,1.43,0,0,0,.73.17c.41,0,.68-.21.95-.87l-2.11-4.64h.76l1.7,3.88Z"/><path class="cls-2" d="M55.52,73.92H58v.72h-2.5Z"/><path class="cls-2" d="M58.81,76.07l.45-.53a3,3,0,0,0,2.16.9c.84,0,1.4-.45,1.4-1.07v0c0-.59-.31-.92-1.64-1.2s-2.11-.78-2.11-1.82v0a1.86,1.86,0,0,1,2.07-1.72,3.29,3.29,0,0,1,2.21.78l-.41.55a2.77,2.77,0,0,0-1.82-.69c-.82,0-1.34.45-1.34,1v0c0,.59.32.93,1.71,1.22s2,.82,2,1.79h0c0,1.08-.9,1.79-2.15,1.79A3.73,3.73,0,0,1,58.81,76.07Z"/><path class="cls-2" d="M64.31,74.68v0a2.43,2.43,0,0,1,4.86,0v0a2.42,2.42,0,0,1-2.44,2.43A2.38,2.38,0,0,1,64.31,74.68Zm4.15,0v0a1.76,1.76,0,0,0-1.73-1.82A1.72,1.72,0,0,0,65,74.64v0a1.75,1.75,0,0,0,1.72,1.81A1.72,1.72,0,0,0,68.46,74.68Z"/><path class="cls-2" d="M70.21,70.41h.69V77h-.69Z"/><path class="cls-2" d="M71.89,75.63h0c0-1,.81-1.51,2-1.51a5.12,5.12,0,0,1,1.43.2v-.16c0-.84-.51-1.27-1.38-1.27a3.41,3.41,0,0,0-1.42.34l-.2-.56A3.73,3.73,0,0,1,74,72.27a2,2,0,0,1,1.5.51A1.83,1.83,0,0,1,76,74.14V77h-.67v-.71a2,2,0,0,1-1.68.8A1.57,1.57,0,0,1,71.89,75.63Zm3.43-.35v-.45a4.8,4.8,0,0,0-1.37-.2c-.87,0-1.36.38-1.36,1v0c0,.58.54.93,1.17.93A1.41,1.41,0,0,0,75.32,75.28Z"/><path class="cls-2" d="M77.18,72.33h.7v1.22a2,2,0,0,1,1.9-1.3V73h-.06a1.88,1.88,0,0,0-1.84,2.13V77h-.7Z"/><path class="cls-2" d="M31.17,87.07l.44-.53a3,3,0,0,0,2.16.9c.85,0,1.4-.45,1.4-1.07v0c0-.59-.31-.92-1.64-1.2s-2.11-.78-2.11-1.82v0a1.86,1.86,0,0,1,2.07-1.72,3.28,3.28,0,0,1,2.21.78l-.41.55a2.75,2.75,0,0,0-1.82-.69c-.82,0-1.34.45-1.34,1v0c0,.59.32.93,1.71,1.22s2,.82,2,1.79h0c0,1.08-.9,1.79-2.15,1.79A3.69,3.69,0,0,1,31.17,87.07Z"/><path class="cls-2" d="M36.47,83.33h.74l1.22,3.74,1.25-3.76h.58l1.26,3.76,1.22-3.74h.72L41.82,88h-.6L40,84.35,38.71,88H38.1Z"/><path class="cls-2" d="M44.36,81.55h.79v.76h-.79Zm0,1.78h.69V88h-.69Z"/><path class="cls-2" d="M46.68,86.75V83.94H46v-.61h.65v-1.4h.7v1.4h1.47v.61H47.38v2.72a.69.69,0,0,0,.78.78,1.42,1.42,0,0,0,.67-.17v.6a1.79,1.79,0,0,1-.83.2A1.19,1.19,0,0,1,46.68,86.75Z"/><path class="cls-2" d="M49.38,85.68v0a2.42,2.42,0,0,1,4.25-1.6l-.46.49a1.87,1.87,0,0,0-1.41-.71,1.72,1.72,0,0,0-1.67,1.8v0a1.74,1.74,0,0,0,1.71,1.81,1.91,1.91,0,0,0,1.43-.69l.44.41a2.41,2.41,0,0,1-4.29-1.51Z"/><path class="cls-2" d="M54.54,81.41h.69v2.73a1.78,1.78,0,0,1,1.6-.91,1.7,1.7,0,0,1,1.78,1.87V88h-.69V85.27a1.24,1.24,0,0,0-1.29-1.41,1.38,1.38,0,0,0-1.4,1.46V88h-.69Z"/><path class="cls-2" d="M39.46,28.26a4,4,0,1,1-4-4.05A4,4,0,0,1,39.46,28.26Zm-1,0a3,3,0,1,0-3,3A3,3,0,0,0,38.45,28.26Zm-3.54-5.6a.51.51,0,0,0,.5.54.51.51,0,0,0,.51-.53v-1a.51.51,0,1,0-1,0v1Zm-6,5.1a.51.51,0,1,0,0,1h1a.51.51,0,1,0,0-1h-.95Zm13.12,1a.51.51,0,1,0,0-1H41a.5.5,0,0,0-.52.5.51.51,0,0,0,.52.51h1Zm-7.07,6.08a.51.51,0,0,0,1,0v-1a.51.51,0,1,0-1,0v1ZM33.08,23.23c-.18-.32-.35-.65-.55-1a.49.49,0,0,0-.66-.14.47.47,0,0,0-.21.62c.18.34.37.67.58,1a.46.46,0,0,0,.56.16.54.54,0,0,0,.35-.47A.74.74,0,0,0,33.08,23.23ZM30,32c.31-.17.61-.34.9-.52a.5.5,0,0,0-.49-.88c-.31.17-.61.35-.91.53a.46.46,0,0,0-.24.36A.51.51,0,0,0,30,32Zm9.2,1.73c-.17-.31-.34-.61-.52-.9a.5.5,0,0,0-.68-.18.49.49,0,0,0-.19.67c.16.31.34.61.52.91a.46.46,0,0,0,.36.24A.51.51,0,0,0,39.15,33.73ZM38.3,22.26c-.19.33-.39.65-.56,1a.5.5,0,0,0,.86.48,8.43,8.43,0,0,0,.56-1,.49.49,0,0,0-.45-.7A.47.47,0,0,0,38.3,22.26Zm-8.9,3.1c.33.2.66.41,1,.58a.47.47,0,0,0,.62-.22.48.48,0,0,0-.14-.64c-.32-.2-.64-.39-1-.56a.5.5,0,0,0-.71.46A.44.44,0,0,0,29.4,25.36Zm11.49-.83c-.31.16-.62.34-.93.53a.51.51,0,0,0-.16.67.5.5,0,0,0,.67.19c.31-.16.61-.34.91-.52a.48.48,0,0,0,.24-.37A.51.51,0,0,0,40.89,24.53Zm.54,6.64c-.33-.21-.66-.41-1-.59a.48.48,0,0,0-.62.22.5.5,0,0,0,.14.65c.32.2.64.39,1,.56a.5.5,0,0,0,.71-.46A.44.44,0,0,0,41.43,31.17Zm-8.9,3.09c.2-.32.39-.64.56-1a.49.49,0,0,0-.22-.64.48.48,0,0,0-.64.14c-.2.32-.39.64-.56,1a.51.51,0,0,0,.53.71A.46.46,0,0,0,32.53,34.26Z"/><path class="cls-3" d="M46.88,54A14,14,0,0,1,33,39.79a14.13,14.13,0,0,1,14.08-13.9h.12a14.05,14.05,0,0,1,.1,28.1Z"/><path class="cls-2" d="M47.11,26.39h.12A13.6,13.6,0,0,1,60.67,40.05,13.46,13.46,0,0,1,47.33,53.5h-.45A13.56,13.56,0,0,1,33.53,39.8,13.64,13.64,0,0,1,47.11,26.39m0-1a14.56,14.56,0,0,0-.23,29.11h.45a14.55,14.55,0,0,0-.1-29.1Z"/><path class="cls-3" d="M47.1,55.8a2.86,2.86,0,0,1-2.86-2.86V27A2.86,2.86,0,0,1,50,27v26A2.86,2.86,0,0,1,47.1,55.8Z"/><path class="cls-2" d="M47.1,24.6A2.36,2.36,0,0,1,49.46,27v26a2.36,2.36,0,0,1-4.72,0V27A2.36,2.36,0,0,1,47.1,24.6m0-1h0A3.36,3.36,0,0,0,43.74,27v26A3.36,3.36,0,0,0,47.1,56.3h0a3.36,3.36,0,0,0,3.36-3.36V27A3.36,3.36,0,0,0,47.1,23.6Z"/></svg>