<svg id="Layer_1" data-name="Layer 1" xmlns="http://www.w3.org/2000/svg" xmlns:xlink="http://www.w3.org/1999/xlink" viewBox="0 0 90 100"><defs><style>.cls-1{fill:none;}.cls-2{fill:#fff;stroke:#74af27;stroke-miterlimit:10;}.cls-3{fill:#74af27;}.cls-4{clip-path:url(#clip-path);}</style><clipPath id="clip-path"><path class="cls-1" d="M17.49,37.81A27.51,27.51,0,1,0,45,10.3,27.51,27.51,0,0,0,17.49,37.81"/></clipPath></defs><title>EV-Systems_Operations-MonitorsAndTracksSolarGeneration</title><circle class="cls-2" cx="45" cy="37.74" r="28.35"/><path class="cls-3" d="M8.53,70.68h.72l2.29,3.44,2.3-3.44h.72V77h-.71V71.88l-2.3,3.38h0l-2.3-3.37V77H8.53Z"/><path class="cls-3" d="M15.67,74.68v0a2.43,2.43,0,0,1,4.85,0v0a2.42,2.42,0,0,1-2.44,2.43A2.37,2.37,0,0,1,15.67,74.68Zm4.14,0v0a1.76,1.76,0,0,0-1.73-1.82,1.72,1.72,0,0,0-1.7,1.8v0a1.74,1.74,0,0,0,1.72,1.81A1.72,1.72,0,0,0,19.81,74.68Z"/><path class="cls-3" d="M21.5,72.33h.69v.81a1.77,1.77,0,0,1,1.59-.91,1.71,1.71,0,0,1,1.79,1.87V77h-.7V74.27a1.24,1.24,0,0,0-1.28-1.41,1.37,1.37,0,0,0-1.4,1.46V77H21.5Z"/><path class="cls-3" d="M26.79,70.55h.79v.76h-.79Zm0,1.78h.7V77h-.7Z"/><path class="cls-3" d="M29.11,75.75V72.94h-.65v-.61h.65v-1.4h.69v1.4h1.48v.61H29.8v2.72a.7.7,0,0,0,.79.78,1.42,1.42,0,0,0,.67-.17v.6a1.8,1.8,0,0,1-.84.2A1.19,1.19,0,0,1,29.11,75.75Z"/><path class="cls-3" d="M31.81,74.68v0a2.41,2.41,0,0,1,2.43-2.43,2.39,2.39,0,0,1,2.42,2.41v0a2.41,2.41,0,0,1-2.44,2.43A2.38,2.38,0,0,1,31.81,74.68Zm4.14,0v0a1.76,1.76,0,0,0-1.73-1.82,1.72,1.72,0,0,0-1.7,1.8v0a1.75,1.75,0,0,0,1.72,1.81A1.72,1.72,0,0,0,36,74.68Z"/><path class="cls-3" d="M37.64,72.33h.7v1.22a2,2,0,0,1,1.9-1.3V73h-.06a1.87,1.87,0,0,0-1.84,2.13V77h-.7Z"/><path class="cls-3" d="M40.63,76.39,41,75.9a2.78,2.78,0,0,0,1.61.59c.56,0,1-.29,1-.74v0c0-.46-.55-.64-1.16-.81s-1.54-.46-1.54-1.32v0a1.4,1.4,0,0,1,1.58-1.33,3.18,3.18,0,0,1,1.67.51l-.31.53a2.63,2.63,0,0,0-1.38-.45c-.55,0-.9.28-.9.67v0c0,.44.58.61,1.2.8s1.49.5,1.49,1.33v0a1.47,1.47,0,0,1-1.65,1.4A3.22,3.22,0,0,1,40.63,76.39Z"/><path class="cls-3" d="M51.33,76.09a2.7,2.7,0,0,1-2.06,1,1.81,1.81,0,0,1-2-1.77v0a2,2,0,0,1,1.52-1.82,2,2,0,0,1-.63-1.38v0a1.54,1.54,0,0,1,1.67-1.49A1.45,1.45,0,0,1,51.38,72v0c0,.8-.57,1.31-1.49,1.63l1.44,1.47a8.37,8.37,0,0,0,.76-1.4l.58.27a8.5,8.5,0,0,1-.91,1.58l1.1,1.13-.54.41Zm-.43-.44-1.68-1.73c-.84.3-1.21.82-1.21,1.35h0a1.21,1.21,0,0,0,1.31,1.19A2.14,2.14,0,0,0,50.9,75.65Zm-.19-3.6v0a.86.86,0,0,0-.89-.87.9.9,0,0,0-1,.91v0c0,.37.15.65.63,1.16C50.3,73,50.71,72.59,50.71,72.05Z"/><path class="cls-3" d="M57.87,71.34H55.75v-.66h5v.66H58.59V77h-.72Z"/><path class="cls-3" d="M60.84,72.33h.7v1.22a2,2,0,0,1,1.9-1.3V73h-.06a1.88,1.88,0,0,0-1.84,2.13V77h-.7Z"/><path class="cls-3" d="M63.64,75.63h0c0-1,.81-1.51,2-1.51a5.12,5.12,0,0,1,1.43.2v-.16c0-.84-.51-1.27-1.38-1.27a3.41,3.41,0,0,0-1.42.34l-.2-.56a3.73,3.73,0,0,1,1.69-.39,2,2,0,0,1,1.5.51,1.83,1.83,0,0,1,.48,1.36V77h-.67v-.71a2,2,0,0,1-1.68.8A1.57,1.57,0,0,1,63.64,75.63Zm3.43-.35v-.45a4.78,4.78,0,0,0-1.36-.2c-.88,0-1.36.38-1.36,1v0c0,.58.54.93,1.17.93A1.41,1.41,0,0,0,67.07,75.28Z"/><path class="cls-3" d="M68.65,74.68v0a2.42,2.42,0,0,1,4.25-1.6l-.46.49A1.89,1.89,0,0,0,71,72.84a1.72,1.72,0,0,0-1.66,1.8v0a1.74,1.74,0,0,0,1.71,1.81,1.91,1.91,0,0,0,1.42-.69l.44.41a2.4,2.4,0,0,1-4.28-1.51Z"/><path class="cls-3" d="M73.8,70.41h.7V75L77,72.33h.86l-2,2,2,2.66h-.83l-1.67-2.17-.94,1V77h-.7Z"/><path class="cls-3" d="M78.27,76.39l.35-.49a2.75,2.75,0,0,0,1.61.59c.56,0,1-.29,1-.74v0c0-.46-.54-.64-1.16-.81s-1.54-.46-1.54-1.32v0a1.41,1.41,0,0,1,1.59-1.33,3.18,3.18,0,0,1,1.67.51l-.31.53a2.63,2.63,0,0,0-1.38-.45c-.55,0-.9.28-.9.67v0c0,.44.58.61,1.2.8s1.49.5,1.49,1.33v0a1.47,1.47,0,0,1-1.66,1.4A3.22,3.22,0,0,1,78.27,76.39Z"/><path class="cls-3" d="M10.15,87.07l.44-.53a3,3,0,0,0,2.16.9c.85,0,1.41-.45,1.41-1.07v0c0-.59-.32-.92-1.64-1.2s-2.12-.78-2.12-1.82v0a1.87,1.87,0,0,1,2.08-1.72,3.31,3.31,0,0,1,2.21.78l-.41.55a2.77,2.77,0,0,0-1.82-.69c-.82,0-1.34.45-1.34,1v0c0,.59.32.93,1.71,1.22s2.05.82,2.05,1.79h0c0,1.08-.9,1.79-2.15,1.79A3.73,3.73,0,0,1,10.15,87.07Z"/><path class="cls-3" d="M15.65,85.68v0a2.41,2.41,0,0,1,2.43-2.43,2.39,2.39,0,0,1,2.42,2.41v0a2.41,2.41,0,0,1-2.44,2.43A2.38,2.38,0,0,1,15.65,85.68Zm4.14,0v0a1.76,1.76,0,0,0-1.73-1.82,1.72,1.72,0,0,0-1.7,1.8v0a1.75,1.75,0,0,0,1.72,1.81A1.72,1.72,0,0,0,19.79,85.68Z"/><path class="cls-3" d="M21.55,81.41h.69V88h-.69Z"/><path class="cls-3" d="M23.23,86.63h0c0-1,.81-1.51,2-1.51a5.18,5.18,0,0,1,1.43.2v-.16c0-.84-.51-1.27-1.39-1.27a3.33,3.33,0,0,0-1.41.34l-.21-.56a3.8,3.8,0,0,1,1.7-.39,2,2,0,0,1,1.5.51,1.88,1.88,0,0,1,.48,1.36V88h-.67v-.71a2,2,0,0,1-1.68.8A1.56,1.56,0,0,1,23.23,86.63Zm3.43-.35v-.45a4.8,4.8,0,0,0-1.37-.2c-.87,0-1.36.38-1.36,1v0c0,.58.54.93,1.17.93A1.41,1.41,0,0,0,26.66,86.28Z"/><path class="cls-3" d="M28.52,83.33h.69v1.22a2,2,0,0,1,1.9-1.3V84h-.05a1.88,1.88,0,0,0-1.85,2.13V88h-.69Z"/><path class="cls-3" d="M34.16,84.85v0a3.16,3.16,0,0,1,3.16-3.25,3.31,3.31,0,0,1,2.35.83l-.46.54a2.67,2.67,0,0,0-1.91-.72,2.47,2.47,0,0,0-2.4,2.59h0a2.44,2.44,0,0,0,2.5,2.63,2.89,2.89,0,0,0,1.81-.64V85.26H37.3v-.64h2.6v2.51a3.84,3.84,0,0,1-2.53,1A3.09,3.09,0,0,1,34.16,84.85Z"/><path class="cls-3" d="M40.82,85.67v0a2.3,2.3,0,0,1,2.24-2.42,2.22,2.22,0,0,1,2.17,2.46,1.77,1.77,0,0,1,0,.23H41.53a1.63,1.63,0,0,0,1.63,1.57,1.92,1.92,0,0,0,1.47-.66l.43.39a2.38,2.38,0,0,1-1.91.87A2.32,2.32,0,0,1,40.82,85.67Zm3.7-.27A1.53,1.53,0,0,0,43,83.82a1.6,1.6,0,0,0-1.51,1.58Z"/><path class="cls-3" d="M46.17,83.33h.69v.81a1.79,1.79,0,0,1,1.6-.91,1.7,1.7,0,0,1,1.78,1.87V88h-.69V85.27a1.24,1.24,0,0,0-1.29-1.41,1.38,1.38,0,0,0-1.4,1.46V88h-.69Z"/><path class="cls-3" d="M51.16,85.67v0a2.29,2.29,0,0,1,2.23-2.42,2.22,2.22,0,0,1,2.17,2.46,1.77,1.77,0,0,1,0,.23H51.86a1.63,1.63,0,0,0,1.64,1.57A1.89,1.89,0,0,0,55,86.83l.44.39a2.42,2.42,0,0,1-1.92.87A2.31,2.31,0,0,1,51.16,85.67Zm3.7-.27a1.54,1.54,0,0,0-1.49-1.58,1.6,1.6,0,0,0-1.51,1.58Z"/><path class="cls-3" d="M56.5,83.33h.69v1.22a2,2,0,0,1,1.9-1.3V84H59a1.88,1.88,0,0,0-1.85,2.13V88H56.5Z"/><path class="cls-3" d="M59.3,86.63h0c0-1,.81-1.51,2-1.51a5.18,5.18,0,0,1,1.43.2v-.16c0-.84-.51-1.27-1.39-1.27a3.37,3.37,0,0,0-1.41.34l-.21-.56a3.8,3.8,0,0,1,1.7-.39,2,2,0,0,1,1.5.51,1.83,1.83,0,0,1,.48,1.36V88h-.67v-.71a2,2,0,0,1-1.68.8A1.56,1.56,0,0,1,59.3,86.63Zm3.43-.35v-.45a4.8,4.8,0,0,0-1.37-.2c-.87,0-1.36.38-1.36,1v0c0,.58.54.93,1.17.93A1.41,1.41,0,0,0,62.73,86.28Z"/><path class="cls-3" d="M64.79,86.75V83.94h-.65v-.61h.65v-1.4h.69v1.4H67v.61H65.48v2.72a.7.7,0,0,0,.79.78,1.42,1.42,0,0,0,.67-.17v.6a1.8,1.8,0,0,1-.84.2A1.19,1.19,0,0,1,64.79,86.75Z"/><path class="cls-3" d="M67.93,81.55h.79v.76h-.79Zm0,1.78h.69V88H68Z"/><path class="cls-3" d="M69.72,85.68v0a2.41,2.41,0,0,1,2.43-2.43,2.39,2.39,0,0,1,2.42,2.41v0a2.41,2.41,0,0,1-2.43,2.43A2.38,2.38,0,0,1,69.72,85.68Zm4.14,0v0a1.76,1.76,0,0,0-1.72-1.82,1.72,1.72,0,0,0-1.71,1.8v0a1.75,1.75,0,0,0,1.72,1.81A1.72,1.72,0,0,0,73.86,85.68Z"/><path class="cls-3" d="M75.55,83.33h.7v.81a1.76,1.76,0,0,1,1.59-.91,1.7,1.7,0,0,1,1.78,1.87V88h-.69V85.27a1.24,1.24,0,0,0-1.29-1.41,1.37,1.37,0,0,0-1.39,1.46V88h-.7Z"/><g class="cls-4"><path class="cls-3" d="M50.18,40.31l-.41-4.45h4.5L55,40.31Zm6,6.36H50.77l-.5-5.38h4.94Zm-12.65,0V41.29h5.8l.5,5.38Zm-1-6.36H36.8l.41-4.45h5.3Zm0,6.36H36.22l.49-5.38h5.8ZM31,40.31l.77-4.45h4.5l-.41,4.45Zm4.28,6.36H29.87l.92-5.38h4.94Zm-2.7-15.52h4.13l-.35,3.73H31.9Zm5.11,0h4.86v3.73H37.3Zm5.84,0h4.87l.34,3.73H43.49Zm5.71,9.16H43.49V35.86h5.3Zm4.26-9.16.65,3.73H49.68l-.34-3.73Zm.14-1H32.4a.8.8,0,0,0-.79.67L28.87,46.69a.82.82,0,0,0,.18.66.78.78,0,0,0,.62.29H56.33a.81.81,0,0,0,.8-1L54.4,30.84a.81.81,0,0,0-.8-.67"/><path class="cls-3" d="M55,20.45a.56.56,0,0,0,.56.59.55.55,0,0,0,.56-.59c0-.36,0-.71,0-1.07a.55.55,0,0,0-.56-.59.56.56,0,0,0-.56.58v1.08"/><path class="cls-3" d="M52,21.66a.53.53,0,0,0,.63.18.61.61,0,0,0,.39-.53L53,21.08c-.2-.36-.4-.72-.62-1.07a.53.53,0,0,0-.73-.16.54.54,0,0,0-.24.7c.2.38.41.75.64,1.11"/><path class="cls-3" d="M61.23,24.09l1-.59a.5.5,0,0,0,.26-.41.56.56,0,0,0-.81-.56c-.35.18-.7.38-1,.59a.57.57,0,0,0-.18.75.55.55,0,0,0,.75.22"/><path class="cls-3" d="M58.42,21.81a.55.55,0,0,0,.72-.17,11.68,11.68,0,0,0,.63-1.08.56.56,0,0,0-.51-.79.5.5,0,0,0-.45.23c-.22.36-.44.72-.63,1.1a.54.54,0,0,0,.24.71"/><path class="cls-3" d="M48.86,23.46c.37.23.74.45,1.13.65a.54.54,0,0,0,.7-.25.55.55,0,0,0-.17-.72c-.35-.22-.71-.43-1.08-.62a.55.55,0,0,0-.79.51.52.52,0,0,0,.21.43"/><path class="cls-3" d="M62.3,30a12.7,12.7,0,0,0-1.13-.65.52.52,0,0,0-.69.24.54.54,0,0,0,.16.72,11.68,11.68,0,0,0,1.08.63.56.56,0,0,0,.79-.52A.46.46,0,0,0,62.3,30"/><path class="cls-3" d="M58.49,48.64l-.13.06H27.64l-.12-.06,0-.13L30.8,29.25l.17-.14H55l.16.14,3.32,19.26ZM39.85,52.32l.46-2.64H45.7l.46,2.64Zm10.91,1a.78.78,0,0,1,.78.78v1.07a.18.18,0,0,1-.18.17H34.64a.17.17,0,0,1-.17-.17V54.07a.78.78,0,0,1,.77-.78ZM52.19,26.7A3.4,3.4,0,1,1,56.32,30l-.16-.94A1.14,1.14,0,0,0,55,28.13H52.5a3.4,3.4,0,0,1-.31-1.43m4.18,3.56.15.87a4.52,4.52,0,1,0-5.23-3H31a1.15,1.15,0,0,0-1.13.95L26.52,48.34a1.13,1.13,0,0,0,.25.93,1.15,1.15,0,0,0,.87.41H39.32l-.46,2.64H35.24a1.76,1.76,0,0,0-1.75,1.75v1.07a1.16,1.16,0,0,0,1.15,1.15H51.36a1.15,1.15,0,0,0,1.15-1.15V54.07a1.75,1.75,0,0,0-1.75-1.75H47.15l-.46-2.64H58.36a1.14,1.14,0,0,0,1.12-1.34Z"/><path class="cls-3" d="M62.91,26.14H61.82a.56.56,0,0,0-.58.56.57.57,0,0,0,.58.57h1.09a.58.58,0,0,0,.59-.58.56.56,0,0,0-.59-.55"/><path class="cls-3" d="M59.17,31.8a.56.56,0,0,0-1,.55c.18.34.38.68.58,1a.52.52,0,0,0,.41.26.56.56,0,0,0,.56-.82c-.18-.35-.38-.68-.58-1"/><path class="cls-3" d="M48.26,27.27h1.07a.57.57,0,1,0,0-1.13h-1a.57.57,0,1,0,0,1.13"/></g></svg>