<svg id="Layer_1" data-name="Layer 1" xmlns="http://www.w3.org/2000/svg" xmlns:xlink="http://www.w3.org/1999/xlink" viewBox="0 0 90 100"><defs><style>.cls-1,.cls-5,.cls-7{fill:none;}.cls-2,.cls-6{fill:#fff;}.cls-2,.cls-5,.cls-6,.cls-7{stroke:#74af27;}.cls-2,.cls-5{stroke-miterlimit:10;}.cls-3{fill:#74af27;}.cls-4{clip-path:url(#clip-path);}.cls-6,.cls-7{stroke-linecap:round;stroke-linejoin:round;}</style><clipPath id="clip-path"><circle class="cls-1" cx="45" cy="37.74" r="27.79"/></clipPath></defs><title>EV-Systems_Operations-RFIDFobOperated</title><circle class="cls-2" cx="45" cy="37.74" r="28.35"/><path class="cls-3" d="M16.55,70.68h2.71a2.49,2.49,0,0,1,1.79.63,1.74,1.74,0,0,1,.49,1.25v0a1.84,1.84,0,0,1-1.71,1.83L21.76,77h-.87l-1.83-2.45h-1.8V77h-.71ZM19.2,73.9c.94,0,1.62-.49,1.62-1.3v0c0-.77-.59-1.24-1.61-1.24H17.26V73.9Z"/><path class="cls-3" d="M22.79,70.68h4.53v.66H23.5v2.25h3.41v.65H23.5V77h-.71Z"/><path class="cls-3" d="M28.49,70.68h.71V77h-.71Z"/><path class="cls-3" d="M30.77,70.68H33a3.14,3.14,0,0,1,3.35,3.14h0A3.16,3.16,0,0,1,33,77H30.77Zm.71.66v5H33a2.44,2.44,0,0,0,2.61-2.48v0A2.45,2.45,0,0,0,33,71.34Z"/><path class="cls-3" d="M40,70.68h.71v3.77l3.62-3.77h.92l-2.7,2.76L45.33,77h-.89L42,73.93l-1.34,1.36V77H40Z"/><path class="cls-3" d="M45.49,74.67v0a2.3,2.3,0,0,1,2.24-2.42,2.22,2.22,0,0,1,2.17,2.46,1.77,1.77,0,0,1,0,.23H46.2a1.63,1.63,0,0,0,1.63,1.57,1.92,1.92,0,0,0,1.47-.66l.43.39a2.38,2.38,0,0,1-1.91.87A2.32,2.32,0,0,1,45.49,74.67Zm3.7-.27a1.53,1.53,0,0,0-1.48-1.58A1.6,1.6,0,0,0,46.2,74.4Z"/><path class="cls-3" d="M54.1,72.33h.74l-2,4.81c-.39,1-.84,1.31-1.54,1.31a2.13,2.13,0,0,1-1-.23l.23-.55a1.41,1.41,0,0,0,.73.17c.41,0,.67-.21.95-.87l-2.11-4.64h.76l1.69,3.88Z"/><path class="cls-3" d="M58.21,70.68h4.53v.66H58.92v2.25h3.41v.65H58.92V77h-.71Z"/><path class="cls-3" d="M63.31,74.68v0a2.43,2.43,0,1,1,4.85,0h0a2.42,2.42,0,0,1-2.44,2.43A2.37,2.37,0,0,1,63.31,74.68Zm4.14,0v0a1.76,1.76,0,0,0-1.73-1.82A1.72,1.72,0,0,0,64,74.65h0a1.74,1.74,0,0,0,1.72,1.81A1.72,1.72,0,0,0,67.45,74.68Z"/><path class="cls-3" d="M69.83,76.09V77h-.69V70.41h.69v2.86a2.1,2.1,0,0,1,1.78-1,2.28,2.28,0,0,1,2.23,2.42h0a2.28,2.28,0,0,1-2.23,2.42A2.08,2.08,0,0,1,69.83,76.09Zm3.3-1.42v0a1.68,1.68,0,0,0-1.64-1.8,1.74,1.74,0,0,0-1.69,1.8h0a1.73,1.73,0,0,0,1.69,1.8A1.64,1.64,0,0,0,73.13,74.67Z"/><path class="cls-3" d="M24.17,84.85v0a3.22,3.22,0,1,1,6.43,0h0a3.22,3.22,0,1,1-6.43,0Zm5.69,0v0a2.48,2.48,0,1,0-4.95,0h0a2.48,2.48,0,1,0,4.95,0Z"/><path class="cls-3" d="M31.71,83.33h.69v.94a2.1,2.1,0,0,1,1.79-1,2.28,2.28,0,0,1,2.22,2.42h0a2.28,2.28,0,0,1-2.22,2.42,2.1,2.1,0,0,1-1.79-1v2.34h-.69Zm4,2.34v0a1.68,1.68,0,0,0-1.64-1.8,1.74,1.74,0,0,0-1.68,1.8h0a1.73,1.73,0,0,0,1.68,1.8A1.64,1.64,0,0,0,35.7,85.67Z"/><path class="cls-3" d="M37.13,85.67v0a2.3,2.3,0,0,1,2.23-2.42,2.22,2.22,0,0,1,2.17,2.46,1.77,1.77,0,0,1,0,.23H37.83a1.63,1.63,0,0,0,1.64,1.57,1.92,1.92,0,0,0,1.47-.66l.43.39a2.42,2.42,0,0,1-1.92.87A2.31,2.31,0,0,1,37.13,85.67Zm3.7-.27a1.53,1.53,0,0,0-1.49-1.58,1.6,1.6,0,0,0-1.51,1.58Z"/><path class="cls-3" d="M42.48,83.33h.69v1.22a2,2,0,0,1,1.9-1.3V84H45a1.88,1.88,0,0,0-1.84,2.13V88h-.69Z"/><path class="cls-3" d="M45.27,86.64v0c0-1,.81-1.51,2-1.51a5.26,5.26,0,0,1,1.44.2v-.16c0-.84-.52-1.27-1.39-1.27a3.33,3.33,0,0,0-1.41.34l-.21-.56a3.76,3.76,0,0,1,1.69-.39,2,2,0,0,1,1.5.51,1.83,1.83,0,0,1,.48,1.36V88H48.7v-.71a2,2,0,0,1-1.69.8A1.57,1.57,0,0,1,45.27,86.64Zm3.43-.36v-.45a4.78,4.78,0,0,0-1.36-.2c-.88,0-1.36.38-1.36,1v0c0,.58.54.93,1.17.93A1.41,1.41,0,0,0,48.7,86.28Z"/><path class="cls-3" d="M50.76,86.75V83.94h-.64v-.61h.64v-1.4h.7v1.4h1.47v.61H51.46v2.72a.69.69,0,0,0,.78.78,1.46,1.46,0,0,0,.68-.17v.6a1.74,1.74,0,0,1-.84.2A1.19,1.19,0,0,1,50.76,86.75Z"/><path class="cls-3" d="M53.46,85.67v0a2.3,2.3,0,0,1,2.24-2.42,2.22,2.22,0,0,1,2.17,2.46,1.77,1.77,0,0,1,0,.23H54.17a1.63,1.63,0,0,0,1.64,1.57,1.92,1.92,0,0,0,1.46-.66l.44.39a2.42,2.42,0,0,1-1.92.87A2.32,2.32,0,0,1,53.46,85.67Zm3.7-.27a1.53,1.53,0,0,0-1.48-1.58,1.6,1.6,0,0,0-1.51,1.58Z"/><path class="cls-3" d="M58.54,85.67v0a2.28,2.28,0,0,1,2.22-2.42,2.11,2.11,0,0,1,1.79,1V81.41h.69V88h-.69v-.94a2.09,2.09,0,0,1-1.79,1A2.27,2.27,0,0,1,58.54,85.67Zm4,0h0a1.73,1.73,0,0,0-1.68-1.8,1.65,1.65,0,0,0-1.64,1.8h0a1.68,1.68,0,0,0,1.64,1.8A1.74,1.74,0,0,0,62.57,85.66Z"/><g class="cls-4"><line class="cls-5" x1="45.76" y1="50.16" x2="42.97" y2="42.58"/><path class="cls-5" d="M50.8,43.3s1.1,5.18-2.47,6.86a3.16,3.16,0,0,1-2.57,0,3.84,3.84,0,0,1-3.06,1.5,3,3,0,0,1-3.08-2.07,4.33,4.33,0,0,1-3,1.15,2.67,2.67,0,0,1-2.27-2.1"/><path class="cls-6" d="M48,42.47l.9,2.18c1.38,3.7,3.44,3.12,3.44,3.12,2.53-.48,2.28-4,2.28-4a42.62,42.62,0,0,0-1.88-7.72,13.86,13.86,0,0,0-7.72-5.92c-3-.94-10.91-3.68-10.91-3.68-3.07-1-4.38.18-4.38.18-1.46.83-13.33,10.11-13.33,10.11l-.54,14,14-1a9.24,9.24,0,0,0,6.22-2.39l2.95-3,4-1.8s5-2.07,4-6.3c0,0-1.26-2.61-5-.9l-10.5,4.95"/><path class="cls-7" d="M34.53,34.94a18.32,18.32,0,0,0,6.75.77s1.22,2.75,5.43,3.63A15.65,15.65,0,0,0,48,42.47"/><path class="cls-6" d="M40.15,38.16,45,32.1s4.09-4.77,9.1-1.63a7.61,7.61,0,0,1,3.13,7.82s-1,4.78-7,5.3L44,44.67s-3,.55-4-1.63C39.92,43,38.31,41,40.15,38.16Z"/><path class="cls-6" d="M15.89,50.74l14-1a9.24,9.24,0,0,0,6.22-2.39l2.95-3,4-1.8s5.87-2.35,4-6.3c0,0-1.26-2.61-5-.9l-10.5,4.95"/><line class="cls-5" x1="39.62" y1="49.59" x2="38.24" y2="45.16"/><path class="cls-3" d="M57.77,22.22a.93.93,0,0,1-.1-.57.89.89,0,0,1,1-.74A11.26,11.26,0,0,1,61.61,22,11.57,11.57,0,0,1,66,25.85c1.73,2.67,2.09,6,1.06,9.81a.89.89,0,1,1-1.71-.46c.88-3.31.61-6.11-.81-8.33a9.9,9.9,0,0,0-3.68-3.27,10.52,10.52,0,0,0-2.43-.94A.88.88,0,0,1,57.77,22.22Zm-.34,3.32a7.32,7.32,0,0,1,4.43,3,7.52,7.52,0,0,1,.52,6A.89.89,0,0,0,64.1,35a9.23,9.23,0,0,0-.73-7.38A9,9,0,0,0,57.8,23.8a.89.89,0,0,0-1.06.68.94.94,0,0,0,.1.62A.89.89,0,0,0,57.43,25.54Zm-1,2.95A4,4,0,0,1,59.05,30a4.2,4.2,0,0,1,.26,3.84.89.89,0,1,0,1.7.54A5.87,5.87,0,0,0,60.5,29a5.69,5.69,0,0,0-4-2.28.88.88,0,0,0-.91.86.79.79,0,0,0,.11.46A.89.89,0,0,0,56.48,28.49Z"/></g></svg>