<svg id="Layer_1" data-name="Layer 1" xmlns="http://www.w3.org/2000/svg" xmlns:xlink="http://www.w3.org/1999/xlink" viewBox="0 0 90 100"><defs><style>.cls-1,.cls-5,.cls-7{fill:none;}.cls-2,.cls-6{fill:#fff;}.cls-2,.cls-5,.cls-6,.cls-7{stroke:#74af27;}.cls-2,.cls-7{stroke-miterlimit:10;}.cls-3{fill:#74af27;}.cls-4{clip-path:url(#clip-path);}.cls-5,.cls-6{stroke-linecap:round;stroke-linejoin:round;stroke-width:0.5px;}</style><clipPath id="clip-path"><circle class="cls-1" cx="44.97" cy="37.74" r="28.35"/></clipPath></defs><title>EV-Systems_Operations-CustomisableEVDriverTariffs</title><circle class="cls-2" cx="45" cy="37.74" r="28.35"/><path class="cls-3" d="M17,73.85v0a3.17,3.17,0,0,1,3.18-3.25,3.25,3.25,0,0,1,2.46,1l-.49.52a2.71,2.71,0,0,0-2-.87,2.48,2.48,0,0,0-2.44,2.59h0a2.5,2.5,0,0,0,2.44,2.61,2.76,2.76,0,0,0,2-.91l.47.46a3.31,3.31,0,0,1-2.52,1.1A3.14,3.14,0,0,1,17,73.85Z"/><path class="cls-3" d="M23.47,75.22V72.33h.69v2.72a1.25,1.25,0,0,0,1.29,1.41A1.37,1.37,0,0,0,26.84,75V72.33h.69V77h-.69v-.81a1.76,1.76,0,0,1-1.59.9A1.7,1.7,0,0,1,23.47,75.22Z"/><path class="cls-3" d="M28.43,76.39l.35-.49a2.75,2.75,0,0,0,1.61.59c.56,0,1-.29,1-.74v0c0-.46-.55-.64-1.16-.81s-1.54-.46-1.54-1.32v0a1.41,1.41,0,0,1,1.59-1.33,3.24,3.24,0,0,1,1.67.51l-.31.53a2.65,2.65,0,0,0-1.38-.45c-.55,0-.9.28-.9.67v0c0,.44.57.61,1.2.8s1.49.5,1.49,1.33v0a1.47,1.47,0,0,1-1.66,1.4A3.22,3.22,0,0,1,28.43,76.39Z"/><path class="cls-3" d="M33.18,75.75V72.94h-.65v-.61h.65v-1.4h.69v1.4h1.48v.61H33.87v2.72a.7.7,0,0,0,.79.78,1.42,1.42,0,0,0,.67-.17v.6a1.8,1.8,0,0,1-.84.2A1.19,1.19,0,0,1,33.18,75.75Z"/><path class="cls-3" d="M35.88,74.68v0a2.41,2.41,0,0,1,2.43-2.43,2.39,2.39,0,0,1,2.42,2.41v0a2.41,2.41,0,0,1-2.44,2.43A2.38,2.38,0,0,1,35.88,74.68Zm4.14,0v0a1.76,1.76,0,0,0-1.73-1.82,1.72,1.72,0,0,0-1.7,1.8v0a1.75,1.75,0,0,0,1.72,1.81A1.72,1.72,0,0,0,40,74.68Z"/><path class="cls-3" d="M41.71,72.33h.69v.79a1.71,1.71,0,0,1,1.51-.89,1.58,1.58,0,0,1,1.49.93A1.86,1.86,0,0,1,47,72.23a1.68,1.68,0,0,1,1.73,1.88V77h-.69V74.27c0-.9-.45-1.41-1.21-1.41a1.3,1.3,0,0,0-1.28,1.44V77H44.9V74.25c0-.87-.46-1.39-1.2-1.39a1.35,1.35,0,0,0-1.3,1.47V77h-.69Z"/><path class="cls-3" d="M50,70.55h.79v.76H50Zm0,1.78h.7V77h-.7Z"/><path class="cls-3" d="M51.71,76.39l.35-.49a2.75,2.75,0,0,0,1.61.59c.56,0,1-.29,1-.74v0c0-.46-.54-.64-1.16-.81s-1.54-.46-1.54-1.32v0a1.41,1.41,0,0,1,1.59-1.33,3.18,3.18,0,0,1,1.67.51l-.31.53a2.63,2.63,0,0,0-1.38-.45c-.55,0-.9.28-.9.67v0c0,.44.58.61,1.2.8s1.49.5,1.49,1.33v0a1.47,1.47,0,0,1-1.65,1.4A3.22,3.22,0,0,1,51.71,76.39Z"/><path class="cls-3" d="M56,75.63h0c0-1,.81-1.51,2-1.51a5.24,5.24,0,0,1,1.43.2v-.16c0-.84-.51-1.27-1.39-1.27a3.33,3.33,0,0,0-1.41.34l-.21-.56a3.76,3.76,0,0,1,1.69-.39,2.07,2.07,0,0,1,1.51.51A1.87,1.87,0,0,1,60,74.14V77h-.66v-.71a2,2,0,0,1-1.68.8A1.56,1.56,0,0,1,56,75.63Zm3.43-.35v-.45a4.85,4.85,0,0,0-1.37-.2c-.87,0-1.36.38-1.36,1v0c0,.58.54.93,1.17.93A1.41,1.41,0,0,0,59.39,75.28Z"/><path class="cls-3" d="M61.94,76.09V77h-.69V70.41h.69v2.86a2.1,2.1,0,0,1,1.78-1A2.28,2.28,0,0,1,66,74.64v0a2.28,2.28,0,0,1-2.23,2.42A2.08,2.08,0,0,1,61.94,76.09Zm3.3-1.42v0a1.68,1.68,0,0,0-1.64-1.8,1.73,1.73,0,0,0-1.68,1.79v0a1.73,1.73,0,0,0,1.68,1.8A1.64,1.64,0,0,0,65.24,74.67Z"/><path class="cls-3" d="M67,70.41h.69V77H67Z"/><path class="cls-3" d="M68.76,74.67v0A2.3,2.3,0,0,1,71,72.23a2.22,2.22,0,0,1,2.17,2.46,1.77,1.77,0,0,1,0,.23H69.47a1.63,1.63,0,0,0,1.63,1.57,1.92,1.92,0,0,0,1.47-.66l.43.39a2.38,2.38,0,0,1-1.91.87A2.32,2.32,0,0,1,68.76,74.67Zm3.7-.27A1.53,1.53,0,0,0,71,72.82a1.6,1.6,0,0,0-1.51,1.58Z"/><path class="cls-3" d="M11.8,81.68h4.56v.65H12.52v2.15H16v.65H12.52v2.21H16.4V88H11.8Z"/><path class="cls-3" d="M17,81.68h.8l2.24,5.43,2.25-5.43h.76L20.36,88h-.63Z"/><path class="cls-3" d="M26.47,81.68h2.19A3.14,3.14,0,0,1,32,84.82h0A3.16,3.16,0,0,1,28.66,88H26.47Zm.72.66v5h1.47a2.44,2.44,0,0,0,2.61-2.48v0a2.45,2.45,0,0,0-2.61-2.49Z"/><path class="cls-3" d="M33.13,83.33h.69v1.22a2,2,0,0,1,1.9-1.3V84h-.06a1.88,1.88,0,0,0-1.84,2.13V88h-.69Z"/><path class="cls-3" d="M36.52,81.55h.79v.76h-.79Zm0,1.78h.7V88h-.7Z"/><path class="cls-3" d="M38.14,83.33h.76l1.57,3.86L42,83.33h.75l-2,4.69h-.62Z"/><path class="cls-3" d="M43.05,85.67v0a2.3,2.3,0,0,1,2.23-2.42,2.22,2.22,0,0,1,2.17,2.46,1.77,1.77,0,0,1,0,.23H43.75a1.63,1.63,0,0,0,1.64,1.57,1.92,1.92,0,0,0,1.47-.66l.43.39a2.4,2.4,0,0,1-1.92.87A2.32,2.32,0,0,1,43.05,85.67Zm3.7-.27a1.53,1.53,0,0,0-1.48-1.58,1.61,1.61,0,0,0-1.52,1.58Z"/><path class="cls-3" d="M48.4,83.33h.69v1.22a2,2,0,0,1,1.9-1.3V84h-.05a1.88,1.88,0,0,0-1.85,2.13V88H48.4Z"/><path class="cls-3" d="M56,82.34H53.87v-.66h5v.66H56.71V88H56Z"/><path class="cls-3" d="M58.27,86.63h0c0-1,.81-1.51,2-1.51a5.18,5.18,0,0,1,1.43.2v-.16c0-.84-.51-1.27-1.39-1.27a3.37,3.37,0,0,0-1.41.34l-.21-.56a3.8,3.8,0,0,1,1.7-.39,2,2,0,0,1,1.5.51,1.83,1.83,0,0,1,.48,1.36V88h-.67v-.71a2,2,0,0,1-1.68.8A1.56,1.56,0,0,1,58.27,86.63Zm3.43-.35v-.45a4.8,4.8,0,0,0-1.37-.2c-.87,0-1.36.38-1.36,1v0c0,.58.54.93,1.17.93A1.41,1.41,0,0,0,61.7,86.28Z"/><path class="cls-3" d="M63.56,83.33h.69v1.22a2,2,0,0,1,1.9-1.3V84H66.1a1.88,1.88,0,0,0-1.85,2.13V88h-.69Z"/><path class="cls-3" d="M67,81.55h.79v.76H67Zm0,1.78h.69V88H67Z"/><path class="cls-3" d="M69.29,83.94h-.63v-.6h.63v-.4a1.64,1.64,0,0,1,.41-1.2,1.35,1.35,0,0,1,1-.36,1.9,1.9,0,0,1,.76.12v.6a2.37,2.37,0,0,0-.67-.12c-.54,0-.81.32-.81,1v.38h1.48v.59H70v4h-.7Zm3.32,0H72v-.6h.64v-.4a1.63,1.63,0,0,1,.39-1.2,1.38,1.38,0,0,1,1-.36,1.92,1.92,0,0,1,.77.12v.6A2.25,2.25,0,0,0,74.1,82c-.55,0-.81.32-.81,1v.38h1.47v.59H73.29v4h-.68Z"/><path class="cls-3" d="M75,87.39l.35-.49a2.8,2.8,0,0,0,1.61.59c.56,0,1-.29,1-.74v0c0-.46-.55-.64-1.16-.81s-1.54-.46-1.54-1.32v0a1.4,1.4,0,0,1,1.58-1.33,3.24,3.24,0,0,1,1.68.51l-.32.53a2.63,2.63,0,0,0-1.38-.45c-.55,0-.9.28-.9.67v0c0,.44.58.61,1.2.8s1.49.5,1.49,1.33v0a1.46,1.46,0,0,1-1.65,1.4A3.22,3.22,0,0,1,75,87.39Z"/><g class="cls-4"><path class="cls-5" d="M34.87,42.38l-2.25-1.19a4.67,4.67,0,0,1-5.84,0l-2.92,1.43a4.81,4.81,0,0,0-2.65,4.72"/><polyline class="cls-5" points="29.12 43.57 26.83 44.26 25.76 41.69"/><polyline class="cls-5" points="30.11 43.48 32.44 44.26 33.57 41.69"/><path class="cls-5" d="M25.76,35.35c-.15-1.25-.17-3.46,3-4.05a5.51,5.51,0,0,1,2.29,0,3.48,3.48,0,0,1,2.52,4.05c-.06.56-.21,1.69-.32,2.24-.23,1.19-.77,3.3-3.62,3.19-1.15,0-2.92-.09-3.43-3.05C26.1,37.13,25.82,36,25.76,35.35Z"/><path class="cls-5" d="M25.79,34.75c4.4.44,6.05-1.2,6.05-1.2a1.56,1.56,0,0,0,1.73,1.8"/><path class="cls-5" d="M47.2,55.47s.23-3.46-2.65-4.67l-2.78-1.48a4.67,4.67,0,0,1-5.84,0L33,50.76a4.79,4.79,0,0,0-2.65,4.71"/><polyline class="cls-5" points="38.27 51.7 35.97 52.4 34.9 49.82"/><polyline class="cls-5" points="39.25 51.61 41.59 52.4 42.72 49.82"/><path class="cls-5" d="M34.9,43.48c-.14-1.25-.17-3.46,3-4a5.19,5.19,0,0,1,2.29,0,3.46,3.46,0,0,1,2.52,4c-.06.56-.22,1.69-.32,2.24-.23,1.19-.78,3.3-3.63,3.19-1.14,0-2.91-.09-3.43-3C35.24,45.26,35,44.08,34.9,43.48Z"/><path class="cls-5" d="M42.72,43.48c-2,0-1.73-1.8-1.73-1.8s-1.65,1.64-6.05,1.2"/><path class="cls-5" d="M54.63,24.65l-2.24-1.2a4.66,4.66,0,0,1-5.84,0l-2.92,1.44A4.8,4.8,0,0,0,41,29.61"/><polyline class="cls-5" points="48.88 25.83 46.59 26.53 45.52 23.96"/><polyline class="cls-5" points="49.87 25.74 52.21 26.53 53.34 23.96"/><path class="cls-5" d="M45.52,17.61c-.14-1.25-.17-3.45,3-4a5.51,5.51,0,0,1,2.29,0,3.48,3.48,0,0,1,2.53,4c-.07.57-.22,1.69-.32,2.25-.23,1.18-.78,3.29-3.63,3.19C48.25,23,46.48,23,46,20,45.86,19.4,45.59,18.21,45.52,17.61Z"/><path class="cls-5" d="M45.56,17c4.4.43,6-1.2,6-1.2s-.28,1.75,1.74,1.79"/><path class="cls-5" d="M67,37.74s.22-3.46-2.65-4.67l-2.79-1.49a4.65,4.65,0,0,1-5.84,0L52.77,33a4.8,4.8,0,0,0-2.65,4.72"/><polyline class="cls-5" points="58.03 33.97 55.74 34.66 54.66 32.09"/><polyline class="cls-5" points="59.02 33.88 61.35 34.66 62.48 32.09"/><path class="cls-5" d="M54.67,25.74c-.15-1.25-.17-3.45,3-4a5.51,5.51,0,0,1,2.29,0,3.47,3.47,0,0,1,2.52,4c-.06.57-.21,1.69-.32,2.25-.23,1.19-.77,3.29-3.62,3.19-1.15,0-2.92-.09-3.43-3.05C55,27.53,54.73,26.35,54.67,25.74Z"/><path class="cls-5" d="M62.48,25.74A1.55,1.55,0,0,1,60.75,24s-1.65,1.63-6,1.2"/><circle class="cls-6" cx="43.19" cy="58.29" r="3.41"/><path class="cls-3" d="M41.86,59.62a1.14,1.14,0,0,0,.61-.89,1,1,0,0,0-.1-.36h-.54v-.46h.35a1.24,1.24,0,0,1-.24-.74c0-.57.47-1.07,1.37-1.07a1.21,1.21,0,0,1,1.31,1.35h-.73c0-.21,0-.72-.58-.72a.48.48,0,0,0-.53.5,1.13,1.13,0,0,0,.22.68h.71v.46h-.56a.91.91,0,0,1,0,.33.93.93,0,0,1-.44.75h0a.68.68,0,0,1,.37-.12,2,2,0,0,1,.42.06,1.58,1.58,0,0,0,.42.06.55.55,0,0,0,.47-.23l.33.55a1.2,1.2,0,0,1-.84.34,1.46,1.46,0,0,1-.59-.1,1.28,1.28,0,0,0-.53-.1.93.93,0,0,0-.62.2Z"/><circle class="cls-6" cx="48.48" cy="58.29" r="3.41"/><path class="cls-3" d="M47.16,59.62a1.13,1.13,0,0,0,.6-.89.81.81,0,0,0-.1-.36h-.53v-.46h.34a1.31,1.31,0,0,1-.24-.74c0-.57.48-1.07,1.38-1.07a1.21,1.21,0,0,1,1.3,1.35h-.72c0-.21,0-.72-.59-.72a.48.48,0,0,0-.52.5,1.13,1.13,0,0,0,.22.68H49v.46h-.56a1.19,1.19,0,0,1,0,.33.93.93,0,0,1-.44.75h0a.65.65,0,0,1,.37-.12,2,2,0,0,1,.42.06,1.47,1.47,0,0,0,.42.06.56.56,0,0,0,.47-.23l.32.55a1.16,1.16,0,0,1-.83.34,1.46,1.46,0,0,1-.59-.1,1.35,1.35,0,0,0-.53-.1.93.93,0,0,0-.62.2Z"/><circle class="cls-6" cx="53.78" cy="58.29" r="3.41"/><path class="cls-3" d="M52.45,59.62a1.14,1.14,0,0,0,.61-.89.83.83,0,0,0-.11-.36h-.53v-.46h.35a1.24,1.24,0,0,1-.25-.74c0-.57.48-1.07,1.38-1.07a1.21,1.21,0,0,1,1.31,1.35h-.73c0-.21,0-.72-.59-.72a.48.48,0,0,0-.52.5,1.13,1.13,0,0,0,.22.68h.71v.46h-.56a.91.91,0,0,1,0,.33.93.93,0,0,1-.44.75h0a.68.68,0,0,1,.37-.12,2,2,0,0,1,.42.06,1.58,1.58,0,0,0,.42.06.55.55,0,0,0,.47-.23l.33.55a1.2,1.2,0,0,1-.84.34,1.46,1.46,0,0,1-.59-.1,1.28,1.28,0,0,0-.53-.1.93.93,0,0,0-.62.2Z"/><line class="cls-7" x1="24.72" y1="18.28" x2="65.07" y2="58.64"/><circle class="cls-6" cx="60.59" cy="41.15" r="3.41"/><path class="cls-3" d="M59.27,42.47a1.13,1.13,0,0,0,.61-.89.88.88,0,0,0-.11-.36h-.53v-.45h.34a1.34,1.34,0,0,1-.24-.74c0-.58.48-1.07,1.38-1.07A1.2,1.2,0,0,1,62,40.3H61.3c0-.21,0-.72-.59-.72a.48.48,0,0,0-.52.5,1.16,1.16,0,0,0,.22.69h.71v.45h-.56a1.22,1.22,0,0,1,0,.34,1,1,0,0,1-.44.75h0a.58.58,0,0,1,.37-.12,3.19,3.19,0,0,1,.42,0,1.48,1.48,0,0,0,.42.07.56.56,0,0,0,.47-.23l.32.54a1.16,1.16,0,0,1-.83.34,1.49,1.49,0,0,1-.59-.09,1.31,1.31,0,0,0-.53-.11,1,1,0,0,0-.62.2Z"/><circle class="cls-6" cx="65.47" cy="41.15" r="3.41"/><path class="cls-3" d="M64.15,42.47a1.12,1.12,0,0,0,.6-.89.85.85,0,0,0-.1-.36h-.53v-.45h.34a1.34,1.34,0,0,1-.24-.74c0-.58.48-1.07,1.38-1.07a1.2,1.2,0,0,1,1.3,1.34h-.72c0-.21,0-.72-.59-.72a.48.48,0,0,0-.52.5,1.16,1.16,0,0,0,.22.69H66v.45h-.56a1.22,1.22,0,0,1,0,.34,1,1,0,0,1-.44.75h0a.58.58,0,0,1,.37-.12,3,3,0,0,1,.42,0,1.54,1.54,0,0,0,.42.07.56.56,0,0,0,.47-.23l.32.54a1.16,1.16,0,0,1-.83.34,1.49,1.49,0,0,1-.59-.09,1.34,1.34,0,0,0-.53-.11,1,1,0,0,0-.62.2Z"/></g></svg>