<svg id="Layer_1" data-name="Layer 1" xmlns="http://www.w3.org/2000/svg" viewBox="0 0 90 100"><defs><style>.cls-1{fill:#fff;stroke:#74af27;stroke-miterlimit:10;}.cls-2{fill:#74af27;}</style></defs><title>EV-Systems_Operations-Built-inTimeClock</title><circle class="cls-1" cx="45" cy="37.74" r="28.35"/><path class="cls-2" d="M30.84,70.68h2.68a2.33,2.33,0,0,1,1.65.56,1.41,1.41,0,0,1,.4,1v0a1.53,1.53,0,0,1-1,1.46,1.58,1.58,0,0,1,1.35,1.52v0c0,1.08-.91,1.72-2.29,1.72h-2.8Zm4,1.67c0-.62-.49-1-1.39-1H31.54v2.17H33.4c.86,0,1.45-.38,1.45-1.12Zm-1.32,1.77h-2v2.23h2.12c1,0,1.55-.43,1.55-1.13v0C35.21,74.52,34.63,74.12,33.53,74.12Z"/><path class="cls-2" d="M36.88,75.22V72.33h.69v2.72a1.25,1.25,0,0,0,1.29,1.41A1.37,1.37,0,0,0,40.25,75V72.33h.69V77h-.69v-.81a1.76,1.76,0,0,1-1.59.9A1.7,1.7,0,0,1,36.88,75.22Z"/><path class="cls-2" d="M42.24,70.55H43v.76h-.79Zm0,1.78H43V77h-.69Z"/><path class="cls-2" d="M44.38,70.41h.7V77h-.7Z"/><path class="cls-2" d="M46.66,75.75V72.94H46v-.61h.65v-1.4h.69v1.4h1.48v.61H47.35v2.72a.7.7,0,0,0,.79.78,1.42,1.42,0,0,0,.67-.17v.6a1.8,1.8,0,0,1-.84.2A1.19,1.19,0,0,1,46.66,75.75Z"/><path class="cls-2" d="M49.59,73.92H52.1v.72H49.59Z"/><path class="cls-2" d="M53.2,70.55H54v.76h-.8Zm0,1.78h.69V77h-.69Z"/><path class="cls-2" d="M55.28,72.33H56v.81a1.79,1.79,0,0,1,1.6-.91,1.7,1.7,0,0,1,1.78,1.87V77h-.69V74.27a1.24,1.24,0,0,0-1.29-1.41A1.38,1.38,0,0,0,56,74.32V77h-.69Z"/><path class="cls-2" d="M24,82.34H21.87v-.66h4.95v.66H24.7V88H24Z"/><path class="cls-2" d="M27.49,81.55h.79v.76h-.79Zm.05,1.78h.69V88h-.69Z"/><path class="cls-2" d="M29.57,83.33h.69v.79a1.71,1.71,0,0,1,1.51-.89,1.58,1.58,0,0,1,1.49.93,1.86,1.86,0,0,1,1.64-.93,1.68,1.68,0,0,1,1.73,1.88V88h-.7V85.27c0-.9-.45-1.41-1.2-1.41a1.3,1.3,0,0,0-1.28,1.44V88h-.69V85.25c0-.87-.46-1.39-1.2-1.39a1.35,1.35,0,0,0-1.3,1.47V88h-.69Z"/><path class="cls-2" d="M37.57,85.67v0a2.3,2.3,0,0,1,2.23-2.42A2.22,2.22,0,0,1,42,85.69a1.77,1.77,0,0,1,0,.23H38.27a1.63,1.63,0,0,0,1.64,1.57,1.92,1.92,0,0,0,1.47-.66l.43.39a2.4,2.4,0,0,1-1.92.87A2.32,2.32,0,0,1,37.57,85.67Zm3.7-.27a1.53,1.53,0,0,0-1.48-1.58,1.6,1.6,0,0,0-1.52,1.58Z"/><path class="cls-2" d="M45.18,84.85v0a3.17,3.17,0,0,1,3.19-3.25,3.27,3.27,0,0,1,2.46,1l-.49.52a2.71,2.71,0,0,0-2-.87,2.48,2.48,0,0,0-2.44,2.59h0a2.5,2.5,0,0,0,2.44,2.61,2.77,2.77,0,0,0,2-.91l.47.46a3.31,3.31,0,0,1-2.53,1.1A3.15,3.15,0,0,1,45.18,84.85Z"/><path class="cls-2" d="M51.78,81.41h.69V88h-.69Z"/><path class="cls-2" d="M53.53,85.68v0a2.43,2.43,0,0,1,4.85,0v0a2.42,2.42,0,0,1-2.44,2.43A2.37,2.37,0,0,1,53.53,85.68Zm4.14,0v0a1.76,1.76,0,0,0-1.73-1.82,1.72,1.72,0,0,0-1.7,1.8v0A1.75,1.75,0,0,0,56,87.47,1.72,1.72,0,0,0,57.67,85.68Z"/><path class="cls-2" d="M59.07,85.68v0a2.42,2.42,0,0,1,4.25-1.6l-.46.49a1.87,1.87,0,0,0-1.41-.71,1.72,1.72,0,0,0-1.67,1.8v0a1.74,1.74,0,0,0,1.71,1.81,1.91,1.91,0,0,0,1.43-.69l.44.41a2.41,2.41,0,0,1-4.29-1.51Z"/><path class="cls-2" d="M64.23,81.41h.69V86l2.51-2.62h.87l-2,2,2,2.66h-.83l-1.66-2.17-1,1V88h-.69Z"/><path class="cls-2" d="M48.75,53c-.31.08-.62.14-.93.2a1.5,1.5,0,0,0-1.2,1.74,1.52,1.52,0,0,0,.61,1,1.48,1.48,0,0,0,1.13.24q.55-.1,1.11-.24A1.49,1.49,0,0,0,48.75,53Z"/><path class="cls-2" d="M59.77,33a1.45,1.45,0,0,0,.55.75,1.52,1.52,0,0,0,1.33.2,1.49,1.49,0,0,0,1-1.88c-.12-.36-.25-.72-.39-1.07a1.49,1.49,0,1,0-2.77,1.11C59.56,32.39,59.67,32.69,59.77,33Z"/><path class="cls-2" d="M53.59,50.84c-.26.18-.54.34-.81.5a1.5,1.5,0,0,0-.55,2,1.52,1.52,0,0,0,.44.47,1.49,1.49,0,0,0,1.6.07c.33-.18.65-.38,1-.59a1.49,1.49,0,0,0-1.64-2.49Z"/><path class="cls-2" d="M63.52,37.16a1.49,1.49,0,1,0-3,.11c0,.32,0,.64,0,.95a1.46,1.46,0,0,0,.64,1.25,1.37,1.37,0,0,0,.82.27,1.48,1.48,0,0,0,1.52-1.45C63.54,37.91,63.54,37.53,63.52,37.16Z"/><path class="cls-2" d="M59.52,46.92a1.48,1.48,0,0,0-2.08.3c-.19.25-.39.5-.6.74a1.5,1.5,0,0,0,.17,2.1l.11.09a1.5,1.5,0,0,0,2-.26c.25-.28.49-.58.71-.88A1.49,1.49,0,0,0,59.52,46.92Z"/><path class="cls-2" d="M61.72,41.53a1.49,1.49,0,0,0-1.87,1c-.1.3-.2.6-.31.9a1.5,1.5,0,0,0,.53,1.75,1.71,1.71,0,0,0,.33.17,1.49,1.49,0,0,0,1.92-.86c.13-.35.26-.71.37-1.07A1.49,1.49,0,0,0,61.72,41.53Z"/><path class="cls-2" d="M42.24,53.18A14.92,14.92,0,0,1,38.42,52l0,0-.85-.43h0A15.41,15.41,0,0,1,36,50.59a15.55,15.55,0,0,1,.07-25.48l0,0a15.57,15.57,0,0,1,17.46-.14l-1.16,1.68c-.33.47-.13.81.44.76L58,26.92a.83.83,0,0,0,.75-1.09l-1.36-4.89c-.15-.55-.54-.61-.86-.15l-1.17,1.69a18.42,18.42,0,0,0-13.49-2.87c-.47.08-.94.19-1.41.3h-.06a18.35,18.35,0,0,0-10.19,6.83l-.07.08-.25.35-.39.58a.25.25,0,0,0,0,.07,18.39,18.39,0,0,0-2.94,10.84v0c0,.37.05.75.09,1.12,0,0,0,0,0,.07,0,.38.09.75.16,1.13a18.33,18.33,0,0,0,5.19,10h0a19.15,19.15,0,0,0,2.38,2,18.42,18.42,0,0,0,7.39,3.09,1.49,1.49,0,0,0,.52-2.94Z"/><path class="cls-2" d="M44.09,25.83A1.21,1.21,0,0,0,42.88,27v12l11,5.68A1.2,1.2,0,1,0,55,42.59l-9.68-5V27A1.21,1.21,0,0,0,44.09,25.83Z"/></svg>