<svg id="Layer_1" data-name="Layer 1" xmlns="http://www.w3.org/2000/svg" viewBox="0 0 90 100"><defs><style>.cls-1{fill:#fff;}.cls-1,.cls-2,.cls-4{stroke:#74af27;stroke-miterlimit:10;}.cls-2,.cls-4{fill:none;}.cls-3{fill:#74af27;}.cls-4{stroke-linecap:round;}</style></defs><title>EV-Systems_Operations-KeySwitchControl</title><circle class="cls-1" cx="45" cy="37.74" r="28.35"/><path class="cls-2" d="M27,35.91a1.58,1.58,0,0,1,.65-.14l16.7.07a4.7,4.7,0,0,1,.47,0c0-.36,0-.67.05-1s0-.65,0-1a.82.82,0,0,1,1.28-.66,14.67,14.67,0,0,1,1.25,1l.78.62c.27-.46.5-.91.78-1.33A8.87,8.87,0,0,1,61.5,30.71a9.38,9.38,0,0,1,4.28,6.64,10.19,10.19,0,0,1-1.66,7.73,9,9,0,0,1-12.58,2.36,10.16,10.16,0,0,1-3.29-4c-.06-.11-.1-.21-.17-.36-.15.08-.3.15-.43.23L45.7,44.43c-.57.33-1,.11-1-.57s0-1.5,0-2.25a4.57,4.57,0,0,1,0-.46c-.94,0-1.81,0-2.67.08-.1,0-.21.1-.29.18L40.17,43l-2.43-2.45-.29.29L35.7,42.49l-.07.06a3,3,0,0,1-1.84-.09c-.62-.61-1.24-1.21-1.85-1.83-.19-.2-.31-.18-.5,0-.4.36-.82.71-1.24,1a.74.74,0,0,1-.26.1h-.1a5.53,5.53,0,0,1-1.74-.12,5,5,0,0,1-1.27-1.14l-2.28-2.76Zm35.4,1.41a2.12,2.12,0,0,0-3.06,0,2.18,2.18,0,0,0,0,3.05,2.15,2.15,0,0,0,3,0A2.2,2.2,0,0,0,62.37,37.32Z"/><path class="cls-3" d="M22.46,70.68h.71v3.77l3.62-3.77h.92L25,73.44,27.83,77h-.9l-2.42-3.06-1.34,1.36V77h-.71Z"/><path class="cls-3" d="M28,74.67v0a2.29,2.29,0,0,1,2.23-2.42,2.22,2.22,0,0,1,2.17,2.46,1.77,1.77,0,0,1,0,.23H28.69a1.63,1.63,0,0,0,1.64,1.57,1.89,1.89,0,0,0,1.46-.66l.44.39a2.42,2.42,0,0,1-1.92.87A2.31,2.31,0,0,1,28,74.67Zm3.7-.27a1.54,1.54,0,0,0-1.49-1.58,1.6,1.6,0,0,0-1.51,1.58Z"/><path class="cls-3" d="M36.59,72.33h.74l-1.95,4.81c-.4,1-.85,1.31-1.55,1.31a2.13,2.13,0,0,1-1-.23l.23-.55a1.43,1.43,0,0,0,.73.17c.41,0,.68-.21,1-.87l-2.11-4.64h.76l1.7,3.88Z"/><path class="cls-3" d="M40.29,76.07l.44-.53a3,3,0,0,0,2.16.9c.85,0,1.4-.45,1.4-1.07v0c0-.59-.31-.92-1.63-1.2s-2.12-.78-2.12-1.82v0a1.86,1.86,0,0,1,2.07-1.72,3.32,3.32,0,0,1,2.22.78l-.42.55a2.75,2.75,0,0,0-1.82-.69c-.82,0-1.34.45-1.34,1v0c0,.59.33.93,1.71,1.22S45,74.31,45,75.28h0c0,1.08-.91,1.79-2.16,1.79A3.69,3.69,0,0,1,40.29,76.07Z"/><path class="cls-3" d="M45.59,72.33h.74l1.22,3.74,1.25-3.76h.58l1.26,3.76,1.22-3.74h.72L51,77h-.61l-1.25-3.67L47.83,77h-.61Z"/><path class="cls-3" d="M53.48,70.55h.79v.76h-.79Zm.05,1.78h.69V77h-.69Z"/><path class="cls-3" d="M55.8,75.75V72.94h-.64v-.61h.64v-1.4h.7v1.4H58v.61H56.5v2.72a.69.69,0,0,0,.78.78,1.46,1.46,0,0,0,.68-.17v.6a1.86,1.86,0,0,1-.84.2A1.19,1.19,0,0,1,55.8,75.75Z"/><path class="cls-3" d="M58.5,74.68v0a2.42,2.42,0,0,1,4.25-1.6l-.46.49a1.85,1.85,0,0,0-1.41-.71,1.72,1.72,0,0,0-1.66,1.8v0a1.73,1.73,0,0,0,1.71,1.81,1.91,1.91,0,0,0,1.42-.69l.44.41a2.41,2.41,0,0,1-4.29-1.51Z"/><path class="cls-3" d="M63.66,70.41h.69v2.73a1.79,1.79,0,0,1,1.6-.91,1.7,1.7,0,0,1,1.78,1.87V77H67V74.27a1.24,1.24,0,0,0-1.29-1.41,1.38,1.38,0,0,0-1.4,1.46V77h-.69Z"/><path class="cls-3" d="M29.84,84.85v0A3.17,3.17,0,0,1,33,81.58a3.25,3.25,0,0,1,2.46,1L35,83.1a2.71,2.71,0,0,0-2-.87,2.48,2.48,0,0,0-2.44,2.59h0A2.5,2.5,0,0,0,33,87.44a2.77,2.77,0,0,0,2-.91l.47.46A3.31,3.31,0,0,1,33,88.09,3.14,3.14,0,0,1,29.84,84.85Z"/><path class="cls-3" d="M36,85.68v0a2.41,2.41,0,0,1,2.43-2.43,2.39,2.39,0,0,1,2.42,2.41v0a2.41,2.41,0,0,1-2.44,2.43A2.38,2.38,0,0,1,36,85.68Zm4.14,0v0a1.76,1.76,0,0,0-1.73-1.82,1.72,1.72,0,0,0-1.7,1.8v0a1.75,1.75,0,0,0,1.72,1.81A1.72,1.72,0,0,0,40.13,85.68Z"/><path class="cls-3" d="M41.82,83.33h.7v.81a1.76,1.76,0,0,1,1.59-.91,1.7,1.7,0,0,1,1.78,1.87V88H45.2V85.27a1.24,1.24,0,0,0-1.29-1.41,1.37,1.37,0,0,0-1.39,1.46V88h-.7Z"/><path class="cls-3" d="M47.34,86.75V83.94h-.65v-.61h.65v-1.4H48v1.4h1.48v.61H48v2.72a.7.7,0,0,0,.79.78,1.42,1.42,0,0,0,.67-.17v.6a1.8,1.8,0,0,1-.84.2A1.19,1.19,0,0,1,47.34,86.75Z"/><path class="cls-3" d="M50.46,83.33h.7v1.22a2,2,0,0,1,1.9-1.3V84H53a1.87,1.87,0,0,0-1.84,2.13V88h-.7Z"/><path class="cls-3" d="M53.35,85.68v0a2.41,2.41,0,0,1,2.43-2.43,2.39,2.39,0,0,1,2.42,2.41v0a2.41,2.41,0,0,1-2.44,2.43A2.38,2.38,0,0,1,53.35,85.68Zm4.14,0v0a1.76,1.76,0,0,0-1.73-1.82,1.72,1.72,0,0,0-1.7,1.8v0a1.75,1.75,0,0,0,1.72,1.81A1.72,1.72,0,0,0,57.49,85.68Z"/><path class="cls-3" d="M59.25,81.41h.69V88h-.69Z"/><line class="cls-4" x1="24.65" y1="37.86" x2="45.35" y2="37.86"/></svg>