<svg id="Layer_1" data-name="Layer 1" xmlns="http://www.w3.org/2000/svg" xmlns:xlink="http://www.w3.org/1999/xlink" viewBox="0 0 90 100"><defs><style>.cls-1,.cls-7{fill:none;}.cls-2{fill:#fff;stroke-miterlimit:10;}.cls-2,.cls-5,.cls-6,.cls-7{stroke:#74af27;}.cls-3,.cls-5,.cls-6{fill:#74af27;}.cls-4{clip-path:url(#clip-path);}.cls-5,.cls-6,.cls-7{stroke-linecap:round;stroke-linejoin:round;}.cls-5{stroke-width:0.2px;}.cls-6{stroke-width:0.15px;}.cls-7{stroke-width:0.4px;}</style><clipPath id="clip-path"><circle class="cls-1" cx="45" cy="37.74" r="28.35"/></clipPath></defs><title>EV-Systems_Operations-GridSMARTEVManagement</title><circle class="cls-2" cx="45" cy="37.74" r="28.35"/><path class="cls-3" d="M13.36,73.85v0a3.16,3.16,0,0,1,3.16-3.25,3.33,3.33,0,0,1,2.35.83l-.46.54a2.71,2.71,0,0,0-1.92-.72,2.47,2.47,0,0,0-2.4,2.59h0a2.44,2.44,0,0,0,2.5,2.63,2.94,2.94,0,0,0,1.82-.64V74.26H16.49v-.64h2.6v2.51a3.82,3.82,0,0,1-2.53,1A3.09,3.09,0,0,1,13.36,73.85Z"/><path class="cls-3" d="M20.3,72.33H21v1.22a2,2,0,0,1,1.9-1.3V73h-.06A1.88,1.88,0,0,0,21,75.13V77h-.7Z"/><path class="cls-3" d="M23.7,70.55h.79v.76H23.7Zm0,1.78h.7V77h-.7Z"/><path class="cls-3" d="M25.51,74.67v0a2.28,2.28,0,0,1,2.22-2.42,2.11,2.11,0,0,1,1.78,1V70.41h.7V77h-.7v-.94a2.09,2.09,0,0,1-1.78,1A2.26,2.26,0,0,1,25.51,74.67Zm4,0v0a1.73,1.73,0,0,0-1.68-1.79,1.65,1.65,0,0,0-1.64,1.79v0a1.68,1.68,0,0,0,1.64,1.8A1.74,1.74,0,0,0,29.54,74.66Z"/><path class="cls-3" d="M31.19,76.07l.44-.53a3,3,0,0,0,2.16.9c.84,0,1.4-.45,1.4-1.07v0c0-.59-.31-.92-1.64-1.2s-2.11-.78-2.11-1.82v0a1.86,1.86,0,0,1,2.07-1.72,3.29,3.29,0,0,1,2.21.78l-.41.55a2.77,2.77,0,0,0-1.82-.69c-.82,0-1.34.45-1.34,1v0c0,.59.32.93,1.71,1.22s2,.82,2,1.79h0c0,1.08-.9,1.79-2.15,1.79A3.69,3.69,0,0,1,31.19,76.07Z"/><path class="cls-3" d="M37.09,70.68h.72l2.29,3.44,2.3-3.44h.72V77h-.71V71.88l-2.3,3.38h0l-2.3-3.37V77h-.69Z"/><path class="cls-3" d="M47,70.64h.67L50.5,77h-.76L49,75.32H45.57L44.82,77h-.73Zm1.76,4-1.43-3.2-1.44,3.2Z"/><path class="cls-3" d="M51.47,70.68h2.71a2.49,2.49,0,0,1,1.79.63,1.74,1.74,0,0,1,.49,1.25h0a1.84,1.84,0,0,1-1.71,1.84L56.68,77h-.87L54,74.54h-1.8V77h-.71Zm2.65,3.22c.94,0,1.62-.49,1.62-1.3v0c0-.77-.6-1.24-1.61-1.24h-2V73.9Z"/><path class="cls-3" d="M59.31,71.34H57.19v-.66h5v.66H60V77h-.72Z"/><path class="cls-3" d="M65.64,70.68h4.55v.65H66.35v2.15h3.44v.65H66.35v2.21h3.89V77h-4.6Z"/><path class="cls-3" d="M70.86,70.68h.79l2.24,5.43,2.25-5.43h.77L74.2,77h-.63Z"/><path class="cls-3" d="M18,81.68h.72l2.3,3.44,2.29-3.44h.72V88h-.71V82.88l-2.29,3.38h0l-2.29-3.37V88H18Z"/><path class="cls-3" d="M25.11,86.63h0c0-1,.81-1.51,2-1.51a5.24,5.24,0,0,1,1.43.2v-.16c0-.84-.52-1.27-1.39-1.27a3.33,3.33,0,0,0-1.41.34l-.21-.56a3.76,3.76,0,0,1,1.69-.39,2.07,2.07,0,0,1,1.51.51,1.87,1.87,0,0,1,.47,1.36V88h-.66v-.71a2,2,0,0,1-1.69.8A1.56,1.56,0,0,1,25.11,86.63Zm3.43-.35v-.45a4.91,4.91,0,0,0-1.37-.2c-.88,0-1.36.38-1.36,1v0c0,.58.54.93,1.17.93A1.42,1.42,0,0,0,28.54,86.28Z"/><path class="cls-3" d="M30.4,83.33h.69v.81a1.77,1.77,0,0,1,1.59-.91,1.71,1.71,0,0,1,1.79,1.87V88h-.7V85.27a1.24,1.24,0,0,0-1.28-1.41,1.38,1.38,0,0,0-1.4,1.46V88H30.4Z"/><path class="cls-3" d="M35.32,86.63h0c0-1,.81-1.51,2-1.51a5.18,5.18,0,0,1,1.43.2v-.16c0-.84-.51-1.27-1.39-1.27a3.37,3.37,0,0,0-1.41.34l-.21-.56a3.8,3.8,0,0,1,1.7-.39,2,2,0,0,1,1.5.51,1.83,1.83,0,0,1,.48,1.36V88h-.67v-.71a2,2,0,0,1-1.68.8A1.56,1.56,0,0,1,35.32,86.63Zm3.43-.35v-.45a4.8,4.8,0,0,0-1.37-.2c-.87,0-1.36.38-1.36,1v0c0,.58.54.93,1.17.93A1.41,1.41,0,0,0,38.75,86.28Z"/><path class="cls-3" d="M40.56,88.8l.31-.54a3,3,0,0,0,1.8.59,1.53,1.53,0,0,0,1.69-1.66v-.55a2.22,2.22,0,0,1-1.83,1,2.15,2.15,0,0,1-2.19-2.18v0a2.2,2.2,0,0,1,4-1.26v-.84H45v3.85a2.2,2.2,0,0,1-.59,1.64,2.44,2.44,0,0,1-1.78.62A3.65,3.65,0,0,1,40.56,88.8Zm3.82-3.36v0a1.64,1.64,0,0,0-1.71-1.58,1.55,1.55,0,0,0-1.62,1.57v0A1.57,1.57,0,0,0,42.67,87,1.64,1.64,0,0,0,44.38,85.44Z"/><path class="cls-3" d="M46,85.67v0a2.3,2.3,0,0,1,2.23-2.42,2.22,2.22,0,0,1,2.17,2.46,1.77,1.77,0,0,1,0,.23H46.73a1.63,1.63,0,0,0,1.64,1.57,1.92,1.92,0,0,0,1.47-.66l.43.39a2.4,2.4,0,0,1-1.92.87A2.31,2.31,0,0,1,46,85.67Zm3.7-.27a1.53,1.53,0,0,0-1.48-1.58,1.61,1.61,0,0,0-1.52,1.58Z"/><path class="cls-3" d="M51.38,83.33h.69v.79a1.71,1.71,0,0,1,1.5-.89,1.59,1.59,0,0,1,1.5.93,1.86,1.86,0,0,1,1.64-.93,1.68,1.68,0,0,1,1.73,1.88V88h-.7V85.27c0-.9-.45-1.41-1.2-1.41a1.29,1.29,0,0,0-1.28,1.44V88h-.7V85.25c0-.87-.46-1.39-1.19-1.39a1.35,1.35,0,0,0-1.3,1.47V88h-.69Z"/><path class="cls-3" d="M59.38,85.67v0a2.29,2.29,0,0,1,2.23-2.42,2.22,2.22,0,0,1,2.17,2.46,1.77,1.77,0,0,1,0,.23H60.08a1.63,1.63,0,0,0,1.64,1.57,1.92,1.92,0,0,0,1.47-.66l.43.39a2.42,2.42,0,0,1-1.92.87A2.31,2.31,0,0,1,59.38,85.67Zm3.7-.27a1.53,1.53,0,0,0-1.49-1.58,1.6,1.6,0,0,0-1.51,1.58Z"/><path class="cls-3" d="M64.72,83.33h.7v.81A1.76,1.76,0,0,1,67,83.23a1.7,1.7,0,0,1,1.78,1.87V88H68.1V85.27a1.24,1.24,0,0,0-1.29-1.41,1.37,1.37,0,0,0-1.39,1.46V88h-.7Z"/><path class="cls-3" d="M70.24,86.75V83.94h-.65v-.61h.65v-1.4h.69v1.4h1.48v.61H70.93v2.72a.7.7,0,0,0,.79.78,1.42,1.42,0,0,0,.67-.17v.6a1.79,1.79,0,0,1-.83.2A1.19,1.19,0,0,1,70.24,86.75Z"/><g class="cls-4"><path class="cls-5" d="M47.06,69a.18.18,0,0,1-.16-.13L39.4,36.13V18.07L37,13a.16.16,0,0,1,.08-.22.16.16,0,0,1,.22.08L39.74,18v18.1l7.49,32.67a.17.17,0,0,1-.13.2Z"/><path class="cls-5" d="M44.52,22.87h-5a.17.17,0,1,1,0-.34h4.61V22L39.5,19.7a.17.17,0,0,1-.08-.22.18.18,0,0,1,.23-.08l4.87,2.38Z"/><path class="cls-5" d="M47.23,28.79H39.57a.17.17,0,0,1,0-.34H46.9v-.36l-7.38-2.41a.16.16,0,1,1,.1-.31l7.61,2.48Z"/><path class="cls-5" d="M44.22,35H39.57a.17.17,0,0,1-.17-.17.17.17,0,0,1,.17-.16h4.31v-.49L39.5,32.08a.17.17,0,1,1,.14-.3L44.22,34Z"/><path class="cls-5" d="M39.87,35.46H37.18a.12.12,0,0,1-.12-.13.12.12,0,0,1,.12-.12h2.1L37,32.87l2.38-2.48L37,28.27,39.38,26,37,24.19l2.37-2.32-2.45-1.21,2.37-1.33-2.41-.9L39,17.35l-2-1.28,1.16-1a.14.14,0,0,1,.18,0,.13.13,0,0,1,0,.18l-.91.8,2.12,1.35-2,1,2.38.89-2.42,1.36,2.34,1.16-2.42,2.36L39.76,26l-2.39,2.31,2.38,2.12-2.39,2.49Z"/><path class="cls-5" d="M47,68.54h0L36.87,65.36l8.07-4.6-8-3.4L43,52.29,36.94,50l4.64-4-4.63-2,3.48-3.08L37,38.72,39.48,36a.12.12,0,1,1,.18.17l-2.28,2.46,3.47,2.1-3.44,3.05,4.63,2-4.62,4,6.1,2.32-6.1,5.08,8.08,3.44-8,4.56,9.52,3a.13.13,0,0,1,.09.16A.14.14,0,0,1,47,68.54Z"/><path class="cls-5" d="M42.08,35a.12.12,0,0,1-.1-.05l-2-2.71a.14.14,0,0,1,0-.18.13.13,0,0,1,.18,0l2,2.71a.12.12,0,0,1,0,.17A.09.09,0,0,1,42.08,35Z"/><path class="cls-5" d="M43.48,35a.11.11,0,0,1-.1-.06l-1-1.53a.12.12,0,0,1,0-.17.14.14,0,0,1,.18,0l1,1.53a.14.14,0,0,1,0,.18Z"/><path class="cls-5" d="M40.5,35a.11.11,0,0,1-.11-.06l-1-1.53a.12.12,0,0,1,0-.17.12.12,0,0,1,.17,0l1,1.54a.12.12,0,0,1,0,.17Z"/><path class="cls-5" d="M40.9,35l-.06,0a.12.12,0,0,1,0-.17L41.88,33a.12.12,0,0,1,.17,0,.12.12,0,0,1,0,.17L41,34.93A.13.13,0,0,1,40.9,35Z"/><path class="cls-5" d="M41.35,28.74a.11.11,0,0,1-.11-.07l-1.43-3a.13.13,0,0,1,.23-.1l1.42,3a.12.12,0,0,1-.06.17Z"/><path class="cls-5" d="M43,28.74a.12.12,0,0,1-.11-.07L41.7,26.31a.12.12,0,0,1,.06-.17.12.12,0,0,1,.16.06l1.16,2.36a.13.13,0,0,1,0,.17Z"/><path class="cls-5" d="M44.57,28.74a.13.13,0,0,1-.12-.07l-.84-1.74a.13.13,0,0,1,.06-.17.12.12,0,0,1,.16.06l.85,1.74a.13.13,0,0,1-.06.17Z"/><path class="cls-5" d="M46.21,28.74a.11.11,0,0,1-.11-.07l-.52-1.1a.12.12,0,0,1,.22-.1l.52,1.1a.11.11,0,0,1-.06.16Z"/><path class="cls-5" d="M43.55,28.74a.13.13,0,0,1-.1,0,.14.14,0,0,1,0-.18L45,27.23a.13.13,0,0,1,.18,0,.12.12,0,0,1,0,.17l-1.55,1.3Z"/><path class="cls-5" d="M41.81,28.74h-.06a.14.14,0,0,1,0-.18l1.21-2a.12.12,0,0,1,.21.13l-1.2,2A.14.14,0,0,1,41.81,28.74Z"/><path class="cls-5" d="M39.84,28.74h-.05a.12.12,0,0,1-.06-.17L41.06,26a.12.12,0,1,1,.22.11L40,28.68A.11.11,0,0,1,39.84,28.74Z"/><path class="cls-5" d="M40.62,22.9,39.41,21a.13.13,0,0,1,0-.18.13.13,0,0,1,.17,0l1,1.64,1.64-1.66a.13.13,0,1,1,.18.18Z"/><path class="cls-5" d="M42.44,22.89l-1.76-2.61-1,.56a.12.12,0,0,1-.17-.05.13.13,0,0,1,0-.17L40.76,20l1.73,2.56,1.15-1a.12.12,0,0,1,.18,0,.12.12,0,0,1,0,.17Z"/><path class="cls-5" d="M44.35,23.36h-.63a.13.13,0,0,1,0-.26h.63a.13.13,0,1,1,0,.26Z"/><path class="cls-5" d="M44.35,23.78h-.63a.12.12,0,0,1-.12-.13.12.12,0,0,1,.12-.12h.63a.13.13,0,0,1,.13.12A.13.13,0,0,1,44.35,23.78Z"/><path class="cls-5" d="M44.35,24.2h-.63a.12.12,0,0,1-.12-.12.12.12,0,0,1,.12-.13h.63a.13.13,0,0,1,.13.13A.12.12,0,0,1,44.35,24.2Z"/><path class="cls-5" d="M44.35,24.63h-.63a.12.12,0,0,1-.12-.13.12.12,0,0,1,.12-.12h.63a.12.12,0,0,1,.13.12A.13.13,0,0,1,44.35,24.63Z"/><path class="cls-5" d="M44.35,25.05h-.63a.12.12,0,0,1-.12-.12.12.12,0,0,1,.12-.13h.63a.13.13,0,0,1,.13.13A.12.12,0,0,1,44.35,25.05Z"/><path class="cls-5" d="M43.11,23.36h-.63a.13.13,0,0,1,0-.26h.63a.13.13,0,0,1,0,.26Z"/><path class="cls-5" d="M43.11,23.78h-.63a.13.13,0,0,1-.13-.13.13.13,0,0,1,.13-.12h.63a.12.12,0,0,1,.12.12A.12.12,0,0,1,43.11,23.78Z"/><path class="cls-5" d="M43.11,24.2h-.63a.12.12,0,0,1-.13-.12.13.13,0,0,1,.13-.13h.63a.12.12,0,0,1,.12.13A.12.12,0,0,1,43.11,24.2Z"/><path class="cls-5" d="M43.11,24.63h-.63a.13.13,0,0,1-.13-.13.12.12,0,0,1,.13-.12h.63a.12.12,0,0,1,.12.12A.12.12,0,0,1,43.11,24.63Z"/><path class="cls-5" d="M43.11,25.05h-.63a.12.12,0,0,1-.13-.12.13.13,0,0,1,.13-.13h.63a.12.12,0,0,1,.12.13A.12.12,0,0,1,43.11,25.05Z"/><path class="cls-5" d="M42.79,25.32a.09.09,0,0,1-.08-.09V22.75a.09.09,0,0,1,.08-.08.09.09,0,0,1,.09.08v2.48A.09.09,0,0,1,42.79,25.32Z"/><path class="cls-5" d="M44,25.32a.09.09,0,0,1-.09-.09V22.75a.09.09,0,0,1,.09-.08.09.09,0,0,1,.08.08v2.48A.09.09,0,0,1,44,25.32Z"/><path class="cls-5" d="M46.55,29.22h-.63a.12.12,0,0,1-.12-.13.12.12,0,0,1,.12-.12h.63a.12.12,0,0,1,.12.12A.12.12,0,0,1,46.55,29.22Z"/><path class="cls-5" d="M46.55,29.64h-.63a.12.12,0,0,1-.12-.12.12.12,0,0,1,.12-.13h.63a.12.12,0,0,1,.12.13A.12.12,0,0,1,46.55,29.64Z"/><path class="cls-5" d="M46.55,30.07h-.63a.12.12,0,0,1-.12-.13.12.12,0,0,1,.12-.12h.63a.12.12,0,0,1,.12.12A.12.12,0,0,1,46.55,30.07Z"/><path class="cls-5" d="M46.55,30.49h-.63a.12.12,0,0,1-.12-.12.12.12,0,0,1,.12-.13h.63a.12.12,0,0,1,.12.13A.12.12,0,0,1,46.55,30.49Z"/><path class="cls-5" d="M46.55,30.92h-.63a.12.12,0,0,1-.12-.13.12.12,0,0,1,.12-.12h.63a.12.12,0,0,1,.12.12A.12.12,0,0,1,46.55,30.92Z"/><path class="cls-5" d="M45.31,29.22h-.63a.13.13,0,0,1-.13-.13.12.12,0,0,1,.13-.12h.63a.12.12,0,0,1,.12.12A.12.12,0,0,1,45.31,29.22Z"/><path class="cls-5" d="M45.31,29.64h-.63a.12.12,0,0,1-.13-.12.13.13,0,0,1,.13-.13h.63a.12.12,0,0,1,.12.13A.12.12,0,0,1,45.31,29.64Z"/><path class="cls-5" d="M45.31,30.07h-.63a.13.13,0,0,1-.13-.13.12.12,0,0,1,.13-.12h.63a.12.12,0,0,1,.12.12A.12.12,0,0,1,45.31,30.07Z"/><path class="cls-5" d="M45.31,30.49h-.63a.12.12,0,0,1-.13-.12.13.13,0,0,1,.13-.13h.63a.12.12,0,0,1,.12.13A.12.12,0,0,1,45.31,30.49Z"/><path class="cls-5" d="M45.31,30.92h-.63a.13.13,0,0,1-.13-.13.12.12,0,0,1,.13-.12h.63a.12.12,0,0,1,.12.12A.12.12,0,0,1,45.31,30.92Z"/><path class="cls-5" d="M45,31.18a.09.09,0,0,1-.08-.08V28.62a.08.08,0,0,1,.08-.08.08.08,0,0,1,.09.08V31.1A.09.09,0,0,1,45,31.18Z"/><path class="cls-5" d="M46.24,31.18a.09.09,0,0,1-.09-.08V28.62a.08.08,0,0,1,.09-.08.08.08,0,0,1,.08.08V31.1A.09.09,0,0,1,46.24,31.18Z"/><path class="cls-5" d="M43.83,35.47H43.2a.12.12,0,0,1-.12-.12.12.12,0,0,1,.12-.13h.63a.13.13,0,0,1,.13.13A.12.12,0,0,1,43.83,35.47Z"/><path class="cls-5" d="M43.83,35.9H43.2a.12.12,0,0,1-.12-.13.12.12,0,0,1,.12-.12h.63a.12.12,0,0,1,.13.12A.13.13,0,0,1,43.83,35.9Z"/><path class="cls-5" d="M43.83,36.32H43.2a.12.12,0,0,1-.12-.12.12.12,0,0,1,.12-.13h.63a.13.13,0,0,1,.13.13A.13.13,0,0,1,43.83,36.32Z"/><path class="cls-5" d="M43.83,36.75H43.2a.13.13,0,0,1,0-.26h.63a.13.13,0,0,1,0,.26Z"/><path class="cls-5" d="M43.83,37.17H43.2a.12.12,0,0,1-.12-.13.12.12,0,0,1,.12-.12h.63A.13.13,0,0,1,44,37,.13.13,0,0,1,43.83,37.17Z"/><path class="cls-5" d="M42.59,35.47H42a.12.12,0,0,1-.12-.12.12.12,0,0,1,.12-.13h.63a.12.12,0,0,1,.12.13A.12.12,0,0,1,42.59,35.47Z"/><path class="cls-5" d="M42.59,35.9H42a.12.12,0,0,1-.12-.13.12.12,0,0,1,.12-.12h.63a.12.12,0,0,1,.12.12A.12.12,0,0,1,42.59,35.9Z"/><path class="cls-5" d="M42.59,36.32H42a.12.12,0,0,1-.12-.12.12.12,0,0,1,.12-.13h.63a.12.12,0,0,1,.12.13A.12.12,0,0,1,42.59,36.32Z"/><path class="cls-5" d="M42.59,36.75H42a.13.13,0,0,1,0-.26h.63a.13.13,0,0,1,0,.26Z"/><path class="cls-5" d="M42.59,37.17H42a.12.12,0,0,1-.12-.13.12.12,0,0,1,.12-.12h.63a.12.12,0,0,1,.12.12A.12.12,0,0,1,42.59,37.17Z"/><path class="cls-5" d="M42.27,37.43a.08.08,0,0,1-.08-.08V34.87a.09.09,0,0,1,.08-.08.09.09,0,0,1,.09.08v2.48A.08.08,0,0,1,42.27,37.43Z"/><path class="cls-5" d="M43.52,37.43a.08.08,0,0,1-.09-.08V34.87a.09.09,0,0,1,.09-.08.09.09,0,0,1,.08.08v2.48A.08.08,0,0,1,43.52,37.43Z"/><path class="cls-5" d="M27.3,69h0a.16.16,0,0,1-.12-.2l7.49-32.67V18L37,12.86a.16.16,0,0,1,.22-.08.16.16,0,0,1,.08.22L35,18.07V36.15l-7.5,32.69A.16.16,0,0,1,27.3,69Z"/><path class="cls-5" d="M34.79,22.87H29.85V21.78l4.87-2.38a.17.17,0,0,1,.22.08.16.16,0,0,1-.07.22L30.18,22v.54h4.61a.17.17,0,0,1,0,.34Z"/><path class="cls-5" d="M34.79,28.79H27.13v-.94l7.61-2.48a.16.16,0,0,1,.21.1.17.17,0,0,1-.1.21l-7.38,2.41v.36h7.32a.17.17,0,0,1,0,.34Z"/><path class="cls-5" d="M34.79,35H30.15V34l4.57-2.22a.17.17,0,0,1,.22.08.16.16,0,0,1-.07.22l-4.39,2.13v.49h4.31a.16.16,0,0,1,.17.16A.16.16,0,0,1,34.79,35Z"/><path class="cls-5" d="M37.18,35.46H34.5L37,32.87l-2.4-2.49L37,28.26,34.6,26,37,24.16,34.58,21.8l2.33-1.16L34.5,19.28l2.37-.89-2-1L37,16l-.9-.8a.13.13,0,0,1,0-.18.14.14,0,0,1,.18,0l1.16,1-2,1.28,2.13,1.08-2.4.9,2.36,1.33L35,21.87l2.36,2.32L35,26l2.38,2.29L35,30.39l2.39,2.48-2.27,2.34h2.09a.12.12,0,0,1,.13.12A.13.13,0,0,1,37.18,35.46Z"/><path class="cls-5" d="M27.39,68.54a.14.14,0,0,1-.12-.09.13.13,0,0,1,.08-.16l9.52-3-8-4.56L37,57.29l-6.1-5.08,6.09-2.32-4.62-4,4.63-2-3.44-3.05L37,38.66,34.7,36.2a.13.13,0,1,1,.19-.17l2.49,2.69L33.94,40.8l3.47,3.08-4.63,2,4.64,4-6.08,2.32,6.08,5.07-8,3.4,8.06,4.6L27.43,68.53Z"/><path class="cls-5" d="M32.29,35a.11.11,0,0,1-.08,0,.12.12,0,0,1,0-.17l2.05-2.71a.12.12,0,0,1,.17,0,.13.13,0,0,1,0,.18l-2,2.71A.16.16,0,0,1,32.29,35Z"/><path class="cls-5" d="M30.88,35l-.07,0a.14.14,0,0,1,0-.18l1-1.53a.13.13,0,0,1,.17,0,.12.12,0,0,1,0,.17l-1,1.53A.14.14,0,0,1,30.88,35Z"/><path class="cls-5" d="M33.87,35l-.07,0a.13.13,0,0,1,0-.17l1-1.54a.14.14,0,0,1,.18,0,.12.12,0,0,1,0,.17l-1,1.53A.14.14,0,0,1,33.87,35Z"/><path class="cls-5" d="M33.46,35a.11.11,0,0,1-.1-.06l-1.09-1.76a.13.13,0,0,1,0-.17.13.13,0,0,1,.18,0l1.08,1.76a.12.12,0,0,1,0,.17Z"/><path class="cls-5" d="M33,28.74H33a.13.13,0,0,1-.06-.17l1.43-3a.12.12,0,1,1,.22.1l-1.42,3A.12.12,0,0,1,33,28.74Z"/><path class="cls-5" d="M31.39,28.74h-.05a.13.13,0,0,1-.06-.17l1.16-2.36a.13.13,0,1,1,.23.11l-1.16,2.36A.13.13,0,0,1,31.39,28.74Z"/><path class="cls-5" d="M29.8,28.74h-.06a.13.13,0,0,1,0-.17l.84-1.74a.13.13,0,1,1,.23.11l-.85,1.74A.12.12,0,0,1,29.8,28.74Z"/><path class="cls-5" d="M28.16,28.74H28.1a.12.12,0,0,1-.06-.16l.52-1.1a.12.12,0,0,1,.17-.06.12.12,0,0,1,.06.16l-.52,1.1A.12.12,0,0,1,28.16,28.74Z"/><path class="cls-5" d="M30.82,28.74l-.08,0-1.56-1.3a.12.12,0,0,1,.16-.19l1.56,1.29a.13.13,0,0,1,0,.18A.11.11,0,0,1,30.82,28.74Z"/><path class="cls-5" d="M32.55,28.74a.11.11,0,0,1-.1-.06l-1.21-2a.14.14,0,0,1,0-.17.13.13,0,0,1,.18,0l1.2,2a.13.13,0,0,1,0,.18Z"/><path class="cls-5" d="M34.52,28.74a.13.13,0,0,1-.11-.06L33.08,26.1a.13.13,0,1,1,.23-.11l1.32,2.57a.12.12,0,0,1-.05.17Z"/><path class="cls-5" d="M33.75,22.9,31.88,21a.14.14,0,0,1,0-.18.11.11,0,0,1,.17,0l1.65,1.66,1-1.64a.14.14,0,0,1,.18,0A.14.14,0,0,1,35,21Z"/><path class="cls-5" d="M31.93,22.89l-1.37-1.22a.12.12,0,0,1,0-.17.12.12,0,0,1,.18,0l1.15,1L33.61,20l1.24.67a.12.12,0,0,1,0,.17.12.12,0,0,1-.17.05l-1-.56Z"/><path class="cls-5" d="M30.64,23.36H30a.13.13,0,0,1,0-.26h.62a.13.13,0,0,1,0,.26Z"/><path class="cls-5" d="M30.64,23.78H30a.13.13,0,0,1-.13-.13.13.13,0,0,1,.13-.12h.62a.13.13,0,0,1,.13.12A.13.13,0,0,1,30.64,23.78Z"/><path class="cls-5" d="M30.64,24.2H30a.12.12,0,0,1-.13-.12A.13.13,0,0,1,30,24h.62a.13.13,0,0,1,.13.13A.12.12,0,0,1,30.64,24.2Z"/><path class="cls-5" d="M30.64,24.63H30a.13.13,0,0,1-.13-.13.12.12,0,0,1,.13-.12h.62a.12.12,0,0,1,.13.12A.13.13,0,0,1,30.64,24.63Z"/><path class="cls-5" d="M30.64,25.05H30a.12.12,0,0,1-.13-.12A.13.13,0,0,1,30,24.8h.62a.13.13,0,0,1,.13.13A.12.12,0,0,1,30.64,25.05Z"/><path class="cls-5" d="M31.89,23.36h-.63a.13.13,0,1,1,0-.26h.63a.13.13,0,0,1,0,.26Z"/><path class="cls-5" d="M31.89,23.78h-.63a.13.13,0,0,1-.13-.13.13.13,0,0,1,.13-.12h.63a.13.13,0,0,1,.12.12A.13.13,0,0,1,31.89,23.78Z"/><path class="cls-5" d="M31.89,24.2h-.63a.12.12,0,0,1-.13-.12.13.13,0,0,1,.13-.13h.63a.13.13,0,0,1,.12.13A.12.12,0,0,1,31.89,24.2Z"/><path class="cls-5" d="M31.89,24.63h-.63a.13.13,0,0,1-.13-.13.12.12,0,0,1,.13-.12h.63a.12.12,0,0,1,.12.12A.13.13,0,0,1,31.89,24.63Z"/><path class="cls-5" d="M31.89,25.05h-.63a.12.12,0,0,1-.13-.12.13.13,0,0,1,.13-.13h.63a.13.13,0,0,1,.12.13A.12.12,0,0,1,31.89,25.05Z"/><path class="cls-5" d="M31.57,25.32a.09.09,0,0,1-.08-.09V22.75a.09.09,0,0,1,.08-.08.09.09,0,0,1,.09.08v2.48A.09.09,0,0,1,31.57,25.32Z"/><path class="cls-5" d="M30.33,25.32a.08.08,0,0,1-.08-.09V22.75a.08.08,0,0,1,.16,0v2.48A.08.08,0,0,1,30.33,25.32Z"/><path class="cls-5" d="M28.44,29.22h-.62a.13.13,0,0,1-.13-.13.12.12,0,0,1,.13-.12h.62a.12.12,0,0,1,.13.12A.13.13,0,0,1,28.44,29.22Z"/><path class="cls-5" d="M28.44,29.64h-.62a.12.12,0,0,1-.13-.12.13.13,0,0,1,.13-.13h.62a.13.13,0,0,1,.13.13A.12.12,0,0,1,28.44,29.64Z"/><path class="cls-5" d="M28.44,30.07h-.62a.13.13,0,0,1-.13-.13.12.12,0,0,1,.13-.12h.62a.12.12,0,0,1,.13.12A.13.13,0,0,1,28.44,30.07Z"/><path class="cls-5" d="M28.44,30.49h-.62a.12.12,0,0,1-.13-.12.13.13,0,0,1,.13-.13h.62a.13.13,0,0,1,.13.13A.12.12,0,0,1,28.44,30.49Z"/><path class="cls-5" d="M28.44,30.92h-.62a.13.13,0,0,1-.13-.13.12.12,0,0,1,.13-.12h.62a.12.12,0,0,1,.13.12A.13.13,0,0,1,28.44,30.92Z"/><path class="cls-5" d="M29.69,29.22h-.63a.13.13,0,0,1-.13-.13.12.12,0,0,1,.13-.12h.63a.12.12,0,0,1,.12.12A.12.12,0,0,1,29.69,29.22Z"/><path class="cls-5" d="M29.69,29.64h-.63a.12.12,0,0,1-.13-.12.13.13,0,0,1,.13-.13h.63a.12.12,0,0,1,.12.13A.12.12,0,0,1,29.69,29.64Z"/><path class="cls-5" d="M29.69,30.07h-.63a.13.13,0,0,1-.13-.13.12.12,0,0,1,.13-.12h.63a.12.12,0,0,1,.12.12A.12.12,0,0,1,29.69,30.07Z"/><path class="cls-5" d="M29.69,30.49h-.63a.12.12,0,0,1-.13-.12.13.13,0,0,1,.13-.13h.63a.12.12,0,0,1,.12.13A.12.12,0,0,1,29.69,30.49Z"/><path class="cls-5" d="M29.69,30.92h-.63a.13.13,0,0,1-.13-.13.12.12,0,0,1,.13-.12h.63a.12.12,0,0,1,.12.12A.12.12,0,0,1,29.69,30.92Z"/><path class="cls-5" d="M29.37,31.18a.09.09,0,0,1-.08-.08V28.62a.08.08,0,0,1,.08-.08.08.08,0,0,1,.09.08V31.1A.09.09,0,0,1,29.37,31.18Z"/><path class="cls-5" d="M28.13,31.18a.08.08,0,0,1-.08-.08V28.62a.08.08,0,1,1,.16,0V31.1A.08.08,0,0,1,28.13,31.18Z"/><path class="cls-5" d="M31.16,35.47h-.63a.12.12,0,0,1-.12-.12.13.13,0,0,1,.12-.13h.63a.13.13,0,0,1,.13.13A.12.12,0,0,1,31.16,35.47Z"/><path class="cls-5" d="M31.16,35.9h-.63a.13.13,0,0,1-.12-.13.12.12,0,0,1,.12-.12h.63a.12.12,0,0,1,.13.12A.13.13,0,0,1,31.16,35.9Z"/><path class="cls-5" d="M31.16,36.32h-.63a.13.13,0,0,1-.12-.12.13.13,0,0,1,.12-.13h.63a.13.13,0,0,1,.13.13A.13.13,0,0,1,31.16,36.32Z"/><path class="cls-5" d="M31.16,36.75h-.63a.13.13,0,0,1,0-.26h.63a.13.13,0,0,1,0,.26Z"/><path class="cls-5" d="M31.16,37.17h-.63a.13.13,0,0,1-.12-.13.13.13,0,0,1,.12-.12h.63a.13.13,0,0,1,.13.12A.13.13,0,0,1,31.16,37.17Z"/><path class="cls-5" d="M32.4,35.47h-.62a.12.12,0,0,1-.13-.12.13.13,0,0,1,.13-.13h.62a.13.13,0,0,1,.13.13A.12.12,0,0,1,32.4,35.47Z"/><path class="cls-5" d="M32.4,35.9h-.62a.13.13,0,0,1-.13-.13.12.12,0,0,1,.13-.12h.62a.12.12,0,0,1,.13.12A.13.13,0,0,1,32.4,35.9Z"/><path class="cls-5" d="M32.4,36.32h-.62a.13.13,0,0,1-.13-.12.13.13,0,0,1,.13-.13h.62a.13.13,0,0,1,.13.13A.13.13,0,0,1,32.4,36.32Z"/><path class="cls-5" d="M32.4,36.75h-.62a.13.13,0,1,1,0-.26h.62a.13.13,0,0,1,0,.26Z"/><path class="cls-5" d="M32.4,37.17h-.62a.13.13,0,0,1-.13-.13.13.13,0,0,1,.13-.12h.62a.13.13,0,0,1,.13.12A.13.13,0,0,1,32.4,37.17Z"/><path class="cls-5" d="M32.09,37.43a.07.07,0,0,1-.08-.08V34.87a.08.08,0,0,1,.16,0v2.48A.07.07,0,0,1,32.09,37.43Z"/><path class="cls-5" d="M30.85,37.43a.07.07,0,0,1-.08-.08V34.87a.08.08,0,0,1,.16,0v2.48A.07.07,0,0,1,30.85,37.43Z"/><path class="cls-6" d="M69.26,57a.08.08,0,0,1-.08-.06L65.34,40.13V30.87l-1.22-2.6a.09.09,0,0,1,0-.12.08.08,0,0,1,.11,0l1.24,2.64v9.28l3.84,16.75a.08.08,0,0,1-.07.1Z"/><path class="cls-6" d="M68,33.33H65.42a.09.09,0,0,1-.08-.09.08.08,0,0,1,.08-.08h2.37v-.28L65.38,31.7a.07.07,0,0,1,0-.11.08.08,0,0,1,.11,0L68,32.77Z"/><path class="cls-6" d="M69.35,36.36H65.42a.09.09,0,0,1-.08-.08.09.09,0,0,1,.08-.09h3.76V36L65.4,34.77a.09.09,0,0,1-.06-.11.09.09,0,0,1,.11,0l3.9,1.27Z"/><path class="cls-6" d="M67.8,39.56H65.42a.08.08,0,0,1-.08-.08.09.09,0,0,1,.08-.09h2.21v-.25l-2.24-1.09a.07.07,0,0,1,0-.11.08.08,0,0,1,.11,0L67.8,39Z"/><path class="cls-6" d="M65.57,39.78H64.2a.07.07,0,0,1-.07-.06.07.07,0,0,1,.07-.07h1.07l-1.16-1.2,1.22-1.27L64.1,36.1l1.22-1.18L64.1,34l1.21-1.19-1.25-.62,1.21-.68L64,31.05l1.09-.55-1-.66.6-.53a.06.06,0,0,1,.09,0,.06.06,0,0,1,0,.09l-.47.41,1.09.69-1,.52,1.21.46-1.24.7,1.2.59L64.3,34l1.22.92-1.23,1.18,1.23,1.09-1.23,1.27Z"/><path class="cls-6" d="M69.22,56.74h0L64,55.11l4.13-2.35L64.08,51l3.11-2.6-3.12-1.18,2.38-2.08-2.37-1,1.78-1.58L64.1,41.45l1.28-1.38a.06.06,0,1,1,.09.09L64.3,41.43l1.78,1.07-1.77,1.56,2.38,1-2.37,2.07,3.12,1.19L64.32,51l4.14,1.76-4.1,2.34,4.88,1.54a.07.07,0,0,1,0,.08A.05.05,0,0,1,69.22,56.74Z"/><path class="cls-6" d="M66.71,39.54l0,0-1-1.39a.06.06,0,0,1,0-.09.06.06,0,0,1,.09,0l1.05,1.39a.06.06,0,0,1,0,.09Z"/><path class="cls-6" d="M67.43,39.54a.09.09,0,0,1-.06,0l-.52-.78a.07.07,0,0,1,.11-.07l.52.78a.07.07,0,0,1,0,.09Z"/><path class="cls-6" d="M65.9,39.54a.06.06,0,0,1-.06,0l-.5-.78a.07.07,0,1,1,.11-.07l.5.78a.07.07,0,0,1,0,.09Z"/><path class="cls-6" d="M66.1,39.54h0a.07.07,0,0,1,0-.09l.56-.9a.05.05,0,0,1,.08,0,.08.08,0,0,1,0,.09l-.56.9A.06.06,0,0,1,66.1,39.54Z"/><path class="cls-6" d="M66.33,36.34a.05.05,0,0,1,0,0l-.73-1.52a.06.06,0,0,1,0-.09.06.06,0,0,1,.08,0l.73,1.53a.06.06,0,0,1,0,.08Z"/><path class="cls-6" d="M67.17,36.34a.05.05,0,0,1-.06,0l-.6-1.21a.06.06,0,0,1,0-.08.06.06,0,0,1,.09,0l.59,1.21a.05.05,0,0,1,0,.08Z"/><path class="cls-6" d="M68,36.34a.05.05,0,0,1,0,0l-.44-.89a.06.06,0,0,1,0-.08.06.06,0,0,1,.09,0l.43.89a.06.06,0,0,1,0,.08Z"/><path class="cls-6" d="M68.83,36.34a.05.05,0,0,1-.06,0l-.27-.56a.07.07,0,0,1,.12-.06l.26.57a.05.05,0,0,1,0,.08Z"/><path class="cls-6" d="M67.46,36.34l0,0a.06.06,0,0,1,0-.09l.8-.67s.06,0,.09,0a.06.06,0,0,1,0,.09l-.8.67Z"/><path class="cls-6" d="M66.57,36.34h0a.07.07,0,0,1,0-.09l.61-1a.07.07,0,0,1,.11.07l-.61,1A.09.09,0,0,1,66.57,36.34Z"/><path class="cls-6" d="M65.56,36.34h0a.06.06,0,0,1,0-.08l.69-1.32a.06.06,0,0,1,.08,0,.07.07,0,0,1,0,.09l-.68,1.32A.07.07,0,0,1,65.56,36.34Z"/><path class="cls-6" d="M66,33.34l-.62-1a.07.07,0,1,1,.11-.07l.53.84.84-.85a.06.06,0,0,1,.09.09Z"/><path class="cls-6" d="M66.89,33.34,66,32l-.54.29a.06.06,0,0,1-.08,0,.05.05,0,0,1,0-.08l.64-.35.89,1.31.59-.52s.06,0,.09,0a.06.06,0,0,1,0,.09Z"/><path class="cls-6" d="M67.87,33.58h-.32a.07.07,0,0,1-.06-.07.06.06,0,0,1,.06-.06h.32a.07.07,0,0,1,.07.06A.07.07,0,0,1,67.87,33.58Z"/><path class="cls-6" d="M67.87,33.79h-.32a.06.06,0,1,1,0-.12h.32s.07,0,.07.06S67.91,33.79,67.87,33.79Z"/><path class="cls-6" d="M67.87,34h-.32a.06.06,0,0,1-.06-.06.07.07,0,0,1,.06-.07h.32a.07.07,0,0,1,.07.07A.07.07,0,0,1,67.87,34Z"/><path class="cls-6" d="M67.87,34.23h-.32a.06.06,0,0,1-.06-.06.07.07,0,0,1,.06-.07h.32a.07.07,0,0,1,.07.07A.07.07,0,0,1,67.87,34.23Z"/><path class="cls-6" d="M67.87,34.45h-.32a.07.07,0,0,1-.06-.07.06.06,0,0,1,.06-.06h.32a.07.07,0,0,1,.07.06A.07.07,0,0,1,67.87,34.45Z"/><path class="cls-6" d="M67.24,33.58h-.33a.07.07,0,0,1-.06-.07.06.06,0,0,1,.06-.06h.33a.06.06,0,0,1,.06.06A.07.07,0,0,1,67.24,33.58Z"/><path class="cls-6" d="M67.24,33.79h-.33a.06.06,0,1,1,0-.12h.33a.06.06,0,1,1,0,.12Z"/><path class="cls-6" d="M67.24,34h-.33a.06.06,0,0,1-.06-.06.07.07,0,0,1,.06-.07h.33a.07.07,0,0,1,.06.07A.06.06,0,0,1,67.24,34Z"/><path class="cls-6" d="M67.24,34.23h-.33a.06.06,0,0,1-.06-.06.07.07,0,0,1,.06-.07h.33a.07.07,0,0,1,.06.07A.06.06,0,0,1,67.24,34.23Z"/><path class="cls-6" d="M67.24,34.45h-.33a.07.07,0,0,1-.06-.07.06.06,0,0,1,.06-.06h.33a.06.06,0,0,1,.06.06A.07.07,0,0,1,67.24,34.45Z"/><path class="cls-6" d="M67.07,34.58a0,0,0,0,1,0,0V33.27a0,0,0,0,1,0,0,0,0,0,0,1,.05,0v1.27A0,0,0,0,1,67.07,34.58Z"/><path class="cls-6" d="M67.71,34.58a0,0,0,0,1,0,0V33.27a0,0,0,0,1,0,0,0,0,0,0,1,0,0v1.27A0,0,0,0,1,67.71,34.58Z"/><path class="cls-6" d="M69,36.58h-.32s-.07,0-.07-.06,0-.06.07-.06H69a.06.06,0,1,1,0,.12Z"/><path class="cls-6" d="M69,36.8h-.32a.07.07,0,0,1-.07-.06.07.07,0,0,1,.07-.07H69s.06,0,.06.07A.06.06,0,0,1,69,36.8Z"/><path class="cls-6" d="M69,37h-.32a.07.07,0,0,1-.07-.07.07.07,0,0,1,.07-.06H69a.06.06,0,0,1,.06.06S69,37,69,37Z"/><path class="cls-6" d="M69,37.24h-.32a.07.07,0,0,1-.07-.07.07.07,0,0,1,.07-.06H69a.06.06,0,0,1,.06.06S69,37.24,69,37.24Z"/><path class="cls-6" d="M69,37.45h-.32s-.07,0-.07-.06,0-.06.07-.06H69a.06.06,0,0,1,0,.12Z"/><path class="cls-6" d="M68.36,36.58H68a.06.06,0,0,1,0-.12h.32s.07,0,.07.06S68.4,36.58,68.36,36.58Z"/><path class="cls-6" d="M68.36,36.8H68a.06.06,0,0,1-.06-.06.07.07,0,0,1,.06-.07h.32a.07.07,0,0,1,.07.07A.07.07,0,0,1,68.36,36.8Z"/><path class="cls-6" d="M68.36,37H68A.07.07,0,0,1,68,37a.06.06,0,0,1,.06-.06h.32a.07.07,0,0,1,.07.06A.07.07,0,0,1,68.36,37Z"/><path class="cls-6" d="M68.36,37.24H68a.07.07,0,0,1-.06-.07.06.06,0,0,1,.06-.06h.32a.07.07,0,0,1,.07.06A.07.07,0,0,1,68.36,37.24Z"/><path class="cls-6" d="M68.36,37.45H68a.06.06,0,0,1,0-.12h.32s.07,0,.07.06S68.4,37.45,68.36,37.45Z"/><path class="cls-6" d="M68.2,37.59a0,0,0,0,1,0,0V36.28a0,0,0,0,1,0-.05,0,0,0,0,1,0,.05v1.27A0,0,0,0,1,68.2,37.59Z"/><path class="cls-6" d="M68.84,37.59a0,0,0,0,1,0,0V36.28a0,0,0,1,1,.08,0v1.27A0,0,0,0,1,68.84,37.59Z"/><path class="cls-6" d="M67.61,39.79h-.33a.06.06,0,0,1-.06-.06.07.07,0,0,1,.06-.07h.33a.07.07,0,0,1,.06.07A.06.06,0,0,1,67.61,39.79Z"/><path class="cls-6" d="M67.61,40h-.33a.07.07,0,0,1-.06-.07.06.06,0,0,1,.06-.06h.33a.06.06,0,0,1,.06.06A.07.07,0,0,1,67.61,40Z"/><path class="cls-6" d="M67.61,40.23h-.33a.07.07,0,0,1-.06-.07.06.06,0,0,1,.06-.06h.33a.06.06,0,0,1,.06.06A.07.07,0,0,1,67.61,40.23Z"/><path class="cls-6" d="M67.61,40.44h-.33a.06.06,0,0,1-.06-.06.07.07,0,0,1,.06-.07h.33a.07.07,0,0,1,.06.07A.06.06,0,0,1,67.61,40.44Z"/><path class="cls-6" d="M67.61,40.66h-.33a.06.06,0,0,1-.06-.06.07.07,0,0,1,.06-.07h.33a.07.07,0,0,1,.06.07A.06.06,0,0,1,67.61,40.66Z"/><path class="cls-6" d="M67,39.79h-.32a.07.07,0,0,1-.07-.06.07.07,0,0,1,.07-.07H67a.07.07,0,0,1,.06.07A.06.06,0,0,1,67,39.79Z"/><path class="cls-6" d="M67,40h-.32a.07.07,0,0,1-.07-.07.07.07,0,0,1,.07-.06H67a.06.06,0,0,1,.06.06A.07.07,0,0,1,67,40Z"/><path class="cls-6" d="M67,40.23h-.32a.07.07,0,0,1-.07-.07.07.07,0,0,1,.07-.06H67a.06.06,0,0,1,.06.06A.07.07,0,0,1,67,40.23Z"/><path class="cls-6" d="M67,40.44h-.32a.07.07,0,0,1-.07-.06.07.07,0,0,1,.07-.07H67a.07.07,0,0,1,.06.07A.06.06,0,0,1,67,40.44Z"/><path class="cls-6" d="M67,40.66h-.32a.07.07,0,0,1-.07-.06.07.07,0,0,1,.07-.07H67a.07.07,0,0,1,.06.07A.06.06,0,0,1,67,40.66Z"/><path class="cls-6" d="M66.81,40.8s0,0,0,0V39.48a0,0,0,0,1,0,0,0,0,0,0,1,0,0v1.27A0,0,0,0,1,66.81,40.8Z"/><path class="cls-6" d="M67.45,40.8a0,0,0,0,1,0,0V39.48a0,0,0,0,1,0,0,0,0,0,0,1,0,0v1.27A0,0,0,0,1,67.45,40.8Z"/><path class="cls-6" d="M59.13,57h0a.08.08,0,0,1-.06-.1l3.84-16.75v-9.3l1.23-2.62a.09.09,0,1,1,.15.08l-1.21,2.6v9.26h0L59.21,56.9A.08.08,0,0,1,59.13,57Z"/><path class="cls-6" d="M63,33.33H60.44v-.56l2.49-1.22a.09.09,0,0,1,.12,0,.08.08,0,0,1,0,.11l-2.4,1.18v.28H63a.08.08,0,0,1,.09.08A.09.09,0,0,1,63,33.33Z"/><path class="cls-6" d="M63,36.36H59v-.48L63,34.61a.07.07,0,0,1,.1,0,.08.08,0,0,1,0,.11L59.22,36v.19H63a.09.09,0,0,1,.09.09A.09.09,0,0,1,63,36.36Z"/><path class="cls-6" d="M63,39.56H60.59V39l2.34-1.13a.09.09,0,1,1,.08.15l-2.25,1.09v.25H63a.09.09,0,0,1,.09.09A.08.08,0,0,1,63,39.56Z"/><path class="cls-6" d="M64.2,39.78H62.82l1.29-1.33-1.23-1.27,1.22-1.09-1.23-1.18L64.1,34l-1.24-1.21,1.2-.59-1.24-.7L64,31l-1-.52,1.09-.69-.47-.41a.07.07,0,0,1,0-.09.06.06,0,0,1,.09,0l.59.53-1,.66,1.1.55-1.24.46,1.21.68-1.25.62L64.3,34l-1.23.92,1.22,1.18-1.23,1.08,1.23,1.27-1.17,1.2H64.2a.07.07,0,0,1,.06.07A.06.06,0,0,1,64.2,39.78Z"/><path class="cls-6" d="M59.18,56.74a.07.07,0,0,1-.07,0,.07.07,0,0,1,0-.08L64,55.08l-4.11-2.34L64.08,51,61,48.37l3.12-1.19-2.36-2.07,2.37-1L62.32,42.5l1.78-1.07-1.17-1.27a.06.06,0,0,1,0-.09.07.07,0,0,1,.09,0l1.28,1.38-1.77,1.07,1.78,1.58-2.37,1,2.38,2.08L61.2,48.41,64.32,51l-4.1,1.75,4.14,2.35L59.2,56.74Z"/><path class="cls-6" d="M61.69,39.54h0a.06.06,0,0,1,0-.09l1-1.39a.06.06,0,0,1,.09,0,.07.07,0,0,1,0,.09l-1,1.39Z"/><path class="cls-6" d="M61,39.54h0a.07.07,0,0,1,0-.09l.53-.78a.07.07,0,0,1,.09,0,.06.06,0,0,1,0,.09l-.52.78A.05.05,0,0,1,61,39.54Z"/><path class="cls-6" d="M62.5,39.54h0a.06.06,0,0,1,0-.09l.5-.78a.05.05,0,0,1,.08,0,.07.07,0,0,1,0,.09l-.5.78A.05.05,0,0,1,62.5,39.54Z"/><path class="cls-6" d="M62.29,39.54a.05.05,0,0,1,0,0l-.56-.9a.07.07,0,0,1,.11-.07l.55.9a.07.07,0,0,1,0,.09Z"/><path class="cls-6" d="M62.06,36.34h0a.06.06,0,0,1,0-.08l.73-1.53a.08.08,0,0,1,.09,0,.08.08,0,0,1,0,.09l-.73,1.52A.06.06,0,0,1,62.06,36.34Z"/><path class="cls-6" d="M61.23,36.34h0a.06.06,0,0,1,0-.08l.6-1.21a.05.05,0,0,1,.08,0,.06.06,0,0,1,0,.08l-.59,1.21A.06.06,0,0,1,61.23,36.34Z"/><path class="cls-6" d="M60.41,36.34h0a.06.06,0,0,1,0-.08l.44-.89a.05.05,0,0,1,.08,0,.06.06,0,0,1,0,.08l-.43.89A.06.06,0,0,1,60.41,36.34Z"/><path class="cls-6" d="M59.57,36.34h0a.06.06,0,0,1,0-.08l.27-.57a.06.06,0,0,1,.08,0,.06.06,0,0,1,0,.09l-.26.56A.06.06,0,0,1,59.57,36.34Z"/><path class="cls-6" d="M60.93,36.34h0l-.79-.67a.06.06,0,0,1,0-.09.07.07,0,0,1,.09,0l.79.67a.06.06,0,0,1,0,.09Z"/><path class="cls-6" d="M61.82,36.34a.05.05,0,0,1,0,0l-.62-1a.07.07,0,0,1,.11-.07l.62,1a.07.07,0,0,1,0,.09Z"/><path class="cls-6" d="M62.83,36.34a.05.05,0,0,1,0,0L62.1,35a.06.06,0,0,1,0-.09.07.07,0,0,1,.09,0l.68,1.32a.06.06,0,0,1,0,.08Z"/><path class="cls-6" d="M62.44,33.34l-1-1a.07.07,0,0,1,0-.09.06.06,0,0,1,.09,0l.84.85L63,32.3a.05.05,0,0,1,.08,0,.07.07,0,0,1,0,.09Z"/><path class="cls-6" d="M61.5,33.34l-.7-.63a.06.06,0,0,1,0-.09.07.07,0,0,1,.09,0l.59.52.88-1.31.64.35a.06.06,0,0,1,0,.08.07.07,0,0,1-.09,0L62.41,32Z"/><path class="cls-6" d="M60.84,33.58h-.32a.07.07,0,0,1-.06-.07.06.06,0,0,1,.06-.06h.32a.07.07,0,0,1,.07.06A.07.07,0,0,1,60.84,33.58Z"/><path class="cls-6" d="M60.84,33.79h-.32a.06.06,0,0,1,0-.12h.32s.07,0,.07.06S60.88,33.79,60.84,33.79Z"/><path class="cls-6" d="M60.84,34h-.32a.06.06,0,0,1-.06-.06.07.07,0,0,1,.06-.07h.32a.07.07,0,0,1,.07.07A.07.07,0,0,1,60.84,34Z"/><path class="cls-6" d="M60.84,34.23h-.32a.06.06,0,0,1-.06-.06.07.07,0,0,1,.06-.07h.32a.07.07,0,0,1,.07.07A.07.07,0,0,1,60.84,34.23Z"/><path class="cls-6" d="M60.84,34.45h-.32a.07.07,0,0,1-.06-.07.06.06,0,0,1,.06-.06h.32a.07.07,0,0,1,.07.06A.07.07,0,0,1,60.84,34.45Z"/><path class="cls-6" d="M61.48,33.58h-.32a.07.07,0,0,1-.07-.07.07.07,0,0,1,.07-.06h.32a.07.07,0,0,1,.07.06A.07.07,0,0,1,61.48,33.58Z"/><path class="cls-6" d="M61.48,33.79h-.32s-.07,0-.07-.06,0-.06.07-.06h.32s.07,0,.07.06S61.52,33.79,61.48,33.79Z"/><path class="cls-6" d="M61.48,34h-.32a.07.07,0,0,1-.07-.06.07.07,0,0,1,.07-.07h.32a.07.07,0,0,1,.07.07A.07.07,0,0,1,61.48,34Z"/><path class="cls-6" d="M61.48,34.23h-.32a.07.07,0,0,1-.07-.06.07.07,0,0,1,.07-.07h.32a.07.07,0,0,1,.07.07A.07.07,0,0,1,61.48,34.23Z"/><path class="cls-6" d="M61.48,34.45h-.32a.07.07,0,0,1-.07-.07.07.07,0,0,1,.07-.06h.32a.07.07,0,0,1,.07.06A.07.07,0,0,1,61.48,34.45Z"/><path class="cls-6" d="M61.32,34.58a0,0,0,0,1,0,0V33.27a0,0,0,0,1,.08,0v1.27A0,0,0,0,1,61.32,34.58Z"/><path class="cls-6" d="M60.68,34.58a0,0,0,0,1,0,0V33.27a0,0,0,0,1,0,0,0,0,0,0,1,0,0v1.27A0,0,0,0,1,60.68,34.58Z"/><path class="cls-6" d="M59.72,36.58h-.33a.06.06,0,0,1,0-.12h.33a.06.06,0,1,1,0,.12Z"/><path class="cls-6" d="M59.72,36.8h-.33a.06.06,0,0,1-.06-.06.07.07,0,0,1,.06-.07h.33a.07.07,0,0,1,.06.07A.06.06,0,0,1,59.72,36.8Z"/><path class="cls-6" d="M59.72,37h-.33a.07.07,0,0,1-.06-.07.06.06,0,0,1,.06-.06h.33a.06.06,0,0,1,.06.06A.07.07,0,0,1,59.72,37Z"/><path class="cls-6" d="M59.72,37.24h-.33a.07.07,0,0,1-.06-.07.06.06,0,0,1,.06-.06h.33a.06.06,0,0,1,.06.06A.07.07,0,0,1,59.72,37.24Z"/><path class="cls-6" d="M59.72,37.45h-.33a.06.06,0,0,1,0-.12h.33a.06.06,0,0,1,0,.12Z"/><path class="cls-6" d="M60.35,36.58H60a.06.06,0,0,1,0-.12h.32s.07,0,.07.06S60.39,36.58,60.35,36.58Z"/><path class="cls-6" d="M60.35,36.8H60a.06.06,0,0,1-.06-.06.07.07,0,0,1,.06-.07h.32a.07.07,0,0,1,.07.07A.07.07,0,0,1,60.35,36.8Z"/><path class="cls-6" d="M60.35,37H60A.07.07,0,0,1,60,37a.06.06,0,0,1,.06-.06h.32a.07.07,0,0,1,.07.06A.07.07,0,0,1,60.35,37Z"/><path class="cls-6" d="M60.35,37.24H60a.07.07,0,0,1-.06-.07.06.06,0,0,1,.06-.06h.32a.07.07,0,0,1,.07.06A.07.07,0,0,1,60.35,37.24Z"/><path class="cls-6" d="M60.35,37.45H60a.06.06,0,0,1,0-.12h.32s.07,0,.07.06S60.39,37.45,60.35,37.45Z"/><path class="cls-6" d="M60.19,37.59a0,0,0,0,1,0,0V36.28a0,0,0,0,1,0-.05,0,0,0,0,1,.05.05v1.27A0,0,0,0,1,60.19,37.59Z"/><path class="cls-6" d="M59.56,37.59a0,0,0,0,1-.05,0V36.28a0,0,0,0,1,.05-.05,0,0,0,0,1,0,.05v1.27A0,0,0,0,1,59.56,37.59Z"/><path class="cls-6" d="M61.11,39.79h-.32a.07.07,0,0,1-.07-.06.07.07,0,0,1,.07-.07h.32s.06,0,.06.07A.06.06,0,0,1,61.11,39.79Z"/><path class="cls-6" d="M61.11,40h-.32a.07.07,0,0,1-.07-.07.07.07,0,0,1,.07-.06h.32a.06.06,0,0,1,.06.06S61.15,40,61.11,40Z"/><path class="cls-6" d="M61.11,40.23h-.32a.07.07,0,0,1-.07-.07.07.07,0,0,1,.07-.06h.32a.06.06,0,0,1,.06.06S61.15,40.23,61.11,40.23Z"/><path class="cls-6" d="M61.11,40.44h-.32a.07.07,0,0,1-.07-.06.07.07,0,0,1,.07-.07h.32s.06,0,.06.07A.06.06,0,0,1,61.11,40.44Z"/><path class="cls-6" d="M61.11,40.66h-.32a.07.07,0,0,1-.07-.06.07.07,0,0,1,.07-.07h.32s.06,0,.06.07A.06.06,0,0,1,61.11,40.66Z"/><path class="cls-6" d="M61.75,39.79h-.32a.07.07,0,0,1-.07-.06.07.07,0,0,1,.07-.07h.32a.07.07,0,0,1,.06.07A.06.06,0,0,1,61.75,39.79Z"/><path class="cls-6" d="M61.75,40h-.32a.07.07,0,0,1-.07-.07.07.07,0,0,1,.07-.06h.32a.06.06,0,0,1,.06.06A.07.07,0,0,1,61.75,40Z"/><path class="cls-6" d="M61.75,40.23h-.32a.07.07,0,0,1-.07-.07.07.07,0,0,1,.07-.06h.32a.06.06,0,0,1,.06.06A.07.07,0,0,1,61.75,40.23Z"/><path class="cls-6" d="M61.75,40.44h-.32a.07.07,0,0,1-.07-.06.07.07,0,0,1,.07-.07h.32a.07.07,0,0,1,.06.07A.06.06,0,0,1,61.75,40.44Z"/><path class="cls-6" d="M61.75,40.66h-.32a.07.07,0,0,1-.07-.06.07.07,0,0,1,.07-.07h.32a.07.07,0,0,1,.06.07A.06.06,0,0,1,61.75,40.66Z"/><path class="cls-6" d="M61.59,40.8a0,0,0,0,1-.05,0V39.48a0,0,0,0,1,.05,0,0,0,0,0,1,0,0v1.27A0,0,0,0,1,61.59,40.8Z"/><path class="cls-6" d="M61,40.8a0,0,0,0,1,0,0V39.48a0,0,0,0,1,.08,0v1.27A0,0,0,0,1,61,40.8Z"/><path class="cls-7" d="M81.79,33.06c-7.88,9-14.72,1.52-14.72,1.52-14.36,6-23-9.26-23-9.26"/><path class="cls-7" d="M83,35.12c-6.18,8.79-14.2,2.47-14.2,2.47C51,48,45,31.18,45,31.18S25.08,47.73,5.83,26.41"/><path class="cls-7" d="M82,37.38C76.51,47.54,66.81,40.8,66.81,40.8c-13.69,12.48-23.29-3.37-23.29-3.37s-11.63,16.75-37.44.31"/><path class="cls-7" d="M31.57,25.32S19.21,40.91,2.33,13.78"/></g></svg>