<svg id="Layer_1" data-name="Layer 1" xmlns="http://www.w3.org/2000/svg" viewBox="0 0 120 100"><defs><style>.cls-1,.cls-8{fill:#fff;}.cls-1,.cls-3,.cls-4{stroke:#74af27;}.cls-1{stroke-miterlimit:10;}.cls-2{fill:#74af27;}.cls-11,.cls-3,.cls-4,.cls-5,.cls-7,.cls-9{fill:none;}.cls-11,.cls-3,.cls-4,.cls-9{stroke-linecap:round;stroke-linejoin:round;}.cls-3{stroke-width:0.6px;}.cls-4,.cls-5,.cls-9{stroke-width:0.4px;}.cls-11,.cls-5,.cls-7,.cls-9{stroke:#74af2c;}.cls-5,.cls-7{stroke-linejoin:bevel;}.cls-5,.cls-6,.cls-7{fill-rule:evenodd;}.cls-10,.cls-6{fill:#74af28;}.cls-7{stroke-width:0.3px;}.cls-11{stroke-width:0.2px;}</style></defs><title>EV-Systems_Operations-CanManageUpTo18EVChargingPoints-ControlCentre</title><circle class="cls-1" cx="60" cy="37.74" r="28.35"/><path class="cls-2" d="M15.3,73.85v0a3.17,3.17,0,0,1,3.19-3.25,3.27,3.27,0,0,1,2.46,1l-.49.52a2.71,2.71,0,0,0-2-.87A2.47,2.47,0,0,0,16,73.82h0a2.49,2.49,0,0,0,2.44,2.61,2.79,2.79,0,0,0,2-.91L21,76a3.27,3.27,0,0,1-2.52,1.1A3.14,3.14,0,0,1,15.3,73.85Z"/><path class="cls-2" d="M21.49,75.63h0c0-1,.81-1.51,2-1.51a5.26,5.26,0,0,1,1.44.2v-.16c0-.84-.52-1.27-1.39-1.27a3.33,3.33,0,0,0-1.41.34l-.21-.56a3.76,3.76,0,0,1,1.69-.39,2.07,2.07,0,0,1,1.51.51,1.87,1.87,0,0,1,.47,1.36V77h-.66v-.71a2,2,0,0,1-1.69.8A1.56,1.56,0,0,1,21.49,75.63Zm3.43-.35v-.45a4.91,4.91,0,0,0-1.37-.2c-.88,0-1.36.38-1.36,1v0c0,.58.54.93,1.17.93A1.42,1.42,0,0,0,24.92,75.28Z"/><path class="cls-2" d="M26.78,72.33h.69v.81a1.77,1.77,0,0,1,1.59-.91,1.71,1.71,0,0,1,1.79,1.87V77h-.7V74.27a1.24,1.24,0,0,0-1.28-1.41,1.37,1.37,0,0,0-1.4,1.46V77h-.69Z"/><path class="cls-2" d="M34.6,70.68h.72l2.29,3.44,2.3-3.44h.72V77h-.71V71.88l-2.3,3.38h0l-2.3-3.37V77H34.6Z"/><path class="cls-2" d="M41.67,75.63h0c0-1,.81-1.51,2-1.51a5.12,5.12,0,0,1,1.43.2v-.16c0-.84-.51-1.27-1.38-1.27a3.41,3.41,0,0,0-1.42.34l-.2-.56a3.73,3.73,0,0,1,1.69-.39,2,2,0,0,1,1.5.51,1.83,1.83,0,0,1,.48,1.36V77h-.67v-.71a2,2,0,0,1-1.68.8A1.56,1.56,0,0,1,41.67,75.63Zm3.43-.35v-.45a4.8,4.8,0,0,0-1.37-.2c-.87,0-1.35.38-1.35,1v0c0,.58.53.93,1.16.93A1.41,1.41,0,0,0,45.1,75.28Z"/><path class="cls-2" d="M47,72.33h.7v.81a1.76,1.76,0,0,1,1.59-.91A1.7,1.7,0,0,1,51,74.1V77h-.69V74.27a1.24,1.24,0,0,0-1.29-1.41,1.37,1.37,0,0,0-1.39,1.46V77H47Z"/><path class="cls-2" d="M51.89,75.63h0c0-1,.81-1.51,2-1.51a5.24,5.24,0,0,1,1.43.2v-.16c0-.84-.52-1.27-1.39-1.27a3.33,3.33,0,0,0-1.41.34l-.21-.56A3.76,3.76,0,0,1,54,72.27a2.07,2.07,0,0,1,1.51.51A1.87,1.87,0,0,1,56,74.14V77h-.66v-.71a2,2,0,0,1-1.68.8A1.56,1.56,0,0,1,51.89,75.63Zm3.43-.35v-.45a4.85,4.85,0,0,0-1.37-.2c-.87,0-1.36.38-1.36,1v0c0,.58.54.93,1.17.93A1.41,1.41,0,0,0,55.32,75.28Z"/><path class="cls-2" d="M57.13,77.8l.31-.54a3,3,0,0,0,1.79.59,1.53,1.53,0,0,0,1.69-1.66v-.55a2.2,2.2,0,0,1-1.82,1,2.15,2.15,0,0,1-2.19-2.18v0a2.2,2.2,0,0,1,4-1.26v-.84h.69v3.85a2.21,2.21,0,0,1-.6,1.64,2.4,2.4,0,0,1-1.77.62A3.65,3.65,0,0,1,57.13,77.8Zm3.81-3.36v0a1.64,1.64,0,0,0-1.71-1.58,1.54,1.54,0,0,0-1.61,1.57v0A1.57,1.57,0,0,0,59.23,76,1.64,1.64,0,0,0,60.94,74.44Z"/><path class="cls-2" d="M62.6,74.67v0a2.29,2.29,0,0,1,2.23-2.42A2.22,2.22,0,0,1,67,74.69a1.77,1.77,0,0,1,0,.23H63.3a1.63,1.63,0,0,0,1.64,1.57,1.92,1.92,0,0,0,1.47-.66l.43.39a2.42,2.42,0,0,1-1.92.87A2.31,2.31,0,0,1,62.6,74.67Zm3.7-.27a1.54,1.54,0,0,0-1.49-1.58A1.6,1.6,0,0,0,63.3,74.4Z"/><path class="cls-2" d="M70.39,74.35V70.68h.71V74.3A1.86,1.86,0,0,0,73,76.43c1.16,0,1.9-.7,1.9-2.08V70.68h.71v3.61a2.63,2.63,0,1,1-5.25.06Z"/><path class="cls-2" d="M76.93,72.33h.7v.94a2.08,2.08,0,0,1,1.78-1,2.27,2.27,0,0,1,2.22,2.41v0a2.27,2.27,0,0,1-2.22,2.42,2.07,2.07,0,0,1-1.78-1v2.34h-.7Zm4,2.34v0a1.68,1.68,0,0,0-1.64-1.8,1.74,1.74,0,0,0-1.68,1.79v0a1.73,1.73,0,0,0,1.68,1.8A1.64,1.64,0,0,0,80.92,74.67Z"/><path class="cls-2" d="M86.85,71.34H84.74v-.66h5v.66H87.57V77h-.72Z"/><path class="cls-2" d="M89.2,74.68v0a2.41,2.41,0,0,1,2.43-2.43,2.39,2.39,0,0,1,2.42,2.41v0a2.41,2.41,0,0,1-2.44,2.43A2.38,2.38,0,0,1,89.2,74.68Zm4.14,0v0a1.76,1.76,0,0,0-1.73-1.82,1.72,1.72,0,0,0-1.7,1.8v0a1.75,1.75,0,0,0,1.72,1.81A1.72,1.72,0,0,0,93.34,74.68Z"/><path class="cls-2" d="M98.3,71.38l-1.19.37-.17-.58,1.54-.53H99V77h-.7Z"/><path class="cls-2" d="M100.11,75.29h0a1.7,1.7,0,0,1,1.29-1.55,1.61,1.61,0,0,1-1.08-1.45v0a2.23,2.23,0,0,1,4.31,0v0a1.61,1.61,0,0,1-1.08,1.45,1.71,1.71,0,0,1,1.29,1.54h0c0,1.08-1,1.8-2.36,1.8S100.11,76.35,100.11,75.29Zm4,0v0c0-.71-.73-1.2-1.64-1.2s-1.65.49-1.65,1.2v0c0,.63.61,1.18,1.65,1.18S104.12,75.91,104.12,75.28Zm-.2-3v0c0-.62-.63-1.09-1.44-1.09S101,71.67,101,72.3v0c0,.69.63,1.15,1.44,1.15S103.92,73,103.92,72.32Z"/><path class="cls-2" d="M18.62,81.68h4.55v.65H19.33v2.15h3.44v.65H19.33v2.21h3.89V88h-4.6Z"/><path class="cls-2" d="M23.84,81.68h.79l2.24,5.43,2.25-5.43h.77L27.18,88h-.63Z"/><path class="cls-2" d="M33,84.85v0a3.17,3.17,0,0,1,3.19-3.25,3.25,3.25,0,0,1,2.45,1l-.48.52a2.73,2.73,0,0,0-2-.87,2.47,2.47,0,0,0-2.44,2.59h0a2.49,2.49,0,0,0,2.44,2.61,2.75,2.75,0,0,0,2-.91l.47.46a3.31,3.31,0,0,1-2.52,1.1A3.14,3.14,0,0,1,33,84.85Z"/><path class="cls-2" d="M39.54,81.41h.7v2.73a1.76,1.76,0,0,1,1.59-.91,1.7,1.7,0,0,1,1.78,1.87V88h-.69V85.27a1.24,1.24,0,0,0-1.29-1.41,1.37,1.37,0,0,0-1.39,1.46V88h-.7Z"/><path class="cls-2" d="M44.47,86.63h0c0-1,.81-1.51,2-1.51a5.24,5.24,0,0,1,1.43.2v-.16c0-.84-.52-1.27-1.39-1.27a3.33,3.33,0,0,0-1.41.34l-.21-.56a3.76,3.76,0,0,1,1.69-.39,2.07,2.07,0,0,1,1.51.51,1.87,1.87,0,0,1,.47,1.36V88h-.66v-.71a2,2,0,0,1-1.69.8A1.56,1.56,0,0,1,44.47,86.63Zm3.43-.35v-.45a4.91,4.91,0,0,0-1.37-.2c-.88,0-1.36.38-1.36,1v0c0,.58.54.93,1.17.93A1.42,1.42,0,0,0,47.9,86.28Z"/><path class="cls-2" d="M49.76,83.33h.69v1.22a2,2,0,0,1,1.9-1.3V84H52.3a1.88,1.88,0,0,0-1.85,2.13V88h-.69Z"/><path class="cls-2" d="M52.89,88.8l.32-.54a3,3,0,0,0,1.79.59,1.53,1.53,0,0,0,1.69-1.66v-.55a2.22,2.22,0,0,1-1.83,1,2.16,2.16,0,0,1-2.19-2.18v0a2.2,2.2,0,0,1,4-1.26v-.84h.69v3.85a2.2,2.2,0,0,1-.59,1.64,2.42,2.42,0,0,1-1.77.62A3.66,3.66,0,0,1,52.89,88.8Zm3.82-3.36v0A1.64,1.64,0,0,0,55,83.84a1.55,1.55,0,0,0-1.62,1.57v0A1.57,1.57,0,0,0,55,87,1.64,1.64,0,0,0,56.71,85.44Z"/><path class="cls-2" d="M58.67,81.55h.79v.76h-.79Zm0,1.78h.7V88h-.7Z"/><path class="cls-2" d="M60.75,83.33h.69v.81A1.77,1.77,0,0,1,63,83.23a1.71,1.71,0,0,1,1.79,1.87V88h-.7V85.27a1.24,1.24,0,0,0-1.28-1.41,1.37,1.37,0,0,0-1.4,1.46V88h-.69Z"/><path class="cls-2" d="M66,88.8l.31-.54a3,3,0,0,0,1.79.59,1.54,1.54,0,0,0,1.7-1.66v-.55a2.23,2.23,0,0,1-1.83,1,2.15,2.15,0,0,1-2.19-2.18v0a2.2,2.2,0,0,1,4-1.26v-.84h.69v3.85a2.24,2.24,0,0,1-.59,1.64,2.44,2.44,0,0,1-1.78.62A3.65,3.65,0,0,1,66,88.8Zm3.81-3.36v0a1.63,1.63,0,0,0-1.71-1.58,1.54,1.54,0,0,0-1.61,1.57v0A1.57,1.57,0,0,0,68.07,87,1.63,1.63,0,0,0,69.78,85.44Z"/><path class="cls-2" d="M74.27,81.68h2.36c1.42,0,2.36.76,2.36,2v0c0,1.36-1.13,2.06-2.47,2.06H75V88h-.71Zm2.27,3.43c1,0,1.73-.55,1.73-1.38v0c0-.9-.67-1.37-1.69-1.37H75v2.77Z"/><path class="cls-2" d="M79.57,85.68v0a2.43,2.43,0,0,1,4.85,0v0A2.42,2.42,0,0,1,82,88.09,2.37,2.37,0,0,1,79.57,85.68Zm4.14,0v0A1.76,1.76,0,0,0,82,83.84a1.72,1.72,0,0,0-1.7,1.8v0A1.75,1.75,0,0,0,82,87.47,1.72,1.72,0,0,0,83.71,85.68Z"/><path class="cls-2" d="M85.42,81.55h.79v.76h-.79Zm0,1.78h.69V88h-.69Z"/><path class="cls-2" d="M87.5,83.33h.69v.81a1.76,1.76,0,0,1,1.59-.91,1.7,1.7,0,0,1,1.78,1.87V88h-.69V85.27a1.24,1.24,0,0,0-1.29-1.41,1.37,1.37,0,0,0-1.39,1.46V88H87.5Z"/><path class="cls-2" d="M93,86.75V83.94h-.65v-.61H93v-1.4h.7v1.4h1.47v.61H93.71v2.72a.69.69,0,0,0,.78.78,1.42,1.42,0,0,0,.67-.17v.6a1.79,1.79,0,0,1-.83.2A1.19,1.19,0,0,1,93,86.75Z"/><path class="cls-2" d="M95.75,87.39l.35-.49a2.75,2.75,0,0,0,1.61.59c.56,0,1-.29,1-.74v0c0-.46-.55-.64-1.16-.81S96,85.46,96,84.6v0a1.41,1.41,0,0,1,1.59-1.33,3.24,3.24,0,0,1,1.67.51l-.31.53a2.65,2.65,0,0,0-1.38-.45c-.55,0-.9.28-.9.67v0c0,.44.57.61,1.2.8s1.49.5,1.49,1.33v0a1.47,1.47,0,0,1-1.66,1.4A3.22,3.22,0,0,1,95.75,87.39Z"/><polygon class="cls-3" points="51.78 54.47 40.93 54.47 40.62 55.53 52.09 55.53 51.78 54.47"/><rect class="cls-3" x="41.45" y="25.09" width="9.82" height="29.38"/><path class="cls-3" d="M51.73,25.09H41a.14.14,0,0,1-.14-.15l.07-.78a.14.14,0,0,1,.14-.13H51.66a.14.14,0,0,1,.14.13l.07.78A.15.15,0,0,1,51.73,25.09Z"/><rect class="cls-3" x="42.92" y="25.09" width="6.88" height="29.38"/><rect class="cls-3" x="44.12" y="27.29" width="4.46" height="5.7" rx="0.35"/><path class="cls-3" d="M51.54,24H41.17l.1-2.62v0H51.44v0Z"/><path class="cls-3" d="M51.44,21.38H41.27a.61.61,0,0,1,0-.18l.19-.35a.55.55,0,0,1,.3-.26,12.59,12.59,0,0,1,4.54-.76,12.56,12.56,0,0,1,4.55.76.59.59,0,0,1,.3.26l.19.35A.41.41,0,0,1,51.44,21.38Z"/><path class="cls-3" d="M63.09,22.66l-1.17,32.7a.23.23,0,0,1-.24.23H56.09a.23.23,0,0,1-.24-.23L55,31.49l-.09-2.55-.22-6.28a.23.23,0,0,1,.24-.25h7.93A.23.23,0,0,1,63.09,22.66Z"/><path class="cls-3" d="M61,48.72H56.79a.22.22,0,0,1-.23-.22l-.64-17.75a.23.23,0,0,1,.23-.24h5.47a.23.23,0,0,1,.23.24L61.21,48.5A.22.22,0,0,1,61,48.72Z"/><path class="cls-3" d="M61.24,29.56H56.53a.75.75,0,0,1-.73-.73l-.17-4.7a.75.75,0,0,1,.73-.78l5,0a.75.75,0,0,1,.74.78L62,28.84A.74.74,0,0,1,61.24,29.56Z"/><path class="cls-3" d="M55,31.49a.8.8,0,0,1-.62-.75l0-1a.79.79,0,0,1,.56-.77Z"/><path class="cls-3" d="M62.78,31.49a.79.79,0,0,0,.62-.75l0-1a.76.76,0,0,0-.56-.77Z"/><circle class="cls-4" cx="58.89" cy="31.85" r="0.44"/><path class="cls-5" d="M70.06,50.77v.85c0,.29,0,.59,0,.88s0,.28,0,.41c0,.31,0,.62-.08.93s-.08.58-.13.87a.73.73,0,0,1-.36.51,2,2,0,0,1-.7.25l-.64.1a3.39,3.39,0,0,1-.78,0,5.05,5.05,0,0,1-.88-.15,1.45,1.45,0,0,1-.62-.34.59.59,0,0,1-.16-.3,10.62,10.62,0,0,1-.19-1.24c0-.25,0-.49,0-.73s0-.74-.05-1.12c0-.57,0-1.14,0-1.71l0-.75c0-.3,0-.6.06-.9a10.54,10.54,0,0,1,.22-1.58.68.68,0,0,1,.34-.42,2.22,2.22,0,0,1,.62-.24,6,6,0,0,1,.74-.11h.33a4,4,0,0,1,1,.1,2.27,2.27,0,0,1,.67.21.83.83,0,0,1,.37.32.31.31,0,0,1,.06.13c.07.31.12.63.16,1s0,.52.08.78,0,.25,0,.38l0,.51C70.06,49.82,70.06,50.29,70.06,50.77Z"/><path class="cls-5" d="M69.17,48.53v1.16a.57.57,0,0,1-.23.45,1.39,1.39,0,0,1-.73.3,3,3,0,0,1-.67,0,2.31,2.31,0,0,1-.52-.06,1.37,1.37,0,0,1-.63-.33.57.57,0,0,1-.16-.41V47.39a.63.63,0,0,1,.32-.55,1.58,1.58,0,0,1,.56-.21,4.62,4.62,0,0,1,.83,0,1.78,1.78,0,0,1,.65.12,1,1,0,0,1,.5.37.46.46,0,0,1,.08.25v1.2Z"/><path class="cls-6" d="M66.78,47.51s0,.05,0,.07v1.86a.26.26,0,0,0,.11.23.41.41,0,0,0,.11.07,1,1,0,0,0,.46.11,3.22,3.22,0,0,0,.62,0,1.21,1.21,0,0,0,.42-.13.29.29,0,0,0,.16-.27c0-.39,0-.77,0-1.15v-.74a.13.13,0,0,0,0-.09.52.52,0,0,0-.17-.16,1.17,1.17,0,0,0-.33-.11,2.69,2.69,0,0,0-.75,0,1.33,1.33,0,0,0-.43.13C66.87,47.36,66.79,47.41,66.78,47.51Z"/><path class="cls-7" d="M69.17,53.18v1.16a.57.57,0,0,1-.23.45,1.39,1.39,0,0,1-.73.3,3,3,0,0,1-.67,0,2.31,2.31,0,0,1-.52-.06,1.3,1.3,0,0,1-.63-.34.54.54,0,0,1-.16-.4V52a.63.63,0,0,1,.32-.55,1.6,1.6,0,0,1,.56-.22,4.61,4.61,0,0,1,.83,0,1.78,1.78,0,0,1,.65.12,1,1,0,0,1,.5.37.46.46,0,0,1,.08.25v1.2Zm-2.39-1s0,.05,0,.07v1.86a.27.27,0,0,0,.11.23.41.41,0,0,0,.11.07,1,1,0,0,0,.46.11,3.22,3.22,0,0,0,.62,0,1.21,1.21,0,0,0,.42-.13.29.29,0,0,0,.16-.27c0-.39,0-.77,0-1.15V52.2a.13.13,0,0,0,0-.09.44.44,0,0,0-.17-.16,1.17,1.17,0,0,0-.33-.11,2.69,2.69,0,0,0-.75,0,1.13,1.13,0,0,0-.43.13C66.87,52,66.79,52.06,66.78,52.16Z"/><circle class="cls-2" cx="67.7" cy="53.18" r="1.4"/><path class="cls-8" d="M67.7,52.19a1,1,0,0,1,.42.09v.21a.82.82,0,0,1,.39.69.83.83,0,0,1-.39.7v.2a.93.93,0,0,1-.84,0v-.2a.81.81,0,0,1-.39-.7.79.79,0,0,1,.39-.69v-.21a1,1,0,0,1,.42-.09m0-.19a1.22,1.22,0,0,0-.5.11.2.2,0,0,0-.11.17v.11a1,1,0,0,0-.39.79,1,1,0,0,0,.39.79v.11a.19.19,0,0,0,.11.17,1.22,1.22,0,0,0,.5.11,1.25,1.25,0,0,0,.5-.11.18.18,0,0,0,.1-.17V54a1,1,0,0,0,.39-.79,1,1,0,0,0-.39-.79v-.11a.19.19,0,0,0-.1-.17,1.25,1.25,0,0,0-.5-.11Z"/><path class="cls-2" d="M67.7,54.27a1.19,1.19,0,0,1-.46-.1.11.11,0,0,1,0-.09v-.15a.91.91,0,0,1-.4-.75.89.89,0,0,1,.4-.74v-.16a.08.08,0,0,1,0-.08,1,1,0,0,1,.46-.11,1.07,1.07,0,0,1,.46.11.08.08,0,0,1,0,.08v.16a.88.88,0,0,1,.39.74.9.9,0,0,1-.39.75v.15a.11.11,0,0,1,0,.09A1.23,1.23,0,0,1,67.7,54.27Z"/><rect class="cls-9" x="73.47" y="43.04" width="5.04" height="12.6"/><rect class="cls-9" x="73.47" y="44.31" width="5.04" height="10.07"/><rect class="cls-9" x="74.79" y="50.18" width="2.39" height="3.17"/><path class="cls-10" d="M76.15,48a.16.16,0,1,0-.16.16.16.16,0,0,0,.16-.16"/><path class="cls-10" d="M76.15,52.8A.16.16,0,1,0,76,53a.16.16,0,0,0,.16-.16"/><rect class="cls-9" x="74.79" y="45.33" width="2.39" height="3.17"/><path class="cls-11" d="M74.82,49.34a.27.27,0,1,0-.27.27.27.27,0,0,0,.27-.27"/><path class="cls-11" d="M77.69,49.34a.27.27,0,0,0-.27-.27.27.27,0,1,0,0,.54.27.27,0,0,0,.27-.27"/><circle class="cls-2" cx="72.08" cy="32.15" r="7.29"/><path class="cls-8" d="M70.6,36.7H69.43V32.3a4,4,0,0,1-1.51.89V32.13a3.36,3.36,0,0,0,1-.57,2.18,2.18,0,0,0,.73-1h.95Z"/><path class="cls-8" d="M72.86,33.42a1.43,1.43,0,0,1-.66-.53,1.35,1.35,0,0,1-.21-.73A1.47,1.47,0,0,1,72.47,31a2.29,2.29,0,0,1,2.7,0,1.47,1.47,0,0,1,.48,1.13,1.3,1.3,0,0,1-.22.75,1.43,1.43,0,0,1-.62.51,1.6,1.6,0,0,1,.77.59,1.54,1.54,0,0,1,.26.9,1.82,1.82,0,0,1-.53,1.37,2,2,0,0,1-1.43.53,2.18,2.18,0,0,1-1.39-.44,1.83,1.83,0,0,1-.4-2.32A1.53,1.53,0,0,1,72.86,33.42ZM73,34.85a1,1,0,0,0,.25.75.79.79,0,0,0,.61.27.78.78,0,0,0,.6-.26,1.06,1.06,0,0,0,.24-.75,1,1,0,0,0-.24-.69.82.82,0,0,0-.61-.26.72.72,0,0,0-.64.3A1.09,1.09,0,0,0,73,34.85Zm.11-2.61a.73.73,0,0,0,.2.54.7.7,0,0,0,.52.2.72.72,0,0,0,.53-.2.69.69,0,0,0,.2-.54.72.72,0,0,0-.19-.53.74.74,0,0,0-.53-.2.72.72,0,0,0-.53.2A.74.74,0,0,0,73.1,32.24Z"/><path class="cls-8" d="M68,27.85h.41V29a2,2,0,0,0,0,.33.3.3,0,0,0,.12.2.46.46,0,0,0,.27.08.45.45,0,0,0,.26-.07.29.29,0,0,0,.11-.18,2.44,2.44,0,0,0,0-.34V27.85h.4v1.06a3,3,0,0,1,0,.52.53.53,0,0,1-.12.25.6.6,0,0,1-.24.16,1,1,0,0,1-.39.07,1.22,1.22,0,0,1-.44-.07.69.69,0,0,1-.23-.17.64.64,0,0,1-.12-.23,2.89,2.89,0,0,1,0-.51Z"/><path class="cls-8" d="M69.88,29.87v-2h.66a2.42,2.42,0,0,1,.48,0,.53.53,0,0,1,.29.2.61.61,0,0,1,.12.39.63.63,0,0,1-.07.32.55.55,0,0,1-.17.2.64.64,0,0,1-.21.09,2.31,2.31,0,0,1-.43,0h-.26v.76Zm.41-1.68v.58h.22a1.08,1.08,0,0,0,.32,0,.34.34,0,0,0,.13-.1.3.3,0,0,0,.05-.16.24.24,0,0,0-.07-.18.26.26,0,0,0-.16-.09l-.29,0Z"/><path class="cls-8" d="M72.63,29.87V28.19H72v-.34h1.6v.34H73v1.68Z"/><path class="cls-8" d="M73.6,28.88a1.31,1.31,0,0,1,.09-.52.92.92,0,0,1,.19-.28.87.87,0,0,1,.26-.18,1.19,1.19,0,0,1,.44-.08.93.93,0,0,1,.71.28,1.22,1.22,0,0,1,0,1.53,1,1,0,0,1-1.42,0A1,1,0,0,1,73.6,28.88Zm.42,0a.74.74,0,0,0,.16.52.53.53,0,0,0,.8,0,.79.79,0,0,0,.16-.52.7.7,0,0,0-.16-.52.48.48,0,0,0-.4-.17.52.52,0,0,0-.41.17A.79.79,0,0,0,74,28.86Z"/></svg>