<svg id="Layer_1" data-name="Layer 1" xmlns="http://www.w3.org/2000/svg" xmlns:xlink="http://www.w3.org/1999/xlink" viewBox="0 0 90 100"><defs><style>.cls-1{fill:none;}.cls-2{fill:#fff;stroke:#74af27;stroke-miterlimit:10;}.cls-3{clip-path:url(#clip-path);}.cls-4{fill:#74af27;}</style><clipPath id="clip-path"><path class="cls-1" d="M17.49,37.81A27.51,27.51,0,1,0,45,10.3,27.51,27.51,0,0,0,17.49,37.81"/></clipPath></defs><title>EV-Systems_Operations-ChargeYourEVFromYourPV</title><circle class="cls-2" cx="45" cy="37.74" r="28.35"/><g class="cls-3"><path class="cls-4" d="M50.18,40.31l-.41-4.45h4.5L55,40.31Zm6,6.36H50.77l-.5-5.38h4.94Zm-12.65,0V41.29h5.8l.5,5.38Zm-1-6.36H36.8l.41-4.45h5.3Zm0,6.36H36.22l.49-5.38h5.8ZM31,40.31l.77-4.45h4.5l-.41,4.45Zm4.28,6.36H29.87l.92-5.38h4.94Zm-2.7-15.52h4.13l-.35,3.73H31.9Zm5.11,0h4.86v3.73H37.3Zm5.84,0h4.87l.34,3.73H43.49Zm5.71,9.16H43.49V35.86h5.3Zm4.26-9.16.65,3.73H49.68l-.34-3.73Zm.14-1H32.4a.8.8,0,0,0-.79.67L28.87,46.69a.82.82,0,0,0,.18.66.78.78,0,0,0,.62.29H56.33a.81.81,0,0,0,.8-1L54.4,30.84a.81.81,0,0,0-.8-.67"/><path class="cls-4" d="M55,20.45a.56.56,0,0,0,.56.59.55.55,0,0,0,.56-.59c0-.36,0-.71,0-1.07a.55.55,0,0,0-.56-.59.56.56,0,0,0-.56.58v1.08"/><path class="cls-4" d="M52,21.66a.53.53,0,0,0,.63.18.61.61,0,0,0,.39-.53L53,21.08c-.2-.36-.4-.72-.62-1.07a.53.53,0,0,0-.73-.16.54.54,0,0,0-.24.7c.2.38.41.75.64,1.11"/><path class="cls-4" d="M61.23,24.09l1-.59a.5.5,0,0,0,.26-.41.56.56,0,0,0-.81-.56c-.35.18-.7.38-1,.59a.57.57,0,0,0-.18.75.55.55,0,0,0,.75.22"/><path class="cls-4" d="M58.42,21.81a.55.55,0,0,0,.72-.17,11.68,11.68,0,0,0,.63-1.08.56.56,0,0,0-.51-.79.5.5,0,0,0-.45.23c-.22.36-.44.72-.63,1.1a.54.54,0,0,0,.24.71"/><path class="cls-4" d="M48.86,23.46c.37.23.74.45,1.13.65a.54.54,0,0,0,.7-.25.55.55,0,0,0-.17-.72c-.35-.22-.71-.43-1.08-.62a.55.55,0,0,0-.79.51.52.52,0,0,0,.21.43"/><path class="cls-4" d="M62.3,30a12.7,12.7,0,0,0-1.13-.65.52.52,0,0,0-.69.24.54.54,0,0,0,.16.72,11.68,11.68,0,0,0,1.08.63.56.56,0,0,0,.79-.52A.46.46,0,0,0,62.3,30"/><path class="cls-4" d="M58.49,48.64l-.13.06H27.64l-.12-.06,0-.13L30.8,29.25l.17-.14H55l.16.14,3.32,19.26ZM39.85,52.32l.46-2.64H45.7l.46,2.64Zm10.91,1a.78.78,0,0,1,.78.78v1.07a.18.18,0,0,1-.18.17H34.64a.17.17,0,0,1-.17-.17V54.07a.78.78,0,0,1,.77-.78ZM52.19,26.7A3.4,3.4,0,1,1,56.32,30l-.16-.94A1.14,1.14,0,0,0,55,28.13H52.5a3.4,3.4,0,0,1-.31-1.43m4.18,3.56.15.87a4.52,4.52,0,1,0-5.23-3H31a1.15,1.15,0,0,0-1.13.95L26.52,48.34a1.13,1.13,0,0,0,.25.93,1.15,1.15,0,0,0,.87.41H39.32l-.46,2.64H35.24a1.76,1.76,0,0,0-1.75,1.75v1.07a1.16,1.16,0,0,0,1.15,1.15H51.36a1.15,1.15,0,0,0,1.15-1.15V54.07a1.75,1.75,0,0,0-1.75-1.75H47.15l-.46-2.64H58.36a1.14,1.14,0,0,0,1.12-1.34Z"/><path class="cls-4" d="M62.91,26.14H61.82a.56.56,0,0,0-.58.56.57.57,0,0,0,.58.57h1.09a.58.58,0,0,0,.59-.58.56.56,0,0,0-.59-.55"/><path class="cls-4" d="M59.17,31.8a.56.56,0,0,0-1,.55c.18.34.38.68.58,1a.52.52,0,0,0,.41.26.56.56,0,0,0,.56-.82c-.18-.35-.38-.68-.58-1"/><path class="cls-4" d="M48.26,27.27h1.07a.57.57,0,1,0,0-1.13h-1a.57.57,0,1,0,0,1.13"/></g><path class="cls-4" d="M12,73.85v0a3.17,3.17,0,0,1,3.19-3.25,3.29,3.29,0,0,1,2.46,1l-.49.52a2.73,2.73,0,0,0-2-.87,2.47,2.47,0,0,0-2.44,2.59h0a2.49,2.49,0,0,0,2.44,2.61,2.75,2.75,0,0,0,2-.91l.47.46a3.31,3.31,0,0,1-2.52,1.1A3.14,3.14,0,0,1,12,73.85Z"/><path class="cls-4" d="M18.5,70.41h.7v2.73a1.76,1.76,0,0,1,1.59-.91,1.7,1.7,0,0,1,1.78,1.87V77h-.69V74.27a1.24,1.24,0,0,0-1.29-1.41,1.37,1.37,0,0,0-1.39,1.46V77h-.7Z"/><path class="cls-4" d="M23.43,75.63h0c0-1,.81-1.51,2-1.51a5.24,5.24,0,0,1,1.43.2v-.16c0-.84-.51-1.27-1.39-1.27a3.33,3.33,0,0,0-1.41.34l-.21-.56a3.76,3.76,0,0,1,1.69-.39,2.06,2.06,0,0,1,1.51.51,1.87,1.87,0,0,1,.47,1.36V77h-.66v-.71a2,2,0,0,1-1.68.8A1.56,1.56,0,0,1,23.43,75.63Zm3.43-.35v-.45a4.8,4.8,0,0,0-1.37-.2c-.87,0-1.36.38-1.36,1v0c0,.58.54.93,1.17.93A1.41,1.41,0,0,0,26.86,75.28Z"/><path class="cls-4" d="M28.72,72.33h.69v1.22a2,2,0,0,1,1.9-1.3V73h0a1.88,1.88,0,0,0-1.85,2.13V77h-.69Z"/><path class="cls-4" d="M31.85,77.8l.32-.54a3,3,0,0,0,1.79.59,1.53,1.53,0,0,0,1.69-1.66v-.55a2.2,2.2,0,0,1-1.83,1,2.15,2.15,0,0,1-2.18-2.18v0a2.2,2.2,0,0,1,4-1.26v-.84h.69v3.85a2.2,2.2,0,0,1-.59,1.64,2.4,2.4,0,0,1-1.77.62A3.66,3.66,0,0,1,31.85,77.8Zm3.82-3.36v0A1.64,1.64,0,0,0,34,72.84a1.54,1.54,0,0,0-1.61,1.57v0A1.56,1.56,0,0,0,34,76,1.64,1.64,0,0,0,35.67,74.44Z"/><path class="cls-4" d="M37.32,74.67v0a2.3,2.3,0,0,1,2.24-2.42,2.22,2.22,0,0,1,2.17,2.46,1.77,1.77,0,0,1,0,.23H38a1.63,1.63,0,0,0,1.63,1.57,1.92,1.92,0,0,0,1.47-.66l.43.39a2.38,2.38,0,0,1-1.91.87A2.32,2.32,0,0,1,37.32,74.67ZM41,74.4a1.53,1.53,0,0,0-1.48-1.58A1.6,1.6,0,0,0,38,74.4Z"/><path class="cls-4" d="M47.19,74.49l-2.62-3.81h.86l2.13,3.15,2.14-3.15h.83l-2.62,3.8V77h-.72Z"/><path class="cls-4" d="M50,74.68v0a2.43,2.43,0,0,1,4.85,0v0a2.42,2.42,0,0,1-2.44,2.43A2.37,2.37,0,0,1,50,74.68Zm4.14,0v0a1.76,1.76,0,0,0-1.73-1.82,1.72,1.72,0,0,0-1.7,1.8v0a1.74,1.74,0,0,0,1.72,1.81A1.72,1.72,0,0,0,54.14,74.68Z"/><path class="cls-4" d="M55.76,75.22V72.33h.69v2.72a1.25,1.25,0,0,0,1.29,1.41A1.37,1.37,0,0,0,59.13,75V72.33h.69V77h-.69v-.81a1.76,1.76,0,0,1-1.59.9A1.69,1.69,0,0,1,55.76,75.22Z"/><path class="cls-4" d="M61.1,72.33h.69v1.22a2,2,0,0,1,1.9-1.3V73h0a1.88,1.88,0,0,0-1.85,2.13V77H61.1Z"/><path class="cls-4" d="M67,70.68h4.56v.65H67.73v2.15h3.44v.65H67.73v2.21h3.89V77H67Z"/><path class="cls-4" d="M72.24,70.68H73l2.24,5.43,2.25-5.43h.76L75.58,77H75Z"/><path class="cls-4" d="M16.25,81.68h4.53v.66H17v2.25h3.41v.65H17V88h-.71Z"/><path class="cls-4" d="M21.77,83.33h.69v1.22a2,2,0,0,1,1.9-1.3V84h-.05a1.88,1.88,0,0,0-1.85,2.13V88h-.69Z"/><path class="cls-4" d="M24.66,85.68v0a2.43,2.43,0,0,1,4.85,0v0a2.42,2.42,0,0,1-2.44,2.43A2.37,2.37,0,0,1,24.66,85.68Zm4.14,0v0a1.76,1.76,0,0,0-1.73-1.82,1.72,1.72,0,0,0-1.7,1.8v0a1.75,1.75,0,0,0,1.72,1.81A1.72,1.72,0,0,0,28.8,85.68Z"/><path class="cls-4" d="M30.49,83.33h.69v.79a1.71,1.71,0,0,1,1.5-.89,1.59,1.59,0,0,1,1.5.93,1.86,1.86,0,0,1,1.64-.93,1.68,1.68,0,0,1,1.73,1.88V88h-.7V85.27c0-.9-.45-1.41-1.2-1.41a1.29,1.29,0,0,0-1.28,1.44V88h-.7V85.25c0-.87-.45-1.39-1.19-1.39a1.35,1.35,0,0,0-1.3,1.47V88h-.69Z"/><path class="cls-4" d="M43.3,85.49l-2.62-3.81h.86l2.12,3.15,2.15-3.15h.83L44,85.48V88H43.3Z"/><path class="cls-4" d="M46.1,85.68v0a2.41,2.41,0,0,1,2.43-2.43A2.39,2.39,0,0,1,51,85.64v0a2.41,2.41,0,0,1-2.43,2.43A2.38,2.38,0,0,1,46.1,85.68Zm4.14,0v0a1.76,1.76,0,0,0-1.72-1.82,1.72,1.72,0,0,0-1.71,1.8v0a1.75,1.75,0,0,0,1.72,1.81A1.72,1.72,0,0,0,50.24,85.68Z"/><path class="cls-4" d="M51.86,86.22V83.33h.7v2.72a1.24,1.24,0,0,0,1.28,1.41A1.38,1.38,0,0,0,55.24,86V83.33h.68V88h-.68v-.81a1.78,1.78,0,0,1-1.59.9A1.7,1.7,0,0,1,51.86,86.22Z"/><path class="cls-4" d="M57.21,83.33h.69v1.22a2,2,0,0,1,1.9-1.3V84h0a1.88,1.88,0,0,0-1.85,2.13V88h-.69Z"/><path class="cls-4" d="M63.13,81.68h2.36c1.42,0,2.36.76,2.36,2v0c0,1.36-1.14,2.06-2.48,2.06H63.84V88h-.71Zm2.27,3.43c1,0,1.73-.55,1.73-1.38v0c0-.9-.68-1.37-1.7-1.37H63.84v2.77Z"/><path class="cls-4" d="M68.24,81.68H69l2.25,5.43,2.25-5.43h.76L71.58,88H71Z"/></svg>