<svg id="Layer_1" data-name="Layer 1" xmlns="http://www.w3.org/2000/svg" xmlns:xlink="http://www.w3.org/1999/xlink" viewBox="0 0 90 100"><defs><style>.cls-1{fill:none;}.cls-2{fill:#fff;stroke:#74af27;stroke-miterlimit:10;}.cls-3{fill:#74af27;}.cls-4{clip-path:url(#clip-path);}</style><clipPath id="clip-path"><circle class="cls-1" cx="45" cy="37.74" r="27.79"/></clipPath></defs><title>EV-Systems_Operations-Chip_Pin</title><circle class="cls-2" cx="45" cy="37.74" r="28.35"/><path class="cls-3" d="M22.86,73.85v0a3.17,3.17,0,0,1,3.19-3.25,3.27,3.27,0,0,1,2.46,1L28,72.1a2.73,2.73,0,0,0-2-.87,2.47,2.47,0,0,0-2.44,2.59h0A2.49,2.49,0,0,0,26,76.44a2.75,2.75,0,0,0,2-.91l.47.46A3.31,3.31,0,0,1,26,77.09,3.14,3.14,0,0,1,22.86,73.85Z"/><path class="cls-3" d="M29.39,70.41h.7v2.73a1.76,1.76,0,0,1,1.59-.91,1.7,1.7,0,0,1,1.78,1.87V77h-.69V74.27a1.24,1.24,0,0,0-1.29-1.41,1.37,1.37,0,0,0-1.39,1.46V77h-.7Z"/><path class="cls-3" d="M34.69,70.55h.79v.76h-.79Zm0,1.78h.69V77h-.69Z"/><path class="cls-3" d="M36.77,72.33h.69v.94a2.1,2.1,0,0,1,1.78-1,2.27,2.27,0,0,1,2.22,2.42h0a2.27,2.27,0,0,1-2.22,2.42,2.08,2.08,0,0,1-1.78-1v2.34h-.69Zm4,2.34v0a1.68,1.68,0,0,0-1.63-1.8,1.74,1.74,0,0,0-1.69,1.8h0a1.73,1.73,0,0,0,1.69,1.8A1.63,1.63,0,0,0,40.75,74.67Z"/><path class="cls-3" d="M48.57,76.09a2.7,2.7,0,0,1-2.06,1,1.81,1.81,0,0,1-2-1.77v0a2,2,0,0,1,1.52-1.82,2,2,0,0,1-.63-1.38v0a1.54,1.54,0,0,1,1.67-1.49A1.46,1.46,0,0,1,48.62,72v0c0,.8-.57,1.31-1.49,1.64l1.44,1.46a7.7,7.7,0,0,0,.76-1.4l.59.27A9.1,9.1,0,0,1,49,75.57L50.1,76.7l-.54.41Zm-.43-.44-1.68-1.73c-.84.3-1.21.82-1.21,1.35h0a1.22,1.22,0,0,0,1.32,1.19A2.13,2.13,0,0,0,48.14,75.65ZM48,72.05v0a.85.85,0,0,0-.89-.87.9.9,0,0,0-1,.91v0c0,.37.15.65.63,1.16C47.54,73,48,72.59,48,72.05Z"/><path class="cls-3" d="M53.44,70.68H55.8c1.42,0,2.36.76,2.36,2v0c0,1.36-1.13,2.06-2.48,2.06H54.15V77h-.71Zm2.27,3.43c1,0,1.73-.55,1.73-1.38v0c0-.9-.68-1.37-1.69-1.37h-1.6v2.77Z"/><path class="cls-3" d="M59.25,70.68H60V77h-.71Z"/><path class="cls-3" d="M61.53,70.68h.67l4,5v-5h.69V77h-.57l-4.06-5.17V77h-.7Z"/><g class="cls-4"><path class="cls-3" d="M45.63,22.91c3.56,0,7.12,0,10.67,0a7.84,7.84,0,0,1,4,1,6.12,6.12,0,0,1,2.84,3.79,9.48,9.48,0,0,1,.34,2.54c0,5.28,0,10.56,0,15.84a7.6,7.6,0,0,1-.63,3.12A5.12,5.12,0,0,1,60,51.92a10,10,0,0,1-3.68.64H54.82a.67.67,0,0,1-.71-.83c.15-1.2.31-2.4.47-3.6s.35-2.58.51-3.87A1.56,1.56,0,0,0,54,42.6a1.36,1.36,0,0,0-1.61.91,2,2,0,0,1-.09.22.52.52,0,0,1-.59.26.54.54,0,0,1-.4-.52c0-.31,0-.62,0-.93a1.55,1.55,0,0,0-1.09-1.29,1.36,1.36,0,0,0-1.55.84c0,.09-.06.18-.11.27a.51.51,0,0,1-.55.31.52.52,0,0,1-.45-.47c0-.21,0-.42,0-.62a1.75,1.75,0,0,0-.2-.9,1.31,1.31,0,0,0-1.27-.8,1.37,1.37,0,0,0-1.21.92,1.7,1.7,0,0,0-.09.24.53.53,0,0,1-.58.38.54.54,0,0,1-.46-.49,2.26,2.26,0,0,1,0-.26V30.3a2.36,2.36,0,0,0-.09-.7,1.4,1.4,0,0,0-1.42-1.09,1.5,1.5,0,0,0-1.28,1.28,2.38,2.38,0,0,0,0,.46q0,6.89,0,13.78a2.77,2.77,0,0,1-.1.81.77.77,0,0,1-1.08.55,4.09,4.09,0,0,1-.89-.6c-.62-.53-1.2-1.1-1.82-1.61a4.71,4.71,0,0,0-.95-.55.87.87,0,0,0-.74,0,.93.93,0,0,0-.53,1.2,4.24,4.24,0,0,0,.8,1.53c1.65,2,3.29,4.09,4.94,6.14a1.12,1.12,0,0,1,.16.22.55.55,0,0,1-.41.84h-.46c-1.55,0-3.09,0-4.64,0a7.75,7.75,0,0,1-3.56-.94,6.17,6.17,0,0,1-3-4,9.35,9.35,0,0,1-.3-2.29q0-7.61,0-15.2a9.54,9.54,0,0,1,.61-3.43,5.48,5.48,0,0,1,3.68-3.4,9.6,9.6,0,0,1,2.92-.37Zm9.63,28.48c.58,0,1.12,0,1.67,0A8.2,8.2,0,0,0,59.32,51a4.11,4.11,0,0,0,2.74-2.81,8.11,8.11,0,0,0,.32-2.44V30.56a9.57,9.57,0,0,0-.26-2.33A5,5,0,0,0,59,24.58a7.45,7.45,0,0,0-2.87-.53q-10.51,0-21,0a7.65,7.65,0,0,0-2.07.28,4.44,4.44,0,0,0-3.21,3,8.47,8.47,0,0,0-.44,2.78q0,7.45,0,14.91a8.94,8.94,0,0,0,.28,2.37,5,5,0,0,0,2.75,3.38,7.4,7.4,0,0,0,3,.65c1.12,0,2.23,0,3.35,0H39l-.14-.2c-1-1.3-2.1-2.59-3.14-3.9-.49-.61-1-1.22-1.42-1.87a3.53,3.53,0,0,1-.67-2.1,2,2,0,0,1,2.22-1.94,3.06,3.06,0,0,1,1.47.62c.65.51,1.26,1.07,1.89,1.61l.57.5v-.31q0-6.77,0-13.54a3.5,3.5,0,0,1,.16-1.16,2.42,2.42,0,0,1,3.71-1.33,2.83,2.83,0,0,1,1.15,2.41q0,4.32,0,8.65v.25A2.31,2.31,0,0,1,47,38.9a2.72,2.72,0,0,1,1.5,1.66,2.28,2.28,0,0,1,2.2-.35,2.68,2.68,0,0,1,1.59,1.68l.18-.12a2.31,2.31,0,0,1,1.1-.36,2.6,2.6,0,0,1,2.64,2.4A7,7,0,0,1,56,45.45c-.09.82-.21,1.64-.32,2.46l-.33,2.46C55.35,50.71,55.3,51.06,55.26,51.39Z"/><path class="cls-3" d="M49.25,33.19c-.57,0-1.14,0-1.71,0a1,1,0,0,1-1-1c0-1.24,0-2.48,0-3.71a1,1,0,0,1,1-1c1.15,0,2.3,0,3.45,0a.93.93,0,0,1,.95.89c0,.49,0,1,0,1.46,0,.72,0,1.44,0,2.15a1.09,1.09,0,0,1-.53,1.05.83.83,0,0,1-.38.1C50.45,33.2,49.85,33.19,49.25,33.19Zm.22-2.45.94.61.23-.44-1-.54,1-.55-.23-.44-.94.61V28.85H49V30l-.93-.61-.24.44,1,.55-1,.55.25.43.92-.61v1.14h.43Z"/><path class="cls-3" d="M56.41,33.19c-.56,0-1.11,0-1.66,0a1,1,0,0,1-1-1c0-1.2,0-2.39,0-3.59a1,1,0,0,1,1-1c1.11,0,2.22,0,3.34,0a1,1,0,0,1,1,1c0,1.2,0,2.4,0,3.59a1,1,0,0,1-1,1C57.53,33.17,57,33.19,56.41,33.19ZM55,29.82l1,.55-1,.55.25.43.91-.61v1.14h.45V30.74l.92.61.24-.44-1-.54,1-.55-.24-.44-.92.6V28.86h-.45V30l-.92-.61Z"/><path class="cls-3" d="M35.36,33.19c-.56,0-1.12,0-1.68,0a1,1,0,0,1-1-1c0-1.24,0-2.47,0-3.71a1,1,0,0,1,1-1c1.15,0,2.3,0,3.45,0a1,1,0,0,1,.95,1c0,1.24,0,2.49,0,3.73a1,1,0,0,1-.95,1C36.52,33.18,35.94,33.19,35.36,33.19Zm.41-2.82,1-.55-.25-.44-.92.61V28.86h-.44V30l-.92-.61-.24.44,1,.55-1,.55.25.43.92-.6v1.14h.44V30.74l.92.61.25-.43Z"/></g></svg>