<svg id="Layer_1" data-name="Layer 1" xmlns="http://www.w3.org/2000/svg" xmlns:xlink="http://www.w3.org/1999/xlink" viewBox="0 0 120 100"><defs><style>.cls-1,.cls-5{fill:none;}.cls-2,.cls-6,.cls-8{fill:#fff;}.cls-2,.cls-5{stroke:#74af27;}.cls-2{stroke-miterlimit:10;}.cls-3{clip-path:url(#clip-path);}.cls-4{fill:#74af27;}.cls-5{stroke-linecap:round;stroke-linejoin:round;stroke-width:0.8px;}.cls-7{fill:#74af2c;}.cls-8{stroke:#74af2c;stroke-linejoin:bevel;stroke-width:0.77px;}.cls-9{fill:#74af28;}</style><clipPath id="clip-path"><circle class="cls-1" cx="59.11" cy="37.71" r="28.32"/></clipPath></defs><title>EV-Systems_Operations-MobileAppControlledSMARTCharging-Titan</title><circle class="cls-2" cx="59.11" cy="37.71" r="28.32"/><g class="cls-3"><path class="cls-4" d="M57.19,21.71A7.43,7.43,0,0,0,57,19.92a6.86,6.86,0,0,0-1.5-3,7,7,0,0,0-5.39-2.07.61.61,0,0,1-.61-.62.61.61,0,0,1,.62-.6,8.15,8.15,0,0,1,6.33,2.5,8,8,0,0,1,1.75,3.61,7.76,7.76,0,0,1,.19,2.15.61.61,0,0,1-.68.53.56.56,0,0,1-.36-.17A.58.58,0,0,1,57.19,21.71Zm-1.91.6a.59.59,0,0,0,.39.17.61.61,0,0,0,.65-.57,6.22,6.22,0,0,0-1.49-4.4,6.37,6.37,0,0,0-4.77-1.84.63.63,0,0,0-.62.61.62.62,0,0,0,.6.62,5.2,5.2,0,0,1,3.89,1.44,5.07,5.07,0,0,1,1.17,3.49A.56.56,0,0,0,55.28,22.31Zm-2.15.19a.5.5,0,0,0,.28.16.61.61,0,0,0,.74-.45,3.9,3.9,0,0,0-.79-3.05,4,4,0,0,0-3.5-1.33.61.61,0,1,0,0,1.22,2.9,2.9,0,0,1,2.5.88,2.74,2.74,0,0,1,.55,2A.61.61,0,0,0,53.13,22.5Z"/><path class="cls-5" d="M50.36,64.66l4-6.64s-2-2-1.11-6.28A19.7,19.7,0,0,0,53,46.05s-.69-2.13.85-2.87c0,0,2.29-.75,2.29,1.86"/><path class="cls-5" d="M59.78,67.38l3.2-5.5a7,7,0,0,0,6-4.71"/><path class="cls-4" d="M70.7,55.58c0,1-.4,1.85-1.41,1.85H57.7a1.94,1.94,0,0,1-1.93-1.85v-25a1.94,1.94,0,0,1,1.93-1.85H69.29c1,0,1.41.84,1.41,1.85Zm-.93-22.89H56.93V53.46H69.77ZM63.5,54.24a1.11,1.11,0,1,0,1.11,1.11A1.11,1.11,0,0,0,63.5,54.24ZM66.27,30.9a.31.31,0,0,0-.31-.31H60.51a.31.31,0,0,0-.31.31v.32a.31.31,0,0,0,.31.31H66a.31.31,0,0,0,.31-.31Zm3.5,1.79H56.93V53.46H69.77Z"/><rect class="cls-6" x="56.93" y="32.69" width="12.83" height="20.77"/><path class="cls-1" d="M74.69,58.75l.19,0-.21-.06Z"/><path class="cls-6" d="M78.21,64.52l-3.33-5.74-.19,0Z"/><path class="cls-6" d="M78.11,64.35l-3.23-5.57-.21-.06,0,0a7.23,7.23,0,0,1-1.29-.41h0A8.35,8.35,0,0,1,70,55.79l-2.6-3.62a3.08,3.08,0,0,1,.78-4l-3.93-8.41c-.74-1.49.48-2,.48-2,1.7-.67,2.13.61,2.13.61l1.54,3h0l1.07-.53s1.75-1,2.55.63l1-.55a1.55,1.55,0,0,1,2.45.58l1.06-.58a1.64,1.64,0,0,1,1.93,1.17l3.55,7a8.73,8.73,0,0,1,.48,5.59l4.13,7.65-8,3.2Z"/><path class="cls-5" d="M86.64,62.32l-4.13-7.65A8.46,8.46,0,0,0,82,49.08l-3.55-7s-.65-1.48-1.93-1.17"/><path class="cls-5" d="M73,40.89a1.48,1.48,0,0,1,2.45.58L77,44.24"/><path class="cls-5" d="M69.37,40.89s1.76-1,2.55.64L73.68,45"/><path class="cls-5" d="M70.7,46.16l-3.93-7.77s-.43-1.27-2.13-.61a1.38,1.38,0,0,0-.48,2L69.37,51"/><path class="cls-5" d="M78.08,64.61l-3.34-5.74a8.21,8.21,0,0,1-4.84-3l-2.59-3.61a3.07,3.07,0,0,1,.77-4"/><polygon class="cls-7" points="39.68 25.59 39.71 25.06 39.74 24.55 39.78 24.12 39.81 23.79 39.85 23.48 39.88 23.22 39.91 23 39.94 22.82 39.94 22.83 40.1 22.14 40.3 21.57 40.52 21.14 40.52 21.14 40.63 20.98 40.83 20.8 41.07 20.65 41.36 20.53 41.7 20.43 42.06 20.37 42.44 20.33 42.79 20.31 43.08 20.31 45.67 20.31 48.25 20.31 48.25 20.31 48.54 20.31 48.89 20.33 49.27 20.37 49.63 20.43 49.97 20.53 50.26 20.65 50.5 20.8 50.7 20.98 50.81 21.14 50.81 21.14 51.03 21.57 51.23 22.14 51.39 22.83 51.39 22.82 51.42 23 51.45 23.22 51.48 23.48 51.52 23.79 51.55 24.12 51.59 24.55 51.62 25.06 51.65 25.59 51.65 25.62 51.65 25.73 51.65 37.01 51.65 37.03 51.62 37.56 51.59 38.07 51.55 38.5 51.52 38.84 51.48 39.14 51.45 39.4 51.42 39.62 51.39 39.8 51.39 39.8 51.23 40.48 51.03 41.05 50.81 41.48 50.81 41.48 50.7 41.65 50.5 41.82 50.26 41.98 49.97 42.09 49.63 42.19 49.27 42.25 48.89 42.29 48.54 42.31 48.25 42.31 45.67 42.31 43.08 42.31 42.79 42.31 42.44 42.29 42.06 42.25 41.7 42.19 41.37 42.09 41.07 41.98 40.83 41.82 40.64 41.65 40.52 41.48 40.52 41.48 40.3 41.05 40.1 40.48 39.94 39.8 39.94 39.8 39.91 39.62 39.88 39.4 39.85 39.14 39.81 38.84 39.78 38.5 39.74 38.07 39.71 37.56 39.68 37.03 39.68 37.01 39.68 25.73 39.68 25.62 39.68 25.59"/><path class="cls-8" d="M41.75,37.05a21.6,21.6,0,0,0,.6,4.08h0v.06l0,0v0h0l0,0h0l0,0,0,0,0,0,0,0h0l0,0h6l0,0h0l0,0,0,0,0,0,0,0h0l0,0h0v0l0,0v-.06l.07-.31.07-.31.07-.31.06-.31,0-.31.06-.32,0-.31,0-.31,0-.32,0-.32,0-.31,0-.32v-.32h0v-14l0-.15v-.15h0l0-.15,0-.14,0-.15,0-.15,0-.14,0-.15,0-.15,0-.14h0v-.11l0,0h0l0,0,0,0,0,0,0,0-.05,0h0l0,0h0l-.07,0h0l-.06,0H42.56l-.06,0h0l-.07,0h0l0,0h0l-.05,0,0,0,0,0,0,0,0,0h0l0,0v.11h0l0,.14,0,.15L42,22l0,.14,0,.15,0,.15,0,.14,0,.15h0v.3l0,.15v1.48l0,.49V37.05"/><line class="cls-8" x1="41.76" y1="25.67" x2="49.57" y2="25.67"/><line class="cls-8" x1="49.57" y1="37.08" x2="41.75" y2="37.08"/><circle class="cls-8" cx="45.66" cy="27.97" r="0.81"/><path class="cls-9" d="M44.9,22.32h-.13l0,0h0l0,0,0,0,0,0,0,0,0,0,0,0,0,0,0,0v.12h0a4.48,4.48,0,0,0,.27,1.45h0v0h0l0,.11h0a.53.53,0,0,0,.45.33h0l.42,0h0l.43,0a.53.53,0,0,0,.45-.33h0l.05-.11h0v0h0a4.48,4.48,0,0,0,.27-1.45h0v-.12l0,0,0,0,0,0,0,0,0,0,0,0,0,0,0,0h0l0,0h-.13a6.45,6.45,0,0,0-.76,0h0c-.25,0-.51,0-.76,0Z"/><path class="cls-9" d="M46.43,40.32h.17l0,0,0,0,0,0,0,0,0,0,0,0,0,0,0,0,0,0v-.12h0a4.43,4.43,0,0,0-.27-1.44h0v0h0a.49.49,0,0,1,0-.11h0a.53.53,0,0,0-.45-.33h0l-.42,0h0l-.43,0a.53.53,0,0,0-.45.33h0l0,.11h0v0h0a4.43,4.43,0,0,0-.27,1.44h0V40l0,0,0,0,0,0,0,0,0,0,0,0,0,0,0,0,0,0h.17c.25,0,.51,0,.77,0h0c.25,0,.51,0,.76,0Z"/><circle class="cls-4" cx="45.66" cy="32.86" r="2.86"/><path class="cls-4" d="M45.66,35.16a2.35,2.35,0,0,1-1-.21.28.28,0,0,1-.15-.24v-.29a1.92,1.92,0,0,1,0-3.12V31a.28.28,0,0,1,.15-.24,2.32,2.32,0,0,1,1-.21,2.37,2.37,0,0,1,1,.21.28.28,0,0,1,.15.24v.29a1.91,1.91,0,0,1,.8,1.56,2,2,0,0,1-.8,1.56v.29a.28.28,0,0,1-.15.24A2.37,2.37,0,0,1,45.66,35.16Z"/><path class="cls-6" d="M45.66,30.82a2,2,0,0,1,.87.19v.43a1.66,1.66,0,0,1,0,2.84v.43a2,2,0,0,1-.87.19,1.93,1.93,0,0,1-.86-.19v-.42a1.68,1.68,0,0,1,0-2.86V31a1.93,1.93,0,0,1,.86-.19m0-.52a2.54,2.54,0,0,0-1.08.24.52.52,0,0,0-.3.47v.16a2.19,2.19,0,0,0,0,3.38v.16a.52.52,0,0,0,.3.47,2.57,2.57,0,0,0,2.17,0,.51.51,0,0,0,.29-.47v-.16a2.2,2.2,0,0,0,.81-1.69A2.15,2.15,0,0,0,47,31.17V31a.51.51,0,0,0-.29-.47,2.55,2.55,0,0,0-1.09-.24Z"/></g><path class="cls-4" d="M13.11,70.7h.72l2.29,3.44,2.3-3.44h.72V77h-.71V71.9l-2.3,3.37h0L13.8,71.9V77h-.69Z"/><path class="cls-4" d="M20.24,74.7v0a2.43,2.43,0,0,1,4.86,0v0a2.42,2.42,0,0,1-2.44,2.43A2.39,2.39,0,0,1,20.24,74.7Zm4.14,0v0a1.76,1.76,0,0,0-1.72-1.82A1.72,1.72,0,0,0,21,74.66v0a1.75,1.75,0,0,0,1.72,1.81A1.72,1.72,0,0,0,24.38,74.7Z"/><path class="cls-4" d="M26.77,76.11V77h-.7V70.43h.7v2.85a2.08,2.08,0,0,1,1.78-1,2.26,2.26,0,0,1,2.22,2.41v0a2.28,2.28,0,0,1-2.22,2.42A2.11,2.11,0,0,1,26.77,76.11Zm3.29-1.42v0a1.67,1.67,0,0,0-1.64-1.8,1.74,1.74,0,0,0-1.68,1.79v0a1.73,1.73,0,0,0,1.68,1.8A1.65,1.65,0,0,0,30.06,74.69Z"/><path class="cls-4" d="M31.8,70.56h.79v.77H31.8Zm0,1.79h.7V77h-.7Z"/><path class="cls-4" d="M33.94,70.43h.69V77h-.69Z"/><path class="cls-4" d="M35.69,74.69v0a2.29,2.29,0,0,1,2.23-2.42,2.22,2.22,0,0,1,2.17,2.46,1.62,1.62,0,0,1,0,.22H36.39A1.63,1.63,0,0,0,38,76.51a1.92,1.92,0,0,0,1.46-.66l.44.38a2.39,2.39,0,0,1-1.92.88A2.31,2.31,0,0,1,35.69,74.69Zm3.7-.27a1.54,1.54,0,0,0-1.49-1.59,1.61,1.61,0,0,0-1.51,1.59Z"/><path class="cls-4" d="M45.91,70.65h.67L49.45,77h-.77L48,75.34H44.52L43.77,77H43Zm1.76,4-1.43-3.21-1.45,3.21Z"/><path class="cls-4" d="M50.3,72.35H51v.93a2.06,2.06,0,0,1,1.78-1A2.27,2.27,0,0,1,55,74.66v0a2.28,2.28,0,0,1-2.22,2.42,2.09,2.09,0,0,1-1.78-1v2.33h-.7Zm4,2.34v0a1.68,1.68,0,0,0-1.64-1.8A1.74,1.74,0,0,0,51,74.66v0a1.73,1.73,0,0,0,1.68,1.8A1.65,1.65,0,0,0,54.29,74.69Z"/><path class="cls-4" d="M56,72.35h.69v.93a2.09,2.09,0,0,1,1.78-1,2.27,2.27,0,0,1,2.23,2.41v0a2.28,2.28,0,0,1-2.23,2.42,2.11,2.11,0,0,1-1.78-1v2.33H56Zm4,2.34v0a1.68,1.68,0,0,0-1.64-1.8,1.74,1.74,0,0,0-1.69,1.79v0a1.73,1.73,0,0,0,1.69,1.8A1.65,1.65,0,0,0,60,74.69Z"/><path class="cls-4" d="M64,73.87v0a3.18,3.18,0,0,1,3.19-3.26,3.31,3.31,0,0,1,2.46,1l-.49.52a2.74,2.74,0,0,0-2-.86,2.46,2.46,0,0,0-2.44,2.58v0a2.48,2.48,0,0,0,2.44,2.6,2.75,2.75,0,0,0,2-.91l.46.46a3.25,3.25,0,0,1-2.52,1.11A3.14,3.14,0,0,1,64,73.87Z"/><path class="cls-4" d="M70.14,74.7v0a2.43,2.43,0,0,1,4.85,0v0a2.42,2.42,0,0,1-2.44,2.43A2.39,2.39,0,0,1,70.14,74.7Zm4.14,0v0a1.76,1.76,0,0,0-1.73-1.82,1.72,1.72,0,0,0-1.7,1.8v0a1.75,1.75,0,0,0,1.72,1.81A1.72,1.72,0,0,0,74.28,74.7Z"/><path class="cls-4" d="M76,72.35h.69v.81a1.77,1.77,0,0,1,1.6-.91A1.7,1.7,0,0,1,80,74.11V77h-.69V74.28a1.24,1.24,0,0,0-1.29-1.4,1.37,1.37,0,0,0-1.4,1.46V77H76Z"/><path class="cls-4" d="M81.49,75.77V73h-.65v-.61h.65V70.94h.69v1.41h1.48V73H82.18v2.72a.69.69,0,0,0,.78.77,1.44,1.44,0,0,0,.68-.16v.59a1.74,1.74,0,0,1-.84.2A1.18,1.18,0,0,1,81.49,75.77Z"/><path class="cls-4" d="M84.61,72.35h.69v1.21a2,2,0,0,1,1.9-1.29V73h0a1.88,1.88,0,0,0-1.85,2.14V77h-.69Z"/><path class="cls-4" d="M87.5,74.7v0a2.43,2.43,0,0,1,4.85,0v0a2.42,2.42,0,0,1-2.44,2.43A2.38,2.38,0,0,1,87.5,74.7Zm4.14,0v0a1.76,1.76,0,0,0-1.73-1.82,1.72,1.72,0,0,0-1.7,1.8v0a1.75,1.75,0,0,0,1.72,1.81A1.72,1.72,0,0,0,91.64,74.7Z"/><path class="cls-4" d="M93.39,70.43h.7V77h-.7Z"/><path class="cls-4" d="M95.49,70.43h.69V77h-.69Z"/><path class="cls-4" d="M97.24,74.69v0a2.29,2.29,0,0,1,2.23-2.42,2.22,2.22,0,0,1,2.17,2.46,1.62,1.62,0,0,1,0,.22H97.94a1.63,1.63,0,0,0,1.64,1.58,1.92,1.92,0,0,0,1.46-.66l.44.38a2.39,2.39,0,0,1-1.92.88A2.31,2.31,0,0,1,97.24,74.69Zm3.7-.27a1.54,1.54,0,0,0-1.49-1.59,1.61,1.61,0,0,0-1.51,1.59Z"/><path class="cls-4" d="M102.31,74.69v0a2.29,2.29,0,0,1,2.23-2.42,2.08,2.08,0,0,1,1.78,1V70.43H107V77h-.69v-.94a2.1,2.1,0,0,1-1.78,1A2.27,2.27,0,0,1,102.31,74.69Zm4,0v0a1.72,1.72,0,0,0-1.68-1.79A1.65,1.65,0,0,0,103,74.66v0a1.68,1.68,0,0,0,1.64,1.8A1.73,1.73,0,0,0,106.34,74.68Z"/><path class="cls-4" d="M24.05,87.08l.44-.52a3,3,0,0,0,2.16.89c.84,0,1.4-.45,1.4-1.07v0c0-.58-.31-.92-1.64-1.2s-2.11-.78-2.11-1.81v0a1.86,1.86,0,0,1,2.07-1.72,3.29,3.29,0,0,1,2.21.77l-.41.55a2.81,2.81,0,0,0-1.82-.68c-.82,0-1.34.45-1.34,1h0c0,.6.32.93,1.71,1.23s2.05.82,2.05,1.78v0c0,1.08-.9,1.78-2.15,1.78A3.64,3.64,0,0,1,24.05,87.08Z"/><path class="cls-4" d="M30,81.7h.72L33,85.14l2.29-3.44H36V88h-.71V82.9L33,86.27h0l-2.3-3.37V88H30Z"/><path class="cls-4" d="M39.82,81.65h.67L43.36,88H42.6l-.74-1.66H38.43L37.68,88H37Zm1.76,4-1.43-3.21-1.44,3.21Z"/><path class="cls-4" d="M44.33,81.7H47a2.44,2.44,0,0,1,1.79.63,1.72,1.72,0,0,1,.49,1.24v0a1.85,1.85,0,0,1-1.71,1.84L49.54,88h-.87l-1.83-2.45H45V88h-.71ZM47,84.91c.94,0,1.62-.48,1.62-1.29v0c0-.78-.6-1.24-1.61-1.24H45v2.55Z"/><path class="cls-4" d="M52.17,82.36H50.06V81.7H55v.66H52.89V88h-.72Z"/><path class="cls-4" d="M58.22,84.87v0a3.18,3.18,0,0,1,3.19-3.26,3.28,3.28,0,0,1,2.45,1l-.48.52a2.76,2.76,0,0,0-2-.86A2.46,2.46,0,0,0,59,84.83v0a2.48,2.48,0,0,0,2.44,2.6,2.71,2.71,0,0,0,2-.91l.47.46a3.28,3.28,0,0,1-2.52,1.11A3.14,3.14,0,0,1,58.22,84.87Z"/><path class="cls-4" d="M64.75,81.43h.7v2.73A1.74,1.74,0,0,1,67,83.25a1.69,1.69,0,0,1,1.78,1.86V88h-.69V85.28a1.24,1.24,0,0,0-1.29-1.4,1.36,1.36,0,0,0-1.39,1.46V88h-.7Z"/><path class="cls-4" d="M69.67,86.65v0c0-1,.82-1.5,2-1.5a4.88,4.88,0,0,1,1.43.2v-.17c0-.83-.52-1.27-1.39-1.27a3.19,3.19,0,0,0-1.41.35l-.21-.57a3.9,3.9,0,0,1,1.69-.39,2.08,2.08,0,0,1,1.51.52,1.84,1.84,0,0,1,.47,1.36V88H73.1v-.7a2.07,2.07,0,0,1-1.69.8A1.58,1.58,0,0,1,69.67,86.65Zm3.44-.36v-.45a4.91,4.91,0,0,0-1.37-.2c-.88,0-1.36.38-1.36,1h0c0,.59.54.93,1.17.93A1.41,1.41,0,0,0,73.11,86.29Z"/><path class="cls-4" d="M75,83.35h.69v1.21a2,2,0,0,1,1.9-1.29V84h0a1.88,1.88,0,0,0-1.85,2.14V88H75Z"/><path class="cls-4" d="M78.1,88.81l.31-.54a3,3,0,0,0,1.8.6,1.53,1.53,0,0,0,1.69-1.66v-.55a2.22,2.22,0,0,1-1.83,1,2.15,2.15,0,0,1-2.19-2.18v0a2.16,2.16,0,0,1,2.19-2.19,2.2,2.2,0,0,1,1.82.93v-.83h.69v3.84A2.24,2.24,0,0,1,82,88.84a2.49,2.49,0,0,1-1.78.62A3.66,3.66,0,0,1,78.1,88.81Zm3.82-3.36h0a1.63,1.63,0,0,0-1.71-1.58,1.54,1.54,0,0,0-1.62,1.57h0A1.58,1.58,0,0,0,80.21,87,1.64,1.64,0,0,0,81.92,85.45Z"/><path class="cls-4" d="M83.88,81.56h.79v.77h-.79Zm0,1.79h.69V88h-.69Z"/><path class="cls-4" d="M86,83.35h.69v.81a1.74,1.74,0,0,1,1.59-.91A1.69,1.69,0,0,1,90,85.11V88h-.69V85.28A1.24,1.24,0,0,0,88,83.88a1.36,1.36,0,0,0-1.39,1.46V88H86Z"/><path class="cls-4" d="M91.18,88.81l.31-.54a3,3,0,0,0,1.79.6A1.53,1.53,0,0,0,95,87.21v-.55a2.19,2.19,0,0,1-1.82,1A2.15,2.15,0,0,1,91,85.46v0a2.16,2.16,0,0,1,2.19-2.19,2.2,2.2,0,0,1,1.82.93v-.83h.69v3.84a2.25,2.25,0,0,1-.6,1.65,2.45,2.45,0,0,1-1.77.62A3.66,3.66,0,0,1,91.18,88.81ZM95,85.45h0a1.63,1.63,0,0,0-1.71-1.58,1.54,1.54,0,0,0-1.61,1.57h0A1.58,1.58,0,0,0,93.28,87,1.64,1.64,0,0,0,95,85.45Z"/></svg>