<svg id="Layer_1" data-name="Layer 1" xmlns="http://www.w3.org/2000/svg" viewBox="0 0 90 100"><defs><style>.cls-1{fill:#fff;stroke:#74af27;stroke-miterlimit:10;}.cls-2{fill:#74af27;}</style></defs><title>EV-Systems_Operations-ExportableChargingData</title><circle class="cls-1" cx="45" cy="37.74" r="28.35"/><path class="cls-2" d="M22.53,70.68h4.56v.65H23.24v2.15h3.44v.65H23.24v2.21h3.89V77h-4.6Z"/><path class="cls-2" d="M30,74.15l1.39-1.82h.77l-1.76,2.28L32.22,77h-.8L30,75.07,28.53,77h-.78l1.82-2.37-1.75-2.29h.8Z"/><path class="cls-2" d="M33.07,72.33h.69v.94a2.1,2.1,0,0,1,1.79-1,2.28,2.28,0,0,1,2.22,2.41v0a2.28,2.28,0,0,1-2.22,2.42,2.09,2.09,0,0,1-1.79-1v2.34h-.69Zm4,2.34v0a1.68,1.68,0,0,0-1.64-1.8,1.74,1.74,0,0,0-1.68,1.79v0a1.73,1.73,0,0,0,1.68,1.8A1.64,1.64,0,0,0,37.06,74.67Z"/><path class="cls-2" d="M38.49,74.68v0a2.43,2.43,0,0,1,4.85,0v0a2.41,2.41,0,0,1-2.44,2.43A2.38,2.38,0,0,1,38.49,74.68Zm4.14,0v0a1.76,1.76,0,0,0-1.73-1.82,1.72,1.72,0,0,0-1.7,1.8v0a1.75,1.75,0,0,0,1.72,1.81A1.72,1.72,0,0,0,42.63,74.68Z"/><path class="cls-2" d="M44.32,72.33H45v1.22a2,2,0,0,1,1.9-1.3V73h0A1.88,1.88,0,0,0,45,75.13V77h-.69Z"/><path class="cls-2" d="M47.94,75.75V72.94h-.65v-.61h.65v-1.4h.69v1.4h1.48v.61H48.63v2.72a.7.7,0,0,0,.79.78,1.42,1.42,0,0,0,.67-.17v.6a1.8,1.8,0,0,1-.84.2A1.19,1.19,0,0,1,47.94,75.75Z"/><path class="cls-2" d="M50.71,75.63h0c0-1,.81-1.51,2-1.51a5.18,5.18,0,0,1,1.43.2v-.16c0-.84-.51-1.27-1.39-1.27a3.37,3.37,0,0,0-1.41.34l-.2-.56a3.73,3.73,0,0,1,1.69-.39,2,2,0,0,1,1.5.51,1.88,1.88,0,0,1,.48,1.36V77h-.67v-.71a2,2,0,0,1-1.68.8A1.56,1.56,0,0,1,50.71,75.63Zm3.43-.35v-.45a4.8,4.8,0,0,0-1.37-.2c-.87,0-1.36.38-1.36,1v0c0,.58.54.93,1.17.93A1.41,1.41,0,0,0,54.14,75.28Z"/><path class="cls-2" d="M56.7,76.09V77H56V70.41h.7v2.86a2.07,2.07,0,0,1,1.78-1,2.28,2.28,0,0,1,2.22,2.41v0a2.28,2.28,0,0,1-2.22,2.42A2.07,2.07,0,0,1,56.7,76.09ZM60,74.67v0a1.68,1.68,0,0,0-1.64-1.8,1.74,1.74,0,0,0-1.68,1.79v0a1.73,1.73,0,0,0,1.68,1.8A1.64,1.64,0,0,0,60,74.67Z"/><path class="cls-2" d="M61.77,70.41h.69V77h-.69Z"/><path class="cls-2" d="M63.52,74.67v0a2.29,2.29,0,0,1,2.23-2.42,2.22,2.22,0,0,1,2.17,2.46,1.77,1.77,0,0,1,0,.23H64.22a1.63,1.63,0,0,0,1.64,1.57,1.92,1.92,0,0,0,1.47-.66l.43.39a2.42,2.42,0,0,1-1.92.87A2.31,2.31,0,0,1,63.52,74.67Zm3.7-.27a1.54,1.54,0,0,0-1.49-1.58,1.6,1.6,0,0,0-1.51,1.58Z"/><path class="cls-2" d="M15,84.85v0a3.17,3.17,0,0,1,3.19-3.25,3.25,3.25,0,0,1,2.45,1l-.48.52a2.73,2.73,0,0,0-2-.87,2.47,2.47,0,0,0-2.44,2.59h0a2.49,2.49,0,0,0,2.44,2.61,2.75,2.75,0,0,0,2-.91l.47.46a3.31,3.31,0,0,1-2.52,1.1A3.14,3.14,0,0,1,15,84.85Z"/><path class="cls-2" d="M21.53,81.41h.7v2.73a1.76,1.76,0,0,1,1.59-.91A1.7,1.7,0,0,1,25.6,85.1V88h-.69V85.27a1.24,1.24,0,0,0-1.29-1.41,1.37,1.37,0,0,0-1.39,1.46V88h-.7Z"/><path class="cls-2" d="M26.46,86.63h0c0-1,.81-1.51,2-1.51a5.24,5.24,0,0,1,1.43.2v-.16c0-.84-.52-1.27-1.39-1.27a3.33,3.33,0,0,0-1.41.34l-.21-.56a3.76,3.76,0,0,1,1.69-.39,2.07,2.07,0,0,1,1.51.51,1.87,1.87,0,0,1,.47,1.36V88h-.66v-.71a2,2,0,0,1-1.69.8A1.56,1.56,0,0,1,26.46,86.63Zm3.43-.35v-.45a4.91,4.91,0,0,0-1.37-.2c-.88,0-1.36.38-1.36,1v0c0,.58.54.93,1.17.93A1.42,1.42,0,0,0,29.89,86.28Z"/><path class="cls-2" d="M31.75,83.33h.69v1.22a2,2,0,0,1,1.9-1.3V84h-.05a1.88,1.88,0,0,0-1.85,2.13V88h-.69Z"/><path class="cls-2" d="M34.88,88.8l.32-.54a3,3,0,0,0,1.79.59,1.53,1.53,0,0,0,1.69-1.66v-.55a2.22,2.22,0,0,1-1.83,1,2.16,2.16,0,0,1-2.19-2.18v0a2.2,2.2,0,0,1,4-1.26v-.84h.69v3.85a2.2,2.2,0,0,1-.59,1.64,2.42,2.42,0,0,1-1.77.62A3.66,3.66,0,0,1,34.88,88.8Zm3.82-3.36v0A1.64,1.64,0,0,0,37,83.84a1.54,1.54,0,0,0-1.61,1.57v0A1.56,1.56,0,0,0,37,87,1.64,1.64,0,0,0,38.7,85.44Z"/><path class="cls-2" d="M40.66,81.55h.79v.76h-.79Zm0,1.78h.7V88h-.7Z"/><path class="cls-2" d="M42.74,83.33h.69v.81A1.77,1.77,0,0,1,45,83.23a1.71,1.71,0,0,1,1.79,1.87V88h-.7V85.27a1.24,1.24,0,0,0-1.28-1.41,1.37,1.37,0,0,0-1.4,1.46V88h-.69Z"/><path class="cls-2" d="M48,88.8l.31-.54a3,3,0,0,0,1.79.59,1.54,1.54,0,0,0,1.7-1.66v-.55a2.23,2.23,0,0,1-1.83,1,2.15,2.15,0,0,1-2.19-2.18v0a2.2,2.2,0,0,1,4-1.26v-.84h.69v3.85a2.24,2.24,0,0,1-.59,1.64,2.44,2.44,0,0,1-1.78.62A3.65,3.65,0,0,1,48,88.8Zm3.81-3.36v0a1.63,1.63,0,0,0-1.71-1.58,1.54,1.54,0,0,0-1.61,1.57v0A1.57,1.57,0,0,0,50.06,87,1.63,1.63,0,0,0,51.77,85.44Z"/><path class="cls-2" d="M56.26,81.68h2.19a3.14,3.14,0,0,1,3.35,3.14h0A3.16,3.16,0,0,1,58.45,88H56.26Zm.71.66v5h1.48a2.44,2.44,0,0,0,2.61-2.48v0a2.45,2.45,0,0,0-2.61-2.49Z"/><path class="cls-2" d="M62.56,86.63h0c0-1,.81-1.51,2-1.51a5.12,5.12,0,0,1,1.43.2v-.16c0-.84-.51-1.27-1.38-1.27a3.41,3.41,0,0,0-1.42.34l-.2-.56a3.73,3.73,0,0,1,1.69-.39,2,2,0,0,1,1.5.51,1.83,1.83,0,0,1,.48,1.36V88H66v-.71a2,2,0,0,1-1.68.8A1.57,1.57,0,0,1,62.56,86.63ZM66,86.28v-.45a4.78,4.78,0,0,0-1.36-.2c-.88,0-1.36.38-1.36,1v0c0,.58.54.93,1.17.93A1.41,1.41,0,0,0,66,86.28Z"/><path class="cls-2" d="M68.05,86.75V83.94h-.64v-.61h.64v-1.4h.7v1.4h1.47v.61H68.75v2.72a.69.69,0,0,0,.78.78,1.48,1.48,0,0,0,.68-.17v.6a1.86,1.86,0,0,1-.84.2A1.19,1.19,0,0,1,68.05,86.75Z"/><path class="cls-2" d="M70.83,86.63h0c0-1,.8-1.51,2-1.51a5.26,5.26,0,0,1,1.44.2v-.16c0-.84-.52-1.27-1.39-1.27a3.33,3.33,0,0,0-1.41.34l-.21-.56a3.76,3.76,0,0,1,1.69-.39,2.07,2.07,0,0,1,1.51.51,1.87,1.87,0,0,1,.47,1.36V88h-.66v-.71a2,2,0,0,1-1.69.8A1.56,1.56,0,0,1,70.83,86.63Zm3.42-.35v-.45a4.78,4.78,0,0,0-1.36-.2c-.88,0-1.36.38-1.36,1v0c0,.58.54.93,1.17.93A1.41,1.41,0,0,0,74.25,86.28Z"/><g id="surface1"><path class="cls-2" d="M52.79,35.43v-6.5a.75.75,0,0,0-.21-.49l-7.29-7.66a.74.74,0,0,0-.52-.22H33.21a3.86,3.86,0,0,0-3.84,3.88V46.29a3.83,3.83,0,0,0,3.84,3.84h9.12a9.85,9.85,0,1,0,10.46-14.7ZM45.48,23.08l4.89,5.14H47.2a1.73,1.73,0,0,1-1.72-1.72ZM33.21,48.7a2.39,2.39,0,0,1-2.4-2.41V24.44A2.42,2.42,0,0,1,33.21,22H44.05V26.5a3.16,3.16,0,0,0,3.15,3.16h4.15v5.59l-.57,0a10,10,0,0,0-6.53,2.46H35.16a.72.72,0,1,0,0,1.43h7.76a11.7,11.7,0,0,0-1.26,2.22h-6.5a.72.72,0,1,0,0,1.43h6a10.22,10.22,0,0,0-.27,2.31,9.6,9.6,0,0,0,.7,3.64H33.21Zm17.56,4.79a8.42,8.42,0,1,1,8.42-8.41A8.42,8.42,0,0,1,50.77,53.49Z"/><path class="cls-2" d="M35.16,35.53h7.25a.72.72,0,0,0,0-1.44H35.16a.72.72,0,0,0,0,1.44Z"/><path class="cls-2" d="M54.44,44.93,51.5,48.1V40.28a.72.72,0,1,0-1.43,0V48.1l-3-3.17a.71.71,0,1,0-1.05,1l4.19,4.5a.7.7,0,0,0,1,0l4.2-4.5a.71.71,0,1,0-1-1Z"/></g></svg>