<svg id="Layer_1" data-name="Layer 1" xmlns="http://www.w3.org/2000/svg" viewBox="0 0 90 100"><defs><style>.cls-1,.cls-3{fill:#fff;}.cls-1,.cls-3,.cls-4,.cls-5,.cls-6{stroke:#74af27;}.cls-1{stroke-miterlimit:10;}.cls-2{fill:#74af27;}.cls-3,.cls-4,.cls-5,.cls-6{stroke-linecap:round;stroke-linejoin:round;}.cls-3{stroke-width:0.66px;}.cls-4,.cls-5,.cls-6{fill:none;}.cls-4{stroke-width:1.07px;}.cls-5{stroke-width:0.98px;}.cls-6{stroke-width:0.54px;}</style></defs><title>EV-Systems_Operations-EVElectricalLoadManagement</title><circle class="cls-1" cx="45" cy="37.74" r="28.35"/><path class="cls-2" d="M19.16,70.68h4.55v.65H19.87v2.15h3.44v.65H19.87v2.21h3.89V77h-4.6Z"/><path class="cls-2" d="M24.38,70.68h.79l2.24,5.43,2.25-5.43h.77L27.72,77h-.63Z"/><path class="cls-2" d="M33.83,70.68h4.55v.65H34.54v2.15H38v.65H34.54v2.21h3.89V77h-4.6Z"/><path class="cls-2" d="M39.53,70.41h.7V77h-.7Z"/><path class="cls-2" d="M41.28,74.67v0a2.29,2.29,0,0,1,2.23-2.42,2.22,2.22,0,0,1,2.17,2.46,1.77,1.77,0,0,1,0,.23H42a1.63,1.63,0,0,0,1.64,1.57,1.92,1.92,0,0,0,1.47-.66l.43.39a2.42,2.42,0,0,1-1.92.87A2.31,2.31,0,0,1,41.28,74.67ZM45,74.4a1.53,1.53,0,0,0-1.49-1.58A1.6,1.6,0,0,0,42,74.4Z"/><path class="cls-2" d="M46.34,74.68v0a2.42,2.42,0,0,1,4.24-1.6l-.45.49a1.89,1.89,0,0,0-1.42-.71,1.72,1.72,0,0,0-1.66,1.8v0a1.74,1.74,0,0,0,1.71,1.81,1.91,1.91,0,0,0,1.42-.69l.44.41a2.4,2.4,0,0,1-4.28-1.51Z"/><path class="cls-2" d="M51.74,75.75V72.94h-.65v-.61h.65v-1.4h.69v1.4h1.48v.61H52.43v2.72a.69.69,0,0,0,.78.78,1.46,1.46,0,0,0,.68-.17v.6a1.86,1.86,0,0,1-.84.2A1.18,1.18,0,0,1,51.74,75.75Z"/><path class="cls-2" d="M54.86,72.33h.69v1.22a2,2,0,0,1,1.9-1.3V73H57.4a1.88,1.88,0,0,0-1.85,2.13V77h-.69Z"/><path class="cls-2" d="M58.25,70.55H59v.76h-.79Zm0,1.78H59V77H58.3Z"/><path class="cls-2" d="M60,74.68v0a2.42,2.42,0,0,1,4.25-1.6l-.46.49a1.87,1.87,0,0,0-1.41-.71,1.72,1.72,0,0,0-1.67,1.8v0a1.74,1.74,0,0,0,1.71,1.81,1.91,1.91,0,0,0,1.43-.69l.44.41A2.41,2.41,0,0,1,60,74.68Z"/><path class="cls-2" d="M64.85,75.63h0c0-1,.81-1.51,2-1.51a5.18,5.18,0,0,1,1.43.2v-.16c0-.84-.51-1.27-1.39-1.27a3.33,3.33,0,0,0-1.41.34l-.21-.56a3.8,3.8,0,0,1,1.7-.39,2,2,0,0,1,1.5.51,1.88,1.88,0,0,1,.48,1.36V77h-.67v-.71a2,2,0,0,1-1.68.8A1.56,1.56,0,0,1,64.85,75.63Zm3.43-.35v-.45a4.8,4.8,0,0,0-1.37-.2c-.87,0-1.36.38-1.36,1v0c0,.58.54.93,1.17.93A1.41,1.41,0,0,0,68.28,75.28Z"/><path class="cls-2" d="M70.2,70.41h.7V77h-.7Z"/><path class="cls-2" d="M6.12,81.68h.71v5.65h3.54V88H6.12Z"/><path class="cls-2" d="M10.92,85.68v0a2.41,2.41,0,0,1,2.43-2.43,2.39,2.39,0,0,1,2.42,2.41v0a2.41,2.41,0,0,1-2.44,2.43A2.38,2.38,0,0,1,10.92,85.68Zm4.14,0v0a1.76,1.76,0,0,0-1.73-1.82,1.72,1.72,0,0,0-1.7,1.8v0a1.75,1.75,0,0,0,1.72,1.81A1.72,1.72,0,0,0,15.06,85.68Z"/><path class="cls-2" d="M16.4,86.63h0c0-1,.81-1.51,2-1.51a5.12,5.12,0,0,1,1.43.2v-.16c0-.84-.51-1.27-1.38-1.27a3.41,3.41,0,0,0-1.42.34l-.2-.56a3.73,3.73,0,0,1,1.69-.39,2,2,0,0,1,1.5.51,1.83,1.83,0,0,1,.48,1.36V88h-.67v-.71a2,2,0,0,1-1.68.8A1.57,1.57,0,0,1,16.4,86.63Zm3.43-.35v-.45a4.8,4.8,0,0,0-1.37-.2c-.87,0-1.35.38-1.35,1v0c0,.58.54.93,1.17.93A1.41,1.41,0,0,0,19.83,86.28Z"/><path class="cls-2" d="M21.42,85.67v0a2.29,2.29,0,0,1,2.23-2.42,2.11,2.11,0,0,1,1.78,1V81.41h.69V88h-.69v-.94a2.09,2.09,0,0,1-1.78,1A2.27,2.27,0,0,1,21.42,85.67Zm4,0v0a1.73,1.73,0,0,0-1.69-1.79,1.64,1.64,0,0,0-1.63,1.79v0a1.68,1.68,0,0,0,1.63,1.8A1.74,1.74,0,0,0,25.46,85.66Z"/><path class="cls-2" d="M30,81.68h.72L33,85.12l2.3-3.44H36V88h-.71V82.88L33,86.26h0l-2.3-3.37V88H30Z"/><path class="cls-2" d="M37,86.63h0c0-1,.81-1.51,2-1.51a5.12,5.12,0,0,1,1.43.2v-.16c0-.84-.51-1.27-1.38-1.27a3.41,3.41,0,0,0-1.42.34l-.2-.56a3.73,3.73,0,0,1,1.69-.39,2,2,0,0,1,1.5.51,1.83,1.83,0,0,1,.48,1.36V88h-.67v-.71a2,2,0,0,1-1.68.8A1.57,1.57,0,0,1,37,86.63Zm3.43-.35v-.45a4.8,4.8,0,0,0-1.37-.2c-.87,0-1.36.38-1.36,1v0c0,.58.54.93,1.17.93A1.41,1.41,0,0,0,40.45,86.28Z"/><path class="cls-2" d="M42.31,83.33H43v.81a1.76,1.76,0,0,1,1.59-.91,1.7,1.7,0,0,1,1.78,1.87V88h-.69V85.27a1.24,1.24,0,0,0-1.29-1.41A1.37,1.37,0,0,0,43,85.32V88h-.7Z"/><path class="cls-2" d="M47.24,86.63h0c0-1,.81-1.51,2-1.51a5.24,5.24,0,0,1,1.43.2v-.16c0-.84-.52-1.27-1.39-1.27a3.33,3.33,0,0,0-1.41.34l-.21-.56a3.76,3.76,0,0,1,1.69-.39,2.07,2.07,0,0,1,1.51.51,1.87,1.87,0,0,1,.47,1.36V88h-.66v-.71a2,2,0,0,1-1.69.8A1.56,1.56,0,0,1,47.24,86.63Zm3.43-.35v-.45a4.85,4.85,0,0,0-1.37-.2c-.88,0-1.36.38-1.36,1v0c0,.58.54.93,1.17.93A1.42,1.42,0,0,0,50.67,86.28Z"/><path class="cls-2" d="M52.47,88.8l.32-.54a3,3,0,0,0,1.79.59,1.53,1.53,0,0,0,1.69-1.66v-.55a2.2,2.2,0,0,1-1.82,1,2.15,2.15,0,0,1-2.19-2.18v0a2.2,2.2,0,0,1,4-1.26v-.84H57v3.85a2.21,2.21,0,0,1-.6,1.64,2.4,2.4,0,0,1-1.77.62A3.7,3.7,0,0,1,52.47,88.8Zm3.82-3.36v0a1.64,1.64,0,0,0-1.71-1.58A1.54,1.54,0,0,0,53,85.41v0A1.57,1.57,0,0,0,54.58,87,1.64,1.64,0,0,0,56.29,85.44Z"/><path class="cls-2" d="M58,85.67v0a2.29,2.29,0,0,1,2.23-2.42,2.22,2.22,0,0,1,2.17,2.46,1.77,1.77,0,0,1,0,.23H58.65a1.63,1.63,0,0,0,1.64,1.57,1.89,1.89,0,0,0,1.46-.66l.44.39a2.42,2.42,0,0,1-1.92.87A2.31,2.31,0,0,1,58,85.67Zm3.7-.27a1.54,1.54,0,0,0-1.49-1.58,1.6,1.6,0,0,0-1.51,1.58Z"/><path class="cls-2" d="M63.29,83.33H64v.79a1.7,1.7,0,0,1,1.5-.89,1.57,1.57,0,0,1,1.49.93,1.87,1.87,0,0,1,1.64-.93,1.68,1.68,0,0,1,1.73,1.88V88h-.69V85.27c0-.9-.45-1.41-1.21-1.41a1.3,1.3,0,0,0-1.28,1.44V88h-.69V85.25c0-.87-.46-1.39-1.2-1.39A1.34,1.34,0,0,0,64,85.33V88h-.7Z"/><path class="cls-2" d="M71.29,85.67v0a2.3,2.3,0,0,1,2.24-2.42,2.22,2.22,0,0,1,2.17,2.46,1.77,1.77,0,0,1,0,.23H72a1.63,1.63,0,0,0,1.63,1.57,1.92,1.92,0,0,0,1.47-.66l.43.39a2.38,2.38,0,0,1-1.91.87A2.32,2.32,0,0,1,71.29,85.67ZM75,85.4a1.53,1.53,0,0,0-1.48-1.58A1.6,1.6,0,0,0,72,85.4Z"/><path class="cls-2" d="M76.64,83.33h.69v.81a1.79,1.79,0,0,1,1.6-.91,1.7,1.7,0,0,1,1.78,1.87V88H80V85.27a1.24,1.24,0,0,0-1.29-1.41,1.38,1.38,0,0,0-1.4,1.46V88h-.69Z"/><path class="cls-2" d="M82.16,86.75V83.94h-.65v-.61h.65v-1.4h.69v1.4h1.48v.61H82.85v2.72a.69.69,0,0,0,.78.78,1.43,1.43,0,0,0,.68-.17v.6a1.83,1.83,0,0,1-.84.2A1.18,1.18,0,0,1,82.16,86.75Z"/><polygon class="cls-2" points="65.78 32.99 55.74 46.62 61.43 46.62 57.53 56.96 67.72 43.26 62 43.26 65.78 32.99"/><path class="cls-3" d="M23.26,47.12s-1.86-1.72-.46-3.47c0,0,.64-1.16,4.56-2.06a8,8,0,0,0,2.16-1,5.8,5.8,0,0,1,3.4-1.19,36.54,36.54,0,0,1,3.71-.25s3.13-.32,4,1.94a8.83,8.83,0,0,1,.43,2.5v1.19S41,45.87,41.62,46c0,0,.73.12.76-1.1V41.52s-.34-2.69,1.49-2.69h.6"/><line class="cls-3" x1="28.85" y1="47.44" x2="35.26" y2="47.44"/><ellipse class="cls-3" cx="26.17" cy="45.97" rx="2.17" ry="2.23"/><ellipse class="cls-3" cx="37.99" cy="45.97" rx="2.17" ry="2.23"/><path class="cls-2" d="M45.49,38v1.64a.34.34,0,0,1-.42.29,1.09,1.09,0,0,1-1-1s-.14-1,1.12-1.13C45.14,37.75,45.49,37.68,45.49,38Z"/><path class="cls-2" d="M46.28,38.56a.25.25,0,0,0,0-.5h-1.1v.5Z"/><path class="cls-2" d="M46.28,39.61a.25.25,0,0,0,.24-.25.24.24,0,0,0-.24-.25h-1.1v.5Z"/><path class="cls-3" d="M28.57,53.22s-1.86-1.72-.46-3.47c0,0,.64-1.16,4.56-2.07a8,8,0,0,0,2.16-1,5.91,5.91,0,0,1,3.41-1.19,36.27,36.27,0,0,1,3.7-.25s3.13-.32,4,1.94a9,9,0,0,1,.42,2.51V50.9s-.12,1.07.55,1.16c0,0,.73.13.76-1.09V47.62s-.34-2.69,1.49-2.69h.61"/><line class="cls-3" x1="34.16" y1="53.53" x2="40.58" y2="53.53"/><ellipse class="cls-3" cx="31.48" cy="52.07" rx="2.17" ry="2.23"/><ellipse class="cls-3" cx="43.3" cy="52.07" rx="2.17" ry="2.23"/><path class="cls-2" d="M50.8,44.07V45.7a.33.33,0,0,1-.41.29,1.09,1.09,0,0,1-1.06-1s-.13-.95,1.12-1.13C50.45,43.84,50.8,43.77,50.8,44.07Z"/><path class="cls-2" d="M51.6,44.66a.25.25,0,0,0,0-.5H50.5v.5Z"/><path class="cls-2" d="M51.6,45.7a.25.25,0,0,0,.24-.25.25.25,0,0,0-.24-.25H50.5v.5Z"/><path class="cls-3" d="M34.55,59.34s-1.85-1.72-.46-3.47c0,0,.64-1.16,4.56-2.06a8,8,0,0,0,2.16-1,5.87,5.87,0,0,1,3.41-1.19,36.38,36.38,0,0,1,3.71-.25s3.12-.32,4,1.94a9,9,0,0,1,.42,2.5V57s-.12,1.06.55,1.16c0,0,.73.12.76-1.1V53.74s-.33-2.69,1.49-2.69h.61"/><line class="cls-3" x1="40.14" y1="59.66" x2="46.56" y2="59.66"/><ellipse class="cls-3" cx="37.46" cy="58.19" rx="2.17" ry="2.23"/><ellipse class="cls-3" cx="49.28" cy="58.19" rx="2.17" ry="2.23"/><path class="cls-2" d="M56.78,50.19v1.64a.33.33,0,0,1-.41.29,1.1,1.1,0,0,1-1.06-1s-.13-1,1.12-1.13C56.43,50,56.78,49.9,56.78,50.19Z"/><path class="cls-2" d="M57.58,50.78a.25.25,0,0,0,0-.5h-1.1v.5Z"/><path class="cls-2" d="M57.58,51.83a.25.25,0,0,0,.24-.25.25.25,0,0,0-.24-.25h-1.1v.5Z"/><line class="cls-4" x1="35.75" y1="19.4" x2="55.73" y2="19.4"/><line class="cls-4" x1="45.74" y1="19.4" x2="45.74" y2="32.97"/><line class="cls-5" x1="50.02" y1="33.31" x2="41.46" y2="33.31"/><polyline class="cls-6" points="35.02 27.13 38.28 19.4 41.18 27.13"/><path class="cls-2" d="M42.68,27c0,1.15-2,2.08-4.57,2.08s-4.57-.93-4.57-2.08Z"/><polyline class="cls-6" points="50.28 27.13 53.54 19.4 56.44 27.13"/><path class="cls-2" d="M58,27c0,1.15-2.05,2.08-4.58,2.08S48.8,28.13,48.8,27Z"/><path class="cls-2" d="M46.34,19.4v-.82A1.17,1.17,0,0,0,47,17.52a8.25,8.25,0,0,0-1.16-2.39,8.25,8.25,0,0,0-1.16,2.39,1.15,1.15,0,0,0,.59,1v.88"/></svg>