<svg id="Layer_1" data-name="Layer 1" xmlns="http://www.w3.org/2000/svg" xmlns:xlink="http://www.w3.org/1999/xlink" viewBox="0 0 90 100"><defs><style>.cls-1,.cls-8{fill:none;}.cls-2{fill:#fff;stroke-miterlimit:10;}.cls-2,.cls-8{stroke:#74af27;}.cls-3{fill:#74af27;}.cls-4{clip-path:url(#clip-path);}.cls-5{fill:#ececec;}.cls-6{fill:#fefefe;}.cls-7{clip-path:url(#clip-path-2);}.cls-8{stroke-width:0.5px;}</style><clipPath id="clip-path"><circle class="cls-1" cx="45" cy="37.61" r="27.93"/></clipPath><clipPath id="clip-path-2"><rect class="cls-1" x="48.29" y="33.77" width="19.57" height="27.32"/></clipPath></defs><title>EV-Systems_Operations-HostManagement</title><circle class="cls-2" cx="45" cy="37.74" r="28.35"/><path class="cls-3" d="M36,70.68h.71v2.8H40.3v-2.8H41V77H40.3V74.15H36.67V77H36Z"/><path class="cls-3" d="M42.12,74.68v0a2.41,2.41,0,0,1,2.43-2.43A2.39,2.39,0,0,1,47,74.64v0a2.41,2.41,0,0,1-2.44,2.43A2.38,2.38,0,0,1,42.12,74.68Zm4.14,0v0a1.76,1.76,0,0,0-1.73-1.82,1.72,1.72,0,0,0-1.7,1.8v0a1.75,1.75,0,0,0,1.72,1.81A1.72,1.72,0,0,0,46.26,74.68Z"/><path class="cls-3" d="M47.56,76.39l.36-.49a2.75,2.75,0,0,0,1.61.59c.56,0,1-.29,1-.74v0c0-.46-.55-.64-1.16-.81s-1.54-.46-1.54-1.32v0a1.41,1.41,0,0,1,1.58-1.33,3.24,3.24,0,0,1,1.68.51l-.32.53a2.59,2.59,0,0,0-1.37-.45c-.55,0-.9.28-.9.67v0c0,.44.57.61,1.19.8s1.5.5,1.5,1.33v0a1.47,1.47,0,0,1-1.66,1.4A3.27,3.27,0,0,1,47.56,76.39Z"/><path class="cls-3" d="M52.32,75.75V72.94h-.65v-.61h.65v-1.4H53v1.4h1.48v.61H53v2.72a.69.69,0,0,0,.78.78,1.43,1.43,0,0,0,.68-.17v.6a1.83,1.83,0,0,1-.84.2A1.18,1.18,0,0,1,52.32,75.75Z"/><path class="cls-3" d="M18,81.68h.72l2.3,3.44,2.29-3.44h.72V88h-.71V82.88l-2.29,3.38h0l-2.29-3.37V88H18Z"/><path class="cls-3" d="M25.11,86.63h0c0-1,.81-1.51,2-1.51a5.24,5.24,0,0,1,1.43.2v-.16c0-.84-.52-1.27-1.39-1.27a3.33,3.33,0,0,0-1.41.34l-.21-.56a3.76,3.76,0,0,1,1.69-.39,2.07,2.07,0,0,1,1.51.51,1.87,1.87,0,0,1,.47,1.36V88h-.66v-.71a2,2,0,0,1-1.69.8A1.56,1.56,0,0,1,25.11,86.63Zm3.43-.35v-.45a4.91,4.91,0,0,0-1.37-.2c-.88,0-1.36.38-1.36,1v0c0,.58.54.93,1.17.93A1.42,1.42,0,0,0,28.54,86.28Z"/><path class="cls-3" d="M30.4,83.33h.69v.81a1.77,1.77,0,0,1,1.59-.91,1.71,1.71,0,0,1,1.79,1.87V88h-.7V85.27a1.24,1.24,0,0,0-1.28-1.41,1.38,1.38,0,0,0-1.4,1.46V88H30.4Z"/><path class="cls-3" d="M35.32,86.63h0c0-1,.81-1.51,2-1.51a5.18,5.18,0,0,1,1.43.2v-.16c0-.84-.51-1.27-1.39-1.27a3.37,3.37,0,0,0-1.41.34l-.21-.56a3.8,3.8,0,0,1,1.7-.39,2,2,0,0,1,1.5.51,1.83,1.83,0,0,1,.48,1.36V88h-.67v-.71a2,2,0,0,1-1.68.8A1.56,1.56,0,0,1,35.32,86.63Zm3.43-.35v-.45a4.8,4.8,0,0,0-1.37-.2c-.87,0-1.36.38-1.36,1v0c0,.58.54.93,1.17.93A1.41,1.41,0,0,0,38.75,86.28Z"/><path class="cls-3" d="M40.56,88.8l.31-.54a3,3,0,0,0,1.8.59,1.53,1.53,0,0,0,1.69-1.66v-.55a2.22,2.22,0,0,1-1.83,1,2.15,2.15,0,0,1-2.19-2.18v0a2.2,2.2,0,0,1,4-1.26v-.84H45v3.85a2.2,2.2,0,0,1-.59,1.64,2.44,2.44,0,0,1-1.78.62A3.65,3.65,0,0,1,40.56,88.8Zm3.82-3.36v0a1.64,1.64,0,0,0-1.71-1.58,1.55,1.55,0,0,0-1.62,1.57v0A1.57,1.57,0,0,0,42.67,87,1.64,1.64,0,0,0,44.38,85.44Z"/><path class="cls-3" d="M46,85.67v0a2.3,2.3,0,0,1,2.23-2.42,2.22,2.22,0,0,1,2.17,2.46,1.77,1.77,0,0,1,0,.23H46.73a1.63,1.63,0,0,0,1.64,1.57,1.92,1.92,0,0,0,1.47-.66l.43.39a2.4,2.4,0,0,1-1.92.87A2.31,2.31,0,0,1,46,85.67Zm3.7-.27a1.53,1.53,0,0,0-1.48-1.58,1.61,1.61,0,0,0-1.52,1.58Z"/><path class="cls-3" d="M51.38,83.33h.69v.79a1.71,1.71,0,0,1,1.5-.89,1.59,1.59,0,0,1,1.5.93,1.86,1.86,0,0,1,1.64-.93,1.68,1.68,0,0,1,1.73,1.88V88h-.7V85.27c0-.9-.45-1.41-1.2-1.41a1.29,1.29,0,0,0-1.28,1.44V88h-.7V85.25c0-.87-.46-1.39-1.19-1.39a1.35,1.35,0,0,0-1.3,1.47V88h-.69Z"/><path class="cls-3" d="M59.38,85.67v0a2.29,2.29,0,0,1,2.23-2.42,2.22,2.22,0,0,1,2.17,2.46,1.77,1.77,0,0,1,0,.23H60.08a1.63,1.63,0,0,0,1.64,1.57,1.92,1.92,0,0,0,1.47-.66l.43.39a2.42,2.42,0,0,1-1.92.87A2.31,2.31,0,0,1,59.38,85.67Zm3.7-.27a1.53,1.53,0,0,0-1.49-1.58,1.6,1.6,0,0,0-1.51,1.58Z"/><path class="cls-3" d="M64.72,83.33h.7v.81A1.76,1.76,0,0,1,67,83.23a1.7,1.7,0,0,1,1.78,1.87V88H68.1V85.27a1.24,1.24,0,0,0-1.29-1.41,1.37,1.37,0,0,0-1.39,1.46V88h-.7Z"/><path class="cls-3" d="M70.24,86.75V83.94h-.65v-.61h.65v-1.4h.69v1.4h1.48v.61H70.93v2.72a.7.7,0,0,0,.79.78,1.42,1.42,0,0,0,.67-.17v.6a1.79,1.79,0,0,1-.83.2A1.19,1.19,0,0,1,70.24,86.75Z"/><g class="cls-4"><path class="cls-3" d="M47.1,32h4.16c.28,0,.55,0,.55.37s-.27.4-.55.4H42.87c-.27,0-.52-.07-.51-.39s.24-.39.51-.39c1.41,0,2.82,0,4.23,0Z"/><path class="cls-3" d="M35.77,36.19h4.16c.28,0,.55,0,.55.38s-.27.39-.55.39H31.54c-.27,0-.52-.07-.51-.39s.24-.38.51-.38Z"/><path class="cls-3" d="M41.67,20.37h13.5a2.34,2.34,0,0,1,2.49,1.85,12.48,12.48,0,0,1,.07,1.84c0,.9,0,1.81,0,2.71,0,.61,0,1.23,0,1.84,0,.84,0,1.69,0,2.53,0,.56,0,1.13,0,1.69v4.29c0,1.12,0,2.23,0,3.34,0,.84,0,1.67,0,2.5,0,.5,0,1,0,1.51a2.25,2.25,0,0,1-1.92,1.82c-1,.06-2,.06-3,.06H45.72c-.36,0-.5.1-.49.48,0,1,0,1.93,0,2.9a1,1,0,0,0,.75,1,2.66,2.66,0,0,0,.79.12c1.22,0,2.43,0,3.65,0,.61,0,.93.29.94.79a.73.73,0,0,1-.64.78,6,6,0,0,1-.95.06H33a2.41,2.41,0,0,1-.54-.05.77.77,0,0,1-.63-.76.74.74,0,0,1,.57-.76,2.15,2.15,0,0,1,.51-.05H36a2.81,2.81,0,0,0,.65-.06c.77-.16,1.15-.4,1.12-1.35s0-1.81,0-2.72c0-.32-.11-.42-.42-.42H28.17a2.42,2.42,0,0,1-2.67-2.64q0-10.35,0-20.71a2.35,2.35,0,0,1,1.61-2.49,3.63,3.63,0,0,1,1.19-.14Zm0,1.63H28.06c-.73,0-.93.2-.93.95,0,2.73,0,5.47,0,8.2,0,4.24,0,8.47,0,12.7,0,.65.22.87.85.87H55.15c.78,0,1-.19,1-1v-8.1q0-6.37,0-12.73c0-.71-.2-.91-.89-.91Zm2,28.88c0-.89-.07-1.73-.09-2.57,0-.52,0-1,0-1.55,0-.3-.08-.42-.39-.41-1.14,0-2.28,0-3.42,0-.35,0-.43.12-.44.45a18,18,0,0,1-.2,4.08Z"/><path class="cls-3" d="M41.63,23.74H54c.58,0,.65.1.65.7,0,.83,0,1.66,0,2.49,0,.62,0,1.25,0,1.87,0,.83,0,1.66,0,2.49,0,.57,0,1.13,0,1.69,0,.94,0,1.88,0,2.82,0,.69,0,1.37,0,2.05s0,1.37,0,2.06c0,.49-.13.62-.61.62H29.38c-.6,0-.78-.2-.77-.81,0-1.46,0-2.91,0-4.36,0-1.14,0-2.28,0-3.41,0-.81,0-1.61,0-2.42,0-.62,0-1.25,0-1.87,0-.83,0-1.66,0-2.49,0-.37,0-.74.05-1.1s.27-.34.52-.34H41.63Zm0,.82H29.87c-.36,0-.48.13-.45.47s0,.59,0,.88c0,1.34,0,2.67,0,4,0,1.1,0,2.2,0,3.3,0,1.41,0,2.82,0,4.23,0,.57,0,1.15,0,1.72s0,.55.53.55H53.29c.46,0,.53-.06.54-.54s0-.71,0-1.06c0-1.45,0-2.91,0-4.36,0-.62,0-1.25,0-1.87,0-.77,0-1.54,0-2.31,0-.62,0-1.25,0-1.87,0-.9,0-1.81,0-2.71,0-.4-.15-.45-.49-.45Z"/><path class="cls-3" d="M35.77,34.67h4.16c.28,0,.55,0,.55.37s-.27.4-.55.4H31.54c-.27,0-.52-.07-.51-.39s.24-.39.51-.39Z"/><path class="cls-3" d="M35.76,30.49h4.08a.84.84,0,0,1,.36,0c.12.06.26.18.27.29s-.12.26-.22.33a.87.87,0,0,1-.4.05h-8.2c-.27,0-.61,0-.61-.35s.34-.35.6-.35Z"/><path class="cls-3" d="M34,32.74H31.51c-.26,0-.48-.05-.48-.36s.22-.4.47-.4c1.64,0,3.28,0,4.93,0,.26,0,.52.09.51.4s-.27.37-.54.36Z"/><path class="cls-3" d="M47.1,34.67h4.16c.28,0,.55,0,.55.37s-.27.4-.55.4H42.87c-.27,0-.52-.07-.51-.39s.24-.39.51-.39Z"/><path class="cls-3" d="M47.09,30.49h4.08a.84.84,0,0,1,.36,0c.12.06.26.18.27.29s-.12.26-.22.33a.87.87,0,0,1-.4.05H43c-.27,0-.61,0-.61-.35s.34-.35.6-.35Z"/><path class="cls-3" d="M45.28,36.92H42.85c-.24,0-.5,0-.49-.34s.27-.35.51-.35h4.82a.52.52,0,0,1,.22,0c.13.11.33.22.35.35s-.18.32-.4.32H45.28Z"/><path class="cls-3" d="M37.52,27H37v-.33h1.37V27h-.5v1.33h-.37Z"/><path class="cls-3" d="M39.23,26.66h.34l.71,1.67H39.9L39.75,28H39l-.15.37h-.37Zm.39,1-.22-.54-.23.54Z"/><path class="cls-3" d="M40.52,26.67h.76a.64.64,0,0,1,.49.17.52.52,0,0,1,.14.38h0a.5.5,0,0,1-.1.33.57.57,0,0,1-.26.19l.41.59h-.43l-.35-.53h-.29v.53h-.37Zm.74.8a.33.33,0,0,0,.21-.06.21.21,0,0,0,.07-.17h0a.19.19,0,0,0-.08-.18.33.33,0,0,0-.21-.06h-.36v.47Z"/><path class="cls-3" d="M42.25,26.67h.36v1.66h-.36Z"/><path class="cls-3" d="M43,26.67h1.27V27h-.9v.36h.79v.33h-.79v.64H43Z"/><path class="cls-3" d="M44.56,26.67h1.26V27h-.9v.36h.8v.33h-.8v.64h-.36Z"/><rect class="cls-5" x="49.15" y="34.63" width="18.71" height="26.46"/><rect class="cls-6" x="48.37" y="33.85" width="18.56" height="26.31"/><g class="cls-7"><rect class="cls-8" x="48.37" y="33.85" width="18.56" height="26.31"/></g><path class="cls-3" d="M54.28,36.21h.36v.66h.68v-.66h.36v1.66h-.36V37.2h-.68v.67h-.36Z"/><path class="cls-3" d="M56.88,37.9a.86.86,0,0,1-.36-.07.9.9,0,0,1-.28-.18.8.8,0,0,1-.18-.27A1,1,0,0,1,56,37h0a.88.88,0,0,1,.07-.33.9.9,0,0,1,.18-.28.84.84,0,0,1,.28-.18.86.86,0,0,1,.36-.07.78.78,0,0,1,.35.07.75.75,0,0,1,.28.18.8.8,0,0,1,.18.27.77.77,0,0,1,.07.34h0a.72.72,0,0,1-.07.33.75.75,0,0,1-.18.28.9.9,0,0,1-.28.18A.84.84,0,0,1,56.88,37.9Zm0-.34a.45.45,0,0,0,.2,0,.46.46,0,0,0,.16-.11.54.54,0,0,0,.1-.16.49.49,0,0,0,0-.21h0a.45.45,0,0,0,0-.2.48.48,0,0,0-.1-.17.57.57,0,0,0-.16-.11.48.48,0,0,0-.2,0,.46.46,0,0,0-.21,0,.33.33,0,0,0-.15.11.57.57,0,0,0-.11.16.71.71,0,0,0,0,.21h0a.64.64,0,0,0,0,.2.62.62,0,0,0,.11.17.46.46,0,0,0,.16.11A.45.45,0,0,0,56.88,37.56Z"/><path class="cls-3" d="M58.67,37.89a1.26,1.26,0,0,1-.38-.06.94.94,0,0,1-.33-.2l.22-.26a1.14,1.14,0,0,0,.23.15.75.75,0,0,0,.26,0,.3.3,0,0,0,.18,0,.14.14,0,0,0,.06-.12h0a.13.13,0,0,0,0-.06.08.08,0,0,0,0-.05l-.1,0-.17,0-.23-.07L58.18,37a.53.53,0,0,1-.12-.14.66.66,0,0,1,0-.21h0a.46.46,0,0,1,0-.21.61.61,0,0,1,.12-.16.52.52,0,0,1,.18-.1.85.85,0,0,1,.23,0,.9.9,0,0,1,.34.05,1,1,0,0,1,.28.16l-.19.27a1.19,1.19,0,0,0-.22-.12.52.52,0,0,0-.21,0,.25.25,0,0,0-.16,0,.11.11,0,0,0,0,.1h0a.17.17,0,0,0,0,.07s0,0,.06.05a.38.38,0,0,0,.11,0l.18.05L59,37a.69.69,0,0,1,.17.1.36.36,0,0,1,.1.14.48.48,0,0,1,0,.18h0a.54.54,0,0,1,0,.22.4.4,0,0,1-.13.16.49.49,0,0,1-.19.1A.88.88,0,0,1,58.67,37.89Z"/><path class="cls-3" d="M60,36.55h-.51v-.34h1.38v.34h-.51v1.32H60Z"/><path class="cls-3" d="M50.14,39.93h.54A.5.5,0,0,1,51,40a.32.32,0,0,1,.08.21h0a.32.32,0,0,1-.2.3.31.31,0,0,1,.27.31h0c0,.22-.18.35-.46.35h-.57Zm.81.34c0-.13-.1-.21-.28-.21h-.39v.44h.38c.17,0,.29-.08.29-.23Zm-.27.36h-.4v.45h.43c.19,0,.31-.08.31-.23h0C51,40.71,50.91,40.63,50.68,40.63Z"/><path class="cls-3" d="M51.93,39.92h.14l.58,1.29h-.16l-.15-.34h-.69l-.16.34h-.14Zm.36.82L52,40.09l-.3.65Z"/><path class="cls-3" d="M52.9,39.93H53l.8,1v-1H54v1.28h-.11L53,40.16v1.05H52.9Z"/><path class="cls-3" d="M54.34,39.93h.15v.77l.74-.77h.18l-.55.56.58.72h-.19l-.49-.62-.27.28v.34h-.15Z"/><path class="cls-3" d="M56.68,39.92h.14l.58,1.29h-.15l-.16-.34H56.4l-.15.34H56.1Zm.36.82-.29-.65-.3.65Z"/><path class="cls-3" d="M57.59,40.57h0a.65.65,0,0,1,.65-.66.66.66,0,0,1,.5.2l-.1.11a.56.56,0,0,0-.4-.18.51.51,0,0,0-.5.53h0a.51.51,0,0,0,.5.53.56.56,0,0,0,.41-.18l.1.09a.67.67,0,0,1-.51.22A.64.64,0,0,1,57.59,40.57Z"/><path class="cls-3" d="M58.94,40.57h0a.64.64,0,0,1,.65-.66.68.68,0,0,1,.5.2l-.1.11a.58.58,0,0,0-.4-.18.51.51,0,0,0-.5.53h0a.51.51,0,0,0,.5.53.56.56,0,0,0,.41-.18l.1.09a.69.69,0,0,1-.51.22A.64.64,0,0,1,58.94,40.57Z"/><path class="cls-3" d="M60.29,40.57h0a.65.65,0,0,1,.66-.66.64.64,0,0,1,.65.66h0a.65.65,0,0,1-.66.66A.64.64,0,0,1,60.29,40.57Zm1.16,0h0a.51.51,0,1,0-1,0h0a.51.51,0,0,0,.51.53A.5.5,0,0,0,61.45,40.57Z"/><path class="cls-3" d="M61.88,40.68v-.75H62v.74a.38.38,0,0,0,.39.43.37.37,0,0,0,.39-.42v-.75H63v.73a.54.54,0,1,1-1.07,0Z"/><path class="cls-3" d="M63.29,39.93h.14l.8,1v-1h.14v1.28h-.11l-.83-1.05v1.05h-.14Z"/><path class="cls-3" d="M65.07,40.06h-.43v-.13h1v.13h-.43v1.15h-.15Z"/><path class="cls-3" d="M61.12,43.76l.12,0v-.34h-.12v-.1h.12v-.16a.33.33,0,0,1,.1-.27.29.29,0,0,1,.23-.09.37.37,0,0,1,.32.16L61.8,43a.28.28,0,0,0-.23-.12.25.25,0,0,0-.15,0,.3.3,0,0,0-.06.2v.16h.42v.1h-.42v.34h.53v.1h-.77Z"/><path class="cls-3" d="M62.29,43.29h0c.19,0,.29-.09.29-.22h0c0-.11-.08-.19-.22-.19a.35.35,0,0,0-.27.14L62,42.94a.43.43,0,0,1,.35-.17.3.3,0,0,1,.33.3h0c0,.19-.14.28-.31.3v.17h-.08Zm0,.38h.14v.16h-.14Z"/><path class="cls-3" d="M63.09,43.29h0c.2,0,.3-.09.3-.22h0a.2.2,0,0,0-.22-.19.33.33,0,0,0-.27.14l-.08-.08a.44.44,0,0,1,.35-.17.31.31,0,0,1,.34.3h0c0,.19-.14.28-.31.3l0,.17h-.07Zm0,.38h.14v.16h-.14Z"/><path class="cls-3" d="M63.71,43.67h.14v.16h-.14Z"/><path class="cls-3" d="M64.27,43.29h0c.2,0,.3-.09.3-.22h0c0-.11-.08-.19-.22-.19a.35.35,0,0,0-.27.14L64,42.94a.46.46,0,0,1,.36-.17.3.3,0,0,1,.33.3h0c0,.19-.14.28-.31.3v.17h-.08Zm0,.38h.14v.16h-.14Z"/><path class="cls-3" d="M65.07,43.29h0c.19,0,.3-.09.3-.22h0a.2.2,0,0,0-.22-.19.33.33,0,0,0-.27.14l-.08-.08a.44.44,0,0,1,.35-.17.31.31,0,0,1,.34.3h0c0,.19-.14.28-.31.3l0,.17h-.08Zm0,.38h.14v.16h-.14Z"/><path class="cls-3" d="M61.12,45.79l.12,0v-.34h-.12v-.1h.12v-.16a.33.33,0,0,1,.1-.27.29.29,0,0,1,.23-.09.37.37,0,0,1,.32.16L61.8,45a.28.28,0,0,0-.23-.12.25.25,0,0,0-.15.05.3.3,0,0,0-.06.2v.16h.42v.1h-.42v.34h.53v.1h-.77Z"/><path class="cls-3" d="M62.29,45.32h0c.19,0,.29-.09.29-.22h0c0-.11-.08-.19-.22-.19a.35.35,0,0,0-.27.14L62,45a.43.43,0,0,1,.35-.17.3.3,0,0,1,.33.3h0c0,.19-.14.28-.31.3v.17h-.08Zm0,.38h.14v.16h-.14Z"/><path class="cls-3" d="M63.09,45.32h0c.2,0,.3-.09.3-.22h0a.2.2,0,0,0-.22-.19.33.33,0,0,0-.27.14L62.83,45a.44.44,0,0,1,.35-.17.31.31,0,0,1,.34.3h0c0,.19-.14.28-.31.3l0,.17h-.07Zm0,.38h.14v.16h-.14Z"/><path class="cls-3" d="M63.71,45.7h.14v.16h-.14Z"/><path class="cls-3" d="M64.27,45.32h0c.2,0,.3-.09.3-.22h0c0-.11-.08-.19-.22-.19a.35.35,0,0,0-.27.14L64,45a.46.46,0,0,1,.36-.17.3.3,0,0,1,.33.3h0c0,.19-.14.28-.31.3v.17h-.08Zm0,.38h.14v.16h-.14Z"/><path class="cls-3" d="M65.07,45.32h0c.19,0,.3-.09.3-.22h0a.2.2,0,0,0-.22-.19.33.33,0,0,0-.27.14L64.81,45a.44.44,0,0,1,.35-.17.31.31,0,0,1,.34.3h0c0,.19-.14.28-.31.3l0,.17h-.08Zm0,.38h.14v.16h-.14Z"/><path class="cls-3" d="M61.12,47.83l.12,0v-.34h-.12v-.1h.12v-.16a.35.35,0,0,1,.1-.27.32.32,0,0,1,.23-.09.37.37,0,0,1,.32.16l-.09.08a.26.26,0,0,0-.23-.13.2.2,0,0,0-.15.06.27.27,0,0,0-.06.19v.16h.42v.1h-.42v.34h.53v.1h-.77Z"/><path class="cls-3" d="M62.29,47.36h0c.19,0,.29-.09.29-.21h0a.2.2,0,0,0-.22-.19.35.35,0,0,0-.27.14L62,47a.41.41,0,0,1,.35-.18.3.3,0,0,1,.33.3h0c0,.19-.14.28-.31.31v.16h-.08Zm0,.38h.14v.15h-.14Z"/><path class="cls-3" d="M63.09,47.36h0c.2,0,.3-.09.3-.21h0a.2.2,0,0,0-.22-.19.33.33,0,0,0-.27.14L62.83,47a.42.42,0,0,1,.35-.18.31.31,0,0,1,.34.3h0c0,.19-.14.28-.31.31l0,.16h-.07Zm0,.38h.14v.15h-.14Z"/><path class="cls-3" d="M63.71,47.74h.14v.15h-.14Z"/><path class="cls-3" d="M64.27,47.36h0c.2,0,.3-.09.3-.21h0a.2.2,0,0,0-.22-.19.35.35,0,0,0-.27.14L64,47a.44.44,0,0,1,.36-.18.3.3,0,0,1,.33.3h0c0,.19-.14.28-.31.31v.16h-.08Zm0,.38h.14v.15h-.14Z"/><path class="cls-3" d="M65.07,47.36h0c.19,0,.3-.09.3-.21h0a.2.2,0,0,0-.22-.19.33.33,0,0,0-.27.14L64.81,47a.42.42,0,0,1,.35-.18.31.31,0,0,1,.34.3h0c0,.19-.14.28-.31.31l0,.16h-.08Zm0,.38h.14v.15h-.14Z"/><path class="cls-3" d="M61.12,49.85l.12,0v-.34h-.12v-.1h.12v-.16a.35.35,0,0,1,.1-.27.29.29,0,0,1,.23-.09.37.37,0,0,1,.32.16l-.09.07a.28.28,0,0,0-.23-.12.25.25,0,0,0-.15.05.3.3,0,0,0-.06.2v.16h.42v.1h-.42v.34h.53v.1h-.77Z"/><path class="cls-3" d="M62.29,49.38h0c.19,0,.29-.09.29-.21h0c0-.11-.08-.19-.22-.19a.35.35,0,0,0-.27.14L62,49a.41.41,0,0,1,.35-.18.3.3,0,0,1,.33.3h0c0,.19-.14.28-.31.3v.17h-.08Zm0,.38h.14v.16h-.14Z"/><path class="cls-3" d="M63.09,49.38h0c.2,0,.3-.09.3-.21h0a.2.2,0,0,0-.22-.19.33.33,0,0,0-.27.14L62.83,49a.42.42,0,0,1,.35-.18.31.31,0,0,1,.34.3h0c0,.19-.14.28-.31.3l0,.17h-.07Zm0,.38h.14v.16h-.14Z"/><path class="cls-3" d="M63.71,49.76h.14v.16h-.14Z"/><path class="cls-3" d="M64.27,49.38h0c.2,0,.3-.09.3-.21h0c0-.11-.08-.19-.22-.19a.35.35,0,0,0-.27.14L64,49a.44.44,0,0,1,.36-.18.3.3,0,0,1,.33.3h0c0,.19-.14.28-.31.3v.17h-.08Zm0,.38h.14v.16h-.14Z"/><path class="cls-3" d="M65.07,49.38h0c.19,0,.3-.09.3-.21h0a.2.2,0,0,0-.22-.19.33.33,0,0,0-.27.14L64.81,49a.42.42,0,0,1,.35-.18.31.31,0,0,1,.34.3h0c0,.19-.14.28-.31.3l0,.17h-.08Zm0,.38h.14v.16h-.14Z"/><path class="cls-3" d="M61.12,51.88l.12,0v-.34h-.12v-.1h.12v-.16a.35.35,0,0,1,.1-.27.29.29,0,0,1,.23-.09.37.37,0,0,1,.32.16l-.09.07a.28.28,0,0,0-.23-.12.25.25,0,0,0-.15,0,.3.3,0,0,0-.06.2v.16h.42v.1h-.42v.34h.53V52h-.77Z"/><path class="cls-3" d="M62.29,51.41h0c.19,0,.29-.09.29-.21h0c0-.11-.08-.19-.22-.19a.35.35,0,0,0-.27.14L62,51.07a.41.41,0,0,1,.35-.18.3.3,0,0,1,.33.3h0c0,.19-.14.28-.31.3v.17h-.08Zm0,.38h.14V52h-.14Z"/><path class="cls-3" d="M63.09,51.41h0c.2,0,.3-.09.3-.21h0a.2.2,0,0,0-.22-.19.33.33,0,0,0-.27.14l-.08-.07a.42.42,0,0,1,.35-.18.31.31,0,0,1,.34.3h0c0,.19-.14.28-.31.3l0,.17h-.07Zm0,.38h.14V52h-.14Z"/><path class="cls-3" d="M63.71,51.79h.14V52h-.14Z"/><path class="cls-3" d="M64.27,51.41h0c.2,0,.3-.09.3-.21h0c0-.11-.08-.19-.22-.19a.35.35,0,0,0-.27.14L64,51.07a.44.44,0,0,1,.36-.18.3.3,0,0,1,.33.3h0c0,.19-.14.28-.31.3v.17h-.08Zm0,.38h.14V52h-.14Z"/><path class="cls-3" d="M65.07,51.41h0c.19,0,.3-.09.3-.21h0a.2.2,0,0,0-.22-.19.33.33,0,0,0-.27.14l-.08-.07a.42.42,0,0,1,.35-.18.31.31,0,0,1,.34.3h0c0,.19-.14.28-.31.3l0,.17h-.08Zm0,.38h.14V52h-.14Z"/><path class="cls-3" d="M50.12,54.92h.13l.41.61.41-.61h.13V56h-.13v-.9l-.41.6h0l-.41-.6V56h-.13Z"/><path class="cls-3" d="M51.46,55.49h0A.57.57,0,0,1,52,54.9a.57.57,0,0,1,.57.58h0a.57.57,0,0,1-.58.58A.56.56,0,0,1,51.46,55.49Zm1,0h0a.45.45,0,1,0-.89,0h0a.45.45,0,1,0,.89,0Z"/><path class="cls-3" d="M52.87,54.92H53l.71.9v-.9h.12V56h-.1L53,55.12V56h-.13Z"/><path class="cls-3" d="M54.43,55h-.37v-.12h.88V55h-.38v1h-.13Z"/><path class="cls-3" d="M55.17,54.92h.13v.5H56v-.5h.12V56H56v-.5H55.3V56h-.13Z"/><path class="cls-3" d="M56.39,54.92h.13v1h.63V56h-.76Z"/><path class="cls-3" d="M57.73,55.6l-.47-.68h.16l.38.56.38-.56h.15l-.47.68V56h-.13Z"/><path class="cls-3" d="M59,54.92h.12V56H59Z"/><path class="cls-3" d="M59.47,54.92h.12l.71.9v-.9h.12V56h-.1l-.73-.92V56h-.12Z"/><path class="cls-3" d="M60.69,55.49h0a.56.56,0,0,1,.56-.58.6.6,0,0,1,.44.18l-.09.09a.47.47,0,0,0-.35-.15.43.43,0,0,0-.43.46h0a.44.44,0,0,0,.43.47.46.46,0,0,0,.36-.17l.09.09a.62.62,0,0,1-.45.19A.55.55,0,0,1,60.69,55.49Z"/><path class="cls-3" d="M61.87,55.49h0a.57.57,0,1,1,1.14,0h0a.57.57,0,0,1-.57.58A.56.56,0,0,1,61.87,55.49Zm1,0h0a.45.45,0,0,0-.44-.46.44.44,0,0,0-.44.46h0a.44.44,0,1,0,.88,0Z"/><path class="cls-3" d="M63.28,54.92h.12l.41.61.41-.61h.13V56h-.13v-.9l-.41.6h0l-.41-.6V56h-.12Z"/><path class="cls-3" d="M64.66,54.92h.82V55h-.69v.38h.61v.12h-.61v.39h.69V56h-.82Z"/><path class="cls-3" d="M58.31,58.61l.16,0v-.42h-.16V58h.16v-.19a.47.47,0,0,1,.11-.33.4.4,0,0,1,.29-.11.44.44,0,0,1,.39.2l-.11.08a.33.33,0,0,0-.28-.15.27.27,0,0,0-.18.07.33.33,0,0,0-.08.24V58h.51v.13h-.51v.41h.65v.13h-.95Z"/><path class="cls-3" d="M59.74,58h0c.24,0,.37-.1.37-.26h0a.25.25,0,0,0-.27-.24.4.4,0,0,0-.33.17l-.1-.09a.56.56,0,0,1,.43-.21.37.37,0,0,1,.41.36h0c0,.23-.17.34-.38.37l0,.2h-.09Zm0,.47h.17v.19h-.17Z"/><path class="cls-3" d="M60.72,58h0c.24,0,.37-.1.37-.26h0a.25.25,0,0,0-.27-.24.42.42,0,0,0-.33.17l-.1-.09a.56.56,0,0,1,.43-.21.37.37,0,0,1,.41.36h0c0,.23-.17.34-.38.37v.2h-.1Zm0,.47h.17v.19h-.17Z"/><path class="cls-3" d="M61.71,58h0c.24,0,.37-.1.37-.26h0a.25.25,0,0,0-.27-.24.42.42,0,0,0-.33.17l-.09-.09a.53.53,0,0,1,.43-.21.37.37,0,0,1,.41.36h0c0,.23-.18.34-.38.37l0,.2h-.1Zm0,.47h.17v.19h-.17Z"/><path class="cls-3" d="M62.69,58h0c.24,0,.36-.1.36-.26h0a.25.25,0,0,0-.27-.24.42.42,0,0,0-.33.17l-.09-.09a.53.53,0,0,1,.43-.21.37.37,0,0,1,.41.36h0c0,.23-.17.34-.38.37l0,.2h-.09Zm0,.47h.17v.19h-.17Z"/><path class="cls-3" d="M63.44,58.5h.16v.19h-.16Z"/><path class="cls-3" d="M64.12,58h0c.23,0,.36-.1.36-.26h0a.25.25,0,0,0-.27-.24.42.42,0,0,0-.33.17l-.09-.09a.53.53,0,0,1,.43-.21.37.37,0,0,1,.41.36h0c0,.23-.18.34-.38.37l0,.2h-.1Zm0,.47h.16v.19h-.16Z"/><path class="cls-3" d="M65.1,58h0c.24,0,.36-.1.36-.26h0a.25.25,0,0,0-.27-.24.42.42,0,0,0-.33.17l-.09-.09a.53.53,0,0,1,.43-.21.37.37,0,0,1,.41.36h0c0,.23-.17.34-.38.37l0,.2h-.09Zm0,.47h.17v.19h-.17Z"/><path class="cls-3" d="M51.26,43.66a.35.35,0,0,1-.3.21.46.46,0,0,1-.25-.08.52.52,0,0,0-.28-.09c-.11,0-.17.09-.21.18l-.09-.12a.34.34,0,0,1,.31-.21.63.63,0,0,1,.27.08.76.76,0,0,0,.25.09c.1,0,.16-.1.21-.18Z"/><path class="cls-3" d="M52,43.66a.35.35,0,0,1-.3.21.46.46,0,0,1-.25-.08.52.52,0,0,0-.28-.09c-.11,0-.17.09-.21.18l-.08-.12a.32.32,0,0,1,.3-.21.56.56,0,0,1,.27.08.85.85,0,0,0,.25.09c.1,0,.16-.1.22-.18Z"/><path class="cls-3" d="M52.83,43.66a.37.37,0,0,1-.31.21.46.46,0,0,1-.25-.08A.49.49,0,0,0,52,43.7c-.11,0-.16.09-.2.18l-.09-.12a.32.32,0,0,1,.3-.21.56.56,0,0,1,.27.08,1,1,0,0,0,.25.09c.1,0,.16-.1.22-.18Z"/><path class="cls-3" d="M53.61,43.66a.36.36,0,0,1-.31.21.49.49,0,0,1-.25-.08.47.47,0,0,0-.28-.09c-.1,0-.16.09-.2.18l-.09-.12a.33.33,0,0,1,.31-.21.63.63,0,0,1,.27.08.76.76,0,0,0,.25.09c.1,0,.15-.1.21-.18Z"/><path class="cls-3" d="M54.39,43.66a.35.35,0,0,1-.3.21.46.46,0,0,1-.25-.08.52.52,0,0,0-.28-.09c-.11,0-.17.09-.21.18l-.09-.12a.33.33,0,0,1,.31-.21.63.63,0,0,1,.27.08.76.76,0,0,0,.25.09c.1,0,.15-.1.21-.18Z"/><path class="cls-3" d="M55.17,43.66a.35.35,0,0,1-.3.21.46.46,0,0,1-.25-.08.52.52,0,0,0-.28-.09c-.11,0-.17.09-.21.18l-.08-.12a.32.32,0,0,1,.3-.21.56.56,0,0,1,.27.08.85.85,0,0,0,.25.09c.1,0,.16-.1.22-.18Z"/><path class="cls-3" d="M56,43.66a.37.37,0,0,1-.31.21.46.46,0,0,1-.25-.08.49.49,0,0,0-.28-.09c-.11,0-.16.09-.2.18l-.09-.12a.32.32,0,0,1,.3-.21.56.56,0,0,1,.27.08.85.85,0,0,0,.25.09c.1,0,.16-.1.22-.18Z"/><path class="cls-3" d="M56.74,43.66a.37.37,0,0,1-.31.21.49.49,0,0,1-.25-.08.47.47,0,0,0-.28-.09c-.1,0-.16.09-.2.18l-.09-.12a.32.32,0,0,1,.31-.21.63.63,0,0,1,.27.08.76.76,0,0,0,.25.09c.1,0,.15-.1.21-.18Z"/><path class="cls-3" d="M57.52,43.66a.35.35,0,0,1-.3.21.46.46,0,0,1-.25-.08.52.52,0,0,0-.28-.09c-.11,0-.17.09-.21.18l-.09-.12a.33.33,0,0,1,.31-.21.63.63,0,0,1,.27.08.76.76,0,0,0,.25.09c.1,0,.15-.1.21-.18Z"/><path class="cls-3" d="M58.3,43.66a.35.35,0,0,1-.3.21.46.46,0,0,1-.25-.08.52.52,0,0,0-.28-.09c-.11,0-.17.09-.21.18l-.08-.12a.32.32,0,0,1,.3-.21.56.56,0,0,1,.27.08.76.76,0,0,0,.25.09c.1,0,.16-.1.22-.18Z"/><path class="cls-3" d="M59.09,43.66a.37.37,0,0,1-.31.21.46.46,0,0,1-.25-.08.49.49,0,0,0-.28-.09.22.22,0,0,0-.2.18L58,43.76a.32.32,0,0,1,.3-.21.56.56,0,0,1,.27.08.85.85,0,0,0,.25.09c.1,0,.16-.1.22-.18Z"/><path class="cls-3" d="M51.26,45.69a.37.37,0,0,1-.3.21.46.46,0,0,1-.25-.08.53.53,0,0,0-.28-.1c-.11,0-.17.1-.21.19l-.09-.12a.34.34,0,0,1,.31-.21.77.77,0,0,1,.27.07.81.81,0,0,0,.25.1c.1,0,.16-.1.21-.18Z"/><path class="cls-3" d="M52,45.69a.37.37,0,0,1-.3.21.46.46,0,0,1-.25-.08.53.53,0,0,0-.28-.1c-.11,0-.17.1-.21.19l-.08-.12a.32.32,0,0,1,.3-.21.68.68,0,0,1,.27.07.92.92,0,0,0,.25.1c.1,0,.16-.1.22-.18Z"/><path class="cls-3" d="M52.83,45.69a.39.39,0,0,1-.31.21.46.46,0,0,1-.25-.08.5.5,0,0,0-.28-.1c-.11,0-.16.1-.2.19l-.09-.12a.32.32,0,0,1,.3-.21.68.68,0,0,1,.27.07,1.07,1.07,0,0,0,.25.1c.1,0,.16-.1.22-.18Z"/><path class="cls-3" d="M53.61,45.69a.38.38,0,0,1-.31.21.49.49,0,0,1-.25-.08.47.47,0,0,0-.28-.1c-.1,0-.16.1-.2.19l-.09-.12a.33.33,0,0,1,.31-.21.77.77,0,0,1,.27.07.81.81,0,0,0,.25.1c.1,0,.15-.1.21-.18Z"/><path class="cls-3" d="M54.39,45.69a.37.37,0,0,1-.3.21.46.46,0,0,1-.25-.08.53.53,0,0,0-.28-.1c-.11,0-.17.1-.21.19l-.09-.12a.33.33,0,0,1,.31-.21.77.77,0,0,1,.27.07.81.81,0,0,0,.25.1c.1,0,.15-.1.21-.18Z"/><path class="cls-3" d="M55.17,45.69a.37.37,0,0,1-.3.21.46.46,0,0,1-.25-.08.53.53,0,0,0-.28-.1c-.11,0-.17.1-.21.19l-.08-.12a.32.32,0,0,1,.3-.21.68.68,0,0,1,.27.07.92.92,0,0,0,.25.1c.1,0,.16-.1.22-.18Z"/><path class="cls-3" d="M56,45.69a.39.39,0,0,1-.31.21.46.46,0,0,1-.25-.08.5.5,0,0,0-.28-.1c-.11,0-.16.1-.2.19l-.09-.12a.32.32,0,0,1,.3-.21.68.68,0,0,1,.27.07.92.92,0,0,0,.25.1c.1,0,.16-.1.22-.18Z"/><path class="cls-3" d="M56.74,45.69a.39.39,0,0,1-.31.21.49.49,0,0,1-.25-.08.47.47,0,0,0-.28-.1c-.1,0-.16.1-.2.19l-.09-.12a.32.32,0,0,1,.31-.21.77.77,0,0,1,.27.07.81.81,0,0,0,.25.1c.1,0,.15-.1.21-.18Z"/><path class="cls-3" d="M57.52,45.69a.37.37,0,0,1-.3.21.46.46,0,0,1-.25-.08.53.53,0,0,0-.28-.1c-.11,0-.17.1-.21.19l-.09-.12a.33.33,0,0,1,.31-.21.77.77,0,0,1,.27.07.81.81,0,0,0,.25.1c.1,0,.15-.1.21-.18Z"/><path class="cls-3" d="M58.3,45.69a.37.37,0,0,1-.3.21.46.46,0,0,1-.25-.08.53.53,0,0,0-.28-.1c-.11,0-.17.1-.21.19l-.08-.12a.32.32,0,0,1,.3-.21.68.68,0,0,1,.27.07.81.81,0,0,0,.25.1c.1,0,.16-.1.22-.18Z"/><path class="cls-3" d="M59.09,45.69a.39.39,0,0,1-.31.21.46.46,0,0,1-.25-.08.5.5,0,0,0-.28-.1c-.11,0-.17.1-.2.19L58,45.79a.32.32,0,0,1,.3-.21.68.68,0,0,1,.27.07.92.92,0,0,0,.25.1c.1,0,.16-.1.22-.18Z"/><path class="cls-3" d="M51.26,47.72a.37.37,0,0,1-.3.21.57.57,0,0,1-.25-.08.53.53,0,0,0-.28-.1c-.11,0-.17.1-.21.19l-.09-.13a.35.35,0,0,1,.31-.2.77.77,0,0,1,.27.07.81.81,0,0,0,.25.1c.1,0,.16-.1.21-.18Z"/><path class="cls-3" d="M52,47.72a.37.37,0,0,1-.3.21.57.57,0,0,1-.25-.08.53.53,0,0,0-.28-.1c-.11,0-.17.1-.21.19l-.08-.13a.33.33,0,0,1,.3-.2.68.68,0,0,1,.27.07.92.92,0,0,0,.25.1c.1,0,.16-.1.22-.18Z"/><path class="cls-3" d="M52.83,47.72a.39.39,0,0,1-.31.21.57.57,0,0,1-.25-.08.5.5,0,0,0-.28-.1c-.11,0-.16.1-.2.19l-.09-.13a.33.33,0,0,1,.3-.2.68.68,0,0,1,.27.07,1.07,1.07,0,0,0,.25.1c.1,0,.16-.1.22-.18Z"/><path class="cls-3" d="M53.61,47.72a.38.38,0,0,1-.31.21.61.61,0,0,1-.25-.08.47.47,0,0,0-.28-.1c-.1,0-.16.1-.2.19l-.09-.13a.34.34,0,0,1,.31-.2.77.77,0,0,1,.27.07.81.81,0,0,0,.25.1c.1,0,.15-.1.21-.18Z"/><path class="cls-3" d="M54.39,47.72a.37.37,0,0,1-.3.21.57.57,0,0,1-.25-.08.53.53,0,0,0-.28-.1c-.11,0-.17.1-.21.19l-.09-.13a.34.34,0,0,1,.31-.2.77.77,0,0,1,.27.07.81.81,0,0,0,.25.1c.1,0,.15-.1.21-.18Z"/><path class="cls-3" d="M55.17,47.72a.37.37,0,0,1-.3.21.57.57,0,0,1-.25-.08.53.53,0,0,0-.28-.1c-.11,0-.17.1-.21.19l-.08-.13a.33.33,0,0,1,.3-.2.68.68,0,0,1,.27.07.92.92,0,0,0,.25.1c.1,0,.16-.1.22-.18Z"/><path class="cls-3" d="M56,47.72a.39.39,0,0,1-.31.21.57.57,0,0,1-.25-.08.5.5,0,0,0-.28-.1c-.11,0-.16.1-.2.19l-.09-.13a.33.33,0,0,1,.3-.2.68.68,0,0,1,.27.07.92.92,0,0,0,.25.1c.1,0,.16-.1.22-.18Z"/><path class="cls-3" d="M56.74,47.72a.39.39,0,0,1-.31.21.61.61,0,0,1-.25-.08.47.47,0,0,0-.28-.1c-.1,0-.16.1-.2.19l-.09-.13a.33.33,0,0,1,.31-.2.77.77,0,0,1,.27.07.81.81,0,0,0,.25.1c.1,0,.15-.1.21-.18Z"/><path class="cls-3" d="M57.52,47.72a.37.37,0,0,1-.3.21.57.57,0,0,1-.25-.08.53.53,0,0,0-.28-.1c-.11,0-.17.1-.21.19l-.09-.13a.34.34,0,0,1,.31-.2.77.77,0,0,1,.27.07.81.81,0,0,0,.25.1c.1,0,.15-.1.21-.18Z"/><path class="cls-3" d="M58.3,47.72a.37.37,0,0,1-.3.21.57.57,0,0,1-.25-.08.53.53,0,0,0-.28-.1c-.11,0-.17.1-.21.19l-.08-.13a.33.33,0,0,1,.3-.2.68.68,0,0,1,.27.07.81.81,0,0,0,.25.1c.1,0,.16-.1.22-.18Z"/><path class="cls-3" d="M59.09,47.72a.39.39,0,0,1-.31.21.57.57,0,0,1-.25-.08.5.5,0,0,0-.28-.1c-.11,0-.17.1-.2.19L58,47.81a.33.33,0,0,1,.3-.2.68.68,0,0,1,.27.07.92.92,0,0,0,.25.1c.1,0,.16-.1.22-.18Z"/><path class="cls-3" d="M51.26,49.75A.37.37,0,0,1,51,50a.57.57,0,0,1-.25-.08.53.53,0,0,0-.28-.1c-.11,0-.17.1-.21.19l-.09-.12a.35.35,0,0,1,.31-.22.81.81,0,0,1,.27.08.81.81,0,0,0,.25.1c.1,0,.16-.1.21-.18Z"/><path class="cls-3" d="M52,49.75a.37.37,0,0,1-.3.21.57.57,0,0,1-.25-.08.53.53,0,0,0-.28-.1c-.11,0-.17.1-.21.19l-.08-.12a.33.33,0,0,1,.3-.22.7.7,0,0,1,.27.08.92.92,0,0,0,.25.1c.1,0,.16-.1.22-.18Z"/><path class="cls-3" d="M52.83,49.75a.39.39,0,0,1-.31.21.57.57,0,0,1-.25-.08.5.5,0,0,0-.28-.1c-.11,0-.16.1-.2.19l-.09-.12a.33.33,0,0,1,.3-.22.7.7,0,0,1,.27.08,1.07,1.07,0,0,0,.25.1c.1,0,.16-.1.22-.18Z"/><path class="cls-3" d="M53.61,49.75a.38.38,0,0,1-.31.21.61.61,0,0,1-.25-.08.47.47,0,0,0-.28-.1c-.1,0-.16.1-.2.19l-.09-.12a.34.34,0,0,1,.31-.22.81.81,0,0,1,.27.08.81.81,0,0,0,.25.1c.1,0,.15-.1.21-.18Z"/><path class="cls-3" d="M54.39,49.75a.37.37,0,0,1-.3.21.57.57,0,0,1-.25-.08.53.53,0,0,0-.28-.1c-.11,0-.17.1-.21.19l-.09-.12a.34.34,0,0,1,.31-.22.81.81,0,0,1,.27.08.81.81,0,0,0,.25.1c.1,0,.15-.1.21-.18Z"/><path class="cls-3" d="M55.17,49.75a.37.37,0,0,1-.3.21.57.57,0,0,1-.25-.08.53.53,0,0,0-.28-.1c-.11,0-.17.1-.21.19l-.08-.12a.33.33,0,0,1,.3-.22.7.7,0,0,1,.27.08.92.92,0,0,0,.25.1c.1,0,.16-.1.22-.18Z"/><path class="cls-3" d="M56,49.75a.39.39,0,0,1-.31.21.57.57,0,0,1-.25-.08.5.5,0,0,0-.28-.1c-.11,0-.16.1-.2.19l-.09-.12a.33.33,0,0,1,.3-.22.7.7,0,0,1,.27.08.92.92,0,0,0,.25.1c.1,0,.16-.1.22-.18Z"/><path class="cls-3" d="M56.74,49.75a.39.39,0,0,1-.31.21.61.61,0,0,1-.25-.08.47.47,0,0,0-.28-.1c-.1,0-.16.1-.2.19l-.09-.12a.33.33,0,0,1,.31-.22.81.81,0,0,1,.27.08.81.81,0,0,0,.25.1c.1,0,.15-.1.21-.18Z"/><path class="cls-3" d="M57.52,49.75a.37.37,0,0,1-.3.21.57.57,0,0,1-.25-.08.53.53,0,0,0-.28-.1c-.11,0-.17.1-.21.19l-.09-.12a.34.34,0,0,1,.31-.22.81.81,0,0,1,.27.08.81.81,0,0,0,.25.1c.1,0,.15-.1.21-.18Z"/><path class="cls-3" d="M58.3,49.75A.37.37,0,0,1,58,50a.57.57,0,0,1-.25-.08.53.53,0,0,0-.28-.1c-.11,0-.17.1-.21.19l-.08-.12a.33.33,0,0,1,.3-.22.7.7,0,0,1,.27.08.81.81,0,0,0,.25.1c.1,0,.16-.1.22-.18Z"/><path class="cls-3" d="M59.09,49.75a.39.39,0,0,1-.31.21.57.57,0,0,1-.25-.08.5.5,0,0,0-.28-.1c-.11,0-.17.1-.2.19L58,49.85a.33.33,0,0,1,.3-.22.7.7,0,0,1,.27.08.92.92,0,0,0,.25.1c.1,0,.16-.1.22-.18Z"/><path class="cls-3" d="M51.26,51.78A.37.37,0,0,1,51,52a.57.57,0,0,1-.25-.08.53.53,0,0,0-.28-.1c-.11,0-.17.1-.21.19l-.09-.13a.36.36,0,0,1,.31-.21.81.81,0,0,1,.27.08.81.81,0,0,0,.25.1c.1,0,.16-.1.21-.19Z"/><path class="cls-3" d="M52,51.78a.37.37,0,0,1-.3.21.57.57,0,0,1-.25-.08.53.53,0,0,0-.28-.1c-.11,0-.17.1-.21.19l-.08-.13a.33.33,0,0,1,.3-.21.7.7,0,0,1,.27.08.92.92,0,0,0,.25.1c.1,0,.16-.1.22-.19Z"/><path class="cls-3" d="M52.83,51.78a.39.39,0,0,1-.31.21.57.57,0,0,1-.25-.08.5.5,0,0,0-.28-.1c-.11,0-.16.1-.2.19l-.09-.13a.33.33,0,0,1,.3-.21.7.7,0,0,1,.27.08,1.07,1.07,0,0,0,.25.1c.1,0,.16-.1.22-.19Z"/><path class="cls-3" d="M53.61,51.78a.38.38,0,0,1-.31.21.61.61,0,0,1-.25-.08.47.47,0,0,0-.28-.1c-.1,0-.16.1-.2.19l-.09-.13a.35.35,0,0,1,.31-.21.81.81,0,0,1,.27.08.81.81,0,0,0,.25.1c.1,0,.15-.1.21-.19Z"/><path class="cls-3" d="M54.39,51.78a.37.37,0,0,1-.3.21.57.57,0,0,1-.25-.08.53.53,0,0,0-.28-.1c-.11,0-.17.1-.21.19l-.09-.13a.35.35,0,0,1,.31-.21.81.81,0,0,1,.27.08.81.81,0,0,0,.25.1c.1,0,.15-.1.21-.19Z"/><path class="cls-3" d="M55.17,51.78a.37.37,0,0,1-.3.21.57.57,0,0,1-.25-.08.53.53,0,0,0-.28-.1c-.11,0-.17.1-.21.19l-.08-.13a.33.33,0,0,1,.3-.21.7.7,0,0,1,.27.08.92.92,0,0,0,.25.1c.1,0,.16-.1.22-.19Z"/><path class="cls-3" d="M56,51.78a.39.39,0,0,1-.31.21.57.57,0,0,1-.25-.08.5.5,0,0,0-.28-.1c-.11,0-.16.1-.2.19l-.09-.13a.33.33,0,0,1,.3-.21.7.7,0,0,1,.27.08.92.92,0,0,0,.25.1c.1,0,.16-.1.22-.19Z"/><path class="cls-3" d="M56.74,51.78a.39.39,0,0,1-.31.21.61.61,0,0,1-.25-.08.47.47,0,0,0-.28-.1c-.1,0-.16.1-.2.19l-.09-.13a.34.34,0,0,1,.31-.21.81.81,0,0,1,.27.08.81.81,0,0,0,.25.1c.1,0,.15-.1.21-.19Z"/><path class="cls-3" d="M57.52,51.78a.37.37,0,0,1-.3.21.57.57,0,0,1-.25-.08.53.53,0,0,0-.28-.1c-.11,0-.17.1-.21.19l-.09-.13a.35.35,0,0,1,.31-.21.81.81,0,0,1,.27.08.81.81,0,0,0,.25.1c.1,0,.15-.1.21-.19Z"/><path class="cls-3" d="M58.3,51.78A.37.37,0,0,1,58,52a.57.57,0,0,1-.25-.08.53.53,0,0,0-.28-.1c-.11,0-.17.1-.21.19l-.08-.13a.33.33,0,0,1,.3-.21.7.7,0,0,1,.27.08.81.81,0,0,0,.25.1c.1,0,.16-.1.22-.19Z"/><path class="cls-3" d="M59.09,51.78a.39.39,0,0,1-.31.21.57.57,0,0,1-.25-.08.5.5,0,0,0-.28-.1c-.11,0-.17.1-.2.19L58,51.87a.33.33,0,0,1,.3-.21.7.7,0,0,1,.27.08.92.92,0,0,0,.25.1c.1,0,.16-.1.22-.19Z"/><path class="cls-3" d="M51.26,58.36a.37.37,0,0,1-.3.21.57.57,0,0,1-.25-.08.53.53,0,0,0-.28-.1c-.11,0-.17.1-.21.19l-.09-.12a.34.34,0,0,1,.31-.21.77.77,0,0,1,.27.07.81.81,0,0,0,.25.1c.1,0,.16-.1.21-.18Z"/><path class="cls-3" d="M52,58.36a.37.37,0,0,1-.3.21.57.57,0,0,1-.25-.08.53.53,0,0,0-.28-.1c-.11,0-.17.1-.21.19l-.08-.12a.32.32,0,0,1,.3-.21.68.68,0,0,1,.27.07.92.92,0,0,0,.25.1c.1,0,.16-.1.22-.18Z"/><path class="cls-3" d="M52.83,58.36a.39.39,0,0,1-.31.21.57.57,0,0,1-.25-.08.5.5,0,0,0-.28-.1c-.11,0-.16.1-.2.19l-.09-.12a.32.32,0,0,1,.3-.21.68.68,0,0,1,.27.07,1.07,1.07,0,0,0,.25.1c.1,0,.16-.1.22-.18Z"/><path class="cls-3" d="M53.61,58.36a.38.38,0,0,1-.31.21.61.61,0,0,1-.25-.08.47.47,0,0,0-.28-.1c-.1,0-.16.1-.2.19l-.09-.12a.33.33,0,0,1,.31-.21.77.77,0,0,1,.27.07.81.81,0,0,0,.25.1c.1,0,.15-.1.21-.18Z"/><path class="cls-3" d="M54.39,58.36a.37.37,0,0,1-.3.21.57.57,0,0,1-.25-.08.53.53,0,0,0-.28-.1c-.11,0-.17.1-.21.19l-.09-.12a.33.33,0,0,1,.31-.21.77.77,0,0,1,.27.07.81.81,0,0,0,.25.1c.1,0,.15-.1.21-.18Z"/><path class="cls-3" d="M55.17,58.36a.37.37,0,0,1-.3.21.57.57,0,0,1-.25-.08.53.53,0,0,0-.28-.1c-.11,0-.17.1-.21.19l-.08-.12a.32.32,0,0,1,.3-.21.68.68,0,0,1,.27.07.92.92,0,0,0,.25.1c.1,0,.16-.1.22-.18Z"/><path class="cls-3" d="M56,58.36a.39.39,0,0,1-.31.21.57.57,0,0,1-.25-.08.5.5,0,0,0-.28-.1c-.11,0-.16.1-.2.19l-.09-.12a.32.32,0,0,1,.3-.21.68.68,0,0,1,.27.07.92.92,0,0,0,.25.1c.1,0,.16-.1.22-.18Z"/><path class="cls-3" d="M56.74,58.36a.39.39,0,0,1-.31.21.61.61,0,0,1-.25-.08.47.47,0,0,0-.28-.1c-.1,0-.16.1-.2.19l-.09-.12a.32.32,0,0,1,.31-.21.77.77,0,0,1,.27.07.81.81,0,0,0,.25.1c.1,0,.15-.1.21-.18Z"/></g></svg>