<svg id="Layer_1" data-name="Layer 1" xmlns="http://www.w3.org/2000/svg" xmlns:xlink="http://www.w3.org/1999/xlink" viewBox="0 0 90 100"><defs><style>.cls-1,.cls-5{fill:none;}.cls-2{fill:#fff;}.cls-2,.cls-5{stroke:#74af27;stroke-miterlimit:10;}.cls-3{fill:#74af27;}.cls-4{clip-path:url(#clip-path);}.cls-5{stroke-linecap:round;}</style><clipPath id="clip-path"><circle class="cls-1" cx="45" cy="37.74" r="28.35"/></clipPath></defs><title>EV-Systems_Operations-MobileAccess</title><circle class="cls-2" cx="45" cy="37.74" r="28.35"/><path class="cls-3" d="M31.73,70.68h.73l2.29,3.44,2.3-3.44h.72V77h-.72V71.88l-2.29,3.38h0l-2.29-3.37V77h-.7Z"/><path class="cls-3" d="M38.87,74.68v0a2.41,2.41,0,0,1,2.43-2.43,2.39,2.39,0,0,1,2.42,2.41v0a2.41,2.41,0,0,1-2.44,2.43A2.38,2.38,0,0,1,38.87,74.68Zm4.14,0v0a1.76,1.76,0,0,0-1.73-1.82,1.72,1.72,0,0,0-1.7,1.8v0a1.75,1.75,0,0,0,1.72,1.81A1.72,1.72,0,0,0,43,74.68Z"/><path class="cls-3" d="M45.4,76.09V77h-.7V70.41h.7v2.86a2.08,2.08,0,0,1,1.78-1,2.28,2.28,0,0,1,2.22,2.41v0a2.28,2.28,0,0,1-2.22,2.42A2.07,2.07,0,0,1,45.4,76.09Zm3.29-1.42v0a1.68,1.68,0,0,0-1.64-1.8,1.74,1.74,0,0,0-1.68,1.79v0a1.73,1.73,0,0,0,1.68,1.8A1.64,1.64,0,0,0,48.69,74.67Z"/><path class="cls-3" d="M50.43,70.55h.79v.76h-.79Zm0,1.78h.7V77h-.7Z"/><path class="cls-3" d="M52.57,70.41h.69V77h-.69Z"/><path class="cls-3" d="M54.31,74.67v0a2.3,2.3,0,0,1,2.24-2.42,2.22,2.22,0,0,1,2.17,2.46,1.77,1.77,0,0,1,0,.23H55a1.63,1.63,0,0,0,1.64,1.57,1.92,1.92,0,0,0,1.46-.66l.43.39a2.38,2.38,0,0,1-1.91.87A2.32,2.32,0,0,1,54.31,74.67ZM58,74.4a1.53,1.53,0,0,0-1.48-1.58A1.6,1.6,0,0,0,55,74.4Z"/><path class="cls-3" d="M33.35,81.64H34L36.89,88h-.77l-.74-1.67H32L31.21,88h-.73Zm1.76,4-1.44-3.2-1.44,3.2Z"/><path class="cls-3" d="M37.23,85.68v0a2.42,2.42,0,0,1,4.25-1.6l-.46.49a1.87,1.87,0,0,0-1.41-.71,1.72,1.72,0,0,0-1.67,1.8v0a1.74,1.74,0,0,0,1.71,1.81,1.91,1.91,0,0,0,1.42-.69l.44.41a2.4,2.4,0,0,1-4.28-1.51Z"/><path class="cls-3" d="M42,85.68v0a2.42,2.42,0,0,1,4.25-1.6l-.46.49a1.87,1.87,0,0,0-1.41-.71,1.72,1.72,0,0,0-1.67,1.8v0a1.74,1.74,0,0,0,1.71,1.81,1.91,1.91,0,0,0,1.43-.69l.44.41A2.41,2.41,0,0,1,42,85.68Z"/><path class="cls-3" d="M46.7,85.67v0a2.29,2.29,0,0,1,2.23-2.42,2.22,2.22,0,0,1,2.17,2.46,1.77,1.77,0,0,1,0,.23H47.4A1.63,1.63,0,0,0,49,87.49a1.89,1.89,0,0,0,1.46-.66l.44.39a2.42,2.42,0,0,1-1.92.87A2.31,2.31,0,0,1,46.7,85.67Zm3.7-.27a1.54,1.54,0,0,0-1.49-1.58A1.6,1.6,0,0,0,47.4,85.4Z"/><path class="cls-3" d="M51.66,87.39,52,86.9a2.75,2.75,0,0,0,1.61.59c.56,0,1-.29,1-.74v0c0-.46-.55-.64-1.16-.81s-1.54-.46-1.54-1.32v0a1.41,1.41,0,0,1,1.58-1.33,3.24,3.24,0,0,1,1.68.51l-.32.53a2.59,2.59,0,0,0-1.37-.45c-.55,0-.9.28-.9.67v0c0,.44.57.61,1.19.8s1.5.5,1.5,1.33v0a1.47,1.47,0,0,1-1.66,1.4A3.22,3.22,0,0,1,51.66,87.39Z"/><path class="cls-3" d="M55.78,87.39l.35-.49a2.75,2.75,0,0,0,1.61.59c.56,0,1-.29,1-.74v0c0-.46-.55-.64-1.16-.81S56,85.46,56,84.6v0a1.41,1.41,0,0,1,1.59-1.33,3.21,3.21,0,0,1,1.67.51l-.31.53a2.65,2.65,0,0,0-1.38-.45c-.55,0-.9.28-.9.67v0c0,.44.58.61,1.2.8s1.49.5,1.49,1.33v0a1.47,1.47,0,0,1-1.66,1.4A3.22,3.22,0,0,1,55.78,87.39Z"/><g class="cls-4"><path class="cls-5" d="M51.07,55.75H33.56a.92.92,0,0,1-.92-.92V21.17a.92.92,0,0,1,.92-.92H52a.92.92,0,0,1,.92.92v11.7"/><line class="cls-5" x1="32.64" y1="25.45" x2="52.96" y2="25.45"/><line class="cls-5" x1="32.64" y1="50.41" x2="47.29" y2="50.41"/><line class="cls-5" x1="40.54" y1="23.08" x2="44.99" y2="23.08"/><path class="cls-5" d="M69.29,58.55l-3.24-6a10.71,10.71,0,0,0-.61-7.09l-4.5-8.91s-.83-1.87-2.45-1.48"/><path class="cls-5" d="M54,35.1a1.86,1.86,0,0,1,3.1.74L59,39.35"/><path class="cls-5" d="M49.38,35.1s2.23-1.28,3.24.81l2.23,4.45"/><path class="cls-5" d="M51.07,41.78l-5-9.85s-.54-1.62-2.7-.78c0,0-1.55.71-.61,2.6l6.62,14.17"/><path class="cls-5" d="M60.42,65.19,56.2,57.91a10.36,10.36,0,0,1-6.15-3.8l-3.29-4.59s-1.78-3.08,1-5.1"/><path class="cls-5" d="M38.3,66.59l3-4.86a8.86,8.86,0,0,0,7.62-6"/><circle class="cls-5" cx="42.8" cy="52.97" r="1.18"/><path class="cls-5" d="M27.89,60.69s1.91-3,2.45-3.86c0,0-2.49-2.56-1.41-8a25.19,25.19,0,0,0-.27-7.22S27.78,39,29.74,38c0,0,2.9-.94,2.9,2.36"/></g></svg>