<svg id="Layer_1" data-name="Layer 1" xmlns="http://www.w3.org/2000/svg" xmlns:xlink="http://www.w3.org/1999/xlink" viewBox="0 0 120 100"><defs><style>.cls-1,.cls-5,.cls-9{fill:none;}.cls-2,.cls-7,.cls-8{fill:#74af27;}.cls-3,.cls-6{fill:#fff;}.cls-4{clip-path:url(#clip-path);}.cls-5,.cls-6,.cls-7,.cls-8,.cls-9{stroke:#74af27;}.cls-5,.cls-6,.cls-7,.cls-8{stroke-linecap:round;stroke-linejoin:round;}.cls-5,.cls-6{stroke-width:0.6px;}.cls-7{stroke-width:0.2px;}.cls-8{stroke-width:0.22px;}.cls-9{stroke-miterlimit:10;}</style><clipPath id="clip-path"><circle class="cls-1" cx="60" cy="37.74" r="28.35"/></clipPath></defs><title>EV-Systems_Operations-OptionalThirdPartyChargingDataSharing</title><path class="cls-2" d="M17.81,73.85v0A3.19,3.19,0,0,1,21,70.58a3.16,3.16,0,0,1,3.2,3.24h0a3.22,3.22,0,1,1-6.43,0Zm5.69,0v0a2.48,2.48,0,1,0-4.95,0h0A2.51,2.51,0,0,0,21,76.44,2.48,2.48,0,0,0,23.5,73.85Z"/><path class="cls-2" d="M25.36,72.33h.69v.94a2.1,2.1,0,0,1,1.78-1,2.27,2.27,0,0,1,2.22,2.42h0a2.27,2.27,0,0,1-2.22,2.42,2.08,2.08,0,0,1-1.78-1v2.34h-.69Zm4,2.34v0a1.68,1.68,0,0,0-1.63-1.8A1.74,1.74,0,0,0,26,74.65h0a1.73,1.73,0,0,0,1.69,1.8A1.63,1.63,0,0,0,29.34,74.67Z"/><path class="cls-2" d="M31.3,75.75V72.94h-.64v-.61h.64v-1.4H32v1.4h1.47v.61H32v2.72a.69.69,0,0,0,.78.78,1.46,1.46,0,0,0,.68-.17v.6a1.74,1.74,0,0,1-.84.2A1.19,1.19,0,0,1,31.3,75.75Z"/><path class="cls-2" d="M34.45,70.55h.79v.76h-.79Zm0,1.78h.69V77h-.69Z"/><path class="cls-2" d="M36.24,74.68v0a2.43,2.43,0,1,1,4.85,0h0a2.42,2.42,0,0,1-2.44,2.43A2.37,2.37,0,0,1,36.24,74.68Zm4.14,0v0a1.76,1.76,0,0,0-1.73-1.82A1.72,1.72,0,0,0,37,74.65h0a1.75,1.75,0,0,0,1.72,1.81A1.72,1.72,0,0,0,40.38,74.68Z"/><path class="cls-2" d="M42.07,72.33h.69v.81a1.77,1.77,0,0,1,1.59-.91,1.71,1.71,0,0,1,1.79,1.87V77h-.7V74.27a1.24,1.24,0,0,0-1.28-1.41,1.38,1.38,0,0,0-1.4,1.46V77h-.69Z"/><path class="cls-2" d="M47,75.64v0c0-1,.81-1.51,2-1.51a5.18,5.18,0,0,1,1.43.2v-.16c0-.84-.51-1.27-1.38-1.27a3.38,3.38,0,0,0-1.42.34l-.2-.56a3.73,3.73,0,0,1,1.69-.39,2,2,0,0,1,1.5.51,1.83,1.83,0,0,1,.48,1.36V77h-.67v-.71a2,2,0,0,1-1.68.8A1.56,1.56,0,0,1,47,75.64Zm3.43-.36v-.45a4.8,4.8,0,0,0-1.37-.2c-.87,0-1.36.38-1.36,1v0c0,.58.54.93,1.17.93A1.41,1.41,0,0,0,50.42,75.28Z"/><path class="cls-2" d="M52.35,70.41H53V77h-.69Z"/><path class="cls-2" d="M58.59,71.34H56.48v-.66h5v.66H59.31V77h-.72Z"/><path class="cls-2" d="M62.23,70.41h.69v2.73a1.77,1.77,0,0,1,1.59-.91A1.71,1.71,0,0,1,66.3,74.1V77h-.7V74.27a1.24,1.24,0,0,0-1.28-1.41,1.37,1.37,0,0,0-1.4,1.46V77h-.69Z"/><path class="cls-2" d="M67.52,70.55h.79v.76h-.79Zm0,1.78h.7V77h-.7Z"/><path class="cls-2" d="M69.6,72.33h.69v1.22a2,2,0,0,1,1.9-1.3V73h0a1.88,1.88,0,0,0-1.85,2.13V77H69.6Z"/><path class="cls-2" d="M72.51,74.67v0a2.29,2.29,0,0,1,2.23-2.42,2.11,2.11,0,0,1,1.78,1V70.41h.69V77h-.69v-.94a2.09,2.09,0,0,1-1.78,1A2.27,2.27,0,0,1,72.51,74.67Zm4,0h0a1.73,1.73,0,0,0-1.69-1.8,1.64,1.64,0,0,0-1.63,1.8h0a1.68,1.68,0,0,0,1.63,1.8A1.74,1.74,0,0,0,76.55,74.66Z"/><path class="cls-2" d="M81,70.68H83.4c1.42,0,2.35.76,2.35,2v0c0,1.36-1.13,2.06-2.47,2.06H81.75V77H81Zm2.27,3.43c1,0,1.72-.55,1.72-1.38v0c0-.9-.67-1.37-1.69-1.37H81.75v2.77Z"/><path class="cls-2" d="M86.22,75.64v0c0-1,.81-1.51,2-1.51a5.18,5.18,0,0,1,1.43.2v-.16c0-.84-.51-1.27-1.38-1.27a3.38,3.38,0,0,0-1.42.34l-.2-.56a3.73,3.73,0,0,1,1.69-.39,2,2,0,0,1,1.5.51,1.83,1.83,0,0,1,.48,1.36V77h-.67v-.71a2,2,0,0,1-1.68.8A1.56,1.56,0,0,1,86.22,75.64Zm3.43-.36v-.45a4.8,4.8,0,0,0-1.37-.2c-.87,0-1.36.38-1.36,1v0c0,.58.54.93,1.17.93A1.41,1.41,0,0,0,89.65,75.28Z"/><path class="cls-2" d="M91.51,72.33h.7v1.22a2,2,0,0,1,1.9-1.3V73h-.06a1.88,1.88,0,0,0-1.84,2.13V77h-.7Z"/><path class="cls-2" d="M95.13,75.75V72.94h-.65v-.61h.65v-1.4h.69v1.4H97.3v.61H95.82v2.72a.7.7,0,0,0,.79.78,1.42,1.42,0,0,0,.67-.17v.6a1.67,1.67,0,0,1-.83.2A1.19,1.19,0,0,1,95.13,75.75Z"/><path class="cls-2" d="M101.74,72.33h.74l-2,4.81c-.39,1-.84,1.31-1.55,1.31a2.19,2.19,0,0,1-1-.23l.24-.55a1.41,1.41,0,0,0,.73.17c.41,0,.67-.21,1-.87l-2.11-4.64h.76l1.69,3.88Z"/><path class="cls-2" d="M12.71,84.85v0a3.17,3.17,0,0,1,3.18-3.25,3.25,3.25,0,0,1,2.46,1l-.49.52a2.71,2.71,0,0,0-2-.87,2.48,2.48,0,0,0-2.44,2.59h0a2.5,2.5,0,0,0,2.44,2.61,2.76,2.76,0,0,0,2-.91l.47.46a3.31,3.31,0,0,1-2.52,1.1A3.14,3.14,0,0,1,12.71,84.85Z"/><path class="cls-2" d="M19.24,81.41h.69v2.73a1.79,1.79,0,0,1,1.6-.91,1.7,1.7,0,0,1,1.78,1.87V88h-.69V85.27a1.24,1.24,0,0,0-1.29-1.41,1.38,1.38,0,0,0-1.4,1.46V88h-.69Z"/><path class="cls-2" d="M24.16,86.64v0c0-1,.81-1.51,2-1.51a5.12,5.12,0,0,1,1.43.2v-.16c0-.84-.51-1.27-1.38-1.27a3.41,3.41,0,0,0-1.42.34l-.2-.56a3.73,3.73,0,0,1,1.69-.39,2,2,0,0,1,1.5.51,1.83,1.83,0,0,1,.48,1.36V88h-.67v-.71a2,2,0,0,1-1.68.8A1.57,1.57,0,0,1,24.16,86.64Zm3.43-.36v-.45a4.8,4.8,0,0,0-1.37-.2c-.87,0-1.35.38-1.35,1v0c0,.58.54.93,1.17.93A1.41,1.41,0,0,0,27.59,86.28Z"/><path class="cls-2" d="M29.46,83.33h.69v1.22a2,2,0,0,1,1.9-1.3V84H32a1.88,1.88,0,0,0-1.84,2.13V88h-.69Z"/><path class="cls-2" d="M32.59,88.8l.31-.54a3,3,0,0,0,1.79.59,1.54,1.54,0,0,0,1.7-1.66v-.55a2.23,2.23,0,0,1-1.83,1,2.15,2.15,0,0,1-2.19-2.18v0a2.16,2.16,0,0,1,2.19-2.2,2.21,2.21,0,0,1,1.82.94v-.84h.69v3.85a2.24,2.24,0,0,1-.59,1.64,2.44,2.44,0,0,1-1.78.62A3.65,3.65,0,0,1,32.59,88.8Zm3.81-3.36v0a1.63,1.63,0,0,0-1.71-1.58,1.54,1.54,0,0,0-1.61,1.57v0A1.57,1.57,0,0,0,34.69,87,1.63,1.63,0,0,0,36.4,85.44Z"/><path class="cls-2" d="M38.37,81.55h.79v.76h-.79Zm0,1.78h.69V88h-.69Z"/><path class="cls-2" d="M40.44,83.33h.7v.81a1.76,1.76,0,0,1,1.59-.91,1.7,1.7,0,0,1,1.78,1.87V88h-.69V85.27a1.24,1.24,0,0,0-1.29-1.41,1.37,1.37,0,0,0-1.39,1.46V88h-.7Z"/><path class="cls-2" d="M45.66,88.8l.32-.54a3,3,0,0,0,1.79.59,1.53,1.53,0,0,0,1.69-1.66v-.55a2.2,2.2,0,0,1-1.82,1,2.15,2.15,0,0,1-2.19-2.18v0a2.2,2.2,0,0,1,4-1.26v-.84h.7v3.85a2.21,2.21,0,0,1-.6,1.64,2.4,2.4,0,0,1-1.77.62A3.68,3.68,0,0,1,45.66,88.8Zm3.82-3.36v0a1.64,1.64,0,0,0-1.71-1.58,1.54,1.54,0,0,0-1.61,1.57v0A1.57,1.57,0,0,0,47.77,87,1.64,1.64,0,0,0,49.48,85.44Z"/><path class="cls-2" d="M54,81.68h2.19a3.14,3.14,0,0,1,3.35,3.14h0A3.16,3.16,0,0,1,56.16,88H54Zm.71.66v5h1.48a2.44,2.44,0,0,0,2.61-2.48v0a2.45,2.45,0,0,0-2.61-2.49Z"/><path class="cls-2" d="M60.27,86.64v0c0-1,.81-1.51,2-1.51a5.18,5.18,0,0,1,1.43.2v-.16c0-.84-.51-1.27-1.39-1.27a3.37,3.37,0,0,0-1.41.34l-.21-.56a3.8,3.8,0,0,1,1.7-.39,2,2,0,0,1,1.5.51,1.83,1.83,0,0,1,.48,1.36V88h-.67v-.71a2,2,0,0,1-1.68.8A1.56,1.56,0,0,1,60.27,86.64Zm3.43-.36v-.45a4.8,4.8,0,0,0-1.37-.2c-.87,0-1.36.38-1.36,1v0c0,.58.54.93,1.17.93A1.41,1.41,0,0,0,63.7,86.28Z"/><path class="cls-2" d="M65.76,86.75V83.94h-.65v-.61h.65v-1.4h.69v1.4h1.48v.61H66.45v2.72a.7.7,0,0,0,.79.78,1.42,1.42,0,0,0,.67-.17v.6a1.67,1.67,0,0,1-.83.2A1.19,1.19,0,0,1,65.76,86.75Z"/><path class="cls-2" d="M68.53,86.64v0c0-1,.81-1.51,2-1.51a5.12,5.12,0,0,1,1.43.2v-.16c0-.84-.51-1.27-1.38-1.27a3.41,3.41,0,0,0-1.42.34l-.2-.56a3.73,3.73,0,0,1,1.69-.39,2,2,0,0,1,1.5.51,1.83,1.83,0,0,1,.48,1.36V88H72v-.71a2,2,0,0,1-1.68.8A1.57,1.57,0,0,1,68.53,86.64ZM72,86.28v-.45a4.8,4.8,0,0,0-1.37-.2c-.87,0-1.36.38-1.36,1v0c0,.58.54.93,1.18.93A1.41,1.41,0,0,0,72,86.28Z"/><path class="cls-2" d="M76,87.07l.44-.52a3,3,0,0,0,2.16.89c.85,0,1.4-.45,1.4-1.07v0c0-.59-.31-.92-1.63-1.2s-2.12-.78-2.12-1.82v0a1.86,1.86,0,0,1,2.07-1.72,3.32,3.32,0,0,1,2.22.78l-.42.55a2.75,2.75,0,0,0-1.82-.69c-.82,0-1.34.45-1.34,1v0c0,.59.33.93,1.71,1.22s2.05.82,2.05,1.79h0c0,1.08-.9,1.79-2.15,1.79A3.69,3.69,0,0,1,76,87.07Z"/><path class="cls-2" d="M81.74,81.41h.7v2.73A1.76,1.76,0,0,1,84,83.23a1.7,1.7,0,0,1,1.78,1.87V88h-.69V85.27a1.24,1.24,0,0,0-1.29-1.41,1.37,1.37,0,0,0-1.39,1.46V88h-.7Z"/><path class="cls-2" d="M86.67,86.64v0c0-1,.81-1.51,2-1.51a5.24,5.24,0,0,1,1.43.2v-.16c0-.84-.51-1.27-1.39-1.27a3.33,3.33,0,0,0-1.41.34l-.21-.56a3.76,3.76,0,0,1,1.69-.39,2.07,2.07,0,0,1,1.51.51,1.87,1.87,0,0,1,.47,1.36V88h-.66v-.71a2,2,0,0,1-1.69.8A1.56,1.56,0,0,1,86.67,86.64Zm3.43-.36v-.45a4.85,4.85,0,0,0-1.37-.2c-.87,0-1.36.38-1.36,1v0c0,.58.54.93,1.17.93A1.42,1.42,0,0,0,90.1,86.28Z"/><path class="cls-2" d="M92,83.33h.69v1.22a2,2,0,0,1,1.9-1.3V84h0a1.88,1.88,0,0,0-1.85,2.13V88H92Z"/><path class="cls-2" d="M95.35,81.55h.79v.76h-.79Zm.05,1.78h.69V88H95.4Z"/><path class="cls-2" d="M97.43,83.33h.69v.81a1.79,1.79,0,0,1,1.6-.91,1.7,1.7,0,0,1,1.78,1.87V88h-.69V85.27a1.24,1.24,0,0,0-1.29-1.41,1.38,1.38,0,0,0-1.4,1.46V88h-.69Z"/><path class="cls-2" d="M102.65,88.8l.32-.54a3,3,0,0,0,1.79.59,1.53,1.53,0,0,0,1.69-1.66v-.55a2.22,2.22,0,0,1-1.83,1,2.16,2.16,0,0,1-2.19-2.18v0a2.16,2.16,0,0,1,2.19-2.2,2.19,2.19,0,0,1,1.82.94v-.84h.69v3.85a2.2,2.2,0,0,1-.59,1.64,2.42,2.42,0,0,1-1.77.62A3.66,3.66,0,0,1,102.65,88.8Zm3.82-3.36v0a1.64,1.64,0,0,0-1.71-1.58,1.54,1.54,0,0,0-1.61,1.57v0A1.56,1.56,0,0,0,104.76,87,1.64,1.64,0,0,0,106.47,85.44Z"/><circle class="cls-3" cx="60" cy="37.74" r="28.35"/><g class="cls-4"><polyline class="cls-5" points="57.58 35.11 60.65 32.04 63.71 35.11"/><line class="cls-5" x1="60.65" y1="32.04" x2="60.65" y2="40.05"/><path class="cls-5" d="M71.3,49.25a3.68,3.68,0,0,0-1.38.26,4.18,4.18,0,0,0-3.46-3c0-.14,0-.29,0-.43a4.43,4.43,0,0,0-8.83,0,3.91,3.91,0,0,0,0,.49,4.44,4.44,0,0,0-2.78-1A4.17,4.17,0,0,0,50.62,49l-.37,0A3.88,3.88,0,0,0,46.6,51.8h-.14a2.43,2.43,0,1,0,0,4.86H71.3a3.7,3.7,0,1,0,0-7.4"/><path class="cls-5" d="M64,29.21s.21-3.24-2.49-4.38l-2.61-1.39a4.38,4.38,0,0,1-5.48,0l-2.74,1.34a4.52,4.52,0,0,0-2.49,4.43"/><polyline class="cls-5" points="55.58 25.67 53.43 26.32 52.42 23.91"/><polyline class="cls-5" points="56.51 25.59 58.7 26.32 59.76 23.91"/><path class="cls-5" d="M52.42,18c-.13-1.17-.15-3.24,2.82-3.79a5,5,0,0,1,2.15,0A3.26,3.26,0,0,1,59.76,18c-.06.53-.2,1.59-.3,2.11-.22,1.11-.73,3.09-3.4,3C55,23,53.32,23,52.84,20.19,52.74,19.63,52.49,18.52,52.42,18Z"/><path class="cls-5" d="M59.76,18c-1.89,0-1.63-1.68-1.63-1.68s-1.54,1.53-5.67,1.12"/><path class="cls-6" d="M68.75,55.3v1.29c0,1.07,1.78,1.94,4,1.94s4-.87,4-1.94V55.3Z"/><path class="cls-6" d="M76.71,55.3c0,1.07-1.78,1.94-4,1.94s-4-.87-4-1.94,1.78-1.93,4-1.93S76.71,54.23,76.71,55.3Z"/><path class="cls-6" d="M68.75,54.08v1.29c0,1.07,1.78,1.93,4,1.93s4-.86,4-1.93V54.08Z"/><path class="cls-6" d="M76.71,54.08c0,1.07-1.78,1.93-4,1.93s-4-.86-4-1.93,1.78-1.94,4-1.94S76.71,53,76.71,54.08Z"/><path class="cls-6" d="M68.75,52.79v1.29c0,1.07,1.78,1.93,4,1.93s4-.86,4-1.93V52.79Z"/><path class="cls-6" d="M76.71,52.79c0,1.07-1.78,1.93-4,1.93s-4-.86-4-1.93,1.78-1.94,4-1.94S76.71,51.72,76.71,52.79Z"/><path class="cls-7" d="M64.63,54.17H57.14A.13.13,0,0,1,57,54V47.66a.13.13,0,0,1,.14-.13.13.13,0,0,1,.13.13v6.25h7.36a.13.13,0,0,1,0,.26Z"/><path class="cls-7" d="M64,53h0a.13.13,0,0,1-.13-.09l-1-3.09-.73,1.41a.17.17,0,0,1-.13.07.16.16,0,0,1-.12-.09l-.78-2.34-.84,1.9a.12.12,0,0,1-.11.08.13.13,0,0,1-.13-.07l-.4-.76-.88,1.65a.12.12,0,0,1-.12.07.13.13,0,0,1-.12-.08L58,50.42a.13.13,0,0,1,.07-.17.14.14,0,0,1,.18.07l.41,1,.86-1.62a.14.14,0,0,1,.24,0l.39.73.87-2a.12.12,0,0,1,.12-.07.11.11,0,0,1,.12.09l.8,2.36.74-1.41a.11.11,0,0,1,.12-.07.13.13,0,0,1,.12.09l1,3,.19-.54a.15.15,0,0,1,.18-.08.14.14,0,0,1,.08.17l-.33.91A.13.13,0,0,1,64,53Z"/><path class="cls-2" d="M67.74,21.82H72.2a.78.78,0,0,1,.82.61A4.15,4.15,0,0,1,73,23v.9c0,.2,0,.4,0,.6s0,.56,0,.84v2c0,.37,0,.74,0,1.11s0,.55,0,.82a4.18,4.18,0,0,1,0,.5.73.73,0,0,1-.63.6c-.33,0-.66,0-1,0-.78,0-1.56,0-2.34,0-.12,0-.16,0-.16.16,0,.32,0,.64,0,1a.32.32,0,0,0,.25.34.82.82,0,0,0,.26,0h1.21c.2,0,.31.09.31.26a.25.25,0,0,1-.21.26h-6a.28.28,0,0,1-.21-.25.24.24,0,0,1,.19-.25.47.47,0,0,1,.17,0h1.24c.25-.06.38-.14.36-.45s0-.6,0-.9c0-.11,0-.14-.14-.14h-3a.79.79,0,0,1-.88-.87V22.69a.77.77,0,0,1,.53-.82,1.29,1.29,0,0,1,.4-.05Zm0,.54H63.24c-.24,0-.3.07-.3.31v6.91c0,.21.07.28.28.28h9c.26,0,.32-.06.32-.32V22.66c0-.23-.07-.3-.3-.3Zm.67,9.54c0-.3,0-.58,0-.85v-.51c0-.1,0-.14-.13-.14-.37,0-.75,0-1.13,0-.11,0-.14,0-.14.15a6.12,6.12,0,0,1-.07,1.35Z"/><path class="cls-3" d="M67.73,22.36H63.24c-.24,0-.3.07-.3.31v6.91c0,.21.07.28.28.28h9c.26,0,.32-.06.32-.32V22.66c0-.23-.07-.3-.3-.3Z"/><path class="cls-8" d="M70.82,29h-6.2a.11.11,0,0,1-.11-.11V23.56a.11.11,0,0,1,.22,0v5.17h6.09a.11.11,0,1,1,0,.22Z"/><path class="cls-8" d="M70.33,28h0a.1.1,0,0,1-.1-.07l-.84-2.57-.61,1.17a.11.11,0,0,1-.1.06.11.11,0,0,1-.1-.08l-.65-1.93-.69,1.58a.12.12,0,0,1-.1.06.1.1,0,0,1-.1-.06l-.33-.63L66,26.89a.11.11,0,0,1-.1.06.11.11,0,0,1-.1-.07l-.43-1a.12.12,0,0,1,.06-.15.12.12,0,0,1,.14.06l.34.82.72-1.34a.11.11,0,0,1,.2,0l.32.61.72-1.63a.11.11,0,0,1,.1-.07.1.1,0,0,1,.1.08l.66,2L69.32,25a.1.1,0,0,1,.11-.06.1.1,0,0,1,.09.07l.82,2.51.16-.44a.11.11,0,0,1,.14-.07.11.11,0,0,1,.06.14l-.26.75A.12.12,0,0,1,70.33,28Z"/></g><circle class="cls-9" cx="60" cy="37.74" r="28.35"/></svg>