<svg id="Layer_1" data-name="Layer 1" xmlns="http://www.w3.org/2000/svg" xmlns:xlink="http://www.w3.org/1999/xlink" viewBox="0 0 90 100"><defs><style>.cls-1,.cls-5{fill:none;}.cls-2,.cls-8{fill:#fff;}.cls-2,.cls-5{stroke:#74af27;}.cls-2{stroke-miterlimit:10;}.cls-3{clip-path:url(#clip-path);}.cls-4,.cls-9{fill:#74af27;}.cls-5{stroke-linecap:round;stroke-linejoin:round;stroke-width:1.04px;}.cls-6{clip-path:url(#clip-path-2);}.cls-7{fill:#5a5a5c;}.cls-9{fill-rule:evenodd;}</style><clipPath id="clip-path"><circle class="cls-1" cx="44.97" cy="37.61" r="28.35"/></clipPath><clipPath id="clip-path-2"><rect class="cls-1" x="30.96" y="20.04" width="28.02" height="21.27"/></clipPath></defs><title>EV-Systems_Operations-Cloud-BasedBackOffice</title><circle class="cls-2" cx="45" cy="37.74" r="28.35"/><g class="cls-3"><path class="cls-4" d="M37,51.65a1,1,0,0,1-.56-.2.92.92,0,0,1-.14-1.28,12.13,12.13,0,0,1,2.45-2,11.68,11.68,0,0,1,5.61-1.92c3.24-.19,6.35,1.16,9.23,4a.9.9,0,1,1-1.27,1.28c-2.49-2.46-5.11-3.64-7.79-3.5a10,10,0,0,0-4.75,1.61,9.87,9.87,0,0,0-2.06,1.68A1,1,0,0,1,37,51.65Zm2.76,2a7.47,7.47,0,0,1,4.88-2.42,7.67,7.67,0,0,1,5.57,2.57.91.91,0,0,0,1.26-1.3c-2.2-2.13-4.52-3.17-6.9-3.08a9.15,9.15,0,0,0-6.16,3,.9.9,0,0,0,.07,1.27.91.91,0,0,0,1.28-.07ZM41.89,56a4.07,4.07,0,0,1,2.65-1.5,4.3,4.3,0,0,1,3.54,1.71.9.9,0,0,0,1.28,0,.91.91,0,0,0,.06-1.28c-2-2.11-3.82-2.41-5.05-2.29a5.86,5.86,0,0,0-4,2.37.9.9,0,0,0,.3,1.24,1,1,0,0,0,.46.14A.94.94,0,0,0,41.89,56Z"/><path class="cls-5" d="M63.22,30.58a5.8,5.8,0,0,0-2.13.4,6.45,6.45,0,0,0-5.35-4.68,4.92,4.92,0,0,0,0-.67A6.57,6.57,0,0,0,49,19.34a6.57,6.57,0,0,0-6.82,6.29,6.49,6.49,0,0,0,0,.77,6.85,6.85,0,0,0-4.3-1.49,6.42,6.42,0,0,0-6.61,5.21,5.63,5.63,0,0,0-.58,0,6,6,0,0,0-5.64,4.42h-.22a3.76,3.76,0,1,0,0,7.51H63.22a5.72,5.72,0,1,0,0-11.44"/><g class="cls-6"><rect class="cls-7" x="42.04" y="20.96" width="5.86" height="17.89" rx="0.23"/><path class="cls-8" d="M47.67,38.61H42.28V21.19h5.39ZM43,23.26h3.88v-.4H43Zm0,1.4h3.88v-.4H43Zm0,1.4h3.88v-.4H43Zm0,1.4h3.88v-.4H43Zm0,1.4h3.88v-.4H43Zm0,1.4h3.88v-.39H43Zm0,1.4h3.88v-.39H43Zm0,1.41h3.88v-.4H43Zm0,1.4h3.88v-.4H43Zm0,1.4h3.88v-.4H43Zm4.64-15.14H42.28a.46.46,0,0,0-.47.46V38.61a.47.47,0,0,0,.47.47h5.39a.47.47,0,0,0,.46-.47V21.19a.46.46,0,0,0-.46-.46"/><path class="cls-9" d="M38.05,40.87a.23.23,0,0,1-.11,0,.24.24,0,0,1-.12-.2V22.44a.23.23,0,0,1,.08-.17.24.24,0,0,1,.15-.06h0c.57.1,1.14.24,1.69.37s1.09.25,1.64.35a.24.24,0,0,1,.19.23V38.28a.21.21,0,0,1-.11.19c-.52.34-1,.73-1.59,1.13s-1.14.85-1.73,1.23a.2.2,0,0,1-.13,0"/><path class="cls-8" d="M38.05,22.44c1.13.21,2.22.53,3.33.73V38.28c-1.07.69-2.18,1.61-3.33,2.36V22.44m0-.46a.44.44,0,0,0-.29.11.46.46,0,0,0-.17.35v18.2a.45.45,0,0,0,.24.4.46.46,0,0,0,.22.06A.44.44,0,0,0,38.3,41c.6-.38,1.18-.81,1.74-1.23s1.07-.79,1.59-1.12a.47.47,0,0,0,.21-.39V23.17a.46.46,0,0,0-.38-.45c-.54-.1-1.1-.23-1.63-.36s-1.12-.26-1.69-.37h-.09"/><path class="cls-9" d="M37.57,40.87l-.09,0-5.26-2.27a.25.25,0,0,1-.14-.22V24.18a.24.24,0,0,1,.16-.22l5.26-1.73.07,0a.24.24,0,0,1,.14.05.21.21,0,0,1,.09.18v18.2a.22.22,0,0,1-.1.19.2.2,0,0,1-.13,0m-1.22-3.76v-.24l-3-.71v.14Zm0-2.24v-.25l-3-.39v.15Zm0-2.24v-.25l-3-.08v.16Zm-3-2.1,3-.14v-.25l-3,.24Zm0-1.92,3-.46V27.9l-3,.56Zm0-1.93,3-.78v-.24l-3,.88Z"/><path class="cls-8" d="M37.57,22.44v18.2l-5.26-2.28V24.18l5.26-1.74M33.11,27l3.47-.89v-.73l-3.47,1V27m0,1.9,3.47-.52v-.73l-3.47.64v.61m0,1.9,3.47-.16v-.72l-3.47.27v.61m3.47,2.11v-.73l-3.47-.09v.61l3.47.21m0,2.27v-.73L33.11,34v.61l3.47.58m0,2.26v-.73l-3.47-.82v.61l3.47.94m1-15.43a.35.35,0,0,0-.14,0l-1,.33-4.24,1.4a.46.46,0,0,0-.32.44V38.36a.46.46,0,0,0,.28.43l3.19,1.38,2.07.89a.39.39,0,0,0,.18,0,.5.5,0,0,0,.26-.08.45.45,0,0,0,.21-.38V22.44a.45.45,0,0,0-.2-.37.44.44,0,0,0-.27-.09"/><path class="cls-9" d="M51.89,40.87a.17.17,0,0,1-.12,0C51.18,40.45,50.6,40,50,39.6s-1.08-.79-1.6-1.13a.23.23,0,0,1-.1-.19V23.17a.24.24,0,0,1,.19-.23c.54-.1,1.1-.23,1.64-.36s1.11-.26,1.68-.36h0a.2.2,0,0,1,.15.06.23.23,0,0,1,.08.17v18.2a.22.22,0,0,1-.12.2.2.2,0,0,1-.11,0"/><path class="cls-8" d="M51.89,22.44v18.2c-1.14-.75-2.25-1.67-3.32-2.36V23.17c1.11-.2,2.2-.52,3.32-.73m0-.46h-.08c-.58.11-1.15.24-1.7.37s-1.08.26-1.63.36a.45.45,0,0,0-.37.45V38.28a.45.45,0,0,0,.21.39c.51.33,1,.71,1.58,1.12s1.15.85,1.74,1.23a.46.46,0,0,0,.25.08.43.43,0,0,0,.22-.06.45.45,0,0,0,.24-.4V22.44a.46.46,0,0,0-.46-.46"/><path class="cls-9" d="M52.37,40.87a.22.22,0,0,1-.13,0,.24.24,0,0,1-.1-.19V22.44a.21.21,0,0,1,.09-.18.24.24,0,0,1,.14-.05l.07,0L57.7,24a.22.22,0,0,1,.16.22V38.36a.23.23,0,0,1-.14.22l-5.26,2.27-.09,0m1.22-3.76,3-.81v-.14l-3,.71Zm0-2.24,3-.49v-.15l-3,.39Zm0-2.24,3-.17V32.3l-3,.08Zm3-2.1v-.15l-3-.24v.25Zm0-1.92v-.15l-3-.56v.25Zm0-1.93v-.14l-3-.88v.24Z"/><path class="cls-8" d="M52.37,22.44l5.26,1.74V38.36l-5.26,2.28V22.44M56.83,27v-.61l-3.47-1v.73l3.47.89m0,1.9v-.61l-3.47-.64v.73l3.47.52m0,1.9v-.61l-3.47-.27v.72l3.47.16m-3.47,2.11,3.47-.21v-.61l-3.47.09v.73m0,2.27,3.47-.58V34l-3.47.46v.73m0,2.26,3.47-.94v-.61l-3.47.82v.73M52.37,22a.44.44,0,0,0-.27.09.47.47,0,0,0-.19.37v18.2a.45.45,0,0,0,.21.38.44.44,0,0,0,.25.08.39.39,0,0,0,.18,0l1.81-.78,3.45-1.49a.46.46,0,0,0,.28-.43V24.18a.46.46,0,0,0-.32-.44l-4.62-1.52L52.51,22a.32.32,0,0,0-.14,0"/></g></g><path class="cls-4" d="M18.21,73.85v0a3.17,3.17,0,0,1,3.18-3.25,3.25,3.25,0,0,1,2.46,1l-.48.52a2.73,2.73,0,0,0-2-.87A2.47,2.47,0,0,0,19,73.82h0a2.49,2.49,0,0,0,2.44,2.61,2.75,2.75,0,0,0,2-.91l.47.46a3.31,3.31,0,0,1-2.52,1.1A3.14,3.14,0,0,1,18.21,73.85Z"/><path class="cls-4" d="M24.8,70.41h.7V77h-.7Z"/><path class="cls-4" d="M26.55,74.68v0A2.41,2.41,0,0,1,29,72.23a2.39,2.39,0,0,1,2.42,2.41v0A2.41,2.41,0,0,1,29,77.09,2.38,2.38,0,0,1,26.55,74.68Zm4.14,0v0A1.76,1.76,0,0,0,29,72.84a1.72,1.72,0,0,0-1.7,1.8v0A1.75,1.75,0,0,0,29,76.47,1.72,1.72,0,0,0,30.69,74.68Z"/><path class="cls-4" d="M32.31,75.22V72.33H33v2.72a1.25,1.25,0,0,0,1.29,1.41A1.38,1.38,0,0,0,35.69,75V72.33h.68V77h-.68v-.81a1.79,1.79,0,0,1-1.6.9A1.7,1.7,0,0,1,32.31,75.22Z"/><path class="cls-4" d="M37.39,74.67v0a2.28,2.28,0,0,1,2.22-2.42,2.11,2.11,0,0,1,1.78,1V70.41h.7V77h-.7v-.94a2.09,2.09,0,0,1-1.78,1A2.26,2.26,0,0,1,37.39,74.67Zm4,0v0a1.73,1.73,0,0,0-1.68-1.79,1.65,1.65,0,0,0-1.64,1.79v0a1.68,1.68,0,0,0,1.64,1.8A1.74,1.74,0,0,0,41.42,74.66Z"/><path class="cls-4" d="M43.17,73.92h2.51v.72H43.17Z"/><path class="cls-4" d="M46.88,70.68h2.68a2.31,2.31,0,0,1,1.65.56,1.42,1.42,0,0,1,.41,1v0a1.53,1.53,0,0,1-1,1.46c.75.22,1.35.65,1.35,1.52v0c0,1.08-.91,1.72-2.29,1.72h-2.8Zm4,1.67c0-.62-.5-1-1.4-1H47.58v2.17h1.87c.85,0,1.45-.38,1.45-1.12Zm-1.33,1.77h-2v2.23H49.7c.95,0,1.55-.43,1.55-1.13v0C51.25,74.52,50.67,74.12,49.57,74.12Z"/><path class="cls-4" d="M52.64,75.63h0c0-1,.81-1.51,2-1.51a5.18,5.18,0,0,1,1.43.2v-.16c0-.84-.51-1.27-1.38-1.27a3.41,3.41,0,0,0-1.42.34l-.2-.56a3.73,3.73,0,0,1,1.69-.39,2,2,0,0,1,1.5.51,1.83,1.83,0,0,1,.48,1.36V77h-.67v-.71a2,2,0,0,1-1.68.8A1.56,1.56,0,0,1,52.64,75.63Zm3.43-.35v-.45a4.8,4.8,0,0,0-1.37-.2c-.87,0-1.36.38-1.36,1v0c0,.58.54.93,1.17.93A1.41,1.41,0,0,0,56.07,75.28Z"/><path class="cls-4" d="M57.55,76.39l.35-.49a2.75,2.75,0,0,0,1.61.59c.56,0,1-.29,1-.74v0c0-.46-.55-.64-1.16-.81s-1.54-.46-1.54-1.32v0a1.41,1.41,0,0,1,1.59-1.33,3.24,3.24,0,0,1,1.67.51l-.32.53a2.59,2.59,0,0,0-1.37-.45c-.55,0-.9.28-.9.67v0c0,.44.57.61,1.19.8s1.5.5,1.5,1.33v0a1.47,1.47,0,0,1-1.66,1.4A3.22,3.22,0,0,1,57.55,76.39Z"/><path class="cls-4" d="M61.86,74.67v0a2.29,2.29,0,0,1,2.23-2.42,2.22,2.22,0,0,1,2.17,2.46,1.77,1.77,0,0,1,0,.23H62.56a1.63,1.63,0,0,0,1.64,1.57,1.92,1.92,0,0,0,1.47-.66l.43.39a2.42,2.42,0,0,1-1.92.87A2.31,2.31,0,0,1,61.86,74.67Zm3.7-.27a1.53,1.53,0,0,0-1.49-1.58,1.6,1.6,0,0,0-1.51,1.58Z"/><path class="cls-4" d="M66.93,74.67v0a2.29,2.29,0,0,1,2.23-2.42,2.11,2.11,0,0,1,1.78,1V70.41h.69V77h-.69v-.94a2.09,2.09,0,0,1-1.78,1A2.27,2.27,0,0,1,66.93,74.67Zm4,0v0a1.73,1.73,0,0,0-1.69-1.79,1.65,1.65,0,0,0-1.64,1.79v0a1.68,1.68,0,0,0,1.64,1.8A1.74,1.74,0,0,0,71,74.66Z"/><path class="cls-4" d="M21.15,81.68h2.69a2.33,2.33,0,0,1,1.65.56,1.41,1.41,0,0,1,.4,1v0a1.52,1.52,0,0,1-1,1.46c.75.22,1.35.65,1.35,1.52v0c0,1.08-.91,1.72-2.28,1.72H21.15Zm4,1.67c0-.62-.5-1-1.39-1H21.86v2.17h1.86c.86,0,1.45-.38,1.45-1.12Zm-1.32,1.77h-2v2.23H24c1,0,1.55-.43,1.55-1.13v0C25.52,85.52,25,85.12,23.85,85.12Z"/><path class="cls-4" d="M26.92,86.63h0c0-1,.8-1.51,2-1.51a5.26,5.26,0,0,1,1.44.2v-.16c0-.84-.52-1.27-1.39-1.27a3.33,3.33,0,0,0-1.41.34l-.21-.56A3.76,3.76,0,0,1,29,83.27a2.07,2.07,0,0,1,1.51.51A1.87,1.87,0,0,1,31,85.14V88h-.66v-.71a2,2,0,0,1-1.69.8A1.56,1.56,0,0,1,26.92,86.63Zm3.42-.35v-.45a4.78,4.78,0,0,0-1.36-.2c-.88,0-1.36.38-1.36,1v0c0,.58.54.93,1.17.93A1.41,1.41,0,0,0,30.34,86.28Z"/><path class="cls-4" d="M31.92,85.68v0a2.42,2.42,0,0,1,4.25-1.6l-.46.49a1.88,1.88,0,0,0-1.42-.71,1.72,1.72,0,0,0-1.66,1.8v0a1.74,1.74,0,0,0,1.71,1.81,1.91,1.91,0,0,0,1.42-.69l.44.41a2.35,2.35,0,0,1-1.9.9A2.39,2.39,0,0,1,31.92,85.68Z"/><path class="cls-4" d="M37.08,81.41h.69V86l2.51-2.62h.86l-2,2,2,2.66h-.83l-1.67-2.17-.94,1V88h-.69Z"/><path class="cls-4" d="M44.2,84.85v0a3.21,3.21,0,1,1,6.42,0h0a3.19,3.19,0,0,1-3.22,3.26A3.15,3.15,0,0,1,44.2,84.85Zm5.68,0v0a2.48,2.48,0,1,0-5,0h0a2.51,2.51,0,0,0,2.49,2.61A2.48,2.48,0,0,0,49.88,84.85Z"/><path class="cls-4" d="M52,83.94h-.64v-.6H52v-.4a1.64,1.64,0,0,1,.4-1.2,1.36,1.36,0,0,1,1-.36,2,2,0,0,1,.77.12v.6a2.38,2.38,0,0,0-.68-.12c-.54,0-.81.32-.81,1v.38h1.48v.59H52.69v4H52Zm3.31,0h-.64v-.6h.64v-.4a1.64,1.64,0,0,1,.4-1.2,1.35,1.35,0,0,1,1-.36,1.87,1.87,0,0,1,.76.12v.6A2.25,2.25,0,0,0,56.8,82c-.54,0-.8.32-.8,1v.38h1.46v.59H56v4h-.69Zm3.06-2.39h.78v.76h-.78Zm.05,1.78h.69V88h-.69Z"/><path class="cls-4" d="M60.16,85.68v0a2.42,2.42,0,0,1,4.25-1.6l-.46.49a1.87,1.87,0,0,0-1.41-.71,1.72,1.72,0,0,0-1.67,1.8v0a1.74,1.74,0,0,0,1.71,1.81A1.87,1.87,0,0,0,64,86.78l.45.41a2.41,2.41,0,0,1-4.29-1.51Z"/><path class="cls-4" d="M64.89,85.67v0a2.3,2.3,0,0,1,2.24-2.42,2.22,2.22,0,0,1,2.17,2.46,1.77,1.77,0,0,1,0,.23H65.6a1.63,1.63,0,0,0,1.64,1.57,1.9,1.9,0,0,0,1.46-.66l.43.39a2.38,2.38,0,0,1-1.91.87A2.32,2.32,0,0,1,64.89,85.67Zm3.7-.27a1.53,1.53,0,0,0-1.48-1.58A1.6,1.6,0,0,0,65.6,85.4Z"/></svg>