<svg id="Layer_1" data-name="Layer 1" xmlns="http://www.w3.org/2000/svg" viewBox="0 0 90 100"><defs><style>.cls-1{fill:#fff;stroke:#74af27;stroke-miterlimit:10;}.cls-2{fill:#74af27;}</style></defs><title>EV-Systems_Operations-kWhMetering</title><circle class="cls-1" cx="45" cy="37.74" r="28.35"/><path class="cls-2" d="M35.78,70.41h.69V75L39,72.33h.86l-2,2,2,2.66h-.83l-1.67-2.17-.94,1V77h-.69Z"/><path class="cls-2" d="M40.26,70.68H41l1.8,5.25,1.73-5.26h.59l1.72,5.26,1.8-5.25h.75L47.17,77h-.6l-1.73-5.11L43.1,77h-.59Z"/><path class="cls-2" d="M50.23,70.41h.69v2.73a1.78,1.78,0,0,1,1.6-.91A1.7,1.7,0,0,1,54.3,74.1V77h-.69V74.27a1.24,1.24,0,0,0-1.29-1.41,1.38,1.38,0,0,0-1.4,1.46V77h-.69Z"/><path class="cls-2" d="M27.09,81.68h.72l2.29,3.44,2.3-3.44h.72V88h-.71V82.88l-2.3,3.38h0l-2.3-3.37V88h-.69Z"/><path class="cls-2" d="M34.22,85.67v0a2.3,2.3,0,0,1,2.24-2.42,2.22,2.22,0,0,1,2.17,2.46,1.77,1.77,0,0,1,0,.23H34.93a1.62,1.62,0,0,0,1.63,1.57A1.92,1.92,0,0,0,38,86.83l.43.39a2.38,2.38,0,0,1-1.91.87A2.32,2.32,0,0,1,34.22,85.67Zm3.7-.27a1.53,1.53,0,0,0-1.48-1.58,1.6,1.6,0,0,0-1.51,1.58Z"/><path class="cls-2" d="M39.81,86.75V83.94h-.65v-.61h.65v-1.4h.7v1.4H42v.61H40.51v2.72a.69.69,0,0,0,.78.78,1.42,1.42,0,0,0,.67-.17v.6a1.67,1.67,0,0,1-.83.2A1.19,1.19,0,0,1,39.81,86.75Z"/><path class="cls-2" d="M42.51,85.67v0a2.3,2.3,0,0,1,2.23-2.42,2.22,2.22,0,0,1,2.17,2.46v.23h-3.7a1.63,1.63,0,0,0,1.64,1.57,1.92,1.92,0,0,0,1.47-.66l.43.39a2.4,2.4,0,0,1-1.92.87A2.32,2.32,0,0,1,42.51,85.67Zm3.7-.27a1.53,1.53,0,0,0-1.48-1.58,1.61,1.61,0,0,0-1.52,1.58Z"/><path class="cls-2" d="M47.86,83.33h.69v1.22a2,2,0,0,1,1.9-1.3V84H50.4a1.88,1.88,0,0,0-1.85,2.13V88h-.69Z"/><path class="cls-2" d="M51.25,81.55H52v.76h-.79Zm0,1.78H52V88H51.3Z"/><path class="cls-2" d="M53.33,83.33H54v.81a1.79,1.79,0,0,1,1.6-.91A1.7,1.7,0,0,1,57.4,85.1V88h-.69V85.27a1.24,1.24,0,0,0-1.29-1.41A1.38,1.38,0,0,0,54,85.32V88h-.69Z"/><path class="cls-2" d="M58.55,88.8l.32-.54a3,3,0,0,0,1.79.59,1.53,1.53,0,0,0,1.69-1.66v-.55a2.22,2.22,0,0,1-1.83,1,2.16,2.16,0,0,1-2.19-2.18v0a2.16,2.16,0,0,1,2.19-2.2,2.21,2.21,0,0,1,1.82.94v-.84H63v3.85a2.2,2.2,0,0,1-.59,1.64,2.42,2.42,0,0,1-1.77.62A3.66,3.66,0,0,1,58.55,88.8Zm3.82-3.36v0a1.64,1.64,0,0,0-1.71-1.58A1.55,1.55,0,0,0,59,85.41v0A1.57,1.57,0,0,0,60.66,87,1.64,1.64,0,0,0,62.37,85.44Z"/><path class="cls-2" d="M45,17.46A20.25,20.25,0,1,1,24.75,37.72,20.26,20.26,0,0,1,45,17.46Zm0,.91A19.35,19.35,0,1,0,64.33,37.72,19.34,19.34,0,0,0,45,18.37Zm12.25,7.51A16.82,16.82,0,0,1,56.82,50c-1.18-1.1-2.62-2.64-3.41-3.42a12,12,0,0,0,.41-17,11.64,11.64,0,0,0-1.47-1.35c-1.55,2.45-3.9,6-6,9.08a1.22,1.22,0,0,1-.22,1.2,1.41,1.41,0,0,1-1,.54c-.74,1-1.42,2-2,2.77l-1.5-1.09c.54-.73,1.25-1.67,2-2.68A1.25,1.25,0,0,1,44,36.81c.58-.48.7-.46,1.07-.47,2.3-3,4.93-6.25,6.77-8.47a11.93,11.93,0,0,0-14.88,1c-4.89,4.48-5.69,11.9-.32,17.72C35.5,47.79,34,49.22,33.16,50a17.12,17.12,0,0,1,0-24.55,16.11,16.11,0,0,1,11.68-4.77,16.91,16.91,0,0,1,12.39,5.19ZM45.46,21.61V23a.46.46,0,0,1-.92,0V21.61a16.6,16.6,0,0,0-3.21.41l.36,1.34a.46.46,0,1,1-.89.23l-.36-1.34a16.55,16.55,0,0,0-3,1.24l.7,1.21a.46.46,0,0,1-.8.46l-.71-1.22a15.48,15.48,0,0,0-2.58,1.95l1,1a.49.49,0,0,1,0,.69.48.48,0,0,1-.68,0l-1-1a16.6,16.6,0,0,0-2.12,2.72l2.78,1.61a13.7,13.7,0,0,1,2.23-2.66c5-4.31,11-4.31,16.09-1.06a15.71,15.71,0,0,1,1.66-1.85,10.4,10.4,0,0,1-1.21,2.19A13.17,13.17,0,0,1,54.51,29,14.12,14.12,0,0,1,56,30.87l2.79-1.61a17.31,17.31,0,0,0-2.15-2.73l-1,1a.48.48,0,0,1-.68,0,.49.49,0,0,1,0-.69l1-1a16.57,16.57,0,0,0-2.59-1.95l-.71,1.22a.46.46,0,1,1-.8-.46l.7-1.22a15.11,15.11,0,0,0-3-1.21l-.36,1.32a.46.46,0,1,1-.89-.23L48.67,22a20.6,20.6,0,0,0-3.21-.41ZM59.2,30.05l-2.78,1.6a12.89,12.89,0,0,1-1.81,15l2.13,2.13A17,17,0,0,0,58.91,46l-1.58-.91a.46.46,0,0,1,.25-.86,12.54,12.54,0,0,1,1.79,1,15.24,15.24,0,0,0,1.25-3.1l-1.74-.47a.48.48,0,0,1-.34-.51.46.46,0,0,1,.45-.4c.62.15,1.25.33,1.87.49A15.42,15.42,0,0,0,61.24,38H59.5a.47.47,0,0,1-.47-.46A.48.48,0,0,1,59.5,37h1.71a16,16,0,0,0-.52-3.28l-1.57.43a.47.47,0,0,1-.56-.32.47.47,0,0,1,.32-.57l1.55-.42a16,16,0,0,0-1.23-2.82Zm-28.37,0a15.7,15.7,0,0,0-1.2,2.84l1.49.4a.47.47,0,0,1,.32.57.47.47,0,0,1-.56.32l-1.5-.42A15.73,15.73,0,0,0,28.91,37h1.68a.48.48,0,0,1,.42.5.5.5,0,0,1-.51.42H28.91a15.78,15.78,0,0,0,.38,3.27c.57-.16,1.17-.31,1.73-.45a.47.47,0,0,1,.44.41.48.48,0,0,1-.34.5l-1.6.44a16.4,16.4,0,0,0,1.23,3.07,11.49,11.49,0,0,1,1.72-.92.47.47,0,0,1,.43.35.46.46,0,0,1-.23.51L31.19,46a16.71,16.71,0,0,0,2.09,2.8l2.11-2.12a13.1,13.1,0,0,1-1.8-15Z"/><path class="cls-2" d="M38.68,49.34h.9v2.43l1.13-1.18h1.07l-1.24,1.2,1.38,2.07H40.83l-.9-1.46-.35.34v1.12h-.9Z"/><path class="cls-2" d="M46.64,53.86h-1l-.77-3.07h0l-.76,3.07h-1l-1.2-4.52h1l.71,3.08h0l.79-3.08h.93l.77,3.12h0l.75-3.12h1Z"/><path class="cls-2" d="M48.21,49.34h.9V51h0a1.14,1.14,0,0,1,1-.54c.95,0,1.19.54,1.19,1.35v2h-.9V52c0-.53-.15-.8-.57-.8s-.7.27-.7.94v1.71h-.9Z"/></svg>