<svg id="Layer_1" data-name="Layer 1" xmlns="http://www.w3.org/2000/svg" xmlns:xlink="http://www.w3.org/1999/xlink" viewBox="0 0 90 100"><defs><style>.cls-1{fill:none;}.cls-2{fill:#fff;stroke:#74af27;stroke-miterlimit:10;}.cls-3{clip-path:url(#clip-path);}.cls-4{fill:#74af27;}</style><clipPath id="clip-path"><circle class="cls-1" cx="45" cy="37.74" r="28.35"/></clipPath></defs><title>EV-Systems_Operations-AnalyticalFeedback</title><circle class="cls-2" cx="45" cy="37.74" r="28.35"/><g class="cls-3"><path class="cls-4" d="M45.47,22.41H59.18A2.36,2.36,0,0,1,61.7,24.3a12.7,12.7,0,0,1,.07,1.86c0,.92,0,1.83,0,2.75,0,.62,0,1.24,0,1.87,0,.85,0,1.71,0,2.57,0,.57,0,1.14,0,1.71v4.36c0,1.13,0,2.26,0,3.39,0,.84,0,1.69,0,2.53a13,13,0,0,1-.05,1.53,2.29,2.29,0,0,1-1.94,1.86c-1,.05-2,.05-3,.06H49.58c-.37,0-.51.1-.5.48,0,1,0,2,0,2.95a1,1,0,0,0,.77,1.05,2.73,2.73,0,0,0,.8.13h3.7c.62,0,1,.3,1,.81a.73.73,0,0,1-.64.79,6.24,6.24,0,0,1-1,.06H36.63a2.56,2.56,0,0,1-.55-.05.78.78,0,0,1-.64-.77.75.75,0,0,1,.58-.77,2.16,2.16,0,0,1,.51-.06h3.14a5.05,5.05,0,0,0,.67-.06c.78-.17,1.17-.41,1.13-1.37s0-1.84,0-2.77c0-.33-.11-.43-.43-.43H31.77a2.44,2.44,0,0,1-2.71-2.67v-21a2.4,2.4,0,0,1,1.64-2.53,4.09,4.09,0,0,1,1.21-.14Zm0,1.66h0c-4.59,0-9.19,0-13.78,0-.75,0-.94.2-.94,1V46.25c0,.66.22.88.87.88H59.16c.79,0,1-.19,1-1V37.91c0-4.31,0-8.61,0-12.92,0-.72-.2-.92-.9-.92Zm2.08,29.31c0-.9-.07-1.75-.09-2.61,0-.52,0-1,0-1.57,0-.3-.09-.42-.41-.42-1.15,0-2.31,0-3.47,0-.35,0-.44.12-.45.45a18,18,0,0,1-.2,4.14Z"/><path class="cls-4" d="M45.43,25.83H57.94c.6,0,.67.1.66.7,0,.85,0,1.69,0,2.54,0,.63,0,1.26,0,1.89,0,.85,0,1.69,0,2.53,0,.57,0,1.14,0,1.71v2.87c0,.69,0,1.39,0,2.08s0,1.39,0,2.09c0,.5-.13.63-.61.63H33c-.61,0-.78-.2-.78-.83,0-1.47,0-3,0-4.42,0-1.16,0-2.31,0-3.46,0-.82,0-1.64,0-2.46,0-.63,0-1.26,0-1.9,0-.84,0-1.68,0-2.53a10.31,10.31,0,0,1,.05-1.11c0-.31.27-.35.53-.35H45.43Zm0,.83H39.92c-2.14,0-4.28,0-6.43,0-.36,0-.49.13-.46.48a8.72,8.72,0,0,1,0,.89c0,1.36,0,2.71,0,4.07,0,1.12,0,2.23,0,3.35,0,1.43,0,2.86,0,4.29,0,.58,0,1.17,0,1.75s0,.56.54.56H57.27c.47,0,.54-.06.54-.54s0-.72,0-1.08V36c0-.63,0-1.26,0-1.89s0-1.57,0-2.35,0-1.26,0-1.9c0-.91,0-1.83,0-2.75,0-.4-.16-.45-.5-.45C53.34,26.67,49.39,26.66,45.45,26.66Z"/><path class="cls-4" d="M55.8,36.56h-20a.37.37,0,0,0-.36.37v.43a.37.37,0,0,0,.36.38h20a.37.37,0,0,0,.36-.38v-.43A.37.37,0,0,0,55.8,36.56Z"/><path class="cls-4" d="M55.8,39.06h-20a.37.37,0,0,0-.36.38v.42a.37.37,0,0,0,.36.38h20a.37.37,0,0,0,.36-.38v-.42A.37.37,0,0,0,55.8,39.06Z"/><path class="cls-4" d="M46.55,28.55a1,1,0,0,0-1,1.05,1.06,1.06,0,0,0,.05.31l-1.93,2a.91.91,0,0,0-.41-.09,1,1,0,0,0-.45.11l-2.1-2a1,1,0,0,0,0-.3,1,1,0,1,0-2,0,1.5,1.5,0,0,0,0,.22L36.44,32a1.06,1.06,0,0,0-.4-.08,1.05,1.05,0,1,0,1,1,1.12,1.12,0,0,0,0-.32l2.24-2.12a1,1,0,0,0,.48.12.91.91,0,0,0,.41-.09l2.13,2.06a1.09,1.09,0,0,0,0,.26,1,1,0,1,0,2-.3l1.93-2a.9.9,0,0,0,.4.09,1.05,1.05,0,0,0,0-2.1Z"/><path class="cls-4" d="M55.93,33.41H50.36a.19.19,0,0,1-.19-.2v-4.4a.18.18,0,0,0-.18-.18h-.16a.18.18,0,0,0-.18.18v4.73a.4.4,0,0,0,.4.4h5.88a.18.18,0,0,0,.18-.18v-.17A.18.18,0,0,0,55.93,33.41Z"/><path class="cls-4" d="M50.63,33.09h5.24A.12.12,0,0,0,56,32.9l-1.16-1.4a.14.14,0,0,0-.16,0L54,32a.12.12,0,0,1-.17,0L52.8,30a.11.11,0,0,0-.17,0l-.92.83a.12.12,0,0,1-.18,0l-.8-2a.11.11,0,0,0-.22,0V33A.12.12,0,0,0,50.63,33.09Z"/></g><path class="cls-4" d="M27.3,70.64H28L30.84,77h-.76l-.74-1.67H25.91L25.16,77h-.73Zm1.76,4-1.43-3.2-1.44,3.2Z"/><path class="cls-4" d="M31.69,72.33h.7v.81A1.76,1.76,0,0,1,34,72.23a1.7,1.7,0,0,1,1.78,1.87V77h-.69V74.27a1.24,1.24,0,0,0-1.29-1.41,1.37,1.37,0,0,0-1.39,1.46V77h-.7Z"/><path class="cls-4" d="M36.62,75.63h0c0-1,.81-1.51,2-1.51a5.24,5.24,0,0,1,1.43.2v-.16c0-.84-.52-1.27-1.39-1.27a3.33,3.33,0,0,0-1.41.34L37,72.66a3.76,3.76,0,0,1,1.69-.39,2.07,2.07,0,0,1,1.51.51,1.87,1.87,0,0,1,.47,1.36V77H40v-.71a2,2,0,0,1-1.69.8A1.56,1.56,0,0,1,36.62,75.63Zm3.43-.35v-.45a4.8,4.8,0,0,0-1.37-.2c-.87,0-1.36.38-1.36,1v0c0,.58.54.93,1.17.93A1.42,1.42,0,0,0,40.05,75.28Z"/><path class="cls-4" d="M42,70.41h.7V77H42Z"/><path class="cls-4" d="M47.49,72.33h.74l-2,4.81c-.39,1-.84,1.31-1.54,1.31a2.13,2.13,0,0,1-1-.23l.23-.55a1.41,1.41,0,0,0,.73.17c.41,0,.67-.21.95-.87l-2.11-4.64h.76L46,76.21Z"/><path class="cls-4" d="M49.3,75.75V72.94h-.65v-.61h.65v-1.4H50v1.4h1.48v.61H50v2.72a.69.69,0,0,0,.78.78,1.43,1.43,0,0,0,.68-.17v.6a1.8,1.8,0,0,1-.84.2A1.18,1.18,0,0,1,49.3,75.75Z"/><path class="cls-4" d="M52.44,70.55h.79v.76h-.79Zm0,1.78h.7V77h-.7Z"/><path class="cls-4" d="M54.23,74.68v0a2.42,2.42,0,0,1,4.25-1.6l-.46.49a1.87,1.87,0,0,0-1.41-.71,1.72,1.72,0,0,0-1.67,1.8v0a1.74,1.74,0,0,0,1.71,1.81,1.91,1.91,0,0,0,1.42-.69l.44.41a2.35,2.35,0,0,1-1.9.9A2.38,2.38,0,0,1,54.23,74.68Z"/><path class="cls-4" d="M59,75.63h0c0-1,.81-1.51,2-1.51a5.26,5.26,0,0,1,1.44.2v-.16c0-.84-.52-1.27-1.39-1.27a3.33,3.33,0,0,0-1.41.34l-.21-.56a3.76,3.76,0,0,1,1.69-.39,2.07,2.07,0,0,1,1.51.51,1.87,1.87,0,0,1,.47,1.36V77h-.66v-.71a2,2,0,0,1-1.69.8A1.56,1.56,0,0,1,59,75.63Zm3.42-.35v-.45a4.78,4.78,0,0,0-1.36-.2c-.88,0-1.36.38-1.36,1v0c0,.58.54.93,1.17.93A1.41,1.41,0,0,0,62.46,75.28Z"/><path class="cls-4" d="M64.39,70.41h.69V77h-.69Z"/><path class="cls-4" d="M24.91,81.68h4.53v.66H25.62v2.25H29v.65H25.62V88h-.71Z"/><path class="cls-4" d="M30,85.67v0a2.29,2.29,0,0,1,2.23-2.42,2.22,2.22,0,0,1,2.17,2.46,1.77,1.77,0,0,1,0,.23H30.71a1.63,1.63,0,0,0,1.64,1.57,1.89,1.89,0,0,0,1.46-.66l.44.39a2.42,2.42,0,0,1-1.92.87A2.31,2.31,0,0,1,30,85.67Zm3.7-.27a1.54,1.54,0,0,0-1.49-1.58,1.6,1.6,0,0,0-1.51,1.58Z"/><path class="cls-4" d="M35.06,85.67v0a2.3,2.3,0,0,1,2.24-2.42,2.22,2.22,0,0,1,2.17,2.46,1.77,1.77,0,0,1,0,.23H35.77a1.63,1.63,0,0,0,1.64,1.57,1.92,1.92,0,0,0,1.46-.66l.44.39a2.42,2.42,0,0,1-1.92.87A2.32,2.32,0,0,1,35.06,85.67Zm3.7-.27a1.53,1.53,0,0,0-1.48-1.58,1.6,1.6,0,0,0-1.51,1.58Z"/><path class="cls-4" d="M40.14,85.67v0a2.28,2.28,0,0,1,2.22-2.42,2.11,2.11,0,0,1,1.79,1V81.41h.69V88h-.69v-.94a2.09,2.09,0,0,1-1.79,1A2.27,2.27,0,0,1,40.14,85.67Zm4,0v0a1.73,1.73,0,0,0-1.68-1.79,1.65,1.65,0,0,0-1.64,1.79v0a1.68,1.68,0,0,0,1.64,1.8A1.74,1.74,0,0,0,44.17,85.66Z"/><path class="cls-4" d="M46.81,87.09V88h-.69V81.41h.69v2.86a2.1,2.1,0,0,1,1.78-1,2.28,2.28,0,0,1,2.23,2.41v0a2.28,2.28,0,0,1-2.23,2.42A2.08,2.08,0,0,1,46.81,87.09Zm3.29-1.42v0a1.68,1.68,0,0,0-1.63-1.8,1.74,1.74,0,0,0-1.69,1.79v0a1.73,1.73,0,0,0,1.69,1.8A1.63,1.63,0,0,0,50.1,85.67Z"/><path class="cls-4" d="M51.47,86.63h0c0-1,.81-1.51,2-1.51a5.12,5.12,0,0,1,1.43.2v-.16c0-.84-.51-1.27-1.38-1.27a3.41,3.41,0,0,0-1.42.34l-.2-.56a3.73,3.73,0,0,1,1.69-.39,2,2,0,0,1,1.5.51,1.83,1.83,0,0,1,.48,1.36V88h-.67v-.71a2,2,0,0,1-1.68.8A1.57,1.57,0,0,1,51.47,86.63Zm3.43-.35v-.45a4.8,4.8,0,0,0-1.37-.2c-.87,0-1.36.38-1.36,1v0c0,.58.54.93,1.17.93A1.41,1.41,0,0,0,54.9,86.28Z"/><path class="cls-4" d="M56.48,85.68v0a2.4,2.4,0,0,1,2.38-2.43,2.43,2.43,0,0,1,1.87.83l-.46.49a1.89,1.89,0,0,0-1.42-.71,1.72,1.72,0,0,0-1.66,1.8v0a1.74,1.74,0,0,0,1.71,1.81,1.91,1.91,0,0,0,1.42-.69l.44.41a2.4,2.4,0,0,1-4.28-1.51Z"/><path class="cls-4" d="M61.63,81.41h.7V86l2.51-2.62h.86l-2,2,2,2.66h-.83l-1.67-2.17-.94,1V88h-.7Z"/></svg>