<svg id="Layer_1" data-name="Layer 1" xmlns="http://www.w3.org/2000/svg" viewBox="0 0 90 100"><defs><style>.cls-1{fill:#fff;stroke-miterlimit:10;}.cls-1,.cls-3{stroke:#74af27;}.cls-2{fill:#74af27;}.cls-3{fill:none;stroke-linecap:round;stroke-linejoin:round;}</style></defs><title>EV-Systems_Operations-AmpSelectorKeySwitch</title><circle class="cls-1" cx="45" cy="37.74" r="28.35"/><path class="cls-2" d="M19.1,70.64h.66L22.63,77h-.76l-.74-1.67H17.7L17,77h-.73Zm1.75,4-1.43-3.2L18,74.67Z"/><path class="cls-2" d="M23.49,72.33h.69v.79a1.71,1.71,0,0,1,1.5-.89,1.59,1.59,0,0,1,1.5.93,1.86,1.86,0,0,1,1.64-.93,1.67,1.67,0,0,1,1.72,1.88V77h-.69V74.27c0-.9-.45-1.41-1.21-1.41a1.29,1.29,0,0,0-1.27,1.44V77h-.7V74.25c0-.87-.46-1.39-1.19-1.39a1.35,1.35,0,0,0-1.3,1.47V77h-.69Z"/><path class="cls-2" d="M31.78,72.33h.69v.94a2.1,2.1,0,0,1,1.78-1,2.27,2.27,0,0,1,2.22,2.41v0a2.27,2.27,0,0,1-2.22,2.42,2.08,2.08,0,0,1-1.78-1v2.34h-.69Zm4,2.34v0a1.68,1.68,0,0,0-1.63-1.8,1.74,1.74,0,0,0-1.69,1.79v0a1.73,1.73,0,0,0,1.69,1.8A1.63,1.63,0,0,0,35.76,74.67Z"/><path class="cls-2" d="M39.61,76.07l.44-.53a3,3,0,0,0,2.17.9c.84,0,1.4-.45,1.4-1.07v0c0-.59-.32-.92-1.64-1.2s-2.11-.78-2.11-1.82v0a1.86,1.86,0,0,1,2.07-1.72,3.29,3.29,0,0,1,2.21.78l-.41.55a2.77,2.77,0,0,0-1.82-.69c-.82,0-1.34.45-1.34,1v0c0,.59.32.93,1.71,1.22s2.05.82,2.05,1.79h0c0,1.08-.9,1.79-2.15,1.79A3.73,3.73,0,0,1,39.61,76.07Z"/><path class="cls-2" d="M45.11,74.67v0a2.3,2.3,0,0,1,2.24-2.42,2.22,2.22,0,0,1,2.17,2.46,1.77,1.77,0,0,1,0,.23h-3.7a1.63,1.63,0,0,0,1.64,1.57,1.92,1.92,0,0,0,1.47-.66l.43.39a2.4,2.4,0,0,1-1.91.87A2.32,2.32,0,0,1,45.11,74.67Zm3.7-.27a1.53,1.53,0,0,0-1.48-1.58,1.61,1.61,0,0,0-1.52,1.58Z"/><path class="cls-2" d="M50.52,70.41h.69V77h-.69Z"/><path class="cls-2" d="M52.27,74.67v0a2.29,2.29,0,0,1,2.23-2.42,2.22,2.22,0,0,1,2.17,2.46,1.77,1.77,0,0,1,0,.23H53a1.63,1.63,0,0,0,1.64,1.57,1.92,1.92,0,0,0,1.47-.66l.43.39a2.42,2.42,0,0,1-1.92.87A2.31,2.31,0,0,1,52.27,74.67ZM56,74.4a1.53,1.53,0,0,0-1.49-1.58A1.6,1.6,0,0,0,53,74.4Z"/><path class="cls-2" d="M57.33,74.68v0a2.42,2.42,0,0,1,4.24-1.6l-.45.49a1.89,1.89,0,0,0-1.42-.71A1.72,1.72,0,0,0,58,74.64v0a1.74,1.74,0,0,0,1.71,1.81,1.91,1.91,0,0,0,1.42-.69l.44.41a2.4,2.4,0,0,1-4.28-1.51Z"/><path class="cls-2" d="M62.73,75.75V72.94h-.65v-.61h.65v-1.4h.69v1.4H64.9v.61H63.42v2.72a.69.69,0,0,0,.78.78,1.46,1.46,0,0,0,.68-.17v.6a1.86,1.86,0,0,1-.84.2A1.18,1.18,0,0,1,62.73,75.75Z"/><path class="cls-2" d="M65.43,74.68v0a2.43,2.43,0,0,1,4.85,0v0a2.42,2.42,0,0,1-2.44,2.43A2.37,2.37,0,0,1,65.43,74.68Zm4.14,0v0a1.76,1.76,0,0,0-1.73-1.82,1.72,1.72,0,0,0-1.7,1.8v0a1.75,1.75,0,0,0,1.72,1.81A1.72,1.72,0,0,0,69.57,74.68Z"/><path class="cls-2" d="M71.26,72.33H72v1.22a2,2,0,0,1,1.9-1.3V73h0A1.88,1.88,0,0,0,72,75.13V77h-.69Z"/><path class="cls-2" d="M22.46,81.68h.71v3.77l3.62-3.77h.92L25,84.44,27.83,88h-.9l-2.42-3.06-1.34,1.36V88h-.71Z"/><path class="cls-2" d="M28,85.67v0a2.29,2.29,0,0,1,2.23-2.42,2.22,2.22,0,0,1,2.17,2.46,1.77,1.77,0,0,1,0,.23H28.69a1.63,1.63,0,0,0,1.64,1.57,1.89,1.89,0,0,0,1.46-.66l.44.39a2.42,2.42,0,0,1-1.92.87A2.31,2.31,0,0,1,28,85.67Zm3.7-.27a1.54,1.54,0,0,0-1.49-1.58,1.6,1.6,0,0,0-1.51,1.58Z"/><path class="cls-2" d="M36.59,83.33h.74l-1.95,4.81c-.4,1-.85,1.31-1.55,1.31a2.13,2.13,0,0,1-1-.23l.23-.55a1.43,1.43,0,0,0,.73.17c.41,0,.68-.21,1-.87l-2.11-4.64h.76l1.7,3.88Z"/><path class="cls-2" d="M40.29,87.07l.44-.53a3,3,0,0,0,2.16.9c.85,0,1.4-.45,1.4-1.07v0c0-.59-.31-.92-1.63-1.2s-2.12-.78-2.12-1.82v0a1.86,1.86,0,0,1,2.07-1.72,3.32,3.32,0,0,1,2.22.78l-.42.55a2.75,2.75,0,0,0-1.82-.69c-.82,0-1.34.45-1.34,1v0c0,.59.33.93,1.71,1.22S45,85.31,45,86.28h0c0,1.08-.9,1.79-2.16,1.79A3.69,3.69,0,0,1,40.29,87.07Z"/><path class="cls-2" d="M45.59,83.33h.74l1.22,3.74,1.25-3.76h.58l1.26,3.76,1.22-3.74h.72L51,88h-.61l-1.25-3.67L47.83,88h-.61Z"/><path class="cls-2" d="M53.48,81.55h.8v.76h-.8Zm.05,1.78h.69V88h-.69Z"/><path class="cls-2" d="M55.8,86.75V83.94h-.64v-.61h.64v-1.4h.7v1.4H58v.61H56.5v2.72a.69.69,0,0,0,.78.78,1.46,1.46,0,0,0,.68-.17v.6a1.86,1.86,0,0,1-.84.2A1.19,1.19,0,0,1,55.8,86.75Z"/><path class="cls-2" d="M58.5,85.68v0a2.42,2.42,0,0,1,4.25-1.6l-.46.49a1.85,1.85,0,0,0-1.41-.71,1.73,1.73,0,0,0-1.67,1.8v0a1.74,1.74,0,0,0,1.72,1.81,1.91,1.91,0,0,0,1.42-.69l.44.41a2.41,2.41,0,0,1-4.29-1.51Z"/><path class="cls-2" d="M63.66,81.41h.69v2.73a1.79,1.79,0,0,1,1.6-.91,1.7,1.7,0,0,1,1.78,1.87V88H67V85.27a1.24,1.24,0,0,0-1.29-1.41,1.38,1.38,0,0,0-1.4,1.46V88h-.69Z"/><circle class="cls-3" cx="45" cy="37.74" r="15.81"/><path class="cls-2" d="M24,25.83l-.27,1.06-.84-.23L23.26,25l.35-.62,5.11,2.95-.5.88Z"/><path class="cls-2" d="M29.27,25.62a2.86,2.86,0,0,1-2.13-1l0,0c-1.33-1.2-1.79-2.77-.67-4a2.66,2.66,0,0,1,1.68-.89l.22,1a1.9,1.9,0,0,0-1.23.6c-.69.75-.15,1.74.44,2.29a1.83,1.83,0,0,1,.5-1.44,1.85,1.85,0,0,1,2.74-.27h0a2,2,0,0,1,0,2.95A2.21,2.21,0,0,1,29.27,25.62Zm.88-2.95h0a1.06,1.06,0,0,0-1.56.2,1.08,1.08,0,0,0,0,1.57h0a1.09,1.09,0,0,0,1.59-.2A1,1,0,0,0,30.15,22.67Z"/><path class="cls-2" d="M31.58,16.43l.82-.49,5.26,3.71-.93.57-1.24-.91-2.37,1.44.21,1.52-.9.55Zm3.11,2.3-2.07-1.49L33,19.77Z"/><path class="cls-2" d="M52.16,18.71l1-.27a1.93,1.93,0,0,0,1,1.39.92.92,0,0,0,1.31-.34h0c.26-.52-.07-1.05-.8-1.42l-.42-.21.14-.65,2.17-.79-2.26-1.15.41-.8,3.45,1.76-.35.68-2.21.76a1.68,1.68,0,0,1,.8,2.24v0a1.88,1.88,0,0,1-2.67.73A2.8,2.8,0,0,1,52.16,18.71Z"/><path class="cls-2" d="M56.61,21.2l2.65,0c1.06,0,1.52-.07,1.87-.46A.88.88,0,0,0,61,19.47a1.67,1.67,0,0,0-1.6-.23l-.17-.92a2.4,2.4,0,0,1,2.43.5,1.76,1.76,0,0,1,.3,2.59v0c-.61.69-1.3.75-2.64.7l-1.57,0,2.1,1.83-.6.68-3.18-2.79Z"/><path class="cls-2" d="M66,23.82l.51.81L62.9,30l-.58-.92.87-1.26L61.7,25.46l-1.51.25-.57-.89ZM63.76,27l1.43-2.11-2.52.41Z"/><rect class="cls-2" x="44.02" y="28.47" width="1.95" height="18.54" transform="translate(-13.56 33.22) rotate(-35.58)"/></svg>