<svg id="Layer_1" data-name="Layer 1" xmlns="http://www.w3.org/2000/svg" viewBox="0 0 90 100"><defs><style>.cls-1{fill:#fff;stroke:#74af27;stroke-miterlimit:10;}.cls-2{fill:#74af27;}</style></defs><title>EV-Systems_Operations-LiveChargingActivity</title><circle class="cls-1" cx="45" cy="37.74" r="28.35"/><path class="cls-2" d="M16.66,70.68h.72v5.65h3.54V77H16.66Z"/><path class="cls-2" d="M21.87,70.55h.79v.76h-.79Zm0,1.78h.69V77h-.69Z"/><path class="cls-2" d="M23.49,72.33h.76l1.57,3.86,1.57-3.86h.75l-2,4.69H25.5Z"/><path class="cls-2" d="M28.4,74.67v0a2.29,2.29,0,0,1,2.23-2.42,2.22,2.22,0,0,1,2.17,2.46,1.77,1.77,0,0,1,0,.23H29.1a1.63,1.63,0,0,0,1.64,1.57,1.92,1.92,0,0,0,1.47-.66l.43.39a2.42,2.42,0,0,1-1.92.87A2.31,2.31,0,0,1,28.4,74.67Zm3.7-.27a1.53,1.53,0,0,0-1.49-1.58A1.6,1.6,0,0,0,29.1,74.4Z"/><path class="cls-2" d="M36,73.85v0a3.17,3.17,0,0,1,3.19-3.25,3.27,3.27,0,0,1,2.46,1l-.49.52a2.71,2.71,0,0,0-2-.87,2.48,2.48,0,0,0-2.44,2.59h0a2.49,2.49,0,0,0,2.44,2.61,2.77,2.77,0,0,0,2-.91l.46.46a3.27,3.27,0,0,1-2.52,1.1A3.14,3.14,0,0,1,36,73.85Z"/><path class="cls-2" d="M42.55,70.41h.69v2.73a1.77,1.77,0,0,1,1.59-.91,1.71,1.71,0,0,1,1.79,1.87V77h-.7V74.27a1.24,1.24,0,0,0-1.28-1.41,1.37,1.37,0,0,0-1.4,1.46V77h-.69Z"/><path class="cls-2" d="M47.47,75.63h0c0-1,.81-1.51,2-1.51a5.18,5.18,0,0,1,1.43.2v-.16c0-.84-.51-1.27-1.39-1.27a3.37,3.37,0,0,0-1.41.34l-.21-.56a3.8,3.8,0,0,1,1.7-.39,2,2,0,0,1,1.5.51,1.83,1.83,0,0,1,.48,1.36V77h-.67v-.71a2,2,0,0,1-1.68.8A1.56,1.56,0,0,1,47.47,75.63Zm3.43-.35v-.45a4.8,4.8,0,0,0-1.37-.2c-.87,0-1.36.38-1.36,1v0c0,.58.54.93,1.17.93A1.41,1.41,0,0,0,50.9,75.28Z"/><path class="cls-2" d="M52.76,72.33h.7v1.22a2,2,0,0,1,1.89-1.3V73H55.3a1.87,1.87,0,0,0-1.84,2.13V77h-.7Z"/><path class="cls-2" d="M55.89,77.8l.32-.54a3,3,0,0,0,1.79.59,1.53,1.53,0,0,0,1.69-1.66v-.55a2.2,2.2,0,0,1-1.82,1,2.15,2.15,0,0,1-2.19-2.18v0a2.2,2.2,0,0,1,4-1.26v-.84h.7v3.85a2.21,2.21,0,0,1-.6,1.64,2.4,2.4,0,0,1-1.77.62A3.7,3.7,0,0,1,55.89,77.8Zm3.82-3.36v0A1.64,1.64,0,0,0,58,72.84a1.54,1.54,0,0,0-1.61,1.57v0A1.57,1.57,0,0,0,58,76,1.64,1.64,0,0,0,59.71,74.44Z"/><path class="cls-2" d="M61.67,70.55h.79v.76h-.79Zm0,1.78h.69V77h-.69Z"/><path class="cls-2" d="M63.75,72.33h.69v.81a1.79,1.79,0,0,1,1.6-.91,1.7,1.7,0,0,1,1.78,1.87V77h-.69V74.27a1.24,1.24,0,0,0-1.29-1.41,1.38,1.38,0,0,0-1.4,1.46V77h-.69Z"/><path class="cls-2" d="M69,77.8l.32-.54a3,3,0,0,0,1.79.59,1.53,1.53,0,0,0,1.69-1.66v-.55a2.22,2.22,0,0,1-1.83,1,2.16,2.16,0,0,1-2.19-2.18v0a2.2,2.2,0,0,1,4-1.26v-.84h.69v3.85a2.2,2.2,0,0,1-.59,1.64,2.42,2.42,0,0,1-1.77.62A3.66,3.66,0,0,1,69,77.8Zm3.82-3.36v0a1.64,1.64,0,0,0-1.71-1.58,1.54,1.54,0,0,0-1.61,1.57v0A1.56,1.56,0,0,0,71.08,76,1.64,1.64,0,0,0,72.79,74.44Z"/><path class="cls-2" d="M31.85,81.64h.67L35.39,88h-.76l-.74-1.67H30.46L29.71,88H29Zm1.76,4-1.43-3.2-1.44,3.2Z"/><path class="cls-2" d="M35.73,85.68v0A2.42,2.42,0,0,1,40,84.06l-.46.49a1.87,1.87,0,0,0-1.41-.71,1.72,1.72,0,0,0-1.67,1.8v0a1.74,1.74,0,0,0,1.71,1.81,1.87,1.87,0,0,0,1.42-.69l.45.41a2.41,2.41,0,0,1-4.29-1.51Z"/><path class="cls-2" d="M41.13,86.75V83.94h-.65v-.61h.65v-1.4h.69v1.4H43.3v.61H41.82v2.72a.7.7,0,0,0,.79.78,1.42,1.42,0,0,0,.67-.17v.6a1.8,1.8,0,0,1-.84.2A1.19,1.19,0,0,1,41.13,86.75Z"/><path class="cls-2" d="M44.27,81.55h.79v.76h-.79Zm0,1.78H45V88h-.69Z"/><path class="cls-2" d="M45.89,83.33h.77l1.56,3.86,1.58-3.86h.74l-2,4.69h-.61Z"/><path class="cls-2" d="M51.38,81.55h.79v.76h-.79Zm0,1.78h.69V88h-.69Z"/><path class="cls-2" d="M53.7,86.75V83.94h-.65v-.61h.65v-1.4h.7v1.4h1.47v.61H54.4v2.72a.69.69,0,0,0,.78.78,1.42,1.42,0,0,0,.67-.17v.6a1.79,1.79,0,0,1-.83.2A1.19,1.19,0,0,1,53.7,86.75Z"/><path class="cls-2" d="M60.31,83.33h.74l-2,4.81c-.39,1-.84,1.31-1.54,1.31a2.2,2.2,0,0,1-1-.23l.24-.55a1.41,1.41,0,0,0,.73.17c.41,0,.67-.21.95-.87l-2.11-4.64h.76l1.69,3.88Z"/><g id="_32" data-name="32"><path class="cls-2" d="M49.72,33.71c-.73.25-7.16,2.5-8.58,4.16a4.39,4.39,0,1,0,6.68,5.7c1.42-1.66,2.61-8.38,2.74-9.15a.62.62,0,0,0-.21-.59A.63.63,0,0,0,49.72,33.71Zm-2.87,9a3.19,3.19,0,0,1-4.38.35,3.11,3.11,0,0,1-.35-4.38c.79-.93,4.29-2.43,7-3.42C48.56,38.05,47.63,41.82,46.85,42.74ZM45,23.69A15.53,15.53,0,0,0,29.61,39.32a16.35,16.35,0,0,0,3,9.38.63.63,0,0,0,.52.27H56.84a.63.63,0,0,0,.52-.27,16.47,16.47,0,0,0,3-9.45A15.49,15.49,0,0,0,45,23.69Zm11.51,24h-23a15.08,15.08,0,0,1-2.6-8.36,14.11,14.11,0,1,1,28.22-.07A15.2,15.2,0,0,1,56.51,47.68ZM45,27.38A10.88,10.88,0,0,0,34.19,38.31a.64.64,0,0,0,1.28,0,9.53,9.53,0,1,1,19.06,0,.64.64,0,0,0,.64.64.64.64,0,0,0,.64-.64A10.87,10.87,0,0,0,45,27.38Z"/></g></svg>