<svg id="Layer_1" data-name="Layer 1" xmlns="http://www.w3.org/2000/svg" viewBox="0 0 90 100"><defs><style>.cls-1{fill:#fff;stroke:#74af27;stroke-miterlimit:10;}.cls-2{fill:#74af27;}.cls-3{fill:none;stroke:#73b02c;stroke-linecap:round;stroke-linejoin:round;}</style></defs><title>EV-Systems_Operations-AdvancedSettings</title><circle class="cls-1" cx="45" cy="37.74" r="28.35"/><path class="cls-2" d="M26.68,70.64h.66L30.21,77h-.76l-.74-1.67H25.28L24.53,77H23.8Zm1.75,4L27,71.47l-1.44,3.2Z"/><path class="cls-2" d="M30.57,74.67v0a2.29,2.29,0,0,1,2.23-2.42,2.11,2.11,0,0,1,1.78,1V70.41h.69V77h-.69v-.94a2.09,2.09,0,0,1-1.78,1A2.27,2.27,0,0,1,30.57,74.67Zm4,0v0a1.73,1.73,0,0,0-1.69-1.79,1.65,1.65,0,0,0-1.64,1.79v0a1.68,1.68,0,0,0,1.64,1.8A1.74,1.74,0,0,0,34.61,74.66Z"/><path class="cls-2" d="M36.09,72.33h.77l1.56,3.86L40,72.33h.74l-2,4.69h-.61Z"/><path class="cls-2" d="M41,75.63h0c0-1,.81-1.51,2-1.51a5.24,5.24,0,0,1,1.43.2v-.16c0-.84-.52-1.27-1.39-1.27a3.33,3.33,0,0,0-1.41.34l-.21-.56a3.76,3.76,0,0,1,1.69-.39,2.07,2.07,0,0,1,1.51.51,1.87,1.87,0,0,1,.47,1.36V77h-.66v-.71a2,2,0,0,1-1.69.8A1.56,1.56,0,0,1,41,75.63Zm3.43-.35v-.45a4.85,4.85,0,0,0-1.37-.2c-.88,0-1.36.38-1.36,1v0c0,.58.54.93,1.17.93A1.42,1.42,0,0,0,44.42,75.28Z"/><path class="cls-2" d="M46.28,72.33H47v.81a1.77,1.77,0,0,1,1.59-.91,1.71,1.71,0,0,1,1.79,1.87V77h-.7V74.27a1.24,1.24,0,0,0-1.28-1.41A1.38,1.38,0,0,0,47,74.32V77h-.69Z"/><path class="cls-2" d="M51.26,74.68v0a2.42,2.42,0,0,1,4.25-1.6l-.46.49a1.85,1.85,0,0,0-1.41-.71A1.73,1.73,0,0,0,52,74.64v0a1.74,1.74,0,0,0,1.72,1.81,1.91,1.91,0,0,0,1.42-.69l.44.41a2.41,2.41,0,0,1-4.29-1.51Z"/><path class="cls-2" d="M56,74.67v0a2.29,2.29,0,0,1,2.23-2.42,2.22,2.22,0,0,1,2.17,2.46,1.77,1.77,0,0,1,0,.23H56.7a1.63,1.63,0,0,0,1.64,1.57,1.92,1.92,0,0,0,1.47-.66l.43.39a2.42,2.42,0,0,1-1.92.87A2.31,2.31,0,0,1,56,74.67Zm3.7-.27a1.53,1.53,0,0,0-1.49-1.58A1.6,1.6,0,0,0,56.7,74.4Z"/><path class="cls-2" d="M61.07,74.67v0a2.29,2.29,0,0,1,2.23-2.42,2.11,2.11,0,0,1,1.78,1V70.41h.69V77h-.69v-.94a2.09,2.09,0,0,1-1.78,1A2.27,2.27,0,0,1,61.07,74.67Zm4,0v0a1.73,1.73,0,0,0-1.69-1.79,1.64,1.64,0,0,0-1.63,1.79v0a1.68,1.68,0,0,0,1.63,1.8A1.74,1.74,0,0,0,65.11,74.66Z"/><path class="cls-2" d="M28.06,87.07l.44-.53a3,3,0,0,0,2.16.9c.85,0,1.4-.45,1.4-1.07v0c0-.59-.31-.92-1.63-1.2s-2.12-.78-2.12-1.82v0a1.86,1.86,0,0,1,2.07-1.72,3.32,3.32,0,0,1,2.22.78l-.42.55a2.75,2.75,0,0,0-1.82-.69c-.82,0-1.34.45-1.34,1v0c0,.59.33.93,1.71,1.22s2.05.82,2.05,1.79h0c0,1.08-.9,1.79-2.15,1.79A3.69,3.69,0,0,1,28.06,87.07Z"/><path class="cls-2" d="M33.56,85.67v0a2.29,2.29,0,0,1,2.23-2.42A2.22,2.22,0,0,1,38,85.69a1.77,1.77,0,0,1,0,.23H34.26a1.63,1.63,0,0,0,1.64,1.57,1.92,1.92,0,0,0,1.47-.66l.43.39a2.42,2.42,0,0,1-1.92.87A2.31,2.31,0,0,1,33.56,85.67Zm3.7-.27a1.54,1.54,0,0,0-1.49-1.58,1.6,1.6,0,0,0-1.51,1.58Z"/><path class="cls-2" d="M39.15,86.75V83.94H38.5v-.61h.65v-1.4h.69v1.4h1.48v.61H39.84v2.72a.69.69,0,0,0,.78.78,1.46,1.46,0,0,0,.68-.17v.6a1.86,1.86,0,0,1-.84.2A1.18,1.18,0,0,1,39.15,86.75Z"/><path class="cls-2" d="M42.51,86.75V83.94h-.65v-.61h.65v-1.4h.7v1.4h1.47v.61H43.21v2.72a.69.69,0,0,0,.78.78,1.42,1.42,0,0,0,.67-.17v.6a1.79,1.79,0,0,1-.83.2A1.19,1.19,0,0,1,42.51,86.75Z"/><path class="cls-2" d="M45.65,81.55h.79v.76h-.79Zm.05,1.78h.69V88H45.7Z"/><path class="cls-2" d="M47.73,83.33h.69v.81a1.79,1.79,0,0,1,1.6-.91A1.7,1.7,0,0,1,51.8,85.1V88h-.69V85.27a1.24,1.24,0,0,0-1.29-1.41,1.38,1.38,0,0,0-1.4,1.46V88h-.69Z"/><path class="cls-2" d="M53,88.8l.32-.54a3,3,0,0,0,1.79.59,1.53,1.53,0,0,0,1.69-1.66v-.55a2.22,2.22,0,0,1-1.83,1,2.16,2.16,0,0,1-2.19-2.18v0a2.2,2.2,0,0,1,4-1.26v-.84h.69v3.85a2.2,2.2,0,0,1-.59,1.64,2.42,2.42,0,0,1-1.77.62A3.66,3.66,0,0,1,53,88.8Zm3.82-3.36v0a1.64,1.64,0,0,0-1.71-1.58,1.54,1.54,0,0,0-1.61,1.57v0A1.56,1.56,0,0,0,55.06,87,1.64,1.64,0,0,0,56.77,85.44Z"/><path class="cls-2" d="M58.32,87.39l.35-.49a2.81,2.81,0,0,0,1.62.59c.55,0,1-.29,1-.74v0c0-.46-.55-.64-1.16-.81s-1.54-.46-1.54-1.32v0a1.4,1.4,0,0,1,1.58-1.33,3.24,3.24,0,0,1,1.68.51l-.32.53a2.59,2.59,0,0,0-1.37-.45c-.55,0-.91.28-.91.67v0c0,.44.58.61,1.2.8s1.5.5,1.5,1.33v0a1.47,1.47,0,0,1-1.66,1.4A3.25,3.25,0,0,1,58.32,87.39Z"/><path class="cls-3" d="M43.22,23.07a.64.64,0,0,0-.63.53L42,27.4a10.5,10.5,0,0,0-2.13.88L36.71,26a.64.64,0,0,0-.82.07L33.4,28.58a.66.66,0,0,0-.07.82l2.21,3.16a10.61,10.61,0,0,0-.89,2.14l-3.78.63a.64.64,0,0,0-.54.63v3.5a.63.63,0,0,0,.53.63l3.78.67a11,11,0,0,0,.89,2.15L33.3,46a.64.64,0,0,0,.07.82l2.48,2.48a.62.62,0,0,0,.81.07l3.16-2.21a10.82,10.82,0,0,0,2.14.88l.63,3.8a.64.64,0,0,0,.63.54h3.51a.64.64,0,0,0,.62-.53L48,48.06a10.21,10.21,0,0,0,2.12-.89l3.19,2.23a.62.62,0,0,0,.81-.07l2.48-2.48A.64.64,0,0,0,56.7,46l-2.27-3.15a10.53,10.53,0,0,0,.87-2.11l3.84-.68a.64.64,0,0,0,.53-.63V36a.64.64,0,0,0-.54-.63L55.3,34.7a11.15,11.15,0,0,0-.87-2.11l2.23-3.18a.64.64,0,0,0-.07-.82l-2.48-2.48a.64.64,0,0,0-.82-.07L50.15,28.3A10.5,10.5,0,0,0,48,27.42l-.67-3.82a.62.62,0,0,0-.62-.53ZM45,33.91a3.83,3.83,0,1,1-3.83,3.83A3.82,3.82,0,0,1,45,33.91Z"/></svg>