<svg id="Layer_1" data-name="Layer 1" xmlns="http://www.w3.org/2000/svg" xmlns:xlink="http://www.w3.org/1999/xlink" viewBox="0 0 90 100"><defs><style>.cls-1,.cls-11,.cls-5,.cls-6,.cls-7{fill:none;}.cls-2{fill:#74af27;}.cls-10,.cls-3,.cls-8,.cls-9{fill:#fff;}.cls-4{clip-path:url(#clip-path);}.cls-10,.cls-11,.cls-5,.cls-6,.cls-7,.cls-8,.cls-9{stroke:#74af27;}.cls-5,.cls-6,.cls-7,.cls-8,.cls-9{stroke-linecap:round;}.cls-5,.cls-6,.cls-7,.cls-8{stroke-linejoin:round;}.cls-5{stroke-width:0.61px;}.cls-6{stroke-width:0.72px;}.cls-7{stroke-width:0.43px;}.cls-10,.cls-8,.cls-9{stroke-width:0.55px;}.cls-10,.cls-11,.cls-9{stroke-miterlimit:10;}</style><clipPath id="clip-path"><circle class="cls-1" cx="44.97" cy="37.94" r="28.55"/></clipPath></defs><title>EV-Systems_Operations-KeySwitchControl-WallPod</title><path class="cls-2" d="M22.46,70.68h.71v3.77l3.62-3.77h.92L25,73.44,27.83,77h-.9l-2.42-3.06-1.34,1.36V77h-.71Z"/><path class="cls-2" d="M28,74.67v0a2.29,2.29,0,0,1,2.23-2.42,2.22,2.22,0,0,1,2.17,2.46,1.77,1.77,0,0,1,0,.23H28.69a1.63,1.63,0,0,0,1.64,1.57,1.89,1.89,0,0,0,1.46-.66l.44.39a2.42,2.42,0,0,1-1.92.87A2.31,2.31,0,0,1,28,74.67Zm3.7-.27a1.54,1.54,0,0,0-1.49-1.58,1.6,1.6,0,0,0-1.51,1.58Z"/><path class="cls-2" d="M36.59,72.33h.74l-1.95,4.81c-.4,1-.85,1.31-1.55,1.31a2.13,2.13,0,0,1-1-.23l.23-.55a1.43,1.43,0,0,0,.73.17c.41,0,.68-.21,1-.87l-2.11-4.64h.76l1.7,3.88Z"/><path class="cls-2" d="M40.29,76.07l.44-.53a3,3,0,0,0,2.16.9c.85,0,1.4-.45,1.4-1.07v0c0-.59-.31-.92-1.63-1.2s-2.12-.78-2.12-1.82v0a1.86,1.86,0,0,1,2.07-1.72,3.32,3.32,0,0,1,2.22.78l-.42.55a2.75,2.75,0,0,0-1.82-.69c-.82,0-1.34.45-1.34,1v0c0,.59.33.93,1.71,1.22S45,74.31,45,75.28h0c0,1.08-.91,1.79-2.16,1.79A3.69,3.69,0,0,1,40.29,76.07Z"/><path class="cls-2" d="M45.59,72.33h.74l1.22,3.74,1.25-3.76h.58l1.26,3.76,1.22-3.74h.72L51,77h-.61l-1.25-3.67L47.83,77h-.61Z"/><path class="cls-2" d="M53.48,70.55h.79v.76h-.79Zm.05,1.78h.69V77h-.69Z"/><path class="cls-2" d="M55.8,75.75V72.94h-.64v-.61h.64v-1.4h.7v1.4H58v.61H56.5v2.72a.69.69,0,0,0,.78.78,1.46,1.46,0,0,0,.68-.17v.6a1.86,1.86,0,0,1-.84.2A1.19,1.19,0,0,1,55.8,75.75Z"/><path class="cls-2" d="M58.5,74.68v0a2.42,2.42,0,0,1,4.25-1.6l-.46.49a1.85,1.85,0,0,0-1.41-.71,1.72,1.72,0,0,0-1.66,1.8v0a1.73,1.73,0,0,0,1.71,1.81,1.91,1.91,0,0,0,1.42-.69l.44.41a2.41,2.41,0,0,1-4.29-1.51Z"/><path class="cls-2" d="M63.66,70.41h.69v2.73a1.79,1.79,0,0,1,1.6-.91,1.7,1.7,0,0,1,1.78,1.87V77H67V74.27a1.24,1.24,0,0,0-1.29-1.41,1.38,1.38,0,0,0-1.4,1.46V77h-.69Z"/><path class="cls-2" d="M29.84,84.85v0A3.17,3.17,0,0,1,33,81.58a3.25,3.25,0,0,1,2.46,1L35,83.1a2.71,2.71,0,0,0-2-.87,2.48,2.48,0,0,0-2.44,2.59h0A2.5,2.5,0,0,0,33,87.44a2.77,2.77,0,0,0,2-.91l.47.46A3.31,3.31,0,0,1,33,88.09,3.14,3.14,0,0,1,29.84,84.85Z"/><path class="cls-2" d="M36,85.68v0a2.41,2.41,0,0,1,2.43-2.43,2.39,2.39,0,0,1,2.42,2.41v0a2.41,2.41,0,0,1-2.44,2.43A2.38,2.38,0,0,1,36,85.68Zm4.14,0v0a1.76,1.76,0,0,0-1.73-1.82,1.72,1.72,0,0,0-1.7,1.8v0a1.75,1.75,0,0,0,1.72,1.81A1.72,1.72,0,0,0,40.13,85.68Z"/><path class="cls-2" d="M41.82,83.33h.7v.81a1.76,1.76,0,0,1,1.59-.91,1.7,1.7,0,0,1,1.78,1.87V88H45.2V85.27a1.24,1.24,0,0,0-1.29-1.41,1.37,1.37,0,0,0-1.39,1.46V88h-.7Z"/><path class="cls-2" d="M47.34,86.75V83.94h-.65v-.61h.65v-1.4H48v1.4h1.48v.61H48v2.72a.7.7,0,0,0,.79.78,1.42,1.42,0,0,0,.67-.17v.6a1.8,1.8,0,0,1-.84.2A1.19,1.19,0,0,1,47.34,86.75Z"/><path class="cls-2" d="M50.46,83.33h.7v1.22a2,2,0,0,1,1.9-1.3V84H53a1.87,1.87,0,0,0-1.84,2.13V88h-.7Z"/><path class="cls-2" d="M53.35,85.68v0a2.41,2.41,0,0,1,2.43-2.43,2.39,2.39,0,0,1,2.42,2.41v0a2.41,2.41,0,0,1-2.44,2.43A2.38,2.38,0,0,1,53.35,85.68Zm4.14,0v0a1.76,1.76,0,0,0-1.73-1.82,1.72,1.72,0,0,0-1.7,1.8v0a1.75,1.75,0,0,0,1.72,1.81A1.72,1.72,0,0,0,57.49,85.68Z"/><path class="cls-2" d="M59.25,81.41h.69V88h-.69Z"/><circle class="cls-3" cx="45.03" cy="37.94" r="28.55"/><g class="cls-4"><line class="cls-5" x1="44.72" y1="35.39" x2="44.72" y2="54.27"/><polyline class="cls-5" points="44.73 -7.56 44.73 -7.51 44.74 -7.29 44.75 -7.09 44.77 -6.88 44.78 -6.66 44.8 -6.45 44.81 -6.25 44.81 -6.22 44.81 -6.19 44.81 -6.16 44.81 -6.14 44.81 -6.11 44.81 -6.08 44.8 -6.06 44.8 -6.03 44.79 -5.98 44.78 -5.92 44.77 -5.88 44.76 -5.83 44.75 -5.77 44.74 -5.72 44.72 -5.67 44.71 -5.62 44.68 -5.52 44.65 -5.41 44.62 -5.31 44.59 -5.21 44.56 -5.11 44.52 -5.01 44.49 -4.91 44.47 -4.81 44.43 -4.71 44.39 -4.61 44.38 -4.56 44.37 -4.54 44.36 -4.52 44.36 -4.51 44.33 -4.44 44.29 -4.31 44.24 -4.18 44.2 -4.04 44.16 -3.91 44.12 -3.77 44.08 -3.65 44.04 -3.51 44 -3.38 43.96 -3.24 43.92 -3.1 43.88 -2.97 43.85 -2.83 43.82 -2.7 43.79 -2.56 43.76 -2.42 43.73 -2.29 43.7 -2.14 43.67 -2.01 43.64 -1.87 43.62 -1.74 43.59 -1.6 43.57 -1.46 43.55 -1.32 43.53 -1.18 43.51 -1.04 43.49 -0.9 43.47 -0.77 43.46 -0.62 43.44 -0.49 43.42 -0.35 43.41 -0.2 43.4 -0.07 43.39 0.08 43.37 0.21 43.37 0.35 43.36 0.49 43.35 0.63 43.34 0.77 43.34 0.91 43.33 1.05 43.33 1.19 43.33 1.33 43.33 1.4 43.33 1.43 43.33 1.45 43.33 1.46 43.33 1.48 43.33 1.68 43.33 1.87 43.33 2.05 43.34 2.25 43.34 2.44 43.34 2.64 43.35 2.83 43.36 3.02 43.36 3.22 43.37 3.41 43.38 3.6 43.39 3.8 43.4 3.98 43.41 4.18 43.42 4.37 43.43 4.57 43.44 4.76 43.46 4.95 43.47 5.15 43.49 5.34 43.5 5.54 43.52 5.72 43.53 5.91 43.55 6.11 43.56 6.3 43.58 6.5 43.61 6.69 43.63 6.87 43.65 7.07 43.67 7.26 43.7 7.45 43.72 7.65 43.75 7.83 43.77 8.03 43.8 8.22 43.83 8.41 43.85 8.6 43.88 8.79 43.9 8.99 43.93 9.17 43.97 9.36 44 9.56 44.03 9.74 44.07 9.94 44.1 10.13 44.13 10.31 44.17 10.51 44.2 10.69 44.2 10.7 44.2 10.71 44.2 10.72 44.21 10.73 44.21 10.74 44.21 10.75 44.22 10.75 44.22 10.76 44.22 10.77 44.23 10.77 44.23 10.78 44.24 10.79 44.24 10.8 44.25 10.8 44.25 10.81 44.26 10.81 44.26 10.82 44.27 10.82 44.27 10.83 44.28 10.83 44.29 10.83 44.29 10.84 44.3 10.84"/><line class="cls-5" x1="44.45" y1="14.77" x2="44.47" y2="14.77"/><path class="cls-5" d="M44.72,11.16a2,2,0,0,0-1.29-.61"/><polyline class="cls-5" points="43.43 10.57 43.36 10.55 43.3 10.52 43.26 10.46 43.23 10.4 43.23 10.39 42.99 8.92 42.8 7.43 42.64 5.94 42.54 4.45 42.47 2.96 42.45 1.46"/><path class="cls-5" d="M44.73-7.56a18.94,18.94,0,0,0-2.28,9"/><polyline class="cls-5" points="71.84 52.13 71.84 52.1 71.84 52.08 71.84 52.05 71.84 52.02 71.83 52.01 71.83 51.99 71.82 51.96 71.82 51.94 71.81 51.91 71.8 51.89 71.8 51.86 71.79 51.84 71.78 51.82 71.77 51.79 71.76 51.77 71.75 51.75 71.73 51.73 71.72 51.7 71.71 51.69 71.69 51.67 71.68 51.65 71.66 51.63 71.65 51.61 71.63 51.59 71.61 51.57 71.6 51.56 71.58 51.54 71.56 51.52 71.55 51.5 71.53 51.49 71.51 51.47 71.49 51.46 71.47 51.44 71.45 51.43 71.43 51.42 71.41 51.4 71.38 51.39 71.36 51.38 71.34 51.38 71.32 51.37 71.29 51.35 71.27 51.35 71.25 51.35 71.23 51.34 71.21 51.33 71.18 51.33 71.16 51.32 71.13 51.32 71.11 51.31 71.08 51.31 71.06 51.31 71.03 51.31 71.01 51.31 71 51.31 70.99 51.32 70.97 51.32 70.96 51.32 70.95 51.32 70.94 51.33 70.92 51.33 70.9 51.33 70.87 51.33 70.85 51.33 70.82 51.33 70.81 51.33 70.74 51.33 70.18 51.32 69.63 51.31 69.07 51.31 68.51 51.3 67.96 51.29 67.41 51.28 66.84 51.27 66.57 51.27 66.55 51.27 66.48 51.27 66.23 51.26 65.21 51.24 63.17 51.21 62.15 51.19 62.12 51.19 62.11 51.19 62.1 51.19 62.07 51.19 62.05 51.18 62.03 51.18 62.01 51.18 61.99 51.18 61.97 51.17 61.94 51.17 61.92 51.16 61.9 51.15 61.87 51.15 61.85 51.14 61.83 51.13 61.8 51.12 61.78 51.11 61.76 51.1 61.73 51.09 61.71 51.08 61.7 51.06 61.68 51.05 61.65 51.03 61.63 51.03 61.61 51.01 61.59 51 61.57 50.98 61.55 50.96 61.53 50.94 61.51 50.92 61.5 50.9 61.48 50.89 61.46 50.86 61.45 50.84 61.43 50.82 61.42 50.8 61.4 50.78 61.39 50.76 61.38 50.73 61.38 50.72 61.37 50.7 61.36 50.67 61.35 50.65 61.34 50.63 61.33 50.6 61.32 50.58 61.32 50.56 61.31 50.53 61.3 50.51 61.3 50.48 61.3 50.46 61.29 50.44 61.29 50.41 61.29 50.4 61.29 50.38 61.29 50.35 61.29 50.34 61.29 50.32 61.29 50.28 61.29 49.69 61.29 49.09 61.29 49.06 61.29 49.05 61.29 49.04 61.29 49.03 61.29 49.01 61.29 48.99 61.29 48.96 61.3 48.94 61.3 48.92 61.3 48.89 61.31 48.87 61.31 48.84 61.32 48.83 61.33 48.8 61.33 48.78 61.34 48.76 61.35 48.74 61.36 48.71 61.37 48.69 61.38 48.67 61.39 48.64 61.4 48.62 61.41 48.6 61.43 48.58 61.44 48.55 61.46 48.53 61.47 48.52 61.49 48.49 61.51 48.48 61.53 48.46 61.54 48.45 61.56 48.43 61.58 48.41 61.6 48.39 61.62 48.38 61.64 48.36 61.67 48.35 61.69 48.33 61.7 48.32 61.72 48.31 61.75 48.29 61.77 48.28 61.79 48.27 61.82 48.26 61.84 48.25 61.86 48.25 61.89 48.24 61.91 48.23 61.93 48.23 61.96 48.22 61.98 48.22 62 48.21 62.02 48.21 62.04 48.21 62.06 48.2 62.09 48.2 62.11 48.2 62.12 48.2 62.14 48.2 62.2 48.2 62.34 48.2 64.37 48.17 68.46 48.1 70.51 48.06 70.76 48.06 70.9 48.05 70.95 48.05 70.99 48.05 71 48.05 71.01 48.05 71.03 48.05 71.05 48.05 71.08 48.05 71.1 48.04 71.12 48.04 71.15 48.04 71.17 48.03 71.19 48.03 71.22 48.02 71.23 48.01 71.25 48.01 71.28 48 71.3 47.99 71.32 47.98 71.35 47.97 71.37 47.96 71.39 47.95 71.42 47.93 71.44 47.92 71.46 47.91 71.48 47.89 71.5 47.88 71.52 47.87 71.54 47.85 71.56 47.84 71.58 47.82 71.59 47.8 71.61 47.78 71.63 47.76 71.65 47.74 71.66 47.72 71.68 47.7 71.69 47.68 71.71 47.66 71.72 47.63 71.73 47.61 71.75 47.59 71.76 47.57 71.77 47.55 71.78 47.53 71.79 47.51 71.79 47.48 71.8 47.46 71.81 47.43 71.82 47.41 71.82 47.39 71.83 47.36 71.83 47.34 71.83 47.32 71.84 47.29 71.84 47.27 71.84 47.25 71.84 47.23 71.84 47.21"/><polyline class="cls-5" points="71 58.03 71.06 58.03 71.12 58.02 71.18 58.01 71.23 58 71.29 57.97 71.35 57.95 71.41 57.92 71.47 57.88 71.53 57.84 71.58 57.8 71.62 57.75 71.66 57.7 71.7 57.65 71.73 57.59 71.76 57.53 71.79 57.47 71.81 57.41 71.82 57.36 71.83 57.3 71.84 57.23 71.84 57.2 71.84 57.19 71.84 57.18 71.84 57.16 71.84 57.12 71.84 56.96 71.84 56.64 71.84 51.46 71.84 41.12 71.84 -0.26 71.84 -10.6 71.84 -11.9 71.84 -11.97 71.84 -11.99 71.84 -12 71.84 -12.01 71.84 -12.05 71.83 -12.12 71.82 -12.2 71.8 -12.28 71.78 -12.34 71.75 -12.42 71.71 -12.5 71.67 -12.57 71.65 -12.6 71.62 -12.63 71.59 -12.66 71.58 -12.69 71.55 -12.73 71.52 -12.76 71.49 -12.79 71.45 -12.81 71.42 -12.84 71.39 -12.86 71.32 -12.91 71.25 -12.95 71.18 -12.97 71.1 -13 71.03 -13.02 70.95 -13.04 70.88 -13.05 70.87 -13.05 70.86 -13.05 70.83 -13.05 70.73 -13.06 70.32 -13.09 69.52 -13.15 63.09 -13.65 61.48 -13.78 60.68 -13.84 60.27 -13.88 60.17 -13.88 60.12 -13.88 60.1 -13.88 60.09 -13.88 60.06 -13.88 59.98 -13.89 59.9 -13.91 59.82 -13.92 59.75 -13.94 59.67 -13.96 59.6 -13.99 59.52 -14.02 59.45 -14.05 59.38 -14.08 59.3 -14.12 59.23 -14.16 59.16 -14.2 59.1 -14.23 59.03 -14.28 58.97 -14.33 58.91 -14.38 58.85 -14.44 58.8 -14.49 58.74 -14.54 58.69 -14.6 58.66 -14.63 58.64 -14.65 58.6 -14.7 58.55 -14.75 58.52 -14.79 58.47 -14.83 58.42 -14.87 58.37 -14.9 58.31 -14.94 58.26 -14.98 58.2 -15.01 58.15 -15.04 58.09 -15.07 58.03 -15.1 57.97 -15.13 57.91 -15.15 57.86 -15.16 57.8 -15.18 57.73 -15.19 57.67 -15.2 57.6 -15.21 57.55 -15.22 57.49 -15.23 57.29 -15.24 56.91 -15.27 56.16 -15.32 55.4 -15.38 55.02 -15.4 54.98 -15.41 54.96 -15.41 54.96 -15.4 54.96 -15.36 54.96 -15.26 54.96 -15.09 54.96 -14.72 54.96 -11.83 54.96 -6.03 54.96 40.28 54.96 51.87 54.96 57.66 54.96 60.56 54.96 62 54.96 62.02 54.96 62.04 54.99 62.04 55.05 62.04 55.06 62.03 55.07 62.03 55.09 62.03 55.13 62.03 55.23 62.02 55.59 62 56.3 61.95 57.03 61.89 57.39 61.88 57.49 61.87 57.5 61.87 57.57 61.86 57.6 61.86 57.62 61.85 57.66 61.85 57.67 61.85 57.67 61.84 57.69 61.84 57.7 61.83 57.71 61.82 57.73 61.81 57.74 61.79 57.74 61.78 57.75 61.76 57.75 61.75 57.75 61.73 57.75 61.72 57.77 61.72 57.8 61.71 57.81 61.7 57.85 61.68 57.88 61.66 57.9 61.65 57.91 61.64 57.94 61.63 57.99 61.59 58.04 61.55 58.09 61.51 58.13 61.47 58.17 61.41 58.2 61.36 58.23 61.3 58.26 61.24 58.29 61.19 58.3 61.12 58.32 61.06 58.33 61 58.33 60.93 58.33 60.92 58.33 60.91 58.33 60.9 58.33 60.83 58.33 60.7 58.33 60.44 58.33 59.93 58.33 59.41 58.33 59.28 58.33 59.22 58.33 59.18 58.33 59.17 58.33 59.09 58.34 59.02 58.36 58.95 58.38 58.87 58.41 58.79 58.44 58.72 58.48 58.65 58.5 58.62 58.52 58.58 58.54 58.55 58.57 58.51 58.6 58.48 58.63 58.45 58.66 58.42 58.69 58.39 58.72 58.37 58.75 58.35 58.79 58.32 58.81 58.3 58.89 58.26 58.96 58.22 59.04 58.19 59.11 58.16 59.18 58.15 59.26 58.13 59.33 58.13 59.37 58.13 59.38 58.13 59.48 58.13 59.71 58.12 60.57 58.12 64.05 58.08 71 58.03"/><path class="cls-5" d="M46.3,49.36v.07"/><line class="cls-5" x1="43" y1="25.17" x2="43.01" y2="25.17"/><polyline class="cls-5" points="54.53 -15.37 54.53 62 48.84 61.51 48.66 61.48 48.37 61.35 48.24 61.25"/><polyline class="cls-5" points="46.94 58.5 47.06 57.66 47.1 57.3 47.12 56.67 47.1 55.84 47.03 54.84 46.93 53.69 46.77 52.45"/><line class="cls-5" x1="47.04" y1="54.83" x2="47.04" y2="54.83"/><line class="cls-5" x1="44.5" y1="14.47" x2="44.5" y2="14.47"/><line class="cls-5" x1="42.93" y1="22.06" x2="42.93" y2="21.67"/><line class="cls-5" x1="42.93" y1="24.97" x2="42.93" y2="24.59"/><line class="cls-5" x1="44.38" y1="30.96" x2="44.23" y2="29.81"/><line class="cls-5" x1="46.39" y1="49.99" x2="46.35" y2="49.73"/><line class="cls-5" x1="46.77" y1="52.45" x2="46.6" y2="51.33"/><line class="cls-5" x1="46.3" y1="49.44" x2="46.3" y2="49.44"/><line class="cls-5" x1="46.39" y1="49.99" x2="46.39" y2="49.99"/><line class="cls-5" x1="46.35" y1="49.73" x2="46.3" y2="49.44"/><polyline class="cls-5" points="44.23 29.82 44.07 28.8 43.89 27.95 43.73 27.3 43.61 26.91 43.26 25.98 42.97 25.19 42.94 25.07 42.93 24.97"/><polyline class="cls-5" points="42.93 21.67 42.94 21.56 42.97 21.45 43.73 19.34 43.89 18.68 44.38 15.68 44.49 14.46 44.57 13.36"/><polyline class="cls-5" points="48.24 61.25 47.26 60.39 47.13 60.27 46.98 60 46.92 59.83 46.84 59.45 46.82 59.34 46.83 59.22 46.94 58.5"/><polyline class="cls-5" points="42.99 22.06 43 22.06 43 22.07 43 22.07 43 22.09 43.01 22.09 43.01 22.09 43.01 22.1 43.01 22.11 43.01 22.12 43.01 22.13 43.01 22.14 43.02 22.16 43.02 22.18 43.02 22.2 43.02 22.23 43.02 22.25 43.03 22.27 43.03 22.29 43.03 22.31 43.03 22.33 43.03 22.35 43.03 22.37 43.04 22.41 43.04 22.44 43.04 22.48 43.04 22.52 43.04 22.56 43.04 22.6 43.05 22.64 43.05 22.69 43.05 22.73 43.05 22.76 43.05 22.8 43.05 22.84 43.05 22.88 43.05 22.92 43.05 22.96 43.05 23 43.05 23.04 43.06 23.08 43.06 23.12 43.06 23.16 43.06 23.2 43.06 23.24 43.06 23.28 43.06 23.32 43.06 23.36 43.06 23.39 43.06 23.43 43.06 23.48 43.06 23.52 43.06 23.56 43.05 23.6 43.05 23.64 43.05 23.68 43.05 23.71 43.05 23.75 43.05 23.79 43.05 23.83 43.05 23.87 43.05 23.92 43.05 23.96 43.05 24 43.04 24.03 43.04 24.07 43.04 24.11 43.04 24.15 43.04 24.19 43.04 24.23 43.03 24.27 43.03 24.29 43.03 24.3 43.03 24.33 43.03 24.35 43.03 24.37 43.02 24.39 43.02 24.41 43.02 24.43 43.02 24.45 43.02 24.47 43.01 24.49 43.01 24.5 43.01 24.51 43.01 24.52 43.01 24.53 43.01 24.54 43.01 24.55 43 24.56 43 24.57 43 24.58 43 24.59 42.99 24.59"/><line class="cls-5" x1="45.09" y1="-9.89" x2="45.09" y2="6.85"/><polyline class="cls-5" points="44.57 33.27 44.76 35.94 44.97 38.61 45.23 41.26 45.53 43.92 45.88 46.57 46.27 49.21 46.3 49.44"/><polyline class="cls-5" points="46.39 49.99 46.41 50.13 46.42 50.22 46.6 51.33"/><path class="cls-5" d="M54.58,61.84a0,0,0,0,0,0,0"/><line class="cls-5" x1="54.58" y1="61.84" x2="54.92" y2="61.84"/><path class="cls-5" d="M54.91,61.83a0,0,0,0,0,.05,0"/><polyline class="cls-5" points="46.6 -4.68 46.42 -3.58 46.06 -1.18 45.73 1.24 45.43 3.65 45.16 6.08 44.93 8.5 44.74 10.94 44.57 13.36"/><polyline class="cls-5" points="44.57 33.27 44.49 32.17 44.38 30.95"/><line class="cls-5" x1="42.99" y1="22.05" x2="42.93" y2="22.06"/><polyline class="cls-5" points="42.93 24.59 42.98 24.59 42.99 24.59"/><path class="cls-5" d="M71.85,25.8A.85.85,0,0,0,71,25"/><line class="cls-5" x1="71.01" y1="24.96" x2="62.11" y2="24.81"/><path class="cls-5" d="M61.29,24a.85.85,0,0,0,.83.85"/><line class="cls-5" x1="61.29" y1="23.97" x2="61.29" y2="22.67"/><path class="cls-5" d="M62.12,21.81a.85.85,0,0,0-.83.85"/><line class="cls-5" x1="62.11" y1="21.82" x2="71.01" y2="21.67"/><path class="cls-5" d="M71,21.67a.85.85,0,0,0,.84-.85"/><path class="cls-5" d="M72,55.36a.1.1,0,0,0-.1.1"/><line class="cls-5" x1="71.94" y1="55.36" x2="72.95" y2="55.34"/><path class="cls-5" d="M73,55.34a0,0,0,0,0,0-.05"/><line class="cls-5" x1="73" y1="55.29" x2="73" y2="51.08"/><path class="cls-5" d="M73,51.08a0,0,0,0,0,0,0"/><line class="cls-5" x1="72.95" y1="51.03" x2="71.94" y2="51.02"/><path class="cls-5" d="M71.85,50.9A.1.1,0,0,0,72,51"/><polyline class="cls-5" points="44.45 14.96 44.45 14.14 43.65 14.2"/><path class="cls-5" d="M43.66,14.19a.06.06,0,0,0,0,.06"/><line class="cls-5" x1="43.6" y1="14.25" x2="43.6" y2="17.2"/><path class="cls-5" d="M43.61,17.19a.06.06,0,0,0,0,.06"/><line class="cls-5" x1="43.65" y1="17.26" x2="44.12" y2="17.29"/><line class="cls-5" x1="43.24" y1="35.08" x2="42.61" y2="35.08"/><path class="cls-5" d="M42.62,35.07a2.33,2.33,0,0,0-1,1.5"/><polyline class="cls-5" points="41.6 36.57 41.38 37.87 41.21 39.17 41.08 40.47 40.99 41.78 40.95 43.09 40.94 44.4 40.97 45.71 41.04 47.02 41.16 48.33 41.3 49.63 41.51 50.93"/><path class="cls-5" d="M41.51,50.92A3.89,3.89,0,0,0,43,53.22"/><line class="cls-5" x1="42.99" y1="53.23" x2="42.99" y2="52.7"/><line class="cls-5" x1="45.09" y1="54.27" x2="44.19" y2="54.27"/><path class="cls-5" d="M43.93,53.72a.89.89,0,0,0,.26.55"/><path class="cls-5" d="M41.85,50.88a9.65,9.65,0,0,0,2.07,2.84"/><polyline class="cls-5" points="41.85 50.88 41.97 48.84 42.03 46.8 42.07 44.74 42.07 42.7 42.03 40.65 41.97 38.61 41.85 36.57"/><path class="cls-5" d="M43.55,34.79a20.31,20.31,0,0,0-1.69,1.78"/><path class="cls-5" d="M43.54,34.78a1.49,1.49,0,0,0-.36-.5"/><path class="cls-5" d="M43.74,33.7a2.7,2.7,0,0,0-.55.57"/><path class="cls-5" d="M44.2,33.26a1,1,0,0,0-.46.44"/><line class="cls-5" x1="44.19" y1="33.25" x2="44.57" y2="33.23"/><line class="cls-5" x1="46.93" y1="58.61" x2="46.77" y2="58.58"/><path class="cls-5" d="M46.44,58.44a1,1,0,0,0,.34.14"/><line class="cls-5" x1="46.43" y1="58.44" x2="45.36" y2="57.7"/><path class="cls-5" d="M45.09,57.17a.63.63,0,0,0,.27.52"/><line class="cls-5" x1="45.09" y1="57.17" x2="45.09" y2="39.78"/><circle class="cls-5" cx="65.66" cy="42.94" r="3.35"/><circle class="cls-6" cx="65.66" cy="42.95" r="2.38"/><rect class="cls-7" x="65.52" y="41.4" width="0.28" height="3.1"/><path class="cls-8" d="M24.41,58.77l-2.29-3.36,9-6.46,6.78.66.18,1.9s1.77,4.4-1.11,6.43a2.83,2.83,0,0,1-2.26.4,3.44,3.44,0,0,1-2.47,1.79,2.67,2.67,0,0,1-3-1.35,3.83,3.83,0,0,1-2.5,1.48,2.39,2.39,0,0,1-2.33-1.49"/><path class="cls-8" d="M35.55,51.21,36.68,53c1.79,3,3.51,2.22,3.51,2.22,2.15-.82,1.4-3.87,1.4-3.87a37.58,37.58,0,0,0-2.86-6.51,12.39,12.39,0,0,0-7.72-4c-2.83-.36-10.17-1.57-10.17-1.57-2.86-.4-3.83.84-3.83.84-1.16,1-10.18,11-10.18,11L8.51,63.46l12.14-3a8.23,8.23,0,0,0,5.11-3.07l2.14-3.1,3.21-2.2s4-2.58,2.51-6.15c0,0-1.51-2.11-4.5,0l-8.49,6"/><path class="cls-8" d="M22.49,46.66a16.4,16.4,0,0,0,6.07-.36s1.5,2.23,5.34,2.35a14.29,14.29,0,0,0,1.65,2.56"/><path class="cls-8" d="M54.38,42.79l-1,1.68a2.42,2.42,0,0,1-.57.72,3,3,0,0,1-.92.23h0c-.05,0-.1,0-.14,0-.26-.14-.52-.28-.76-.44s-.18-.08-.27,0c-.26.39-.54.77-.81,1.15a1.6,1.6,0,0,1-1,.22l0,0-1.09-.73-.18-.12L46.55,47l-1-.69s-.12-.08-.17-.07l-1.44.21c0,.09.06.16.08.24.07.4.16.79.22,1.2s-.17.52-.51.4l-1.14-.42-.25-.08a2.09,2.09,0,0,0-.05.21,5.66,5.66,0,0,1-1.38,2.44A4.85,4.85,0,0,1,34,50.38a5.51,5.51,0,0,1-1.6-4A5,5,0,0,1,34,42.48a4.81,4.81,0,0,1,6.93.34c.19.2.36.42.54.64l.36-.41c.19-.21.36-.44.57-.64a.44.44,0,0,1,.74.23c0,.17.08.35.12.52s.08.32.12.51l.25-.06L52.56,42a.73.73,0,0,1,.36,0ZM34.47,47.71a1.16,1.16,0,0,0,1.62-.28,1.19,1.19,0,0,0-.27-1.63,1.15,1.15,0,0,0-1.63.28A1.19,1.19,0,0,0,34.47,47.71Z"/><line class="cls-9" x1="54.34" y1="42.85" x2="43.31" y2="44.78"/><path class="cls-8" d="M8.51,63.46l12.14-3a8.23,8.23,0,0,0,5.11-3.07l2.14-3.1,3.21-2.2s4.81-3,2.51-6.15c0,0-1.51-2.11-4.5,0l-8.49,6"/><line class="cls-10" x1="34.74" y1="58.34" x2="31.11" y2="52.08"/><line class="cls-10" x1="29.24" y1="58.78" x2="27.34" y2="55.09"/></g><circle class="cls-11" cx="45.03" cy="37.94" r="28.55"/></svg>