<svg id="Layer_1" data-name="Layer 1" xmlns="http://www.w3.org/2000/svg" xmlns:xlink="http://www.w3.org/1999/xlink" viewBox="0 0 90 100"><defs><style>.cls-1,.cls-5,.cls-7,.cls-8{fill:none;}.cls-2,.cls-6{fill:#fff;}.cls-2,.cls-5,.cls-6,.cls-7,.cls-8{stroke:#74af27;}.cls-2,.cls-5{stroke-miterlimit:10;}.cls-3{fill:#74af27;}.cls-4{clip-path:url(#clip-path);}.cls-5{stroke-width:0.6px;}.cls-6,.cls-7,.cls-8{stroke-linecap:round;stroke-linejoin:round;}.cls-6,.cls-8{stroke-width:0.71px;}.cls-7{stroke-width:0.72px;}</style><clipPath id="clip-path"><circle class="cls-1" cx="45" cy="37.74" r="27.92"/></clipPath></defs><title>EV-Systems_Operations-OpenChargingNetwork</title><circle class="cls-2" cx="45" cy="37.74" r="28.35"/><path class="cls-3" d="M13.28,73.85v0a3.21,3.21,0,1,1,6.42,0h0a3.19,3.19,0,0,1-3.22,3.26A3.15,3.15,0,0,1,13.28,73.85Zm5.68,0v0a2.48,2.48,0,1,0-5,0h0a2.51,2.51,0,0,0,2.49,2.61A2.48,2.48,0,0,0,19,73.85Z"/><path class="cls-3" d="M20.82,72.33h.69v.94a2.1,2.1,0,0,1,1.78-1,2.28,2.28,0,0,1,2.23,2.41v0a2.28,2.28,0,0,1-2.23,2.42,2.08,2.08,0,0,1-1.78-1v2.34h-.69Zm4,2.34v0a1.68,1.68,0,0,0-1.64-1.8,1.74,1.74,0,0,0-1.69,1.79v0a1.73,1.73,0,0,0,1.69,1.8A1.64,1.64,0,0,0,24.81,74.67Z"/><path class="cls-3" d="M26.24,74.67v0a2.29,2.29,0,0,1,2.23-2.42,2.22,2.22,0,0,1,2.17,2.46,1.77,1.77,0,0,1,0,.23H26.94a1.63,1.63,0,0,0,1.64,1.57A1.9,1.9,0,0,0,30,75.83l.44.39a2.42,2.42,0,0,1-1.92.87A2.31,2.31,0,0,1,26.24,74.67Zm3.7-.27a1.54,1.54,0,0,0-1.49-1.58,1.6,1.6,0,0,0-1.51,1.58Z"/><path class="cls-3" d="M31.58,72.33h.7v.81a1.76,1.76,0,0,1,1.59-.91,1.7,1.7,0,0,1,1.78,1.87V77H35V74.27a1.24,1.24,0,0,0-1.29-1.41,1.37,1.37,0,0,0-1.39,1.46V77h-.7Z"/><path class="cls-3" d="M39.12,73.85v0a3.17,3.17,0,0,1,3.19-3.25,3.27,3.27,0,0,1,2.46,1l-.49.52a2.71,2.71,0,0,0-2-.87,2.48,2.48,0,0,0-2.44,2.59h0a2.5,2.5,0,0,0,2.44,2.61,2.77,2.77,0,0,0,2-.91l.46.46a3.27,3.27,0,0,1-2.52,1.1A3.14,3.14,0,0,1,39.12,73.85Z"/><path class="cls-3" d="M45.66,70.41h.69v2.73a1.77,1.77,0,0,1,1.59-.91,1.71,1.71,0,0,1,1.79,1.87V77H49V74.27a1.24,1.24,0,0,0-1.28-1.41,1.38,1.38,0,0,0-1.4,1.46V77h-.69Z"/><path class="cls-3" d="M50.58,75.63h0c0-1,.81-1.51,2-1.51a5.18,5.18,0,0,1,1.43.2v-.16c0-.84-.51-1.27-1.38-1.27a3.38,3.38,0,0,0-1.42.34L51,72.66a3.8,3.8,0,0,1,1.7-.39,2,2,0,0,1,1.5.51,1.83,1.83,0,0,1,.48,1.36V77H54v-.71a2,2,0,0,1-1.68.8A1.56,1.56,0,0,1,50.58,75.63ZM54,75.28v-.45a4.8,4.8,0,0,0-1.37-.2c-.87,0-1.36.38-1.36,1v0c0,.58.54.93,1.17.93A1.41,1.41,0,0,0,54,75.28Z"/><path class="cls-3" d="M55.87,72.33h.7v1.22a2,2,0,0,1,1.89-1.3V73h-.05a1.87,1.87,0,0,0-1.84,2.13V77h-.7Z"/><path class="cls-3" d="M59,77.8l.32-.54a3,3,0,0,0,1.79.59,1.53,1.53,0,0,0,1.69-1.66v-.55a2.2,2.2,0,0,1-1.82,1,2.15,2.15,0,0,1-2.19-2.18v0a2.2,2.2,0,0,1,4-1.26v-.84h.7v3.85a2.21,2.21,0,0,1-.6,1.64,2.4,2.4,0,0,1-1.77.62A3.7,3.7,0,0,1,59,77.8Zm3.82-3.36v0a1.64,1.64,0,0,0-1.71-1.58,1.54,1.54,0,0,0-1.61,1.57v0A1.57,1.57,0,0,0,61.11,76,1.64,1.64,0,0,0,62.82,74.44Z"/><path class="cls-3" d="M64.78,70.55h.79v.76h-.79Zm0,1.78h.69V77h-.69Z"/><path class="cls-3" d="M66.86,72.33h.69v.81a1.79,1.79,0,0,1,1.6-.91,1.7,1.7,0,0,1,1.78,1.87V77h-.69V74.27A1.24,1.24,0,0,0,69,72.86a1.38,1.38,0,0,0-1.4,1.46V77h-.69Z"/><path class="cls-3" d="M72.08,77.8l.32-.54a3,3,0,0,0,1.79.59,1.53,1.53,0,0,0,1.69-1.66v-.55a2.22,2.22,0,0,1-1.83,1,2.15,2.15,0,0,1-2.18-2.18v0a2.2,2.2,0,0,1,4-1.26v-.84h.69v3.85A2.2,2.2,0,0,1,76,77.82a2.4,2.4,0,0,1-1.77.62A3.66,3.66,0,0,1,72.08,77.8Zm3.82-3.36v0a1.64,1.64,0,0,0-1.71-1.58,1.54,1.54,0,0,0-1.61,1.57v0A1.56,1.56,0,0,0,74.19,76,1.64,1.64,0,0,0,75.9,74.44Z"/><path class="cls-3" d="M27.61,81.68h.67l4,5v-5h.69V88h-.56l-4.07-5.17V88h-.7Z"/><path class="cls-3" d="M34.05,85.67v0a2.29,2.29,0,0,1,2.23-2.42,2.22,2.22,0,0,1,2.17,2.46,1.77,1.77,0,0,1,0,.23H34.75a1.63,1.63,0,0,0,1.64,1.57,1.92,1.92,0,0,0,1.47-.66l.43.39a2.42,2.42,0,0,1-1.92.87A2.31,2.31,0,0,1,34.05,85.67Zm3.7-.27a1.53,1.53,0,0,0-1.49-1.58,1.6,1.6,0,0,0-1.51,1.58Z"/><path class="cls-3" d="M39.64,86.75V83.94H39v-.61h.65v-1.4h.69v1.4h1.48v.61H40.33v2.72a.69.69,0,0,0,.78.78,1.46,1.46,0,0,0,.68-.17v.6a1.86,1.86,0,0,1-.84.2A1.18,1.18,0,0,1,39.64,86.75Z"/><path class="cls-3" d="M42.36,83.33h.74l1.23,3.74,1.25-3.76h.57l1.26,3.76,1.23-3.74h.72L47.72,88h-.6l-1.25-3.67L44.6,88H44Z"/><path class="cls-3" d="M49.72,85.68v0a2.43,2.43,0,0,1,4.86,0v0a2.42,2.42,0,0,1-2.44,2.43A2.38,2.38,0,0,1,49.72,85.68Zm4.15,0v0a1.76,1.76,0,0,0-1.73-1.82,1.72,1.72,0,0,0-1.7,1.8v0a1.74,1.74,0,0,0,1.72,1.81A1.72,1.72,0,0,0,53.87,85.68Z"/><path class="cls-3" d="M55.56,83.33h.69v1.22a2,2,0,0,1,1.9-1.3V84h0a1.88,1.88,0,0,0-1.85,2.13V88h-.69Z"/><path class="cls-3" d="M58.93,81.41h.7V86l2.51-2.62H63l-2,2,2,2.66h-.82l-1.67-2.17-.94,1V88h-.7Z"/><g class="cls-4"><path class="cls-5" d="M41.46,22.72l-13.35-.25s-3.59,0-6,4.4l2.24,54.59,4.54,2,9.89-1.53Z"/><path class="cls-5" d="M30.43,23.72l8.45.11a1.23,1.23,0,0,1,1.19,1.28l-.25,8.24s.14,1.1-1.23,1.14l-7.83.2a1.23,1.23,0,0,1-1.43-1.15l-.23-8.43A1.33,1.33,0,0,1,30.43,23.72Z"/><line class="cls-5" x1="27.75" y1="22.52" x2="28.92" y2="83.42"/><polygon class="cls-5" points="29.28 36.16 39.89 35.92 38.37 69.72 29.83 70.85 29.28 36.16"/><circle class="cls-3" cx="34.58" cy="37.52" r="0.74"/><ellipse class="cls-5" cx="25.45" cy="40.7" rx="1.05" ry="2.44"/><path class="cls-3" d="M39.22,17.82a.48.48,0,0,1-.17-.27.5.5,0,0,1,.36-.61,6.9,6.9,0,0,1,4.85.95A6.6,6.6,0,0,1,47,22.72a.51.51,0,0,1-.42.57.51.51,0,0,1-.57-.43,5.72,5.72,0,0,0-2.25-4.13,5.49,5.49,0,0,0-2.62-.87,5.63,5.63,0,0,0-1.46.05A.51.51,0,0,1,39.22,17.82Zm.56,1.79a4.06,4.06,0,0,1,2.94.56,4.22,4.22,0,0,1,1.59,3,.5.5,0,1,0,1-.15,5.13,5.13,0,0,0-2-3.65,5.07,5.07,0,0,0-3.71-.72.5.5,0,0,0-.39.59.47.47,0,0,0,.18.29A.49.49,0,0,0,39.78,19.61Zm.16,1.73a2.24,2.24,0,0,1,1.66.23,2.33,2.33,0,0,1,1,1.92.5.5,0,0,0,1-.09,3.26,3.26,0,0,0-1.46-2.68,3.19,3.19,0,0,0-2.55-.31.5.5,0,0,0-.28.65.42.42,0,0,0,.16.21A.5.5,0,0,0,39.94,21.34Z"/><path class="cls-6" d="M67.3,53.19V40.91a16.5,16.5,0,0,0,16.4-4c1.39-1.26,0-3,0-3a2,2,0,0,0-3-.6c-8.15,5.68-14.5.86-14.5.86l-4.62-2.61a7.4,7.4,0,0,1-9.27,0l-4.6,3.1s-5.46,4.33-13.61-1.35a2,2,0,0,0-3,.6s-1.39,1.69,0,3a16.49,16.49,0,0,0,16.4,4V53.19A40.78,40.78,0,0,0,67.3,53.19Z"/><polyline class="cls-6" points="56.01 35.43 52.37 36.54 50.43 32.92"/><polyline class="cls-6" points="57.57 35.29 61.28 36.54 62.91 32.83"/><path class="cls-6" d="M50.67,22.39c-.23-2-.27-5.49,4.76-6.42a8.41,8.41,0,0,1,3.64,0s4.61,1,4,6.42c-.1.89-.34,2.68-.51,3.56-.36,1.88-1.23,5.23-5.75,5.06-1.82-.06-4.62-.15-5.44-4.85C51.21,25.22,50.78,23.34,50.67,22.39Z"/><path class="cls-6" d="M50.72,21.44c7,.69,9.6-1.91,9.6-1.91s-.44,2.78,2.75,2.86"/><line class="cls-7" x1="67.51" y1="60.14" x2="66.96" y2="53.47"/><line class="cls-6" x1="47.64" y1="65.66" x2="47.98" y2="53.47"/><polyline class="cls-8" points="56.36 64.11 57.73 57.85 58.53 60.25"/></g></svg>