<svg id="Layer_1" data-name="Layer 1" xmlns="http://www.w3.org/2000/svg" viewBox="0 0 120 100"><defs><style>.cls-1{fill:#fff;}.cls-1,.cls-3{stroke:#74af27;stroke-miterlimit:10;}.cls-2{fill:#74af27;}.cls-3{fill:none;stroke-width:1.04px;}</style></defs><title>EV-Systems_Operations-OptimisesYourChargeWithEnergyTariff</title><circle class="cls-1" cx="60" cy="37.74" r="28.35"/><path class="cls-2" d="M.52,73.85v0a3.19,3.19,0,0,1,3.22-3.25A3.16,3.16,0,0,1,7,73.82H7a3.2,3.2,0,0,1-3.23,3.26A3.16,3.16,0,0,1,.52,73.85Zm5.69,0v0a2.5,2.5,0,0,0-2.49-2.6,2.47,2.47,0,0,0-2.46,2.59h0a2.48,2.48,0,1,0,5,0Z"/><path class="cls-2" d="M8.06,72.33h.69v.94a2.1,2.1,0,0,1,1.79-1,2.28,2.28,0,0,1,2.22,2.41v0a2.28,2.28,0,0,1-2.22,2.42,2.1,2.1,0,0,1-1.79-1v2.34H8.06Zm4,2.34v0a1.68,1.68,0,0,0-1.64-1.8,1.74,1.74,0,0,0-1.68,1.79v0a1.73,1.73,0,0,0,1.68,1.8A1.64,1.64,0,0,0,12.05,74.67Z"/><path class="cls-2" d="M14,75.75V72.94h-.65v-.61H14v-1.4h.69v1.4h1.48v.61H14.7v2.72a.7.7,0,0,0,.79.78,1.42,1.42,0,0,0,.67-.17v.6a1.79,1.79,0,0,1-.83.2A1.19,1.19,0,0,1,14,75.75Z"/><path class="cls-2" d="M17.15,70.55h.79v.76h-.79Zm.05,1.78h.69V77H17.2Z"/><path class="cls-2" d="M19.23,72.33h.69v.79a1.71,1.71,0,0,1,1.51-.89,1.58,1.58,0,0,1,1.49.93,1.86,1.86,0,0,1,1.64-.93,1.68,1.68,0,0,1,1.73,1.88V77H25.6V74.27c0-.9-.46-1.41-1.21-1.41a1.3,1.3,0,0,0-1.28,1.44V77h-.69V74.25c0-.87-.46-1.39-1.2-1.39a1.35,1.35,0,0,0-1.3,1.47V77h-.69Z"/><path class="cls-2" d="M27.54,70.55h.79v.76h-.79Zm0,1.78h.7V77h-.7Z"/><path class="cls-2" d="M29.23,76.39l.35-.49a2.75,2.75,0,0,0,1.61.59c.56,0,1-.29,1-.74v0c0-.46-.54-.64-1.16-.81s-1.54-.46-1.54-1.32v0A1.41,1.41,0,0,1,31,72.25a3.18,3.18,0,0,1,1.67.51l-.31.53A2.63,2.63,0,0,0,31,72.84c-.55,0-.9.28-.9.67v0c0,.44.58.61,1.2.8s1.49.5,1.49,1.33v0a1.47,1.47,0,0,1-1.65,1.4A3.22,3.22,0,0,1,29.23,76.39Z"/><path class="cls-2" d="M33.54,74.67v0a2.3,2.3,0,0,1,2.23-2.42,2.22,2.22,0,0,1,2.17,2.46,1.77,1.77,0,0,1,0,.23H34.24a1.63,1.63,0,0,0,1.64,1.57,1.92,1.92,0,0,0,1.47-.66l.43.39a2.42,2.42,0,0,1-1.92.87A2.31,2.31,0,0,1,33.54,74.67Zm3.7-.27a1.53,1.53,0,0,0-1.49-1.58,1.6,1.6,0,0,0-1.51,1.58Z"/><path class="cls-2" d="M38.5,76.39l.35-.49a2.75,2.75,0,0,0,1.61.59c.56,0,1-.29,1-.74v0c0-.46-.54-.64-1.16-.81s-1.54-.46-1.54-1.32v0a1.41,1.41,0,0,1,1.59-1.33,3.18,3.18,0,0,1,1.67.51l-.31.53a2.63,2.63,0,0,0-1.38-.45c-.55,0-.9.28-.9.67v0c0,.44.58.61,1.2.8s1.49.5,1.49,1.33v0a1.47,1.47,0,0,1-1.65,1.4A3.22,3.22,0,0,1,38.5,76.39Z"/><path class="cls-2" d="M47.62,74.49,45,70.68h.86L48,73.83l2.14-3.15H51l-2.62,3.8V77h-.72Z"/><path class="cls-2" d="M50.42,74.68v0a2.43,2.43,0,0,1,4.86,0v0a2.42,2.42,0,0,1-2.44,2.43A2.38,2.38,0,0,1,50.42,74.68Zm4.14,0v0a1.76,1.76,0,0,0-1.72-1.82,1.72,1.72,0,0,0-1.71,1.8v0a1.75,1.75,0,0,0,1.72,1.81A1.72,1.72,0,0,0,54.56,74.68Z"/><path class="cls-2" d="M56.18,75.22V72.33h.7v2.72a1.25,1.25,0,0,0,1.28,1.41A1.38,1.38,0,0,0,59.56,75V72.33h.68V77h-.68v-.81a1.78,1.78,0,0,1-1.59.9A1.7,1.7,0,0,1,56.18,75.22Z"/><path class="cls-2" d="M61.53,72.33h.69v1.22a2,2,0,0,1,1.9-1.3V73h-.05a1.88,1.88,0,0,0-1.85,2.13V77h-.69Z"/><path class="cls-2" d="M67.17,73.85v0a3.17,3.17,0,0,1,3.19-3.25,3.27,3.27,0,0,1,2.46,1l-.49.52a2.71,2.71,0,0,0-2-.87,2.48,2.48,0,0,0-2.44,2.59h0a2.49,2.49,0,0,0,2.44,2.61,2.75,2.75,0,0,0,2-.91l.47.46a3.27,3.27,0,0,1-2.52,1.1A3.14,3.14,0,0,1,67.17,73.85Z"/><path class="cls-2" d="M73.71,70.41h.69v2.73A1.77,1.77,0,0,1,76,72.23a1.71,1.71,0,0,1,1.79,1.87V77h-.7V74.27a1.24,1.24,0,0,0-1.29-1.41,1.37,1.37,0,0,0-1.39,1.46V77h-.69Z"/><path class="cls-2" d="M78.63,75.63h0c0-1,.81-1.51,2-1.51a5.18,5.18,0,0,1,1.43.2v-.16c0-.84-.51-1.27-1.39-1.27a3.37,3.37,0,0,0-1.41.34L79,72.66a3.8,3.8,0,0,1,1.7-.39,2,2,0,0,1,1.5.51,1.88,1.88,0,0,1,.48,1.36V77h-.67v-.71a2,2,0,0,1-1.68.8A1.56,1.56,0,0,1,78.63,75.63Zm3.43-.35v-.45a4.8,4.8,0,0,0-1.37-.2c-.87,0-1.36.38-1.36,1v0c0,.58.54.93,1.17.93A1.41,1.41,0,0,0,82.06,75.28Z"/><path class="cls-2" d="M83.92,72.33h.7v1.22a2,2,0,0,1,1.89-1.3V73h-.05a1.87,1.87,0,0,0-1.84,2.13V77h-.7Z"/><path class="cls-2" d="M87.05,77.8l.32-.54a3,3,0,0,0,1.79.59,1.53,1.53,0,0,0,1.69-1.66v-.55a2.2,2.2,0,0,1-1.82,1,2.15,2.15,0,0,1-2.19-2.18v0a2.2,2.2,0,0,1,4-1.26v-.84h.7v3.85a2.21,2.21,0,0,1-.6,1.64,2.4,2.4,0,0,1-1.77.62A3.66,3.66,0,0,1,87.05,77.8Zm3.82-3.36v0a1.64,1.64,0,0,0-1.71-1.58,1.54,1.54,0,0,0-1.61,1.57v0A1.57,1.57,0,0,0,89.16,76,1.64,1.64,0,0,0,90.87,74.44Z"/><path class="cls-2" d="M92.53,74.67v0a2.29,2.29,0,0,1,2.23-2.42,2.22,2.22,0,0,1,2.17,2.46,1.77,1.77,0,0,1,0,.23H93.23a1.63,1.63,0,0,0,1.64,1.57,1.89,1.89,0,0,0,1.46-.66l.44.39a2.42,2.42,0,0,1-1.92.87A2.31,2.31,0,0,1,92.53,74.67Zm3.7-.27a1.54,1.54,0,0,0-1.49-1.58,1.6,1.6,0,0,0-1.51,1.58Z"/><path class="cls-2" d="M99.93,70.68h.78l1.8,5.25,1.73-5.26h.58l1.73,5.26,1.8-5.25h.75L106.85,77h-.61l-1.73-5.11L102.78,77h-.6Z"/><path class="cls-2" d="M109.88,70.55h.79v.76h-.79Zm0,1.78h.7V77h-.7Z"/><path class="cls-2" d="M112.2,75.75V72.94h-.65v-.61h.65v-1.4h.69v1.4h1.48v.61h-1.48v2.72a.7.7,0,0,0,.79.78,1.42,1.42,0,0,0,.67-.17v.6a1.8,1.8,0,0,1-.84.2A1.19,1.19,0,0,1,112.2,75.75Z"/><path class="cls-2" d="M115.32,70.41H116v2.73a1.79,1.79,0,0,1,1.6-.91,1.7,1.7,0,0,1,1.78,1.87V77h-.69V74.27a1.24,1.24,0,0,0-1.29-1.41,1.38,1.38,0,0,0-1.4,1.46V77h-.69Z"/><path class="cls-2" d="M9.87,81.68h4.56v.65H10.58v2.15H14v.65H10.58v2.21h3.89V88H9.87Z"/><path class="cls-2" d="M15.51,83.33h.7v.81a1.76,1.76,0,0,1,1.59-.91,1.7,1.7,0,0,1,1.78,1.87V88h-.69V85.27a1.24,1.24,0,0,0-1.29-1.41,1.37,1.37,0,0,0-1.39,1.46V88h-.7Z"/><path class="cls-2" d="M20.5,85.67v0a2.3,2.3,0,0,1,2.23-2.42,2.22,2.22,0,0,1,2.17,2.46,1.77,1.77,0,0,1,0,.23H21.2a1.63,1.63,0,0,0,1.64,1.57,1.92,1.92,0,0,0,1.47-.66l.43.39a2.4,2.4,0,0,1-1.92.87A2.31,2.31,0,0,1,20.5,85.67Zm3.7-.27a1.53,1.53,0,0,0-1.49-1.58A1.6,1.6,0,0,0,21.2,85.4Z"/><path class="cls-2" d="M25.85,83.33h.69v1.22a2,2,0,0,1,1.9-1.3V84h-.06a1.88,1.88,0,0,0-1.84,2.13V88h-.69Z"/><path class="cls-2" d="M29,88.8l.31-.54a3,3,0,0,0,1.79.59,1.54,1.54,0,0,0,1.7-1.66v-.55a2.23,2.23,0,0,1-1.83,1,2.15,2.15,0,0,1-2.19-2.18v0a2.2,2.2,0,0,1,4-1.26v-.84h.69v3.85a2.2,2.2,0,0,1-.59,1.64,2.44,2.44,0,0,1-1.78.62A3.65,3.65,0,0,1,29,88.8Zm3.81-3.36v0a1.63,1.63,0,0,0-1.71-1.58,1.54,1.54,0,0,0-1.61,1.57v0A1.57,1.57,0,0,0,31.08,87,1.63,1.63,0,0,0,32.79,85.44Z"/><path class="cls-2" d="M38.22,83.33H39l-2,4.81c-.4,1-.85,1.31-1.55,1.31a2.13,2.13,0,0,1-1-.23l.23-.55a1.43,1.43,0,0,0,.73.17c.42,0,.68-.21,1-.87l-2.12-4.64H35l1.69,3.88Z"/><path class="cls-2" d="M44,82.34H41.88v-.66h4.95v.66H44.72V88H44Z"/><path class="cls-2" d="M46.29,86.63h0c0-1,.8-1.51,2-1.51a5.26,5.26,0,0,1,1.44.2v-.16c0-.84-.52-1.27-1.39-1.27a3.33,3.33,0,0,0-1.41.34l-.21-.56a3.76,3.76,0,0,1,1.69-.39,2,2,0,0,1,1.5.51,1.83,1.83,0,0,1,.48,1.36V88h-.66v-.71a2,2,0,0,1-1.69.8A1.56,1.56,0,0,1,46.29,86.63Zm3.42-.35v-.45a4.78,4.78,0,0,0-1.36-.2c-.88,0-1.36.38-1.36,1v0c0,.58.54.93,1.17.93A1.41,1.41,0,0,0,49.71,86.28Z"/><path class="cls-2" d="M51.58,83.33h.69v1.22a2,2,0,0,1,1.9-1.3V84h-.05a1.88,1.88,0,0,0-1.85,2.13V88h-.69Z"/><path class="cls-2" d="M55,81.55h.79v.76H55Zm0,1.78h.7V88H55Z"/><path class="cls-2" d="M57.31,83.94h-.64v-.6h.64v-.4a1.64,1.64,0,0,1,.4-1.2,1.36,1.36,0,0,1,1-.36,2,2,0,0,1,.77.12v.6A2.38,2.38,0,0,0,58.8,82c-.54,0-.81.32-.81,1v.38h1.48v.59H58v4h-.69Zm3.31,0H60v-.6h.64v-.4a1.64,1.64,0,0,1,.4-1.2,1.35,1.35,0,0,1,1-.36,1.87,1.87,0,0,1,.76.12v.6a2.25,2.25,0,0,0-.66-.12c-.55,0-.81.32-.81,1v.38h1.46v.59H61.31v4h-.69Z"/><path class="cls-2" d="M65.47,86.2a3,3,0,0,1,1.73-2.66l.2.31a2.64,2.64,0,0,0,0,4.7l-.2.31A3,3,0,0,1,65.47,86.2Z"/><path class="cls-2" d="M70.64,87.37a1.89,1.89,0,0,1-1.42.68,1.25,1.25,0,0,1-1.37-1.22h0a1.37,1.37,0,0,1,1.05-1.26,1.42,1.42,0,0,1-.44-1h0a1.06,1.06,0,0,1,1.15-1,1,1,0,0,1,1.06,1h0c0,.55-.39.91-1,1.13l1,1a5.53,5.53,0,0,0,.52-1l.41.18a5.76,5.76,0,0,1-.63,1.1l.76.78-.37.28Zm-.3-.31-1.16-1.2c-.58.21-.84.57-.84.94h0a.84.84,0,0,0,.91.82A1.48,1.48,0,0,0,70.34,87.06Zm-.13-2.49h0a.59.59,0,0,0-.61-.6.62.62,0,0,0-.66.63h0c0,.25.1.45.43.8C69.93,85.21,70.21,85,70.21,84.57Z"/><path class="cls-2" d="M74,83.63h1.88a1.76,1.76,0,0,1,1.24.43,1.23,1.23,0,0,1,.33.86v0a1.28,1.28,0,0,1-1.18,1.27L77.62,88H77l-1.26-1.7H74.51V88H74Zm1.83,2.22c.66,0,1.12-.34,1.12-.9h0c0-.53-.41-.86-1.11-.86H74.51v1.77Z"/><path class="cls-2" d="M78,86.39v0a1.59,1.59,0,0,1,1.54-1.67A1.53,1.53,0,0,1,81,86.4v.15H78.47a1.13,1.13,0,0,0,1.14,1.09,1.33,1.33,0,0,0,1-.45l.3.27a1.64,1.64,0,0,1-1.32.6A1.6,1.6,0,0,1,78,86.39Zm2.56-.19a1.06,1.06,0,0,0-1-1.1,1.12,1.12,0,0,0-1,1.1Z"/><path class="cls-2" d="M81.69,84.77h.48v.56a1.22,1.22,0,0,1,1.1-.63A1.17,1.17,0,0,1,84.5,86v2H84V86.11a.86.86,0,0,0-.89-1,1,1,0,0,0-1,1V88h-.48Z"/><path class="cls-2" d="M85.14,86.39v0a1.59,1.59,0,0,1,1.54-1.67,1.53,1.53,0,0,1,1.5,1.7v.15H85.63a1.12,1.12,0,0,0,1.13,1.09,1.33,1.33,0,0,0,1-.45l.3.27a1.64,1.64,0,0,1-1.32.6A1.6,1.6,0,0,1,85.14,86.39Zm2.56-.19a1.06,1.06,0,0,0-1-1.1,1.11,1.11,0,0,0-1,1.1Z"/><path class="cls-2" d="M88.41,84.77h.51l.85,2.58.86-2.6H91l.87,2.6.85-2.58h.5L92.12,88H91.7l-.87-2.54L90,88h-.42Z"/><path class="cls-2" d="M93.5,87.05h0c0-.68.56-1,1.37-1a3.47,3.47,0,0,1,1,.14V86c0-.58-.35-.88-1-.88a2.36,2.36,0,0,0-1,.23L93.78,85A2.72,2.72,0,0,1,95,84.72a1.4,1.4,0,0,1,1,.36,1.27,1.27,0,0,1,.33.94v2h-.46V87.5a1.41,1.41,0,0,1-1.16.55A1.08,1.08,0,0,1,93.5,87.05Zm2.37-.25v-.31a3.39,3.39,0,0,0-1-.13c-.6,0-.94.26-.94.66h0c0,.41.37.64.81.64A1,1,0,0,0,95.87,86.8Z"/><path class="cls-2" d="M97.64,87.37V88h-.48V83.44h.48v2a1.45,1.45,0,0,1,1.23-.71,1.57,1.57,0,0,1,1.54,1.67h0a1.57,1.57,0,0,1-1.54,1.67A1.44,1.44,0,0,1,97.64,87.37Zm2.28-1v0a1.16,1.16,0,0,0-1.14-1.24,1.2,1.2,0,0,0-1.16,1.24h0a1.2,1.2,0,0,0,1.16,1.25A1.14,1.14,0,0,0,99.92,86.39Z"/><path class="cls-2" d="M101.15,83.44h.48V88h-.48Z"/><path class="cls-2" d="M102.36,86.39v0a1.59,1.59,0,0,1,1.54-1.67,1.53,1.53,0,0,1,1.5,1.7v.15h-2.55A1.12,1.12,0,0,0,104,87.64a1.33,1.33,0,0,0,1-.45l.3.27a1.64,1.64,0,0,1-1.32.6A1.6,1.6,0,0,1,102.36,86.39Zm2.56-.19a1.06,1.06,0,0,0-1-1.1,1.11,1.11,0,0,0-1,1.1Z"/><path class="cls-2" d="M105.79,87.57l.25-.34a1.86,1.86,0,0,0,1.11.41c.39,0,.67-.2.67-.51h0c0-.32-.38-.45-.81-.57s-1.06-.31-1.06-.91h0a1,1,0,0,1,1.09-.92,2.17,2.17,0,0,1,1.16.36l-.22.36a1.73,1.73,0,0,0-1-.31c-.38,0-.62.19-.62.46v0c0,.3.4.42.83.55s1,.34,1,.92h0a1,1,0,0,1-1.14,1A2.17,2.17,0,0,1,105.79,87.57Z"/><path class="cls-2" d="M108.66,88.55a2.63,2.63,0,0,0,0-4.7l.21-.31a2.92,2.92,0,0,1,0,5.32Z"/><path class="cls-2" d="M81.44,36.67,75.67,33.4V30.82h5.59a.37.37,0,0,0,.36-.27.37.37,0,0,0-.18-.42l-5.86-3.32-2.93-5.63a.38.38,0,0,0-.66,0l-2.92,5.63L63.2,30.13a.38.38,0,0,0-.17.42.37.37,0,0,0,.36.27H69V33.4L63.2,36.67a.37.37,0,0,0-.17.41.36.36,0,0,0,.36.28h5.44l-2.48,7.43v.05a.17.17,0,0,0,0,.07.15.15,0,0,0,0,.07.19.19,0,0,0,0,.07.21.21,0,0,0,0,.06l0,0h0l.07,0,0,0h.08l.06,0h.07l.07,0,.06,0,0,0,5.36-4.94,5.37,4.94h0l.07.05h0l.12,0,.12,0h0l.06,0,.07,0a0,0,0,0,1,0,0l0,0,0-.06s0,0,0-.07,0,0,0-.07,0,0,0-.07,0,0,0-.05l-2.48-7.43h5.45a.37.37,0,0,0,.36-.28A.36.36,0,0,0,81.44,36.67ZM69.71,34h1.87l-1.87,2Zm5.22-4.17-1.86-1.05,1.86-1.05Zm-1,.26H70.75l1.57-.89Zm-4.18-.26v-2.1l1.86,1.05Zm4.75,1-2.14,2.35-2.14-2.35Zm-2.14,3.45,2.14,2.35H70.18Zm.74-.28h1.87v2Zm1.87-.75H73.26l1.67-1.83Zm-2.61-4.9-1.57-.89h3.14Zm-.93,4.9H69.71V31.41Zm3,4.12-2,1.87-2-1.87Zm1.32-7.28V27.72l4.18,2.36Zm-3.35-7.93,2.37,4.56H70ZM69,27.72v2.36H64.79Zm0,6.53v2.37H64.79Zm-1.46,9.41,2-6,2.27,2.08Zm7.62-6,2,6-4.26-3.93Zm.54-1V34.25l4.18,2.37Z"/><path class="cls-2" d="M55.61,28.35H41.86a.53.53,0,0,0-.52.44L39.56,39.08a.56.56,0,0,0,.12.43.54.54,0,0,0,.4.18H57.39a.54.54,0,0,0,.4-.18.56.56,0,0,0,.12-.43L56.13,28.79A.53.53,0,0,0,55.61,28.35Zm-.09.64.42,2.42H53.07L52.85,29Zm-2.76,5.95H49.05V32h3.44ZM49.05,29h3.16l.23,2.42H49.05Zm-3.79,0h3.16v2.42H45ZM42,29h2.67l-.22,2.42H41.53Zm1.74,10.07H40.21l.6-3.49H44Zm-2.77-4.12.5-2.9h2.92l-.27,2.9Zm7.5,4.12H44.33l.32-3.49h3.77Zm0-4.12H44.71L45,32h3.44Zm.63,4.12V35.57h3.77l.32,3.49Zm8.21,0H53.78l-.33-3.49h3.21ZM53.4,34.94,53.13,32h2.92l.5,2.9Z"/><path class="cls-2" d="M56.54,22a.37.37,0,0,0,.36.39.37.37,0,0,0,.37-.39v-.69A.37.37,0,0,0,56.9,21a.36.36,0,0,0-.36.38c0,.12,0,.24,0,.36S56.53,21.93,56.54,22Z"/><path class="cls-2" d="M54.6,22.83A.35.35,0,0,0,55,23a.39.39,0,0,0,.25-.35.66.66,0,0,0,0-.15c-.13-.23-.26-.47-.4-.69a.36.36,0,0,0-.48-.11.35.35,0,0,0-.15.46Q54.38,22.47,54.6,22.83Z"/><path class="cls-2" d="M60.56,24.4c.23-.12.45-.25.67-.38a.33.33,0,0,0,.17-.26.37.37,0,0,0-.53-.37c-.23.12-.45.25-.67.39a.36.36,0,0,0-.12.48A.35.35,0,0,0,60.56,24.4Z"/><path class="cls-2" d="M58.75,22.92a.34.34,0,0,0,.46-.1,7.24,7.24,0,0,0,.41-.71.36.36,0,0,0-.33-.51.33.33,0,0,0-.29.15,7.24,7.24,0,0,0-.41.71A.34.34,0,0,0,58.75,22.92Z"/><path class="cls-2" d="M52.54,24c.24.14.48.29.73.42a.35.35,0,0,0,.45-.16.36.36,0,0,0-.1-.47c-.23-.14-.46-.28-.7-.41a.37.37,0,0,0-.52.34A.34.34,0,0,0,52.54,24Z"/><path class="cls-2" d="M61.26,28.21c-.24-.15-.48-.3-.73-.43a.35.35,0,0,0-.45.16.36.36,0,0,0,.1.47,7.24,7.24,0,0,0,.71.41.36.36,0,0,0,.51-.34A.29.29,0,0,0,61.26,28.21Z"/><path class="cls-2" d="M57.41,28.41l.1.56A2.93,2.93,0,1,0,54,26.1a2.84,2.84,0,0,0,.16.93H40.92a.74.74,0,0,0-.73.62L38,40.15a.73.73,0,0,0,.16.6.74.74,0,0,0,.57.27h7.57L46,42.73H43.7a1.14,1.14,0,0,0-1.14,1.14v.69a.76.76,0,0,0,.75.75H54.16a.76.76,0,0,0,.75-.75v-.69a1.14,1.14,0,0,0-1.14-1.14H51.43L51.13,41H58.7a.74.74,0,0,0,.57-.27.73.73,0,0,0,.16-.6ZM54.7,26.1a2.2,2.2,0,1,1,2.68,2.15l-.1-.6a.74.74,0,0,0-.73-.62H54.9A2.22,2.22,0,0,1,54.7,26.1Zm-.93,17.26a.51.51,0,0,1,.51.51v.69a.12.12,0,0,1-.12.11H43.31a.11.11,0,0,1-.12-.11v-.69a.51.51,0,0,1,.51-.51Zm-7.08-.63L47,41h3.49l.3,1.71Zm12.1-2.39a.11.11,0,0,1-.09,0H38.77a.11.11,0,0,1-.09,0,.09.09,0,0,1,0-.08l2.16-12.51a.1.1,0,0,1,.1-.09H56.55a.11.11,0,0,1,.1.09l2.16,12.51A.09.09,0,0,1,58.79,40.34Z"/><path class="cls-2" d="M61.66,25.74H61a.37.37,0,0,0-.38.36.38.38,0,0,0,.38.37h.71A.38.38,0,0,0,62,26.1.36.36,0,0,0,61.66,25.74Z"/><path class="cls-2" d="M59.23,29.41a.37.37,0,0,0-.49-.13.36.36,0,0,0-.14.49c.12.22.25.44.38.66a.33.33,0,0,0,.26.17.37.37,0,0,0,.37-.54C59.49,29.84,59.36,29.62,59.23,29.41Z"/><path class="cls-2" d="M52.15,26.47h.69a.37.37,0,0,0,.39-.37.37.37,0,0,0-.39-.36h-.69a.37.37,0,0,0-.39.36A.37.37,0,0,0,52.15,26.47Z"/><polyline class="cls-3" points="51.02 52.79 60.86 43.35 70.17 52.79 79.98 43.35"/><circle class="cls-2" cx="51.28" cy="52.52" r="2"/><circle class="cls-2" cx="70.24" cy="52.52" r="2"/><circle class="cls-2" cx="61.02" cy="43.62" r="2"/><circle class="cls-2" cx="79.98" cy="43.62" r="2"/></svg>