<svg id="Layer_1" data-name="Layer 1" xmlns="http://www.w3.org/2000/svg" xmlns:xlink="http://www.w3.org/1999/xlink" viewBox="0 0 90 100"><defs><style>.cls-1,.cls-5,.cls-9{fill:none;}.cls-2{fill:#fff;stroke-miterlimit:10;}.cls-10,.cls-2,.cls-5{stroke:#74af27;}.cls-10,.cls-3{fill:#74af27;}.cls-4{clip-path:url(#clip-path);}.cls-10,.cls-5{stroke-linecap:round;stroke-linejoin:round;}.cls-5{stroke-width:0.2px;}.cls-6{fill:#ededed;}.cls-7{fill:#fdfdfd;}.cls-8{clip-path:url(#clip-path-2);}.cls-9{stroke:#73b02c;stroke-width:0.48px;}.cls-10{stroke-width:0.19px;}</style><clipPath id="clip-path"><circle class="cls-1" cx="45" cy="37.61" r="27.93"/></clipPath><clipPath id="clip-path-2"><rect class="cls-1" x="48.16" y="33.94" width="19.24" height="26.86"/></clipPath></defs><title>EV-Systems_Operations-OperatorManagement</title><circle class="cls-2" cx="45" cy="37.74" r="28.35"/><path class="cls-3" d="M26.31,73.85v0a3.22,3.22,0,1,1,6.43,0h0a3.2,3.2,0,0,1-3.23,3.26A3.15,3.15,0,0,1,26.31,73.85Zm5.69,0v0a2.51,2.51,0,0,0-2.49-2.6,2.47,2.47,0,0,0-2.46,2.59h0a2.48,2.48,0,1,0,4.95,0Z"/><path class="cls-3" d="M33.85,72.33h.69v.94a2.1,2.1,0,0,1,1.79-1,2.28,2.28,0,0,1,2.22,2.41v0a2.28,2.28,0,0,1-2.22,2.42,2.09,2.09,0,0,1-1.79-1v2.34h-.69Zm4,2.34v0a1.68,1.68,0,0,0-1.64-1.8,1.73,1.73,0,0,0-1.68,1.79v0a1.73,1.73,0,0,0,1.68,1.8A1.64,1.64,0,0,0,37.84,74.67Z"/><path class="cls-3" d="M39.27,74.67v0a2.29,2.29,0,0,1,2.23-2.42,2.22,2.22,0,0,1,2.17,2.46,1.77,1.77,0,0,1,0,.23H40a1.63,1.63,0,0,0,1.64,1.57,1.92,1.92,0,0,0,1.47-.66l.43.39a2.42,2.42,0,0,1-1.92.87A2.31,2.31,0,0,1,39.27,74.67ZM43,74.4a1.53,1.53,0,0,0-1.49-1.58A1.6,1.6,0,0,0,40,74.4Z"/><path class="cls-3" d="M44.61,72.33h.7v1.22a2,2,0,0,1,1.9-1.3V73h-.06a1.87,1.87,0,0,0-1.84,2.13V77h-.7Z"/><path class="cls-3" d="M47.41,75.63h0c0-1,.81-1.51,2-1.51a5.12,5.12,0,0,1,1.43.2v-.16c0-.84-.51-1.27-1.38-1.27a3.41,3.41,0,0,0-1.42.34l-.2-.56a3.73,3.73,0,0,1,1.69-.39,2,2,0,0,1,1.5.51,1.83,1.83,0,0,1,.48,1.36V77h-.67v-.71a2,2,0,0,1-1.68.8A1.57,1.57,0,0,1,47.41,75.63Zm3.43-.35v-.45a4.8,4.8,0,0,0-1.37-.2c-.87,0-1.35.38-1.35,1v0c0,.58.53.93,1.17.93A1.41,1.41,0,0,0,50.84,75.28Z"/><path class="cls-3" d="M52.9,75.75V72.94h-.65v-.61h.65v-1.4h.7v1.4h1.47v.61H53.6v2.72a.69.69,0,0,0,.78.78,1.42,1.42,0,0,0,.67-.17v.6a1.79,1.79,0,0,1-.83.2A1.19,1.19,0,0,1,52.9,75.75Z"/><path class="cls-3" d="M55.6,74.68v0a2.43,2.43,0,0,1,4.86,0v0A2.42,2.42,0,0,1,58,77.09,2.38,2.38,0,0,1,55.6,74.68Zm4.14,0v0A1.76,1.76,0,0,0,58,72.84a1.72,1.72,0,0,0-1.71,1.8v0A1.75,1.75,0,0,0,58,76.47,1.72,1.72,0,0,0,59.74,74.68Z"/><path class="cls-3" d="M61.43,72.33h.7v1.22a2,2,0,0,1,1.9-1.3V73H64a1.88,1.88,0,0,0-1.84,2.13V77h-.7Z"/><path class="cls-3" d="M18,81.68h.72l2.3,3.44,2.29-3.44h.72V88h-.71V82.88l-2.29,3.38h0l-2.3-3.37V88H18Z"/><path class="cls-3" d="M25.11,86.63h0c0-1,.81-1.51,2-1.51a5.24,5.24,0,0,1,1.43.2v-.16c0-.84-.52-1.27-1.39-1.27a3.33,3.33,0,0,0-1.41.34l-.21-.56a3.76,3.76,0,0,1,1.69-.39,2.07,2.07,0,0,1,1.51.51,1.87,1.87,0,0,1,.47,1.36V88h-.66v-.71a2,2,0,0,1-1.69.8A1.56,1.56,0,0,1,25.11,86.63Zm3.43-.35v-.45a4.91,4.91,0,0,0-1.37-.2c-.88,0-1.36.38-1.36,1v0c0,.58.54.93,1.17.93A1.42,1.42,0,0,0,28.54,86.28Z"/><path class="cls-3" d="M30.4,83.33h.69v.81a1.77,1.77,0,0,1,1.59-.91,1.71,1.71,0,0,1,1.79,1.87V88h-.7V85.27a1.24,1.24,0,0,0-1.28-1.41,1.38,1.38,0,0,0-1.4,1.46V88H30.4Z"/><path class="cls-3" d="M35.32,86.63h0c0-1,.81-1.51,2-1.51a5.18,5.18,0,0,1,1.43.2v-.16c0-.84-.51-1.27-1.38-1.27a3.38,3.38,0,0,0-1.42.34l-.21-.56a3.8,3.8,0,0,1,1.7-.39,2,2,0,0,1,1.5.51,1.83,1.83,0,0,1,.48,1.36V88h-.67v-.71a2,2,0,0,1-1.68.8A1.56,1.56,0,0,1,35.32,86.63Zm3.43-.35v-.45a4.8,4.8,0,0,0-1.37-.2c-.87,0-1.36.38-1.36,1v0c0,.58.54.93,1.17.93A1.41,1.41,0,0,0,38.75,86.28Z"/><path class="cls-3" d="M40.56,88.8l.31-.54a3,3,0,0,0,1.8.59,1.53,1.53,0,0,0,1.69-1.66v-.55a2.23,2.23,0,0,1-1.83,1,2.15,2.15,0,0,1-2.19-2.18v0a2.2,2.2,0,0,1,4-1.26v-.84H45v3.85a2.2,2.2,0,0,1-.59,1.64,2.44,2.44,0,0,1-1.78.62A3.65,3.65,0,0,1,40.56,88.8Zm3.82-3.36v0a1.64,1.64,0,0,0-1.71-1.58,1.55,1.55,0,0,0-1.62,1.57v0A1.57,1.57,0,0,0,42.67,87,1.64,1.64,0,0,0,44.38,85.44Z"/><path class="cls-3" d="M46,85.67v0a2.3,2.3,0,0,1,2.23-2.42,2.22,2.22,0,0,1,2.17,2.46,1.77,1.77,0,0,1,0,.23H46.73a1.63,1.63,0,0,0,1.64,1.57,1.92,1.92,0,0,0,1.47-.66l.43.39a2.4,2.4,0,0,1-1.92.87A2.31,2.31,0,0,1,46,85.67Zm3.7-.27a1.53,1.53,0,0,0-1.48-1.58,1.61,1.61,0,0,0-1.52,1.58Z"/><path class="cls-3" d="M51.38,83.33h.69v.79a1.71,1.71,0,0,1,1.5-.89,1.59,1.59,0,0,1,1.5.93,1.86,1.86,0,0,1,1.64-.93,1.68,1.68,0,0,1,1.73,1.88V88h-.7V85.27c0-.9-.45-1.41-1.2-1.41a1.29,1.29,0,0,0-1.28,1.44V88h-.7V85.25c0-.87-.46-1.39-1.19-1.39a1.35,1.35,0,0,0-1.3,1.47V88h-.69Z"/><path class="cls-3" d="M59.38,85.67v0a2.29,2.29,0,0,1,2.23-2.42,2.22,2.22,0,0,1,2.17,2.46,1.77,1.77,0,0,1,0,.23H60.08a1.63,1.63,0,0,0,1.64,1.57,1.92,1.92,0,0,0,1.47-.66l.43.39a2.42,2.42,0,0,1-1.92.87A2.31,2.31,0,0,1,59.38,85.67Zm3.7-.27a1.53,1.53,0,0,0-1.49-1.58,1.6,1.6,0,0,0-1.51,1.58Z"/><path class="cls-3" d="M64.72,83.33h.7v.81A1.76,1.76,0,0,1,67,83.23a1.7,1.7,0,0,1,1.78,1.87V88H68.1V85.27a1.24,1.24,0,0,0-1.29-1.41,1.37,1.37,0,0,0-1.39,1.46V88h-.7Z"/><path class="cls-3" d="M70.24,86.75V83.94h-.65v-.61h.65v-1.4h.69v1.4h1.48v.61H70.93v2.72a.7.7,0,0,0,.79.78,1.42,1.42,0,0,0,.67-.17v.6a1.8,1.8,0,0,1-.84.2A1.19,1.19,0,0,1,70.24,86.75Z"/><g class="cls-4"><path class="cls-3" d="M41.67,20.37h13.5a2.34,2.34,0,0,1,2.49,1.85,12.48,12.48,0,0,1,.07,1.84c0,.9,0,1.81,0,2.71,0,.61,0,1.23,0,1.84,0,.84,0,1.69,0,2.53,0,.56,0,1.13,0,1.69v4.29c0,1.12,0,2.23,0,3.34,0,.84,0,1.67,0,2.5,0,.5,0,1,0,1.51a2.25,2.25,0,0,1-1.92,1.82c-1,.06-2,.06-3,.06H45.72c-.36,0-.5.1-.49.48,0,1,0,1.93,0,2.9a1,1,0,0,0,.75,1,2.66,2.66,0,0,0,.79.12c1.22,0,2.43,0,3.65,0,.61,0,.93.29.94.79a.73.73,0,0,1-.64.78,6,6,0,0,1-.95.06H33a2.41,2.41,0,0,1-.54-.05.77.77,0,0,1-.63-.76.74.74,0,0,1,.57-.76,2.15,2.15,0,0,1,.51-.05H36a2.81,2.81,0,0,0,.65-.06c.77-.16,1.15-.4,1.12-1.35s0-1.81,0-2.72c0-.32-.11-.42-.42-.42H28.17a2.42,2.42,0,0,1-2.67-2.64q0-10.35,0-20.71a2.35,2.35,0,0,1,1.61-2.49,3.63,3.63,0,0,1,1.19-.14Zm0,1.63H28.06c-.73,0-.93.2-.93.95,0,2.73,0,5.47,0,8.2,0,4.24,0,8.47,0,12.7,0,.65.22.87.85.87H55.15c.78,0,1-.19,1-1v-8.1q0-6.37,0-12.73c0-.71-.2-.91-.89-.91Zm2,28.88c0-.89-.07-1.73-.09-2.57,0-.52,0-1,0-1.55,0-.3-.08-.42-.39-.41-1.14,0-2.28,0-3.42,0-.35,0-.43.12-.44.45a18,18,0,0,1-.2,4.08Z"/><path class="cls-3" d="M41.63,23.74H54c.58,0,.65.1.65.7,0,.83,0,1.66,0,2.49,0,.62,0,1.25,0,1.87,0,.83,0,1.66,0,2.49,0,.57,0,1.13,0,1.69,0,.94,0,1.88,0,2.82,0,.69,0,1.37,0,2.05s0,1.37,0,2.06c0,.49-.13.62-.61.62H29.38c-.6,0-.78-.2-.77-.81,0-1.46,0-2.91,0-4.36,0-1.14,0-2.28,0-3.41,0-.81,0-1.61,0-2.42,0-.62,0-1.25,0-1.87,0-.83,0-1.66,0-2.49,0-.37,0-.74.05-1.1s.27-.34.52-.34H41.63Zm0,.82H29.87c-.36,0-.48.13-.45.47s0,.59,0,.88c0,1.34,0,2.67,0,4,0,1.1,0,2.2,0,3.3,0,1.41,0,2.82,0,4.23,0,.57,0,1.15,0,1.72s0,.55.53.55H53.29c.46,0,.53-.06.54-.54s0-.71,0-1.06c0-1.45,0-2.91,0-4.36,0-.62,0-1.25,0-1.87,0-.77,0-1.54,0-2.31,0-.62,0-1.25,0-1.87,0-.9,0-1.81,0-2.71,0-.4-.15-.45-.49-.45Z"/><path class="cls-3" d="M39.73,28.35a1.21,1.21,0,0,1-.38-.06,1.12,1.12,0,0,1-.34-.21l.22-.26a.79.79,0,0,0,.24.15.58.58,0,0,0,.26.06.4.4,0,0,0,.18,0,.14.14,0,0,0,.06-.12h0a.13.13,0,0,0,0-.06.12.12,0,0,0-.05-.05.46.46,0,0,0-.1-.05l-.17-.05a1,1,0,0,1-.23-.07.51.51,0,0,1-.18-.09.49.49,0,0,1-.11-.14.46.46,0,0,1,0-.21h0a.45.45,0,0,1,0-.2.48.48,0,0,1,.12-.16.44.44,0,0,1,.19-.1.59.59,0,0,1,.23,0,1.16,1.16,0,0,1,.34.05,1,1,0,0,1,.29.16l-.2.28a.94.94,0,0,0-.22-.12.52.52,0,0,0-.21,0,.24.24,0,0,0-.16,0,.12.12,0,0,0-.06.1h0a.19.19,0,0,0,0,.07s0,0,.06.05a.38.38,0,0,0,.11.05l.18,0a1.14,1.14,0,0,1,.22.07.55.55,0,0,1,.17.1.33.33,0,0,1,.1.14.38.38,0,0,1,0,.19h0a.48.48,0,0,1-.05.22.52.52,0,0,1-.12.17.93.93,0,0,1-.2.1A.88.88,0,0,1,39.73,28.35Z"/><path class="cls-3" d="M40.68,26.65H41v1.68h-.36Z"/><path class="cls-3" d="M41.85,27h-.51v-.34h1.39V27h-.51v1.34h-.37Z"/><path class="cls-3" d="M43,26.65h1.27V27h-.9v.34h.79v.33h-.79V28h.91v.33H43Z"/><path class="cls-3" d="M35.79,31.35H33.37c-.26,0-.47-.05-.47-.35s.21-.39.46-.39H38.2c.26,0,.52.09.51.4s-.27.36-.53.35Z"/><circle class="cls-3" cx="31.35" cy="30.98" r="0.45"/><path class="cls-3" d="M35.79,32.85H33.37c-.26,0-.47-.05-.47-.36s.21-.39.46-.39H38.2c.26,0,.52.09.51.4s-.27.35-.53.35Z"/><circle class="cls-3" cx="31.35" cy="32.47" r="0.45"/><path class="cls-3" d="M35.79,34.41H33.37c-.26,0-.47-.06-.47-.36s.21-.39.46-.39H38.2c.26,0,.52.09.51.4s-.27.36-.53.36Z"/><circle class="cls-3" cx="31.35" cy="34.04" r="0.45"/><path class="cls-3" d="M35.79,35.91H33.37c-.26,0-.47,0-.47-.35s.21-.39.46-.39H38.2c.26,0,.52.09.51.4s-.27.36-.53.35Z"/><circle class="cls-3" cx="31.35" cy="35.54" r="0.45"/><path class="cls-3" d="M35.79,37.43H33.37c-.26,0-.47,0-.47-.35s.21-.39.46-.39H38.2c.26,0,.52.09.51.4s-.27.36-.53.35Z"/><path class="cls-3" d="M42.73,31.35H40.31c-.26,0-.47-.05-.48-.35s.22-.39.47-.39H50.53c.26,0,.51.09.5.4s-.26.36-.52.35Z"/><path class="cls-3" d="M42.73,32.85H40.31c-.26,0-.47-.05-.48-.36s.22-.39.47-.39H50.53c.26,0,.51.09.5.4s-.26.35-.52.35Z"/><path class="cls-3" d="M42.73,34.41H40.31c-.26,0-.47-.06-.48-.36s.22-.39.47-.39H50.53c.26,0,.51.09.5.4s-.26.36-.52.36Z"/><path class="cls-3" d="M42.73,35.91H40.31c-.26,0-.47,0-.48-.35s.22-.39.47-.39H50.53c.26,0,.51.09.5.4s-.26.36-.52.35Z"/><path class="cls-3" d="M42.73,37.43H40.31c-.26,0-.47,0-.48-.35s.22-.39.47-.39H50.53c.26,0,.51.09.5.4s-.26.36-.52.35Z"/><circle class="cls-3" cx="31.35" cy="37.06" r="0.45"/><polyline class="cls-5" points="52.36 30.84 52.09 31.11 51.82 30.84"/><polyline class="cls-5" points="52.36 32.34 52.09 32.61 51.82 32.34"/><polyline class="cls-5" points="52.36 35.4 52.09 35.67 51.82 35.4"/><polyline class="cls-5" points="52.36 36.92 52.09 37.19 51.82 36.92"/><polyline class="cls-5" points="52.36 33.91 52.09 34.17 51.82 33.91"/><rect class="cls-6" x="49.01" y="34.79" width="18.39" height="26.01"/><rect class="cls-7" x="48.23" y="34.02" width="18.24" height="25.86"/><g class="cls-8"><rect class="cls-9" x="48.23" y="34.02" width="18.24" height="25.86"/></g><path class="cls-3" d="M50.55,37.29h1.27v.33h-.9V38h.79v.33h-.79v.35h.91V39H50.55Z"/><path class="cls-3" d="M52,37.29h.41l.44,1.18.44-1.18h.39L53,39h-.33Z"/><path class="cls-3" d="M54.67,37.29h.65a1,1,0,0,1,.36.07.92.92,0,0,1,.29.17.8.8,0,0,1,.18.27.88.88,0,0,1,.06.33h0a.88.88,0,0,1-.06.33.8.8,0,0,1-.18.27,1.19,1.19,0,0,1-.29.18,1,1,0,0,1-.36.06h-.65Zm.65,1.35a.46.46,0,0,0,.21,0,.44.44,0,0,0,.16-.1.54.54,0,0,0,.1-.16.45.45,0,0,0,0-.2h0a.45.45,0,0,0,0-.2.44.44,0,0,0-.1-.16.46.46,0,0,0-.16-.11.66.66,0,0,0-.21,0H55v1Z"/><path class="cls-3" d="M56.54,37.29h.77a.69.69,0,0,1,.49.17.56.56,0,0,1,.14.39h0a.48.48,0,0,1-.1.33.51.51,0,0,1-.26.19L58,39h-.43l-.36-.54h-.29V39h-.37Zm.74.82a.25.25,0,0,0,.21-.07.21.21,0,0,0,.08-.17h0a.22.22,0,0,0-.08-.18.33.33,0,0,0-.21-.06h-.37v.48Z"/><path class="cls-3" d="M58.29,37.29h.37V39h-.37Z"/><path class="cls-3" d="M58.93,37.29h.41l.44,1.18.44-1.18h.39L59.94,39h-.33Z"/><path class="cls-3" d="M60.87,37.29h1.26v.33h-.89V38H62v.33h-.79v.35h.91V39H60.87Z"/><path class="cls-3" d="M62.48,37.29h.76a.68.68,0,0,1,.49.17.52.52,0,0,1,.14.39h0a.48.48,0,0,1-.1.33.51.51,0,0,1-.26.19l.41.6h-.43l-.36-.54h-.29V39h-.36Zm.74.82a.28.28,0,0,0,.21-.07.21.21,0,0,0,.07-.17h0a.19.19,0,0,0-.08-.18.33.33,0,0,0-.21-.06h-.37v.48Z"/><path class="cls-10" d="M61.41,48.71H54.15a.13.13,0,0,1-.13-.13V42.4a.12.12,0,0,1,.13-.13.13.13,0,0,1,.13.13v6.05h7.13a.13.13,0,0,1,0,.26Z"/><path class="cls-10" d="M60.83,47.58h0a.13.13,0,0,1-.12-.09l-1-3L59,45.86a.12.12,0,0,1-.12.07.12.12,0,0,1-.11-.09L58,43.58l-.81,1.84a.13.13,0,0,1-.12.08.15.15,0,0,1-.12-.07l-.39-.74-.85,1.6a.12.12,0,0,1-.12.07.12.12,0,0,1-.11-.08L55,45.07a.13.13,0,0,1,.07-.17.14.14,0,0,1,.17.07l.4,1,.84-1.57a.13.13,0,0,1,.23,0l.38.71.83-1.91a.15.15,0,0,1,.13-.07.13.13,0,0,1,.12.08l.76,2.3.72-1.37a.11.11,0,0,1,.13-.07.13.13,0,0,1,.11.09l1,2.93.19-.52a.12.12,0,0,1,.16-.07.12.12,0,0,1,.08.16L61,47.5A.13.13,0,0,1,60.83,47.58Z"/><path class="cls-3" d="M55.51,56.64H59.6c.27,0,.55,0,.54.37s-.26.39-.54.39H51.36c-.27,0-.51-.07-.51-.38s.24-.38.51-.38Z"/><path class="cls-3" d="M55.51,55.14H59.6c.27,0,.55,0,.54.37s-.26.39-.54.39H51.36c-.27,0-.51-.07-.51-.38s.24-.38.51-.38Z"/><path class="cls-3" d="M55.5,51h4a.86.86,0,0,1,.36,0c.11.06.25.19.26.29a.42.42,0,0,1-.22.32.78.78,0,0,1-.38,0H51.46c-.27,0-.59,0-.6-.34s.33-.34.59-.34Z"/><path class="cls-3" d="M53.75,53.25H51.33c-.26,0-.48,0-.48-.35s.21-.39.46-.4h4.85c.25,0,.51.09.5.4s-.26.35-.53.35Z"/></g></svg>