<svg id="Layer_1" data-name="Layer 1" xmlns="http://www.w3.org/2000/svg" xmlns:xlink="http://www.w3.org/1999/xlink" viewBox="0 0 90 100"><defs><style>.cls-1,.cls-5{fill:none;}.cls-2{fill:#fff;stroke-miterlimit:10;}.cls-2,.cls-5{stroke:#74af27;}.cls-3{fill:#74af27;}.cls-4{clip-path:url(#clip-path);}.cls-5{stroke-linecap:round;stroke-linejoin:round;stroke-width:0.53px;}</style><clipPath id="clip-path"><circle class="cls-1" cx="45" cy="37.65" r="28.35"/></clipPath></defs><title>EV-Systems_Operations-LocationMaps</title><circle class="cls-2" cx="45" cy="37.74" r="28.35"/><path class="cls-3" d="M27.36,70.68h.71v5.65h3.54V77H27.36Z"/><path class="cls-3" d="M32.16,74.68v0a2.41,2.41,0,0,1,2.43-2.43A2.39,2.39,0,0,1,37,74.64v0a2.41,2.41,0,0,1-2.44,2.43A2.38,2.38,0,0,1,32.16,74.68Zm4.14,0v0a1.76,1.76,0,0,0-1.73-1.82,1.72,1.72,0,0,0-1.7,1.8v0a1.75,1.75,0,0,0,1.72,1.81A1.72,1.72,0,0,0,36.3,74.68Z"/><path class="cls-3" d="M37.71,74.68v0a2.4,2.4,0,0,1,2.38-2.43,2.43,2.43,0,0,1,1.87.83l-.46.49a1.89,1.89,0,0,0-1.42-.71,1.72,1.72,0,0,0-1.66,1.8v0a1.74,1.74,0,0,0,1.71,1.81,1.91,1.91,0,0,0,1.42-.69l.44.41a2.4,2.4,0,0,1-4.28-1.51Z"/><path class="cls-3" d="M42.51,75.63h0c0-1,.81-1.51,2-1.51a5.12,5.12,0,0,1,1.43.2v-.16c0-.84-.51-1.27-1.38-1.27a3.41,3.41,0,0,0-1.42.34l-.2-.56a3.73,3.73,0,0,1,1.69-.39,2,2,0,0,1,1.5.51,1.83,1.83,0,0,1,.48,1.36V77h-.67v-.71a2,2,0,0,1-1.68.8A1.57,1.57,0,0,1,42.51,75.63Zm3.43-.35v-.45a4.8,4.8,0,0,0-1.37-.2c-.87,0-1.36.38-1.36,1v0c0,.58.54.93,1.17.93A1.41,1.41,0,0,0,45.94,75.28Z"/><path class="cls-3" d="M48,75.75V72.94h-.65v-.61H48v-1.4h.7v1.4h1.47v.61H48.7v2.72a.69.69,0,0,0,.78.78,1.42,1.42,0,0,0,.67-.17v.6a1.79,1.79,0,0,1-.83.2A1.19,1.19,0,0,1,48,75.75Z"/><path class="cls-3" d="M51.14,70.55h.8v.76h-.8Zm0,1.78h.69V77h-.69Z"/><path class="cls-3" d="M52.93,74.68v0a2.43,2.43,0,0,1,4.86,0v0a2.42,2.42,0,0,1-2.44,2.43A2.38,2.38,0,0,1,52.93,74.68Zm4.14,0v0a1.76,1.76,0,0,0-1.72-1.82,1.72,1.72,0,0,0-1.71,1.8v0a1.75,1.75,0,0,0,1.72,1.81A1.72,1.72,0,0,0,57.07,74.68Z"/><path class="cls-3" d="M58.77,72.33h.69v.81a1.76,1.76,0,0,1,1.59-.91,1.7,1.7,0,0,1,1.78,1.87V77h-.69V74.27a1.24,1.24,0,0,0-1.29-1.41,1.37,1.37,0,0,0-1.39,1.46V77h-.69Z"/><path class="cls-3" d="M34.56,81.68h.72l2.29,3.44,2.3-3.44h.72V88h-.71V82.88l-2.3,3.38h0l-2.29-3.37V88h-.69Z"/><path class="cls-3" d="M41.63,86.63h0c0-1,.81-1.51,2-1.51a5.18,5.18,0,0,1,1.43.2v-.16c0-.84-.51-1.27-1.39-1.27a3.37,3.37,0,0,0-1.41.34L42,83.66a3.8,3.8,0,0,1,1.7-.39,2,2,0,0,1,1.5.51,1.88,1.88,0,0,1,.48,1.36V88h-.67v-.71a2,2,0,0,1-1.68.8A1.56,1.56,0,0,1,41.63,86.63Zm3.43-.35v-.45a4.8,4.8,0,0,0-1.37-.2c-.87,0-1.36.38-1.36,1v0c0,.58.54.93,1.17.93A1.41,1.41,0,0,0,45.06,86.28Z"/><path class="cls-3" d="M46.92,83.33h.69v.94a2.1,2.1,0,0,1,1.79-1,2.28,2.28,0,0,1,2.22,2.41v0a2.28,2.28,0,0,1-2.22,2.42,2.1,2.1,0,0,1-1.79-1v2.34h-.69Zm4,2.34v0a1.68,1.68,0,0,0-1.64-1.8,1.74,1.74,0,0,0-1.68,1.79v0a1.73,1.73,0,0,0,1.68,1.8A1.64,1.64,0,0,0,50.91,85.67Z"/><path class="cls-3" d="M52.24,87.39l.35-.49a2.78,2.78,0,0,0,1.61.59c.56,0,1-.29,1-.74v0c0-.46-.55-.64-1.16-.81s-1.54-.46-1.54-1.32v0a1.4,1.4,0,0,1,1.58-1.33,3.18,3.18,0,0,1,1.67.51l-.31.53A2.63,2.63,0,0,0,54,83.84c-.55,0-.9.28-.9.67v0c0,.44.58.61,1.2.8s1.49.5,1.49,1.33v0a1.47,1.47,0,0,1-1.65,1.4A3.22,3.22,0,0,1,52.24,87.39Z"/><g class="cls-4"><path class="cls-5" d="M31.38,53.2a3,3,0,0,0-2-.59c-.41,0-.62-.12-.67-.29s.26-.17.54-.18c.64,0,1.3,0,1.94,0,.2,0,.5-.05.53-.11s.59-.25.73-.38c.38-.35,1.24-.4,1.86-.59a2.15,2.15,0,0,1,.27-.1c.51-.15.76-.31.3-.62-.26-.17-.06-.3.52-.43l.26.1a1,1,0,0,0,1.13,0c.17-.15.33-.4.65-.42a7,7,0,0,1,2.35.09c.27.06.57.11.81.19a4,4,0,0,0,2,.12.94.94,0,0,0,.31-.1c.33-.28.63-.57.95-.86a1.57,1.57,0,0,0-1.41,0,2,2,0,0,1-.65.3,3.73,3.73,0,0,1-2.34-.51c-.18-.13-.33-.28-.53-.42a1.12,1.12,0,0,0-1-.11,2.82,2.82,0,0,1-.55.11c-.63,0-.67,0-.85-.27a.52.52,0,0,0-.14-.2c-.15-.12-.32-.32-.51-.34a1.85,1.85,0,0,0-1.24.15,2.33,2.33,0,0,1-2-.06,1.35,1.35,0,0,0-.36-.18c-1.1-.28-.69-.68-.83-1,0,0,.25-.09.39-.08q.67,0,1.35.09c.47,0,.76,0,.9-.18s.5-.28,1-.23a1.71,1.71,0,0,0,1-.17c.43-.24.94-.44,1.35-.68a.4.4,0,0,0,.19-.38c0-.14-.17-.3-.2-.44-.08-.31-.61-.49-1.09-.67a1,1,0,0,0-.41,0c-.24.07-.42.17-.64.24s-.35.19-.62,0-.58-.28-.16-.44a11.58,11.58,0,0,0,1.17-.61c.2-.11.15-.22-.09-.36a3.75,3.75,0,0,1-.57-.37c-.09-.08-.13-.2,0-.26.35-.3.41-.29,1.12,0l.37.13c.61.24.61.24.63.55a1,1,0,0,0,.88-.1c.18-.15.38-.12.68,0,.59.27.68.27,1.17.09a1.79,1.79,0,0,1,1.45.2l.31.22c.22-.1.27-.18.05-.32s0-.18,0-.27a2.92,2.92,0,0,1,.56.11c.31.11.58.25.88.38.34-.11.33-.2-.1-.32-.26-.06-.51-.14-.77-.21-.79-.22-1-.53-.43-.75s.56-.27-.18-.55c-.16-.06-.29-.21-.26-.3s.26-.15.43-.15c.53,0,.8,0,.46-.28-.07-.06.09-.16.12-.24s0-.2.06-.34a3,3,0,0,1-1,.35c-.65,0-.45-.3-.71-.46-.73,0-.65,0-.82-.37a2.48,2.48,0,0,0-.81-.75c-.24-.16-.3-.26-.14-.39a3,3,0,0,0,.58-.61c.14-.24.44-.36,1-.34A1.07,1.07,0,0,0,41,37.1c-.54,0-1.24-.28-1.6,0a.76.76,0,0,1-.41,0,1.6,1.6,0,0,0-.93.08,1.82,1.82,0,0,1-1.92-.12l-.43-.19c0,.23,0,.44-.07.65h-.2L34.31,37c-.18-.08-.34-.19-.56-.07a.44.44,0,0,1-.23,0c-.42-.13-.84-.26-1.3-.43.69,0,.5-.29.61-.49a4.93,4.93,0,0,1,.82-.92c.17-.17.6-.31.59-.49s-.46-.36-.72-.55-.31-.77-.08-.88a1.09,1.09,0,0,1,.37-.07l-1-1-1.57.59c-.07,0,0,.16.05.23.27.29.37.55-.15.73a.32.32,0,0,0-.18.27c-.07.27-.09.54-.17.8s-.61.36-1.05.32-.54-.19-.36-.32a1.41,1.41,0,0,0,.53-1c.05-.18.33-.33.52-.51-.67-.2-.19-.35-.06-.53l-.66,0a1.91,1.91,0,0,1,.31-.14c.54-.12.6-.36.42-.64s-.09-.48.25-.65c.07,0,.14-.08.15-.13.08-.29.39-.48.82-.64.11,0,.13-.12.14-.2a2.17,2.17,0,0,0-1.44.68c-.33.43-1.09.55-2,.56a2.74,2.74,0,0,1-.69-.1,1.09,1.09,0,0,1-.33-.19,2,2,0,0,1,.37-.1,1.48,1.48,0,0,0,1-.22c.22-.2.08-.32-.43-.37a3.25,3.25,0,0,1-.45-.07c-.29-.07-.35-.15-.11-.25S28,30,28,29.94s.15-.25.52-.21l1.1.15.06-.06-.36-.21c-.29-.17-.44-.33-.22-.5a1.05,1.05,0,0,1,.89-.05,1.47,1.47,0,0,0,.95,0c.17-.07.18-.16-.09-.24s-.41-.1-.59-.17a.5.5,0,0,1-.26-.19s.15-.07.26-.08c.76-.07.74-.06.56-.48a2.06,2.06,0,0,0-.79-.8,4.72,4.72,0,0,1-.83-.76c-.06-.05,0-.13,0-.19a2,2,0,0,1,.39.1,4.2,4.2,0,0,1,.52.26l.11,0a1.81,1.81,0,0,1-.18-.27.63.63,0,0,1,0-.27l.44.1c.25.08.5.19.75,0l-.43-.2a1,1,0,0,1-.32-.18.25.25,0,0,1,0-.25,1.51,1.51,0,0,1,.38,0l.36.08L31,25l.67.19a3.06,3.06,0,0,0,.51.1.55.55,0,0,0,.24-.07,1.48,1.48,0,0,0-.21-.13c-.14-.06-.3-.09-.45-.14-.36-.14-.45-.3-.14-.37s.41-.29.41-.5c0-.42.26-.47,1-.18a3.94,3.94,0,0,1,.65.33,3.76,3.76,0,0,1,.54.45c.12-.47.85-.42,1.49-.41.94,0,1.88.06,2.83.12.53,0,.72.16.59.4a1.84,1.84,0,0,1-.65.72c-.65.38-1.41.7-2.13,1.05l-.57.3,1,.13c0,.33-.35.49-1,.4-.37-.05-.77.1-.69.29a.6.6,0,0,0,.36.16,5.51,5.51,0,0,0,2.19-.25,1.39,1.39,0,0,1,1.08,0,9.06,9.06,0,0,0,1.71.2c1.06.07,2.14.21,3.22.36a2.32,2.32,0,0,1,.91.36c.23.16,0,.29-.18.41s-.4.29-.36.46a.92.92,0,0,1-.3.94c-.6.55-1.28,1.07-2,1.59-.2.16-.37.25.2.45a1.37,1.37,0,0,1,.65.54c.11.15-.1.23-.46.17l-.51-.1c-.38-.09-.66-.12-.75.09s-.25.1-.41.11-.61,0-.88,0a1.33,1.33,0,0,0-.42.18,3.65,3.65,0,0,0,.59.15,8.51,8.51,0,0,0,.88,0l1.76-.13a2.19,2.19,0,0,1,1.37.32c.35.23.67.47,1,.71a4,4,0,0,0,1.58.76c.4.1.51.24.58.42.25.66.51,1.32.82,2a2.65,2.65,0,0,0,.51.64,2.41,2.41,0,0,0,1.83.7,4,4,0,0,1,1.81.52,9.87,9.87,0,0,0,2.51,1.05c.68.18.72.31.3.52s-.38.28.1.55,1,.54,1.49.82.45.34-.12.46l-.19.06,1.52,1a3.22,3.22,0,0,1,.48.38c.33.33.26.47-.28.63-.08,0-.19,0-.23.08s-.31.24-.3.37.66.26,1.15.28c.09-.47.48-.6,1.69-.51a14.63,14.63,0,0,1,5.32,1.24c.59.28.83.58.84.89,0,.64-.49,1.16-1.26,1.61a3.81,3.81,0,0,1-1,.12l.41.24c-.32.21-.32.21-1.83.27l.6.12c.25.75-1.19.62-2.26.71.23,0,.47,0,.68,0a1.32,1.32,0,0,1,1.12.33c.22.27.59.31,1.1.26s1.17-.08,1.9-.13c.08.38.15.7.19,1,0,0-.15.11-.26.11-.93,0-1.68.11-1.88.53a1.78,1.78,0,0,0-1.23-.07c-.61.14-1.23.27-1.88.39a2.15,2.15,0,0,1-.8,0,11.51,11.51,0,0,0-4.4-.31,4.15,4.15,0,0,1-1.32-.14l-2.7-.71.49.51c-.85,0-1.64,0-2.45,0-.54,0-1,0-.8.28s-.25.15-.54.12l-4.78-.53c-.48-.05-1-.1-1.41-.17s-.86,0-1,.2a10.79,10.79,0,0,1-.72,1c-.14.19-.4.25-1,.14-1.42-.28-2.86-.53-4.28-.81-.5-.09-.79-.07-.88.15s-.22.19-.64.12c-.65-.12-.76-.06-1,.18a4.28,4.28,0,0,1-.78.54Z"/><path class="cls-5" d="M29.17,37.18c.29,0,.6,0,.88,0,.53,0,.66,0,.73.27A3.65,3.65,0,0,0,31,38c.09.19,0,.31-.41.31l-.19,0c-.77,0-1.18.12-1.34.45-.08.17-.56.19-1,.09l-.77-.22,0,.09a8.49,8.49,0,0,1-.88,0c-.37,0-.58-.12-.44-.29s0-.21-.28-.26a1.14,1.14,0,0,1-.84-.52c-.05-.11-.05-.31-.48-.29s-.79,0-.76.29.22.38-.29.41a2.58,2.58,0,0,1-1.5-.21c-.7-.38-1.46-.73-2.29-1.14l2.11-.35L21.2,36l.34,0c1,0,1,0,1.24-.36,0-.08.13-.16.17-.24s.33-.28.85-.15.77.07.86-.16.29-.22.69-.16a4.75,4.75,0,0,0,.65,0c.42,0,.85,0,1.28,0a7,7,0,0,1,.73.17c.42.09.61.21.6.41a.54.54,0,0,0,.17.41,1.62,1.62,0,0,0,.6.32c.55.16.69.34.33.54l-.62.32Z"/><path class="cls-3" d="M54.77,26.26a6.77,6.77,0,0,0-6.05,9.81l6.05,12.47,6-12.47a6.77,6.77,0,0,0-6-9.81Zm0,11.94A5.17,5.17,0,1,1,59.94,33a5.18,5.18,0,0,1-5.17,5.17Zm0,0,1.32-9.28-3.28,4.46h1.86L53.4,36.77l3.33-4.49H54.86Z"/></g></svg>