<svg id="Layer_1" data-name="Layer 1" xmlns="http://www.w3.org/2000/svg" viewBox="0 0 90 100"><defs><style>.cls-1{fill:#fff;stroke:#74af27;}.cls-1,.cls-3{stroke-miterlimit:10;}.cls-2{fill:#74af27;}.cls-3{fill:none;stroke:#73b02c;stroke-linecap:round;stroke-width:1.07px;}.cls-4{fill:#73b02c;}</style></defs><title>EV-Systems_Operations-ChargingHistory</title><circle class="cls-1" cx="45" cy="37.74" r="28.35"/><path class="cls-2" d="M26.2,73.85v0a3.17,3.17,0,0,1,3.19-3.25,3.25,3.25,0,0,1,2.45,1l-.48.52a2.73,2.73,0,0,0-2-.87,2.47,2.47,0,0,0-2.44,2.59h0a2.49,2.49,0,0,0,2.44,2.61,2.75,2.75,0,0,0,2-.91l.47.46a3.31,3.31,0,0,1-2.52,1.1A3.14,3.14,0,0,1,26.2,73.85Z"/><path class="cls-2" d="M32.73,70.41h.7v2.73A1.76,1.76,0,0,1,35,72.23,1.7,1.7,0,0,1,36.8,74.1V77h-.69V74.27a1.24,1.24,0,0,0-1.29-1.41,1.37,1.37,0,0,0-1.39,1.46V77h-.7Z"/><path class="cls-2" d="M37.66,75.63h0c0-1,.81-1.51,2-1.51a5.24,5.24,0,0,1,1.43.2v-.16c0-.84-.52-1.27-1.39-1.27a3.33,3.33,0,0,0-1.41.34l-.21-.56a3.76,3.76,0,0,1,1.69-.39,2.07,2.07,0,0,1,1.51.51,1.87,1.87,0,0,1,.47,1.36V77h-.66v-.71a2,2,0,0,1-1.69.8A1.56,1.56,0,0,1,37.66,75.63Zm3.43-.35v-.45a4.85,4.85,0,0,0-1.37-.2c-.88,0-1.36.38-1.36,1v0c0,.58.54.93,1.17.93A1.42,1.42,0,0,0,41.09,75.28Z"/><path class="cls-2" d="M43,72.33h.69v1.22a2,2,0,0,1,1.9-1.3V73h0a1.88,1.88,0,0,0-1.85,2.13V77H43Z"/><path class="cls-2" d="M46.08,77.8l.32-.54a3,3,0,0,0,1.79.59,1.53,1.53,0,0,0,1.69-1.66v-.55a2.22,2.22,0,0,1-1.83,1,2.16,2.16,0,0,1-2.19-2.18v0a2.2,2.2,0,0,1,4-1.26v-.84h.69v3.85A2.2,2.2,0,0,1,50,77.82a2.42,2.42,0,0,1-1.77.62A3.66,3.66,0,0,1,46.08,77.8Zm3.82-3.36v0a1.64,1.64,0,0,0-1.71-1.58,1.54,1.54,0,0,0-1.61,1.57v0A1.56,1.56,0,0,0,48.19,76,1.64,1.64,0,0,0,49.9,74.44Z"/><path class="cls-2" d="M51.86,70.55h.79v.76h-.79Zm0,1.78h.7V77h-.7Z"/><path class="cls-2" d="M53.94,72.33h.69v.81a1.77,1.77,0,0,1,1.59-.91A1.71,1.71,0,0,1,58,74.1V77h-.7V74.27A1.24,1.24,0,0,0,56,72.86a1.37,1.37,0,0,0-1.4,1.46V77h-.69Z"/><path class="cls-2" d="M59.16,77.8l.31-.54a3,3,0,0,0,1.79.59A1.54,1.54,0,0,0,63,76.19v-.55a2.23,2.23,0,0,1-1.83,1,2.15,2.15,0,0,1-2.19-2.18v0a2.2,2.2,0,0,1,4-1.26v-.84h.69v3.85a2.24,2.24,0,0,1-.59,1.64,2.44,2.44,0,0,1-1.78.62A3.65,3.65,0,0,1,59.16,77.8ZM63,74.44v0a1.63,1.63,0,0,0-1.71-1.58,1.54,1.54,0,0,0-1.61,1.57v0A1.57,1.57,0,0,0,61.26,76,1.63,1.63,0,0,0,63,74.44Z"/><path class="cls-2" d="M30.76,81.68h.71v2.8h3.64v-2.8h.71V88h-.71V85.15H31.47V88h-.71Z"/><path class="cls-2" d="M37.23,81.55H38v.76h-.8Zm.05,1.78H38V88h-.69Z"/><path class="cls-2" d="M38.92,87.39l.36-.49a2.75,2.75,0,0,0,1.61.59c.56,0,1-.29,1-.74v0c0-.46-.55-.64-1.16-.81s-1.54-.46-1.54-1.32v0a1.41,1.41,0,0,1,1.58-1.33,3.24,3.24,0,0,1,1.68.51l-.32.53a2.59,2.59,0,0,0-1.37-.45c-.55,0-.9.28-.9.67v0c0,.44.57.61,1.19.8s1.5.5,1.5,1.33v0a1.47,1.47,0,0,1-1.66,1.4A3.27,3.27,0,0,1,38.92,87.39Z"/><path class="cls-2" d="M43.68,86.75V83.94H43v-.61h.65v-1.4h.69v1.4h1.48v.61H44.37v2.72a.69.69,0,0,0,.78.78,1.43,1.43,0,0,0,.68-.17v.6a1.83,1.83,0,0,1-.84.2A1.18,1.18,0,0,1,43.68,86.75Z"/><path class="cls-2" d="M46.38,85.68v0a2.43,2.43,0,0,1,4.85,0v0a2.42,2.42,0,0,1-2.44,2.43A2.37,2.37,0,0,1,46.38,85.68Zm4.14,0v0a1.76,1.76,0,0,0-1.73-1.82,1.72,1.72,0,0,0-1.7,1.8v0a1.75,1.75,0,0,0,1.72,1.81A1.72,1.72,0,0,0,50.52,85.68Z"/><path class="cls-2" d="M52.21,83.33h.69v1.22a2,2,0,0,1,1.9-1.3V84h0a1.88,1.88,0,0,0-1.85,2.13V88h-.69Z"/><path class="cls-2" d="M59.07,83.33h.74l-2,4.81c-.39,1-.84,1.31-1.55,1.31a2.19,2.19,0,0,1-1-.23l.24-.55a1.41,1.41,0,0,0,.73.17c.41,0,.67-.21.95-.87l-2.11-4.64h.76l1.69,3.88Z"/><line class="cls-3" x1="33.83" y1="44.76" x2="33.83" y2="54.49"/><line class="cls-3" x1="40.63" y1="39.24" x2="40.63" y2="54.49"/><line class="cls-3" x1="47.43" y1="44.76" x2="47.43" y2="54.49"/><line class="cls-3" x1="54.23" y1="32.81" x2="54.23" y2="54.49"/><circle class="cls-4" cx="33.83" cy="34.55" r="1.9"/><circle class="cls-4" cx="40.63" cy="29.06" r="1.9"/><circle class="cls-4" cx="54.23" cy="22.63" r="1.9"/><circle class="cls-4" cx="47.43" cy="34.55" r="1.9"/><polyline class="cls-3" points="33.83 34.55 40.63 29.06 47.43 34.55 54.23 22.63"/></svg>