<svg id="Layer_1" data-name="Layer 1" xmlns="http://www.w3.org/2000/svg" viewBox="0 0 90 100"><defs><style>.cls-1{fill:#fff;stroke-miterlimit:10;}.cls-1,.cls-3{stroke:#74af27;}.cls-2{fill:#74af27;}.cls-3{fill:none;stroke-linecap:round;stroke-linejoin:round;stroke-width:0.77px;}</style></defs><title>EV-Systems_Operations-SMARTIntegration</title><circle class="cls-1" cx="45" cy="37.74" r="28.35"/><path class="cls-2" d="M29.54,76.07l.44-.53a3,3,0,0,0,2.16.9c.85,0,1.4-.45,1.4-1.07v0c0-.59-.31-.92-1.63-1.2s-2.12-.78-2.12-1.82v0a1.86,1.86,0,0,1,2.07-1.72,3.32,3.32,0,0,1,2.22.78l-.42.55a2.75,2.75,0,0,0-1.82-.69c-.82,0-1.34.45-1.34,1v0c0,.59.33.93,1.71,1.22s2,.82,2,1.79h0c0,1.08-.9,1.79-2.15,1.79A3.69,3.69,0,0,1,29.54,76.07Z"/><path class="cls-2" d="M35.44,70.68h.72l2.3,3.44,2.29-3.44h.72V77h-.71V71.88l-2.29,3.38h0l-2.29-3.37V77h-.7Z"/><path class="cls-2" d="M45.32,70.64H46L48.85,77h-.76l-.74-1.67H43.92L43.17,77h-.73Zm1.75,4-1.43-3.2-1.44,3.2Z"/><path class="cls-2" d="M49.82,70.68h2.71a2.53,2.53,0,0,1,1.8.63,1.78,1.78,0,0,1,.48,1.25h0a1.84,1.84,0,0,1-1.71,1.84L55,77h-.88l-1.82-2.45h-1.8V77h-.72Zm2.65,3.22c1,0,1.62-.49,1.62-1.3v0c0-.77-.59-1.24-1.61-1.24H50.54V73.9Z"/><path class="cls-2" d="M57.66,71.34H55.55v-.66h5v.66H58.38V77h-.72Z"/><path class="cls-2" d="M22.85,81.68h.71V88h-.71Z"/><path class="cls-2" d="M25,83.33h.69v.81a1.76,1.76,0,0,1,1.59-.91,1.7,1.7,0,0,1,1.78,1.87V88h-.69V85.27a1.24,1.24,0,0,0-1.29-1.41,1.37,1.37,0,0,0-1.39,1.46V88H25Z"/><path class="cls-2" d="M30.53,86.75V83.94h-.65v-.61h.65v-1.4h.7v1.4H32.7v.61H31.23v2.72a.69.69,0,0,0,.78.78,1.42,1.42,0,0,0,.67-.17v.6a1.79,1.79,0,0,1-.83.2A1.19,1.19,0,0,1,30.53,86.75Z"/><path class="cls-2" d="M33.23,85.67v0a2.3,2.3,0,0,1,2.23-2.42,2.22,2.22,0,0,1,2.17,2.46v.23h-3.7a1.63,1.63,0,0,0,1.64,1.57A1.92,1.92,0,0,0,37,86.83l.43.39a2.4,2.4,0,0,1-1.92.87A2.32,2.32,0,0,1,33.23,85.67Zm3.7-.27a1.53,1.53,0,0,0-1.48-1.58,1.61,1.61,0,0,0-1.52,1.58Z"/><path class="cls-2" d="M38.52,88.8l.32-.54a3,3,0,0,0,1.79.59,1.53,1.53,0,0,0,1.69-1.66v-.55a2.2,2.2,0,0,1-1.82,1,2.15,2.15,0,0,1-2.19-2.18v0a2.2,2.2,0,0,1,4-1.26v-.84H43v3.85a2.21,2.21,0,0,1-.6,1.64,2.4,2.4,0,0,1-1.77.62A3.7,3.7,0,0,1,38.52,88.8Zm3.82-3.36v0a1.64,1.64,0,0,0-1.71-1.58A1.54,1.54,0,0,0,39,85.41v0A1.57,1.57,0,0,0,40.63,87,1.64,1.64,0,0,0,42.34,85.44Z"/><path class="cls-2" d="M44.28,83.33H45v1.22a2,2,0,0,1,1.9-1.3V84h-.06A1.88,1.88,0,0,0,45,86.13V88h-.7Z"/><path class="cls-2" d="M47.08,86.63h0c0-1,.81-1.51,2-1.51a5.12,5.12,0,0,1,1.43.2v-.16c0-.84-.51-1.27-1.38-1.27a3.41,3.41,0,0,0-1.42.34l-.2-.56a3.73,3.73,0,0,1,1.69-.39,2,2,0,0,1,1.5.51,1.83,1.83,0,0,1,.48,1.36V88H50.5v-.71a2,2,0,0,1-1.68.8A1.57,1.57,0,0,1,47.08,86.63Zm3.43-.35v-.45a4.78,4.78,0,0,0-1.36-.2c-.88,0-1.36.38-1.36,1v0c0,.58.54.93,1.17.93A1.41,1.41,0,0,0,50.51,86.28Z"/><path class="cls-2" d="M52.57,86.75V83.94h-.64v-.61h.64v-1.4h.7v1.4h1.47v.61H53.27v2.72a.69.69,0,0,0,.78.78,1.48,1.48,0,0,0,.68-.17v.6a1.86,1.86,0,0,1-.84.2A1.19,1.19,0,0,1,52.57,86.75Z"/><path class="cls-2" d="M55.71,81.55h.8v.76h-.8Zm0,1.78h.69V88h-.69Z"/><path class="cls-2" d="M57.5,85.68v0a2.43,2.43,0,0,1,4.86,0v0a2.42,2.42,0,0,1-2.44,2.43A2.38,2.38,0,0,1,57.5,85.68Zm4.15,0v0a1.76,1.76,0,0,0-1.73-1.82,1.72,1.72,0,0,0-1.7,1.8v0a1.74,1.74,0,0,0,1.72,1.81A1.72,1.72,0,0,0,61.65,85.68Z"/><path class="cls-2" d="M63.34,83.33H64v.81a1.77,1.77,0,0,1,1.59-.91,1.71,1.71,0,0,1,1.79,1.87V88h-.7V85.27a1.24,1.24,0,0,0-1.28-1.41A1.37,1.37,0,0,0,64,85.32V88h-.69Z"/><path class="cls-2" d="M45.71,22.87H59.42a2.36,2.36,0,0,1,2.52,1.88A11.53,11.53,0,0,1,62,26.61c0,.92,0,1.84,0,2.76,0,.62,0,1.24,0,1.86,0,.86,0,1.72,0,2.58,0,.57,0,1.14,0,1.71,0,1.45,0,2.91,0,4.36,0,1.13,0,2.26,0,3.39,0,.84,0,1.69,0,2.53a13,13,0,0,1,0,1.53A2.26,2.26,0,0,1,60,49.18c-1,.06-2,.06-3,.07-2.4,0-4.79,0-7.18,0-.36,0-.5.1-.49.49,0,1,0,2,0,3a1,1,0,0,0,.77,1,3.11,3.11,0,0,0,.8.13h3.7c.63,0,.95.29,1,.81a.75.75,0,0,1-.65.79,6.11,6.11,0,0,1-1,.05H36.87a3.41,3.41,0,0,1-.55-.05.8.8,0,0,1-.64-.77.75.75,0,0,1,.58-.77,1.81,1.81,0,0,1,.52-.06h3.13a3.71,3.71,0,0,0,.67,0c.78-.17,1.17-.42,1.13-1.37s0-1.85,0-2.77c0-.33-.11-.43-.43-.43H32a2.44,2.44,0,0,1-2.71-2.67v-21A2.4,2.4,0,0,1,30.94,23a4.09,4.09,0,0,1,1.21-.14Zm0,1.66H31.9c-.74,0-.94.21-.94,1V46.71c0,.66.22.88.87.88H59.4c.79,0,1-.19,1-1V25.45c0-.72-.21-.92-.91-.92Zm2.08,29.31c0-.91-.07-1.76-.09-2.61,0-.52,0-1,0-1.57,0-.3-.09-.42-.4-.42-1.16,0-2.32,0-3.48,0-.35,0-.43.13-.45.46a17.46,17.46,0,0,1-.2,4.14Z"/><path class="cls-2" d="M43,37.59v-.9h3.87a.76.76,0,0,0,.56-.19.63.63,0,0,0,.19-.49.63.63,0,0,0-.19-.5.85.85,0,0,0-.56-.16H44.49a2,2,0,0,1-.66-.11,1.37,1.37,0,0,1-.49-.31,1.21,1.21,0,0,1-.31-.46,1.44,1.44,0,0,1-.11-.59,1.57,1.57,0,0,1,.1-.58,1.27,1.27,0,0,1,.3-.45,1.69,1.69,0,0,1,.5-.31,2.06,2.06,0,0,1,.68-.11h3.71v.9H44.5a.69.69,0,0,0-.48.17.64.64,0,0,0-.17.47.6.6,0,0,0,.18.46.64.64,0,0,0,.47.16h2.36a1.7,1.7,0,0,1,1.19.37,1.4,1.4,0,0,1,.41,1.12,1.64,1.64,0,0,1-.1.6,1.09,1.09,0,0,1-.3.48,1.39,1.39,0,0,1-.5.32,2.1,2.1,0,0,1-.7.11Z"/><circle class="cls-3" cx="38.15" cy="30.51" r="1.96"/><circle class="cls-2" cx="53.22" cy="30.54" r="0.98"/><circle class="cls-2" cx="35.72" cy="40.07" r="1.2"/><circle class="cls-2" cx="56.22" cy="34.6" r="0.98"/><circle class="cls-3" cx="53.32" cy="39.51" r="1.47"/><line class="cls-3" x1="39.7" y1="31.71" x2="41.74" y2="32.96"/><line class="cls-3" x1="52.77" y1="30.99" x2="49.64" y2="33.92"/><line class="cls-3" x1="56.22" y1="34.6" x2="49.64" y2="33.92"/><line class="cls-3" x1="49.44" y1="37.41" x2="52.05" y2="38.8"/><line class="cls-3" x1="35.5" y1="40.18" x2="41.71" y2="37.32"/><circle class="cls-2" cx="42.43" cy="40.7" r="0.98"/><line class="cls-3" x1="43.54" y1="38.46" x2="42.43" y2="40.7"/><path class="cls-2" d="M45.67,26.29H58.18c.6,0,.67.1.66.71,0,.84,0,1.69,0,2.53,0,.63,0,1.27,0,1.9,0,.84,0,1.69,0,2.53,0,.57,0,1.14,0,1.71v2.87c0,.69,0,1.39,0,2.08s0,1.39,0,2.09c0,.49-.12.63-.61.63h-25c-.62,0-.79-.2-.79-.82,0-1.47,0-3,0-4.43,0-1.15,0-2.3,0-3.45,0-.82,0-1.64,0-2.46,0-.63,0-1.27,0-1.9,0-.84,0-1.69,0-2.53a10.61,10.61,0,0,1,.05-1.12c0-.31.27-.34.53-.34H45.67Zm0,.83H40.16c-2.14,0-4.28,0-6.42,0-.37,0-.49.14-.47.49a8.72,8.72,0,0,1,0,.89c0,1.36,0,2.71,0,4.06,0,1.12,0,2.24,0,3.36,0,1.43,0,2.86,0,4.29,0,.58,0,1.17,0,1.75s0,.56.54.56H57.51c.47,0,.54-.06.54-.54s0-.72,0-1.08V36.46c0-.63,0-1.26,0-1.89,0-.79,0-1.57,0-2.35l0-1.9c0-.92,0-1.83,0-2.75,0-.41-.16-.46-.5-.46Z"/></svg>