<svg id="Layer_1" data-name="Layer 1" xmlns="http://www.w3.org/2000/svg" xmlns:xlink="http://www.w3.org/1999/xlink" viewBox="0 0 90 100"><defs><style>.cls-1,.cls-6{fill:none;}.cls-2,.cls-5{fill:#fff;}.cls-2,.cls-6{stroke:#74af27;stroke-miterlimit:10;}.cls-3{fill:#74af27;}.cls-4{clip-path:url(#clip-path);}.cls-6{stroke-linecap:round;stroke-width:0.46px;}</style><clipPath id="clip-path"><circle class="cls-1" cx="45" cy="37.74" r="27.9"/></clipPath></defs><title>EV-Systems_Operations-EVDriverMultiDeviceAccess</title><circle class="cls-2" cx="45" cy="37.74" r="28.35"/><path class="cls-3" d="M25.71,70.68h4.56v.65H26.42v2.15h3.44v.65H26.42v2.21h3.89V77h-4.6Z"/><path class="cls-3" d="M30.93,70.68h.79L34,76.11l2.25-5.43H37L34.27,77h-.63Z"/><path class="cls-3" d="M40.38,70.68h2.19a3.14,3.14,0,0,1,3.35,3.14h0A3.16,3.16,0,0,1,42.57,77H40.38Zm.71.66v5h1.48a2.44,2.44,0,0,0,2.61-2.48v0a2.45,2.45,0,0,0-2.61-2.49Z"/><path class="cls-3" d="M47,72.33h.7v1.22a2,2,0,0,1,1.9-1.3V73h-.06a1.87,1.87,0,0,0-1.84,2.13V77H47Z"/><path class="cls-3" d="M50.43,70.55h.79v.76h-.79Zm0,1.78h.69V77h-.69Z"/><path class="cls-3" d="M52.05,72.33h.76l1.57,3.86L56,72.33h.75l-2,4.69h-.61Z"/><path class="cls-3" d="M57,74.67v0a2.3,2.3,0,0,1,2.23-2.42,2.22,2.22,0,0,1,2.17,2.46,1.77,1.77,0,0,1,0,.23H57.66a1.63,1.63,0,0,0,1.64,1.57,1.92,1.92,0,0,0,1.47-.66l.43.39a2.42,2.42,0,0,1-1.92.87A2.31,2.31,0,0,1,57,74.67Zm3.7-.27a1.53,1.53,0,0,0-1.49-1.58,1.6,1.6,0,0,0-1.51,1.58Z"/><path class="cls-3" d="M62.31,72.33H63v1.22a2,2,0,0,1,1.9-1.3V73h-.06A1.88,1.88,0,0,0,63,75.13V77h-.69Z"/><path class="cls-3" d="M4.15,81.68h.72l2.3,3.44,2.29-3.44h.72V88H9.47V82.88l-2.3,3.38h0l-2.3-3.37V88H4.15Z"/><path class="cls-3" d="M11.5,86.22V83.33h.7v2.72a1.24,1.24,0,0,0,1.28,1.41A1.38,1.38,0,0,0,14.88,86V83.33h.68V88h-.68v-.81a1.78,1.78,0,0,1-1.59.9A1.7,1.7,0,0,1,11.5,86.22Z"/><path class="cls-3" d="M16.91,81.41h.69V88h-.69Z"/><path class="cls-3" d="M19.19,86.75V83.94h-.65v-.61h.65v-1.4h.69v1.4h1.48v.61H19.88v2.72a.69.69,0,0,0,.78.78,1.43,1.43,0,0,0,.68-.17v.6a1.8,1.8,0,0,1-.84.2A1.19,1.19,0,0,1,19.19,86.75Z"/><path class="cls-3" d="M22.33,81.55h.79v.76h-.79Zm0,1.78h.7V88h-.7Z"/><path class="cls-3" d="M27,81.68h2.19a3.14,3.14,0,0,1,3.35,3.14h0A3.16,3.16,0,0,1,29.14,88H27Zm.72.66v5h1.47a2.44,2.44,0,0,0,2.61-2.48v0a2.45,2.45,0,0,0-2.61-2.49Z"/><path class="cls-3" d="M33.32,85.67v0a2.29,2.29,0,0,1,2.23-2.42,2.22,2.22,0,0,1,2.17,2.46,1.77,1.77,0,0,1,0,.23H34a1.63,1.63,0,0,0,1.64,1.57,1.92,1.92,0,0,0,1.47-.66l.43.39a2.42,2.42,0,0,1-1.92.87A2.31,2.31,0,0,1,33.32,85.67ZM37,85.4a1.53,1.53,0,0,0-1.49-1.58A1.6,1.6,0,0,0,34,85.4Z"/><path class="cls-3" d="M38,83.33h.76l1.57,3.86,1.58-3.86h.74l-2,4.69H40Z"/><path class="cls-3" d="M43.47,81.55h.79v.76h-.79Zm0,1.78h.7V88h-.7Z"/><path class="cls-3" d="M45.26,85.68v0a2.42,2.42,0,0,1,4.25-1.6l-.46.49a1.87,1.87,0,0,0-1.41-.71A1.72,1.72,0,0,0,46,85.64v0a1.74,1.74,0,0,0,1.71,1.81,1.89,1.89,0,0,0,1.42-.69l.44.41a2.35,2.35,0,0,1-1.89.9A2.39,2.39,0,0,1,45.26,85.68Z"/><path class="cls-3" d="M50,85.67v0a2.3,2.3,0,0,1,2.24-2.42,2.22,2.22,0,0,1,2.17,2.46,1.77,1.77,0,0,1,0,.23H50.7a1.62,1.62,0,0,0,1.63,1.57,1.92,1.92,0,0,0,1.47-.66l.43.39a2.38,2.38,0,0,1-1.91.87A2.32,2.32,0,0,1,50,85.67Zm3.7-.27a1.53,1.53,0,0,0-1.48-1.58A1.6,1.6,0,0,0,50.7,85.4Z"/><path class="cls-3" d="M60.22,81.64h.66L63.76,88H63l-.74-1.67H58.82L58.08,88h-.73Zm1.75,4-1.43-3.2-1.44,3.2Z"/><path class="cls-3" d="M64.1,85.68v0a2.42,2.42,0,0,1,4.25-1.6l-.46.49a1.89,1.89,0,0,0-1.42-.71,1.72,1.72,0,0,0-1.66,1.8v0a1.74,1.74,0,0,0,1.71,1.81,1.91,1.91,0,0,0,1.42-.69l.44.41a2.4,2.4,0,0,1-4.28-1.51Z"/><path class="cls-3" d="M68.83,85.68v0a2.42,2.42,0,0,1,4.25-1.6l-.46.49a1.87,1.87,0,0,0-1.41-.71,1.72,1.72,0,0,0-1.67,1.8v0a1.74,1.74,0,0,0,1.71,1.81,1.91,1.91,0,0,0,1.43-.69l.44.41a2.41,2.41,0,0,1-4.29-1.51Z"/><path class="cls-3" d="M73.57,85.67v0a2.29,2.29,0,0,1,2.23-2.42A2.22,2.22,0,0,1,78,85.69a1.77,1.77,0,0,1,0,.23H74.27a1.63,1.63,0,0,0,1.64,1.57,1.9,1.9,0,0,0,1.46-.66l.44.39a2.42,2.42,0,0,1-1.92.87A2.31,2.31,0,0,1,73.57,85.67Zm3.7-.27a1.54,1.54,0,0,0-1.49-1.58,1.6,1.6,0,0,0-1.51,1.58Z"/><path class="cls-3" d="M78.52,87.39l.36-.49a2.75,2.75,0,0,0,1.61.59c.55,0,1-.29,1-.74v0c0-.46-.55-.64-1.16-.81s-1.54-.46-1.54-1.32v0a1.41,1.41,0,0,1,1.58-1.33,3.24,3.24,0,0,1,1.68.51l-.32.53a2.59,2.59,0,0,0-1.37-.45c-.55,0-.9.28-.9.67v0c0,.44.57.61,1.19.8s1.5.5,1.5,1.33v0a1.47,1.47,0,0,1-1.66,1.4A3.27,3.27,0,0,1,78.52,87.39Z"/><path class="cls-3" d="M82.65,87.39,83,86.9a2.75,2.75,0,0,0,1.61.59c.56,0,1-.29,1-.74v0c0-.46-.55-.64-1.16-.81s-1.54-.46-1.54-1.32v0a1.41,1.41,0,0,1,1.59-1.33,3.24,3.24,0,0,1,1.67.51l-.31.53a2.65,2.65,0,0,0-1.38-.45c-.55,0-.9.28-.9.67v0c0,.44.57.61,1.19.8s1.5.5,1.5,1.33v0a1.47,1.47,0,0,1-1.66,1.4A3.22,3.22,0,0,1,82.65,87.39Z"/><g class="cls-4"><path class="cls-3" d="M47.31,39.29c.29,2.82,1.42,3.13,1.42,3.13H39.11s1.17-.38,1.47-3.14Z"/><path class="cls-3" d="M49.09,43.71c0,.09,0,.2-.12.2H38.91c-.09,0-.23-.11-.23-.2v-.65c0-.09.14-.15.23-.15H49c.09,0,.12.06.12.15Z"/><path class="cls-3" d="M59.11,37.88a1,1,0,0,1-1,1H29.33a1,1,0,0,1-1-1V19a1,1,0,0,1,1-1H58.14a1,1,0,0,1,1,1ZM57.72,20H29.85V37.16H57.72Z"/><rect class="cls-5" x="29.69" y="19.64" width="28.13" height="17.63"/><path class="cls-3" d="M67.5,45.69H48.64V34.45c0-.25.34-.46.59-.46H67.07a.44.44,0,0,1,.43.46Zm-.74-10.82H49.46v10h17.3Z"/><path class="cls-3" d="M69.19,46.25H60.31s0,.4-.33.4H56c-.33,0-.33-.4-.33-.4H46.78c-.12,0-.3.07-.3.19V47a2.63,2.63,0,0,0,1,.46H68.53c.33,0,.87-.46.87-.46v-.55A.18.18,0,0,0,69.19,46.25Z"/><rect class="cls-5" x="49.44" y="34.87" width="17.32" height="9.87"/><path class="cls-3" d="M36,47.54a.87.87,0,0,1-.89.92H25.23a1,1,0,0,1-1-.92V33.93a1,1,0,0,1,1-.94h9.83a.89.89,0,0,1,.89.94ZM35,34.08H25.14v12H35ZM30.15,46.53a.74.74,0,1,0,.73.74A.74.74,0,0,0,30.15,46.53Z"/><rect class="cls-5" x="25.14" y="34.08" width="9.82" height="12"/><path class="cls-6" d="M35.69,64.42l1.82-2.86A4.06,4.06,0,0,1,36.86,58a11.25,11.25,0,0,0-.12-3.28s-.4-1.22.49-1.65c0,0,1.32-.43,1.32,1.07"/><path class="cls-6" d="M41.11,66l1.35-2.21a4,4,0,0,0,3.46-2.71"/><path class="cls-3" d="M46.9,60.16c0,.58-.23,1.06-.81,1.06H39.42a1.11,1.11,0,0,1-1.11-1.06V45.77a1.12,1.12,0,0,1,1.11-1.07h6.67c.58,0,.81.49.81,1.07ZM46.37,47H39V58.94h7.39Zm-3.61,12.4a.64.64,0,1,0,.64.64A.64.64,0,0,0,42.76,59.39ZM44.35,46a.18.18,0,0,0-.17-.17H41a.18.18,0,0,0-.18.17v.19a.18.18,0,0,0,.18.18h3.14a.18.18,0,0,0,.17-.18Zm2,1H39V58.94h7.39Z"/><rect class="cls-5" x="38.98" y="46.99" width="7.39" height="11.95"/><path class="cls-1" d="M49.2,62l.11,0-.12,0Z"/><path class="cls-5" d="M51.23,65.31,49.31,62l-.11,0Z"/><path class="cls-5" d="M51.17,65.21,49.31,62l-.12,0h0a4,4,0,0,1-.74-.23h0a4.83,4.83,0,0,1-1.93-1.46L45,58.2a1.78,1.78,0,0,1,.44-2.32L43.22,51a.79.79,0,0,1,.27-1.17c1-.39,1.23.35,1.23.35L45.6,52h0l.62-.31s1-.59,1.47.36l.56-.32a.89.89,0,0,1,1.41.34l.61-.34a1,1,0,0,1,1.11.68l2,4a5,5,0,0,1,.28,3.21L56.08,64l-4.62,1.84Z"/><path class="cls-6" d="M56.08,64,53.7,59.63a4.83,4.83,0,0,0-.28-3.21l-2-4s-.37-.85-1.11-.68"/><path class="cls-6" d="M48.25,51.7a.85.85,0,0,1,1.41.34l.86,1.59"/><path class="cls-6" d="M46.14,51.7s1-.58,1.47.37l1,2"/><path class="cls-6" d="M46.9,54.73l-2.26-4.46s-.25-.74-1.23-.36c0,0-.7.32-.27,1.18l3,6.43"/><path class="cls-6" d="M51.15,65.35l-1.92-3.3a4.69,4.69,0,0,1-2.79-1.72L45,58.25a1.77,1.77,0,0,1,.45-2.32"/></g></svg>