<svg id="Layer_1" data-name="Layer 1" xmlns="http://www.w3.org/2000/svg" xmlns:xlink="http://www.w3.org/1999/xlink" viewBox="0 0 90 100"><defs><style>.cls-1,.cls-7{fill:none;}.cls-2,.cls-4,.cls-5{fill:#fff;}.cls-3{clip-path:url(#clip-path);}.cls-4,.cls-5,.cls-7{stroke:#74af27;}.cls-4,.cls-5{stroke-linecap:round;stroke-linejoin:round;}.cls-6{fill:#74af27;}.cls-7{stroke-miterlimit:10;}</style><clipPath id="clip-path"><circle class="cls-1" cx="45" cy="37.74" r="28.35"/></clipPath></defs><title>EV-Systems_Operations-NewRevenueStream</title><circle class="cls-2" cx="45.06" cy="37.74" r="28.35"/><g class="cls-3"><path class="cls-4" d="M38.69,47.55,51.36,49c3.49.28,3.19-3.66,3.19-3.66a3.62,3.62,0,0,0-2.37-1.94l-1.55-.59A19.88,19.88,0,0,0,45.88,42c-1.7-.49-4.14-1.15-4.14-1.15l-6-2.7c-5.2-2.62-10.27,3.67-10.27,3.67-3.16,3.37-8.81,6.44-8.81,6.44l5.15,9.78c3.76-4.15,9.89-2.75,9.89-2.75l8.93,1A18.58,18.58,0,0,0,54.6,53L64.94,41.55s2.86-3.38-.31-4.9a2.63,2.63,0,0,0-2,.33s-1.5-2.6-4-1.33a10.77,10.77,0,0,0-1.38,1l-6.57,6.18"/><circle class="cls-5" cx="47.91" cy="33.1" r="6.11"/><path class="cls-6" d="M45.53,35.48a2,2,0,0,0,1.09-1.59,1.59,1.59,0,0,0-.18-.65h-1v-.82h.62a2.29,2.29,0,0,1-.43-1.33c0-1,.85-1.91,2.46-1.91a2.16,2.16,0,0,1,2.34,2.41h-1.3c0-.38-.07-1.29-1.05-1.29a.86.86,0,0,0-.94.89,2.14,2.14,0,0,0,.39,1.23h1.28v.82h-1a1.68,1.68,0,0,1,.08.6,1.7,1.7,0,0,1-.79,1.35l0,0a1.08,1.08,0,0,1,.66-.23,4,4,0,0,1,.76.11,2.79,2.79,0,0,0,.75.12,1,1,0,0,0,.84-.42l.58,1a2.08,2.08,0,0,1-1.5.62,2.79,2.79,0,0,1-1.05-.17,2.31,2.31,0,0,0-.95-.2,1.7,1.7,0,0,0-1.11.37Z"/><line class="cls-4" x1="54.6" y1="44.95" x2="62.58" y2="36.98"/><circle class="cls-5" cx="36" cy="20.91" r="6.11"/><path class="cls-6" d="M33,22.25a2.05,2.05,0,0,0,1.6-1.08,1.36,1.36,0,0,0,.07-.67l-.88-.35.3-.76.57.23a2.32,2.32,0,0,1,.09-1.4c.38-1,1.5-1.47,3-.87A2.15,2.15,0,0,1,39,20.45L37.78,20c.11-.36.4-1.22-.51-1.58a.86.86,0,0,0-1.2.48A2.14,2.14,0,0,0,36,20.16l1.19.47-.3.76L35.93,21a1.78,1.78,0,0,1-.15.58,1.67,1.67,0,0,1-1.23,1v0a1.13,1.13,0,0,1,.69,0,5,5,0,0,1,.67.38,2.88,2.88,0,0,0,.65.39,1,1,0,0,0,.94-.07l.18,1.11a2.11,2.11,0,0,1-1.62,0,2.71,2.71,0,0,1-.92-.55,2.47,2.47,0,0,0-.81-.53,1.67,1.67,0,0,0-1.16-.07Z"/><circle class="cls-5" cx="51.11" cy="13.01" r="6.11"/><path class="cls-6" d="M50.67,16.33a2,2,0,0,0-.15-1.92A1.28,1.28,0,0,0,50,14l-.75.59L48.72,14l.49-.39A2.18,2.18,0,0,1,48,12.81c-.64-.8-.53-2,.74-3a2.15,2.15,0,0,1,3.32.43l-1,.81c-.26-.28-.86-1-1.62-.35A.86.86,0,0,0,49.28,12a2.2,2.2,0,0,0,1.08.72l1-.8.51.64-.79.63a1.9,1.9,0,0,1,.43.42,1.72,1.72,0,0,1,.22,1.55h0a1.11,1.11,0,0,1,.37-.58,4.4,4.4,0,0,1,.66-.39,3.14,3.14,0,0,0,.67-.38,1,1,0,0,0,.4-.85l1.06.4a2.15,2.15,0,0,1-.79,1.42,2.74,2.74,0,0,1-.93.51,2.42,2.42,0,0,0-.87.45,1.7,1.7,0,0,0-.64,1Z"/></g><circle class="cls-7" cx="45.06" cy="37.74" r="28.35"/><path class="cls-6" d="M16.77,70.68h.67l4,5v-5h.69V77h-.57l-4.06-5.17V77h-.7Z"/><path class="cls-6" d="M23.21,74.67v0a2.29,2.29,0,0,1,2.23-2.42,2.22,2.22,0,0,1,2.17,2.46,1.55,1.55,0,0,1,0,.22H23.91a1.63,1.63,0,0,0,1.64,1.58A1.92,1.92,0,0,0,27,75.83l.43.39a2.42,2.42,0,0,1-1.92.87A2.31,2.31,0,0,1,23.21,74.67Zm3.7-.27a1.53,1.53,0,0,0-1.49-1.58,1.6,1.6,0,0,0-1.51,1.58Z"/><path class="cls-6" d="M27.93,72.33h.74l1.22,3.74,1.26-3.76h.57L33,76.07l1.23-3.74h.72L33.29,77h-.6l-1.26-3.67L30.17,77h-.61Z"/><path class="cls-6" d="M38.35,70.68h2.71a2.49,2.49,0,0,1,1.79.63,1.74,1.74,0,0,1,.49,1.25h0a1.84,1.84,0,0,1-1.71,1.84L43.57,77h-.88l-1.82-2.45H39.06V77h-.71ZM41,73.9c1,0,1.62-.49,1.62-1.3v0c0-.77-.59-1.24-1.61-1.24H39.06V73.9Z"/><path class="cls-6" d="M44.1,74.67v0a2.29,2.29,0,0,1,2.23-2.42,2.22,2.22,0,0,1,2.17,2.46,1.55,1.55,0,0,1,0,.22H44.8a1.63,1.63,0,0,0,1.64,1.58,1.89,1.89,0,0,0,1.46-.66l.44.39a2.42,2.42,0,0,1-1.92.87A2.31,2.31,0,0,1,44.1,74.67Zm3.7-.27a1.53,1.53,0,0,0-1.49-1.58A1.6,1.6,0,0,0,44.8,74.4Z"/><path class="cls-6" d="M48.76,72.33h.76l1.57,3.86,1.57-3.86h.75l-2,4.69h-.62Z"/><path class="cls-6" d="M53.67,74.67v0a2.3,2.3,0,0,1,2.23-2.42,2.22,2.22,0,0,1,2.17,2.46,1.55,1.55,0,0,1,0,.22H54.37A1.63,1.63,0,0,0,56,76.49a1.92,1.92,0,0,0,1.47-.66l.43.39a2.4,2.4,0,0,1-1.92.87A2.32,2.32,0,0,1,53.67,74.67Zm3.7-.27a1.53,1.53,0,0,0-1.48-1.58,1.61,1.61,0,0,0-1.52,1.58Z"/><path class="cls-6" d="M59,72.33h.69v.81a1.77,1.77,0,0,1,1.59-.91,1.71,1.71,0,0,1,1.79,1.87V77h-.7V74.27a1.24,1.24,0,0,0-1.28-1.41,1.37,1.37,0,0,0-1.4,1.46V77H59Z"/><path class="cls-6" d="M64.22,75.22V72.33h.69v2.72a1.24,1.24,0,0,0,1.29,1.4A1.37,1.37,0,0,0,67.6,75V72.33h.68V77H67.6v-.81a1.79,1.79,0,0,1-1.6.9A1.7,1.7,0,0,1,64.22,75.22Z"/><path class="cls-6" d="M69.28,74.67v0a2.29,2.29,0,0,1,2.23-2.42,2.22,2.22,0,0,1,2.17,2.46,1.55,1.55,0,0,1,0,.22H70a1.63,1.63,0,0,0,1.64,1.58,1.92,1.92,0,0,0,1.47-.66l.43.39a2.42,2.42,0,0,1-1.92.87A2.31,2.31,0,0,1,69.28,74.67ZM73,74.4a1.53,1.53,0,0,0-1.49-1.58A1.6,1.6,0,0,0,70,74.4Z"/><path class="cls-6" d="M30.2,87.07l.45-.53a3,3,0,0,0,2.16.9c.84,0,1.4-.45,1.4-1.07v0c0-.59-.31-.92-1.64-1.2s-2.11-.78-2.11-1.82v0a1.86,1.86,0,0,1,2.07-1.72,3.24,3.24,0,0,1,2.21.78l-.41.55a2.77,2.77,0,0,0-1.82-.69c-.82,0-1.34.45-1.34,1v0c0,.59.32.93,1.71,1.22s2,.82,2,1.79h0c0,1.08-.9,1.79-2.15,1.79A3.73,3.73,0,0,1,30.2,87.07Z"/><path class="cls-6" d="M36.19,86.75V83.94h-.65v-.61h.65v-1.4h.69v1.4h1.48v.61H36.88v2.72a.7.7,0,0,0,.79.78,1.42,1.42,0,0,0,.67-.17v.6a1.8,1.8,0,0,1-.84.2A1.19,1.19,0,0,1,36.19,86.75Z"/><path class="cls-6" d="M39.31,83.33H40v1.22a2,2,0,0,1,1.9-1.3V84h0A1.88,1.88,0,0,0,40,86.13V88h-.69Z"/><path class="cls-6" d="M42.2,85.67v0a2.3,2.3,0,0,1,2.23-2.42,2.22,2.22,0,0,1,2.17,2.46,1.55,1.55,0,0,1,0,.22H42.9a1.63,1.63,0,0,0,1.64,1.58A1.92,1.92,0,0,0,46,86.83l.43.39a2.4,2.4,0,0,1-1.92.87A2.32,2.32,0,0,1,42.2,85.67Zm3.7-.27a1.53,1.53,0,0,0-1.48-1.58A1.61,1.61,0,0,0,42.9,85.4Z"/><path class="cls-6" d="M47.2,86.63h0c0-1,.81-1.51,2-1.51a4.88,4.88,0,0,1,1.43.2v-.16c0-.84-.52-1.27-1.39-1.27a3.19,3.19,0,0,0-1.41.34l-.21-.56a3.76,3.76,0,0,1,1.69-.39,2.07,2.07,0,0,1,1.51.51,1.87,1.87,0,0,1,.47,1.36V88h-.66v-.71a2,2,0,0,1-1.69.8A1.56,1.56,0,0,1,47.2,86.63Zm3.43-.35v-.46a5.37,5.37,0,0,0-1.37-.19c-.88,0-1.36.37-1.36,1v0c0,.58.54.93,1.17.93A1.42,1.42,0,0,0,50.63,86.28Z"/><path class="cls-6" d="M52.49,83.33h.69v.78a1.72,1.72,0,0,1,1.5-.88,1.59,1.59,0,0,1,1.5.93,1.86,1.86,0,0,1,1.64-.93,1.67,1.67,0,0,1,1.73,1.87V88h-.7V85.27c0-.9-.45-1.41-1.2-1.41a1.29,1.29,0,0,0-1.28,1.44V88h-.69V85.25c0-.87-.46-1.39-1.2-1.39a1.35,1.35,0,0,0-1.3,1.47V88h-.69Z"/></svg>