<svg id="Layer_1" data-name="Layer 1" xmlns="http://www.w3.org/2000/svg" xmlns:xlink="http://www.w3.org/1999/xlink" viewBox="0 0 90 100"><defs><style>.cls-1,.cls-5,.cls-7{fill:none;}.cls-2,.cls-6{fill:#fff;}.cls-2,.cls-5,.cls-6,.cls-7{stroke:#74af27;}.cls-2,.cls-5{stroke-miterlimit:10;}.cls-3{fill:#74af27;}.cls-4{clip-path:url(#clip-path);}.cls-6,.cls-7{stroke-linecap:round;stroke-linejoin:round;}</style><clipPath id="clip-path"><circle class="cls-1" cx="45" cy="37.74" r="27.79"/></clipPath></defs><title>EV-Systems_Operations-RFIDCardOperated</title><circle class="cls-2" cx="45" cy="37.74" r="28.35"/><path class="cls-3" d="M23.94,70.68h2.71a2.53,2.53,0,0,1,1.8.63,1.78,1.78,0,0,1,.48,1.25v0a1.84,1.84,0,0,1-1.71,1.83L29.16,77h-.88l-1.82-2.45h-1.8V77h-.72Zm2.65,3.22c.95,0,1.62-.49,1.62-1.3v0c0-.77-.59-1.24-1.61-1.24H24.66V73.9Z"/><path class="cls-3" d="M30.18,70.68h4.53v.66H30.89v2.25h3.42v.65H30.89V77h-.71Z"/><path class="cls-3" d="M35.88,70.68h.71V77h-.71Z"/><path class="cls-3" d="M38.16,70.68h2.19a3.14,3.14,0,0,1,3.35,3.14h0A3.16,3.16,0,0,1,40.35,77H38.16Zm.72.66v5h1.47A2.44,2.44,0,0,0,43,73.85v0a2.45,2.45,0,0,0-2.61-2.49Z"/><path class="cls-3" d="M47.08,73.85v0a3.17,3.17,0,0,1,3.19-3.25,3.27,3.27,0,0,1,2.46,1l-.49.52a2.71,2.71,0,0,0-2-.87,2.48,2.48,0,0,0-2.44,2.59h0a2.49,2.49,0,0,0,2.44,2.61,2.77,2.77,0,0,0,2-.91l.46.46a3.27,3.27,0,0,1-2.52,1.1A3.14,3.14,0,0,1,47.08,73.85Z"/><path class="cls-3" d="M53.27,75.64v0c0-1,.81-1.51,2-1.51a5.24,5.24,0,0,1,1.43.2v-.16c0-.84-.52-1.27-1.39-1.27a3.33,3.33,0,0,0-1.41.34l-.21-.56a3.76,3.76,0,0,1,1.69-.39,2.07,2.07,0,0,1,1.51.51,1.87,1.87,0,0,1,.47,1.36V77h-.66v-.71a2,2,0,0,1-1.69.8A1.56,1.56,0,0,1,53.27,75.64Zm3.43-.36v-.45a4.91,4.91,0,0,0-1.37-.2c-.88,0-1.36.38-1.36,1v0c0,.58.54.93,1.17.93A1.42,1.42,0,0,0,56.7,75.28Z"/><path class="cls-3" d="M58.56,72.33h.69v1.22a2,2,0,0,1,1.9-1.3V73h0a1.88,1.88,0,0,0-1.85,2.13V77h-.69Z"/><path class="cls-3" d="M61.47,74.67v0a2.29,2.29,0,0,1,2.23-2.42,2.11,2.11,0,0,1,1.78,1V70.41h.69V77h-.69v-.94a2.09,2.09,0,0,1-1.78,1A2.27,2.27,0,0,1,61.47,74.67Zm4,0h0a1.73,1.73,0,0,0-1.69-1.8,1.64,1.64,0,0,0-1.63,1.8h0a1.68,1.68,0,0,0,1.63,1.8A1.74,1.74,0,0,0,65.51,74.66Z"/><path class="cls-3" d="M25.38,84.85v0a3.19,3.19,0,0,1,3.23-3.25,3.15,3.15,0,0,1,3.2,3.24h0a3.22,3.22,0,1,1-6.43,0Zm5.69,0v0a2.48,2.48,0,1,0-4.95,0h0a2.51,2.51,0,0,0,2.49,2.61A2.48,2.48,0,0,0,31.07,84.85Z"/><path class="cls-3" d="M32.93,83.33h.69v.94a2.1,2.1,0,0,1,1.78-1,2.28,2.28,0,0,1,2.23,2.42h0a2.28,2.28,0,0,1-2.23,2.42,2.08,2.08,0,0,1-1.78-1v2.34h-.69Zm4,2.34v0a1.68,1.68,0,0,0-1.63-1.8,1.74,1.74,0,0,0-1.69,1.8h0a1.73,1.73,0,0,0,1.69,1.8A1.63,1.63,0,0,0,36.91,85.67Z"/><path class="cls-3" d="M38.34,85.67v0a2.3,2.3,0,0,1,2.24-2.42,2.22,2.22,0,0,1,2.17,2.46,1.77,1.77,0,0,1,0,.23H39.05a1.63,1.63,0,0,0,1.64,1.57,1.92,1.92,0,0,0,1.46-.66l.43.39a2.38,2.38,0,0,1-1.91.87A2.32,2.32,0,0,1,38.34,85.67ZM42,85.4a1.53,1.53,0,0,0-1.48-1.58,1.6,1.6,0,0,0-1.51,1.58Z"/><path class="cls-3" d="M43.69,83.33h.69v1.22a2,2,0,0,1,1.9-1.3V84h-.05a1.88,1.88,0,0,0-1.85,2.13V88h-.69Z"/><path class="cls-3" d="M46.49,86.64v0c0-1,.81-1.51,2-1.51a5.18,5.18,0,0,1,1.43.2v-.16c0-.84-.51-1.27-1.39-1.27a3.37,3.37,0,0,0-1.41.34l-.21-.56a3.8,3.8,0,0,1,1.7-.39,2,2,0,0,1,1.5.51,1.88,1.88,0,0,1,.48,1.36V88h-.67v-.71a2,2,0,0,1-1.68.8A1.56,1.56,0,0,1,46.49,86.64Zm3.43-.36v-.45a4.8,4.8,0,0,0-1.37-.2c-.87,0-1.36.38-1.36,1v0c0,.58.54.93,1.17.93A1.41,1.41,0,0,0,49.92,86.28Z"/><path class="cls-3" d="M52,86.75V83.94h-.65v-.61H52v-1.4h.69v1.4h1.48v.61H52.67v2.72a.7.7,0,0,0,.79.78,1.42,1.42,0,0,0,.67-.17v.6a1.68,1.68,0,0,1-.84.2A1.19,1.19,0,0,1,52,86.75Z"/><path class="cls-3" d="M54.68,85.67v0a2.3,2.3,0,0,1,2.23-2.42,2.22,2.22,0,0,1,2.17,2.46,1.77,1.77,0,0,1,0,.23H55.38A1.63,1.63,0,0,0,57,87.49a1.92,1.92,0,0,0,1.47-.66l.43.39a2.42,2.42,0,0,1-1.92.87A2.31,2.31,0,0,1,54.68,85.67Zm3.7-.27a1.53,1.53,0,0,0-1.49-1.58,1.6,1.6,0,0,0-1.51,1.58Z"/><path class="cls-3" d="M59.76,85.67v0A2.28,2.28,0,0,1,62,83.23a2.11,2.11,0,0,1,1.78,1V81.41h.7V88h-.7v-.94a2.09,2.09,0,0,1-1.78,1A2.26,2.26,0,0,1,59.76,85.67Zm4,0h0a1.73,1.73,0,0,0-1.68-1.8,1.65,1.65,0,0,0-1.64,1.8h0a1.68,1.68,0,0,0,1.64,1.8A1.74,1.74,0,0,0,63.79,85.66Z"/><g class="cls-4"><path class="cls-5" d="M48.86,47s1.1,5.19-2.47,6.87a3.16,3.16,0,0,1-2.57,0,3.84,3.84,0,0,1-3.06,1.5,3,3,0,0,1-3.08-2.07,4.29,4.29,0,0,1-3,1.14,2.65,2.65,0,0,1-2.27-2.09"/><path class="cls-6" d="M46.09,46.13,47,48.3c1.38,3.71,3.44,3.13,3.44,3.13,2.53-.48,2.28-4,2.28-4a41.61,41.61,0,0,0-1.89-7.72,13.82,13.82,0,0,0-7.71-5.92c-3-.95-10.91-3.69-10.91-3.69-3.07-1-4.38.18-4.38.18-1.46.83-13.33,10.12-13.33,10.12l-.54,14,14-1A9.24,9.24,0,0,0,34.12,51l3-3,4-1.8s4.95-2.06,4-6.29c0,0-1.26-2.61-5-.9l-10.5,5"/><path class="cls-7" d="M32.59,38.6a18.32,18.32,0,0,0,6.75.77s1.22,2.75,5.43,3.62a15.57,15.57,0,0,0,1.32,3.14"/><rect class="cls-6" x="31.42" y="27.58" width="27.7" height="20.31" rx="2.83"/><path class="cls-6" d="M14,54.39l14-1A9.24,9.24,0,0,0,34.12,51l3-3,4-1.8s5.87-2.34,4-6.29c0,0-1.26-2.61-5-.9l-10.5,5"/><line class="cls-5" x1="43.82" y1="53.82" x2="41.03" y2="46.23"/><line class="cls-5" x1="37.68" y1="53.25" x2="36.3" y2="48.82"/><path class="cls-3" d="M57.58,20.8a.7.7,0,0,1-.18-.44.71.71,0,0,1,.67-.77,8.93,8.93,0,0,1,2.53.34,9.43,9.43,0,0,1,4.18,2.27c1.88,1.82,2.76,4.39,2.64,7.64A.73.73,0,0,1,66,29.79a8.3,8.3,0,0,0-2.15-6.51,8.06,8.06,0,0,0-3.53-1.93A8.34,8.34,0,0,0,58.17,21,.74.74,0,0,1,57.58,20.8Zm.33,2.71A6,6,0,0,1,62,25.07a6.15,6.15,0,0,1,1.5,4.69.73.73,0,0,0,1.46,0A7.57,7.57,0,0,0,63,24.05a7.46,7.46,0,0,0-5.14-2,.73.73,0,0,0-.71.74.69.69,0,0,0,.19.48A.72.72,0,0,0,57.91,23.51ZM57.69,26a3.25,3.25,0,0,1,2.33.75,3.46,3.46,0,0,1,.9,3,.74.74,0,0,0,.67.79.73.73,0,0,0,.78-.67A4.77,4.77,0,0,0,61,25.71a4.67,4.67,0,0,0-3.59-1.1.73.73,0,0,0-.57.85.82.82,0,0,0,.17.35A.76.76,0,0,0,57.69,26Z"/></g><path class="cls-3" d="M43.55,30.78h1.68a1.5,1.5,0,0,1,1.09.38,1.12,1.12,0,0,1,.32.81h0a1.14,1.14,0,0,1-.9,1.15l1,1.43H46L45,33.24h-.83v1.32h-.66Zm1.63,1.87c.48,0,.78-.24.78-.63h0c0-.4-.29-.63-.78-.63h-1v1.27Z"/><path class="cls-3" d="M47.45,30.78h2.82v.6H48.12v1H50V33h-1.9v1.54h-.67Z"/><path class="cls-3" d="M51,30.78h.67v3.78H51Z"/><path class="cls-3" d="M52.71,30.78h1.41a1.88,1.88,0,0,1,2,1.88h0a1.89,1.89,0,0,1-2,1.89H52.71Zm.66.6V34h.75a1.24,1.24,0,0,0,1.31-1.28h0a1.24,1.24,0,0,0-1.31-1.29Z"/></svg>