<svg id="Layer_1" data-name="Layer 1" xmlns="http://www.w3.org/2000/svg" xmlns:xlink="http://www.w3.org/1999/xlink" viewBox="0 0 120 100"><defs><style>.cls-1,.cls-7{fill:none;}.cls-2,.cls-6,.cls-8{fill:#fff;}.cls-2,.cls-7{stroke:#74af27;}.cls-2{stroke-miterlimit:10;}.cls-3,.cls-5{fill:#74af27;}.cls-4{clip-path:url(#clip-path);}.cls-5,.cls-6{fill-rule:evenodd;}.cls-7{stroke-linecap:round;stroke-linejoin:round;stroke-width:0.8px;}</style><clipPath id="clip-path"><circle class="cls-1" cx="60" cy="37.52" r="28.05"/></clipPath></defs><title>EV-Systems_Operations-MobileAppControlledSMARTCharging-WallPod</title><circle class="cls-2" cx="60" cy="37.67" r="28.5"/><path class="cls-3" d="M13.11,70.83h.72l2.29,3.44,2.3-3.44h.72v6.3h-.71V72l-2.3,3.37h0L13.8,72v5.1h-.69Z"/><path class="cls-3" d="M20.24,74.83v0a2.43,2.43,0,0,1,4.86,0v0a2.42,2.42,0,0,1-2.44,2.43A2.39,2.39,0,0,1,20.24,74.83Zm4.14,0v0A1.76,1.76,0,0,0,22.66,73,1.72,1.72,0,0,0,21,74.79v0a1.75,1.75,0,0,0,1.72,1.81A1.72,1.72,0,0,0,24.38,74.83Z"/><path class="cls-3" d="M26.77,76.24v.89h-.7V70.56h.7v2.85a2.08,2.08,0,0,1,1.78-1,2.26,2.26,0,0,1,2.22,2.41v0a2.28,2.28,0,0,1-2.22,2.42A2.11,2.11,0,0,1,26.77,76.24Zm3.29-1.42v0A1.67,1.67,0,0,0,28.42,73a1.74,1.74,0,0,0-1.68,1.79v0a1.73,1.73,0,0,0,1.68,1.8A1.65,1.65,0,0,0,30.06,74.82Z"/><path class="cls-3" d="M31.8,70.69h.79v.77H31.8Zm0,1.79h.7v4.65h-.7Z"/><path class="cls-3" d="M33.94,70.56h.69v6.57h-.69Z"/><path class="cls-3" d="M35.69,74.82v0a2.29,2.29,0,0,1,2.23-2.42,2.21,2.21,0,0,1,2.17,2.45,1.69,1.69,0,0,1,0,.23H36.39A1.62,1.62,0,0,0,38,76.63,1.91,1.91,0,0,0,39.49,76l.44.38a2.39,2.39,0,0,1-1.92.88A2.31,2.31,0,0,1,35.69,74.82Zm3.7-.27A1.54,1.54,0,0,0,37.9,73a1.61,1.61,0,0,0-1.51,1.59Z"/><path class="cls-3" d="M45.91,70.78h.67l2.87,6.35h-.77L48,75.46H44.52l-.75,1.67H43Zm1.76,4-1.43-3.21-1.45,3.21Z"/><path class="cls-3" d="M50.3,72.48H51v.93a2.06,2.06,0,0,1,1.78-1A2.27,2.27,0,0,1,55,74.79v0a2.28,2.28,0,0,1-2.22,2.42,2.09,2.09,0,0,1-1.78-1v2.33h-.7Zm4,2.34v0A1.68,1.68,0,0,0,52.65,73,1.74,1.74,0,0,0,51,74.79v0a1.73,1.73,0,0,0,1.68,1.8A1.65,1.65,0,0,0,54.29,74.82Z"/><path class="cls-3" d="M56,72.48h.69v.93a2.09,2.09,0,0,1,1.78-1,2.27,2.27,0,0,1,2.23,2.41v0a2.28,2.28,0,0,1-2.23,2.42,2.11,2.11,0,0,1-1.78-1v2.33H56Zm4,2.34v0A1.68,1.68,0,0,0,58.36,73a1.74,1.74,0,0,0-1.69,1.79v0a1.73,1.73,0,0,0,1.69,1.8A1.65,1.65,0,0,0,60,74.82Z"/><path class="cls-3" d="M64,74v0a3.18,3.18,0,0,1,3.19-3.26,3.31,3.31,0,0,1,2.46,1l-.49.52a2.74,2.74,0,0,0-2-.86A2.46,2.46,0,0,0,64.72,74v0a2.48,2.48,0,0,0,2.44,2.6,2.75,2.75,0,0,0,2-.91l.46.46a3.25,3.25,0,0,1-2.52,1.11A3.14,3.14,0,0,1,64,74Z"/><path class="cls-3" d="M70.14,74.83v0a2.43,2.43,0,0,1,4.85,0v0a2.42,2.42,0,0,1-2.44,2.43A2.39,2.39,0,0,1,70.14,74.83Zm4.14,0v0A1.76,1.76,0,0,0,72.55,73a1.72,1.72,0,0,0-1.7,1.8v0a1.75,1.75,0,0,0,1.72,1.81A1.72,1.72,0,0,0,74.28,74.83Z"/><path class="cls-3" d="M76,72.48h.69v.81a1.77,1.77,0,0,1,1.6-.91A1.7,1.7,0,0,1,80,74.24v2.89h-.69V74.41A1.24,1.24,0,0,0,78.06,73a1.37,1.37,0,0,0-1.4,1.45v2.67H76Z"/><path class="cls-3" d="M81.49,75.9V73.09h-.65v-.61h.65V71.07h.69v1.41h1.48v.61H82.18v2.72a.69.69,0,0,0,.78.77,1.44,1.44,0,0,0,.68-.16V77a1.74,1.74,0,0,1-.84.2A1.18,1.18,0,0,1,81.49,75.9Z"/><path class="cls-3" d="M84.61,72.48h.69v1.21a2,2,0,0,1,1.9-1.3v.75h0a1.88,1.88,0,0,0-1.85,2.14v1.85h-.69Z"/><path class="cls-3" d="M87.5,74.83v0a2.43,2.43,0,0,1,4.85,0v0a2.42,2.42,0,0,1-2.44,2.43A2.38,2.38,0,0,1,87.5,74.83Zm4.14,0v0A1.76,1.76,0,0,0,89.91,73a1.72,1.72,0,0,0-1.7,1.8v0a1.75,1.75,0,0,0,1.72,1.81A1.72,1.72,0,0,0,91.64,74.83Z"/><path class="cls-3" d="M93.39,70.56h.7v6.57h-.7Z"/><path class="cls-3" d="M95.49,70.56h.69v6.57h-.69Z"/><path class="cls-3" d="M97.24,74.82v0a2.29,2.29,0,0,1,2.23-2.42,2.21,2.21,0,0,1,2.17,2.45,1.69,1.69,0,0,1,0,.23H97.94a1.62,1.62,0,0,0,1.64,1.57A1.91,1.91,0,0,0,101,76l.44.38a2.39,2.39,0,0,1-1.92.88A2.31,2.31,0,0,1,97.24,74.82Zm3.7-.27A1.54,1.54,0,0,0,99.45,73a1.61,1.61,0,0,0-1.51,1.59Z"/><path class="cls-3" d="M102.31,74.82v0a2.29,2.29,0,0,1,2.23-2.42,2.08,2.08,0,0,1,1.78,1V70.56H107v6.57h-.69v-.94a2.1,2.1,0,0,1-1.78,1A2.27,2.27,0,0,1,102.31,74.82Zm4,0v0A1.72,1.72,0,0,0,104.66,73,1.64,1.64,0,0,0,103,74.79v0a1.68,1.68,0,0,0,1.64,1.8A1.73,1.73,0,0,0,106.34,74.81Z"/><path class="cls-3" d="M24.05,87.21l.44-.52a3,3,0,0,0,2.16.89c.84,0,1.4-.45,1.4-1.07v0c0-.58-.31-.92-1.64-1.2s-2.11-.78-2.11-1.81v0a1.86,1.86,0,0,1,2.07-1.72,3.29,3.29,0,0,1,2.21.77l-.41.55a2.76,2.76,0,0,0-1.82-.68c-.82,0-1.34.45-1.34,1v0c0,.6.32.93,1.71,1.23s2.05.82,2.05,1.78v0c0,1.08-.9,1.78-2.15,1.78A3.64,3.64,0,0,1,24.05,87.21Z"/><path class="cls-3" d="M30,81.83h.72L33,85.27l2.29-3.44H36v6.3h-.71V83L33,86.4h0L30.64,83v5.1H30Z"/><path class="cls-3" d="M39.82,81.78h.67l2.87,6.35H42.6l-.74-1.67H38.43l-.75,1.67H37Zm1.76,4-1.43-3.21-1.44,3.21Z"/><path class="cls-3" d="M44.33,81.83H47a2.44,2.44,0,0,1,1.79.63,1.72,1.72,0,0,1,.49,1.24v0a1.83,1.83,0,0,1-1.71,1.83l1.93,2.58h-.87l-1.83-2.45H45v2.45h-.71ZM47,85c.94,0,1.62-.48,1.62-1.29v0c0-.78-.6-1.24-1.61-1.24H45V85Z"/><path class="cls-3" d="M52.17,82.49H50.06v-.66H55v.66H52.89v5.64h-.72Z"/><path class="cls-3" d="M58.22,85v0a3.18,3.18,0,0,1,3.19-3.26,3.28,3.28,0,0,1,2.45,1l-.48.52a2.76,2.76,0,0,0-2-.86A2.46,2.46,0,0,0,59,85v0a2.48,2.48,0,0,0,2.44,2.6,2.71,2.71,0,0,0,2-.91l.47.46a3.28,3.28,0,0,1-2.52,1.11A3.14,3.14,0,0,1,58.22,85Z"/><path class="cls-3" d="M64.75,81.56h.7v2.73A1.74,1.74,0,0,1,67,83.38a1.69,1.69,0,0,1,1.78,1.86v2.89h-.69V85.41A1.24,1.24,0,0,0,66.84,84a1.36,1.36,0,0,0-1.39,1.45v2.67h-.7Z"/><path class="cls-3" d="M69.67,86.78v0c0-1,.82-1.5,2-1.5a4.88,4.88,0,0,1,1.43.2v-.17c0-.83-.52-1.27-1.39-1.27a3.19,3.19,0,0,0-1.41.35l-.21-.57a3.9,3.9,0,0,1,1.69-.39,2,2,0,0,1,1.51.52,1.84,1.84,0,0,1,.47,1.36v2.84H73.1v-.7a2.07,2.07,0,0,1-1.69.8A1.58,1.58,0,0,1,69.67,86.78Zm3.44-.36V86a4.91,4.91,0,0,0-1.37-.2c-.88,0-1.36.38-1.36,1v0c0,.59.54.93,1.17.93A1.41,1.41,0,0,0,73.11,86.42Z"/><path class="cls-3" d="M75,83.48h.69v1.21a2,2,0,0,1,1.9-1.3v.75h0a1.88,1.88,0,0,0-1.85,2.14v1.85H75Z"/><path class="cls-3" d="M78.1,88.94l.31-.54a3,3,0,0,0,1.8.59,1.53,1.53,0,0,0,1.69-1.65v-.55a2.22,2.22,0,0,1-1.83,1,2.15,2.15,0,0,1-2.19-2.18v0a2.16,2.16,0,0,1,2.19-2.19,2.2,2.2,0,0,1,1.82.93v-.83h.69v3.84A2.24,2.24,0,0,1,82,89a2.49,2.49,0,0,1-1.78.62A3.66,3.66,0,0,1,78.1,88.94Zm3.82-3.36v0A1.63,1.63,0,0,0,80.21,84a1.54,1.54,0,0,0-1.62,1.56v0a1.58,1.58,0,0,0,1.62,1.59A1.64,1.64,0,0,0,81.92,85.58Z"/><path class="cls-3" d="M83.88,81.69h.79v.77h-.79Zm0,1.79h.69v4.65h-.69Z"/><path class="cls-3" d="M86,83.48h.69v.81a1.74,1.74,0,0,1,1.59-.91A1.69,1.69,0,0,1,90,85.24v2.89h-.69V85.41A1.24,1.24,0,0,0,88,84a1.36,1.36,0,0,0-1.39,1.45v2.67H86Z"/><path class="cls-3" d="M91.18,88.94l.31-.54a3,3,0,0,0,1.79.59A1.52,1.52,0,0,0,95,87.34v-.55a2.19,2.19,0,0,1-1.82,1A2.15,2.15,0,0,1,91,85.59v0a2.16,2.16,0,0,1,2.19-2.19,2.2,2.2,0,0,1,1.82.93v-.83h.69v3.84a2.25,2.25,0,0,1-.6,1.65,2.45,2.45,0,0,1-1.77.62A3.66,3.66,0,0,1,91.18,88.94ZM95,85.58v0A1.63,1.63,0,0,0,93.28,84a1.54,1.54,0,0,0-1.61,1.56v0a1.58,1.58,0,0,0,1.61,1.59A1.64,1.64,0,0,0,95,85.58Z"/><g class="cls-4"><path class="cls-3" d="M58.1,21.67a7.26,7.26,0,0,0-.18-1.77,6.76,6.76,0,0,0-1.48-3,6.92,6.92,0,0,0-5.34-2.05.59.59,0,0,1-.6-.61.6.6,0,0,1,.61-.6,8.07,8.07,0,0,1,6.27,2.48,7.8,7.8,0,0,1,1.73,3.58,7.15,7.15,0,0,1,.19,2.12.61.61,0,0,1-.67.54.67.67,0,0,1-.36-.17A.65.65,0,0,1,58.1,21.67Zm-1.89.6a.59.59,0,0,0,.39.17.6.6,0,0,0,.64-.57,6.16,6.16,0,0,0-1.47-4.35A6.28,6.28,0,0,0,51,15.7a.61.61,0,0,0,0,1.21,5.16,5.16,0,0,1,3.86,1.43A5.05,5.05,0,0,1,56,21.8.62.62,0,0,0,56.21,22.27Zm-2.13.19a.5.5,0,0,0,.28.16.61.61,0,0,0,.73-.44,3.88,3.88,0,0,0-.78-3,4,4,0,0,0-3.47-1.32.61.61,0,0,0,0,1.22,2.84,2.84,0,0,1,2.48.87,2.71,2.71,0,0,1,.54,2A.6.6,0,0,0,54.08,22.46Z"/><path class="cls-5" d="M52.61,31.22c0,.67,0,1.34,0,2s-.05,1.39-.1,2.08c0,.32,0,.64,0,1,0,.73-.1,1.46-.2,2.19s-.19,1.36-.32,2a1.7,1.7,0,0,1-.84,1.2,5,5,0,0,1-1.65.59c-.5.1-1,.17-1.51.23a8,8,0,0,1-1.83,0A14.23,14.23,0,0,1,44,42.14a3.13,3.13,0,0,1-1.46-.8,1.33,1.33,0,0,1-.37-.7,28.33,28.33,0,0,1-.44-2.93q-.08-.85-.12-1.71c0-.88-.09-1.75-.12-2.62-.06-1.34,0-2.69,0-4,0-.59.05-1.17.07-1.76s.07-1.43.13-2.14a27.22,27.22,0,0,1,.52-3.7,1.6,1.6,0,0,1,.79-1,4.61,4.61,0,0,1,1.47-.56,15,15,0,0,1,1.74-.28c.26,0,.52,0,.78,0a10.34,10.34,0,0,1,2.29.22,5.84,5.84,0,0,1,1.58.51,2.1,2.1,0,0,1,.87.75,1.69,1.69,0,0,1,.13.31c.16.74.28,1.48.37,2.23s.13,1.22.19,1.83c0,.3,0,.6,0,.9s0,.8.06,1.2C52.62,29,52.61,30.1,52.61,31.22Z"/><path class="cls-6" d="M50.25,36.51c0,.84,0,1.68,0,2.52a1.27,1.27,0,0,1-.5,1,3.14,3.14,0,0,1-1.59.65,7.25,7.25,0,0,1-1.47.07,5.36,5.36,0,0,1-1.12-.14,2.85,2.85,0,0,1-1.38-.73,1.23,1.23,0,0,1-.35-.87V34a1.37,1.37,0,0,1,.7-1.19,3.58,3.58,0,0,1,1.22-.48,10,10,0,0,1,1.81-.07,3.58,3.58,0,0,1,1.42.26,2.07,2.07,0,0,1,1.09.8,1.07,1.07,0,0,1,.16.55v2.62Zm-5.2-2.23s0,.11,0,.16v1.32c0,.9,0,1.81,0,2.72a.6.6,0,0,0,.24.51l.24.15a2.73,2.73,0,0,0,1,.25,6.89,6.89,0,0,0,1.36,0,2.49,2.49,0,0,0,.91-.29.62.62,0,0,0,.34-.59c0-.84,0-1.67,0-2.51,0,0,0-.11,0-.17V34.38a.4.4,0,0,0,0-.22,1.34,1.34,0,0,0-.37-.34,2.63,2.63,0,0,0-.72-.23,5.63,5.63,0,0,0-1.64,0,2.23,2.23,0,0,0-.93.28A.6.6,0,0,0,45.05,34.28Z"/><path class="cls-6" d="M50.25,26c0,.84,0,1.68,0,2.52a1.27,1.27,0,0,1-.5,1,3.14,3.14,0,0,1-1.59.65,7.25,7.25,0,0,1-1.47.07,4.77,4.77,0,0,1-1.12-.14,2.92,2.92,0,0,1-1.38-.72,1.27,1.27,0,0,1-.35-.88v-5a1.37,1.37,0,0,1,.7-1.2,3.58,3.58,0,0,1,1.22-.48,10,10,0,0,1,1.81-.07A3.77,3.77,0,0,1,49,22a2.13,2.13,0,0,1,1.09.8,1.1,1.1,0,0,1,.16.56V26Zm-5.2-2.23c0,.05,0,.11,0,.16v1.32c0,.91,0,1.82,0,2.73a.58.58,0,0,0,.24.5l.24.15a2.55,2.55,0,0,0,1,.25,6.89,6.89,0,0,0,1.36,0,2.31,2.31,0,0,0,.91-.29.62.62,0,0,0,.34-.59c0-.83,0-1.67,0-2.5,0-.06,0-.12,0-.18V23.83a.35.35,0,0,0,0-.21,1.09,1.09,0,0,0-.37-.34A2.65,2.65,0,0,0,48,23a6,6,0,0,0-1.64,0,2.23,2.23,0,0,0-.93.28A.6.6,0,0,0,45.05,23.73Z"/><path class="cls-7" d="M51.33,64.22l4-6.58s-2-2-1.1-6.22A19.67,19.67,0,0,0,54,45.79s-.68-2.11.85-2.85c0,0,2.26-.74,2.26,1.85"/><path class="cls-7" d="M60.67,66.92l3.17-5.45a6.93,6.93,0,0,0,6-4.67"/><path class="cls-3" d="M71.49,55.23c0,1-.4,1.83-1.4,1.83H58.61a1.92,1.92,0,0,1-1.92-1.83V30.47a1.93,1.93,0,0,1,1.92-1.84H70.09c1,0,1.4.83,1.4,1.84Zm-.93-22.67H57.85V53.13H70.56ZM64.35,53.9a1.1,1.1,0,1,0,0,2.2,1.1,1.1,0,1,0,0-2.2ZM67.1,30.78a.3.3,0,0,0-.31-.3h-5.4a.29.29,0,0,0-.3.3v.32a.29.29,0,0,0,.3.3h5.4a.3.3,0,0,0,.31-.3Zm3.46,1.78H57.85V53.13H70.56Z"/><rect class="cls-8" x="57.85" y="32.56" width="12.71" height="20.57"/><path class="cls-1" d="M75.43,58.37l.19,0-.2-.06Z"/><path class="cls-8" d="M78.92,64.09l-3.3-5.69-.19,0Z"/><path class="cls-8" d="M78.83,63.92,75.62,58.4l-.2-.06v0A7.43,7.43,0,0,1,74.16,58h0a8.22,8.22,0,0,1-3.32-2.52l-2.57-3.58a3,3,0,0,1,.77-4l-3.89-8.33c-.74-1.48.47-2,.47-2,1.69-.65,2.11.61,2.11.61l1.53,3h0l1-.54s1.74-1,2.53.63l1-.54a1.53,1.53,0,0,1,2.42.58l1-.58a1.63,1.63,0,0,1,1.92,1.16l3.51,6.95a8.61,8.61,0,0,1,.47,5.53l4.09,7.58-7.94,3.18Z"/><path class="cls-7" d="M87.27,61.9l-4.09-7.58a8.32,8.32,0,0,0-.47-5.53L79.2,41.84s-.65-1.47-1.92-1.16"/><path class="cls-7" d="M73.81,40.68a1.46,1.46,0,0,1,2.42.58L77.7,44"/><path class="cls-7" d="M70.17,40.68s1.74-1,2.53.63l1.74,3.48"/><path class="cls-7" d="M71.49,45.89l-3.9-7.69s-.42-1.26-2.11-.6c0,0-1.21.55-.47,2l5.16,11.07"/><path class="cls-7" d="M78.79,64.17l-3.3-5.69a8,8,0,0,1-4.79-3l-2.57-3.58a3.05,3.05,0,0,1,.76-4"/></g></svg>