<svg id="Layer_1" data-name="Layer 1" xmlns="http://www.w3.org/2000/svg" xmlns:xlink="http://www.w3.org/1999/xlink" viewBox="0 0 90 100"><defs><style>.cls-1{fill:none;}.cls-2{fill:#fff;stroke:#74af27;stroke-miterlimit:10;}.cls-3{fill:#74af27;}.cls-4{clip-path:url(#clip-path);}.cls-5{fill:#666;}</style><clipPath id="clip-path"><circle class="cls-1" cx="45" cy="37.59" r="28.35"/></clipPath></defs><title>EV-Systems_Operations-PushMarketing</title><circle class="cls-2" cx="45" cy="37.74" r="28.35"/><path class="cls-3" d="M35.51,70.68h2.35c1.43,0,2.36.76,2.36,2v0c0,1.36-1.13,2.06-2.47,2.06H36.22V77h-.71Zm2.26,3.43c1,0,1.73-.55,1.73-1.38v0c0-.9-.67-1.37-1.69-1.37H36.22v2.77Z"/><path class="cls-3" d="M41.06,75.22V72.33h.69v2.72A1.25,1.25,0,0,0,43,76.46,1.37,1.37,0,0,0,44.43,75V72.33h.69V77h-.69v-.81a1.76,1.76,0,0,1-1.59.9A1.7,1.7,0,0,1,41.06,75.22Z"/><path class="cls-3" d="M46,76.39l.35-.49a2.75,2.75,0,0,0,1.61.59c.56,0,1-.29,1-.74v0c0-.46-.55-.64-1.16-.81s-1.54-.46-1.54-1.32v0a1.41,1.41,0,0,1,1.59-1.33,3.24,3.24,0,0,1,1.67.51l-.31.53a2.65,2.65,0,0,0-1.38-.45c-.55,0-.9.28-.9.67v0c0,.44.57.61,1.2.8s1.49.5,1.49,1.33v0a1.47,1.47,0,0,1-1.66,1.4A3.22,3.22,0,0,1,46,76.39Z"/><path class="cls-3" d="M50.62,70.41h.69v2.73a1.77,1.77,0,0,1,1.59-.91,1.71,1.71,0,0,1,1.79,1.87V77H54V74.27a1.24,1.24,0,0,0-1.28-1.41,1.37,1.37,0,0,0-1.4,1.46V77h-.69Z"/><path class="cls-3" d="M24.76,81.68h.72l2.3,3.44,2.3-3.44h.72V88h-.72V82.88l-2.29,3.38h0l-2.29-3.37V88h-.7Z"/><path class="cls-3" d="M31.84,86.63h0c0-1,.81-1.51,2-1.51a5.24,5.24,0,0,1,1.43.2v-.16c0-.84-.51-1.27-1.39-1.27a3.33,3.33,0,0,0-1.41.34l-.21-.56a3.79,3.79,0,0,1,1.69-.39,2.06,2.06,0,0,1,1.51.51,1.87,1.87,0,0,1,.47,1.36V88h-.66v-.71a2,2,0,0,1-1.68.8A1.56,1.56,0,0,1,31.84,86.63Zm3.43-.35v-.45a4.8,4.8,0,0,0-1.37-.2c-.87,0-1.36.38-1.36,1v0c0,.58.54.93,1.17.93A1.41,1.41,0,0,0,35.27,86.28Z"/><path class="cls-3" d="M37.13,83.33h.69v1.22a2,2,0,0,1,1.9-1.3V84h0a1.88,1.88,0,0,0-1.85,2.13V88h-.69Z"/><path class="cls-3" d="M40.5,81.41h.7V86l2.51-2.62h.86l-2,2,2,2.66h-.83l-1.67-2.17-.94,1V88h-.7Z"/><path class="cls-3" d="M44.84,85.67v0a2.3,2.3,0,0,1,2.24-2.42,2.22,2.22,0,0,1,2.17,2.46,1.77,1.77,0,0,1,0,.23h-3.7a1.63,1.63,0,0,0,1.64,1.57,1.92,1.92,0,0,0,1.47-.66l.43.39a2.4,2.4,0,0,1-1.91.87A2.32,2.32,0,0,1,44.84,85.67Zm3.7-.27a1.53,1.53,0,0,0-1.48-1.58,1.61,1.61,0,0,0-1.52,1.58Z"/><path class="cls-3" d="M50.43,86.75V83.94h-.65v-.61h.65v-1.4h.7v1.4H52.6v.61H51.13v2.72a.69.69,0,0,0,.78.78,1.42,1.42,0,0,0,.67-.17v.6a1.79,1.79,0,0,1-.83.2A1.19,1.19,0,0,1,50.43,86.75Z"/><path class="cls-3" d="M53.57,81.55h.79v.76h-.79Zm0,1.78h.69V88h-.69Z"/><path class="cls-3" d="M55.65,83.33h.69v.81a1.79,1.79,0,0,1,1.6-.91,1.7,1.7,0,0,1,1.78,1.87V88H59V85.27a1.24,1.24,0,0,0-1.29-1.41,1.38,1.38,0,0,0-1.4,1.46V88h-.69Z"/><path class="cls-3" d="M60.87,88.8l.32-.54a3,3,0,0,0,1.79.59,1.53,1.53,0,0,0,1.69-1.66v-.55a2.2,2.2,0,0,1-1.83,1,2.15,2.15,0,0,1-2.18-2.18v0a2.2,2.2,0,0,1,4-1.26v-.84h.69v3.85a2.2,2.2,0,0,1-.59,1.64,2.4,2.4,0,0,1-1.77.62A3.66,3.66,0,0,1,60.87,88.8Zm3.82-3.36v0A1.64,1.64,0,0,0,63,83.84a1.54,1.54,0,0,0-1.61,1.57v0A1.56,1.56,0,0,0,63,87,1.64,1.64,0,0,0,64.69,85.44Z"/><g class="cls-4"><path class="cls-3" d="M55,25.42h9.7a1.68,1.68,0,0,1,1.79,1.33,9.65,9.65,0,0,1,0,1.32V30c0,.44,0,.88,0,1.32v1.82c0,.4,0,.81,0,1.21,0,1,0,2.06,0,3.09,0,.8,0,1.6,0,2.4,0,.59,0,1.19,0,1.79a9.75,9.75,0,0,1,0,1.08A1.6,1.6,0,0,1,65.08,44c-.71,0-1.42,0-2.14.05H57.87c-.26,0-.36.08-.35.35,0,.69,0,1.39,0,2.09a.69.69,0,0,0,.54.74,1.88,1.88,0,0,0,.57.09h2.62c.44,0,.67.21.68.57a.53.53,0,0,1-.46.56,3.88,3.88,0,0,1-.68,0H48.7a1.72,1.72,0,0,1-.39,0,.57.57,0,0,1-.45-.54.52.52,0,0,1,.41-.55,1.47,1.47,0,0,1,.36,0h2.22a2,2,0,0,0,.48,0c.55-.11.82-.29.8-1s0-1.3,0-2c0-.24-.08-.31-.3-.31H45.26a1.73,1.73,0,0,1-1.91-1.89V27.31a1.7,1.7,0,0,1,1.15-1.79,3.11,3.11,0,0,1,.86-.1Zm0,1.17H45.18c-.52,0-.66.14-.66.68v15c0,.47.16.62.61.62H64.65c.56,0,.69-.14.69-.71v-15c0-.5-.15-.65-.64-.65Zm1.47,20.75c0-.64,0-1.25-.06-1.85q0-.56,0-1.11c0-.21-.06-.3-.28-.3-.82,0-1.64,0-2.46,0-.25,0-.31.08-.32.32a12.55,12.55,0,0,1-.14,2.93Z"/><path class="cls-3" d="M54.93,27.84h8.86c.42,0,.47.07.46.5,0,.6,0,1.2,0,1.79s0,.9,0,1.35,0,1.19,0,1.79c0,.4,0,.81,0,1.21v2c0,.49,0,1,0,1.47s0,1,0,1.48-.09.44-.44.44H46.13c-.43,0-.56-.14-.55-.58,0-1,0-2.09,0-3.14,0-.81,0-1.63,0-2.44,0-.58,0-1.16,0-1.74s0-.9,0-1.34c0-.6,0-1.2,0-1.8,0-.26,0-.52,0-.79s.2-.24.37-.24h8.94Zm0,.59H46.48c-.26,0-.34.1-.32.34s0,.43,0,.64c0,1,0,1.91,0,2.87,0,.79,0,1.59,0,2.38v3c0,.42,0,.83,0,1.24s0,.4.38.4H63.31c.33,0,.38,0,.38-.38s0-.51,0-.77c0-1,0-2.09,0-3.13,0-.45,0-.9,0-1.34s0-1.11,0-1.66,0-.9,0-1.35c0-.65,0-1.3,0-2,0-.28-.11-.32-.36-.32Z"/><path class="cls-3" d="M56.76,32.34a.61.61,0,0,0-.43.18.64.64,0,0,0-.1.13h-.88a1.84,1.84,0,0,0-.29-.69l.62-.62.17,0a.61.61,0,1,0-.6-.61,1.1,1.1,0,0,0,0,.18l-.62.62a1.89,1.89,0,0,0-.7-.29v-.88a.71.71,0,0,0,.14-.1.61.61,0,0,0-.43-1,.61.61,0,0,0-.43.18.62.62,0,0,0,0,.86l.14.1v.88a1.84,1.84,0,0,0-.69.29l-.63-.62a.57.57,0,0,0,0-.18.61.61,0,1,0-.61.61l.17,0,.63.62a1.84,1.84,0,0,0-.29.69H51.1a.45.45,0,0,0-.11-.13.58.58,0,0,0-.42-.18.58.58,0,0,0-.43.18.59.59,0,0,0,0,.85.58.58,0,0,0,.43.18.58.58,0,0,0,.42-.18.49.49,0,0,0,.11-.14H52a1.82,1.82,0,0,0,.29.7l-.63.62-.17,0a.61.61,0,1,0,.61.61.57.57,0,0,0,0-.18l.63-.62a1.84,1.84,0,0,0,.69.29v.88l-.14.1a.62.62,0,0,0,0,.86.61.61,0,0,0,.43.18.61.61,0,0,0,.43-1,.71.71,0,0,0-.14-.1v-.88a1.89,1.89,0,0,0,.7-.29l.62.62a1.1,1.1,0,0,0,0,.18.61.61,0,1,0,.6-.61l-.17,0-.62-.62a1.82,1.82,0,0,0,.29-.7h.88a.71.71,0,0,0,.1.14.61.61,0,0,0,.43.18.6.6,0,0,0,.43-.18.59.59,0,0,0,0-.85A.6.6,0,0,0,56.76,32.34Zm-.62-1.59A.3.3,0,0,1,56,31l-.11,0a.29.29,0,0,1-.28-.29.36.36,0,0,1,0-.1.27.27,0,0,1,.26-.18A.29.29,0,0,1,56.14,30.75ZM51.37,31a.29.29,0,1,1,.37-.37.36.36,0,0,1,0,.1.29.29,0,0,1-.29.29Zm-.18,4.12a.28.28,0,0,1,.18-.27l.1,0a.29.29,0,0,1,.29.29.36.36,0,0,1,0,.1.29.29,0,0,1-.55-.1ZM56,34.87a.3.3,0,0,1,.18.27.29.29,0,0,1-.29.28.27.27,0,0,1-.26-.18.36.36,0,0,1,0-.1.29.29,0,0,1,.28-.29Zm1-1.72a.28.28,0,0,1-.2.08l-.11,0-.09-.06a.3.3,0,0,1,0-.41l.09-.06.11,0a.28.28,0,0,1,.2.08.28.28,0,0,1,.09.2A.29.29,0,0,1,57,33.15Zm-2.11-.21a1.36,1.36,0,0,1,0,.29,1.62,1.62,0,0,1-.13.33,1.37,1.37,0,0,1-.42.41,1,1,0,0,1-.32.13,1.35,1.35,0,0,1-.29,0,1.45,1.45,0,0,1-.29,0,1.27,1.27,0,0,1-.32-.13,1.24,1.24,0,0,1-.41-.41,1.2,1.2,0,0,1-.13-.33,1.35,1.35,0,0,1,0-.29,1.45,1.45,0,0,1,0-.29,1.27,1.27,0,0,1,.13-.32,1.24,1.24,0,0,1,.41-.41,1.27,1.27,0,0,1,.32-.13,1.45,1.45,0,0,1,.29,0,1.35,1.35,0,0,1,.29,0,1,1,0,0,1,.32.13,1.37,1.37,0,0,1,.42.41,1.79,1.79,0,0,1,.13.32A1.43,1.43,0,0,1,54.85,32.94ZM54,29.85a.23.23,0,0,1,0,.11.24.24,0,0,1-.06.09.28.28,0,0,1-.2.08.32.32,0,0,1-.2-.08L53.4,30a.3.3,0,0,1,.06-.31.28.28,0,0,1,.2-.09.31.31,0,0,1,.29.29Zm-3.18,3.3-.09.06-.11,0a.27.27,0,0,1-.29-.29.32.32,0,0,1,.08-.2.32.32,0,0,1,.21-.08l.11,0,.09.06a.32.32,0,0,1,.08.2A.32.32,0,0,1,50.77,33.15Zm2.69,3.09a.3.3,0,0,1-.06-.31l.06-.09a.32.32,0,0,1,.2-.08.28.28,0,0,1,.2.08.24.24,0,0,1,.06.09A.2.2,0,0,1,54,36a.31.31,0,0,1-.29.29A.28.28,0,0,1,53.46,36.24Z"/><path class="cls-5" d="M55.83,36a2.28,2.28,0,0,1,2-2.4,2.23,2.23,0,0,1,2.48,1.88c0,.12,0,.24,0,.36s0,.11-.1.09l-.31,0a.12.12,0,0,1-.11-.12,3.08,3.08,0,0,0-.14-.6,1.69,1.69,0,0,0-1.53-1.05,1.72,1.72,0,0,0-1.73,1.41,1.71,1.71,0,0,0,1.6,2,.11.11,0,0,1,.1.1c0,.1,0,.21,0,.31s0,.11-.1.11a2.09,2.09,0,0,1-1.23-.39A2.15,2.15,0,0,1,55.83,36Z"/><path class="cls-5" d="M59.73,37.25l.38.37.38.39s.06.07,0,.12l-.15.18c-.05.07-.08.07-.14,0l-.69-.68-.09-.09-.52.87h0l-1-2.59,0,0,2.59.9v0Z"/><path class="cls-5" d="M59.34,35.8a3.35,3.35,0,0,1-.37-.09s-.06-.08-.08-.13a.87.87,0,0,0-.64-.58.89.89,0,0,0-1,.61.87.87,0,0,0,.53,1.06.28.28,0,0,1,.21.26c0,.24,0,.24-.19.19a1.29,1.29,0,0,1,.1-2.54,1.28,1.28,0,0,1,1.48,1.15Z"/><path class="cls-3" d="M32,31.26a2.63,2.63,0,1,1,.73.29l0,0,3.61,1.56a.32.32,0,0,0,.14,0l2.29-.51a1.69,1.69,0,0,1,1,0,1.43,1.43,0,0,1,1,1.19v0h0V26.46c0-.11,0-.11.12-.11h.76c.06,0,.09,0,.08.07V48.23c0,.15,0,.13-.14.13h-.74c-.06,0-.08,0-.08-.08a.21.21,0,0,0,0-.08V34.16h0a4.83,4.83,0,0,1-.16.5,1.38,1.38,0,0,1-.67.68,1,1,0,0,1-.18.07L37,36.31a2.28,2.28,0,0,1-1.16,0l-2.33-.41a.12.12,0,0,0-.15.07l-1.8,2.75-.05.08.07,0c.59.31,1.18.6,1.76.92a2.88,2.88,0,0,1,.89.7,1.63,1.63,0,0,1,.36.94c0,.52,0,1,0,1.56v.13c0,1,0,1.9,0,2.86,0,.3,0,.61,0,.91a1.55,1.55,0,0,1-.34.84,1.65,1.65,0,0,1-1.36.64,1.68,1.68,0,0,1-1.62-1.49,2.94,2.94,0,0,1,0-.42V42.57a.1.1,0,0,0-.09-.12l-1.77-.63c-.08,0-.1,0-.13.06l-1.12,2.85a2.22,2.22,0,0,1-.68.92c-.25.2-.53.37-.8.56-.92.61-1.85,1.22-2.76,1.85a1.71,1.71,0,0,1-2.16-.22c-.05-.05-.09-.12-.18-.12s0,0,0,0a1.93,1.93,0,0,1-.33-1,1.71,1.71,0,0,1,.75-1.46l2.74-1.9a.22.22,0,0,0,.09-.13c.28-1.2.57-2.39.85-3.59a.28.28,0,0,0,0-.2,2.07,2.07,0,0,1,0-1.47,7.19,7.19,0,0,1,.68-1.25c.82-1.27,1.63-2.55,2.46-3.82a4,4,0,0,1,1.42-1.39A2.34,2.34,0,0,1,32,31.25Zm-1.95,7.92.05-.07,1-1.52,1.74-2.66a.11.11,0,0,1,.13-.06l3,.54a1.3,1.3,0,0,0,.65,0l2.62-.82a1.16,1.16,0,0,0,.28-.1.5.5,0,0,0,.21-.62.47.47,0,0,0-.55-.32l-.33.07-2.46.54a.2.2,0,0,1-.13,0l-1.24-.54-3.18-1.36a1.31,1.31,0,0,0-1.3.1,3.44,3.44,0,0,0-1.08,1.1c-.8,1.23-1.58,2.46-2.37,3.69a7.59,7.59,0,0,0-.59,1,1.28,1.28,0,0,0-.06,1,1.63,1.63,0,0,0,.86.91c.29.13.59.23.89.33l3.82,1.35a.12.12,0,0,1,.1.14c0,1.52,0,3,0,4.56a.57.57,0,0,1,0,.13.72.72,0,1,0,1.43.14c0-.48,0-1,0-1.43V43.57c0-.67,0-1.34,0-2a.69.69,0,0,0-.24-.56,3.63,3.63,0,0,0-.55-.39c-.72-.39-1.46-.77-2.19-1.15Zm-3.73,1.38a.56.56,0,0,0,0,.12c-.24,1-.48,2.07-.73,3.1a.21.21,0,0,1-.08.11l-3,2.11a.77.77,0,1,0,.86,1.27L26.68,45a1.2,1.2,0,0,0,.5-.57c.4-1,.77-1.93,1.16-2.9,0,0,0,0,0-.07l-.07,0-.67-.24a3.76,3.76,0,0,1-.94-.42Zm7-13.26A1.68,1.68,0,1,0,35.05,29,1.68,1.68,0,0,0,33.37,27.3Z"/></g></svg>