<svg id="Layer_1" data-name="Layer 1" xmlns="http://www.w3.org/2000/svg" xmlns:xlink="http://www.w3.org/1999/xlink" viewBox="0 0 90 100"><defs><style>.cls-1,.cls-4,.cls-6{fill:none;}.cls-2,.cls-5{fill:#fff;}.cls-2,.cls-4,.cls-5,.cls-6{stroke:#74af27;}.cls-2,.cls-4{stroke-miterlimit:10;}.cls-3{clip-path:url(#clip-path);}.cls-5,.cls-6{stroke-linecap:round;stroke-linejoin:round;}.cls-7{fill:#74af27;}</style><clipPath id="clip-path"><circle class="cls-1" cx="45" cy="37.74" r="27.89"/></clipPath></defs><title>EV-Systems_Operations-TokenOperated</title><circle class="cls-2" cx="45" cy="37.74" r="28.35"/><g class="cls-3"><path class="cls-4" d="M50.82,43.32s1.1,5.2-2.48,6.88a3.14,3.14,0,0,1-2.58,0,3.85,3.85,0,0,1-3.07,1.51,3,3,0,0,1-3.09-2.08,4.34,4.34,0,0,1-3.05,1.15,2.67,2.67,0,0,1-2.28-2.1"/><path class="cls-5" d="M48,42.49l.9,2.18c1.39,3.72,3.46,3.14,3.46,3.14,2.53-.49,2.29-4,2.29-4a42.3,42.3,0,0,0-1.9-7.74,13.9,13.9,0,0,0-7.74-6c-3.06-.94-10.94-3.69-10.94-3.69-3.09-1-4.4.18-4.4.18-1.47.83-13.37,10.15-13.37,10.15l-.55,14,14-1A9.27,9.27,0,0,0,36,47.41l3-3,4-1.81s5-2.07,4-6.31c0,0-1.26-2.62-5-.91l-10.54,5"/><path class="cls-6" d="M34.49,34.93a18.26,18.26,0,0,0,6.78.77s1.23,2.77,5.44,3.64A16.26,16.26,0,0,0,48,42.49"/><line class="cls-5" x1="63.61" y1="28.38" x2="63.61" y2="46.08"/><circle class="cls-5" cx="50.98" cy="37.3" r="6.01"/><path class="cls-5" d="M15.79,50.78l14-1A9.27,9.27,0,0,0,36,47.41l3-3,4-1.81s5.9-2.35,4-6.31c0,0-1.26-2.62-5-.91l-10.54,5"/><line class="cls-6" x1="50.4" y1="31.31" x2="51.56" y2="43.29"/><line class="cls-4" x1="45.76" y1="50.2" x2="42.96" y2="42.59"/><line class="cls-4" x1="39.6" y1="49.63" x2="38.22" y2="45.18"/></g><path class="cls-7" d="M22.06,71.34H19.94v-.66h4.95v.66H22.78V77h-.72Z"/><path class="cls-7" d="M24.4,74.68v0a2.43,2.43,0,0,1,4.86,0h0a2.42,2.42,0,0,1-2.44,2.43A2.38,2.38,0,0,1,24.4,74.68Zm4.14,0v0a1.76,1.76,0,0,0-1.72-1.82,1.73,1.73,0,0,0-1.71,1.81h0a1.75,1.75,0,0,0,1.72,1.81A1.72,1.72,0,0,0,28.54,74.68Z"/><path class="cls-7" d="M30.24,70.41h.69V75l2.51-2.62h.86l-1.95,2,2,2.66h-.83l-1.67-2.17-.94,1V77h-.69Z"/><path class="cls-7" d="M34.57,74.67v0a2.3,2.3,0,0,1,2.24-2.42A2.22,2.22,0,0,1,39,74.69a1.77,1.77,0,0,1,0,.23H35.28a1.63,1.63,0,0,0,1.63,1.57,1.92,1.92,0,0,0,1.47-.66l.43.39a2.38,2.38,0,0,1-1.91.87A2.32,2.32,0,0,1,34.57,74.67Zm3.7-.27a1.53,1.53,0,0,0-1.48-1.58,1.6,1.6,0,0,0-1.51,1.58Z"/><path class="cls-7" d="M39.92,72.33h.69v.81a1.79,1.79,0,0,1,1.6-.91A1.7,1.7,0,0,1,44,74.1V77H43.3V74.27A1.24,1.24,0,0,0,42,72.86a1.38,1.38,0,0,0-1.4,1.46V77h-.69Z"/><path class="cls-7" d="M47.74,70.68H50.1c1.42,0,2.36.76,2.36,2v0c0,1.36-1.14,2.06-2.48,2.06H48.45V77h-.71ZM50,74.11c1,0,1.73-.55,1.73-1.38v0c0-.9-.68-1.37-1.7-1.37H48.45v2.77Z"/><path class="cls-7" d="M55.18,70.64h.67L58.72,77H58l-.74-1.67H53.79L53,77h-.73Zm1.76,4-1.43-3.2-1.44,3.2Z"/><path class="cls-7" d="M60.67,74.49l-2.62-3.81h.87L61,73.83l2.15-3.15H64l-2.62,3.8V77h-.72Z"/><path class="cls-7" d="M64.06,73.85v0a3.16,3.16,0,0,1,3.16-3.25,3.33,3.33,0,0,1,2.35.83l-.46.54a2.71,2.71,0,0,0-1.92-.72,2.46,2.46,0,0,0-2.39,2.59h0a2.44,2.44,0,0,0,2.49,2.63,3,3,0,0,0,1.82-.63V74.26H67.19v-.64h2.6v2.51a3.82,3.82,0,0,1-2.53,1A3.09,3.09,0,0,1,64.06,73.85Z"/><path class="cls-7" d="M25.38,84.85v0a3.19,3.19,0,0,1,3.23-3.25,3.15,3.15,0,0,1,3.2,3.24h0a3.22,3.22,0,1,1-6.43,0Zm5.69,0v0a2.48,2.48,0,1,0-4.95,0h0a2.51,2.51,0,0,0,2.49,2.61A2.48,2.48,0,0,0,31.07,84.85Z"/><path class="cls-7" d="M32.93,83.33h.69v.94a2.1,2.1,0,0,1,1.78-1,2.28,2.28,0,0,1,2.23,2.42h0a2.28,2.28,0,0,1-2.23,2.42,2.08,2.08,0,0,1-1.78-1v2.34h-.69Zm4,2.34v0a1.68,1.68,0,0,0-1.63-1.8,1.74,1.74,0,0,0-1.69,1.8h0a1.73,1.73,0,0,0,1.69,1.8A1.63,1.63,0,0,0,36.91,85.67Z"/><path class="cls-7" d="M38.34,85.67v0a2.3,2.3,0,0,1,2.24-2.42,2.22,2.22,0,0,1,2.17,2.46,1.77,1.77,0,0,1,0,.23H39.05a1.63,1.63,0,0,0,1.64,1.57,1.92,1.92,0,0,0,1.46-.66l.43.39a2.38,2.38,0,0,1-1.91.87A2.32,2.32,0,0,1,38.34,85.67ZM42,85.4a1.53,1.53,0,0,0-1.48-1.58,1.6,1.6,0,0,0-1.51,1.58Z"/><path class="cls-7" d="M43.69,83.33h.69v1.22a2,2,0,0,1,1.9-1.3V84h-.05a1.88,1.88,0,0,0-1.85,2.13V88h-.69Z"/><path class="cls-7" d="M46.49,86.64v0c0-1,.81-1.51,2-1.51a5.18,5.18,0,0,1,1.43.2v-.16c0-.84-.51-1.27-1.39-1.27a3.37,3.37,0,0,0-1.41.34l-.21-.56a3.8,3.8,0,0,1,1.7-.39,2,2,0,0,1,1.5.51,1.88,1.88,0,0,1,.48,1.36V88h-.67v-.71a2,2,0,0,1-1.68.8A1.56,1.56,0,0,1,46.49,86.64Zm3.43-.36v-.45a4.8,4.8,0,0,0-1.37-.2c-.87,0-1.36.38-1.36,1v0c0,.58.54.93,1.17.93A1.41,1.41,0,0,0,49.92,86.28Z"/><path class="cls-7" d="M52,86.75V83.94h-.65v-.61H52v-1.4h.69v1.4h1.48v.61H52.67v2.72a.7.7,0,0,0,.79.78,1.42,1.42,0,0,0,.67-.17v.6a1.68,1.68,0,0,1-.84.2A1.19,1.19,0,0,1,52,86.75Z"/><path class="cls-7" d="M54.68,85.67v0a2.3,2.3,0,0,1,2.23-2.42,2.22,2.22,0,0,1,2.17,2.46,1.77,1.77,0,0,1,0,.23H55.38A1.63,1.63,0,0,0,57,87.49a1.92,1.92,0,0,0,1.47-.66l.43.39a2.42,2.42,0,0,1-1.92.87A2.31,2.31,0,0,1,54.68,85.67Zm3.7-.27a1.53,1.53,0,0,0-1.49-1.58,1.6,1.6,0,0,0-1.51,1.58Z"/><path class="cls-7" d="M59.76,85.67v0A2.28,2.28,0,0,1,62,83.23a2.11,2.11,0,0,1,1.78,1V81.41h.7V88h-.7v-.94a2.09,2.09,0,0,1-1.78,1A2.26,2.26,0,0,1,59.76,85.67Zm4,0h0a1.73,1.73,0,0,0-1.68-1.8,1.65,1.65,0,0,0-1.64,1.8h0a1.68,1.68,0,0,0,1.64,1.8A1.74,1.74,0,0,0,63.79,85.66Z"/></svg>