<svg id="Layer_1" data-name="Layer 1" xmlns="http://www.w3.org/2000/svg" xmlns:xlink="http://www.w3.org/1999/xlink" viewBox="0 0 90 100"><defs><style>.cls-1,.cls-5,.cls-7{fill:none;}.cls-2,.cls-6{fill:#fff;}.cls-2,.cls-5,.cls-6,.cls-7{stroke:#74af27;}.cls-2,.cls-5{stroke-miterlimit:10;}.cls-3{fill:#74af27;}.cls-4{clip-path:url(#clip-path);}.cls-6,.cls-7{stroke-linecap:round;stroke-linejoin:round;}</style><clipPath id="clip-path"><circle class="cls-1" cx="45" cy="37.74" r="27.89"/></clipPath></defs><title>EV-Systems_Operations-CardPayment</title><circle class="cls-2" cx="45" cy="37.74" r="28.35"/><path class="cls-3" d="M35.38,73.85v0a3.17,3.17,0,0,1,3.18-3.25,3.25,3.25,0,0,1,2.46,1l-.49.52a2.71,2.71,0,0,0-2-.87,2.48,2.48,0,0,0-2.44,2.59h0a2.5,2.5,0,0,0,2.44,2.61,2.77,2.77,0,0,0,2-.91l.47.46a3.31,3.31,0,0,1-2.53,1.1A3.14,3.14,0,0,1,35.38,73.85Z"/><path class="cls-3" d="M41.56,75.64v0c0-1,.81-1.51,2-1.51a5.24,5.24,0,0,1,1.43.2v-.16c0-.84-.51-1.27-1.39-1.27a3.33,3.33,0,0,0-1.41.34L42,72.66a3.79,3.79,0,0,1,1.69-.39,2.06,2.06,0,0,1,1.51.51,1.88,1.88,0,0,1,.48,1.36V77H45v-.71a2,2,0,0,1-1.68.8A1.56,1.56,0,0,1,41.56,75.64ZM45,75.28v-.45a4.8,4.8,0,0,0-1.37-.2c-.87,0-1.36.38-1.36,1v0c0,.58.54.93,1.17.93A1.41,1.41,0,0,0,45,75.28Z"/><path class="cls-3" d="M46.85,72.33h.69v1.22a2,2,0,0,1,1.9-1.3V73h0a1.88,1.88,0,0,0-1.85,2.13V77h-.69Z"/><path class="cls-3" d="M49.77,74.67v0A2.28,2.28,0,0,1,52,72.23a2.11,2.11,0,0,1,1.78,1V70.41h.7V77h-.7v-.94a2.09,2.09,0,0,1-1.78,1A2.26,2.26,0,0,1,49.77,74.67Zm4,0h0a1.73,1.73,0,0,0-1.68-1.8,1.65,1.65,0,0,0-1.64,1.8h0a1.68,1.68,0,0,0,1.64,1.8A1.74,1.74,0,0,0,53.8,74.66Z"/><path class="cls-3" d="M27,81.68h2.36c1.42,0,2.36.76,2.36,2v0c0,1.36-1.14,2.06-2.48,2.06H27.74V88H27Zm2.27,3.43c1,0,1.73-.55,1.73-1.38v0c0-.9-.68-1.37-1.69-1.37h-1.6v2.77Z"/><path class="cls-3" d="M32.22,86.64v0c0-1,.81-1.51,2-1.51a5.24,5.24,0,0,1,1.43.2v-.16c0-.84-.52-1.27-1.39-1.27a3.33,3.33,0,0,0-1.41.34l-.21-.56a3.76,3.76,0,0,1,1.69-.39,2.07,2.07,0,0,1,1.51.51,1.87,1.87,0,0,1,.47,1.36V88h-.66v-.71a2,2,0,0,1-1.69.8A1.56,1.56,0,0,1,32.22,86.64Zm3.43-.36v-.45a4.91,4.91,0,0,0-1.37-.2c-.88,0-1.36.38-1.36,1v0c0,.58.54.93,1.17.93A1.42,1.42,0,0,0,35.65,86.28Z"/><path class="cls-3" d="M40.81,83.33h.74L39.6,88.14c-.4,1-.85,1.31-1.55,1.31a2.13,2.13,0,0,1-1-.23l.23-.55a1.43,1.43,0,0,0,.73.17c.42,0,.68-.21,1-.87l-2.12-4.64h.77l1.69,3.88Z"/><path class="cls-3" d="M42.38,83.33h.69v.79a1.71,1.71,0,0,1,1.5-.89,1.59,1.59,0,0,1,1.5.93,1.86,1.86,0,0,1,1.64-.93,1.68,1.68,0,0,1,1.73,1.88V88h-.7V85.27c0-.9-.45-1.41-1.2-1.41a1.29,1.29,0,0,0-1.28,1.44V88h-.7V85.25c0-.87-.46-1.39-1.19-1.39a1.35,1.35,0,0,0-1.3,1.47V88h-.69Z"/><path class="cls-3" d="M50.38,85.67v0a2.29,2.29,0,0,1,2.23-2.42,2.22,2.22,0,0,1,2.17,2.46,1.77,1.77,0,0,1,0,.23H51.08a1.63,1.63,0,0,0,1.64,1.57,1.92,1.92,0,0,0,1.47-.66l.43.39a2.42,2.42,0,0,1-1.92.87A2.31,2.31,0,0,1,50.38,85.67Zm3.7-.27a1.53,1.53,0,0,0-1.49-1.58,1.6,1.6,0,0,0-1.51,1.58Z"/><path class="cls-3" d="M55.72,83.33h.7v.81A1.76,1.76,0,0,1,58,83.23a1.7,1.7,0,0,1,1.78,1.87V88H59.1V85.27a1.24,1.24,0,0,0-1.29-1.41,1.37,1.37,0,0,0-1.39,1.46V88h-.7Z"/><path class="cls-3" d="M61.24,86.75V83.94h-.65v-.61h.65v-1.4h.69v1.4h1.48v.61H61.93v2.72a.7.7,0,0,0,.79.78,1.42,1.42,0,0,0,.67-.17v.6a1.67,1.67,0,0,1-.83.2A1.19,1.19,0,0,1,61.24,86.75Z"/><g class="cls-4"><path class="cls-5" d="M48.87,47s1.1,5.2-2.47,6.88a3.16,3.16,0,0,1-2.59,0,3.82,3.82,0,0,1-3.06,1.51,3,3,0,0,1-3.09-2.08,4.36,4.36,0,0,1-3,1.15,2.67,2.67,0,0,1-2.29-2.1"/><path class="cls-6" d="M46.1,46.16l.9,2.18c1.38,3.72,3.45,3.14,3.45,3.14,2.53-.49,2.29-4,2.29-4a42.3,42.3,0,0,0-1.9-7.74,13.9,13.9,0,0,0-7.74-5.95c-3.06-.94-10.94-3.69-10.94-3.69-3.08-1-4.4.18-4.4.18-1.47.83-13.37,10.15-13.37,10.15l-.54,14,14-1a9.27,9.27,0,0,0,6.24-2.4l3-3,4-1.81s5-2.07,4-6.31c0,0-1.27-2.62-5-.91L29.48,44"/><path class="cls-7" d="M32.54,38.6a18.26,18.26,0,0,0,6.78.77s1.23,2.77,5.45,3.64a15.5,15.5,0,0,0,1.33,3.15"/><rect class="cls-6" x="31.37" y="27.55" width="30.74" height="20.38" rx="2.83"/><path class="cls-3" d="M34.5,39.88h.55a.21.21,0,0,1,.13,0,.17.17,0,0,1,0,.14v1.08a.17.17,0,0,1,0,.13.19.19,0,0,1-.13,0H34.5a.22.22,0,0,1-.14,0,.21.21,0,0,1,0-.13V40.07a.18.18,0,0,1,.06-.14A.19.19,0,0,1,34.5,39.88Zm0,1.27h.55V40.07H34.5Z"/><path class="cls-3" d="M35.84,39.88h.55a.17.17,0,0,1,.19.19v1.08a.21.21,0,0,1,0,.13.22.22,0,0,1-.14,0h-.55a.21.21,0,0,1-.13,0,.17.17,0,0,1-.05-.13V40.07a.17.17,0,0,1,.05-.14A.21.21,0,0,1,35.84,39.88Zm0,1.27h.55V40.07h-.55Z"/><path class="cls-3" d="M37.19,39.88h.55a.19.19,0,0,1,.13,0,.18.18,0,0,1,.06.14v1.08a.18.18,0,0,1-.06.13.19.19,0,0,1-.13,0h-.55a.19.19,0,0,1-.13,0,.18.18,0,0,1-.06-.13V40.07a.18.18,0,0,1,.06-.14A.19.19,0,0,1,37.19,39.88Zm0,1.27h.55V40.07h-.55Z"/><path class="cls-3" d="M38.54,39.88h.55a.21.21,0,0,1,.13,0,.22.22,0,0,1,.05.14v1.08a.17.17,0,0,1-.05.13.21.21,0,0,1-.13,0h-.55a.22.22,0,0,1-.14,0,.21.21,0,0,1,0-.13V40.07a.17.17,0,0,1,.19-.19Zm0,1.27h.55V40.07h-.55Z"/><path class="cls-3" d="M41.23,39.88h.55a.21.21,0,0,1,.13,0,.18.18,0,0,1,.06.14v1.08a.18.18,0,0,1-.06.13.19.19,0,0,1-.13,0h-.55a.19.19,0,0,1-.13,0,.18.18,0,0,1-.06-.13V40.07a.18.18,0,0,1,.06-.14A.19.19,0,0,1,41.23,39.88Zm0,1.27h.55V40.07h-.55Z"/><path class="cls-3" d="M42.57,39.88h.55a.17.17,0,0,1,.19.19v1.08a.21.21,0,0,1-.05.13.22.22,0,0,1-.14,0h-.55a.17.17,0,0,1-.18-.18V40.07a.22.22,0,0,1,0-.14A.21.21,0,0,1,42.57,39.88Zm0,1.27h.55V40.07h-.55Z"/><path class="cls-3" d="M43.92,39.88h.55a.19.19,0,0,1,.13,0,.18.18,0,0,1,.06.14v1.08a.18.18,0,0,1-.06.13.19.19,0,0,1-.13,0h-.55a.19.19,0,0,1-.13,0,.18.18,0,0,1-.06-.13V40.07a.18.18,0,0,1,.06-.14A.21.21,0,0,1,43.92,39.88Zm0,1.27h.55V40.07h-.55Z"/><path class="cls-3" d="M45.27,39.88h.55a.21.21,0,0,1,.13,0,.17.17,0,0,1,0,.14v1.08a.17.17,0,0,1,0,.13.19.19,0,0,1-.13,0h-.55a.22.22,0,0,1-.14,0,.21.21,0,0,1-.05-.13V40.07a.22.22,0,0,1,.05-.14A.24.24,0,0,1,45.27,39.88Zm0,1.27h.55V40.07h-.55Z"/><path class="cls-3" d="M48,39.88h.55a.19.19,0,0,1,.13,0,.18.18,0,0,1,.06.14v1.08a.18.18,0,0,1-.06.13.19.19,0,0,1-.13,0H48a.19.19,0,0,1-.13,0,.18.18,0,0,1-.06-.13V40.07a.18.18,0,0,1,.06-.14A.19.19,0,0,1,48,39.88Zm0,1.27h.55V40.07H48Z"/><path class="cls-3" d="M49.31,39.88h.55a.21.21,0,0,1,.13,0,.22.22,0,0,1,0,.14v1.08a.17.17,0,0,1-.18.18h-.55a.22.22,0,0,1-.14,0,.21.21,0,0,1-.05-.13V40.07a.17.17,0,0,1,.19-.19Zm0,1.27h.55V40.07h-.55Z"/><path class="cls-3" d="M50.65,39.88h.55a.19.19,0,0,1,.13,0,.18.18,0,0,1,.06.14v1.08a.21.21,0,0,1,0,.13.24.24,0,0,1-.14,0h-.55a.19.19,0,0,1-.13,0,.18.18,0,0,1-.06-.13V40.07a.18.18,0,0,1,.06-.14A.21.21,0,0,1,50.65,39.88Zm0,1.27h.55V40.07h-.55Z"/><path class="cls-3" d="M52,39.88h.55a.21.21,0,0,1,.13,0,.17.17,0,0,1,0,.14v1.08a.17.17,0,0,1,0,.13.19.19,0,0,1-.13,0H52a.22.22,0,0,1-.14,0,.21.21,0,0,1,0-.13V40.07a.18.18,0,0,1,.06-.14A.19.19,0,0,1,52,39.88Zm0,1.27h.55V40.07H52Z"/><path class="cls-3" d="M54.69,39.88h.55a.19.19,0,0,1,.13,0,.18.18,0,0,1,.06.14v1.08a.18.18,0,0,1-.06.13.19.19,0,0,1-.13,0h-.55a.19.19,0,0,1-.13,0,.18.18,0,0,1-.06-.13V40.07a.18.18,0,0,1,.06-.14A.19.19,0,0,1,54.69,39.88Zm0,1.27h.55V40.07h-.55Z"/><path class="cls-3" d="M56,39.88h.55a.21.21,0,0,1,.13,0,.17.17,0,0,1,.05.14v1.08a.17.17,0,0,1-.05.13.21.21,0,0,1-.13,0H56a.22.22,0,0,1-.14,0,.21.21,0,0,1,0-.13V40.07a.17.17,0,0,1,.19-.19Zm0,1.27h.55V40.07H56Z"/><path class="cls-3" d="M57.38,39.88h.55a.19.19,0,0,1,.13,0,.18.18,0,0,1,.06.14v1.08a.21.21,0,0,1,0,.13.22.22,0,0,1-.14,0h-.55a.21.21,0,0,1-.13,0,.17.17,0,0,1,0-.13V40.07a.17.17,0,0,1,0-.14A.21.21,0,0,1,57.38,39.88Zm0,1.27h.55V40.07h-.55Z"/><path class="cls-3" d="M58.73,39.88h.55a.19.19,0,0,1,.13,0,.18.18,0,0,1,.06.14v1.08a.18.18,0,0,1-.06.13.19.19,0,0,1-.13,0h-.55a.19.19,0,0,1-.13,0,.18.18,0,0,1-.06-.13V40.07a.18.18,0,0,1,.06-.14A.19.19,0,0,1,58.73,39.88Zm0,1.27h.55V40.07h-.55Z"/><path class="cls-6" d="M13.85,54.45l14-1a9.27,9.27,0,0,0,6.24-2.4l3-3,4-1.81s5.89-2.35,4-6.31c0,0-1.27-2.62-5-.91L29.48,44"/><line class="cls-5" x1="43.81" y1="53.87" x2="41.02" y2="46.26"/><line class="cls-5" x1="37.66" y1="53.3" x2="36.27" y2="48.85"/><circle class="cls-3" cx="53.08" cy="32.39" r="2.71"/><circle class="cls-3" cx="56.53" cy="32.39" r="2.71"/></g></svg>