<svg id="Layer_1" data-name="Layer 1" xmlns="http://www.w3.org/2000/svg" xmlns:xlink="http://www.w3.org/1999/xlink" viewBox="0 0 120 100"><defs><style>.cls-1,.cls-6{fill:none;}.cls-2,.cls-7{fill:#fff;}.cls-2,.cls-5,.cls-6{stroke:#74af27;}.cls-2{stroke-miterlimit:10;}.cls-3,.cls-5{fill:#74af27;}.cls-4{clip-path:url(#clip-path);}.cls-5,.cls-6,.cls-7{stroke-linecap:round;stroke-linejoin:round;}.cls-5{stroke-width:0.15px;}.cls-6{stroke-width:0.4px;}.cls-7{stroke:#fff;stroke-width:1.83px;}</style><clipPath id="clip-path"><circle class="cls-1" cx="60" cy="37.74" r="28.35"/></clipPath></defs><title>EV-Systems_Operations-IdealForLimitedIncomingPowerSupply</title><circle class="cls-2" cx="60" cy="37.74" r="28.35"/><path class="cls-3" d="M25.22,70.68h.71V77h-.71Z"/><path class="cls-3" d="M27.11,74.67v0a2.29,2.29,0,0,1,2.23-2.42,2.11,2.11,0,0,1,1.78,1V70.41h.69V77h-.69v-.94a2.09,2.09,0,0,1-1.78,1A2.27,2.27,0,0,1,27.11,74.67Zm4,0v0a1.73,1.73,0,0,0-1.69-1.79,1.64,1.64,0,0,0-1.63,1.79v0a1.68,1.68,0,0,0,1.63,1.8A1.74,1.74,0,0,0,31.15,74.66Z"/><path class="cls-3" d="M32.8,74.67v0A2.3,2.3,0,0,1,35,72.23a2.22,2.22,0,0,1,2.17,2.46,1.77,1.77,0,0,1,0,.23H33.5a1.63,1.63,0,0,0,1.64,1.57,1.92,1.92,0,0,0,1.47-.66l.43.39a2.4,2.4,0,0,1-1.91.87A2.32,2.32,0,0,1,32.8,74.67Zm3.7-.27A1.53,1.53,0,0,0,35,72.82,1.61,1.61,0,0,0,33.5,74.4Z"/><path class="cls-3" d="M37.8,75.63h0c0-1,.81-1.51,2-1.51a5.24,5.24,0,0,1,1.43.2v-.16c0-.84-.51-1.27-1.39-1.27a3.33,3.33,0,0,0-1.41.34l-.21-.56a3.79,3.79,0,0,1,1.69-.39,2.06,2.06,0,0,1,1.51.51,1.87,1.87,0,0,1,.47,1.36V77h-.66v-.71a2,2,0,0,1-1.68.8A1.56,1.56,0,0,1,37.8,75.63Zm3.43-.35v-.45a4.8,4.8,0,0,0-1.37-.2c-.87,0-1.36.38-1.36,1v0c0,.58.54.93,1.17.93A1.41,1.41,0,0,0,41.23,75.28Z"/><path class="cls-3" d="M43.15,70.41h.7V77h-.7Z"/><path class="cls-3" d="M47.73,70.68h4.53v.66H48.44v2.25h3.42v.65H48.44V77h-.71Z"/><path class="cls-3" d="M52.83,74.68v0a2.43,2.43,0,0,1,4.85,0v0a2.42,2.42,0,0,1-2.44,2.43A2.37,2.37,0,0,1,52.83,74.68Zm4.14,0v0a1.76,1.76,0,0,0-1.73-1.82,1.72,1.72,0,0,0-1.7,1.8v0a1.75,1.75,0,0,0,1.72,1.81A1.72,1.72,0,0,0,57,74.68Z"/><path class="cls-3" d="M58.66,72.33h.69v1.22a2,2,0,0,1,1.9-1.3V73h0a1.88,1.88,0,0,0-1.85,2.13V77h-.69Z"/><path class="cls-3" d="M64.58,70.68h.71v5.65h3.55V77H64.58Z"/><path class="cls-3" d="M69.78,70.55h.79v.76h-.79Zm0,1.78h.69V77h-.69Z"/><path class="cls-3" d="M71.86,72.33h.69v.79a1.71,1.71,0,0,1,1.51-.89,1.58,1.58,0,0,1,1.49.93,1.87,1.87,0,0,1,1.64-.93,1.68,1.68,0,0,1,1.73,1.88V77h-.69V74.27c0-.9-.45-1.41-1.21-1.41a1.3,1.3,0,0,0-1.28,1.44V77h-.69V74.25c0-.87-.46-1.39-1.2-1.39a1.35,1.35,0,0,0-1.3,1.47V77h-.69Z"/><path class="cls-3" d="M80.17,70.55H81v.76h-.79Zm0,1.78h.7V77h-.7Z"/><path class="cls-3" d="M82.49,75.75V72.94h-.65v-.61h.65v-1.4h.69v1.4h1.48v.61H83.18v2.72a.7.7,0,0,0,.79.78,1.42,1.42,0,0,0,.67-.17v.6a1.8,1.8,0,0,1-.84.2A1.19,1.19,0,0,1,82.49,75.75Z"/><path class="cls-3" d="M85.19,74.67v0a2.3,2.3,0,0,1,2.23-2.42,2.22,2.22,0,0,1,2.17,2.46,1.77,1.77,0,0,1,0,.23H85.89a1.63,1.63,0,0,0,1.64,1.57A1.92,1.92,0,0,0,89,75.83l.43.39a2.42,2.42,0,0,1-1.92.87A2.31,2.31,0,0,1,85.19,74.67Zm3.7-.27a1.53,1.53,0,0,0-1.49-1.58,1.6,1.6,0,0,0-1.51,1.58Z"/><path class="cls-3" d="M90.27,74.67v0a2.28,2.28,0,0,1,2.22-2.42,2.11,2.11,0,0,1,1.78,1V70.41H95V77h-.7v-.94a2.09,2.09,0,0,1-1.78,1A2.26,2.26,0,0,1,90.27,74.67Zm4,0v0a1.73,1.73,0,0,0-1.68-1.79A1.65,1.65,0,0,0,91,74.64v0a1.68,1.68,0,0,0,1.64,1.8A1.74,1.74,0,0,0,94.3,74.66Z"/><path class="cls-3" d="M10.74,81.68h.72V88h-.72Z"/><path class="cls-3" d="M12.91,83.33h.7v.81a1.76,1.76,0,0,1,1.59-.91A1.7,1.7,0,0,1,17,85.1V88h-.69V85.27A1.24,1.24,0,0,0,15,83.86a1.37,1.37,0,0,0-1.39,1.46V88h-.7Z"/><path class="cls-3" d="M17.9,85.68v0a2.42,2.42,0,0,1,4.25-1.6l-.46.49a1.88,1.88,0,0,0-1.42-.71,1.72,1.72,0,0,0-1.66,1.8v0a1.74,1.74,0,0,0,1.71,1.81,1.91,1.91,0,0,0,1.42-.69l.44.41a2.35,2.35,0,0,1-1.9.9A2.38,2.38,0,0,1,17.9,85.68Z"/><path class="cls-3" d="M22.63,85.68v0a2.41,2.41,0,0,1,2.43-2.43,2.39,2.39,0,0,1,2.42,2.41v0a2.41,2.41,0,0,1-2.43,2.43A2.38,2.38,0,0,1,22.63,85.68Zm4.14,0v0a1.76,1.76,0,0,0-1.72-1.82,1.72,1.72,0,0,0-1.71,1.8v0a1.75,1.75,0,0,0,1.72,1.81A1.72,1.72,0,0,0,26.77,85.68Z"/><path class="cls-3" d="M28.46,83.33h.7v.79a1.7,1.7,0,0,1,1.5-.89,1.6,1.6,0,0,1,1.5.93,1.85,1.85,0,0,1,1.63-.93,1.67,1.67,0,0,1,1.73,1.88V88h-.69V85.27c0-.9-.45-1.41-1.21-1.41a1.3,1.3,0,0,0-1.28,1.44V88h-.69V85.25c0-.87-.46-1.39-1.2-1.39a1.35,1.35,0,0,0-1.29,1.47V88h-.7Z"/><path class="cls-3" d="M36.77,81.55h.79v.76h-.79Zm0,1.78h.69V88h-.69Z"/><path class="cls-3" d="M38.85,83.33h.69v.81a1.79,1.79,0,0,1,1.6-.91,1.7,1.7,0,0,1,1.78,1.87V88h-.69V85.27a1.24,1.24,0,0,0-1.29-1.41,1.38,1.38,0,0,0-1.4,1.46V88h-.69Z"/><path class="cls-3" d="M44.07,88.8l.32-.54a3,3,0,0,0,1.79.59,1.53,1.53,0,0,0,1.69-1.66v-.55a2.22,2.22,0,0,1-1.83,1,2.16,2.16,0,0,1-2.19-2.18v0a2.2,2.2,0,0,1,4-1.26v-.84h.69v3.85A2.2,2.2,0,0,1,48,88.82a2.42,2.42,0,0,1-1.77.62A3.66,3.66,0,0,1,44.07,88.8Zm3.82-3.36v0a1.64,1.64,0,0,0-1.71-1.58,1.54,1.54,0,0,0-1.61,1.57v0A1.56,1.56,0,0,0,46.18,87,1.64,1.64,0,0,0,47.89,85.44Z"/><path class="cls-3" d="M52.38,81.68h2.36c1.42,0,2.35.76,2.35,2v0c0,1.36-1.13,2.06-2.47,2.06H53.09V88h-.71Zm2.27,3.43c1,0,1.72-.55,1.72-1.38v0c0-.9-.67-1.37-1.69-1.37H53.09v2.77Z"/><path class="cls-3" d="M57.67,85.68v0a2.41,2.41,0,0,1,2.43-2.43,2.39,2.39,0,0,1,2.42,2.41v0a2.41,2.41,0,0,1-2.44,2.43A2.38,2.38,0,0,1,57.67,85.68Zm4.14,0v0a1.76,1.76,0,0,0-1.73-1.82,1.72,1.72,0,0,0-1.7,1.8v0a1.75,1.75,0,0,0,1.72,1.81A1.72,1.72,0,0,0,61.81,85.68Z"/><path class="cls-3" d="M62.88,83.33h.74l1.22,3.74,1.25-3.76h.58l1.26,3.76,1.22-3.74h.73L68.24,88h-.61l-1.25-3.67L65.12,88h-.61Z"/><path class="cls-3" d="M70.24,85.67v0a2.3,2.3,0,0,1,2.23-2.42,2.22,2.22,0,0,1,2.17,2.46v.23h-3.7a1.63,1.63,0,0,0,1.64,1.57,1.92,1.92,0,0,0,1.47-.66l.43.39a2.4,2.4,0,0,1-1.92.87A2.32,2.32,0,0,1,70.24,85.67Zm3.7-.27a1.53,1.53,0,0,0-1.48-1.58,1.61,1.61,0,0,0-1.52,1.58Z"/><path class="cls-3" d="M75.59,83.33h.69v1.22a2,2,0,0,1,1.9-1.3V84h-.05a1.88,1.88,0,0,0-1.85,2.13V88h-.69Z"/><path class="cls-3" d="M81.1,87.07l.44-.53a3,3,0,0,0,2.16.9c.84,0,1.4-.45,1.4-1.07v0c0-.59-.31-.92-1.64-1.2s-2.11-.78-2.11-1.82v0a1.86,1.86,0,0,1,2.07-1.72,3.29,3.29,0,0,1,2.21.78l-.41.55a2.77,2.77,0,0,0-1.82-.69c-.82,0-1.34.45-1.34,1v0c0,.59.32.93,1.71,1.22s2,.82,2,1.79h0c0,1.08-.9,1.79-2.15,1.79A3.69,3.69,0,0,1,81.1,87.07Z"/><path class="cls-3" d="M86.81,86.22V83.33h.69v2.72a1.25,1.25,0,0,0,1.29,1.41A1.38,1.38,0,0,0,90.19,86V83.33h.68V88h-.68v-.81a1.78,1.78,0,0,1-1.6.9A1.7,1.7,0,0,1,86.81,86.22Z"/><path class="cls-3" d="M92.16,83.33h.69v.94a2.1,2.1,0,0,1,1.78-1,2.28,2.28,0,0,1,2.23,2.41v0a2.28,2.28,0,0,1-2.23,2.42,2.08,2.08,0,0,1-1.78-1v2.34h-.69Zm4,2.34v0a1.68,1.68,0,0,0-1.64-1.8,1.74,1.74,0,0,0-1.69,1.79v0a1.73,1.73,0,0,0,1.69,1.8A1.64,1.64,0,0,0,96.15,85.67Z"/><path class="cls-3" d="M97.86,83.33h.7v.94a2.07,2.07,0,0,1,1.78-1,2.27,2.27,0,0,1,2.22,2.41v0a2.28,2.28,0,0,1-2.22,2.42,2.07,2.07,0,0,1-1.78-1v2.34h-.7Zm4,2.34v0a1.68,1.68,0,0,0-1.64-1.8,1.74,1.74,0,0,0-1.68,1.79v0a1.73,1.73,0,0,0,1.68,1.8A1.64,1.64,0,0,0,101.85,85.67Z"/><path class="cls-3" d="M103.63,81.41h.7V88h-.7Z"/><path class="cls-3" d="M109.15,83.33h.74l-2,4.81c-.39,1-.84,1.31-1.54,1.31a2.13,2.13,0,0,1-1-.23l.23-.55a1.41,1.41,0,0,0,.73.17c.41,0,.67-.21,1-.87l-2.11-4.64H106l1.7,3.88Z"/><g class="cls-4"><path class="cls-5" d="M86.42,53.55a.08.08,0,0,1-.08-.06l-3.89-17V27.17l-1.23-2.62a.09.09,0,1,1,.16-.08l1.25,2.66v9.39l3.88,16.93a.09.09,0,0,1-.07.1Z"/><path class="cls-5" d="M85.1,29.66H82.54a.09.09,0,0,1-.09-.09.09.09,0,0,1,.09-.08h2.39v-.28L82.5,28a.09.09,0,1,1,.08-.16L85.1,29.1Z"/><path class="cls-5" d="M86.51,32.73h-4a.09.09,0,1,1,0-.18h3.8v-.18l-3.83-1.25a.09.09,0,0,1-.05-.11.08.08,0,0,1,.11-.05l3.94,1.28Z"/><path class="cls-5" d="M85,36H82.54a.08.08,0,0,1-.09-.08.09.09,0,0,1,.09-.09h2.24v-.25l-2.28-1.1a.1.1,0,0,1,0-.12.09.09,0,0,1,.12,0L85,35.43Z"/><path class="cls-5" d="M82.69,36.19H81.3a.07.07,0,0,1-.06-.07.06.06,0,0,1,.06-.06h1.09l-1.18-1.22,1.24-1.28-1.24-1.1,1.23-1.19-1.24-.93,1.23-1.2-1.27-.62,1.23-.69-1.25-.47,1.11-.56-1.06-.66.6-.54a.08.08,0,0,1,.1,0,.06.06,0,0,1,0,.09l-.47.42,1.1.69-1.05.53,1.23.46-1.25.71,1.21.6L81.4,30.33l1.24.93-1.24,1.2,1.23,1.09-1.24,1.29Z"/><path class="cls-5" d="M86.38,53.33h0l-5.22-1.65,4.18-2.38-4.14-1.76,3.15-2.63-3.15-1.2,2.4-2.1-2.4-1.06L83,39,81.2,37.88l1.29-1.4a.06.06,0,0,1,.09,0,.06.06,0,0,1,0,.09L81.4,37.85l1.8,1.08-1.78,1.58,2.4,1.06-2.39,2.1,3.15,1.2L81.42,47.5l4.19,1.79-4.15,2.36L86.4,53.2a.08.08,0,0,1,0,.09A.08.08,0,0,1,86.38,53.33Z"/><path class="cls-5" d="M83.84,35.94l0,0-1.06-1.41a.06.06,0,0,1,0-.09.07.07,0,0,1,.09,0l1.06,1.41a.06.06,0,0,1,0,.09Z"/><path class="cls-5" d="M84.57,35.94a.07.07,0,0,1-.06,0L84,35.12a.07.07,0,1,1,.11-.07l.53.79a.07.07,0,0,1,0,.09Z"/><path class="cls-5" d="M83,35.94l-.06,0-.5-.79a.07.07,0,0,1,.11-.07l.5.79a.07.07,0,0,1,0,.09Z"/><path class="cls-5" d="M83.23,35.94h0a.07.07,0,0,1,0-.09l.57-.91s.05,0,.09,0a.07.07,0,0,1,0,.09l-.57.91A.05.05,0,0,1,83.23,35.94Z"/><path class="cls-5" d="M83.46,32.71a.08.08,0,0,1-.06,0l-.73-1.54s0-.08,0-.09a.06.06,0,0,1,.08,0l.74,1.54a.07.07,0,0,1,0,.09Z"/><path class="cls-5" d="M84.3,32.71s0,0-.06,0l-.6-1.23a.06.06,0,0,1,0-.08.07.07,0,0,1,.09,0l.6,1.22a.07.07,0,0,1,0,.09Z"/><path class="cls-5" d="M85.13,32.71a.07.07,0,0,1-.06,0l-.44-.9a.08.08,0,0,1,0-.09.07.07,0,0,1,.09,0l.44.9a.08.08,0,0,1,0,.09Z"/><path class="cls-5" d="M86,32.71a.08.08,0,0,1-.06,0l-.27-.57a.08.08,0,0,1,0-.09.08.08,0,0,1,.09,0l.27.57a.08.08,0,0,1,0,.09Z"/><path class="cls-5" d="M84.6,32.71a.05.05,0,0,1,0,0,.06.06,0,0,1,0-.09l.8-.67a.08.08,0,0,1,.1,0,.06.06,0,0,1,0,.09l-.81.67A.05.05,0,0,1,84.6,32.71Z"/><path class="cls-5" d="M83.7,32.71h0a.07.07,0,0,1,0-.09l.62-1a.08.08,0,0,1,.09,0,.07.07,0,0,1,0,.09l-.62,1Z"/><path class="cls-5" d="M82.68,32.71h0a.08.08,0,0,1,0-.09l.69-1.33a.07.07,0,0,1,.09,0,.08.08,0,0,1,0,.09l-.69,1.33A.08.08,0,0,1,82.68,32.71Z"/><path class="cls-5" d="M83.08,29.68l-.62-1a.07.07,0,0,1,.11-.07l.53.85.86-.86a.06.06,0,0,1,.09,0,.07.07,0,0,1,0,.09Z"/><path class="cls-5" d="M84,29.67l-.92-1.35-.54.29a.06.06,0,0,1-.09,0,.06.06,0,0,1,0-.08l.64-.35.9,1.33.6-.54a.06.06,0,0,1,.09,0,.06.06,0,0,1,0,.09Z"/><path class="cls-5" d="M85,29.91h-.33a.06.06,0,0,1-.06-.06.07.07,0,0,1,.06-.07H85a.07.07,0,0,1,.06.07A.06.06,0,0,1,85,29.91Z"/><path class="cls-5" d="M85,30.13h-.33a.06.06,0,0,1-.06-.06.07.07,0,0,1,.06-.07H85a.07.07,0,0,1,.06.07A.06.06,0,0,1,85,30.13Z"/><path class="cls-5" d="M85,30.35h-.33a.06.06,0,0,1-.06-.06.07.07,0,0,1,.06-.07H85a.07.07,0,0,1,.06.07A.06.06,0,0,1,85,30.35Z"/><path class="cls-5" d="M85,30.57h-.33a.06.06,0,0,1-.06-.06.07.07,0,0,1,.06-.07H85a.07.07,0,0,1,.06.07A.06.06,0,0,1,85,30.57Z"/><path class="cls-5" d="M85,30.79h-.33a.06.06,0,0,1-.06-.06.07.07,0,0,1,.06-.07H85a.07.07,0,0,1,.06.07A.06.06,0,0,1,85,30.79Z"/><path class="cls-5" d="M84.37,29.91h-.32a.07.07,0,0,1-.07-.06.07.07,0,0,1,.07-.07h.32a.07.07,0,0,1,.07.07A.07.07,0,0,1,84.37,29.91Z"/><path class="cls-5" d="M84.37,30.13h-.32a.07.07,0,0,1-.07-.06.07.07,0,0,1,.07-.07h.32a.07.07,0,0,1,.07.07A.07.07,0,0,1,84.37,30.13Z"/><path class="cls-5" d="M84.37,30.35h-.32a.07.07,0,0,1-.07-.06.07.07,0,0,1,.07-.07h.32a.07.07,0,0,1,.07.07A.07.07,0,0,1,84.37,30.35Z"/><path class="cls-5" d="M84.37,30.57h-.32a.07.07,0,0,1-.07-.06.07.07,0,0,1,.07-.07h.32a.07.07,0,0,1,.07.07A.07.07,0,0,1,84.37,30.57Z"/><path class="cls-5" d="M84.37,30.79h-.32a.07.07,0,0,1-.07-.06.07.07,0,0,1,.07-.07h.32a.07.07,0,0,1,.07.07A.07.07,0,0,1,84.37,30.79Z"/><path class="cls-5" d="M84.21,30.93a0,0,0,0,1,0,0V29.6a0,0,0,1,1,.08,0v1.29A0,0,0,0,1,84.21,30.93Z"/><path class="cls-5" d="M84.85,30.93a0,0,0,0,1,0,0V29.6a0,0,0,0,1,0,0,0,0,0,0,1,.05,0v1.29A0,0,0,0,1,84.85,30.93Z"/><path class="cls-5" d="M86.16,33h-.33a.06.06,0,0,1-.06-.06s0-.07.06-.07h.33a.07.07,0,0,1,.06.07A.06.06,0,0,1,86.16,33Z"/><path class="cls-5" d="M86.16,33.17h-.33a.06.06,0,0,1-.06-.06s0-.07.06-.07h.33a.07.07,0,0,1,.06.07A.06.06,0,0,1,86.16,33.17Z"/><path class="cls-5" d="M86.16,33.39h-.33a.06.06,0,0,1-.06-.06s0-.07.06-.07h.33a.07.07,0,0,1,.06.07A.06.06,0,0,1,86.16,33.39Z"/><path class="cls-5" d="M86.16,33.61h-.33a.06.06,0,0,1-.06-.06s0-.07.06-.07h.33a.07.07,0,0,1,.06.07A.06.06,0,0,1,86.16,33.61Z"/><path class="cls-5" d="M86.16,33.83h-.33a.06.06,0,0,1-.06-.06s0-.07.06-.07h.33a.07.07,0,0,1,.06.07A.06.06,0,0,1,86.16,33.83Z"/><path class="cls-5" d="M85.51,33h-.32a.07.07,0,0,1-.07-.06.07.07,0,0,1,.07-.07h.32a.07.07,0,0,1,.07.07A.07.07,0,0,1,85.51,33Z"/><path class="cls-5" d="M85.51,33.17h-.32a.07.07,0,0,1-.07-.06.07.07,0,0,1,.07-.07h.32a.07.07,0,0,1,.07.07A.07.07,0,0,1,85.51,33.17Z"/><path class="cls-5" d="M85.51,33.39h-.32a.07.07,0,0,1-.07-.06.07.07,0,0,1,.07-.07h.32a.07.07,0,0,1,.07.07A.07.07,0,0,1,85.51,33.39Z"/><path class="cls-5" d="M85.51,33.61h-.32a.07.07,0,0,1-.07-.06.07.07,0,0,1,.07-.07h.32a.07.07,0,0,1,.07.07A.07.07,0,0,1,85.51,33.61Z"/><path class="cls-5" d="M85.51,33.83h-.32a.07.07,0,0,1-.07-.06.07.07,0,0,1,.07-.07h.32a.07.07,0,0,1,.07.07A.07.07,0,0,1,85.51,33.83Z"/><path class="cls-5" d="M85.35,34a0,0,0,0,1,0,0V32.64a0,0,0,1,1,.08,0v1.29A0,0,0,0,1,85.35,34Z"/><path class="cls-5" d="M86,34a0,0,0,0,1,0,0V32.64a0,0,0,0,1,0,0,0,0,0,0,1,.05,0v1.29A0,0,0,0,1,86,34Z"/><path class="cls-5" d="M84.75,36.19h-.33a.06.06,0,0,1-.06-.06.07.07,0,0,1,.06-.07h.33a.07.07,0,0,1,.06.07A.06.06,0,0,1,84.75,36.19Z"/><path class="cls-5" d="M84.75,36.41h-.33a.06.06,0,0,1-.06-.06.07.07,0,0,1,.06-.07h.33a.07.07,0,0,1,.06.07A.06.06,0,0,1,84.75,36.41Z"/><path class="cls-5" d="M84.75,36.63h-.33a.06.06,0,0,1-.06-.06.07.07,0,0,1,.06-.07h.33a.07.07,0,0,1,.06.07A.06.06,0,0,1,84.75,36.63Z"/><path class="cls-5" d="M84.75,36.85h-.33a.06.06,0,0,1-.06-.06.07.07,0,0,1,.06-.07h.33a.07.07,0,0,1,.06.07A.06.06,0,0,1,84.75,36.85Z"/><path class="cls-5" d="M84.75,37.07h-.33a.06.06,0,0,1-.06-.06.07.07,0,0,1,.06-.07h.33a.07.07,0,0,1,.06.07A.06.06,0,0,1,84.75,37.07Z"/><path class="cls-5" d="M84.1,36.19h-.32a.07.07,0,0,1-.07-.06.07.07,0,0,1,.07-.07h.32a.07.07,0,0,1,.07.07A.07.07,0,0,1,84.1,36.19Z"/><path class="cls-5" d="M84.1,36.41h-.32a.07.07,0,0,1-.07-.06.07.07,0,0,1,.07-.07h.32a.07.07,0,0,1,.07.07A.07.07,0,0,1,84.1,36.41Z"/><path class="cls-5" d="M84.1,36.63h-.32a.07.07,0,0,1-.07-.06.07.07,0,0,1,.07-.07h.32a.07.07,0,0,1,.07.07A.07.07,0,0,1,84.1,36.63Z"/><path class="cls-5" d="M84.1,36.85h-.32a.07.07,0,0,1-.07-.06.07.07,0,0,1,.07-.07h.32a.07.07,0,0,1,.07.07A.07.07,0,0,1,84.1,36.85Z"/><path class="cls-5" d="M84.1,37.07h-.32a.07.07,0,0,1-.07-.06.07.07,0,0,1,.07-.07h.32a.07.07,0,0,1,.07.07A.07.07,0,0,1,84.1,37.07Z"/><path class="cls-5" d="M83.94,37.21a0,0,0,0,1,0,0V35.88a0,0,0,1,1,.08,0v1.29A0,0,0,0,1,83.94,37.21Z"/><path class="cls-5" d="M84.58,37.21a0,0,0,0,1,0,0V35.88a0,0,0,0,1,0,0,0,0,0,0,1,0,0v1.29A0,0,0,0,1,84.58,37.21Z"/><path class="cls-5" d="M76.18,53.55h0a.07.07,0,0,1-.06-.1L80,36.52V27.13h0l1.24-2.65a.1.1,0,0,1,.12,0,.09.09,0,0,1,0,.12l-1.23,2.62v9.36h0l-3.89,17A.08.08,0,0,1,76.18,53.55Z"/><path class="cls-5" d="M80.06,29.66H77.5V29.1L80,27.86a.08.08,0,0,1,.11,0,.09.09,0,0,1,0,.12l-2.43,1.19v.28h2.39a.09.09,0,0,1,.09.08A.09.09,0,0,1,80.06,29.66Z"/><path class="cls-5" d="M80.06,32.73h-4v-.49L80,31a.09.09,0,0,1,.11.05.09.09,0,0,1-.06.11l-3.82,1.25v.18h3.79a.09.09,0,1,1,0,.18Z"/><path class="cls-5" d="M80.06,36h-2.4v-.53L80,34.28a.08.08,0,0,1,.11,0,.1.1,0,0,1,0,.12l-2.27,1.1v.25h2.23a.09.09,0,0,1,.09.09A.08.08,0,0,1,80.06,36Z"/><path class="cls-5" d="M81.3,36.19H79.91l1.3-1.35L80,33.55l1.24-1.09L80,31.26l1.24-.93L80,29.11l1.21-.6-1.25-.71,1.23-.46-1-.53,1.1-.69-.47-.42a.07.07,0,0,1,.09-.1l.6.54-1,.66,1.1.56-1.24.47,1.22.69-1.27.62,1.23,1.2-1.24.93,1.24,1.19-1.24,1.1,1.23,1.28-1.17,1.22H81.3s.07,0,.07.06A.07.07,0,0,1,81.3,36.19Z"/><path class="cls-5" d="M76.23,53.33a.08.08,0,0,1-.07,0,.07.07,0,0,1,0-.09l4.93-1.55L77,49.29l4.19-1.79L78,44.87l3.16-1.2-2.4-2.1,2.4-1.06L79.4,38.93l1.8-1.08L80,36.57a.06.06,0,0,1,.09-.09l1.29,1.4L79.62,39l1.8,1.6L79,41.61l2.41,2.1-3.16,1.2,3.15,2.63L77.28,49.3l4.18,2.38-5.21,1.65Z"/><path class="cls-5" d="M78.76,35.94h0a.07.07,0,0,1,0-.09l1.06-1.41s.07,0,.09,0a.07.07,0,0,1,0,.09l-1.06,1.41Z"/><path class="cls-5" d="M78,35.94h0a.07.07,0,0,1,0-.09l.53-.79a.07.07,0,0,1,.11.07l-.53.79A.05.05,0,0,1,78,35.94Z"/><path class="cls-5" d="M79.58,35.94h0a.07.07,0,0,1,0-.09l.51-.79a.07.07,0,1,1,.11.07l-.51.79A.06.06,0,0,1,79.58,35.94Z"/><path class="cls-5" d="M79.37,35.94a.05.05,0,0,1-.05,0L78.76,35a.07.07,0,1,1,.11-.07l.56.91a.07.07,0,0,1,0,.09Z"/><path class="cls-5" d="M79.14,32.71h0a.08.08,0,0,1,0-.09l.74-1.54a.07.07,0,0,1,.09,0s0,.05,0,.09l-.74,1.54A.07.07,0,0,1,79.14,32.71Z"/><path class="cls-5" d="M78.3,32.71h0a.08.08,0,0,1,0-.09l.6-1.22a.07.07,0,0,1,.09,0,.06.06,0,0,1,0,.08l-.6,1.23A.07.07,0,0,1,78.3,32.71Z"/><path class="cls-5" d="M77.47,32.71h0a.06.06,0,0,1,0-.09l.43-.9a.07.07,0,0,1,.09,0,.07.07,0,0,1,0,.09l-.44.9A.07.07,0,0,1,77.47,32.71Z"/><path class="cls-5" d="M76.62,32.71h0a.07.07,0,0,1,0-.09l.27-.57a.08.08,0,0,1,.09,0,.07.07,0,0,1,0,.09l-.27.57A.07.07,0,0,1,76.62,32.71Z"/><path class="cls-5" d="M78,32.71l0,0-.8-.67a.06.06,0,0,1,0-.09.06.06,0,0,1,.09,0l.8.67a.06.06,0,0,1,0,.09A.05.05,0,0,1,78,32.71Z"/><path class="cls-5" d="M78.9,32.71a.05.05,0,0,1-.05,0l-.63-1a.07.07,0,0,1,0-.09.08.08,0,0,1,.09,0l.63,1a.07.07,0,0,1,0,.09Z"/><path class="cls-5" d="M79.92,32.71s0,0-.06,0l-.68-1.33a.07.07,0,0,1,0-.09.06.06,0,0,1,.09,0L80,32.61a.07.07,0,0,1,0,.09Z"/><path class="cls-5" d="M79.52,29.68l-1-1a.06.06,0,0,1,.09-.09l.85.86.54-.85a.07.07,0,1,1,.11.07Z"/><path class="cls-5" d="M78.58,29.67,77.87,29a.06.06,0,0,1,0-.09.08.08,0,0,1,.1,0l.59.54.9-1.33.64.35a.05.05,0,0,1,0,.08.06.06,0,0,1-.09,0l-.54-.29Z"/><path class="cls-5" d="M77.91,29.91h-.32a.07.07,0,0,1-.07-.06.07.07,0,0,1,.07-.07h.32a.07.07,0,0,1,.07.07A.07.07,0,0,1,77.91,29.91Z"/><path class="cls-5" d="M77.91,30.13h-.32a.07.07,0,0,1-.07-.06.07.07,0,0,1,.07-.07h.32a.07.07,0,0,1,.07.07A.07.07,0,0,1,77.91,30.13Z"/><path class="cls-5" d="M77.91,30.35h-.32a.07.07,0,0,1-.07-.06.07.07,0,0,1,.07-.07h.32a.07.07,0,0,1,.07.07A.07.07,0,0,1,77.91,30.35Z"/><path class="cls-5" d="M77.91,30.57h-.32a.07.07,0,0,1-.07-.06.07.07,0,0,1,.07-.07h.32a.07.07,0,0,1,.07.07A.07.07,0,0,1,77.91,30.57Z"/><path class="cls-5" d="M77.91,30.79h-.32a.07.07,0,0,1-.07-.06.07.07,0,0,1,.07-.07h.32a.07.07,0,0,1,.07.07A.07.07,0,0,1,77.91,30.79Z"/><path class="cls-5" d="M78.56,29.91h-.33a.06.06,0,0,1-.06-.06s0-.07.06-.07h.33a.07.07,0,0,1,.06.07A.06.06,0,0,1,78.56,29.91Z"/><path class="cls-5" d="M78.56,30.13h-.33a.06.06,0,0,1-.06-.06s0-.07.06-.07h.33a.07.07,0,0,1,.06.07A.06.06,0,0,1,78.56,30.13Z"/><path class="cls-5" d="M78.56,30.35h-.33a.06.06,0,0,1-.06-.06s0-.07.06-.07h.33a.07.07,0,0,1,.06.07A.06.06,0,0,1,78.56,30.35Z"/><path class="cls-5" d="M78.56,30.57h-.33a.06.06,0,0,1-.06-.06s0-.07.06-.07h.33a.07.07,0,0,1,.06.07A.06.06,0,0,1,78.56,30.57Z"/><path class="cls-5" d="M78.56,30.79h-.33a.06.06,0,0,1-.06-.06s0-.07.06-.07h.33a.07.07,0,0,1,.06.07A.06.06,0,0,1,78.56,30.79Z"/><path class="cls-5" d="M78.39,30.93a0,0,0,0,1,0,0V29.6a0,0,0,0,1,0,0,0,0,0,0,1,0,0v1.29A0,0,0,0,1,78.39,30.93Z"/><path class="cls-5" d="M77.75,30.93a0,0,0,0,1,0,0V29.6a0,0,0,0,1,.08,0v1.29A0,0,0,0,1,77.75,30.93Z"/><path class="cls-5" d="M76.77,33h-.32a.07.07,0,0,1-.07-.06.07.07,0,0,1,.07-.07h.32a.07.07,0,0,1,.07.07A.07.07,0,0,1,76.77,33Z"/><path class="cls-5" d="M76.77,33.17h-.32a.07.07,0,0,1-.07-.06.07.07,0,0,1,.07-.07h.32a.07.07,0,0,1,.07.07A.07.07,0,0,1,76.77,33.17Z"/><path class="cls-5" d="M76.77,33.39h-.32a.07.07,0,0,1-.07-.06.07.07,0,0,1,.07-.07h.32a.07.07,0,0,1,.07.07A.07.07,0,0,1,76.77,33.39Z"/><path class="cls-5" d="M76.77,33.61h-.32a.07.07,0,0,1-.07-.06.07.07,0,0,1,.07-.07h.32a.07.07,0,0,1,.07.07A.07.07,0,0,1,76.77,33.61Z"/><path class="cls-5" d="M76.77,33.83h-.32a.07.07,0,0,1-.07-.06.07.07,0,0,1,.07-.07h.32a.07.07,0,0,1,.07.07A.07.07,0,0,1,76.77,33.83Z"/><path class="cls-5" d="M77.42,33h-.33a.06.06,0,0,1-.06-.06s0-.07.06-.07h.33a.07.07,0,0,1,.06.07A.06.06,0,0,1,77.42,33Z"/><path class="cls-5" d="M77.42,33.17h-.33a.06.06,0,0,1-.06-.06s0-.07.06-.07h.33a.07.07,0,0,1,.06.07A.06.06,0,0,1,77.42,33.17Z"/><path class="cls-5" d="M77.42,33.39h-.33a.06.06,0,0,1-.06-.06s0-.07.06-.07h.33a.07.07,0,0,1,.06.07A.06.06,0,0,1,77.42,33.39Z"/><path class="cls-5" d="M77.42,33.61h-.33a.06.06,0,0,1-.06-.06s0-.07.06-.07h.33a.07.07,0,0,1,.06.07A.06.06,0,0,1,77.42,33.61Z"/><path class="cls-5" d="M77.42,33.83h-.33a.06.06,0,0,1-.06-.06s0-.07.06-.07h.33a.07.07,0,0,1,.06.07A.06.06,0,0,1,77.42,33.83Z"/><path class="cls-5" d="M77.25,34a0,0,0,0,1,0,0V32.64a0,0,0,0,1,0,0,0,0,0,0,1,0,0v1.29A0,0,0,0,1,77.25,34Z"/><path class="cls-5" d="M76.61,34a0,0,0,0,1,0,0V32.64a0,0,0,0,1,.08,0v1.29A0,0,0,0,1,76.61,34Z"/><path class="cls-5" d="M78.18,36.19h-.32a.07.07,0,0,1-.07-.06.07.07,0,0,1,.07-.07h.32a.07.07,0,0,1,.07.07A.07.07,0,0,1,78.18,36.19Z"/><path class="cls-5" d="M78.18,36.41h-.32a.07.07,0,0,1-.07-.06.07.07,0,0,1,.07-.07h.32a.07.07,0,0,1,.07.07A.07.07,0,0,1,78.18,36.41Z"/><path class="cls-5" d="M78.18,36.63h-.32a.07.07,0,0,1-.07-.06.07.07,0,0,1,.07-.07h.32a.07.07,0,0,1,.07.07A.07.07,0,0,1,78.18,36.63Z"/><path class="cls-5" d="M78.18,36.85h-.32a.07.07,0,0,1-.07-.06.07.07,0,0,1,.07-.07h.32a.07.07,0,0,1,.07.07A.07.07,0,0,1,78.18,36.85Z"/><path class="cls-5" d="M78.18,37.07h-.32a.07.07,0,0,1-.07-.06.07.07,0,0,1,.07-.07h.32a.07.07,0,0,1,.07.07A.07.07,0,0,1,78.18,37.07Z"/><path class="cls-5" d="M78.83,36.19H78.5a.07.07,0,0,1-.07-.06.07.07,0,0,1,.07-.07h.33a.07.07,0,0,1,.06.07A.06.06,0,0,1,78.83,36.19Z"/><path class="cls-5" d="M78.83,36.41H78.5a.07.07,0,0,1-.07-.06.07.07,0,0,1,.07-.07h.33a.07.07,0,0,1,.06.07A.06.06,0,0,1,78.83,36.41Z"/><path class="cls-5" d="M78.83,36.63H78.5a.07.07,0,0,1-.07-.06.07.07,0,0,1,.07-.07h.33a.07.07,0,0,1,.06.07A.06.06,0,0,1,78.83,36.63Z"/><path class="cls-5" d="M78.83,36.85H78.5a.07.07,0,0,1-.07-.06.07.07,0,0,1,.07-.07h.33a.07.07,0,0,1,.06.07A.06.06,0,0,1,78.83,36.85Z"/><path class="cls-5" d="M78.83,37.07H78.5a.07.07,0,0,1-.07-.06.07.07,0,0,1,.07-.07h.33a.07.07,0,0,1,.06.07A.06.06,0,0,1,78.83,37.07Z"/><path class="cls-5" d="M78.66,37.21a0,0,0,0,1,0,0V35.88a0,0,0,0,1,0,0,0,0,0,0,1,0,0v1.29A0,0,0,0,1,78.66,37.21Z"/><path class="cls-5" d="M78,37.21a0,0,0,0,1,0,0V35.88a0,0,0,0,1,0,0,0,0,0,0,1,0,0v1.29A0,0,0,0,1,78,37.21Z"/><path class="cls-6" d="M99.08,29.39c-8,9.11-14.87,1.54-14.87,1.54C69.69,37,62.05,28,62.05,28"/><path class="cls-6" d="M100.35,31.47C94.1,40.36,86,34,86,34a22.84,22.84,0,0,1-21.26,2.56"/><path class="cls-6" d="M99.34,33.76c-5.6,10.27-15.4,3.45-15.4,3.45C70.35,46.66,61.85,41,61.85,41"/><path class="cls-5" d="M33.54,53.55a.09.09,0,0,0,.09-.06l3.88-17V27.17l1.23-2.62a.09.09,0,0,0,0-.12.08.08,0,0,0-.11,0l-1.25,2.66v9.39L33.46,53.45a.09.09,0,0,0,.06.1Z"/><path class="cls-5" d="M34.86,29.66h2.57a.09.09,0,0,0,.08-.09.09.09,0,0,0-.08-.08H35v-.28L37.46,28a.09.09,0,0,0-.07-.16L34.86,29.1Z"/><path class="cls-5" d="M33.46,32.73h4a.09.09,0,0,0,0-.18h-3.8v-.18l3.82-1.25a.09.09,0,0,0,.06-.11A.09.09,0,0,0,37.4,31l-3.94,1.28Z"/><path class="cls-5" d="M35,36h2.41a.08.08,0,0,0,.08-.08.09.09,0,0,0-.08-.09H35.19v-.25l2.27-1.1a.09.09,0,0,0,0-.12.08.08,0,0,0-.11,0L35,35.43Z"/><path class="cls-5" d="M37.27,36.19h1.39a.07.07,0,0,0,.07-.07s0-.06-.07-.06H37.58l1.17-1.22-1.23-1.28,1.24-1.1-1.23-1.19,1.23-.93-1.22-1.2,1.26-.62-1.22-.69,1.25-.47-1.11-.56,1.05-.66-.6-.54a.06.06,0,0,0-.09,0,.07.07,0,0,0,0,.09l.48.42-1.1.69,1,.53-1.23.46,1.26.71-1.22.6,1.25,1.22-1.23.93,1.24,1.2-1.24,1.09,1.24,1.29Z"/><path class="cls-5" d="M33.59,53.33h0l5.22-1.65L34.64,49.3l4.15-1.76-3.15-2.63,3.15-1.2-2.41-2.1,2.4-1.06L37,39l1.79-1.07-1.3-1.4a.06.06,0,0,0-.09,0,.06.06,0,0,0,0,.09l1.18,1.28-1.8,1.08,1.79,1.58-2.4,1.06,2.39,2.1-3.16,1.2,3.16,2.63-4.19,1.79,4.15,2.36L33.57,53.2s0,0,0,.09A.07.07,0,0,0,33.59,53.33Z"/><path class="cls-5" d="M36.13,35.94l0,0,1.06-1.41a.06.06,0,0,0,0-.09.07.07,0,0,0-.09,0l-1.07,1.41a.07.07,0,0,0,0,.09Z"/><path class="cls-5" d="M35.4,35.94a.05.05,0,0,0,.05,0l.53-.79a.07.07,0,0,0-.11-.07l-.52.79a.06.06,0,0,0,0,.09Z"/><path class="cls-5" d="M37,35.94a.05.05,0,0,0,0,0l.51-.79a.07.07,0,1,0-.11-.07l-.51.79a.07.07,0,0,0,0,.09Z"/><path class="cls-5" d="M36.74,35.94h0a.07.07,0,0,0,0-.09l-.56-.91a.07.07,0,1,0-.11.07l.56.91A.06.06,0,0,0,36.74,35.94Z"/><path class="cls-5" d="M36.5,32.71a.07.07,0,0,0,.06,0l.74-1.54a.06.06,0,0,0,0-.09.07.07,0,0,0-.09,0l-.73,1.54a.06.06,0,0,0,0,.09Z"/><path class="cls-5" d="M35.66,32.71a.07.07,0,0,0,.06,0l.6-1.23a.05.05,0,0,0,0-.08.06.06,0,0,0-.08,0l-.6,1.22a.06.06,0,0,0,0,.09Z"/><path class="cls-5" d="M34.84,32.71s0,0,.06,0l.43-.9a.06.06,0,0,0,0-.09.06.06,0,0,0-.08,0l-.44.9a.07.07,0,0,0,0,.09Z"/><path class="cls-5" d="M34,32.71a.07.07,0,0,0,0,0l.27-.57a.06.06,0,0,0,0-.09.06.06,0,0,0-.08,0l-.27.57a.07.07,0,0,0,0,.09Z"/><path class="cls-5" d="M35.36,32.71a.05.05,0,0,0,0,0s0-.07,0-.09l-.81-.67a.06.06,0,0,0-.08.1l.8.67Z"/><path class="cls-5" d="M36.26,32.71h0a.07.07,0,0,0,0-.09l-.62-1a.08.08,0,0,0-.09,0,.07.07,0,0,0,0,.09l.62,1A.05.05,0,0,0,36.26,32.71Z"/><path class="cls-5" d="M37.29,32.71h0a.06.06,0,0,0,0-.09l-.69-1.33a.06.06,0,0,0-.08,0,.06.06,0,0,0,0,.09l.69,1.33A.07.07,0,0,0,37.29,32.71Z"/><path class="cls-5" d="M36.88,29.68l.63-1a.07.07,0,1,0-.11-.07l-.54.85L36,28.61a.06.06,0,0,0-.09.09Z"/><path class="cls-5" d="M35.94,29.67l.91-1.35.54.29s.08,0,.09,0a.05.05,0,0,0,0-.08l-.65-.35-.89,1.33-.6-.54a.06.06,0,0,0-.09,0,.06.06,0,0,0,0,.09Z"/><path class="cls-5" d="M35,29.91h.32a.07.07,0,0,0,.07-.06.07.07,0,0,0-.07-.07H35a.07.07,0,0,0-.07.07A.07.07,0,0,0,35,29.91Z"/><path class="cls-5" d="M35,30.13h.32a.07.07,0,0,0,.07-.06.07.07,0,0,0-.07-.07H35a.07.07,0,0,0-.07.07A.07.07,0,0,0,35,30.13Z"/><path class="cls-5" d="M35,30.35h.32a.07.07,0,0,0,.07-.06.07.07,0,0,0-.07-.07H35a.07.07,0,0,0-.07.07A.07.07,0,0,0,35,30.35Z"/><path class="cls-5" d="M35,30.57h.32a.07.07,0,0,0,.07-.06.07.07,0,0,0-.07-.07H35a.07.07,0,0,0-.07.07A.07.07,0,0,0,35,30.57Z"/><path class="cls-5" d="M35,30.79h.32a.07.07,0,0,0,.07-.06.07.07,0,0,0-.07-.07H35a.07.07,0,0,0-.07.07A.07.07,0,0,0,35,30.79Z"/><path class="cls-5" d="M35.59,29.91h.33a.06.06,0,0,0,.06-.06.07.07,0,0,0-.06-.07h-.33a.07.07,0,0,0-.06.07A.06.06,0,0,0,35.59,29.91Z"/><path class="cls-5" d="M35.59,30.13h.33a.06.06,0,0,0,.06-.06.07.07,0,0,0-.06-.07h-.33a.07.07,0,0,0-.06.07A.06.06,0,0,0,35.59,30.13Z"/><path class="cls-5" d="M35.59,30.35h.33a.06.06,0,0,0,.06-.06.07.07,0,0,0-.06-.07h-.33a.07.07,0,0,0-.06.07A.06.06,0,0,0,35.59,30.35Z"/><path class="cls-5" d="M35.59,30.57h.33a.06.06,0,0,0,.06-.06.07.07,0,0,0-.06-.07h-.33a.07.07,0,0,0-.06.07A.06.06,0,0,0,35.59,30.57Z"/><path class="cls-5" d="M35.59,30.79h.33a.06.06,0,0,0,.06-.06.07.07,0,0,0-.06-.07h-.33a.07.07,0,0,0-.06.07A.06.06,0,0,0,35.59,30.79Z"/><path class="cls-5" d="M35.76,30.93a0,0,0,0,0,0,0V29.6a0,0,0,0,0,0,0,0,0,0,0,0,0,0v1.29A0,0,0,0,0,35.76,30.93Z"/><path class="cls-5" d="M35.11,30.93a0,0,0,0,0,0,0V29.6a0,0,0,0,0,0,0,0,0,0,0,0,0,0v1.29A0,0,0,0,0,35.11,30.93Z"/><path class="cls-5" d="M33.81,33h.32a.07.07,0,0,0,.07-.06.07.07,0,0,0-.07-.07h-.32a.07.07,0,0,0-.07.07A.07.07,0,0,0,33.81,33Z"/><path class="cls-5" d="M33.81,33.17h.32a.07.07,0,0,0,.07-.06.07.07,0,0,0-.07-.07h-.32a.07.07,0,0,0-.07.07A.07.07,0,0,0,33.81,33.17Z"/><path class="cls-5" d="M33.81,33.39h.32a.07.07,0,0,0,.07-.06.07.07,0,0,0-.07-.07h-.32a.07.07,0,0,0-.07.07A.07.07,0,0,0,33.81,33.39Z"/><path class="cls-5" d="M33.81,33.61h.32a.07.07,0,0,0,.07-.06.07.07,0,0,0-.07-.07h-.32a.07.07,0,0,0-.07.07A.07.07,0,0,0,33.81,33.61Z"/><path class="cls-5" d="M33.81,33.83h.32a.07.07,0,0,0,.07-.06.07.07,0,0,0-.07-.07h-.32a.07.07,0,0,0-.07.07A.07.07,0,0,0,33.81,33.83Z"/><path class="cls-5" d="M34.45,33h.33a.06.06,0,0,0,.06-.06.07.07,0,0,0-.06-.07h-.33a.07.07,0,0,0-.06.07A.06.06,0,0,0,34.45,33Z"/><path class="cls-5" d="M34.45,33.17h.33a.06.06,0,0,0,.06-.06.07.07,0,0,0-.06-.07h-.33a.07.07,0,0,0-.06.07A.06.06,0,0,0,34.45,33.17Z"/><path class="cls-5" d="M34.45,33.39h.33a.06.06,0,0,0,.06-.06.07.07,0,0,0-.06-.07h-.33a.07.07,0,0,0-.06.07A.06.06,0,0,0,34.45,33.39Z"/><path class="cls-5" d="M34.45,33.61h.33a.06.06,0,0,0,.06-.06.07.07,0,0,0-.06-.07h-.33a.07.07,0,0,0-.06.07A.06.06,0,0,0,34.45,33.61Z"/><path class="cls-5" d="M34.45,33.83h.33a.06.06,0,0,0,.06-.06.07.07,0,0,0-.06-.07h-.33a.07.07,0,0,0-.06.07A.06.06,0,0,0,34.45,33.83Z"/><path class="cls-5" d="M34.62,34a0,0,0,0,0,0,0V32.64a0,0,0,0,0,0,0,0,0,0,0,0,0,0v1.29A0,0,0,0,0,34.62,34Z"/><path class="cls-5" d="M34,34a0,0,0,0,0,.05,0V32.64a0,0,0,0,0-.05,0,0,0,0,0,0,0,0v1.29A0,0,0,0,0,34,34Z"/><path class="cls-5" d="M35.22,36.19h.32a.07.07,0,0,0,.07-.06.07.07,0,0,0-.07-.07h-.32a.07.07,0,0,0-.07.07A.07.07,0,0,0,35.22,36.19Z"/><path class="cls-5" d="M35.22,36.41h.32a.07.07,0,0,0,.07-.06.07.07,0,0,0-.07-.07h-.32a.07.07,0,0,0-.07.07A.07.07,0,0,0,35.22,36.41Z"/><path class="cls-5" d="M35.22,36.63h.32a.07.07,0,0,0,.07-.06.07.07,0,0,0-.07-.07h-.32a.07.07,0,0,0-.07.07A.07.07,0,0,0,35.22,36.63Z"/><path class="cls-5" d="M35.22,36.85h.32a.07.07,0,0,0,.07-.06.07.07,0,0,0-.07-.07h-.32a.07.07,0,0,0-.07.07A.07.07,0,0,0,35.22,36.85Z"/><path class="cls-5" d="M35.22,37.07h.32a.07.07,0,0,0,.07-.06.07.07,0,0,0-.07-.07h-.32a.07.07,0,0,0-.07.07A.07.07,0,0,0,35.22,37.07Z"/><path class="cls-5" d="M35.86,36.19h.33a.06.06,0,0,0,.06-.06.07.07,0,0,0-.06-.07h-.33a.07.07,0,0,0-.06.07A.06.06,0,0,0,35.86,36.19Z"/><path class="cls-5" d="M35.86,36.41h.33a.06.06,0,0,0,.06-.06.07.07,0,0,0-.06-.07h-.33a.07.07,0,0,0-.06.07A.06.06,0,0,0,35.86,36.41Z"/><path class="cls-5" d="M35.86,36.63h.33a.06.06,0,0,0,.06-.06.07.07,0,0,0-.06-.07h-.33a.07.07,0,0,0-.06.07A.06.06,0,0,0,35.86,36.63Z"/><path class="cls-5" d="M35.86,36.85h.33a.06.06,0,0,0,.06-.06.07.07,0,0,0-.06-.07h-.33a.07.07,0,0,0-.06.07A.06.06,0,0,0,35.86,36.85Z"/><path class="cls-5" d="M35.86,37.07h.33a.06.06,0,0,0,.06-.06.07.07,0,0,0-.06-.07h-.33a.07.07,0,0,0-.06.07A.06.06,0,0,0,35.86,37.07Z"/><path class="cls-5" d="M36,37.21a0,0,0,0,0,0,0V35.88a0,0,0,0,0,0,0,0,0,0,0,0,0,0v1.29A0,0,0,0,0,36,37.21Z"/><path class="cls-5" d="M35.38,37.21a0,0,0,0,0,0,0V35.88a0,0,0,0,0-.08,0v1.29A0,0,0,0,0,35.38,37.21Z"/><path class="cls-5" d="M43.79,53.55h0a.09.09,0,0,0,.06-.1L40,36.52V27.13h0l-1.24-2.65a.09.09,0,1,0-.15.08l1.23,2.62v9.36h0l3.88,17A.09.09,0,0,0,43.79,53.55Z"/><path class="cls-5" d="M39.9,29.66h2.57V29.1l-2.53-1.24a.1.1,0,0,0-.12,0,.09.09,0,0,0,0,.12l2.43,1.19v.28H39.9a.08.08,0,0,0-.08.08A.08.08,0,0,0,39.9,29.66Z"/><path class="cls-5" d="M39.9,32.73h4v-.49L39.93,31a.08.08,0,0,0-.11.05.09.09,0,0,0,.06.11l3.82,1.25v.18H39.9a.09.09,0,0,0,0,.18Z"/><path class="cls-5" d="M39.9,36h2.41v-.53l-2.37-1.15a.1.1,0,0,0-.12,0,.1.1,0,0,0,0,.12l2.28,1.1v.25H39.9a.08.08,0,0,0-.08.09A.07.07,0,0,0,39.9,36Z"/><path class="cls-5" d="M38.66,36.19h1.4l-1.31-1.35L40,33.55l-1.24-1.09L40,31.26l-1.24-.93L40,29.11l-1.21-.6,1.26-.71-1.23-.46,1-.53-1.1-.69.47-.42a.06.06,0,0,0,0-.09.06.06,0,0,0-.09,0l-.6.54,1,.66-1.11.56,1.25.47-1.22.69,1.26.62-1.23,1.2,1.24.93-1.23,1.19,1.24,1.1-1.24,1.28,1.18,1.22H38.66a.06.06,0,0,0-.06.06A.07.07,0,0,0,38.66,36.19Z"/><path class="cls-5" d="M43.74,53.33a.07.07,0,0,0,.06,0,.08.08,0,0,0,0-.09l-4.93-1.55L43,49.29,38.79,47.5,42,44.87l-3.16-1.2,2.39-2.1-2.4-1.06,1.79-1.58-1.8-1.08L40,36.57a.07.07,0,0,0,0-.09.07.07,0,0,0-.1,0l-1.29,1.4L40.35,39l-1.8,1.6,2.39,1.06-2.4,2.1,3.15,1.2-3.15,2.63,4.14,1.76L38.5,51.68l5.22,1.65Z"/><path class="cls-5" d="M41.2,35.94h0a.06.06,0,0,0,0-.09l-1.06-1.41a.07.07,0,0,0-.09,0,.06.06,0,0,0,0,.09l1.06,1.41Z"/><path class="cls-5" d="M41.93,35.94h0a.07.07,0,0,0,0-.09l-.53-.79a.07.07,0,0,0-.09,0,.06.06,0,0,0,0,.09l.52.79A.09.09,0,0,0,41.93,35.94Z"/><path class="cls-5" d="M40.38,35.94h0a.08.08,0,0,0,0-.09l-.51-.79a.07.07,0,0,0-.11.07l.51.79A.05.05,0,0,0,40.38,35.94Z"/><path class="cls-5" d="M40.59,35.94a.09.09,0,0,0,.06,0l.56-.91a.07.07,0,0,0-.11-.07l-.56.91a.07.07,0,0,0,0,.09Z"/><path class="cls-5" d="M40.82,32.71h0a.07.07,0,0,0,0-.09l-.74-1.54a.06.06,0,0,0-.08,0,.06.06,0,0,0,0,.09l.74,1.54A.07.07,0,0,0,40.82,32.71Z"/><path class="cls-5" d="M41.66,32.71h0a.06.06,0,0,0,0-.09l-.6-1.22a.07.07,0,0,0-.12.05l.61,1.23A.07.07,0,0,0,41.66,32.71Z"/><path class="cls-5" d="M42.49,32.71h0a.07.07,0,0,0,0-.09l-.44-.9a.06.06,0,0,0-.08,0,.06.06,0,0,0,0,.09l.43.9A.08.08,0,0,0,42.49,32.71Z"/><path class="cls-5" d="M43.34,32.71h0a.07.07,0,0,0,0-.09L43.13,32a.06.06,0,0,0-.08,0,.07.07,0,0,0,0,.09l.27.57S43.32,32.71,43.34,32.71Z"/><path class="cls-5" d="M42,32.71l0,0,.8-.67a.06.06,0,0,0,0-.09.06.06,0,0,0-.09,0l-.81.67a.06.06,0,0,0,0,.09Z"/><path class="cls-5" d="M41.06,32.71a.07.07,0,0,0,.06,0l.62-1a.07.07,0,0,0,0-.09.08.08,0,0,0-.09,0l-.62,1a.07.07,0,0,0,0,.09Z"/><path class="cls-5" d="M40,32.71a.07.07,0,0,0,.06,0l.69-1.33a.07.07,0,1,0-.12-.06L40,32.61a.07.07,0,0,0,0,.09Z"/><path class="cls-5" d="M40.44,29.68l1-1s0-.07,0-.09a.06.06,0,0,0-.09,0l-.85.86-.54-.85a.07.07,0,1,0-.11.07Z"/><path class="cls-5" d="M41.39,29.67,42.1,29a.07.07,0,0,0-.09-.1l-.6.54-.89-1.33-.65.35a.05.05,0,0,0,0,.08.05.05,0,0,0,.08,0l.55-.29Z"/><path class="cls-5" d="M42.05,29.91h.33a.06.06,0,0,0,.06-.06.07.07,0,0,0-.06-.07h-.33a.07.07,0,0,0-.06.07A.06.06,0,0,0,42.05,29.91Z"/><path class="cls-5" d="M42.05,30.13h.33a.06.06,0,0,0,.06-.06.07.07,0,0,0-.06-.07h-.33a.07.07,0,0,0-.06.07A.06.06,0,0,0,42.05,30.13Z"/><path class="cls-5" d="M42.05,30.35h.33a.06.06,0,0,0,.06-.06.07.07,0,0,0-.06-.07h-.33a.07.07,0,0,0-.06.07A.06.06,0,0,0,42.05,30.35Z"/><path class="cls-5" d="M42.05,30.57h.33a.06.06,0,0,0,.06-.06.07.07,0,0,0-.06-.07h-.33a.07.07,0,0,0-.06.07A.06.06,0,0,0,42.05,30.57Z"/><path class="cls-5" d="M42.05,30.79h.33a.06.06,0,0,0,.06-.06.07.07,0,0,0-.06-.07h-.33a.07.07,0,0,0-.06.07A.06.06,0,0,0,42.05,30.79Z"/><path class="cls-5" d="M41.41,29.91h.33a.06.06,0,0,0,.06-.06.07.07,0,0,0-.06-.07h-.33a.07.07,0,0,0-.07.07A.07.07,0,0,0,41.41,29.91Z"/><path class="cls-5" d="M41.41,30.13h.33a.06.06,0,0,0,.06-.06.07.07,0,0,0-.06-.07h-.33a.07.07,0,0,0-.07.07A.07.07,0,0,0,41.41,30.13Z"/><path class="cls-5" d="M41.41,30.35h.33a.06.06,0,0,0,.06-.06.07.07,0,0,0-.06-.07h-.33a.07.07,0,0,0-.07.07A.07.07,0,0,0,41.41,30.35Z"/><path class="cls-5" d="M41.41,30.57h.33a.06.06,0,0,0,.06-.06.07.07,0,0,0-.06-.07h-.33a.07.07,0,0,0-.07.07A.07.07,0,0,0,41.41,30.57Z"/><path class="cls-5" d="M41.41,30.79h.33a.06.06,0,0,0,.06-.06.07.07,0,0,0-.06-.07h-.33a.07.07,0,0,0-.07.07A.07.07,0,0,0,41.41,30.79Z"/><path class="cls-5" d="M41.57,30.93a0,0,0,0,0,0,0V29.6a0,0,0,0,0,0,0,0,0,0,0,0,0,0v1.29A0,0,0,0,0,41.57,30.93Z"/><path class="cls-5" d="M42.22,30.93a0,0,0,0,0,0,0V29.6a0,0,0,0,0,0,0,0,0,0,0,0,0,0v1.29A0,0,0,0,0,42.22,30.93Z"/><path class="cls-5" d="M43.19,33h.33a.06.06,0,0,0,.06-.06.07.07,0,0,0-.06-.07h-.33a.07.07,0,0,0-.06.07A.06.06,0,0,0,43.19,33Z"/><path class="cls-5" d="M43.19,33.17h.33a.06.06,0,0,0,.06-.06.07.07,0,0,0-.06-.07h-.33a.07.07,0,0,0-.06.07A.06.06,0,0,0,43.19,33.17Z"/><path class="cls-5" d="M43.19,33.39h.33a.06.06,0,0,0,.06-.06.07.07,0,0,0-.06-.07h-.33a.07.07,0,0,0-.06.07A.06.06,0,0,0,43.19,33.39Z"/><path class="cls-5" d="M43.19,33.61h.33a.06.06,0,0,0,.06-.06.07.07,0,0,0-.06-.07h-.33a.07.07,0,0,0-.06.07A.06.06,0,0,0,43.19,33.61Z"/><path class="cls-5" d="M43.19,33.83h.33a.06.06,0,0,0,.06-.06.07.07,0,0,0-.06-.07h-.33a.07.07,0,0,0-.06.07A.06.06,0,0,0,43.19,33.83Z"/><path class="cls-5" d="M42.55,33h.32a.07.07,0,0,0,.07-.06.07.07,0,0,0-.07-.07h-.32a.07.07,0,0,0-.07.07A.07.07,0,0,0,42.55,33Z"/><path class="cls-5" d="M42.55,33.17h.32a.07.07,0,0,0,.07-.06.07.07,0,0,0-.07-.07h-.32a.07.07,0,0,0-.07.07A.07.07,0,0,0,42.55,33.17Z"/><path class="cls-5" d="M42.55,33.39h.32a.07.07,0,0,0,.07-.06.07.07,0,0,0-.07-.07h-.32a.07.07,0,0,0-.07.07A.07.07,0,0,0,42.55,33.39Z"/><path class="cls-5" d="M42.55,33.61h.32a.07.07,0,0,0,.07-.06.07.07,0,0,0-.07-.07h-.32a.07.07,0,0,0-.07.07A.07.07,0,0,0,42.55,33.61Z"/><path class="cls-5" d="M42.55,33.83h.32a.07.07,0,0,0,.07-.06.07.07,0,0,0-.07-.07h-.32a.07.07,0,0,0-.07.07A.07.07,0,0,0,42.55,33.83Z"/><path class="cls-5" d="M42.71,34a0,0,0,0,0,0,0V32.64a0,0,0,0,0,0,0,0,0,0,0,0,0,0v1.29A0,0,0,0,0,42.71,34Z"/><path class="cls-5" d="M43.36,34a0,0,0,0,0,0,0V32.64a0,0,0,0,0,0,0,0,0,0,0,0,0,0v1.29A0,0,0,0,0,43.36,34Z"/><path class="cls-5" d="M41.78,36.19h.33a.06.06,0,0,0,.06-.06s0-.07-.06-.07h-.33a.07.07,0,0,0-.06.07A.06.06,0,0,0,41.78,36.19Z"/><path class="cls-5" d="M41.78,36.41h.33a.06.06,0,0,0,.06-.06s0-.07-.06-.07h-.33a.07.07,0,0,0-.06.07A.06.06,0,0,0,41.78,36.41Z"/><path class="cls-5" d="M41.78,36.63h.33a.06.06,0,0,0,.06-.06s0-.07-.06-.07h-.33a.07.07,0,0,0-.06.07A.06.06,0,0,0,41.78,36.63Z"/><path class="cls-5" d="M41.78,36.85h.33a.06.06,0,0,0,.06-.06s0-.07-.06-.07h-.33a.07.07,0,0,0-.06.07A.06.06,0,0,0,41.78,36.85Z"/><path class="cls-5" d="M41.78,37.07h.33a.06.06,0,0,0,.06-.06s0-.07-.06-.07h-.33a.07.07,0,0,0-.06.07A.06.06,0,0,0,41.78,37.07Z"/><path class="cls-5" d="M41.14,36.19h.33a.06.06,0,0,0,.06-.06.07.07,0,0,0-.06-.07h-.33s-.06,0-.06.07A.06.06,0,0,0,41.14,36.19Z"/><path class="cls-5" d="M41.14,36.41h.33a.06.06,0,0,0,.06-.06.07.07,0,0,0-.06-.07h-.33s-.06,0-.06.07A.06.06,0,0,0,41.14,36.41Z"/><path class="cls-5" d="M41.14,36.63h.33a.06.06,0,0,0,.06-.06.07.07,0,0,0-.06-.07h-.33s-.06,0-.06.07A.06.06,0,0,0,41.14,36.63Z"/><path class="cls-5" d="M41.14,36.85h.33a.06.06,0,0,0,.06-.06.07.07,0,0,0-.06-.07h-.33s-.06,0-.06.07A.06.06,0,0,0,41.14,36.85Z"/><path class="cls-5" d="M41.14,37.07h.33a.06.06,0,0,0,.06-.06.07.07,0,0,0-.06-.07h-.33s-.06,0-.06.07A.06.06,0,0,0,41.14,37.07Z"/><path class="cls-5" d="M41.3,37.21a0,0,0,0,0,.05,0V35.88a0,0,0,0,0-.05,0,0,0,0,0,0,0,0v1.29A0,0,0,0,0,41.3,37.21Z"/><path class="cls-5" d="M42,37.21a0,0,0,0,0,0,0V35.88a0,0,0,0,0,0,0,0,0,0,0,0-.05,0v1.29A0,0,0,0,0,42,37.21Z"/><path class="cls-6" d="M20.89,29.39c8,9.11,14.87,1.54,14.87,1.54,12.69,6.81,25.76-3.36,25.76-3.36"/><path class="cls-6" d="M19.61,31.47C25.87,40.36,34,34,34,34c11,9.16,27.27,2,27.27,2"/><path class="cls-6" d="M20.63,33.76C26.22,44,36,37.21,36,37.21c9.49,10.23,25,2.85,25,2.85"/><polygon class="cls-7" points="66.58 17.57 49.82 40.31 59.32 40.31 52.82 57.58 69.83 34.71 60.27 34.71 66.58 17.57"/><polygon class="cls-3" points="66.58 17.57 49.82 40.31 59.32 40.31 52.82 57.58 69.83 34.71 60.27 34.71 66.58 17.57"/></g></svg>